<?xml version="1.0" encoding="UTF-8" standalone="no"?><svg
 xmlns="http://www.w3.org/2000/svg" xmlns:svg="http://www.w3.org/2000/svg" xmlns:xlink="http://www.w3.org/1999/xlink" xml:lang="en" xmlns:freesewing="http://freesewing.org/namespaces/freesewing" freesewing="2.18.0-rc.2" freesewing:plugin-buttons="2.18.0-rc.2" freesewing:plugin-cutonfold="2.18.0-rc.2" freesewing:plugin-dimension="2.18.0-rc.2" freesewing:plugin-grainline="2.18.0-rc.2" freesewing:plugin-logo="2.18.0-rc.2" freesewing:plugin-mirror="2.18.0-rc.2" freesewing:plugin-notches="2.18.0-rc.2" freesewing:plugin-title="2.18.0-rc.2" freesewing:plugin-scalebox="2.18.0-rc.2" freesewing:plugin-round="2.18.0-rc.2" freesewing:plugin-sprinkle="2.18.0-rc.2" freesewing:plugin-flip="2.18.0-rc.2" class="freesewing" freesewing:plugin-theme="2.18.0-rc.2" width="1171.38mm" height="740.17mm" viewBox="0 0 1171.3767777173716 740.1653994100668"
>
<style type="text/css"> <![CDATA[ 
text.title-nr{font-size:24pt;font-weight:700;text-anchor:middle;dominant-baseline:reset-size}text.title-name{font-size:7pt;font-weight:500;text-anchor:middle;dominant-baseline:reset-size}text.title-pattern{font-size:4pt;font-weight:500;dominant-baseline:reset-size;text-anchor:middle;font-style:italic}
svg.freesewing path,svg.freesewing circle,svg.freesewing rect{fill:none;stroke:none}svg.freesewing path,svg.freesewing circle{stroke:#000;stroke-opacity:1;stroke-width:0.3;stroke-linecap:round;stroke-linejoin:round}svg.freesewing .fabric{stroke-width:0.6;stroke:#212121}svg.freesewing .lining{stroke-width:0.6;stroke:#ff5b77}svg.freesewing .interfacing{stroke-width:0.6;stroke:#64b5f6}svg.freesewing .canvas{stroke-width:0.6;stroke:#ff9000}svg.freesewing .various{stroke-width:0.6;stroke:#4caf50}svg.freesewing .note{stroke-width:0.4;stroke:#dd60dd}svg.freesewing .mark{stroke-width:0.4;stroke:blue}svg.freesewing .contrast{stroke-width:0.8;stroke:red}svg.freesewing .stroke-xs{stroke-width:0.1}svg.freesewing .stroke-sm{stroke-width:0.2}svg.freesewing .stroke-lg{stroke-width:0.6}svg.freesewing .stroke-xl{stroke-width:1}svg.freesewing .stroke-xxl{stroke-width:2}svg.freesewing .sa{stroke-dasharray:0.4, 0.8}svg.freesewing .help{stroke-width:0.2;stroke-dasharray:15, 1.5, 1, 1.5}svg.freesewing .dotted{stroke-dasharray:0.4, 0.8}svg.freesewing .dashed{stroke-dasharray:1, 1.5}svg.freesewing .lashed{stroke-dasharray:6, 6}svg.freesewing .hidden{stroke:none;fill:none}svg.freesewing .fill-fabric{fill:#212121}svg.freesewing .fill-lining{fill:#ff5b77}svg.freesewing .fill-interfacing{fill:#64b5f6}svg.freesewing .fill-canvas{fill:#ff9000}svg.freesewing .fill-various{fill:#4caf50}svg.freesewing .fill-note{fill:#dd69dd}svg.freesewing .fill-mark{fill:blue}svg.freesewing .fill-contrast{fill:red}svg.freesewing text{font-size:5px;font-family:-apple-system, system-ui, BlinkMacSystemFont, 'Segoe UI', Roboto, 'Helvetica Neue', Arial, sans-serif;fill:#000;text-anchor:start;font-weight:200;dominant-baseline:ideographic}svg.freesewing .text-xs{font-size:3px}svg.freesewing .text-sm{font-size:4px}svg.freesewing .text-lg{font-size:7px}svg.freesewing .text-xl{font-size:9px}svg.freesewing .text-xxl{font-size:12px}svg.freesewing .center{text-anchor:middle}svg.freesewing .right{text-anchor:end}svg.freesewing path.bartack{stroke-width:2;stroke:#fd7e14;stroke-linecap:butt}
svg.freesewing path.grid{fill:none;stroke:#555;stroke-width:0.3}svg.freesewing path.gridline{stroke:#555;stroke-width:0.2}svg.freesewing path.gridline-lg{stroke:#777;stroke-width:0.2;stroke-dasharray:1.5,1.5}svg.freesewing path.gridline-sm{stroke:#999;stroke-width:0.1}svg.freesewing path.gridline-xs{stroke:#999;stroke-width:0.1;stroke-dasharray:0.5,0.5}svg.freesewing path.gridbox{fill:url(#grid)}
svg.freesewing path.sample{stroke-width:0.75}svg.freesewing path.sample-focus{stroke-width:1.5;fill:rgba(0,0,0,0.1)}

]]>
</style>
<script type="text/javascript"> <![CDATA[

]]>
</script>
<defs>
<g id="button"><circle cx="0" cy="0" r="3.4" style="stroke:#000000;fill:none;stroke-width:1;"/><circle cx="-1" cy="-1" r="0.5" style="stroke:none;fill:#000000;"/><circle cx="1" cy="-1" r="0.5" style="stroke:none;fill:#000000;" /><circle cx="1" cy="1" r="0.5" style="stroke:none;fill:#000000;" /><circle cx="-1" cy="1" r="0.5" style="stroke:none;fill:#000000;" /></g><g id="buttonhole"><path style="fill:none;stroke:#000000;" d="M -1,-5 L 1,-5 L 1,5 L -1,5 z" /></g><g id="buttonhole-start"><path style="fill:none;stroke:#000000;" d="M -1,-10 L 1,-10 L 1,0 L -1,0 z" /></g><g id="buttonhole-end"><path style="fill:none;stroke:#000000;" d="M -1,0 L 1,0 L 1,10 L -1,10 z" /></g><radialGradient id="snap-stud-grad" cx="50%" cy="50%" r="50%" fx="50%" fy="50%"><stop offset="30%" style="stop-color:rgb(235,235,235); stop-opacity:1"/><stop offset="80%" style="stop-color:rgb(100,100,100);stop-opacity:1" /></radialGradient><g id="snap-stud" ><circle id="snap-stud-circle-edge" cx="0" cy="0" r="3.4" style="stroke:#666;fill:#dddddd;stroke-width:0.3;" /><circle id="snap-stud-circle-middle" cx="0" cy="0" r="1.8" style="stroke:none;fill:url(#snap-stud-grad);"/><path style="fill:none;stroke:#666; stroke-width:0.2;" d="M -2,0 L -3,0 M 2,0 L 3,0 M 0,2 L 0,3 M 0,-2 L 0,-3 M 1.5,1.5 L 2.1,2.1 M -1.5,1.5 L -2.1,2.1 M -1.5,-1.5 L -2.1,-2.1 M 1.5,-1.5 L 2.1,-2.1" id="snap-stud-lines"/></g><g id="snap-socket"><circle id="snap-socket-circle-edge" cx="0" cy="0" r="3.4" style="stroke:#666;fill:#bbbbbb;stroke-width:0.3;"/><circle id="snap-socket-circle-middle" cx="0" cy="0" r="2" style="stroke:#666;fill:#dddddd; stroke-width:0.4;"/><path style="fill:none;stroke:#666; stroke-width:0.5;" d="M -1.7,-1 L -1.7,1 M 1.7,-1 L 1.7,1" id="snap-socket-lines" /></g>
<marker orient="auto" refY="0.0" refX="0.0" id="cutonfoldFrom" style="overflow:visible;" >
	<path class="note fill-note" d="M 0,0 L 12,-4 C 10,-2 10,2  12, 4 z" />
</marker>
<marker orient="auto" refY="0.0" refX="0.0" id="cutonfoldTo" style="overflow:visible;" >
	<path class="note fill-note" d="M 0,0 L -12,-4 C -10,-2 -10,2  -12, 4 z" />
</marker>

<marker orient="auto" refY="0.0" refX="0.0" id="dimensionFrom" style="overflow:visible;"><path class="mark fill-mark" d="M 0,0 L 12,-4 C 10,-2 10,2  12, 4 z" /></marker>
<marker orient="auto" refY="0.0" refX="0.0" id="dimensionTo" style="overflow:visible;" ><path class="mark fill-mark" d="M 0,0 L -12,-4 C -10,-2 -10,2  -12, 4 z" /></marker>

<marker orient="auto" refY="0.0" refX="0.0" id="grainlineFrom" style="overflow:visible;" >
	<path class="note fill-note" d="M 0,0 L 12,-4 C 10,-2 10,2  12, 4 z" />
</marker>
<marker orient="auto" refY="0.0" refX="0.0" id="grainlineTo" style="overflow:visible;" >
	<path class="note fill-note" d="M 0,0 L -12,-4 C -10,-2 -10,2  -12, 4 z" />
</marker>
<g id="logo" transform="translate(-23 -36)"><path class="logo" stroke="none" fill="currentColor" d="M 35.222,0 C 34.233,0.703 34.284,0.613 33.485,0.874 31.653,1.473 29.896,1.144 27.811,0.97 27.184,0.9 26.562,0.859 25.955,0.855 22.89,0.834 20.287,1.733 19.794,4.243 18.885,4.794 18.049,5.461 17.221,6.129 15.453,7.524 14.122,9.229 13.214,11.284 11.974,14.319 13.094,17.576 13.649,20.652 13.781,21.372 13.919,22.058 13.993,22.323 14.098,22.696 14.283,23.052 14.484,23.372 14.531,23.38 14.779,22.998 14.838,22.829 14.924,22.583 14.915,22.188 14.821,21.848 14.613,21.083 14.415,20.462 14.398,20.15 14.368,19.564 14.482,19.023 14.696,18.755 14.772,18.66 14.946,19.15 14.901,19.332 14.848,19.551 14.808,19.926 14.825,20.099 14.872,20.685 14.958,21.312 15.065,21.86 15.202,22.567 15.261,23.021 15.236,23.197 15.218,23.325 15.158,23.454 14.928,23.85 14.728,24.197 14.624,24.478 14.608,24.726 14.591,24.968 14.664,25.573 14.732,25.721 14.831,25.952 15.129,26.195 15.389,26.255 15.638,26.35 15.763,26.547 15.891,26.768 16.202,27.361 16.442,28.083 16.68,29.171 16.796,29.692 16.893,30.157 16.924,30.401 15.004,30.403 12.545,30.404 10.305,30.404 9.551,30.416 8.189,30.062 6.94,29.98 6.759,28.026 5.901,25.756 4.433,25.624 3.431,25.533 2.6,25.914 1.897,27.497 L 1.917,27.582 C 2.332,27.235 2.77,26.174 4.348,26.247 5.56,26.302 5.964,28.596 6.084,29.976 5.346,30.03 4.718,30.257 4.39,30.824 L 4.383,30.824 C 4.383,30.825 4.383,30.827 4.386,30.829 4.383,30.831 4.383,30.833 4.383,30.835 L 4.39,30.835 C 4.728,31.416 5.379,31.641 6.144,31.686 6.655,46.136 20.238,48 23.95,48 37.798,48 42.646,38.59 43.375,34.863 43.716,36.451 42.642,38.474 42.385,39.967 45.306,36.59 44.778,33.343 44.244,30.077 44.688,30.605 45.289,30.932 46.104,30.751 45.523,30.363 44.735,30.635 44.263,28.998 44.057,28.291 43.879,27.761 43.702,27.316 43.32,25.883 42.778,24.514 42.112,23.18 41.55,21.733 41.921,20.795 41.865,19.553 42.876,22.887 43.508,23.774 44.688,24.123 41.72,20.547 42.736,15.01 41.059,10.068 41.818,10.514 42.684,10.648 43.606,10.103 42.714,9.849 41.824,10.52 40.544,8.639 39.463,6.536 37.897,4.983 35.997,3.613 34.979,2.949 33.849,2.503 32.713,2.089 33.87,1.799 35.162,0.769 35.222,0 z M 33.281,11.107 C 34.805,11.663 36.485,13.775 36.466,15.847 L 36.466,15.933 36.466,15.963 C 36.425,18.777 35.146,20.29 35.2,22.164 35.269,24.371 36.219,25.141 36.408,25.509 36.084,24.148 35.894,22.436 36.322,21.08 36.872,19.336 37.427,17.892 37.387,16.526 37.367,16.206 37.231,15.009 37.14,14.479 38.774,16.837 36.786,20.266 37.358,22.51 38.352,26.419 42.807,26.913 41.481,34.789 40.314,41.713 32.318,46.968 24.122,46.968 18.046,46.968 7.517,43.605 6.997,31.676 8.232,31.588 9.56,31.244 10.305,31.256 12.557,31.256 15.129,31.257 17.067,31.258 17.431,32.9 17.704,33.296 19.085,34.39 20.621,35.598 20.979,35.745 23.251,35.767 25.524,35.79 26.198,35.303 28.403,33.217 28.879,32.659 29.085,31.928 29.316,31.241 31.584,31.22 33.238,31.18 34.865,31.104 36.522,31.029 36.756,31.104 39.426,30.829 36.756,30.554 36.522,30.629 34.865,30.553 33.281,30.481 31.677,30.44 29.508,30.42 29.69,29.603 29.95,28.805 30.227,28.016 30.398,27.551 30.599,27.098 30.805,26.647 L 31.03,26.577 C 31.464,26.423 31.848,26.093 32.001,25.647 32.198,25.056 32.058,24.392 31.677,23.909 31.546,23.728 31.383,23.497 31.316,23.395 31.115,23.077 31.11,22.9 31.28,21.718 31.423,20.728 31.439,20.21 31.34,19.708 31.32,19.421 31.318,18.831 31.309,18.672 31.385,18.714 31.55,19.09 31.717,19.599 31.883,20.11 31.91,20.216 31.948,20.651 31.99,21.145 31.805,21.511 31.653,22.248 31.577,22.628 31.51,22.981 31.51,23.029 31.51,23.08 31.546,23.188 31.584,23.272 31.673,23.46 31.84,23.724 31.871,23.724 32.416,23.123 32.736,22.381 33.021,21.628 33.321,20.776 33.409,19.872 33.619,18.995 33.789,18.231 33.985,17.466 34.046,16.682 34.169,15.152 34.097,14.072 33.759,12.478 33.678,12.118 33.444,11.431 33.281,11.107 z M 27.921,18.644 C 28.506,18.637 29.085,18.708 29.636,18.867 30.385,19.154 30.49,19.823 30.628,20.574 30.705,21.054 30.702,21.399 30.615,21.963 30.554,22.781 30.229,23.414 29.519,23.859 28.448,24.057 27.303,24.248 26.395,23.539 25.633,22.489 25.174,21.162 25.349,19.868 25.46,19.337 25.707,19.061 26.215,18.896 26.762,18.739 27.341,18.653 27.921,18.644 z M 19.038,18.739 C 19.585,18.734 20.138,18.792 20.442,18.986 21.747,19.869 21.328,21.306 20.812,22.567 20.061,24.218 18.437,24.157 16.863,24.144 15.992,23.889 15.912,23.175 15.786,22.412 15.678,21.675 15.448,20.885 15.64,20.144 16.133,18.952 17.935,18.815 19.038,18.739 z M 38.941,18.945 C 38.948,22.118 39.49,23.677 40.578,25.924 39.937,24.701 39.021,24.005 38.68,22.543 38.028,19.72 38.731,19.878 38.941,18.945 z M 23.128,21.243 C 23.3,21.417 23.383,21.657 23.532,21.848 23.647,21.651 23.765,21.455 23.913,21.28 23.99,21.282 24.084,21.434 24.169,21.706 24.533,22.712 24.604,23.819 25.076,24.786 25.517,25.486 24.915,25.894 24.254,25.926 23.772,25.925 23.568,25.596 23.285,25.27 23.212,25.483 23.073,25.62 22.907,25.764 22.485,26.118 21.658,25.987 21.53,25.429 21.7,24.363 22.243,23.384 22.599,22.362 22.776,21.989 22.778,21.703 23.128,21.243 z M 16.936,26.628 C 17.149,26.628 17.734,27.025 17.853,27.249 17.935,27.398 18.122,27.978 18.135,28.119 18.156,28.287 18.105,28.685 18.053,28.793 18.015,28.87 17.986,28.881 17.942,28.831 17.905,28.789 17.415,27.849 17.102,27.227 16.856,26.729 16.83,26.628 16.936,26.628 z M 29.158,26.939 C 29.166,26.94 29.178,26.943 29.189,26.946 29.255,26.973 29.209,27.207 28.961,28.057 28.914,28.313 28.8,28.515 28.633,28.683 28.578,28.683 28.553,28.619 28.467,28.264 28.394,27.961 28.386,27.691 28.437,27.449 28.525,27.146 28.881,27.053 29.158,26.939 z M 27.675,28.792 C 27.696,28.788 27.716,28.799 27.742,28.82 27.832,28.883 27.845,29.049 27.785,29.374 27.712,29.792 27.696,29.838 27.588,29.881 27.541,29.902 27.457,29.917 27.401,29.917 27.3,29.899 27.274,29.817 27.298,29.693 27.298,29.433 27.374,29.207 27.546,28.94 27.611,28.84 27.644,28.797 27.675,28.792 z M 19.042,28.811 C 19.111,28.811 19.319,28.961 19.396,29.065 19.482,29.175 19.58,29.83 19.525,29.943 19.462,30.085 19.154,30.014 19.069,29.837 19.017,29.731 18.894,29.159 18.894,29.023 18.894,28.897 18.955,28.811 19.042,28.811 z M 26.933,28.984 C 27.017,29.104 27.039,29.258 27.021,29.596 L 27.004,29.904 26.916,29.992 C 26.863,30.041 26.773,30.101 26.719,30.126 26.6,30.182 26.509,30.187 26.492,30.142 26.472,30.082 26.506,29.7 26.543,29.571 26.586,29.438 26.779,29.041 26.843,28.957 26.872,28.88 26.906,28.976 26.933,28.984 z M 21.912,28.966 C 22.093,29.012 22.173,29.175 22.272,29.323 L 22.339,29.455 22.245,29.782 C 22.195,29.962 22.142,30.124 22.126,30.142 22.108,30.162 22.041,30.172 21.942,30.171 21.678,30.164 21.648,30.153 21.577,30.045 L 21.511,29.947 21.567,29.672 C 21.648,29.276 21.687,29.157 21.777,29.055 21.824,29 21.871,28.97 21.912,28.966 z M 20.241,29.249 20.39,29.398 20.415,29.735 C 20.428,29.919 20.434,30.09 20.424,30.111 20.415,30.14 20.361,30.148 20.194,30.148 L 19.977,30.148 C 19.861,30.021 19.825,29.866 19.776,29.706 19.662,29.225 19.662,29.006 19.78,28.977 19.973,28.989 20.1,29.129 20.241,29.249 z M 26.041,29.018 C 26.277,29.081 26.23,29.456 26.229,29.724 26.211,30.158 26.194,30.248 26.138,30.304 26.041,30.401 25.771,30.347 25.64,30.203 25.597,30.151 25.593,30.135 25.627,29.924 25.666,29.667 25.716,29.507 25.827,29.287 25.908,29.129 25.984,29.03 26.041,29.018 z M 20.715,29.038 C 20.728,29.037 20.749,29.038 20.769,29.04 20.919,29.052 21.059,29.15 21.183,29.33 L 21.283,29.477 C 21.292,29.718 21.283,29.972 21.24,30.196 21.214,30.209 21.106,30.229 21,30.239 20.816,30.256 20.799,30.252 20.735,30.196 20.646,30.12 20.621,29.979 20.599,29.511 20.586,29.129 20.595,29.044 20.715,29.038 z M 22.984,29.118 C 23.145,29.152 23.247,29.238 23.292,29.379 23.328,29.5 23.35,30.177 23.315,30.224 23.303,30.244 23.227,30.269 23.14,30.28 22.816,30.321 22.53,30.29 22.502,30.213 22.466,30.125 22.707,29.253 22.796,29.145 22.834,29.061 22.926,29.126 22.984,29.118 z M 25.082,29.124 C 25.153,29.117 25.229,29.185 25.303,29.33 25.363,29.451 25.372,29.493 25.372,29.764 25.372,29.98 25.359,30.073 25.336,30.093 25.316,30.109 25.235,30.138 25.149,30.16 24.999,30.199 24.966,30.203 24.919,30.187 L 24.694,30.146 24.711,30.012 C 24.727,29.837 24.842,29.449 24.923,29.281 24.971,29.181 25.026,29.131 25.082,29.124 z M 24.104,29.127 C 24.151,29.125 24.173,29.136 24.203,29.169 24.274,29.253 24.364,29.501 24.421,29.766 24.497,30.139 24.497,30.138 24.334,30.187 24.263,30.209 24.113,30.232 24.006,30.238 23.653,30.256 23.626,30.235 23.669,29.923 23.703,29.645 23.84,29.207 23.899,29.175 23.963,29.141 24.037,29.142 24.104,29.127 z M 6.111,30.536 C 6.114,30.535 6.118,30.536 6.118,30.536 6.127,30.731 6.127,30.928 6.131,31.124 5.636,31.086 5.272,30.968 5.272,30.829 5.272,30.692 5.623,30.575 6.111,30.536 z M 6.976,30.553 C 7.377,30.603 7.654,30.708 7.649,30.829 7.649,30.951 7.381,31.055 6.983,31.104 6.979,30.921 6.979,30.737 6.976,30.553 z M 25.702,31.086 C 25.736,31.083 25.751,31.08 25.803,31.085 26.011,31.106 26.041,31.119 26.041,31.189 26.041,31.281 25.883,31.558 25.776,31.654 25.726,31.702 25.657,31.742 25.633,31.742 25.513,31.742 25.443,31.489 25.499,31.256 25.533,31.13 25.595,31.091 25.702,31.086 z M 24.947,31.169 C 25.04,31.161 25.13,31.186 25.22,31.198 25.194,31.461 25.076,31.676 24.857,31.819 24.803,31.819 24.776,31.716 24.776,31.491 24.776,31.223 24.79,31.172 24.947,31.169 z M 24.119,31.266 C 24.312,31.266 24.482,31.275 24.49,31.286 24.526,31.32 24.422,31.578 24.269,31.84 24.138,32.073 24.119,32.09 24.038,32.096 23.72,32.06 23.729,31.687 23.68,31.431 23.68,31.279 23.714,31.266 24.119,31.266 z M 21.11,31.295 C 21.331,31.299 21.417,31.332 21.417,31.417 21.417,31.525 21.335,31.74 21.288,31.767 21.217,31.806 21.211,31.804 21.071,31.658 20.85,31.41 20.825,31.364 21.11,31.295 z M 22.174,31.306 C 22.178,31.312 22.221,31.39 22.264,31.478 22.358,31.661 22.365,31.741 22.298,31.802 22.14,31.892 22.107,31.841 21.964,31.75 21.798,31.593 21.667,31.382 21.71,31.338 21.858,31.285 22.021,31.305 22.174,31.306 z M 22.596,31.311 22.991,31.318 C 23.145,31.318 23.278,31.326 23.285,31.338 23.312,31.362 23.225,31.876 23.178,31.992 23.124,32.122 22.935,32.123 22.837,31.969 22.697,31.748 22.605,31.562 22.602,31.434 L 22.596,31.311 z" /></g><g id="notch"><circle cy="0" cx="0" r="1.4" class="fill-note" /><circle cy="0" cx="0" r="2.8" class="note" /></g><g id="bnotch"><path d="M -1.1 -1.1 L 1.1 1.1 M 1.1 -1.1 L -1.1 1.1" class="note stroke-xl" /><circle cy="0" cx="0" r="2.8" class="note" /></g><g id="button"><circle cx="0" cy="0" r="3.4" style="stroke:#000000;fill:none;stroke-width:1;"/><circle cx="-1" cy="-1" r="0.5" style="stroke:none;fill:#000000;"/><circle cx="1" cy="-1" r="0.5" style="stroke:none;fill:#000000;" /><circle cx="1" cy="1" r="0.5" style="stroke:none;fill:#000000;" /><circle cx="-1" cy="1" r="0.5" style="stroke:none;fill:#000000;" /></g><g id="buttonhole"><path style="fill:none;stroke:#000000;" d="M -1,-5 L 1,-5 L 1,5 L -1,5 z" /></g><g id="buttonhole-start"><path style="fill:none;stroke:#000000;" d="M -1,-10 L 1,-10 L 1,0 L -1,0 z" /></g><g id="buttonhole-end"><path style="fill:none;stroke:#000000;" d="M -1,0 L 1,0 L 1,10 L -1,10 z" /></g><radialGradient id="snap-stud-grad" cx="50%" cy="50%" r="50%" fx="50%" fy="50%"><stop offset="30%" style="stop-color:rgb(235,235,235); stop-opacity:1"/><stop offset="80%" style="stop-color:rgb(100,100,100);stop-opacity:1" /></radialGradient><g id="snap-stud" ><circle id="snap-stud-circle-edge" cx="0" cy="0" r="3.4" style="stroke:#666;fill:#dddddd;stroke-width:0.3;" /><circle id="snap-stud-circle-middle" cx="0" cy="0" r="1.8" style="stroke:none;fill:url(#snap-stud-grad);"/><path style="fill:none;stroke:#666; stroke-width:0.2;" d="M -2,0 L -3,0 M 2,0 L 3,0 M 0,2 L 0,3 M 0,-2 L 0,-3 M 1.5,1.5 L 2.1,2.1 M -1.5,1.5 L -2.1,2.1 M -1.5,-1.5 L -2.1,-2.1 M 1.5,-1.5 L 2.1,-2.1" id="snap-stud-lines"/></g><g id="snap-socket"><circle id="snap-socket-circle-edge" cx="0" cy="0" r="3.4" style="stroke:#666;fill:#bbbbbb;stroke-width:0.3;"/><circle id="snap-socket-circle-middle" cx="0" cy="0" r="2" style="stroke:#666;fill:#dddddd; stroke-width:0.4;"/><path style="fill:none;stroke:#666; stroke-width:0.5;" d="M -1.7,-1 L -1.7,1 M 1.7,-1 L 1.7,1" id="snap-socket-lines" /></g>
</defs>


<!-- Start of group #fs-container -->
<g id="fs-container">

<!-- Start of group #fs-part-back -->
<g id="fs-part-back"  transform="translate(7.1200000000000045, -76.92274755690121) translate(918.7442777173717, 0)">
<path  class="fabric" style="stroke: hsl(0, 100%, 35%);" data-sample-run="1" data-sample-runs="10" id="fs-1" d="M 0,625 L 243.51,625 L 243.51,500 C 243.51,470 212.25,440 212.25,380 C 212.25,293.58 234.02,207.17 234.02,207.17 C 224.4,207.17 213.62,198.52 208.89,193.79 C 199.43,184.33 195.51,156.66 195.51,119.54 C 195.51,104.48 195.99,91.43 196.77,80.1 L 0,80.1 z" />
<path  class="fabric" style="stroke: hsl(0, 100%, 35%);" data-sample-run="1" data-sample-runs="10" id="fs-2" d="M 127.35,250.38 C 127.35,250.38 120.09,354.08 120.09,380 C 120.09,398 127.35,470 127.35,470 C 127.35,470 134.61,398 134.61,380 C 134.61,354.08 127.35,250.38 127.35,250.38 z" />
<path  class="fabric" style="stroke: hsl(33, 100%, 35%);" data-sample-run="2" data-sample-runs="10" id="fs-3" d="M -0.57,625 L 242.94,625 L 242.94,500 C 242.94,470 211.68,440 211.68,380 C 211.68,293.52 233.46,207.04 233.46,207.04 C 223.83,207.04 213.05,198.39 208.32,193.66 C 198.86,184.2 194.94,156.53 194.94,119.41 C 194.94,104.34 195.42,91.3 196.2,79.97 L -0.57,79.97 z" />
<path  class="fabric" style="stroke: hsl(33, 100%, 35%);" data-sample-run="2" data-sample-runs="10" id="fs-4" d="M 126.78,250.28 C 126.78,250.28 119.52,354.06 119.52,380 C 119.52,398 126.78,470 126.78,470 C 126.78,470 134.04,398 134.04,380 C 134.04,354.06 126.78,250.28 126.78,250.28 z" />
<path  class="fabric" style="stroke: hsl(66, 100%, 35%);" data-sample-run="3" data-sample-runs="10" id="fs-5" d="M -1.14,625 L 242.37,625 L 242.37,500 C 242.37,470 211.11,440 211.11,380 C 211.11,293.45 232.89,206.91 232.89,206.91 C 223.26,206.91 212.48,198.26 207.75,193.53 C 198.29,184.07 194.37,156.4 194.37,119.28 C 194.37,104.21 194.85,91.17 195.64,79.84 L -1.14,79.84 z" />
<path  class="fabric" style="stroke: hsl(66, 100%, 35%);" data-sample-run="3" data-sample-runs="10" id="fs-6" d="M 126.21,250.18 C 126.21,250.18 118.95,354.04 118.95,380 C 118.95,398 126.21,470 126.21,470 C 126.21,470 133.47,398 133.47,380 C 133.47,354.04 126.21,250.18 126.21,250.18 z" />
<path  class="fabric" style="stroke: hsl(99, 100%, 35%);" data-sample-run="4" data-sample-runs="10" id="fs-7" d="M -1.71,625 L 241.81,625 L 241.81,500 C 241.81,470 210.54,440 210.54,380 C 210.54,293.39 232.32,206.77 232.32,206.77 C 222.69,206.77 211.91,198.13 207.18,193.4 C 197.72,183.94 193.8,156.27 193.8,119.14 C 193.8,104.08 194.28,91.04 195.07,79.71 L -1.71,79.71 z" />
<path  class="fabric" style="stroke: hsl(99, 100%, 35%);" data-sample-run="4" data-sample-runs="10" id="fs-8" d="M 125.64,250.08 C 125.64,250.08 118.38,354.02 118.38,380 C 118.38,398 125.64,470 125.64,470 C 125.64,470 132.9,398 132.9,380 C 132.9,354.02 125.64,250.08 125.64,250.08 z" />
<path  class="fabric" style="stroke: hsl(132, 100%, 35%);" data-sample-run="5" data-sample-runs="10" id="fs-9" d="M -2.28,625 L 241.24,625 L 241.24,500 C 241.24,470 209.97,440 209.97,380 C 209.97,293.32 231.75,206.64 231.75,206.64 C 222.12,206.64 211.34,197.99 206.61,193.27 C 197.15,183.81 193.23,156.14 193.23,119.01 C 193.23,103.95 193.71,90.91 194.5,79.58 L -2.28,79.58 z" />
<path  class="fabric" style="stroke: hsl(132, 100%, 35%);" data-sample-run="5" data-sample-runs="10" id="fs-10" d="M 125.07,249.98 C 125.07,249.98 117.81,354 117.81,380 C 117.81,398 125.07,470 125.07,470 C 125.07,470 132.33,398 132.33,380 C 132.33,354 125.07,249.98 125.07,249.98 z" />
<path  class="fabric" style="stroke: hsl(165, 100%, 35%);" data-sample-run="6" data-sample-runs="10" id="fs-11" d="M -2.84,625 L 240.67,625 L 240.67,500 C 240.67,470 209.4,440 209.4,380 C 209.4,293.26 231.18,206.51 231.18,206.51 C 221.55,206.51 210.77,197.86 206.04,193.13 C 196.58,183.67 192.67,156.01 192.67,118.88 C 192.67,103.82 193.14,90.78 193.93,79.45 L -2.84,79.45 z" />
<path  class="fabric" style="stroke: hsl(165, 100%, 35%);" data-sample-run="6" data-sample-runs="10" id="fs-12" d="M 124.5,249.88 C 124.5,249.88 117.24,353.98 117.24,380 C 117.24,398 124.5,470 124.5,470 C 124.5,470 131.76,398 131.76,380 C 131.76,353.98 124.5,249.88 124.5,249.88 z" />
<path  class="fabric" style="stroke: hsl(198, 100%, 35%);" data-sample-run="7" data-sample-runs="10" id="fs-13" d="M -3.41,625 L 240.1,625 L 240.1,500 C 240.1,470 208.83,440 208.83,380 C 208.83,293.19 230.61,206.38 230.61,206.38 C 220.98,206.38 210.2,197.73 205.47,193 C 196.01,183.54 192.1,155.88 192.1,118.75 C 192.1,103.69 192.57,90.64 193.36,79.32 L -3.41,79.32 z" />
<path  class="fabric" style="stroke: hsl(198, 100%, 35%);" data-sample-run="7" data-sample-runs="10" id="fs-14" d="M 123.93,249.79 C 123.93,249.79 116.68,353.96 116.68,380 C 116.68,398 123.93,470 123.93,470 C 123.93,470 131.19,398 131.19,380 C 131.19,353.96 123.93,249.79 123.93,249.79 z" />
<path  class="fabric" style="stroke: hsl(231, 100%, 35%);" data-sample-run="8" data-sample-runs="10" id="fs-15" d="M -3.98,625 L 239.53,625 L 239.53,500 C 239.53,470 208.26,440 208.26,380 C 208.26,293.12 230.04,206.25 230.04,206.25 C 220.41,206.25 209.64,197.6 204.91,192.87 C 195.45,183.41 191.53,155.75 191.53,118.62 C 191.53,103.56 192,90.51 192.79,79.19 L -3.98,79.19 z" />
<path  class="fabric" style="stroke: hsl(231, 100%, 35%);" data-sample-run="8" data-sample-runs="10" id="fs-16" d="M 123.37,249.69 C 123.37,249.69 116.11,353.94 116.11,380 C 116.11,398 123.37,470 123.37,470 C 123.37,470 130.63,398 130.63,380 C 130.63,353.94 123.37,249.69 123.37,249.69 z" />
<path  class="fabric" style="stroke: hsl(264, 100%, 35%);" data-sample-run="9" data-sample-runs="10" id="fs-17" d="M -4.55,625 L 238.96,625 L 238.96,500 C 238.96,470 207.7,440 207.7,380 C 207.7,293.06 229.47,206.12 229.47,206.12 C 219.85,206.12 209.07,197.47 204.34,192.74 C 194.88,183.28 190.96,155.61 190.96,118.49 C 190.96,103.43 191.44,90.38 192.22,79.05 L -4.55,79.05 z" />
<path  class="fabric" style="stroke: hsl(264, 100%, 35%);" data-sample-run="9" data-sample-runs="10" id="fs-18" d="M 122.8,249.59 C 122.8,249.59 115.54,353.92 115.54,380 C 115.54,398 122.8,470 122.8,470 C 122.8,470 130.06,398 130.06,380 C 130.06,353.92 122.8,249.59 122.8,249.59 z" />
<path  class="fabric" style="stroke: hsl(297, 100%, 35%);" data-sample-run="10" data-sample-runs="10" id="fs-19" d="M -5.12,625 L 238.39,625 L 238.39,500 C 238.39,470 207.13,440 207.13,380 C 207.13,292.99 228.9,205.99 228.9,205.99 C 219.28,205.99 208.5,197.34 203.77,192.61 C 194.31,183.15 190.39,155.48 190.39,118.36 C 190.39,103.29 190.87,90.25 191.65,78.92 L -5.12,78.92 z" />
<path  class="fabric" style="stroke: hsl(297, 100%, 35%);" data-sample-run="10" data-sample-runs="10" id="fs-20" d="M 122.23,249.49 C 122.23,249.49 114.97,353.9 114.97,380 C 114.97,398 122.23,470 122.23,470 C 122.23,470 129.49,398 129.49,380 C 129.49,353.9 122.23,249.49 122.23,249.49 z" />
</g>
<!-- end of group #fs-part-back -->

<!-- Start of group #fs-part-sleeve -->
<g id="fs-part-sleeve"  transform="translate(144.2318017441361, 114.04434042066868) translate(630.2806742290995, 0)">
<path  class="fabric" style="stroke: hsl(0, 100%, 35%);" data-sample-run="1" data-sample-runs="10" id="fs-21" d="M 122.5,409.96 L 142.23,0 C 142.23,0 116.7,0.52 102.12,-9.21 C 65.68,-33.53 80.39,-64.3 51.04,-96.84 C 31.48,-118.53 -31.55,-116.12 -52.04,-95.3 C -68.43,-78.64 -95.68,-31.3 -112.03,-19.02 C -128.38,-6.75 -142.23,0 -142.23,0 L -122.5,409.96 C -122.5,409.96 -90.1,405.64 -68.5,405.64 C -46.9,405.64 0,409.96 0,409.96 L 14.5,409.96 C 14.5,409.96 32.4,414.28 54,414.28 L 68.5,414.28 C 90.1,414.28 122.5,409.96 122.5,409.96" />
<path  class="fabric" style="stroke: hsl(33, 100%, 35%);" data-sample-run="2" data-sample-runs="10" id="fs-22" d="M 122.5,409.96 L 142.23,0 C 142.23,0 116.7,0.52 102.12,-9.21 C 65.68,-33.53 80.39,-64.3 51.04,-96.84 C 31.48,-118.53 -31.55,-116.12 -52.04,-95.3 C -68.43,-78.64 -95.68,-31.3 -112.03,-19.02 C -128.38,-6.75 -142.23,0 -142.23,0 L -122.5,409.96 C -122.5,409.96 -90.1,405.64 -68.5,405.64 C -46.9,405.64 0,409.96 0,409.96 L 14.5,409.96 C 14.5,409.96 32.4,414.28 54,414.28 L 68.5,414.28 C 90.1,414.28 122.5,409.96 122.5,409.96" />
<path  class="fabric" style="stroke: hsl(66, 100%, 35%);" data-sample-run="3" data-sample-runs="10" id="fs-23" d="M 122.5,409.96 L 142.23,0 C 142.23,0 116.7,0.52 102.12,-9.21 C 65.68,-33.53 80.39,-64.3 51.04,-96.84 C 31.48,-118.53 -31.55,-116.12 -52.04,-95.3 C -68.43,-78.64 -95.68,-31.3 -112.03,-19.02 C -128.38,-6.75 -142.23,0 -142.23,0 L -122.5,409.96 C -122.5,409.96 -90.1,405.64 -68.5,405.64 C -46.9,405.64 0,409.96 0,409.96 L 14.5,409.96 C 14.5,409.96 32.4,414.28 54,414.28 L 68.5,414.28 C 90.1,414.28 122.5,409.96 122.5,409.96" />
<path  class="fabric" style="stroke: hsl(99, 100%, 35%);" data-sample-run="4" data-sample-runs="10" id="fs-24" d="M 122.5,409.96 L 142.23,0 C 142.23,0 116.7,0.52 102.12,-9.21 C 65.68,-33.53 80.39,-64.3 51.04,-96.84 C 31.48,-118.53 -31.55,-116.12 -52.04,-95.3 C -68.43,-78.64 -95.68,-31.3 -112.03,-19.02 C -128.38,-6.75 -142.23,0 -142.23,0 L -122.5,409.96 C -122.5,409.96 -90.1,405.64 -68.5,405.64 C -46.9,405.64 0,409.96 0,409.96 L 14.5,409.96 C 14.5,409.96 32.4,414.28 54,414.28 L 68.5,414.28 C 90.1,414.28 122.5,409.96 122.5,409.96" />
<path  class="fabric" style="stroke: hsl(132, 100%, 35%);" data-sample-run="5" data-sample-runs="10" id="fs-25" d="M 122.5,409.96 L 142.23,0 C 142.23,0 116.7,0.52 102.12,-9.21 C 65.68,-33.53 80.39,-64.3 51.04,-96.84 C 31.48,-118.53 -31.55,-116.12 -52.04,-95.3 C -68.43,-78.64 -95.68,-31.3 -112.03,-19.02 C -128.38,-6.75 -142.23,0 -142.23,0 L -122.5,409.96 C -122.5,409.96 -90.1,405.64 -68.5,405.64 C -46.9,405.64 0,409.96 0,409.96 L 14.5,409.96 C 14.5,409.96 32.4,414.28 54,414.28 L 68.5,414.28 C 90.1,414.28 122.5,409.96 122.5,409.96" />
<path  class="fabric" style="stroke: hsl(165, 100%, 35%);" data-sample-run="6" data-sample-runs="10" id="fs-26" d="M 122.5,409.96 L 142.23,0 C 142.23,0 116.7,0.52 102.12,-9.21 C 65.68,-33.53 80.39,-64.3 51.04,-96.84 C 31.48,-118.53 -31.55,-116.12 -52.04,-95.3 C -68.43,-78.64 -95.68,-31.3 -112.03,-19.02 C -128.38,-6.75 -142.23,0 -142.23,0 L -122.5,409.96 C -122.5,409.96 -90.1,405.64 -68.5,405.64 C -46.9,405.64 0,409.96 0,409.96 L 14.5,409.96 C 14.5,409.96 32.4,414.28 54,414.28 L 68.5,414.28 C 90.1,414.28 122.5,409.96 122.5,409.96" />
<path  class="fabric" style="stroke: hsl(198, 100%, 35%);" data-sample-run="7" data-sample-runs="10" id="fs-27" d="M 122.5,409.96 L 142.23,0 C 142.23,0 116.7,0.52 102.12,-9.21 C 65.68,-33.53 80.39,-64.3 51.04,-96.84 C 31.48,-118.53 -31.55,-116.12 -52.04,-95.3 C -68.43,-78.64 -95.68,-31.3 -112.03,-19.02 C -128.38,-6.75 -142.23,0 -142.23,0 L -122.5,409.96 C -122.5,409.96 -90.1,405.64 -68.5,405.64 C -46.9,405.64 0,409.96 0,409.96 L 14.5,409.96 C 14.5,409.96 32.4,414.28 54,414.28 L 68.5,414.28 C 90.1,414.28 122.5,409.96 122.5,409.96" />
<path  class="fabric" style="stroke: hsl(231, 100%, 35%);" data-sample-run="8" data-sample-runs="10" id="fs-28" d="M 122.5,409.96 L 142.23,0 C 142.23,0 116.7,0.52 102.12,-9.21 C 65.68,-33.53 80.39,-64.3 51.04,-96.84 C 31.48,-118.53 -31.55,-116.12 -52.04,-95.3 C -68.43,-78.64 -95.68,-31.3 -112.03,-19.02 C -128.38,-6.75 -142.23,0 -142.23,0 L -122.5,409.96 C -122.5,409.96 -90.1,405.64 -68.5,405.64 C -46.9,405.64 0,409.96 0,409.96 L 14.5,409.96 C 14.5,409.96 32.4,414.28 54,414.28 L 68.5,414.28 C 90.1,414.28 122.5,409.96 122.5,409.96" />
<path  class="fabric" style="stroke: hsl(264, 100%, 35%);" data-sample-run="9" data-sample-runs="10" id="fs-29" d="M 122.5,409.96 L 142.23,0 C 142.23,0 116.7,0.52 102.12,-9.21 C 65.68,-33.53 80.39,-64.3 51.04,-96.84 C 31.48,-118.53 -31.55,-116.12 -52.04,-95.3 C -68.43,-78.64 -95.68,-31.3 -112.03,-19.02 C -128.38,-6.75 -142.23,0 -142.23,0 L -122.5,409.96 C -122.5,409.96 -90.1,405.64 -68.5,405.64 C -46.9,405.64 0,409.96 0,409.96 L 14.5,409.96 C 14.5,409.96 32.4,414.28 54,414.28 L 68.5,414.28 C 90.1,414.28 122.5,409.96 122.5,409.96" />
<path  class="fabric" style="stroke: hsl(297, 100%, 35%);" data-sample-run="10" data-sample-runs="10" id="fs-30" d="M 122.5,409.96 L 142.23,0 C 142.23,0 116.7,0.52 102.12,-9.21 C 65.68,-33.53 80.39,-64.3 51.04,-96.84 C 31.48,-118.53 -31.55,-116.12 -52.04,-95.3 C -68.43,-78.64 -95.68,-31.3 -112.03,-19.02 C -128.38,-6.75 -142.23,0 -142.23,0 L -122.5,409.96 C -122.5,409.96 -90.1,405.64 -68.5,405.64 C -46.9,405.64 0,409.96 0,409.96 L 14.5,409.96 C 14.5,409.96 32.4,414.28 54,414.28 L 68.5,414.28 C 90.1,414.28 122.5,409.96 122.5,409.96" />
</g>
<!-- end of group #fs-part-sleeve -->

<!-- Start of group #fs-part-frontRight -->
<g id="fs-part-frontRight"  transform="translate(254.39033711454977, 2) translate(343.89033711454977, 0)">
<path  style="stroke: hsl(0, 100%, 35%);" data-sample-run="1" data-sample-runs="10" id="fs-31" d="M 0,652.06 L -243.51,652.06" />
<path  class="fabric" style="stroke: hsl(0, 100%, 35%);" data-sample-run="1" data-sample-runs="10" id="fs-32" d="M 0,652.06 L -243.51,652.06 L -243.51,527.06 C -243.51,497.06 -226.11,467.06 -226.11,407.06 C -226.11,366.53 -244.76,326 -249.85,294.39 L -252.39,257.63 C -250.53,221.42 -251.43,196.31 -251.43,196.31 C -242.01,198.32 -229.66,192.13 -224.05,188.49 C -212.82,181.22 -199.21,155.84 -195.63,118.89 L -191.44,119.54 C -191.44,75.72 -199.55,48.99 -203.49,31.91 L -65.28,0 C -55.48,42.43 -27.61,65.28 0,65.28 L 30,65.28 L 30,652.06 L 0,652.06 z" />
<path  style="stroke: hsl(0, 100%, 35%);" data-sample-run="1" data-sample-runs="10" id="fs-33" d="M -249.85,294.39 L -112.22,266.4 L -252.39,257.63" />
<path  style="stroke: hsl(33, 100%, 35%);" data-sample-run="2" data-sample-runs="10" id="fs-34" d="M 0,652.04 L -243.51,652.04" />
<path  class="fabric" style="stroke: hsl(33, 100%, 35%);" data-sample-run="2" data-sample-runs="10" id="fs-35" d="M 0,652.04 L -243.51,652.04 L -243.51,527.04 C -243.51,497.04 -226.11,467.04 -226.11,407.04 C -226.11,366.53 -244.76,326.01 -249.84,294.39 L -252.38,257.66 C -250.51,221.37 -251.42,196.19 -251.42,196.19 C -242,198.2 -229.65,192 -224.04,188.37 C -212.81,181.09 -199.21,155.71 -195.63,118.76 L -191.44,119.41 C -191.44,75.59 -199.55,48.85 -203.49,31.78 L -65.85,0 C -55.97,42.8 -27.86,65.85 0,65.85 L 30,65.85 L 30,652.04 L 0,652.04 z" />
<path  style="stroke: hsl(33, 100%, 35%);" data-sample-run="2" data-sample-runs="10" id="fs-36" d="M -249.84,294.39 L -112.22,266.4 L -252.38,257.66" />
<path  style="stroke: hsl(66, 100%, 35%);" data-sample-run="3" data-sample-runs="10" id="fs-37" d="M 0,652.02 L -243.51,652.02" />
<path  class="fabric" style="stroke: hsl(66, 100%, 35%);" data-sample-run="3" data-sample-runs="10" id="fs-38" d="M 0,652.02 L -243.51,652.02 L -243.51,527.02 C -243.51,497.02 -226.12,467.02 -226.12,407.02 C -226.12,366.52 -244.76,326.02 -249.83,294.39 L -252.37,257.69 C -250.5,221.31 -251.4,196.07 -251.4,196.07 C -241.99,198.08 -229.64,191.88 -224.03,188.24 C -212.8,180.97 -199.2,155.58 -195.62,118.63 L -191.44,119.28 C -191.44,75.46 -199.55,48.72 -203.49,31.65 L -66.42,0 C -56.45,43.17 -28.1,66.42 0,66.42 L 30,66.42 L 30,652.02 L 0,652.02 z" />
<path  style="stroke: hsl(66, 100%, 35%);" data-sample-run="3" data-sample-runs="10" id="fs-39" d="M -249.83,294.39 L -112.22,266.41 L -252.37,257.69" />
<path  style="stroke: hsl(99, 100%, 35%);" data-sample-run="4" data-sample-runs="10" id="fs-40" d="M 0,652 L -243.51,652" />
<path  class="fabric" style="stroke: hsl(99, 100%, 35%);" data-sample-run="4" data-sample-runs="10" id="fs-41" d="M 0,652 L -243.51,652 L -243.51,527 C -243.51,497 -226.12,467 -226.12,407 C -226.12,366.51 -244.75,326.03 -249.82,294.38 L -252.37,257.72 C -250.48,221.26 -251.39,195.94 -251.39,195.94 C -241.98,197.96 -229.63,191.75 -224.01,188.11 C -212.79,180.84 -199.2,155.45 -195.62,118.5 L -191.44,119.14 C -191.44,75.33 -199.55,48.59 -203.49,31.51 L -66.99,0 C -56.93,43.54 -28.34,66.99 0,66.99 L 30,66.99 L 30,652 L 0,652 z" />
<path  style="stroke: hsl(99, 100%, 35%);" data-sample-run="4" data-sample-runs="10" id="fs-42" d="M -249.82,294.38 L -112.22,266.41 L -252.37,257.72" />
<path  style="stroke: hsl(132, 100%, 35%);" data-sample-run="5" data-sample-runs="10" id="fs-43" d="M 0,651.98 L -243.51,651.98" />
<path  class="fabric" style="stroke: hsl(132, 100%, 35%);" data-sample-run="5" data-sample-runs="10" id="fs-44" d="M 0,651.98 L -243.51,651.98 L -243.51,526.98 C -243.51,496.98 -226.12,466.98 -226.12,406.98 C -226.12,366.51 -244.75,326.03 -249.81,294.38 L -252.36,257.75 C -250.47,221.2 -251.38,195.82 -251.38,195.82 C -241.96,197.83 -229.62,191.63 -224,187.99 C -212.78,180.71 -199.19,155.32 -195.62,118.37 L -191.44,119.01 C -191.44,75.2 -199.55,48.46 -203.49,31.38 L -67.56,0 C -57.42,43.91 -28.58,67.56 0,67.56 L 30,67.56 L 30,651.98 L 0,651.98 z" />
<path  style="stroke: hsl(132, 100%, 35%);" data-sample-run="5" data-sample-runs="10" id="fs-45" d="M -249.81,294.38 L -112.22,266.41 L -252.36,257.75" />
<path  style="stroke: hsl(165, 100%, 35%);" data-sample-run="6" data-sample-runs="10" id="fs-46" d="M 0,651.96 L -243.51,651.96" />
<path  class="fabric" style="stroke: hsl(165, 100%, 35%);" data-sample-run="6" data-sample-runs="10" id="fs-47" d="M 0,651.96 L -243.51,651.96 L -243.51,526.96 C -243.51,496.96 -226.13,466.96 -226.13,406.96 C -226.13,366.5 -244.75,326.04 -249.8,294.38 L -252.35,257.77 C -250.45,221.15 -251.37,195.7 -251.37,195.7 C -241.95,197.71 -229.6,191.5 -223.99,187.86 C -212.77,180.58 -199.18,155.19 -195.61,118.24 L -191.44,118.88 C -191.44,75.07 -199.55,48.33 -203.49,31.25 L -68.12,0 C -57.9,44.28 -28.82,68.12 0,68.12 L 30,68.12 L 30,651.96 L 0,651.96 z" />
<path  style="stroke: hsl(165, 100%, 35%);" data-sample-run="6" data-sample-runs="10" id="fs-48" d="M -249.8,294.38 L -112.22,266.42 L -252.35,257.77" />
<path  style="stroke: hsl(198, 100%, 35%);" data-sample-run="7" data-sample-runs="10" id="fs-49" d="M 0,651.94 L -243.51,651.94" />
<path  class="fabric" style="stroke: hsl(198, 100%, 35%);" data-sample-run="7" data-sample-runs="10" id="fs-50" d="M 0,651.94 L -243.51,651.94 L -243.51,526.94 C -243.51,496.94 -226.13,466.94 -226.13,406.94 C -226.13,366.49 -244.74,326.05 -249.79,294.38 L -252.34,257.8 C -250.44,221.09 -251.35,195.58 -251.35,195.58 C -241.94,197.59 -229.59,191.38 -223.98,187.74 C -212.76,180.46 -199.18,155.06 -195.61,118.11 L -191.44,118.75 C -191.44,74.94 -199.55,48.2 -203.49,31.12 L -68.69,0 C -58.38,44.65 -29.06,68.69 0,68.69 L 30,68.69 L 30,651.94 L 0,651.94 z" />
<path  style="stroke: hsl(198, 100%, 35%);" data-sample-run="7" data-sample-runs="10" id="fs-51" d="M -249.79,294.38 L -112.21,266.42 L -252.34,257.8" />
<path  style="stroke: hsl(231, 100%, 35%);" data-sample-run="8" data-sample-runs="10" id="fs-52" d="M 0,651.92 L -243.51,651.92" />
<path  class="fabric" style="stroke: hsl(231, 100%, 35%);" data-sample-run="8" data-sample-runs="10" id="fs-53" d="M 0,651.92 L -243.51,651.92 L -243.51,526.92 C -243.51,496.92 -226.14,466.92 -226.14,406.92 C -226.14,366.48 -244.74,326.05 -249.79,294.38 L -252.33,257.83 C -250.42,221.04 -251.34,195.46 -251.34,195.46 C -241.92,197.46 -229.58,191.25 -223.97,187.61 C -212.75,180.33 -199.17,154.93 -195.61,117.98 L -191.44,118.62 C -191.44,74.8 -199.55,48.07 -203.49,30.99 L -69.26,0 C -58.87,45.02 -29.3,69.26 0,69.26 L 30,69.26 L 30,651.92 L 0,651.92 z" />
<path  style="stroke: hsl(231, 100%, 35%);" data-sample-run="8" data-sample-runs="10" id="fs-54" d="M -249.79,294.38 L -112.21,266.42 L -252.33,257.83" />
<path  style="stroke: hsl(264, 100%, 35%);" data-sample-run="9" data-sample-runs="10" id="fs-55" d="M 0,651.9 L -243.51,651.9" />
<path  class="fabric" style="stroke: hsl(264, 100%, 35%);" data-sample-run="9" data-sample-runs="10" id="fs-56" d="M 0,651.9 L -243.51,651.9 L -243.51,526.9 C -243.51,496.9 -226.14,466.9 -226.14,406.9 C -226.14,366.48 -244.74,326.06 -249.78,294.38 L -252.33,257.86 C -250.41,220.99 -251.33,195.34 -251.33,195.34 C -241.91,197.34 -229.57,191.13 -223.96,187.48 C -212.74,180.2 -199.17,154.8 -195.6,117.85 L -191.44,118.49 C -191.44,74.67 -199.55,47.93 -203.49,30.86 L -69.83,0 C -59.35,45.39 -29.54,69.83 0,69.83 L 30,69.83 L 30,651.9 L 0,651.9 z" />
<path  style="stroke: hsl(264, 100%, 35%);" data-sample-run="9" data-sample-runs="10" id="fs-57" d="M -249.78,294.38 L -112.21,266.42 L -252.33,257.86" />
<path  style="stroke: hsl(297, 100%, 35%);" data-sample-run="10" data-sample-runs="10" id="fs-58" d="M 0,651.88 L -243.51,651.88" />
<path  class="fabric" style="stroke: hsl(297, 100%, 35%);" data-sample-run="10" data-sample-runs="10" id="fs-59" d="M 0,651.88 L -243.51,651.88 L -243.51,526.88 C -243.51,496.88 -226.14,466.88 -226.14,406.88 C -226.14,366.47 -244.74,326.07 -249.77,294.38 L -252.32,257.89 C -250.39,220.93 -251.32,195.22 -251.32,195.22 C -241.9,197.22 -229.56,191 -223.95,187.36 C -212.73,180.07 -199.16,154.67 -195.6,117.72 L -191.44,118.36 C -191.44,74.54 -199.55,47.8 -203.49,30.73 L -70.4,0 C -59.84,45.76 -29.78,70.4 0,70.4 L 30,70.4 L 30,651.88 L 0,651.88 z" />
<path  style="stroke: hsl(297, 100%, 35%);" data-sample-run="10" data-sample-runs="10" id="fs-60" d="M -249.77,294.38 L -112.21,266.43 L -252.32,257.89" />
</g>
<!-- end of group #fs-part-frontRight -->

<!-- Start of group #fs-part-frontLeft -->
<g id="fs-part-frontLeft"  transform="translate(89.5, 2)">
<path  style="stroke: hsl(0, 100%, 35%);" data-sample-run="1" data-sample-runs="10" id="fs-61" d="M 0,652.06 L 243.51,652.06" />
<path  class="fabric" style="stroke: hsl(0, 100%, 35%);" data-sample-run="1" data-sample-runs="10" id="fs-62" d="M 0,652.06 L 243.51,652.06 L 243.51,527.06 C 243.51,497.06 226.11,467.06 226.11,407.06 C 226.11,366.53 244.76,326 249.85,294.39 L 252.39,257.63 C 250.53,221.42 251.43,196.31 251.43,196.31 C 242.01,198.32 229.66,192.13 224.05,188.49 C 212.82,181.22 199.21,155.84 195.63,118.89 L 191.44,119.54 C 191.44,75.72 199.55,48.99 203.49,31.91 L 65.28,0 C 55.48,42.43 27.61,65.28 0,65.28 L -87.5,65.28 L -87.5,652.06 z" />
<path  style="stroke: hsl(0, 100%, 35%);" data-sample-run="1" data-sample-runs="10" id="fs-63" d="M 249.85,294.39 L 112.22,266.4 L 252.39,257.63" />
<path  style="stroke: hsl(33, 100%, 35%);" data-sample-run="2" data-sample-runs="10" id="fs-64" d="M 0,652.04 L 243.51,652.04" />
<path  class="fabric" style="stroke: hsl(33, 100%, 35%);" data-sample-run="2" data-sample-runs="10" id="fs-65" d="M 0,652.04 L 243.51,652.04 L 243.51,527.04 C 243.51,497.04 226.11,467.04 226.11,407.04 C 226.11,366.53 244.76,326.01 249.84,294.39 L 252.38,257.66 C 250.51,221.37 251.42,196.19 251.42,196.19 C 242,198.2 229.65,192 224.04,188.37 C 212.81,181.09 199.21,155.71 195.63,118.76 L 191.44,119.41 C 191.44,75.59 199.55,48.85 203.49,31.78 L 65.85,0 C 55.97,42.8 27.86,65.85 0,65.85 L -87.5,65.85 L -87.5,652.04 z" />
<path  style="stroke: hsl(33, 100%, 35%);" data-sample-run="2" data-sample-runs="10" id="fs-66" d="M 249.84,294.39 L 112.22,266.4 L 252.38,257.66" />
<path  style="stroke: hsl(66, 100%, 35%);" data-sample-run="3" data-sample-runs="10" id="fs-67" d="M 0,652.02 L 243.51,652.02" />
<path  class="fabric" style="stroke: hsl(66, 100%, 35%);" data-sample-run="3" data-sample-runs="10" id="fs-68" d="M 0,652.02 L 243.51,652.02 L 243.51,527.02 C 243.51,497.02 226.12,467.02 226.12,407.02 C 226.12,366.52 244.76,326.02 249.83,294.39 L 252.37,257.69 C 250.5,221.31 251.4,196.07 251.4,196.07 C 241.99,198.08 229.64,191.88 224.03,188.24 C 212.8,180.97 199.2,155.58 195.62,118.63 L 191.44,119.28 C 191.44,75.46 199.55,48.72 203.49,31.65 L 66.42,0 C 56.45,43.17 28.1,66.42 0,66.42 L -87.5,66.42 L -87.5,652.02 z" />
<path  style="stroke: hsl(66, 100%, 35%);" data-sample-run="3" data-sample-runs="10" id="fs-69" d="M 249.83,294.39 L 112.22,266.41 L 252.37,257.69" />
<path  style="stroke: hsl(99, 100%, 35%);" data-sample-run="4" data-sample-runs="10" id="fs-70" d="M 0,652 L 243.51,652" />
<path  class="fabric" style="stroke: hsl(99, 100%, 35%);" data-sample-run="4" data-sample-runs="10" id="fs-71" d="M 0,652 L 243.51,652 L 243.51,527 C 243.51,497 226.12,467 226.12,407 C 226.12,366.51 244.75,326.03 249.82,294.38 L 252.37,257.72 C 250.48,221.26 251.39,195.94 251.39,195.94 C 241.98,197.96 229.63,191.75 224.01,188.11 C 212.79,180.84 199.2,155.45 195.62,118.5 L 191.44,119.14 C 191.44,75.33 199.55,48.59 203.49,31.51 L 66.99,0 C 56.93,43.54 28.34,66.99 0,66.99 L -87.5,66.99 L -87.5,652 z" />
<path  style="stroke: hsl(99, 100%, 35%);" data-sample-run="4" data-sample-runs="10" id="fs-72" d="M 249.82,294.38 L 112.22,266.41 L 252.37,257.72" />
<path  style="stroke: hsl(132, 100%, 35%);" data-sample-run="5" data-sample-runs="10" id="fs-73" d="M 0,651.98 L 243.51,651.98" />
<path  class="fabric" style="stroke: hsl(132, 100%, 35%);" data-sample-run="5" data-sample-runs="10" id="fs-74" d="M 0,651.98 L 243.51,651.98 L 243.51,526.98 C 243.51,496.98 226.12,466.98 226.12,406.98 C 226.12,366.51 244.75,326.03 249.81,294.38 L 252.36,257.75 C 250.47,221.2 251.38,195.82 251.38,195.82 C 241.96,197.83 229.62,191.63 224,187.99 C 212.78,180.71 199.19,155.32 195.62,118.37 L 191.44,119.01 C 191.44,75.2 199.55,48.46 203.49,31.38 L 67.56,0 C 57.42,43.91 28.58,67.56 0,67.56 L -87.5,67.56 L -87.5,651.98 z" />
<path  style="stroke: hsl(132, 100%, 35%);" data-sample-run="5" data-sample-runs="10" id="fs-75" d="M 249.81,294.38 L 112.22,266.41 L 252.36,257.75" />
<path  style="stroke: hsl(165, 100%, 35%);" data-sample-run="6" data-sample-runs="10" id="fs-76" d="M 0,651.96 L 243.51,651.96" />
<path  class="fabric" style="stroke: hsl(165, 100%, 35%);" data-sample-run="6" data-sample-runs="10" id="fs-77" d="M 0,651.96 L 243.51,651.96 L 243.51,526.96 C 243.51,496.96 226.13,466.96 226.13,406.96 C 226.13,366.5 244.75,326.04 249.8,294.38 L 252.35,257.77 C 250.45,221.15 251.37,195.7 251.37,195.7 C 241.95,197.71 229.6,191.5 223.99,187.86 C 212.77,180.58 199.18,155.19 195.61,118.24 L 191.44,118.88 C 191.44,75.07 199.55,48.33 203.49,31.25 L 68.12,0 C 57.9,44.28 28.82,68.12 0,68.12 L -87.5,68.12 L -87.5,651.96 z" />
<path  style="stroke: hsl(165, 100%, 35%);" data-sample-run="6" data-sample-runs="10" id="fs-78" d="M 249.8,294.38 L 112.22,266.42 L 252.35,257.77" />
<path  style="stroke: hsl(198, 100%, 35%);" data-sample-run="7" data-sample-runs="10" id="fs-79" d="M 0,651.94 L 243.51,651.94" />
<path  class="fabric" style="stroke: hsl(198, 100%, 35%);" data-sample-run="7" data-sample-runs="10" id="fs-80" d="M 0,651.94 L 243.51,651.94 L 243.51,526.94 C 243.51,496.94 226.13,466.94 226.13,406.94 C 226.13,366.49 244.74,326.05 249.79,294.38 L 252.34,257.8 C 250.44,221.09 251.35,195.58 251.35,195.58 C 241.94,197.59 229.59,191.38 223.98,187.74 C 212.76,180.46 199.18,155.06 195.61,118.11 L 191.44,118.75 C 191.44,74.94 199.55,48.2 203.49,31.12 L 68.69,0 C 58.38,44.65 29.06,68.69 0,68.69 L -87.5,68.69 L -87.5,651.94 z" />
<path  style="stroke: hsl(198, 100%, 35%);" data-sample-run="7" data-sample-runs="10" id="fs-81" d="M 249.79,294.38 L 112.21,266.42 L 252.34,257.8" />
<path  style="stroke: hsl(231, 100%, 35%);" data-sample-run="8" data-sample-runs="10" id="fs-82" d="M 0,651.92 L 243.51,651.92" />
<path  class="fabric" style="stroke: hsl(231, 100%, 35%);" data-sample-run="8" data-sample-runs="10" id="fs-83" d="M 0,651.92 L 243.51,651.92 L 243.51,526.92 C 243.51,496.92 226.14,466.92 226.14,406.92 C 226.14,366.48 244.74,326.05 249.79,294.38 L 252.33,257.83 C 250.42,221.04 251.34,195.46 251.34,195.46 C 241.92,197.46 229.58,191.25 223.97,187.61 C 212.75,180.33 199.17,154.93 195.61,117.98 L 191.44,118.62 C 191.44,74.8 199.55,48.07 203.49,30.99 L 69.26,0 C 58.87,45.02 29.3,69.26 0,69.26 L -87.5,69.26 L -87.5,651.92 z" />
<path  style="stroke: hsl(231, 100%, 35%);" data-sample-run="8" data-sample-runs="10" id="fs-84" d="M 249.79,294.38 L 112.21,266.42 L 252.33,257.83" />
<path  style="stroke: hsl(264, 100%, 35%);" data-sample-run="9" data-sample-runs="10" id="fs-85" d="M 0,651.9 L 243.51,651.9" />
<path  class="fabric" style="stroke: hsl(264, 100%, 35%);" data-sample-run="9" data-sample-runs="10" id="fs-86" d="M 0,651.9 L 243.51,651.9 L 243.51,526.9 C 243.51,496.9 226.14,466.9 226.14,406.9 C 226.14,366.48 244.74,326.06 249.78,294.38 L 252.33,257.86 C 250.41,220.99 251.33,195.34 251.33,195.34 C 241.91,197.34 229.57,191.13 223.96,187.48 C 212.74,180.2 199.17,154.8 195.6,117.85 L 191.44,118.49 C 191.44,74.67 199.55,47.93 203.49,30.86 L 69.83,0 C 59.35,45.39 29.54,69.83 0,69.83 L -87.5,69.83 L -87.5,651.9 z" />
<path  style="stroke: hsl(264, 100%, 35%);" data-sample-run="9" data-sample-runs="10" id="fs-87" d="M 249.78,294.38 L 112.21,266.42 L 252.33,257.86" />
<path  style="stroke: hsl(297, 100%, 35%);" data-sample-run="10" data-sample-runs="10" id="fs-88" d="M 0,651.88 L 243.51,651.88" />
<path  class="fabric" style="stroke: hsl(297, 100%, 35%);" data-sample-run="10" data-sample-runs="10" id="fs-89" d="M 0,651.88 L 243.51,651.88 L 243.51,526.88 C 243.51,496.88 226.14,466.88 226.14,406.88 C 226.14,366.47 244.74,326.07 249.77,294.38 L 252.32,257.89 C 250.39,220.93 251.32,195.22 251.32,195.22 C 241.9,197.22 229.56,191 223.95,187.36 C 212.73,180.07 199.16,154.67 195.6,117.72 L 191.44,118.36 C 191.44,74.54 199.55,47.8 203.49,30.73 L 70.4,0 C 59.84,45.76 29.78,70.4 0,70.4 L -87.5,70.4 L -87.5,651.88 z" />
<path  style="stroke: hsl(297, 100%, 35%);" data-sample-run="10" data-sample-runs="10" id="fs-90" d="M 249.77,294.38 L 112.21,266.43 L 252.32,257.89" />
</g>
<!-- end of group #fs-part-frontLeft -->

<!-- Start of group #fs-part-buttonPlacket -->
<g id="fs-part-buttonPlacket"  transform="translate(2, 2) translate(1111.4942777173717, 550.0772524430988)">
</g>
<!-- end of group #fs-part-buttonPlacket -->

<!-- Start of group #fs-part-buttonholePlacket -->
<g id="fs-part-buttonholePlacket"  transform="translate(2, 2) translate(1115.4942777173717, 550.0772524430988)">
</g>
<!-- end of group #fs-part-buttonholePlacket -->

<!-- Start of group #fs-part-yoke -->
<g id="fs-part-yoke"  transform="translate(210.61, 2) translate(0, 656.0606067146027)">
<path  class="fabric" style="stroke: hsl(0, 100%, 35%);" data-sample-run="1" data-sample-runs="10" id="fs-91" d="M 0,80.1 L 196.77,80.1 C 198.27,58.48 200.9,43.11 203.49,31.91 L 65.28,0 C 61.59,16 0,16 0,16 C 0,16 -61.59,16 -65.28,0 L -203.49,31.91 C -200.9,43.11 -198.27,58.48 -196.77,80.1 L 0,80.1 z" />
<path  class="fabric" style="stroke: hsl(33, 100%, 35%);" data-sample-run="2" data-sample-runs="10" id="fs-92" d="M -0.57,79.97 L 196.2,79.97 C 197.71,58.35 200.33,42.98 202.92,31.78 L 65.28,0 C 61.59,16 -0.57,16 -0.57,16 C -0.57,16 -62.72,16 -66.42,0 L -204.06,31.78 C -201.47,42.98 -198.84,58.35 -197.34,79.97 L -0.57,79.97 z" />
<path  class="fabric" style="stroke: hsl(66, 100%, 35%);" data-sample-run="3" data-sample-runs="10" id="fs-93" d="M -1.14,79.84 L 195.64,79.84 C 197.14,58.22 199.77,42.85 202.35,31.65 L 65.28,0 C 61.59,16 -1.14,16 -1.14,16 C -1.14,16 -63.86,16 -67.56,0 L -204.63,31.65 C -202.04,42.85 -199.41,58.22 -197.91,79.84 L -1.14,79.84 z" />
<path  class="fabric" style="stroke: hsl(99, 100%, 35%);" data-sample-run="4" data-sample-runs="10" id="fs-94" d="M -1.71,79.71 L 195.07,79.71 C 196.57,58.09 199.2,42.72 201.78,31.51 L 65.28,0 C 61.59,16 -1.71,16 -1.71,16 C -1.71,16 -65,16 -68.69,0 L -205.2,31.51 C -202.61,42.72 -199.98,58.09 -198.48,79.71 L -1.71,79.71 z" />
<path  class="fabric" style="stroke: hsl(132, 100%, 35%);" data-sample-run="5" data-sample-runs="10" id="fs-95" d="M -2.28,79.58 L 194.5,79.58 C 196,57.96 198.63,42.59 201.21,31.38 L 65.28,0 C 61.59,16 -2.28,16 -2.28,16 C -2.28,16 -66.14,16 -69.83,0 L -205.77,31.38 C -203.18,42.59 -200.55,57.96 -199.05,79.58 L -2.28,79.58 z" />
<path  class="fabric" style="stroke: hsl(165, 100%, 35%);" data-sample-run="6" data-sample-runs="10" id="fs-96" d="M -2.84,79.45 L 193.93,79.45 C 195.43,57.82 198.06,42.46 200.65,31.25 L 65.28,0 C 61.59,16 -2.84,16 -2.84,16 C -2.84,16 -67.27,16 -70.97,0 L -206.33,31.25 C -203.75,42.46 -201.12,57.82 -199.62,79.45 L -2.84,79.45 z" />
<path  class="fabric" style="stroke: hsl(198, 100%, 35%);" data-sample-run="7" data-sample-runs="10" id="fs-97" d="M -3.41,79.32 L 193.36,79.32 C 194.86,57.69 197.49,42.33 200.08,31.12 L 65.28,0 C 61.59,16 -3.41,16 -3.41,16 C -3.41,16 -68.41,16 -72.11,0 L -206.9,31.12 C -204.32,42.33 -201.69,57.69 -200.19,79.32 L -3.41,79.32 z" />
<path  class="fabric" style="stroke: hsl(231, 100%, 35%);" data-sample-run="8" data-sample-runs="10" id="fs-98" d="M -3.98,79.19 L 192.79,79.19 C 194.29,57.56 196.92,42.2 199.51,30.99 L 65.28,0 C 61.59,16 -3.98,16 -3.98,16 C -3.98,16 -69.55,16 -73.24,0 L -207.47,30.99 C -204.89,42.2 -202.26,57.56 -200.76,79.19 L -3.98,79.19 z" />
<path  class="fabric" style="stroke: hsl(264, 100%, 35%);" data-sample-run="9" data-sample-runs="10" id="fs-99" d="M -4.55,79.05 L 192.22,79.05 C 193.72,57.43 196.35,42.06 198.94,30.86 L 65.28,0 C 61.59,16 -4.55,16 -4.55,16 C -4.55,16 -70.69,16 -74.38,0 L -208.04,30.86 C -205.45,42.06 -202.83,57.43 -201.32,79.05 L -4.55,79.05 z" />
<path  class="fabric" style="stroke: hsl(297, 100%, 35%);" data-sample-run="10" data-sample-runs="10" id="fs-100" d="M -5.12,78.92 L 191.65,78.92 C 193.15,57.3 195.78,41.93 198.37,30.73 L 65.28,0 C 61.59,16 -5.12,16 -5.12,16 C -5.12,16 -71.83,16 -75.52,0 L -208.61,30.73 C -206.02,41.93 -203.39,57.3 -201.89,78.92 L -5.12,78.92 z" />
</g>
<!-- end of group #fs-part-yoke -->

<!-- Start of group #fs-part-collarStand -->
<g id="fs-part-collarStand"  transform="translate(187.50399522091422, 19.5) translate(771.0035927699967, 656.0606067146027)">
<path  class="fabric" style="stroke: hsl(0, 100%, 35%);" data-sample-run="1" data-sample-runs="10" id="fs-101" d="M 0,17.5 C 32.64,17.5 80.85,22.33 113.47,23.47 C 129.78,24.04 146.41,24.05 162.73,24.33 L 180.23,24.64 C 180.53,7.14 180.84,-10.36 163.34,-10.66 C 145.84,-10.97 131,-10.94 114.69,-11.51 C 82.07,-12.65 32.64,-17.5 0,-17.5 C -32.64,-17.5 -82.07,-12.65 -114.69,-11.51 C -131,-10.94 -145.84,-10.97 -163.34,-10.66 C -173.33,-11.19 -172.19,13.82 -172.72,23.81 L -162.73,24.33 C -146.41,24.05 -129.78,24.04 -113.47,23.47 C -80.85,22.33 -32.64,17.5 0,17.5 z" />
<path  class="fabric" style="stroke: hsl(33, 100%, 35%);" data-sample-run="2" data-sample-runs="10" id="fs-102" d="M 0,17.5 C 32.92,17.5 81.56,22.37 114.47,23.52 C 130.92,24.09 147.69,24.1 164.15,24.39 L 181.65,24.7 C 181.95,7.2 182.26,-10.3 164.76,-10.6 C 147.26,-10.91 132.14,-10.88 115.69,-11.46 C 82.78,-12.61 32.92,-17.5 0,-17.5 C -32.92,-17.5 -82.78,-12.61 -115.69,-11.46 C -132.14,-10.88 -147.26,-10.91 -164.76,-10.6 C -174.75,-11.13 -173.61,13.88 -174.14,23.87 L -164.15,24.39 C -147.69,24.1 -130.92,24.09 -114.47,23.52 C -81.56,22.37 -32.92,17.5 0,17.5 z" />
<path  class="fabric" style="stroke: hsl(66, 100%, 35%);" data-sample-run="3" data-sample-runs="10" id="fs-103" d="M 0,17.5 C 33.21,17.5 82.27,22.41 115.46,23.57 C 132.06,24.15 148.97,24.16 165.57,24.45 L 183.07,24.76 C 183.37,7.26 183.68,-10.24 166.18,-10.54 C 148.69,-10.85 133.28,-10.83 116.68,-11.41 C 83.49,-12.57 33.21,-17.5 0,-17.5 C -33.21,-17.5 -83.49,-12.57 -116.68,-11.41 C -133.28,-10.83 -148.69,-10.85 -166.18,-10.54 C -176.17,-11.07 -175.04,13.94 -175.56,23.93 L -165.57,24.45 C -148.97,24.16 -132.06,24.15 -115.46,23.57 C -82.27,22.41 -33.21,17.5 0,17.5 z" />
<path  class="fabric" style="stroke: hsl(99, 100%, 35%);" data-sample-run="4" data-sample-runs="10" id="fs-104" d="M 0,17.5 C 33.49,17.5 82.98,22.46 116.46,23.62 C 133.19,24.21 150.25,24.22 166.99,24.51 L 184.49,24.81 C 184.8,7.32 185.1,-10.18 167.6,-10.49 C 150.11,-10.79 134.41,-10.77 117.68,-11.35 C 84.2,-12.52 33.49,-17.5 0,-17.5 C -33.49,-17.5 -84.2,-12.52 -117.68,-11.35 C -134.41,-10.77 -150.11,-10.79 -167.6,-10.49 C -177.59,-11.01 -176.46,14 -176.98,23.99 L -166.99,24.51 C -150.25,24.22 -133.19,24.21 -116.46,23.62 C -82.98,22.46 -33.49,17.5 0,17.5 z" />
<path  class="fabric" style="stroke: hsl(132, 100%, 35%);" data-sample-run="5" data-sample-runs="10" id="fs-105" d="M 0,17.5 C 33.78,17.5 83.69,22.5 117.45,23.68 C 134.33,24.27 151.53,24.27 168.41,24.57 L 185.91,24.87 C 186.22,7.38 186.52,-10.12 169.02,-10.43 C 151.53,-10.73 135.55,-10.71 118.67,-11.3 C 84.91,-12.48 33.78,-17.5 0,-17.5 C -33.78,-17.5 -84.91,-12.48 -118.67,-11.3 C -135.55,-10.71 -151.53,-10.73 -169.02,-10.43 C -179.01,-10.95 -177.88,14.06 -178.4,24.05 L -168.41,24.57 C -151.53,24.27 -134.33,24.27 -117.45,23.68 C -83.69,22.5 -33.78,17.5 0,17.5 z" />
<path  class="fabric" style="stroke: hsl(165, 100%, 35%);" data-sample-run="6" data-sample-runs="10" id="fs-106" d="M 0,17.5 C 34.06,17.5 84.4,22.54 118.44,23.73 C 135.46,24.32 152.81,24.33 169.83,24.63 L 187.33,24.93 C 187.64,7.44 187.94,-10.06 170.45,-10.37 C 152.95,-10.67 136.69,-10.66 119.67,-11.25 C 85.62,-12.44 34.06,-17.5 0,-17.5 C -34.06,-17.5 -85.62,-12.44 -119.67,-11.25 C -136.69,-10.66 -152.95,-10.67 -170.45,-10.37 C -180.43,-10.89 -179.3,14.12 -179.82,24.11 L -169.83,24.63 C -152.81,24.33 -135.46,24.32 -118.44,23.73 C -84.4,22.54 -34.06,17.5 0,17.5 z" />
<path  class="fabric" style="stroke: hsl(198, 100%, 35%);" data-sample-run="7" data-sample-runs="10" id="fs-107" d="M 0,17.5 C 34.35,17.5 85.11,22.58 119.44,23.78 C 136.6,24.38 154.08,24.39 171.26,24.69 L 188.75,24.99 C 189.06,7.5 189.36,-10 171.87,-10.31 C 154.37,-10.61 137.82,-10.6 120.66,-11.2 C 86.33,-12.4 34.35,-17.5 0,-17.5 C -34.35,-17.5 -86.33,-12.4 -120.66,-11.2 C -137.82,-10.6 -154.37,-10.61 -171.87,-10.31 C -181.85,-10.83 -180.72,14.18 -181.24,24.16 L -171.26,24.69 C -154.08,24.39 -136.6,24.38 -119.44,23.78 C -85.11,22.58 -34.35,17.5 0,17.5 z" />
<path  class="fabric" style="stroke: hsl(231, 100%, 35%);" data-sample-run="8" data-sample-runs="10" id="fs-108" d="M 0,17.5 C 34.63,17.5 85.82,22.62 120.43,23.83 C 137.74,24.44 155.36,24.45 172.68,24.75 L 190.17,25.05 C 190.48,7.56 190.78,-9.94 173.29,-10.25 C 155.79,-10.55 138.96,-10.54 121.65,-11.15 C 87.04,-12.35 34.63,-17.5 0,-17.5 C -34.63,-17.5 -87.04,-12.35 -121.65,-11.15 C -138.96,-10.54 -155.79,-10.55 -173.29,-10.25 C -183.27,-10.77 -182.14,14.24 -182.66,24.22 L -172.68,24.75 C -155.36,24.45 -137.74,24.44 -120.43,23.83 C -85.82,22.62 -34.63,17.5 0,17.5 z" />
<path  class="fabric" style="stroke: hsl(264, 100%, 35%);" data-sample-run="9" data-sample-runs="10" id="fs-109" d="M 0,17.5 C 34.92,17.5 86.53,22.67 121.43,23.89 C 138.87,24.49 156.64,24.5 174.1,24.81 L 191.59,25.11 C 191.9,7.62 192.21,-9.88 174.71,-10.19 C 157.21,-10.49 140.09,-10.48 122.65,-11.09 C 87.75,-12.31 34.92,-17.5 0,-17.5 C -34.92,-17.5 -87.75,-12.31 -122.65,-11.09 C -140.09,-10.48 -157.21,-10.49 -174.71,-10.19 C -184.69,-10.71 -183.56,14.3 -184.08,24.28 L -174.1,24.81 C -156.64,24.5 -138.87,24.49 -121.43,23.89 C -86.53,22.67 -34.92,17.5 0,17.5 z" />
<path  class="fabric" style="stroke: hsl(297, 100%, 35%);" data-sample-run="10" data-sample-runs="10" id="fs-110" d="M 0,17.5 C 35.2,17.5 87.24,22.71 122.42,23.94 C 140.01,24.55 157.92,24.56 175.52,24.87 L 193.02,25.17 C 193.32,7.67 193.63,-9.82 176.13,-10.13 C 158.63,-10.43 141.23,-10.43 123.64,-11.04 C 88.46,-12.27 35.2,-17.5 0,-17.5 C -35.2,-17.5 -88.46,-12.27 -123.64,-11.04 C -141.23,-10.43 -158.63,-10.43 -176.13,-10.13 C -186.11,-10.65 -184.98,14.36 -185.5,24.34 L -175.52,24.87 C -157.92,24.56 -140.01,24.55 -122.42,23.94 C -87.24,22.71 -35.2,17.5 0,17.5 z" />
</g>
<!-- end of group #fs-part-collarStand -->

<!-- Start of group #fs-part-collar -->
<g id="fs-part-collar"  transform="translate(177.45179638499832, 8.316065558603935) translate(416.1, 656.0606067146027)">
<path  class="fabric" style="stroke: hsl(0, 100%, 35%);" data-sample-run="1" data-sample-runs="10" id="fs-111" d="M 0,36.05 C 110.3,36.05 157.57,51.81 157.57,51.81 L 162.61,-5.86 C 162.61,-5.86 110.3,0 78.78,0 L 0,0 L -78.78,0 C -110.3,0 -162.61,-5.86 -162.61,-5.86 L -157.57,51.81 C -157.57,51.81 -110.3,36.05 0,36.05 z" />
<path  class="fabric" style="stroke: hsl(33, 100%, 35%);" data-sample-run="2" data-sample-runs="10" id="fs-112" d="M 0,36.05 C 111.28,36.05 158.98,51.95 158.98,51.95 L 164.04,-5.91 C 164.04,-5.91 111.28,0 79.49,0 L 0,0 L -79.49,0 C -111.28,0 -164.04,-5.91 -164.04,-5.91 L -158.98,51.95 C -158.98,51.95 -111.28,36.05 0,36.05 z" />
<path  class="fabric" style="stroke: hsl(66, 100%, 35%);" data-sample-run="3" data-sample-runs="10" id="fs-113" d="M 0,36.05 C 112.27,36.05 160.39,52.09 160.39,52.09 L 165.47,-5.96 C 165.47,-5.96 112.27,0 80.19,0 L 0,0 L -80.19,0 C -112.27,0 -165.47,-5.96 -165.47,-5.96 L -160.39,52.09 C -160.39,52.09 -112.27,36.05 0,36.05 z" />
<path  class="fabric" style="stroke: hsl(99, 100%, 35%);" data-sample-run="4" data-sample-runs="10" id="fs-114" d="M 0,36.05 C 113.26,36.05 161.8,52.23 161.8,52.23 L 166.89,-6.01 C 166.89,-6.01 113.26,0 80.9,0 L 0,0 L -80.9,0 C -113.26,0 -166.89,-6.01 -166.89,-6.01 L -161.8,52.23 C -161.8,52.23 -113.26,36.05 0,36.05 z" />
<path  class="fabric" style="stroke: hsl(132, 100%, 35%);" data-sample-run="5" data-sample-runs="10" id="fs-115" d="M 0,36.05 C 114.25,36.05 163.21,52.37 163.21,52.37 L 168.32,-6.06 C 168.32,-6.06 114.25,0 81.6,0 L 0,0 L -81.6,0 C -114.25,0 -168.32,-6.06 -168.32,-6.06 L -163.21,52.37 C -163.21,52.37 -114.25,36.05 0,36.05 z" />
<path  class="fabric" style="stroke: hsl(165, 100%, 35%);" data-sample-run="6" data-sample-runs="10" id="fs-116" d="M 0,36.05 C 115.23,36.05 164.62,52.51 164.62,52.51 L 169.75,-6.11 C 169.75,-6.11 115.23,0 82.31,0 L 0,0 L -82.31,0 C -115.23,0 -169.75,-6.11 -169.75,-6.11 L -164.62,52.51 C -164.62,52.51 -115.23,36.05 0,36.05 z" />
<path  class="fabric" style="stroke: hsl(198, 100%, 35%);" data-sample-run="7" data-sample-runs="10" id="fs-117" d="M 0,36.05 C 116.22,36.05 166.03,52.65 166.03,52.65 L 171.17,-6.16 C 171.17,-6.16 116.22,0 83.01,0 L 0,0 L -83.01,0 C -116.22,0 -171.17,-6.16 -171.17,-6.16 L -166.03,52.65 C -166.03,52.65 -116.22,36.05 0,36.05 z" />
<path  class="fabric" style="stroke: hsl(231, 100%, 35%);" data-sample-run="8" data-sample-runs="10" id="fs-118" d="M 0,36.05 C 117.21,36.05 167.44,52.79 167.44,52.79 L 172.6,-6.22 C 172.6,-6.22 117.21,0 83.72,0 L 0,0 L -83.72,0 C -117.21,0 -172.6,-6.22 -172.6,-6.22 L -167.44,52.79 C -167.44,52.79 -117.21,36.05 0,36.05 z" />
<path  class="fabric" style="stroke: hsl(264, 100%, 35%);" data-sample-run="9" data-sample-runs="10" id="fs-119" d="M 0,36.05 C 118.19,36.05 168.85,52.93 168.85,52.93 L 174.03,-6.27 C 174.03,-6.27 118.19,0 84.42,0 L 0,0 L -84.42,0 C -118.19,0 -174.03,-6.27 -174.03,-6.27 L -168.85,52.93 C -168.85,52.93 -118.19,36.05 0,36.05 z" />
<path  class="fabric" style="stroke: hsl(297, 100%, 35%);" data-sample-run="10" data-sample-runs="10" id="fs-120" d="M 0,36.05 C 119.18,36.05 170.26,53.08 170.26,53.08 L 175.45,-6.32 C 175.45,-6.32 119.18,0 85.13,0 L 0,0 L -85.13,0 C -119.18,0 -175.45,-6.32 -175.45,-6.32 L -170.26,53.08 C -170.26,53.08 -119.18,36.05 0,36.05 z" />
</g>
<!-- end of group #fs-part-collar -->

<!-- Start of group #fs-part-sleevePlacketUnderlap -->
<g id="fs-part-sleevePlacketUnderlap"  transform="translate(2.0000000000000013, 20.5) translate(630.2806742290995, 592.3199999999999)">
<path  class="fabric" style="stroke: hsl(0, 100%, 35%);" data-sample-run="1" data-sample-runs="10" id="fs-121" d="M 0,-18.5 L 145,-18.5 L 145,18.5 L 0,18.5 z" />
<path  class="help" style="stroke: hsl(0, 100%, 35%);" data-sample-run="1" data-sample-runs="10" id="fs-122" d="M 0,-10 L 145,-10M 0,10 L 145,10M 0,0 L 145,0" />
<path  class="fabric" style="stroke: hsl(33, 100%, 35%);" data-sample-run="2" data-sample-runs="10" id="fs-123" d="M 0,-18.5 L 145,-18.5 L 145,18.5 L 0,18.5 z" />
<path  class="help" style="stroke: hsl(33, 100%, 35%);" data-sample-run="2" data-sample-runs="10" id="fs-124" d="M 0,-10 L 145,-10M 0,10 L 145,10M 0,0 L 145,0" />
<path  class="fabric" style="stroke: hsl(66, 100%, 35%);" data-sample-run="3" data-sample-runs="10" id="fs-125" d="M 0,-18.5 L 145,-18.5 L 145,18.5 L 0,18.5 z" />
<path  class="help" style="stroke: hsl(66, 100%, 35%);" data-sample-run="3" data-sample-runs="10" id="fs-126" d="M 0,-10 L 145,-10M 0,10 L 145,10M 0,0 L 145,0" />
<path  class="fabric" style="stroke: hsl(99, 100%, 35%);" data-sample-run="4" data-sample-runs="10" id="fs-127" d="M 0,-18.5 L 145,-18.5 L 145,18.5 L 0,18.5 z" />
<path  class="help" style="stroke: hsl(99, 100%, 35%);" data-sample-run="4" data-sample-runs="10" id="fs-128" d="M 0,-10 L 145,-10M 0,10 L 145,10M 0,0 L 145,0" />
<path  class="fabric" style="stroke: hsl(132, 100%, 35%);" data-sample-run="5" data-sample-runs="10" id="fs-129" d="M 0,-18.5 L 145,-18.5 L 145,18.5 L 0,18.5 z" />
<path  class="help" style="stroke: hsl(132, 100%, 35%);" data-sample-run="5" data-sample-runs="10" id="fs-130" d="M 0,-10 L 145,-10M 0,10 L 145,10M 0,0 L 145,0" />
<path  class="fabric" style="stroke: hsl(165, 100%, 35%);" data-sample-run="6" data-sample-runs="10" id="fs-131" d="M 0,-18.5 L 145,-18.5 L 145,18.5 L 0,18.5 z" />
<path  class="help" style="stroke: hsl(165, 100%, 35%);" data-sample-run="6" data-sample-runs="10" id="fs-132" d="M 0,-10 L 145,-10M 0,10 L 145,10M 0,0 L 145,0" />
<path  class="fabric" style="stroke: hsl(198, 100%, 35%);" data-sample-run="7" data-sample-runs="10" id="fs-133" d="M 0,-18.5 L 145,-18.5 L 145,18.5 L 0,18.5 z" />
<path  class="help" style="stroke: hsl(198, 100%, 35%);" data-sample-run="7" data-sample-runs="10" id="fs-134" d="M 0,-10 L 145,-10M 0,10 L 145,10M 0,0 L 145,0" />
<path  class="fabric" style="stroke: hsl(231, 100%, 35%);" data-sample-run="8" data-sample-runs="10" id="fs-135" d="M 0,-18.5 L 145,-18.5 L 145,18.5 L 0,18.5 z" />
<path  class="help" style="stroke: hsl(231, 100%, 35%);" data-sample-run="8" data-sample-runs="10" id="fs-136" d="M 0,-10 L 145,-10M 0,10 L 145,10M 0,0 L 145,0" />
<path  class="fabric" style="stroke: hsl(264, 100%, 35%);" data-sample-run="9" data-sample-runs="10" id="fs-137" d="M 0,-18.5 L 145,-18.5 L 145,18.5 L 0,18.5 z" />
<path  class="help" style="stroke: hsl(264, 100%, 35%);" data-sample-run="9" data-sample-runs="10" id="fs-138" d="M 0,-10 L 145,-10M 0,10 L 145,10M 0,0 L 145,0" />
<path  class="fabric" style="stroke: hsl(297, 100%, 35%);" data-sample-run="10" data-sample-runs="10" id="fs-139" d="M 0,-18.5 L 145,-18.5 L 145,18.5 L 0,18.5 z" />
<path  class="help" style="stroke: hsl(297, 100%, 35%);" data-sample-run="10" data-sample-runs="10" id="fs-140" d="M 0,-10 L 145,-10M 0,10 L 145,10M 0,0 L 145,0" />
</g>
<!-- end of group #fs-part-sleevePlacketUnderlap -->

<!-- Start of group #fs-part-sleevePlacketOverlap -->
<g id="fs-part-sleevePlacketOverlap"  transform="translate(2.000000000000003, 25.5) translate(918.7442777173717, 550.0772524430988)">
<path  class="fabric" style="stroke: hsl(0, 100%, 35%);" data-sample-run="1" data-sample-runs="10" id="fs-141" d="M 0,-23.5 L 188.75,-23.5 L 188.75,23.5 L 173.75,23.5 L 163.75,33.5 L 151.25,33.5 L 151.25,48.5 L 0,48.5 z" />
<path  class="dashed" style="stroke: hsl(0, 100%, 35%);" data-sample-run="1" data-sample-runs="10" id="fs-142" d="M 0,-12.5 L 176.25,-12.5 L 182.5,0 L 176.25,12.5 L 0,12.5M 145,-12.5 L 145,12.5" />
<path  class="dotted" style="stroke: hsl(0, 100%, 35%);" data-sample-run="1" data-sample-runs="10" id="fs-143" d="M 0,37.5 L 151.25,37.5M 176.25,12.5 L 188.75,12.5 L 182.5,0 L 188.75,-12.5 L 176.25,-12.5" />
<path  class="fabric" style="stroke: hsl(33, 100%, 35%);" data-sample-run="2" data-sample-runs="10" id="fs-144" d="M 0,-23.5 L 188.75,-23.5 L 188.75,23.5 L 173.75,23.5 L 163.75,33.5 L 151.25,33.5 L 151.25,48.5 L 0,48.5 z" />
<path  class="dashed" style="stroke: hsl(33, 100%, 35%);" data-sample-run="2" data-sample-runs="10" id="fs-145" d="M 0,-12.5 L 176.25,-12.5 L 182.5,0 L 176.25,12.5 L 0,12.5M 145,-12.5 L 145,12.5" />
<path  class="dotted" style="stroke: hsl(33, 100%, 35%);" data-sample-run="2" data-sample-runs="10" id="fs-146" d="M 0,37.5 L 151.25,37.5M 176.25,12.5 L 188.75,12.5 L 182.5,0 L 188.75,-12.5 L 176.25,-12.5" />
<path  class="fabric" style="stroke: hsl(66, 100%, 35%);" data-sample-run="3" data-sample-runs="10" id="fs-147" d="M 0,-23.5 L 188.75,-23.5 L 188.75,23.5 L 173.75,23.5 L 163.75,33.5 L 151.25,33.5 L 151.25,48.5 L 0,48.5 z" />
<path  class="dashed" style="stroke: hsl(66, 100%, 35%);" data-sample-run="3" data-sample-runs="10" id="fs-148" d="M 0,-12.5 L 176.25,-12.5 L 182.5,0 L 176.25,12.5 L 0,12.5M 145,-12.5 L 145,12.5" />
<path  class="dotted" style="stroke: hsl(66, 100%, 35%);" data-sample-run="3" data-sample-runs="10" id="fs-149" d="M 0,37.5 L 151.25,37.5M 176.25,12.5 L 188.75,12.5 L 182.5,0 L 188.75,-12.5 L 176.25,-12.5" />
<path  class="fabric" style="stroke: hsl(99, 100%, 35%);" data-sample-run="4" data-sample-runs="10" id="fs-150" d="M 0,-23.5 L 188.75,-23.5 L 188.75,23.5 L 173.75,23.5 L 163.75,33.5 L 151.25,33.5 L 151.25,48.5 L 0,48.5 z" />
<path  class="dashed" style="stroke: hsl(99, 100%, 35%);" data-sample-run="4" data-sample-runs="10" id="fs-151" d="M 0,-12.5 L 176.25,-12.5 L 182.5,0 L 176.25,12.5 L 0,12.5M 145,-12.5 L 145,12.5" />
<path  class="dotted" style="stroke: hsl(99, 100%, 35%);" data-sample-run="4" data-sample-runs="10" id="fs-152" d="M 0,37.5 L 151.25,37.5M 176.25,12.5 L 188.75,12.5 L 182.5,0 L 188.75,-12.5 L 176.25,-12.5" />
<path  class="fabric" style="stroke: hsl(132, 100%, 35%);" data-sample-run="5" data-sample-runs="10" id="fs-153" d="M 0,-23.5 L 188.75,-23.5 L 188.75,23.5 L 173.75,23.5 L 163.75,33.5 L 151.25,33.5 L 151.25,48.5 L 0,48.5 z" />
<path  class="dashed" style="stroke: hsl(132, 100%, 35%);" data-sample-run="5" data-sample-runs="10" id="fs-154" d="M 0,-12.5 L 176.25,-12.5 L 182.5,0 L 176.25,12.5 L 0,12.5M 145,-12.5 L 145,12.5" />
<path  class="dotted" style="stroke: hsl(132, 100%, 35%);" data-sample-run="5" data-sample-runs="10" id="fs-155" d="M 0,37.5 L 151.25,37.5M 176.25,12.5 L 188.75,12.5 L 182.5,0 L 188.75,-12.5 L 176.25,-12.5" />
<path  class="fabric" style="stroke: hsl(165, 100%, 35%);" data-sample-run="6" data-sample-runs="10" id="fs-156" d="M 0,-23.5 L 188.75,-23.5 L 188.75,23.5 L 173.75,23.5 L 163.75,33.5 L 151.25,33.5 L 151.25,48.5 L 0,48.5 z" />
<path  class="dashed" style="stroke: hsl(165, 100%, 35%);" data-sample-run="6" data-sample-runs="10" id="fs-157" d="M 0,-12.5 L 176.25,-12.5 L 182.5,0 L 176.25,12.5 L 0,12.5M 145,-12.5 L 145,12.5" />
<path  class="dotted" style="stroke: hsl(165, 100%, 35%);" data-sample-run="6" data-sample-runs="10" id="fs-158" d="M 0,37.5 L 151.25,37.5M 176.25,12.5 L 188.75,12.5 L 182.5,0 L 188.75,-12.5 L 176.25,-12.5" />
<path  class="fabric" style="stroke: hsl(198, 100%, 35%);" data-sample-run="7" data-sample-runs="10" id="fs-159" d="M 0,-23.5 L 188.75,-23.5 L 188.75,23.5 L 173.75,23.5 L 163.75,33.5 L 151.25,33.5 L 151.25,48.5 L 0,48.5 z" />
<path  class="dashed" style="stroke: hsl(198, 100%, 35%);" data-sample-run="7" data-sample-runs="10" id="fs-160" d="M 0,-12.5 L 176.25,-12.5 L 182.5,0 L 176.25,12.5 L 0,12.5M 145,-12.5 L 145,12.5" />
<path  class="dotted" style="stroke: hsl(198, 100%, 35%);" data-sample-run="7" data-sample-runs="10" id="fs-161" d="M 0,37.5 L 151.25,37.5M 176.25,12.5 L 188.75,12.5 L 182.5,0 L 188.75,-12.5 L 176.25,-12.5" />
<path  class="fabric" style="stroke: hsl(231, 100%, 35%);" data-sample-run="8" data-sample-runs="10" id="fs-162" d="M 0,-23.5 L 188.75,-23.5 L 188.75,23.5 L 173.75,23.5 L 163.75,33.5 L 151.25,33.5 L 151.25,48.5 L 0,48.5 z" />
<path  class="dashed" style="stroke: hsl(231, 100%, 35%);" data-sample-run="8" data-sample-runs="10" id="fs-163" d="M 0,-12.5 L 176.25,-12.5 L 182.5,0 L 176.25,12.5 L 0,12.5M 145,-12.5 L 145,12.5" />
<path  class="dotted" style="stroke: hsl(231, 100%, 35%);" data-sample-run="8" data-sample-runs="10" id="fs-164" d="M 0,37.5 L 151.25,37.5M 176.25,12.5 L 188.75,12.5 L 182.5,0 L 188.75,-12.5 L 176.25,-12.5" />
<path  class="fabric" style="stroke: hsl(264, 100%, 35%);" data-sample-run="9" data-sample-runs="10" id="fs-165" d="M 0,-23.5 L 188.75,-23.5 L 188.75,23.5 L 173.75,23.5 L 163.75,33.5 L 151.25,33.5 L 151.25,48.5 L 0,48.5 z" />
<path  class="dashed" style="stroke: hsl(264, 100%, 35%);" data-sample-run="9" data-sample-runs="10" id="fs-166" d="M 0,-12.5 L 176.25,-12.5 L 182.5,0 L 176.25,12.5 L 0,12.5M 145,-12.5 L 145,12.5" />
<path  class="dotted" style="stroke: hsl(264, 100%, 35%);" data-sample-run="9" data-sample-runs="10" id="fs-167" d="M 0,37.5 L 151.25,37.5M 176.25,12.5 L 188.75,12.5 L 182.5,0 L 188.75,-12.5 L 176.25,-12.5" />
<path  class="fabric" style="stroke: hsl(297, 100%, 35%);" data-sample-run="10" data-sample-runs="10" id="fs-168" d="M 0,-23.5 L 188.75,-23.5 L 188.75,23.5 L 173.75,23.5 L 163.75,33.5 L 151.25,33.5 L 151.25,48.5 L 0,48.5 z" />
<path  class="dashed" style="stroke: hsl(297, 100%, 35%);" data-sample-run="10" data-sample-runs="10" id="fs-169" d="M 0,-12.5 L 176.25,-12.5 L 182.5,0 L 176.25,12.5 L 0,12.5M 145,-12.5 L 145,12.5" />
<path  class="dotted" style="stroke: hsl(297, 100%, 35%);" data-sample-run="10" data-sample-runs="10" id="fs-170" d="M 0,37.5 L 151.25,37.5M 176.25,12.5 L 188.75,12.5 L 182.5,0 L 188.75,-12.5 L 176.25,-12.5" />
</g>
<!-- end of group #fs-part-sleevePlacketOverlap -->

<!-- Start of group #fs-part-cuff -->
<g id="fs-part-cuff"  transform="translate(2.0000000000000013, 2.000000000000005) translate(630.2806742290995, 530.3199999999999)">
<path  class="fabric" style="stroke: hsl(0, 100%, 35%);" data-sample-run="1" data-sample-runs="10" id="fs-171" d="M 0,19.33 L 0,58 L 216,58 L 216,19.33 L 196.67,0 L 19.33,0 L 0,19.33 z" />
<path  class="fabric" style="stroke: hsl(33, 100%, 35%);" data-sample-run="2" data-sample-runs="10" id="fs-172" d="M 0,19.33 L 0,58 L 216,58 L 216,19.33 L 196.67,0 L 19.33,0 L 0,19.33 z" />
<path  class="fabric" style="stroke: hsl(66, 100%, 35%);" data-sample-run="3" data-sample-runs="10" id="fs-173" d="M 0,19.33 L 0,58 L 216,58 L 216,19.33 L 196.67,0 L 19.33,0 L 0,19.33 z" />
<path  class="fabric" style="stroke: hsl(99, 100%, 35%);" data-sample-run="4" data-sample-runs="10" id="fs-174" d="M 0,19.33 L 0,58 L 216,58 L 216,19.33 L 196.67,0 L 19.33,0 L 0,19.33 z" />
<path  class="fabric" style="stroke: hsl(132, 100%, 35%);" data-sample-run="5" data-sample-runs="10" id="fs-175" d="M 0,19.33 L 0,58 L 216,58 L 216,19.33 L 196.67,0 L 19.33,0 L 0,19.33 z" />
<path  class="fabric" style="stroke: hsl(165, 100%, 35%);" data-sample-run="6" data-sample-runs="10" id="fs-176" d="M 0,19.33 L 0,58 L 216,58 L 216,19.33 L 196.67,0 L 19.33,0 L 0,19.33 z" />
<path  class="fabric" style="stroke: hsl(198, 100%, 35%);" data-sample-run="7" data-sample-runs="10" id="fs-177" d="M 0,19.33 L 0,58 L 216,58 L 216,19.33 L 196.67,0 L 19.33,0 L 0,19.33 z" />
<path  class="fabric" style="stroke: hsl(231, 100%, 35%);" data-sample-run="8" data-sample-runs="10" id="fs-178" d="M 0,19.33 L 0,58 L 216,58 L 216,19.33 L 196.67,0 L 19.33,0 L 0,19.33 z" />
<path  class="fabric" style="stroke: hsl(264, 100%, 35%);" data-sample-run="9" data-sample-runs="10" id="fs-179" d="M 0,19.33 L 0,58 L 216,58 L 216,19.33 L 196.67,0 L 19.33,0 L 0,19.33 z" />
<path  class="fabric" style="stroke: hsl(297, 100%, 35%);" data-sample-run="10" data-sample-runs="10" id="fs-180" d="M 0,19.33 L 0,58 L 216,58 L 216,19.33 L 196.67,0 L 19.33,0 L 0,19.33 z" />
</g>
<!-- end of group #fs-part-cuff -->
</g>
<!-- end of group #fs-container -->
</svg>