<?xml version="1.0" encoding="UTF-8" standalone="no"?>
<!-- Created with Inkscape (http://www.inkscape.org/) -->

<svg
   xmlns:dc="http://purl.org/dc/elements/1.1/"
   xmlns:cc="http://creativecommons.org/ns#"
   xmlns:rdf="http://www.w3.org/1999/02/22-rdf-syntax-ns#"
   xmlns:svg="http://www.w3.org/2000/svg"
   xmlns="http://www.w3.org/2000/svg"
   xmlns:sodipodi="http://sodipodi.sourceforge.net/DTD/sodipodi-0.dtd"
   xmlns:inkscape="http://www.inkscape.org/namespaces/inkscape"
   width="1065.99"
   height="843.314"
   id="svg2"
   version="1.1"
   inkscape:version="0.47 r22583"
   sodipodi:docname="bowlength.svg">
  <defs
     id="defs4" />
  <sodipodi:namedview
     id="base"
     pagecolor="#ffffff"
     bordercolor="#666666"
     borderopacity="1.0"
     inkscape:pageopacity="0.0"
     inkscape:pageshadow="2"
     inkscape:zoom="0.7"
     inkscape:cx="414.879"
     inkscape:cy="260.368"
     inkscape:document-units="px"
     inkscape:current-layer="layer1"
     showgrid="false"
     inkscape:window-width="1832"
     inkscape:window-height="1057"
     inkscape:window-x="-8"
     inkscape:window-y="-8"
     inkscape:window-maximized="0" />
  <metadata
     id="metadata7">
    <rdf:RDF>
      <cc:Work
         rdf:about="">
        <dc:format>image/svg+xml</dc:format>
        <dc:type
           rdf:resource="http://purl.org/dc/dcmitype/StillImage" />
        <dc:title></dc:title>
      </cc:Work>
    </rdf:RDF>
  </metadata>
  <g
     inkscape:label="Layer 1"
     inkscape:groupmode="layer"
     id="layer1"
     transform="translate(-83.5253,183.134)">
    <path
       class="fabric"
       id="2"
       d="M 85.0253,-108.996 333.058,-108.996 510.225,-119.626 C 545.595,-121.748 687.385,-181.634 722.825,-181.634 758.255,-181.634 899.985,-119.626 935.415,-119.626 970.855,-119.626 1112.59,-181.634 1148.02,-181.634 L 1148.02,-66.4759 1148.02,48.6811 C 1112.59,48.6811 970.855,-13.3269 935.415,-13.3269 899.985,-13.3269 758.255,48.6811 722.825,48.6811 687.385,48.6811 545.595,-11.2039 510.225,-13.3269 L 333.058,-23.9569 85.0253,-23.9569 z"
       style="fill:#212121;stroke:#545454;stroke-width:3;stroke-miterlimit:4;stroke-dasharray:none" />
    <path
       class="fabric"
       id="2-4"
       d="M 85.0334,135.676 333.065,135.676 510.23,125.046 C 598.654,119.742 634.246,63.0377 722.829,63.0377 811.411,63.0377 846.841,125.046 935.431,125.046 1024.01,125.046 1059.44,63.0377 1148.02,63.0377 L 1148.02,178.196 1148.02,293.353 C 1059.44,293.353 1024.01,231.345 935.431,231.345 846.841,231.345 811.411,293.353 722.829,293.353 634.246,293.353 598.654,236.65 510.23,231.345 L 333.065,220.715 85.0334,220.715 z"
       style="fill:#212121;stroke:#545454;stroke-width:3;stroke-miterlimit:4;stroke-dasharray:none" />
    <path
       class="fabric"
       id="2-3"
       d="M 85.0319,318.339 333.064,318.339 510.229,307.709 1148.02,307.709 1148.02,360.859 1148.02,414.008 510.229,414.008 333.064,403.379 85.0319,403.379 z"
       style="fill:#212121;stroke:#545454;stroke-width:3;stroke-miterlimit:4;stroke-dasharray:none" />
    <path
       class="fabric"
       id="2-9"
       d="M 85.0256,501.003 333.058,501.003 510.223,490.373 1148.02,428.365 1148.02,543.523 1148.02,658.68 510.223,596.672 333.058,586.042 85.0256,586.042 z"
       style="fill:#212121;stroke:#545454;stroke-width:3;stroke-miterlimit:4;stroke-dasharray:none" />
    <g
       style="font-size:63.177204px;font-style:normal;font-variant:normal;font-weight:normal;font-stretch:normal;text-align:start;line-height:125%;writing-mode:lr-tb;text-anchor:start;fill:#ffffff;fill-opacity:1;stroke:none;font-family:Georgia;-inkscape-font-specification:Georgia"
       id="text7128">
      <path
         d="M 135.33,-49.4328 114.538,-49.4328 114.538,-51.623 C 115.155,-51.6641 116.112,-51.7464 117.407,-51.8698 118.724,-52.0137 119.628,-52.1577 120.122,-52.3016 120.76,-52.5073 121.243,-52.8363 121.572,-53.2888 121.921,-53.7618 122.096,-54.461 122.096,-55.3865 L 122.096,-77.0419 114.415,-77.0419 114.415,-79.6332 116.112,-79.6332 C 118.333,-79.6332 120.317,-80.0445 122.065,-80.8671 123.834,-81.6897 125.099,-82.574 125.86,-83.5201 L 128.42,-83.5201 C 128.358,-82.1833 128.297,-80.6203 128.235,-78.8311 128.173,-77.0419 128.143,-75.4378 128.143,-74.0188 L 128.143,-55.7258 C 128.143,-55.006 128.297,-54.3582 128.605,-53.7824 128.934,-53.2271 129.397,-52.8158 129.993,-52.5484 130.528,-52.3222 131.402,-52.1166 132.616,-51.9315 133.829,-51.7464 134.734,-51.6435 135.33,-51.623 L 135.33,-49.4328"
         style=""
         id="path7154" />
    </g>
    <g
       style="font-size:63.177204px;font-style:normal;font-variant:normal;font-weight:normal;font-stretch:normal;text-align:start;line-height:125%;writing-mode:lr-tb;text-anchor:start;fill:#ffffff;fill-opacity:1;stroke:none;font-family:Georgia;-inkscape-font-specification:Georgia"
       id="text7132">
      <path
         d="M 142.672,195.239 113.767,195.239 113.767,191.044 C 114.323,190.406 115.094,189.697 116.081,188.915 117.068,188.113 118.24,187.249 119.598,186.324 120.42,185.769 121.407,185.162 122.559,184.504 123.711,183.846 125.017,183.126 126.477,182.344 128.101,181.481 129.346,180.72 130.209,180.062 131.094,179.404 131.896,178.591 132.616,177.625 133.089,176.987 133.469,176.195 133.757,175.249 134.045,174.283 134.189,172.915 134.189,171.147 134.189,168.576 133.5,166.694 132.122,165.501 130.744,164.288 128.975,163.681 126.816,163.681 125.479,163.681 124.215,163.949 123.022,164.483 121.829,164.997 120.934,165.717 120.338,166.643 120.482,167.301 120.657,168.082 120.862,168.987 121.089,169.892 121.202,170.776 121.202,171.64 121.202,172.422 120.873,173.121 120.215,173.738 119.577,174.334 118.621,174.632 117.346,174.632 116.317,174.632 115.526,174.283 114.97,173.584 114.415,172.864 114.137,171.907 114.137,170.715 114.137,169.604 114.446,168.494 115.063,167.383 115.68,166.252 116.564,165.213 117.716,164.267 118.847,163.342 120.245,162.591 121.911,162.015 123.577,161.44 125.376,161.152 127.31,161.152 131.526,161.152 134.867,162.098 137.335,163.99 139.824,165.861 141.068,168.37 141.068,171.517 141.068,173.018 140.842,174.386 140.389,175.62 139.957,176.853 139.248,177.943 138.261,178.889 137.171,179.938 135.896,180.843 134.436,181.604 132.975,182.344 130.744,183.383 127.742,184.72 125.952,185.522 124.287,186.365 122.744,187.249 121.202,188.113 119.937,188.956 118.95,189.779 L 142.672,189.779 142.672,195.239"
         style=""
         id="path7151" />
    </g>
    <g
       style="font-size:63.177204px;font-style:normal;font-variant:normal;font-weight:normal;font-stretch:normal;text-align:start;line-height:125%;writing-mode:lr-tb;text-anchor:start;fill:#ffffff;fill-opacity:1;stroke:none;font-family:Georgia;-inkscape-font-specification:Georgia"
       id="text7136">
      <path
         d="M 125.397,383.532 C 123.464,383.532 121.695,383.285 120.091,382.792 118.487,382.319 117.109,381.671 115.957,380.848 114.806,380.026 113.911,379.08 113.274,378.01 112.657,376.941 112.348,375.84 112.348,374.709 112.348,373.702 112.595,372.797 113.089,371.995 113.582,371.172 114.374,370.761 115.464,370.761 116.698,370.761 117.634,371.069 118.271,371.686 118.929,372.283 119.258,372.972 119.258,373.753 119.258,374.411 119.145,375.244 118.919,376.252 118.713,377.259 118.549,377.979 118.425,378.411 118.569,378.596 118.826,378.843 119.197,379.151 119.587,379.46 120.06,379.738 120.616,379.984 121.274,380.293 121.963,380.54 122.682,380.725 123.402,380.91 124.42,381.002 125.736,381.002 126.97,381.002 128.153,380.797 129.284,380.385 130.436,379.974 131.443,379.316 132.307,378.411 133.212,377.465 133.911,376.355 134.405,375.08 134.919,373.825 135.176,372.17 135.176,370.113 135.176,369.002 135.053,367.902 134.806,366.812 134.58,365.722 134.148,364.776 133.51,363.974 132.873,363.172 131.999,362.555 130.888,362.123 129.798,361.671 128.41,361.445 126.724,361.445 L 122.682,361.445 122.682,357.897 125.366,357.897 C 128.204,357.897 130.25,357.116 131.505,355.553 132.759,353.99 133.387,351.635 133.387,348.488 133.387,345.918 132.78,343.985 131.567,342.689 130.353,341.373 128.636,340.715 126.415,340.715 125.346,340.715 124.461,340.848 123.762,341.116 123.083,341.362 122.528,341.609 122.096,341.856 121.582,342.144 121.161,342.463 120.832,342.812 120.502,343.162 120.256,343.419 120.091,343.583 120.235,344.242 120.41,345.054 120.616,346.02 120.821,346.967 120.924,347.871 120.924,348.735 120.924,349.496 120.595,350.185 119.937,350.802 119.299,351.398 118.353,351.697 117.099,351.697 116.009,351.697 115.207,351.306 114.693,350.524 114.199,349.743 113.952,348.838 113.952,347.81 113.952,346.74 114.251,345.65 114.847,344.54 115.443,343.429 116.328,342.391 117.5,341.424 118.672,340.458 120.101,339.676 121.788,339.08 123.474,338.483 125.418,338.185 127.618,338.185 130.148,338.185 132.235,338.566 133.88,339.326 135.546,340.067 136.852,340.972 137.798,342.041 138.723,343.09 139.361,344.19 139.711,345.342 140.06,346.494 140.235,347.481 140.235,348.303 140.235,349.332 140.091,350.37 139.803,351.419 139.515,352.447 139.042,353.404 138.384,354.288 137.664,355.254 136.708,356.139 135.515,356.941 134.343,357.722 132.862,358.36 131.073,358.853 L 131.073,359.347 C 132.225,359.45 133.448,359.707 134.744,360.118 136.06,360.529 137.243,361.136 138.292,361.938 139.382,362.781 140.276,363.871 140.975,365.208 141.675,366.524 142.024,368.2 142.024,370.236 142.024,374.185 140.441,377.383 137.274,379.83 134.107,382.298 130.148,383.532 125.397,383.532"
         style=""
         id="path7148" />
    </g>
    <g
       style="font-size:63.177204px;font-style:normal;font-variant:normal;font-weight:normal;font-stretch:normal;text-align:start;line-height:125%;writing-mode:lr-tb;text-anchor:start;fill:#ffffff;fill-opacity:1;stroke:none;font-family:Georgia;-inkscape-font-specification:Georgia"
       id="text7140">
      <path
         d="M 143.813,552.067 137.551,552.067 137.551,566.103 131.628,566.103 131.628,552.067 111.886,552.067 111.886,547.317 133.51,520.942 137.551,520.942 137.551,548.026 143.813,548.026 143.813,552.067 M 131.628,548.026 131.628,527.821 114.97,548.026 131.628,548.026"
         style=""
         id="path7145" />
    </g>
  </g>
</svg>
