<?xml version="1.0" encoding="UTF-8" standalone="no"?>
<svg
   xmlns:dc="http://purl.org/dc/elements/1.1/"
   xmlns:cc="http://creativecommons.org/ns#"
   xmlns:rdf="http://www.w3.org/1999/02/22-rdf-syntax-ns#"
   xmlns:svg="http://www.w3.org/2000/svg"
   xmlns="http://www.w3.org/2000/svg"
   xmlns:sodipodi="http://sodipodi.sourceforge.net/DTD/sodipodi-0.dtd"
   xmlns:inkscape="http://www.inkscape.org/namespaces/inkscape"
   version="1.1"
   width="1050.3943"
   height="400.72318"
   id="svg13134"
   sodipodi:docname="extraLength.svg"
   inkscape:version="0.92.4 (5da689c313, 2019-01-14)">
  <sodipodi:namedview
     pagecolor="#ffffff"
     bordercolor="#666666"
     borderopacity="1"
     objecttolerance="10"
     gridtolerance="10"
     guidetolerance="10"
     inkscape:pageopacity="0"
     inkscape:pageshadow="2"
     inkscape:window-width="1920"
     inkscape:window-height="1015"
     id="namedview14"
     showgrid="false"
     fit-margin-top="0"
     fit-margin-left="0"
     fit-margin-right="0"
     fit-margin-bottom="0"
     inkscape:zoom="0.77663743"
     inkscape:cx="304.26789"
     inkscape:cy="379.82998"
     inkscape:window-x="0"
     inkscape:window-y="0"
     inkscape:window-maximized="1"
     inkscape:current-layer="svg13134" />
  <metadata
     id="metadata3096">
    <rdf:RDF>
      <cc:Work
         rdf:about="">
        <dc:format>image/svg+xml</dc:format>
        <dc:type
           rdf:resource="http://purl.org/dc/dcmitype/StillImage" />
        <dc:title></dc:title>
      </cc:Work>
    </rdf:RDF>
  </metadata>
  <defs
     id="defs13136" />
  <path
     style="fill:#212121;fill-opacity:0.98086123;stroke:#545454;stroke-width:4;stroke-miterlimit:4;stroke-dasharray:none;stroke-opacity:1"
     id="rect4674-6-3"
     d="M 216.27841,17.442486 C 285.76235,14.133576 144.28526,211.62738 71.792027,195.48226 52.813787,191.25558 70.905657,92.465876 114.52017,54.260666 c 45.59634,-39.94121 81.24825,-35.84146 101.75824,-36.81818 z"
     inkscape:connector-curvature="0"
     sodipodi:nodetypes="ssss" />
  <path
     style="fill:#212121;fill-opacity:0.98086123;stroke:#545454;stroke-width:4;stroke-miterlimit:4;stroke-dasharray:none;stroke-opacity:1"
     id="rect4674"
     d="M 65.247037,228.47696 C 57.814397,82.580296 146.92406,19.159706 227.94827,17.133726 416.98378,12.406986 428.6865,225.81977 428.6865,225.81977 c 6.21243,1.59293 98.63729,77.15338 -19.77735,39.65891 -16.93044,-5.36081 -32.00111,11.3221 -82.39397,8.45492 -11.69981,23.16096 -48.95213,60.48948 -83.49208,68.46717 C 162.65073,360.96435 42.841827,336.20127 6.2096769,316.10272 -13.920643,305.05804 43.569907,261.40607 65.247037,228.47696 Z"
     inkscape:connector-curvature="0"
     sodipodi:nodetypes="cscscssc" />
  <g
     transform="matrix(0.991716,0,0,0.991716,199.88965,512.89649)"
     style="fill:#212121;stroke:#545454"
     id="g4303" />
  <path
     style="fill:none;fill-opacity:1;stroke:#545454;stroke-width:4;stroke-miterlimit:4;stroke-dasharray:none;stroke-opacity:1"
     id="rect4674-67"
     d="M 127.59385,246.1685 C 123.04328,186.73401 166.53834,85.916856 240.62943,21.168636"
     inkscape:connector-curvature="0"
     sodipodi:nodetypes="cc" />
  <path
     style="fill:none;fill-opacity:1;stroke:#545454;stroke-width:4;stroke-miterlimit:4;stroke-dasharray:none;stroke-opacity:1"
     id="rect4674-5"
     d="M 326.51518,273.9336 C 168.84303,257.20551 122.98154,248.48599 65.247037,228.47696"
     inkscape:connector-curvature="0"
     sodipodi:nodetypes="cc" />
  <path
     style="fill:#212121;fill-opacity:0.98086123;stroke:#545454;stroke-width:4;stroke-miterlimit:4;stroke-dasharray:none;stroke-opacity:1"
     id="rect4674-6"
     d="m 259.93272,22.594036 c 3.79974,-11.58118 71.55244,-0.42441 105.32678,31.90705 55.21804,52.859064 78.36975,174.859614 61.84481,193.456854 -11.45276,12.88898 -21.57439,23.81728 -38.81422,28.53139 -22.34126,6.10906 -33.82853,4.667 -57.7438,2.00614 C 308.3819,276.02942 314.59538,201.54828 266.8497,105.51764 259.26007,90.252656 254.74976,38.391156 259.93272,22.594036 Z"
     inkscape:connector-curvature="0"
     sodipodi:nodetypes="sssssss" />
  <path
     style="fill:none;fill-opacity:1;stroke:#545454;stroke-width:10;stroke-miterlimit:4;stroke-dasharray:none;stroke-opacity:1"
     id="rect4674-67-5"
     d="m 245.27799,20.184136 c -16.18864,33.02752 -54.92821,38.49401 -61.68452,32.04878 -7.56831,-7.21981 38.17865,-57.1909599 60.55119,-31.48217 2.08865,2.40013 70.63727,20.24099 51.82058,-7.65192 -12.58672,-18.6579199 -47.69001,0.97044 -50.68725,7.08531 z"
     inkscape:connector-curvature="0"
     sodipodi:nodetypes="sssss" />
  <path
     style="fill:#212121;fill-opacity:0.98086123;stroke:#545454;stroke-width:4;stroke-miterlimit:4;stroke-dasharray:none;stroke-opacity:1"
     id="rect4674-6-3-0"
     d="m 795.79416,17.208006 c 69.48397,-3.30891 -71.99318,194.184894 -144.48638,178.039774 -18.9783,-4.22668 -0.8864,-103.016384 42.7281,-141.221594 45.5964,-39.94121 81.2483,-35.84146 101.75828,-36.81818 z"
     inkscape:connector-curvature="0"
     sodipodi:nodetypes="ssss" />
  <path
     style="fill:#212121;fill-opacity:0.98086123;stroke:#545454;stroke-width:4;stroke-miterlimit:4;stroke-dasharray:none;stroke-opacity:1"
     id="rect4674-9"
     d="M 644.76278,278.24248 C 626.25969,132.34582 704.02362,18.925226 807.46402,16.899246 996.52236,13.196356 1008.2022,275.58529 1008.2022,275.58529 c 6.2124,1.59293 98.6373,77.15338 -19.77727,39.65891 -16.9305,-5.36081 -32.0011,11.3221 -82.394,8.45492 -11.6998,23.16096 -48.9521,60.48948 -83.49208,68.46717 -80.37237,18.56358 -200.18131,-6.1995 -236.81351,-26.29805 -20.1303,-11.04468 37.3603,-54.69665 59.03744,-87.62576 z"
     inkscape:connector-curvature="0"
     sodipodi:nodetypes="cscscssc" />
  <path
     style="fill:none;fill-opacity:1;stroke:#545454;stroke-width:4;stroke-miterlimit:4;stroke-dasharray:none;stroke-opacity:1"
     id="rect4674-67-3"
     d="M 721.2732,301.30092 C 716.7226,239.83137 746.05408,69.292871 820.14518,20.934156"
     inkscape:connector-curvature="0"
     sodipodi:nodetypes="cc" />
  <path
     style="fill:none;fill-opacity:1;stroke:#545454;stroke-width:4;stroke-miterlimit:4;stroke-dasharray:none;stroke-opacity:1"
     id="rect4674-5-6"
     d="M 906.03093,323.69912 C 748.35878,306.97103 702.49728,298.25151 644.76278,278.24248"
     inkscape:connector-curvature="0"
     sodipodi:nodetypes="cc" />
  <path
     style="fill:#212121;fill-opacity:0.98086123;stroke:#545454;stroke-width:4;stroke-miterlimit:4;stroke-dasharray:none;stroke-opacity:1"
     id="rect4674-6-0"
     d="m 839.44847,22.359556 c 3.79974,-11.58118 71.55246,-0.42441 105.32676,31.90705 55.2181,52.859064 78.36977,226.859614 61.84477,245.456854 -11.45267,12.88898 -21.57437,23.81728 -38.81417,28.53139 -22.3413,6.10906 -33.8285,4.667 -57.7438,2.00614 -22.1644,-2.46605 -15.9509,-128.94719 -63.69658,-224.97783 -7.58963,-15.264984 -12.09994,-67.126484 -6.91698,-82.923604 z"
     inkscape:connector-curvature="0"
     sodipodi:nodetypes="sssssss" />
  <path
     style="fill:none;fill-opacity:1;stroke:#545454;stroke-width:10;stroke-miterlimit:4;stroke-dasharray:none;stroke-opacity:1"
     id="rect4674-67-5-6"
     d="m 824.79374,19.949656 c -16.18864,33.02752 -54.92826,38.49401 -61.68456,32.04878 -7.5683,-7.21981 38.17869,-57.1909599 60.55123,-31.48217 2.08865,2.40013 70.63722,20.24099 51.82062,-7.65192 -12.5868,-18.6579199 -47.69005,0.97044 -50.68729,7.08531 z"
     inkscape:connector-curvature="0"
     sodipodi:nodetypes="sssss" />
</svg>
