<?xml version="1.0" encoding="UTF-8" standalone="no"?>
<!-- Created with Inkscape (http://www.inkscape.org/) -->

<svg
   xmlns:svg="http://www.w3.org/2000/svg"
   xmlns="http://www.w3.org/2000/svg"
   xmlns:xlink="http://www.w3.org/1999/xlink"
   version="1.1"
   width="6174.05"
   height="3402.2"
   id="svg24449">
  <defs
     id="defs24451">
    <path
       d="M 281.423,540 355.578,540"
       id="86" />
    <marker
       refX="0"
       refY="0"
       orient="auto"
       id="noteArrow"
       style="overflow:visible">
      <path
         d="M 0,0 9,-3 C 8,-2 8,2 9,3 z"
         id="path4161"
         style="fill:#0275d8;stroke:#0275d8" />
    </marker>
    <marker
       refX="0"
       refY="0"
       orient="auto"
       id="marker25009"
       style="overflow:visible">
      <path
         d="M 0,0 9,-3 C 8,-2 8,2 9,3 z"
         id="path25011"
         style="fill:#0275d8;stroke:#0275d8" />
    </marker>
    <marker
       refX="0"
       refY="0"
       orient="auto"
       id="grainlineStart"
       style="overflow:visible">
      <path
         d="M 0,0 12,-4 C 10,-2 10,2 12,4 z"
         id="path4170"
         style="fill:#999999;stroke:#999999" />
    </marker>
    <marker
       refX="0"
       refY="0"
       orient="auto"
       id="grainlineEnd"
       style="overflow:visible">
      <path
         d="M 0,0 -12,-4 C -10,-2 -10,2 -12,4 z"
         id="path4173"
         style="fill:#999999;stroke:#999999" />
    </marker>
    <path
       d="M 318.501,804.612 318.501,300.25"
       id="92" />
    <path
       d="M 14.625,540 210.296,540"
       id="6" />
    <marker
       refX="0"
       refY="0"
       orient="auto"
       id="noteArrow-5"
       style="overflow:visible">
      <path
         d="M 0,0 9,-3 C 8,-2 8,2 9,3 z"
         id="path4161-0"
         style="fill:#0275d8;stroke:#0275d8" />
    </marker>
    <marker
       refX="0"
       refY="0"
       orient="auto"
       id="marker25517"
       style="overflow:visible">
      <path
         d="M 0,0 9,-3 C 8,-2 8,2 9,3 z"
         id="path25519"
         style="fill:#0275d8;stroke:#0275d8" />
    </marker>
    <marker
       refX="0"
       refY="0"
       orient="auto"
       id="marker25521"
       style="overflow:visible">
      <path
         d="M 0,0 9,-3 C 8,-2 8,2 9,3 z"
         id="path25523"
         style="fill:#0275d8;stroke:#0275d8" />
    </marker>
    <marker
       refX="0"
       refY="0"
       orient="auto"
       id="marker25525"
       style="overflow:visible">
      <path
         d="M 0,0 9,-3 C 8,-2 8,2 9,3 z"
         id="path25527"
         style="fill:#0275d8;stroke:#0275d8" />
    </marker>
    <marker
       refX="0"
       refY="0"
       orient="auto"
       id="marker25529"
       style="overflow:visible">
      <path
         d="M 0,0 9,-3 C 8,-2 8,2 9,3 z"
         id="path25531"
         style="fill:#0275d8;stroke:#0275d8" />
    </marker>
    <marker
       refX="0"
       refY="0"
       orient="auto"
       id="grainlineStart-0"
       style="overflow:visible">
      <path
         d="M 0,0 12,-4 C 10,-2 10,2 12,4 z"
         id="path4170-3"
         style="fill:#999999;stroke:#999999" />
    </marker>
    <marker
       refX="0"
       refY="0"
       orient="auto"
       id="grainlineEnd-5"
       style="overflow:visible">
      <path
         d="M 0,0 -12,-4 C -10,-2 -10,2 -12,4 z"
         id="path4173-6"
         style="fill:#999999;stroke:#999999" />
    </marker>
    <path
       d="M 86.777,801.35 86.777,10"
       id="18" />
  </defs>
  <g
     transform="translate(800.041,1145.73)"
     id="layer1">
    <rect
       width="6174.05"
       height="3402.2"
       x="-800.041"
       y="-1145.73"
       id="rect25855"
       style="fill:#ffffff;stroke:none" />
    <use
       transform="matrix(3.54331,0,0,3.54331,-117.053,-1029.82)"
       id="98"
       x="318.501"
       y="401.122"
       width="744.094"
       height="1052.36"
       xlink:href="#logo" />
    <use
       transform="matrix(3.54331,0,0,3.54331,-117.053,-1029.82)"
       id="99"
       x="355.578"
       y="540"
       width="744.094"
       height="1052.36"
       xlink:href="#notch" />
    <use
       transform="matrix(3.54331,0,0,3.54331,-117.053,-1029.82)"
       id="100"
       x="281.423"
       y="540"
       width="744.094"
       height="1052.36"
       xlink:href="#notch" />
    <path
       d="M -282.666,-894.281 -322.198,-872.091 -415.479,-628.373 -593.229,-549.811 -692.635,-546.249 -726.792,-511.405 C -726.792,-511.423 -737.979,180.306 -737.979,765.845 L -737.979,766.189 -731.166,1490.16 -731.104,1491.85 C -708.062,1892.73 -640.037,2075.22 -483.979,2121.82 -445.533,2133.29 -399.641,2136.67 -351.979,2133.82 L -353.979,2204.72 280.766,2166.47 316.236,2166.47 316.236,2060.19 316.236,2055.19 316.236,1589.38 C 316.236,1414.99 285.676,1243.73 285.676,1075.6 285.676,754.508 400.836,187.685 400.836,187.689 L 376.266,146.751 C 338.236,135.338 305.726,114.708 267.586,76.564 257.366,66.345 249.096,54.192 239.956,36.189 232.476,21.466 226.136,5.821 219.926,-12.873 L 219.896,-12.873 C 194.706,-88.669 181.866,-188.297 181.866,-288.155 181.866,-443.565 244.636,-705.934 254.456,-759.151 L 226.026,-800.441 -282.666,-894.281 z"
       id="42"
       style="fill:#212121;stroke:#212121" />
    <path
       d="M -92.428,1114.12 250.716,1114.12 M 280.786,1835.23 -224.211,1835.23 -224.211,1114.12 -93.123,1114.12"
       id="31"
       style="fill:none;stroke:#ffffff;stroke-width:6;stroke-miterlimit:4;stroke-dasharray:6, 12;stroke-dashoffset:0" />
    <path
       d="M -702.557,765.859 -702.557,1176.83"
       id="33" />
    <path
       d="M -702.557,765.859 C -702.557,180.674 -691.364,-510.835 -691.364,-510.835 L -585.132,-514.633 -387.674,-601.944 -289.106,-859.421 219.596,-765.581 C 209.956,-713.311 146.416,-447.743 146.416,-288.145 146.416,-128.547 179.586,38.669 242.536,101.619 283.446,142.537 323.386,167.875 366.106,180.695 366.106,180.695 250.226,750.931 250.226,1075.59 250.226,1246.85 280.786,1418.11 280.786,1589.37 L 280.786,2060.18 -353.977,2098.43 C -580.682,2112.09 -667.302,1984.26 -695.722,1489.82 -702.557,1370.91 -702.557,1273.87 -702.557,1176.83 L -702.557,765.859 z"
       id="34"
       style="fill:none;stroke:#ffffff;stroke-width:6;stroke-miterlimit:4;stroke-dasharray:6, 12;stroke-dashoffset:0" />
    <path
       d="M -333.699,190.645 -333.699,137.034 35.167,88.473 35.167,142.084 -333.699,190.645 z"
       id="36"
       style="fill:none;stroke:#8e8e8e;stroke-width:6;stroke-miterlimit:4;stroke-dasharray:none;stroke-dashoffset:0" />
    <path
       d="M -626.022,1075.59 250.226,1075.59"
       id="44" />
    <path
       d="M -117.143,483.791 -117.143,1335.22"
       id="path24992"
       style="fill:none;stroke:#8e8e8e;stroke-width:6;stroke-linecap:round;stroke-linejoin:miter;stroke-miterlimit:4;stroke-opacity:1;stroke-dasharray:none;stroke-dashoffset:0" />
    <g
       transform="matrix(-1,0,0,1,1837.91,234.871)"
       id="g25182">
      <path
         d="M 1709.48,1576.72 1709.48,1105.91 1709.48,1105.91 C 1709.48,931.52 1740.04,760.257 1740.04,592.127 L 1740.04,592.127 C 1740.04,267.783 1734.99,-302.452 1734.99,-302.459 L 1780.61,-336.702 C 1800.48,-330.742 1818.87,-328.247 1841.29,-328.247 L 1841.29,-328.247 C 1904.86,-328.247 1952.53,-348.749 2010.68,-406.895 L 2060.79,-406.895 C 2077.24,-390.44 2087.48,-355.694 2092.34,-319.343 L 2092.34,-319.343 C 2099.37,-266.867 2100.77,-190.778 2099.23,-104.675 L 2099.23,-104.679 C 2095.4,110.018 2073.66,398.677 2073.66,592.127 L 2073.66,592.127 C 2073.66,651.279 2077.36,710.265 2082.26,770.441 L 2082.28,770.615 2204.36,804.517 2230.17,835.507 C 2236.26,903.73 2245.95,1012.4 2245.95,1105.91 L 2245.95,1105.91 2245.95,1670 2210.52,1670 2071.31,1659.82 2071.31,1659.82 1709.48,1683.02 1709.48,1576.72 z"
         id="84"
         style="fill:#545454" />
      <path
         d="M 1774.98,630.661 1923.34,630.661 1813.93,1351.77 1744.91,1351.77"
         id="82"
         style="fill:none;stroke:#ffffff;stroke-width:6;stroke-miterlimit:4;stroke-dasharray:6, 12;stroke-dashoffset:0" />
      <path
         d="M 1744.91,1576.72 1744.91,1105.91 C 1744.91,934.649 1775.47,763.386 1775.47,592.127 1775.47,267.472 1770.43,-302.764 1770.43,-302.764 1792.94,-296.007 1816.49,-292.814 1841.29,-292.814 1912.16,-292.814 1972.78,-318.889 2035.73,-381.84 2098.68,-318.889 2038.22,267.472 2038.22,592.127 2038.22,660.63 2043.11,729.137 2049.02,798.153 L 2194.87,838.657 C 2200.96,906.88 2210.52,1013.96 2210.52,1105.91 L 2210.52,1563.7 2068.79,1553.6 1744.91,1576.72 z"
         id="83"
         style="fill:none;stroke:#ffffff;stroke-width:6;stroke-miterlimit:4;stroke-dasharray:6, 18;stroke-dashoffset:0" />
    </g>
    <g
       transform="matrix(0.758044,0.652203,-0.652203,0.758044,-1588.27,-68.606)"
       id="g7939">
      <path
         d="M 215.531,646.574 162.635,646.574 109.739,646.574 136.187,600.765 162.635,554.956 189.083,600.765 215.531,646.574 z"
         transform="matrix(-0.001315,-0.86825,-1.10276,0.001669,2246.14,-942.228)"
         id="path7941"
         style="fill:#ff5b77;fill-opacity:1;stroke:#ff5b77;stroke-width:12.263649;stroke-linecap:round;stroke-linejoin:round;stroke-miterlimit:4;stroke-opacity:1;stroke-dasharray:none;stroke-dashoffset:0" />
      <path
         d="M 1543.82,-1082.36 1268.05,-1082.36"
         id="path7943"
         style="fill:none;stroke:#ff5b77;stroke-width:20.000006;stroke-linecap:round;stroke-linejoin:round;stroke-miterlimit:4;stroke-opacity:1;stroke-dasharray:none;stroke-dashoffset:0" />
    </g>
    <g
       transform="matrix(0.719334,0.694664,-0.694664,0.719334,-1651.06,1694.9)"
       id="g25216">
      <path
         d="M 1538.26,-1131.19 1532.99,-1085.57 1527.72,-1039.95 1580.54,-1056.96 1633.36,-1073.97 1585.81,-1102.58 1538.26,-1131.19 z"
         id="path25218"
         style="fill:#ff5b77;fill-opacity:1;stroke:#ff5b77;stroke-width:12.000051;stroke-linecap:round;stroke-linejoin:round;stroke-miterlimit:4;stroke-opacity:1;stroke-dasharray:none;stroke-dashoffset:0" />
      <path
         d="M 1543.82,-1082.36 1331.7,-1126.97"
         id="path25220"
         style="fill:none;stroke:#ff5b77;stroke-width:20.000006;stroke-linecap:round;stroke-linejoin:round;stroke-miterlimit:4;stroke-opacity:1;stroke-dasharray:none;stroke-dashoffset:0" />
    </g>
    <g
       transform="translate(-1029.35,769.005)"
       id="g6881">
      <path
         d="M 215.531,646.574 162.635,646.574 109.739,646.574 136.187,600.765 162.635,554.956 189.083,600.765 215.531,646.574 z"
         transform="matrix(-0.001315,-0.86825,-1.10276,0.001669,2246.14,-942.228)"
         id="path6875"
         style="fill:#ff5b77;fill-opacity:1;stroke:#ff5b77;stroke-width:12.263649;stroke-linecap:round;stroke-linejoin:round;stroke-miterlimit:4;stroke-opacity:1;stroke-dasharray:none;stroke-dashoffset:0" />
      <path
         d="M 1543.82,-1082.36 1268.05,-1082.36"
         id="path6879"
         style="fill:none;stroke:#ff5b77;stroke-width:30;stroke-linecap:round;stroke-linejoin:round;stroke-miterlimit:4;stroke-opacity:1;stroke-dasharray:none;stroke-dashoffset:0" />
    </g>
    <g
       id="g25402">
      <path
         d="M 1117.34,-894.281 1077.81,-872.091 984.516,-628.373 806.766,-549.811 707.366,-546.249 673.206,-511.405 C 673.206,-511.423 662.016,180.306 662.016,765.845 L 662.016,766.189 668.836,1490.16 668.896,1491.85 C 691.936,1892.73 759.966,2075.22 916.016,2121.82 954.466,2133.29 1000.36,2136.67 1048.02,2133.82 L 1046.02,2204.72 1680.77,2166.47 1716.24,2166.47 1716.24,2060.19 1716.24,2055.19 1716.24,1589.38 C 1716.24,1414.99 1685.68,1243.73 1685.68,1075.6 1685.68,754.508 1800.84,187.685 1800.84,187.689 L 1776.27,146.751 C 1738.24,135.338 1705.73,114.708 1667.59,76.564 1657.37,66.345 1649.1,54.192 1639.96,36.189 1632.48,21.466 1626.14,5.821 1619.93,-12.873 L 1619.9,-12.873 C 1594.71,-88.669 1581.87,-188.297 1581.87,-288.155 1581.87,-443.565 1644.64,-705.934 1654.46,-759.151 L 1626.03,-800.441 1117.34,-894.281 z"
         id="path25222"
         style="fill:#212121;stroke:#212121" />
      <path
         d="M 1307.58,1114.12 1650.72,1114.12 M 1680.79,1835.23 1175.79,1835.23 1175.79,1114.12 1306.88,1114.12"
         id="path25224"
         style="fill:none;stroke:#ffffff;stroke-width:6;stroke-miterlimit:4;stroke-dasharray:6, 12;stroke-dashoffset:0" />
      <path
         d="M 697.446,765.859 697.446,1176.83"
         id="path25226" />
      <path
         d="M 697.446,765.859 C 697.446,180.674 708.636,-510.835 708.636,-510.835 L 814.866,-514.633 1012.33,-601.944 1110.9,-859.421 1619.6,-765.581 C 1609.96,-713.311 1546.42,-447.743 1546.42,-288.145 1546.42,-128.547 1579.59,38.669 1642.54,101.619 1683.45,142.537 1723.39,167.875 1766.11,180.695 1766.11,180.695 1650.23,750.931 1650.23,1075.59 1650.23,1246.85 1680.79,1418.11 1680.79,1589.37 L 1680.79,2060.18 1046.03,2098.43 C 819.316,2112.09 732.696,1984.26 704.276,1489.82 697.446,1370.91 697.446,1273.87 697.446,1176.83 L 697.446,765.859 z"
         id="path25228"
         style="fill:none;stroke:#ffffff;stroke-width:6;stroke-miterlimit:4;stroke-dasharray:6, 12;stroke-dashoffset:0" />
      <path
         d="M 1066.3,190.645 1066.3,137.034 1435.17,88.473 1435.17,142.084 1066.3,190.645 z"
         id="path25230"
         style="fill:none;stroke:#8e8e8e;stroke-width:6;stroke-miterlimit:4;stroke-dasharray:none;stroke-dashoffset:0" />
      <path
         d="M 773.976,1075.59 1650.23,1075.59"
         id="path25232" />
      <path
         d="M 1282.86,483.791 1282.86,1335.22"
         id="path25234"
         style="fill:none;stroke:#8e8e8e;stroke-width:6;stroke-linecap:round;stroke-linejoin:miter;stroke-miterlimit:4;stroke-opacity:1;stroke-dasharray:none;stroke-dashoffset:0" />
      <path
         d="M 1807.23,2049.99 1807.23,1579.18 1807.23,1579.18 C 1807.23,1404.79 1776.67,1233.52 1776.67,1065.39 L 1776.67,1065.39 C 1776.67,741.05 1781.72,170.815 1781.72,170.808 L 1736.1,136.565 C 1716.23,142.525 1697.84,145.02 1675.42,145.02 L 1675.42,145.02 C 1611.85,145.02 1564.18,124.518 1506.03,66.372 L 1455.92,66.372 C 1439.47,82.827 1429.23,117.573 1424.37,153.924 L 1424.37,153.924 C 1417.34,206.4 1415.94,282.489 1417.48,368.592 L 1417.48,368.588 C 1421.31,583.285 1443.05,871.944 1443.05,1065.39 L 1443.05,1065.39 C 1443.05,1124.55 1439.35,1183.53 1434.45,1243.71 L 1434.43,1243.88 1312.35,1277.78 1286.54,1308.77 C 1280.45,1377 1270.76,1485.67 1270.76,1579.18 L 1270.76,1579.18 1270.76,2143.27 1306.19,2143.27 1445.4,2133.09 1445.4,2133.09 1807.23,2156.29 1807.23,2049.99 z"
         id="path25238"
         style="fill:#545454" />
      <path
         d="M 1741.73,1103.93 1593.37,1103.93 1702.78,1825.04 1771.8,1825.04"
         id="path25240"
         style="fill:none;stroke:#ffffff;stroke-width:6;stroke-miterlimit:4;stroke-dasharray:6, 12;stroke-dashoffset:0" />
      <path
         d="M 1771.8,2049.99 1771.8,1579.18 C 1771.8,1407.92 1741.24,1236.65 1741.24,1065.39 1741.24,740.739 1746.28,170.503 1746.28,170.503 1723.77,177.26 1700.22,180.453 1675.42,180.453 1604.55,180.453 1543.93,154.378 1480.98,91.427 1418.03,154.378 1478.49,740.739 1478.49,1065.39 1478.49,1133.9 1473.6,1202.4 1467.69,1271.42 L 1321.84,1311.92 C 1315.75,1380.15 1306.19,1487.23 1306.19,1579.18 L 1306.19,2036.97 1447.92,2026.87 1771.8,2049.99 z"
         id="path25242"
         style="fill:none;stroke:#ffffff;stroke-width:6;stroke-miterlimit:4;stroke-dasharray:6, 18;stroke-dashoffset:0" />
      <path
         d="M 1771.8,2049.99 1771.8,1579.18 C 1771.8,1407.92 1741.24,1236.65 1741.24,1065.39 1741.24,740.739 1746.28,170.503 1746.28,170.503"
         id="path25256"
         style="fill:none;stroke:#ff5b77;stroke-width:6;stroke-linecap:round;stroke-linejoin:round;stroke-miterlimit:4;stroke-dasharray:18, 6;stroke-dashoffset:0" />
      <path
         d="M 1796.6,23.7922 C 1800.71,32.0145 1807.1,39.0804 1810.89,46.6494 1831.88,88.6302 1741.78,123.32 1748.03,166.649 L 1728.03,155.219 C 1722.04,151.057 1653.11,110.14 1668.03,95.2187 1679.33,83.9223 1688.74,78.4421 1696.61,66.6472 1704.14,55.35 1699.46,26.8607 1699.46,12.3615"
         id="path25286"
         style="fill:none;stroke:#ff5b77;stroke-width:5.000003;stroke-linecap:round;stroke-linejoin:round;stroke-miterlimit:4;stroke-opacity:1;stroke-dasharray:none;stroke-dashoffset:0" />
      <path
         d="M 1819.46,2195.21 C 1823.57,2186.99 1829.96,2179.92 1833.75,2172.35 1854.74,2130.37 1764.64,2095.68 1770.89,2052.36 L 1750.89,2063.79 C 1744.9,2067.95 1675.97,2108.86 1690.89,2123.79 1702.19,2135.08 1711.6,2140.56 1719.47,2152.36 1727,2163.65 1722.32,2192.14 1722.32,2206.64"
         id="path25310"
         style="fill:none;stroke:#ff5b77;stroke-width:5.000003;stroke-linecap:round;stroke-linejoin:round;stroke-miterlimit:4;stroke-opacity:1;stroke-dasharray:none;stroke-dashoffset:0" />
    </g>
    <path
       d="M 2465.91,-894.281 2426.38,-872.091 2333.09,-628.373 2155.34,-549.811 2055.94,-546.249 2021.78,-511.405 C 2021.78,-511.423 2010.59,180.306 2010.59,765.845 L 2010.59,766.189 2017.41,1490.16 2017.47,1491.85 C 2040.51,1892.73 2108.54,2075.22 2264.59,2121.82 2303.04,2133.29 2348.93,2136.67 2396.59,2133.82 L 2394.59,2204.72 3029.34,2166.47 3064.81,2166.47 3064.81,2060.19 3064.81,2055.19 3064.81,1589.38 C 3064.81,1414.99 3094.86,1253.83 3094.86,1085.7 3094.86,764.61 3149.41,187.685 3149.41,187.689 L 3124.84,146.751 C 3086.81,135.338 3054.3,114.708 3016.16,76.564 3005.94,66.345 2997.67,54.192 2988.53,36.189 2981.05,21.466 2974.71,5.821 2968.5,-12.873 L 2968.47,-12.873 C 2943.28,-88.669 2930.44,-188.297 2930.44,-288.155 2930.44,-443.565 2993.21,-705.934 3003.03,-759.151 L 2974.6,-800.441 2465.91,-894.281 z"
       id="path25438"
       style="fill:#212121;stroke:#212121" />
    <path
       d="M 2656.15,1114.12 2999.29,1114.12 M 3029.36,1835.23 2524.36,1835.23 2524.36,1114.12 2655.45,1114.12"
       id="path25440"
       style="fill:none;stroke:#ffffff;stroke-width:6;stroke-miterlimit:4;stroke-dasharray:6, 12;stroke-dashoffset:0" />
    <path
       d="M 2046.02,765.859 2046.02,1176.83"
       id="path25442" />
    <path
       d="M 3029.36,2060.18 2394.6,2098.43 C 2167.89,2112.09 2081.27,1984.26 2052.85,1489.82 2046.02,1370.91 2046.02,1273.87 2046.02,1176.83 L 2046.02,765.859 C 2046.02,180.674 2057.21,-510.835 2057.21,-510.835 L 2163.44,-514.633 2360.9,-601.944 2459.47,-859.421 2968.17,-765.581 C 2958.53,-713.311 2894.99,-447.743 2894.99,-288.145 2894.99,-128.547 2928.16,38.669 2991.11,101.619 3032.02,142.537 3071.96,167.875 3114.68,180.695"
       id="path25444"
       style="fill:none;stroke:#ffffff;stroke-width:6;stroke-miterlimit:4;stroke-dasharray:6, 12;stroke-dashoffset:0" />
    <path
       d="M 2414.87,190.645 2414.87,137.034 2783.74,88.473 2783.74,142.084 2414.87,190.645 z"
       id="path25446"
       style="fill:none;stroke:#8e8e8e;stroke-width:6;stroke-miterlimit:4;stroke-dasharray:none;stroke-dashoffset:0" />
    <path
       d="M 2122.55,1075.59 2998.8,1075.59"
       id="path25448" />
    <g
       transform="translate(-76.7716,-8.08122)"
       id="g25483">
      <path
         d="M 2631.43,483.791 2631.43,1335.22"
         id="path25450"
         style="fill:none;stroke:#8e8e8e;stroke-width:6;stroke-linecap:round;stroke-linejoin:miter;stroke-miterlimit:4;stroke-opacity:1;stroke-dasharray:none;stroke-dashoffset:0" />
      <g
         transform="matrix(-1,0,0,1,6280.08,16.1624)"
         id="g25492">
        <path
           d="M 3155.8,2049.99 3155.8,1579.18 3155.8,1579.18 C 3155.8,1404.79 3125.24,1233.52 3125.24,1065.39 L 3125.24,1065.39 3084.67,136.565 C 3064.8,142.525 3046.41,145.02 3023.99,145.02 L 3023.99,145.02 C 2960.42,145.02 2912.75,124.518 2854.6,66.372 L 2804.49,66.372 C 2788.04,82.827 2777.8,117.573 2772.94,153.924 L 2772.94,153.924 C 2765.91,206.4 2764.51,282.489 2766.05,368.592 L 2766.05,368.588 C 2769.88,583.285 2791.62,871.944 2791.62,1065.39 L 2791.62,1065.39 C 2791.62,1124.55 2787.92,1183.53 2783.02,1243.71 L 2783,1243.88 2660.92,1277.78 2635.11,1308.77 C 2629.02,1377 2619.33,1485.67 2619.33,1579.18 L 2619.33,1579.18 2619.33,2143.27 2654.76,2143.27 2793.97,2133.09 2793.97,2133.09 3155.8,2156.29 3155.8,2049.99 z"
           id="path25452"
           style="fill:#212121" />
        <path
           d="M 3197.38,1103.93 3049.02,1103.93 3051.35,1825.04 3193.1,1825.04"
           id="path25454"
           style="fill:none;stroke:#ffffff;stroke-width:6;stroke-miterlimit:4;stroke-dasharray:6, 12;stroke-dashoffset:0" />
        <path
           d="M 3094.85,170.503 C 3072.34,177.26 3048.79,180.453 3023.99,180.453 2953.12,180.453 2892.5,154.378 2829.55,91.427 2766.6,154.378 2827.06,740.739 2827.06,1065.39 2827.06,1133.9 2822.17,1202.4 2816.26,1271.42 L 2670.41,1311.92 C 2664.32,1380.15 2654.76,1487.23 2654.76,1579.18 L 2654.76,2036.97 2796.49,2026.87 3180.98,2054.03"
           id="path25456"
           style="fill:none;stroke:#ffffff;stroke-width:6;stroke-miterlimit:4;stroke-dasharray:6, 18;stroke-dashoffset:0" />
      </g>
    </g>
    <g
       transform="translate(353.507,769.005)"
       id="g25464">
      <path
         d="M 215.531,646.574 162.635,646.574 109.739,646.574 136.187,600.765 162.635,554.956 189.083,600.765 215.531,646.574 z"
         transform="matrix(-0.001315,-0.86825,-1.10276,0.001669,2246.14,-942.228)"
         id="path25466"
         style="fill:#ff5b77;fill-opacity:1;stroke:#ff5b77;stroke-width:12.263649;stroke-linecap:round;stroke-linejoin:round;stroke-miterlimit:4;stroke-opacity:1;stroke-dasharray:none;stroke-dashoffset:0" />
      <path
         d="M 1543.82,-1082.36 1268.05,-1082.36"
         id="path25468"
         style="fill:none;stroke:#ff5b77;stroke-width:30;stroke-linecap:round;stroke-linejoin:round;stroke-miterlimit:4;stroke-opacity:1;stroke-dasharray:none;stroke-dashoffset:0" />
    </g>
    <path
       d="M 3114.68,180.695 C 3114.68,180.695 3014.96,750.931 3014.96,1075.59 3014.96,1246.85 3029.36,1418.11 3029.36,1589.37 L 3029.36,2060.18"
       id="path25500"
       style="fill:none;stroke:#8e8e8e;stroke-width:6;stroke-miterlimit:4;stroke-dasharray:none;stroke-dashoffset:0" />
    <g
       transform="translate(-2121.32,-294.964)"
       id="g25770">
      <path
         d="M 4340.85,-752.93 C 4340.85,-752.93 4451.42,-753.189 4532.42,-770.972 L 4532.42,-770.976 C 4552.32,-775.345 4567.79,-779.983 4580.63,-786.06 L 4580.63,-786.056 C 4595.13,-792.927 4594.23,-792.126 4594.37,-793.182 L 4634.3,-823.467 5150.64,-752.6 5180.92,-712.678 C 5176.04,-677.1 5136.96,-395.853 5136.96,-238.707 L 5136.96,-238.707 C 5136.96,-138.357 5147.11,-38.3364 5170.28,37.3841 L 5170.28,37.3841 C 5175.98,56.0113 5181.9,71.5771 5189,86.1968 L 5189,86.1968 C 5197.69,104.094 5205.53,115.929 5215.61,126.002 L 5215.61,176.112 C 5208.48,183.244 5199.38,207.654 5187.94,253.87 L 5187.94,253.87 C 5140.88,443.979 5102.58,866.891 5102.58,1125.02 L 5102.58,1125.02 C 5102.58,1184.18 5106.28,1243.16 5111.16,1302.99 L 5111.08,1302.15 5227.63,1330.51 5254.37,1360.2 C 5266.17,1447.81 5274.87,1545.3 5274.87,1638.8 L 5274.87,1638.8 5274.87,2086.5 5274.87,2192.8 4326.43,2192.8 4326.43,2086.5 4326.43,1638.8 4326.43,1638.8 C 4326.43,1466.29 4338.39,1295.03 4338.39,1125.02 L 4338.39,1125.02 C 4338.39,725.931 4286.57,324.555 4286.57,-79.1093 L 4286.57,-79.1093 C 4286.57,-399.361 4305.76,-719.555 4305.76,-719.584 L 4340.85,-752.93 z"
         id="4"
         style="fill:#545454" />
      <path
         d="M 4341.13,-717.497 C 4341.13,-717.497 4619.84,-718.156 4629.48,-788.363 L 5145.82,-717.497 C 5141,-682.393 5101.53,-398.305 5101.53,-238.707 5101.53,-79.1093 5127.6,88.1066 5190.55,151.057 5127.6,214.008 5067.14,800.369 5067.14,1125.02 5067.14,1193.53 5072.03,1262.03 5077.9,1330.54 L 5219.25,1364.93 C 5230.95,1451.76 5239.44,1546.86 5239.44,1638.8 L 5239.44,2086.5 4361.86,2086.5 4361.86,1638.8 C 4361.86,1467.55 4373.82,1296.28 4373.82,1125.02 4373.82,723.645 4322,322.27 4322,-79.1093 4322,-398.305 4341.13,-717.497 4341.13,-717.497 z"
         id="3"
         style="fill:none;stroke:#ffffff;stroke-width:6;stroke-miterlimit:4;stroke-dasharray:6, 12;stroke-dashoffset:0" />
    </g>
    <path
       d="M 4629.48,2051.07 4629.48,-752.93"
       id="path25567" />
    <use
       transform="matrix(3.54331,0,0,3.54331,4322,-788.363)"
       id="24"
       x="220"
       y="155.125"
       width="744.094"
       height="1052.36"
       xlink:href="#notch" />
    <use
       transform="matrix(3.54331,0,0,3.54331,4322,-788.363)"
       id="25"
       x="0"
       y="200.167"
       width="744.094"
       height="1052.36"
       xlink:href="#notch" />
    <use
       transform="matrix(3.54331,0,0,3.54331,4322,-788.363)"
       id="26"
       x="14.625"
       y="540"
       width="744.094"
       height="1052.36"
       xlink:href="#notch" />
    <use
       transform="matrix(3.54331,0,0,3.54331,4322,-788.363)"
       id="27"
       x="210.296"
       y="540"
       width="744.094"
       height="1052.36"
       xlink:href="#notch" />
    <use
       transform="matrix(3.54331,0,0,3.54331,4322,-788.363)"
       id="28"
       x="220.006"
       y="153.213"
       width="744.094"
       height="1052.36"
       xlink:href="#notch" />
    <use
       transform="matrix(3.54331,0,0,3.54331,4322,-788.363)"
       id="29"
       x="228.61"
       y="49.787"
       width="744.094"
       height="1052.36"
       xlink:href="#notch" />
    <use
       transform="matrix(3.54331,0,0,3.54331,4322,-788.363)"
       id="30"
       x="147.075"
       y="365.125"
       width="744.094"
       height="1052.36"
       xlink:href="#logo" />
    <g
       transform="matrix(0.758044,0.652203,-0.652203,0.758044,1417.94,-153.459)"
       id="g25791">
      <path
         d="M 215.531,646.574 162.635,646.574 109.739,646.574 136.187,600.765 162.635,554.956 189.083,600.765 215.531,646.574 z"
         transform="matrix(-0.001315,-0.86825,-1.10276,0.001669,2246.14,-942.228)"
         id="path25793"
         style="fill:#ff5b77;fill-opacity:1;stroke:#ff5b77;stroke-width:12.263649;stroke-linecap:round;stroke-linejoin:round;stroke-miterlimit:4;stroke-opacity:1;stroke-dasharray:none;stroke-dashoffset:0" />
      <path
         d="M 1543.82,-1082.36 1268.05,-1082.36"
         id="path25795"
         style="fill:none;stroke:#ff5b77;stroke-width:20.000006;stroke-linecap:round;stroke-linejoin:round;stroke-miterlimit:4;stroke-opacity:1;stroke-dasharray:none;stroke-dashoffset:0" />
    </g>
    <g
       transform="matrix(0.758044,0.652203,-0.652203,0.758044,1430.06,1026.4)"
       id="g25797">
      <path
         d="M 1522.65,-1119.43 1534.83,-1075.15 1547,-1030.86 1589.62,-1066.4 1632.25,-1101.93 1577.45,-1110.68 1522.65,-1119.43 z"
         id="path25799"
         style="fill:#ff5b77;fill-opacity:1;stroke:#ff5b77;stroke-width:12.000051;stroke-linecap:round;stroke-linejoin:round;stroke-miterlimit:4;stroke-opacity:1;stroke-dasharray:none;stroke-dashoffset:0" />
      <path
         d="M 1543.82,-1082.36 1169.61,-992.332"
         id="path25801"
         style="fill:none;stroke:#ff5b77;stroke-width:20.000006;stroke-linecap:round;stroke-linejoin:round;stroke-miterlimit:4;stroke-opacity:1;stroke-dasharray:none;stroke-dashoffset:0" />
    </g>
    <path
       d="M 4060.2,-894.281 4020.67,-872.091 3927.38,-628.373 3749.63,-549.811 3650.23,-546.249 3616.07,-511.405 C 3616.07,-511.423 3604.88,180.306 3604.88,765.845 L 3604.88,766.189 3611.7,1490.16 3611.76,1491.85 C 3634.8,1892.73 3702.83,2075.22 3858.88,2121.82 3897.33,2133.29 3943.22,2136.67 3990.88,2133.82 L 3988.88,2204.72 4623.63,2166.47 4659.1,2166.47 4659.1,2060.19 4659.1,2055.19 4659.1,1589.38 C 4659.1,1414.99 4689.15,1253.83 4689.15,1085.7 4689.15,764.61 4743.7,187.685 4743.7,187.689 L 4719.13,146.751 C 4681.1,135.338 4648.59,114.708 4610.45,76.564 4600.23,66.345 4591.96,54.192 4582.82,36.189 4575.34,21.466 4569,5.821 4562.79,-12.873 L 4562.76,-12.873 C 4537.57,-88.669 4524.73,-188.297 4524.73,-288.155 4524.73,-443.565 4587.5,-705.934 4597.32,-759.151 L 4568.89,-800.441 4060.2,-894.281 z"
       id="path25803"
       style="fill:#212121;stroke:#212121" />
    <path
       d="M 4250.44,1114.12 4593.58,1114.12 M 4623.65,1835.23 4118.65,1835.23 4118.65,1114.12 4249.74,1114.12"
       id="path25805"
       style="fill:none;stroke:#ffffff;stroke-width:6;stroke-miterlimit:4;stroke-dasharray:6, 12;stroke-dashoffset:0" />
    <path
       d="M 3640.31,765.859 3640.31,1176.83"
       id="path25807" />
    <path
       d="M 4623.65,2060.18 3988.89,2098.43 C 3762.18,2112.09 3675.56,1984.26 3647.14,1489.82 3640.31,1370.91 3640.31,1273.87 3640.31,1176.83 L 3640.31,765.859 C 3640.31,180.674 3651.5,-510.835 3651.5,-510.835 L 3757.73,-514.633 3955.19,-601.944 4053.76,-859.421 4562.46,-765.581 C 4552.82,-713.311 4489.28,-447.743 4489.28,-288.145 4489.28,-128.547 4522.45,38.669 4585.4,101.619 4626.31,142.537 4666.25,167.875 4708.97,180.695"
       id="path25809"
       style="fill:none;stroke:#ffffff;stroke-width:6;stroke-miterlimit:4;stroke-dasharray:6, 12;stroke-dashoffset:0" />
    <path
       d="M 4009.16,190.645 4009.16,137.034 4378.03,88.473 4378.03,142.084 4009.16,190.645 z"
       id="path25811"
       style="fill:none;stroke:#8e8e8e;stroke-width:6;stroke-miterlimit:4;stroke-dasharray:none;stroke-dashoffset:0" />
    <path
       d="M 3716.84,1075.59 4593.09,1075.59"
       id="path25813" />
    <g
       transform="translate(1517.51,-8.08122)"
       id="g25815">
      <path
         d="M 2631.43,483.791 2631.43,1335.22"
         id="path25817"
         style="fill:none;stroke:#8e8e8e;stroke-width:6;stroke-linecap:round;stroke-linejoin:miter;stroke-miterlimit:4;stroke-opacity:1;stroke-dasharray:none;stroke-dashoffset:0" />
      <g
         transform="matrix(-1,0,0,1,6280.08,16.1624)"
         id="g25819">
        <path
           d="M 3155.8,2049.99 3155.8,1579.18 3155.8,1579.18 C 3155.8,1404.79 3125.24,1233.52 3125.24,1065.39 L 3125.24,1065.39 3084.67,136.565 C 3064.8,142.525 3046.41,145.02 3023.99,145.02 L 3023.99,145.02 C 2960.42,145.02 2912.75,124.518 2854.6,66.372 L 2804.49,66.372 C 2788.04,82.827 2777.8,117.573 2772.94,153.924 L 2772.94,153.924 C 2765.91,206.4 2764.51,282.489 2766.05,368.592 L 2766.05,368.588 C 2769.88,583.285 2791.62,871.944 2791.62,1065.39 L 2791.62,1065.39 C 2791.62,1124.55 2787.92,1183.53 2783.02,1243.71 L 2783,1243.88 2660.92,1277.78 2635.11,1308.77 C 2629.02,1377 2619.33,1485.67 2619.33,1579.18 L 2619.33,1579.18 2619.33,2143.27 2654.76,2143.27 2793.97,2133.09 2793.97,2133.09 3155.8,2156.29 3155.8,2049.99 z"
           id="path25821"
           style="fill:#212121" />
        <path
           d="M 3197.38,1103.93 3049.02,1103.93 3051.35,1825.04 3193.1,1825.04"
           id="path25823"
           style="fill:none;stroke:#ffffff;stroke-width:6;stroke-miterlimit:4;stroke-dasharray:6, 12;stroke-dashoffset:0" />
        <path
           d="M 3094.85,170.503 C 3072.34,177.26 3048.79,180.453 3023.99,180.453 2953.12,180.453 2892.5,154.378 2829.55,91.427 2766.6,154.378 2827.06,740.739 2827.06,1065.39 2827.06,1133.9 2822.17,1202.4 2816.26,1271.42 L 2670.41,1311.92 C 2664.32,1380.15 2654.76,1487.23 2654.76,1579.18 L 2654.76,2036.97 2796.49,2026.87 3180.98,2054.03"
           id="path25825"
           style="fill:none;stroke:#ffffff;stroke-width:6;stroke-miterlimit:4;stroke-dasharray:6, 18;stroke-dashoffset:0" />
      </g>
    </g>
    <path
       d="M 4708.97,180.695 C 4708.97,180.695 4609.25,750.931 4609.25,1075.59 4609.25,1246.85 4623.65,1418.11 4623.65,1589.37 L 4623.65,2060.18"
       id="path25827"
       style="fill:none;stroke:#8e8e8e;stroke-width:6;stroke-miterlimit:4;stroke-dasharray:none;stroke-dashoffset:0" />
    <path
       d="M 4242.39,-807.894 C 4242.39,-807.894 4352.96,-808.153 4433.96,-825.936 L 4433.96,-825.94 C 4453.86,-830.309 4469.33,-834.947 4482.17,-841.024 L 4482.17,-841.02 C 4496.67,-847.891 4495.77,-847.09 4495.91,-848.146 L 4535.84,-878.431 5052.18,-807.564 5082.46,-767.642 C 5077.58,-732.064 5038.5,-450.817 5038.5,-293.671 L 5038.5,-293.671 C 5038.5,-193.321 5048.65,-93.3004 5071.82,-17.5799 L 5071.82,-17.5799 C 5077.52,1.0473 5083.44,16.6131 5090.54,31.2328 L 5090.54,31.2328 C 5099.23,49.13 5107.07,60.965 5117.15,71.038 L 5117.15,121.148 C 5110.02,128.28 5100.92,152.69 5089.48,198.906 L 5089.48,198.906 C 5042.42,389.015 5004.12,811.927 5004.12,1070.06 L 5004.12,1070.06 C 5004.12,1129.22 5007.82,1188.2 5012.7,1248.03 L 5012.62,1247.19 5129.17,1275.55 5155.91,1305.24 C 5167.71,1392.85 5176.41,1490.34 5176.41,1583.84 L 5176.41,1583.84 5176.41,2031.54 5176.41,2137.84 4227.97,2137.84 4227.97,2031.54 4227.97,1583.84 4227.97,1583.84 C 4227.97,1411.33 4239.93,1240.07 4239.93,1070.06 L 4239.93,1070.06 C 4239.93,670.967 4188.11,269.591 4188.11,-134.073 L 4188.11,-134.073 C 4188.11,-454.325 4207.3,-774.519 4207.3,-774.548 L 4242.39,-807.894 z"
       id="path25831"
       style="fill:#545454" />
    <path
       d="M 5120.79,1309.97 C 5132.49,1396.8 5140.98,1491.9 5140.98,1583.84 L 5140.98,2031.54 4263.4,2031.54 4263.4,1583.84 C 4263.4,1412.59 4275.36,1241.32 4275.36,1070.06 4275.36,668.681 4223.54,267.306 4223.54,-134.073 4223.54,-453.269 4242.67,-772.461 4242.67,-772.461 4242.67,-772.461 4521.38,-773.12 4531.02,-843.327 L 5047.36,-772.461 C 5042.54,-737.357 5003.07,-453.269 5003.07,-293.671 5003.07,-134.073 5029.14,33.1426 5092.09,96.093"
       id="path25833"
       style="fill:none;stroke:#ffffff;stroke-width:6;stroke-miterlimit:4;stroke-dasharray:6, 12;stroke-dashoffset:0" />
    <path
       d="M 5092.09,96.093 C 4976,470.215 4947.27,883.527 4979.44,1275.58 L 5120.79,1309.97"
       id="path25849"
       style="fill:none;stroke:#ff5b77;stroke-width:6;stroke-linecap:round;stroke-linejoin:round;stroke-miterlimit:4;stroke-dasharray:18, 6;stroke-dashoffset:0" />
    <path
       d="M 5168.95,25.037 C 5172.3,31.7266 5168.33,36.3795 5165.92,41.1995 5152.73,67.5832 5118.48,73.4521 5096.22,90.697 L 5096.22,84.636 C 5097.3,78.3319 5093.48,73.3138 5092.18,67.4635 5090.86,61.5449 5085.01,49.4822 5088.14,43.2198 5090.76,37.9698 5098.25,34.1213 5102.28,29.0777 5106.36,23.9734 5117.43,-3.412 5117.43,-9.30814"
       id="path25851"
       style="fill:none;stroke:#ff5b77;stroke-width:6;stroke-linecap:round;stroke-linejoin:round;stroke-miterlimit:4;stroke-opacity:1;stroke-dasharray:none;stroke-dashoffset:0" />
    <path
       d="M 5263.9,1238.23 C 5253.95,1244.87 5242.49,1253.32 5230.57,1258.43 5216.81,1264.33 5200.3,1261.85 5186.12,1267.52 5168.73,1274.48 5160.14,1291.38 5146.73,1302.88 5140.66,1308.08 5132.76,1312.6 5124.5,1311.97 L 5129.55,1312.98 C 5136.42,1319.26 5144.35,1328.06 5153.8,1330.15 5159.85,1331.5 5165.95,1334.11 5171.98,1335.2 5180.57,1336.77 5193.15,1332.15 5201.28,1336.22 5217.28,1344.22 5232.63,1355.9 5247.74,1365.51 5271.43,1380.58 5287.78,1401.93 5315.42,1411.98 5319.52,1413.47 5322.29,1416.02 5326.53,1416.02"
       id="path25853"
       style="fill:none;stroke:#ff5b77;stroke-width:6;stroke-linecap:round;stroke-linejoin:round;stroke-miterlimit:4;stroke-opacity:1;stroke-dasharray:none;stroke-dashoffset:0" />
  </g>
</svg>
