<?xml version="1.0" encoding="UTF-8" standalone="no"?>
<!-- Created with Inkscape (http://www.inkscape.org/) -->

<svg
   xmlns:dc="http://purl.org/dc/elements/1.1/"
   xmlns:cc="http://creativecommons.org/ns#"
   xmlns:rdf="http://www.w3.org/1999/02/22-rdf-syntax-ns#"
   xmlns:svg="http://www.w3.org/2000/svg"
   xmlns="http://www.w3.org/2000/svg"
   xmlns:sodipodi="http://sodipodi.sourceforge.net/DTD/sodipodi-0.dtd"
   xmlns:inkscape="http://www.inkscape.org/namespaces/inkscape"
   width="1000.0001"
   height="570"
   viewBox="0 0 264.58335 150.8125"
   version="1.1"
   id="svg562"
   inkscape:version="0.92.3 (2405546, 2018-03-11)"
   sodipodi:docname="shoulderease.svg">
  <defs
     id="defs556">
    <marker
       style="overflow:visible"
       id="Arrow1MstartQR"
       refX="0"
       refY="0"
       orient="auto">
      <path
         inkscape:connector-curvature="0"
         transform="matrix(0.4,0,0,0.4,4,0)"
         style="fill:#ff5b77;fill-rule:evenodd;stroke:#ff5b77;stroke-width:1.00000003pt;marker-start:none"
         d="M 0,0 5,-5 -12.5,0 5,5 Z"
         id="path5084" />
    </marker>
    <marker
       orient="auto"
       refY="0"
       refX="0"
       id="Arrow1Mend3"
       style="overflow:visible">
      <path
         inkscape:connector-curvature="0"
         id="path5087"
         d="M 0,0 5,-5 -12.5,0 5,5 Z"
         style="fill:#ff5b77;fill-rule:evenodd;stroke:#ff5b77;stroke-width:1.00000003pt;marker-start:none"
         transform="matrix(-0.4,0,0,-0.4,-4,0)" />
    </marker>
    <marker
       style="overflow:visible"
       id="marker53"
       refX="0"
       refY="0"
       orient="auto">
      <path
         inkscape:connector-curvature="0"
         transform="matrix(0.4,0,0,0.4,4,0)"
         style="fill:#ff5b77;fill-rule:evenodd;stroke:#ff5b77;stroke-width:1.00000003pt;marker-start:none"
         d="M 0,0 5,-5 -12.5,0 5,5 Z"
         id="path51" />
    </marker>
    <marker
       orient="auto"
       refY="0"
       refX="0"
       id="marker57"
       style="overflow:visible">
      <path
         inkscape:connector-curvature="0"
         id="path55"
         d="M 0,0 5,-5 -12.5,0 5,5 Z"
         style="fill:#ff5b77;fill-rule:evenodd;stroke:#ff5b77;stroke-width:1.00000003pt;marker-start:none"
         transform="matrix(-0.4,0,0,-0.4,-4,0)" />
    </marker>
  </defs>
  <sodipodi:namedview
     id="base"
     pagecolor="#ffffff"
     bordercolor="#666666"
     borderopacity="1.0"
     inkscape:pageopacity="0.0"
     inkscape:pageshadow="2"
     inkscape:zoom="1.8101934"
     inkscape:cx="643.91418"
     inkscape:cy="272.86552"
     inkscape:document-units="mm"
     inkscape:current-layer="layer1"
     showgrid="false"
     units="px"
     inkscape:window-width="1920"
     inkscape:window-height="1043"
     inkscape:window-x="0"
     inkscape:window-y="0"
     inkscape:window-maximized="1"
     inkscape:snap-global="false"
     showguides="false"
     fit-margin-top="0"
     fit-margin-left="0"
     fit-margin-right="0"
     fit-margin-bottom="0" />
  <metadata
     id="metadata559">
    <rdf:RDF>
      <cc:Work
         rdf:about="">
        <dc:format>image/svg+xml</dc:format>
        <dc:type
           rdf:resource="http://purl.org/dc/dcmitype/StillImage" />
        <dc:title></dc:title>
      </cc:Work>
    </rdf:RDF>
  </metadata>
  <g
     inkscape:label="Layer 1"
     inkscape:groupmode="layer"
     id="layer1"
     transform="translate(0,-47.625)">
    <path
       id="primary1"
       style="fill:#404040;stroke:#000000;stroke-width:2;stroke-linecap:round;stroke-linejoin:round;stroke-miterlimit:4;stroke-dasharray:none"
       d="m 119.37252,55.951662 -24.994328,3.963973 c 0.17234,1.737551 -0.16973,12.234269 -0.16973,19.328273 -0.91715,7.656869 -0.0723,20.962022 0.86685,27.995622 2.05961,15.42627 0.22904,24.20665 0.22182,38.27184 0,15.45988 -3.1562,37.38627 -3.50111,41.21984 h 79.254468 c -0.34467,-3.83357 -2.45756,-24.63877 -2.45756,-40.09865 0,-21.75303 -1.09245,-35.74092 -1.09245,-41.17962 0.1979,-11.892533 0.37773,-17.332055 1.13757,-26.209032 0,-7.094004 -0.3494,-17.590722 -0.17706,-19.328273 L 143.474,55.951662 c -2.22784,2.394111 -6.97055,2.235656 -12.04709,2.235656 -5.83693,0.03682 -9.85796,0.124716 -12.05439,-2.235656 z"
       inkscape:connector-curvature="0"
       sodipodi:nodetypes="cccccccscccccc" />
    <path
       id="primary2"
       style="fill:#404040;stroke:#000000;stroke-width:2;stroke-linecap:round;stroke-linejoin:round;stroke-miterlimit:4;stroke-dasharray:none"
       d="m 95.385202,59.796959 c 4.03867,5.842073 7.195088,34.945535 2.25921,43.712951 -3.30051,29.05614 -11.77708,63.63539 -14.76716,87.13685 -7.17153,0.38249 -9.81079,0.34584 -14.45034,-1.16564 0.30732,-37.42232 8.07412,-74.04536 16.67956,-108.548428 2.64002,-10.08986 6.9666,-21.135733 10.27873,-21.135733 z m 73.645178,0 c -4.03868,5.842073 -7.19511,34.945535 -2.25922,43.712951 3.30051,29.05614 11.77708,63.63539 14.76716,87.13685 7.17153,0.38249 9.81079,0.34584 14.45035,-1.16564 -0.30733,-37.42232 -8.07412,-74.04536 -16.67957,-108.548428 -2.64001,-10.08986 -6.9666,-21.135733 -10.27872,-21.135733 z"
       inkscape:connector-curvature="0"
       sodipodi:nodetypes="cccccccccccc" />
    <g
       transform="matrix(0.7622649,0,0,0.7622649,72.275254,-32.038452)"
       id="g894">
      <path
         style="fill:none;stroke:#729fcf;stroke-width:2;stroke-linecap:butt;stroke-linejoin:miter;stroke-miterlimit:4;stroke-dasharray:none;stroke-opacity:1"
         d="m 36.387488,123.8869 c 28.251294,-3.72987 56.502588,-4.4385 84.753882,0"
         id="path888"
         inkscape:connector-curvature="0"
         sodipodi:nodetypes="cc" />
      <path
         style="color:#000000;font-style:normal;font-variant:normal;font-weight:normal;font-stretch:normal;font-size:medium;line-height:normal;font-family:sans-serif;font-variant-ligatures:normal;font-variant-position:normal;font-variant-caps:normal;font-variant-numeric:normal;font-variant-alternates:normal;font-feature-settings:normal;text-indent:0;text-align:start;text-decoration:none;text-decoration-line:none;text-decoration-style:solid;text-decoration-color:#000000;letter-spacing:normal;word-spacing:normal;text-transform:none;writing-mode:lr-tb;direction:ltr;text-orientation:mixed;dominant-baseline:auto;baseline-shift:baseline;text-anchor:start;white-space:normal;shape-padding:0;clip-rule:nonzero;display:inline;overflow:visible;visibility:visible;opacity:0.98999999;isolation:auto;mix-blend-mode:normal;color-interpolation:sRGB;color-interpolation-filters:linearRGB;solid-color:#000000;solid-opacity:1;vector-effect:none;fill:#729fcf;fill-opacity:1;fill-rule:nonzero;stroke:none;stroke-width:0.5;stroke-linecap:round;stroke-linejoin:round;stroke-miterlimit:4;stroke-dasharray:none;stroke-dashoffset:0;stroke-opacity:1;color-rendering:auto;image-rendering:auto;shape-rendering:auto;text-rendering:auto;enable-background:accumulate"
         d="m 38.116243,120.43164 c -0.0309,8.9e-4 -0.06136,0.007 -0.08984,0.0195 l -3.751954,1.57813 -3.75,1.58008 c -0.204106,0.0859 -0.204106,0.37507 0,0.46093 l 3.75,1.57813 3.751954,1.57812 c 0.164994,0.07 0.347867,-0.0512 0.347656,-0.23047 v -3.15625 -3.1582 c 5.4e-5,-0.14117 -0.116707,-0.2544 -0.257813,-0.25 z"
         id="path890"
         inkscape:connector-curvature="0"
         sodipodi:nodetypes="cccccccccccc" />
      <path
         sodipodi:nodetypes="cccccccccccc"
         inkscape:connector-curvature="0"
         id="path892"
         d="m 117.39789,120.43164 c 0.0309,8.9e-4 0.0614,0.007 0.0898,0.0195 l 3.75195,1.57813 3.75,1.58008 c 0.20411,0.0859 0.20411,0.37507 0,0.46093 l -3.75,1.57813 -3.75195,1.57812 c -0.16499,0.07 -0.34787,-0.0512 -0.34766,-0.23047 v -3.15625 -3.1582 c -5e-5,-0.14117 0.11671,-0.2544 0.25782,-0.25 z"
         style="color:#000000;font-style:normal;font-variant:normal;font-weight:normal;font-stretch:normal;font-size:medium;line-height:normal;font-family:sans-serif;font-variant-ligatures:normal;font-variant-position:normal;font-variant-caps:normal;font-variant-numeric:normal;font-variant-alternates:normal;font-feature-settings:normal;text-indent:0;text-align:start;text-decoration:none;text-decoration-line:none;text-decoration-style:solid;text-decoration-color:#000000;letter-spacing:normal;word-spacing:normal;text-transform:none;writing-mode:lr-tb;direction:ltr;text-orientation:mixed;dominant-baseline:auto;baseline-shift:baseline;text-anchor:start;white-space:normal;shape-padding:0;clip-rule:nonzero;display:inline;overflow:visible;visibility:visible;opacity:0.98999999;isolation:auto;mix-blend-mode:normal;color-interpolation:sRGB;color-interpolation-filters:linearRGB;solid-color:#000000;solid-opacity:1;vector-effect:none;fill:#729fcf;fill-opacity:1;fill-rule:nonzero;stroke:none;stroke-width:0.5;stroke-linecap:round;stroke-linejoin:round;stroke-miterlimit:4;stroke-dasharray:none;stroke-dashoffset:0;stroke-opacity:1;color-rendering:auto;image-rendering:auto;shape-rendering:auto;text-rendering:auto;enable-background:accumulate" />
    </g>
  </g>
</svg>
