<?xml version="1.0" encoding="UTF-8" standalone="no"?>
<!-- Created with Inkscape (http://www.inkscape.org/) -->

<svg
   xmlns:dc="http://purl.org/dc/elements/1.1/"
   xmlns:cc="http://creativecommons.org/ns#"
   xmlns:rdf="http://www.w3.org/1999/02/22-rdf-syntax-ns#"
   xmlns:svg="http://www.w3.org/2000/svg"
   xmlns="http://www.w3.org/2000/svg"
   xmlns:xlink="http://www.w3.org/1999/xlink"
   xmlns:sodipodi="http://sodipodi.sourceforge.net/DTD/sodipodi-0.dtd"
   xmlns:inkscape="http://www.inkscape.org/namespaces/inkscape"
   width="317.5mm"
   height="166.6875mm"
   viewBox="0 0 317.5 166.6875"
   version="1.1"
   id="svg8"
   inkscape:version="0.92.5 (2060ec1f9f, 2020-04-08)"
   sodipodi:docname="template.svg">
  <defs
     id="defs2">
    <linearGradient
       inkscape:collect="always"
       id="linearGradient1260">
      <stop
         style="stop-color:#262626;stop-opacity:1;"
         offset="0"
         id="stop1256" />
      <stop
         style="stop-color:#262626;stop-opacity:0;"
         offset="1"
         id="stop1258" />
    </linearGradient>
    <clipPath
       clipPathUnits="userSpaceOnUse"
       id="clipPath1818">
      <path
         sodipodi:nodetypes="ccssssc"
         inkscape:connector-curvature="0"
         id="path1820"
         d="m 220.2385,149.84104 44.71783,166.6875 h 49.89782 c 1.46579,0 2.64583,-1.18004 2.64583,-2.64583 V 152.48688 c 0,-1.4658 -1.18004,-2.64584 -2.64583,-2.64584 z"
         style="opacity:1;fill:#171717;fill-opacity:1;stroke:none;stroke-width:2.64583325;stroke-linecap:round;stroke-linejoin:round;stroke-miterlimit:4;stroke-dasharray:none;stroke-opacity:1" />
    </clipPath>
    <linearGradient
       inkscape:collect="always"
       xlink:href="#linearGradient1260"
       id="linearGradient1262"
       x1="216.76932"
       y1="227.89313"
       x2="202.78419"
       y2="227.89313"
       gradientUnits="userSpaceOnUse"
       gradientTransform="translate(-46.023848,69.558766)" />
  </defs>
  <sodipodi:namedview
     id="base"
     pagecolor="#ffffff"
     bordercolor="#666666"
     borderopacity="1.0"
     inkscape:pageopacity="0.0"
     inkscape:pageshadow="2"
     inkscape:zoom="1.4"
     inkscape:cx="379.73546"
     inkscape:cy="132.9819"
     inkscape:document-units="mm"
     inkscape:current-layer="layer1"
     showgrid="false"
     inkscape:window-width="3840"
     inkscape:window-height="2132"
     inkscape:window-x="1080"
     inkscape:window-y="0"
     inkscape:window-maximized="1"
     showborder="false"
     fit-margin-top="0"
     fit-margin-left="0"
     fit-margin-right="0"
     fit-margin-bottom="0"
     inkscape:snap-nodes="false"
     inkscape:snap-others="false"
     inkscape:snap-to-guides="false"
     inkscape:snap-grids="false"
     inkscape:pagecheckerboard="true" />
  <metadata
     id="metadata5">
    <rdf:RDF>
      <cc:Work
         rdf:about="">
        <dc:format>image/svg+xml</dc:format>
        <dc:type
           rdf:resource="http://purl.org/dc/dcmitype/StillImage" />
        <dc:title></dc:title>
      </cc:Work>
    </rdf:RDF>
  </metadata>
  <g
     inkscape:label="Layer 1"
     inkscape:groupmode="layer"
     id="layer1"
     transform="translate(1.6233087e-5,-149.84105)">
    <rect
       inkscape:export-ydpi="96"
       inkscape:export-xdpi="96"
       ry="3.0478082"
       rx="2.9072666"
       y="138.87975"
       x="-15.49704"
       height="192.0119"
       width="348.87201"
       id="rect1111"
       style="opacity:1;fill:#262626;fill-opacity:1;stroke:none;stroke-width:2.97670817;stroke-linecap:round;stroke-linejoin:round;stroke-miterlimit:4;stroke-dasharray:none;stroke-opacity:1" />
    <rect
       style="opacity:1;fill:#262626;fill-opacity:1;stroke:none;stroke-width:2.64583325;stroke-linecap:round;stroke-linejoin:round;stroke-miterlimit:4;stroke-dasharray:none;stroke-opacity:1"
       id="rect1010"
       width="317.5"
       height="166.6875"
       x="-1.6233087e-05"
       y="149.84105"
       rx="2.6458333"
       ry="2.6458335"
       inkscape:export-xdpi="96"
       inkscape:export-ydpi="96" />
    <g
       id="g1278"
       transform="translate(-4.2233333e-4)">
      <text
         id="text1655"
         y="272.73059"
         x="14.641406"
         style="font-style:normal;font-weight:normal;font-size:13.63457108px;line-height:1.25;font-family:sans-serif;letter-spacing:0px;word-spacing:0px;fill:#a3a3a3;fill-opacity:1;stroke:none;stroke-width:0.34086427"
         xml:space="preserve"><tspan
           style="font-style:italic;font-variant:normal;font-weight:normal;font-stretch:normal;font-size:11.28888889px;font-family:'Ubuntu Mono';-inkscape-font-specification:'Ubuntu Mono Bold';fill:#a3a3a3;fill-opacity:1;stroke-width:0.34086427"
           y="272.73059"
           x="14.641406"
           id="tspan1653"
           sodipodi:role="line">3intro_1</tspan></text>
      <text
         id="text1639"
         y="203.39897"
         x="14.641406"
         style="font-style:normal;font-weight:normal;font-size:13.63457108px;line-height:1.25;font-family:sans-serif;letter-spacing:0px;word-spacing:0px;fill:#fdf4ff;fill-opacity:1;stroke:none;stroke-width:0.34086427"
         xml:space="preserve"><tspan
           style="font-style:normal;font-variant:normal;font-weight:bold;font-stretch:normal;font-size:21.81531334px;font-family:'Ubuntu Mono';-inkscape-font-specification:'Ubuntu Mono Bold';fill:#fdf4ff;stroke-width:0.34086427"
           y="203.39897"
           x="14.641406"
           id="tspan1637"
           sodipodi:role="line">3title_1</tspan></text>
      <text
         id="text1647"
         y="226.93056"
         x="14.641406"
         style="font-style:normal;font-weight:normal;font-size:13.63457108px;line-height:1.25;font-family:sans-serif;letter-spacing:0px;word-spacing:0px;fill:#fdf4ff;fill-opacity:1;stroke:none;stroke-width:0.34086427"
         xml:space="preserve"><tspan
           style="font-style:normal;font-variant:normal;font-weight:bold;font-stretch:normal;font-size:21.81531334px;font-family:'Ubuntu Mono';-inkscape-font-specification:'Ubuntu Mono Bold';fill:#fdf4ff;stroke-width:0.34086427"
           y="226.93056"
           x="14.641406"
           id="tspan1645"
           sodipodi:role="line">3title_2</tspan></text>
      <text
         xml:space="preserve"
         style="font-style:normal;font-weight:normal;font-size:13.63457108px;line-height:1.25;font-family:sans-serif;letter-spacing:0px;word-spacing:0px;fill:#fdf4ff;fill-opacity:1;stroke:none;stroke-width:0.34086427"
         x="14.641406"
         y="250.46214"
         id="text1651"><tspan
           sodipodi:role="line"
           id="tspan1649"
           x="14.641406"
           y="250.46214"
           style="font-style:normal;font-variant:normal;font-weight:bold;font-stretch:normal;font-size:21.81531334px;font-family:'Ubuntu Mono';-inkscape-font-specification:'Ubuntu Mono Bold';fill:#fdf4ff;stroke-width:0.34086427">3title_3</tspan></text>
      <text
         xml:space="preserve"
         style="font-style:normal;font-weight:normal;font-size:13.63457108px;line-height:1.25;font-family:sans-serif;letter-spacing:0px;word-spacing:0px;fill:#a3a3a3;fill-opacity:1;stroke:none;stroke-width:0.34086427"
         x="14.641406"
         y="286.76224"
         id="text1266"><tspan
           sodipodi:role="line"
           id="tspan1264"
           x="14.641406"
           y="286.76224"
           style="font-style:italic;font-variant:normal;font-weight:normal;font-stretch:normal;font-size:11.28888889px;font-family:'Ubuntu Mono';-inkscape-font-specification:'Ubuntu Mono Bold';fill:#a3a3a3;fill-opacity:1;stroke-width:0.34086427">3intro_2</tspan></text>
    </g>
    <g
       id="g1334"
       transform="translate(-4.2228663e-4)">
      <text
         id="text1316"
         y="258.1785"
         x="14.641406"
         style="font-style:normal;font-weight:normal;font-size:13.63457108px;line-height:1.25;font-family:sans-serif;letter-spacing:0px;word-spacing:0px;fill:#a3a3a3;fill-opacity:1;stroke:none;stroke-width:0.34086427"
         xml:space="preserve"><tspan
           style="font-style:italic;font-variant:normal;font-weight:normal;font-stretch:normal;font-size:11.28888889px;font-family:'Ubuntu Mono';-inkscape-font-specification:'Ubuntu Mono Bold';fill:#a3a3a3;stroke-width:0.34086427"
           y="258.1785"
           x="14.641406"
           id="tspan1314"
           sodipodi:role="line">1intro_1</tspan></text>
      <text
         id="text1320"
         y="228.34444"
         x="14.641406"
         style="font-style:normal;font-weight:normal;font-size:13.63457108px;line-height:1.25;font-family:sans-serif;letter-spacing:0px;word-spacing:0px;fill:#fdf4ff;fill-opacity:1;stroke:none;stroke-width:0.34086427"
         xml:space="preserve"><tspan
           style="font-style:normal;font-variant:normal;font-weight:bold;font-stretch:normal;font-size:21.81531334px;font-family:'Ubuntu Mono';-inkscape-font-specification:'Ubuntu Mono Bold';fill:#fdf4ff;stroke-width:0.34086427"
           y="228.34444"
           x="14.641406"
           id="tspan1318"
           sodipodi:role="line">1title_1</tspan></text>
      <text
         xml:space="preserve"
         style="font-style:normal;font-weight:normal;font-size:13.63457108px;line-height:1.25;font-family:sans-serif;letter-spacing:0px;word-spacing:0px;fill:#a3a3a3;fill-opacity:1;stroke:none;stroke-width:0.34086427"
         x="14.641406"
         y="274.10004"
         id="text1328"><tspan
           sodipodi:role="line"
           id="tspan1326"
           x="14.641406"
           y="274.10004"
           style="font-style:italic;font-variant:normal;font-weight:normal;font-stretch:normal;font-size:11.28888889px;font-family:'Ubuntu Mono';-inkscape-font-specification:'Ubuntu Mono Bold';fill:#a3a3a3;stroke-width:0.34086427">1intro_2</tspan></text>
      <text
         id="text1332"
         y="260.96603"
         x="21.54505"
         style="font-style:normal;font-weight:normal;font-size:10.58333302px;line-height:1.25;font-family:sans-serif;letter-spacing:0px;word-spacing:0px;fill:#000000;fill-opacity:1;stroke:none;stroke-width:0.26458332"
         xml:space="preserve"><tspan
           style="stroke-width:0.26458332"
           y="270.3298"
           x="21.54505"
           id="tspan1330"
           sodipodi:role="line" /></text>
    </g>
    <g
       transform="translate(-4.2233333e-4)"
       id="g1300">
      <text
         xml:space="preserve"
         style="font-style:normal;font-weight:normal;font-size:13.63457108px;line-height:1.25;font-family:sans-serif;letter-spacing:0px;word-spacing:0px;fill:#a3a3a3;fill-opacity:1;stroke:none;stroke-width:0.34086427"
         x="14.641406"
         y="265.927"
         id="text1282"><tspan
           sodipodi:role="line"
           id="tspan1280"
           x="14.641406"
           y="265.927"
           style="font-style:italic;font-variant:normal;font-weight:normal;font-stretch:normal;font-size:11.28888889px;font-family:'Ubuntu Mono';-inkscape-font-specification:'Ubuntu Mono Bold';fill:#a3a3a3;stroke-width:0.34086427">2intro_1</tspan></text>
      <text
         xml:space="preserve"
         style="font-style:normal;font-weight:normal;font-size:13.63457108px;line-height:1.25;font-family:sans-serif;letter-spacing:0px;word-spacing:0px;fill:#fdf4ff;fill-opacity:1;stroke:none;stroke-width:0.34086427"
         x="14.641406"
         y="213.03735"
         id="text1286"><tspan
           sodipodi:role="line"
           id="tspan1284"
           x="14.641406"
           y="213.03735"
           style="font-style:normal;font-variant:normal;font-weight:bold;font-stretch:normal;font-size:21.81531334px;font-family:'Ubuntu Mono';-inkscape-font-specification:'Ubuntu Mono Bold';fill:#fdf4ff;stroke-width:0.34086427">2title_1</tspan></text>
      <text
         xml:space="preserve"
         style="font-style:normal;font-weight:normal;font-size:13.63457108px;line-height:1.25;font-family:sans-serif;letter-spacing:0px;word-spacing:0px;fill:#fdf4ff;fill-opacity:1;stroke:none;stroke-width:0.34086427"
         x="14.641406"
         y="238.74231"
         id="text1290"><tspan
           sodipodi:role="line"
           id="tspan1288"
           x="14.641406"
           y="238.74231"
           style="font-style:normal;font-variant:normal;font-weight:bold;font-stretch:normal;font-size:21.81531334px;font-family:'Ubuntu Mono';-inkscape-font-specification:'Ubuntu Mono Bold';fill:#fdf4ff;stroke-width:0.34086427">2title_2</tspan></text>
      <text
         id="text1298"
         y="281.84854"
         x="14.641406"
         style="font-style:normal;font-weight:normal;font-size:13.63457108px;line-height:1.25;font-family:sans-serif;letter-spacing:0px;word-spacing:0px;fill:#a3a3a3;fill-opacity:1;stroke:none;stroke-width:0.34086427"
         xml:space="preserve"><tspan
           style="font-style:italic;font-variant:normal;font-weight:normal;font-stretch:normal;font-size:11.28888889px;font-family:'Ubuntu Mono';-inkscape-font-specification:'Ubuntu Mono Bold';fill:#a3a3a3;stroke-width:0.34086427"
           y="281.84854"
           x="14.641406"
           id="tspan1296"
           sodipodi:role="line">2intro_2</tspan></text>
      <text
         xml:space="preserve"
         style="font-style:normal;font-weight:normal;font-size:10.58333302px;line-height:1.25;font-family:sans-serif;letter-spacing:0px;word-spacing:0px;fill:#000000;fill-opacity:1;stroke:none;stroke-width:0.26458332"
         x="21.54505"
         y="260.96603"
         id="text1304"><tspan
           sodipodi:role="line"
           id="tspan1302"
           x="21.54505"
           y="270.3298"
           style="stroke-width:0.26458332" /></text>
    </g>
    <text
       xml:space="preserve"
       style="font-style:normal;font-variant:normal;font-weight:normal;font-stretch:normal;font-size:15.35805702px;line-height:1.25;font-family:FreeMono;-inkscape-font-specification:'FreeMono, Normal';font-variant-ligatures:normal;font-variant-caps:normal;font-variant-numeric:normal;font-feature-settings:normal;text-align:start;letter-spacing:0px;word-spacing:0px;writing-mode:lr-tb;text-anchor:start;fill:#a3a3a3;fill-opacity:1;stroke:none;stroke-width:0.3839519;"
       x="15.442116"
       y="173.10577"
       id="text976"
       inkscape:export-filename="/home/joost/git/freesewing/artwork/og/default.png"
       inkscape:export-xdpi="96"
       inkscape:export-ydpi="96"><tspan
         sodipodi:role="line"
         id="tspan974"
         x="15.442116"
         y="173.10577"
         style="font-style:normal;font-variant:normal;font-weight:normal;font-stretch:normal;font-size:15.35805702px;font-family:Pacifico;-inkscape-font-specification:Pacifico;font-variant-ligatures:normal;font-variant-caps:normal;font-variant-numeric:normal;font-feature-settings:normal;text-align:start;writing-mode:lr-tb;text-anchor:start;fill:#a3a3a3;fill-opacity:1;stroke-width:0.3839519;">FreeSewing</tspan></text>
    <g
       id="g1816"
       transform="translate(0.42640676,-0.21904924)"
       style="fill:#d4d4d4">
      <path
         inkscape:connector-curvature="0"
         id="path1797"
         d="m 289.41954,296.92207 c -1.83006,0 -3.37902,0.63869 -4.6468,1.91572 -1.30093,1.32099 -1.95123,2.88449 -1.95123,4.68975 0,1.80527 0.6503,3.35756 1.95123,4.65671 1.30095,1.29887 2.84991,1.94875 4.6468,1.94875 1.81899,0 3.39584,-0.65479 4.72941,-1.96528 1.2567,-1.24386 1.88514,-2.79042 1.88514,-4.64018 0,-1.84977 -0.63908,-3.41271 -1.91736,-4.68975 -1.27938,-1.27703 -2.84502,-1.91572 -4.69719,-1.91572 z m 0.0166,1.18876 c 1.49943,0 2.7727,0.52827 3.81987,1.58528 1.05822,1.04568 1.58775,2.32303 1.58775,3.83143 0,1.51917 -0.5186,2.78014 -1.55471,3.78187 -1.09195,1.07912 -2.3756,1.61833 -3.85291,1.61833 -1.47787,0 -2.75115,-0.53374 -3.81987,-1.60181 -1.06984,-1.06806 -1.60346,-2.33422 -1.60346,-3.79839 0,-1.46444 0.53964,-2.74154 1.61999,-3.83143 1.03611,-1.05702 2.30391,-1.58528 3.80334,-1.58528 z m -0.0405,1.15075 c -0.49794,0.0174 -0.89253,0.42621 -0.89218,0.92441 -4e-5,0.5105 0.41383,0.92439 0.9244,0.92439 0.51056,0 0.92444,-0.41389 0.9244,-0.92439 4e-5,-0.51052 -0.41384,-0.92439 -0.9244,-0.92441 -0.0107,-1.9e-4 -0.0215,-1.9e-4 -0.0322,0 z m -1.31927,2.20402 c -0.23498,0 -0.42628,0.19049 -0.42628,0.42627 v 2.70216 h 0.75424 v 3.19947 h 2.04789 v -3.19947 h 0.75339 v -2.70216 c 0,-0.23578 -0.19128,-0.42627 -0.42627,-0.42627 z"
         style="fill:#d4d4d4;stroke:none;stroke-width:0.10924467px;stroke-linecap:butt;stroke-linejoin:miter;stroke-opacity:1" />
      <path
         style="fill:#d4d4d4;stroke:none;stroke-width:0.06477662px;stroke-linecap:butt;stroke-linejoin:miter;stroke-opacity:1"
         d="m 303.85289,303.96531 m 0.82209,2.14155 a 2.293857,2.293857 0 1 0 -1.64419,0 l -1.54514,4.02614 a 6.6062911,6.6062911 0 1 1 4.73438,0 z"
         id="path1801"
         inkscape:connector-curvature="0" />
      <path
         inkscape:connector-curvature="0"
         id="path1811"
         d="m 276.23943,305.45016 c -0.59436,-0.21081 -1.04893,-0.81843 -1.14658,-1.53287 -0.14165,-1.03504 0.27562,-1.9049 1.09094,-2.27507 0.47303,-0.21477 1.27522,-0.19841 1.7547,0.0363 0.2968,0.14512 0.79239,0.60068 0.79239,0.7282 0,0.0217 -0.19419,0.13348 -0.43189,0.24836 l -0.43176,0.20906 -0.22357,-0.24402 c -0.20102,-0.21947 -0.25455,-0.24401 -0.52992,-0.24401 -0.3791,0 -0.62298,0.14896 -0.7546,0.46089 -0.11773,0.27908 -0.13259,0.9633 -0.0278,1.2751 0.21352,0.63377 0.99254,0.78397 1.43471,0.2766 l 0.19878,-0.22803 0.38306,0.19358 c 0.21069,0.10621 0.38307,0.2113 0.38307,0.23323 0,0.14376 -0.49497,0.60489 -0.82797,0.77121 -0.3408,0.17028 -0.448,0.19309 -0.89588,0.1885 -0.27995,-0.003 -0.62533,-0.0466 -0.76774,-0.097 z m -3.8362,0 c -0.60278,-0.21377 -1.06516,-0.8411 -1.14645,-1.55617 -0.12096,-1.05983 0.27784,-1.88271 1.09081,-2.25202 0.44057,-0.19989 1.24077,-0.19531 1.71616,0.0102 0.28862,0.12479 0.83094,0.61455 0.83094,0.75062 0,0.0223 -0.18738,0.13286 -0.41603,0.24562 l -0.41615,0.20512 -0.22208,-0.22209 c -0.12392,-0.12392 -0.31341,-0.2393 -0.42866,-0.26074 -0.28578,-0.0539 -0.62795,0.0735 -0.78274,0.29086 -0.25591,0.35964 -0.27364,1.29989 -0.0312,1.66993 0.12579,0.19196 0.33708,0.32654 0.53636,0.34179 0.419,0.0323 0.52471,-0.003 0.77257,-0.26471 l 0.25008,-0.26273 0.32209,0.17722 c 0.1771,0.0975 0.34762,0.20039 0.37898,0.22877 0.10868,0.0979 -0.38963,0.6065 -0.79055,0.80678 -0.34067,0.17027 -0.448,0.19308 -0.89587,0.18849 -0.28057,-0.004 -0.62595,-0.0464 -0.76824,-0.0969 z m 8.12028,-5.59003 c -1.10582,-1.66311 -2.89609,-2.73125 -4.89393,-2.92024 -2.05002,-0.19395 -3.97722,0.50885 -5.35791,1.9541 -0.84184,0.88125 -1.39158,1.864 -1.71392,3.06462 -0.14264,0.53053 -0.1626,0.72733 -0.16124,1.58082 0.001,0.85151 0.0226,1.05413 0.16805,1.60351 0.63526,2.39603 2.50484,4.23512 4.91487,4.83494 0.20745,0.0517 0.46225,0.10571 0.56597,0.12009 0.45917,0.0635 1.56993,0.037 2.06465,-0.0496 2.03677,-0.35505 3.84636,-1.66919 4.77508,-3.46751 1.08387,-2.0981 0.94036,-4.76281 -0.36162,-6.72076 z m -0.27054,5.07052 c -0.53215,1.97207 -2.15127,3.47693 -4.19484,3.89866 -3.18607,0.65769 -6.2906,-1.75296 -6.48851,-5.03843 -0.12802,-2.12202 1.15674,-4.2511 3.1293,-5.18577 0.74693,-0.35394 1.34834,-0.48344 2.25847,-0.48654 0.87543,-0.002 1.36122,0.0869 2.125,0.3926 1.53324,0.61407 2.73497,2.00429 3.17702,3.67534 0.18491,0.69908 0.18168,2.0468 -0.006,2.74414 z"
         style="fill:#d4d4d4;stroke:none;stroke-width:0.03278932px;stroke-linecap:butt;stroke-linejoin:miter;stroke-opacity:1"
         sodipodi:nodetypes="ccccscccscccccsccccccccsccccccccccccccccccccccccccccccccccc" />
    </g>
    <path
       style="opacity:1;fill:#171717;fill-opacity:1;stroke:none;stroke-width:10;stroke-linecap:round;stroke-linejoin:round;stroke-miterlimit:4;stroke-dasharray:none;stroke-opacity:1"
       d="M 832.39751,73.808594 1001.4098,703.80859 H 1190 c 5.54,0 10,-4.46 10,-10 V 83.808594 c 0,-5.540001 -4.46,-10 -10,-10 z"
       transform="matrix(0.26458333,0,0,0.26458333,-4.2330872e-6,130.31252)"
       id="rect1030"
       inkscape:connector-curvature="0"
       sodipodi:nodetypes="ccssssc" />
    <path
       inkscape:connector-curvature="0"
       style="fill:#525252;fill-opacity:0.98263891;stroke:none;stroke-width:3.35775065"
       d="m 284.45692,163.43406 c -2.64551,1.88051 -2.50912,1.63979 -4.64637,2.33783 -4.90055,1.60239 -9.60043,0.72209 -15.17762,0.25614 -1.67724,-0.18771 -3.34106,-0.29657 -4.96474,-0.30736 -8.19872,-0.0509 -15.16162,2.34854 -16.48037,9.0627 -2.4315,1.47391 -4.66781,3.25806 -6.88266,5.04492 -4.72931,3.73159 -8.28966,8.29241 -10.71849,13.7894 -3.31695,8.11844 -0.32117,16.83074 1.16359,25.05893 0.35311,1.92591 0.72222,3.76101 0.92023,4.46981 0.28106,0.99748 0.77578,1.95003 1.3134,2.80599 0.12566,0.0234 0.78911,-1.00003 0.94697,-1.45242 0.23018,-0.65867 0.20592,-1.71465 -0.0474,-2.62418 -0.55637,-2.04626 -1.08611,-3.70742 -1.13147,-4.54202 -0.0798,-1.56757 0.22515,-3.01465 0.79705,-3.73157 0.20324,-0.25411 0.66869,1.05707 0.54836,1.54345 -0.14214,0.58627 -0.24838,1.58887 -0.20322,2.05173 0.12566,1.56741 0.35597,3.2446 0.64192,4.71048 0.36652,1.89117 0.52433,3.10569 0.45726,3.5764 -0.0484,0.34258 -0.20827,0.68782 -0.82383,1.74675 -0.53503,0.9277 -0.81325,1.67985 -0.85603,2.34333 -0.0474,0.64724 0.15033,2.26567 0.33198,2.66152 0.26453,0.61799 1.06196,1.26783 1.7575,1.42849 0.66598,0.25377 1.00036,0.7804 1.34282,1.37219 0.83185,1.58613 1.47387,3.51767 2.1105,6.42783 0.31005,1.39374 0.56985,2.63757 0.65271,3.29019 -5.13589,0.004 -11.71362,0.0101 -17.70552,0.0101 -2.01695,0.038 -5.66019,-0.91499 -9.00124,-1.13452 -0.48415,-5.2269 -2.7792,-11.2991 -6.70605,-11.65224 -2.68031,-0.24366 -4.90322,0.77539 -6.78369,5.01022 l 0.0534,0.22683 c 1.1101,-0.92769 2.28177,-3.76639 6.50284,-3.57106 3.24204,0.14695 4.32269,6.28346 4.64366,9.97495 -1.97407,0.14461 -3.65392,0.75129 -4.53131,2.26836 h -0.0169 c 0,9.3e-4 0,0.0101 0.0101,0.0169 -0.0101,0.0101 -0.0101,0.0101 -0.0101,0.0169 h 0.0169 c 0.9041,1.55422 2.64549,2.15613 4.69184,2.27644 1.36687,38.65313 37.70078,43.6393 47.63015,43.6393 37.04268,0 50.01084,-25.17138 51.96085,-35.14085 0.91223,4.24785 -1.9607,9.65912 -2.64818,13.65295 7.81356,-9.03337 6.40115,-17.71895 4.97276,-26.45532 1.1877,1.41245 2.79532,2.28708 4.97535,1.80295 -1.55415,-1.03807 -3.66202,-0.31107 -4.92457,-4.68918 -0.551,-1.89122 -1.02715,-3.30887 -1.50063,-4.49929 -1.02186,-3.8332 -2.47165,-7.49523 -4.2532,-11.06359 -1.50329,-3.87056 -0.51094,-6.37979 -0.66068,-9.70211 2.70432,8.91843 4.39495,11.29108 7.55138,12.22463 -7.93922,-9.56562 -5.22148,-24.37683 -9.70738,-37.59636 2.0303,1.1929 4.34685,1.55143 6.8131,0.0886 -2.38604,-0.67884 -4.76672,1.11557 -8.19065,-3.91596 -2.89161,-5.62559 -7.08063,-9.77978 -12.16303,-13.44449 -2.7231,-1.7762 -5.74576,-2.96922 -8.78453,-4.0766 3.09495,-0.77541 6.55095,-3.53093 6.71143,-5.58798 z m -5.19205,29.71059 c 4.0766,1.48737 8.57051,7.13689 8.5197,12.67931 v 0.22983 0.0758 c -0.10932,7.52739 -3.53097,11.57457 -3.38646,16.58738 0.18436,5.9036 2.72571,7.96328 3.2313,8.94772 -0.86661,-3.64053 -1.3749,-8.22016 -0.23019,-11.84728 1.47124,-4.6651 2.95585,-8.52779 2.84885,-12.18178 -0.0535,-0.85538 -0.41717,-4.0579 -0.66065,-5.4756 4.37079,6.30756 -0.94703,15.47992 0.58314,21.4825 2.65888,10.45636 14.57575,11.77782 11.02879,32.84569 -3.12169,18.52134 -24.51056,32.57824 -46.43448,32.57824 -16.25294,0 -44.41747,-8.99585 -45.80845,-40.90537 3.3036,-0.23627 6.85587,-1.15612 8.8487,-1.12312 6.02398,0 12.90395,8.7e-4 18.08801,0.004 0.97365,4.39224 1.70395,5.4515 5.39805,8.37788 4.10877,3.23146 5.06638,3.62459 11.14383,3.6835 6.08015,0.0638 7.88311,-1.24115 13.78132,-6.82123 1.27329,-1.49264 1.82432,-3.44806 2.44228,-5.28561 6.06679,-0.0509 10.4911,-0.16378 14.84324,-0.36693 4.43244,-0.20087 5.05832,0 12.20048,-0.73605 -7.14216,-0.7361 -7.76804,-0.53556 -12.20048,-0.73861 -4.23711,-0.19279 -8.52771,-0.30198 -14.32964,-0.35549 0.48675,-2.18545 1.18223,-4.32003 1.92322,-6.43062 0.45725,-1.2437 0.99509,-2.45552 1.54614,-3.662 l 0.60191,-0.18638 c 1.16094,-0.4123 2.18811,-1.29471 2.59741,-2.48759 0.52692,-1.58101 0.15231,-3.35709 -0.86669,-4.64912 -0.35066,-0.48478 -0.78642,-1.10159 -0.96557,-1.3749 -0.53779,-0.85029 -0.55102,-1.32417 -0.0969,-4.4859 0.38273,-2.64818 0.42526,-4.03387 0.16043,-5.37671 -0.0532,-0.76775 -0.0583,-2.3459 -0.0826,-2.77127 0.20321,0.11424 0.64468,1.11804 1.09143,2.4798 0.44386,1.36685 0.51625,1.65039 0.61784,2.81401 0.11178,1.32138 -0.3822,2.30049 -0.78905,4.2718 -0.20321,1.01657 -0.38272,1.96087 -0.38272,2.08921 0,0.13723 0.0963,0.42523 0.19783,0.64973 0.23794,0.50259 0.68475,1.20941 0.76761,1.20941 1.45796,-1.60766 2.31396,-3.59245 3.07628,-5.60674 0.80247,-2.27904 1.03787,-4.69721 1.59961,-7.04313 0.45488,-2.0437 0.97914,-4.09008 1.14221,-6.18716 0.32858,-4.09264 0.1365,-6.98155 -0.76772,-11.24557 -0.21703,-0.96318 -0.8425,-2.80053 -1.27856,-3.6673 z m -14.33776,20.16112 c 1.56485,-0.0169 3.11363,0.17088 4.58758,0.59644 2.0035,0.76777 2.28437,2.5572 2.65355,4.56613 0.20592,1.2839 0.19782,2.20678 -0.038,3.71544 -0.16344,2.18816 -1.03248,3.88133 -2.93178,5.07174 -2.86486,0.52919 -5.9276,1.04063 -8.35647,-0.85534 -2.03838,-2.80874 -3.26616,-6.35838 -2.79803,-9.81969 0.29658,-1.42049 0.95767,-2.15873 2.31649,-2.6001 1.46316,-0.42002 3.01201,-0.64975 4.56346,-0.67388 z m -23.76158,0.25411 c 1.46324,-0.0169 2.94248,0.14186 3.75566,0.66115 3.49083,2.362 2.37001,6.20588 0.98976,9.57912 -2.00889,4.41627 -6.35305,4.25313 -10.56338,4.21838 -2.3299,-0.68277 -2.54388,-2.59208 -2.88095,-4.633 -0.28848,-1.9715 -0.90404,-4.08474 -0.39034,-6.0668 1.31876,-3.18852 6.13901,-3.55505 9.08949,-3.75836 z m 53.23958,0.55075 c 0.0169,8.48764 1.46851,12.65782 4.37888,18.66843 -1.71466,-3.27135 -4.16491,-5.13314 -5.07707,-9.04393 -1.74411,-7.55133 0.13651,-7.12876 0.6981,-9.6245 z m -42.29904,6.14702 c 0.46013,0.46584 0.68214,1.10789 1.08078,1.6184 0.3077,-0.52666 0.62321,-1.05071 1.01913,-1.5194 0.20593,0.004 0.45728,0.41233 0.6849,1.13961 0.97361,2.69109 1.16353,5.6522 2.42611,8.23894 1.17963,1.87239 -0.43051,2.96376 -2.19881,3.04948 -1.28933,-8.9e-4 -1.83501,-0.88333 -2.59202,-1.75492 -0.19548,0.56982 -0.56718,0.93659 -1.01102,1.32149 -1.12887,0.94673 -3.34102,0.59646 -3.68343,-0.89594 0.45486,-2.85145 1.90723,-5.47036 2.85948,-8.20409 0.47349,-0.99748 0.47884,-1.76284 1.41511,-2.99332 z m -16.56327,14.4046 c 0.56983,0 2.13461,1.06224 2.45295,1.6612 0.2194,0.39845 0.71953,1.95008 0.75431,2.32719 0.056,0.44915 -0.0798,1.51402 -0.21941,1.80285 -0.10151,0.20559 -0.17894,0.23624 -0.29655,0.10166 -0.0992,-0.11467 -1.40975,-2.62671 -2.24701,-4.29064 -0.65799,-1.33215 -0.72751,-1.60214 -0.44384,-1.60214 z m 32.69324,0.83247 c 0.0234,9.4e-4 0.0534,0.0101 0.0826,0.0169 0.17626,0.0758 0.0535,0.69796 -0.60991,2.97177 -0.12566,0.6853 -0.43045,1.22467 -0.87739,1.6745 -0.14693,0 -0.214,-0.17087 -0.44384,-1.12054 -0.19548,-0.81094 -0.21637,-1.53268 -0.08,-2.18005 0.2356,-0.81096 1.18771,-1.05968 1.9286,-1.36427 z m -3.96695,4.95662 c 0.056,-0.0101 0.10961,0.0169 0.17928,0.0758 0.24098,0.16917 0.27569,0.61302 0.11525,1.48191 -0.19547,1.11809 -0.23794,1.24119 -0.52689,1.35628 -0.12566,0.0509 -0.3507,0.10166 -0.50028,0.10166 -0.27028,-0.0509 -0.33967,-0.2676 -0.27567,-0.59896 0,-0.69545 0.20322,-1.29994 0.66336,-2.01413 0.1739,-0.2676 0.2622,-0.38178 0.34495,-0.39611 z m -23.09284,0.0509 c 0.18437,0 0.74105,0.40087 0.94696,0.67893 0.23051,0.29419 0.49217,2.04639 0.34497,2.34869 -0.16851,0.37935 -0.9925,0.19008 -1.21987,-0.28275 -0.13882,-0.28277 -0.46826,-1.8136 -0.46826,-2.17745 0,-0.3373 0.16346,-0.56733 0.39562,-0.56733 z m 21.10807,0.46298 c 0.22513,0.32119 0.28343,0.73228 0.23492,1.63696 l -0.0479,0.82366 -0.23558,0.23489 c -0.14113,0.13072 -0.38222,0.29185 -0.52684,0.35783 -0.31884,0.14997 -0.56174,0.16381 -0.60728,0.038 -0.0532,-0.16009 0.038,-1.18281 0.13651,-1.52747 0.11525,-0.35546 0.63129,-1.4177 0.80249,-1.64245 0.0777,-0.2056 0.1685,0.0509 0.24096,0.0762 z m -13.43097,-0.0509 c 0.48417,0.12668 0.69811,0.55836 0.96298,0.95431 l 0.17897,0.35263 -0.25109,0.87437 c -0.13375,0.48102 -0.27568,0.91503 -0.31814,0.96323 -0.0484,0.0509 -0.2275,0.0758 -0.49211,0.0758 -0.70621,-0.0169 -0.78645,-0.0509 -0.97627,-0.33731 l -0.17627,-0.26288 0.15031,-0.73607 c 0.21637,-1.05959 0.32118,-1.37767 0.56168,-1.65054 0.12566,-0.14693 0.25108,-0.22682 0.36075,-0.23828 z m -4.46984,0.75632 0.39847,0.39847 0.0667,0.901 c 0.038,0.49244 0.0509,0.94928 0.0234,1.00638 -0.0234,0.0758 -0.16852,0.10166 -0.61527,0.10166 h -0.58045 c -0.31006,-0.34018 -0.4066,-0.75385 -0.53771,-1.18279 -0.30466,-1.2867 -0.30466,-1.87253 0.0101,-1.95006 0.51628,0.038 0.85599,0.40612 1.23316,0.72718 z m 15.51476,-0.61812 c 0.63123,0.16919 0.50556,1.17134 0.5029,1.88852 -0.0484,1.1612 -0.0944,1.40169 -0.24366,1.55142 -0.2595,0.26051 -0.98172,0.11467 -1.33209,-0.27029 -0.11525,-0.13954 -0.12566,-0.18165 -0.038,-0.74622 0.10411,-0.68786 0.23861,-1.11552 0.53507,-1.704 0.21705,-0.42234 0.41997,-0.68782 0.57246,-0.71956 z m -14.24684,0.0509 c 0.0337,-8.9e-4 0.0914,0 0.14417,0.0101 0.40136,0.038 0.7758,0.29423 1.10741,0.77542 l 0.26761,0.39324 c 0.0236,0.64464 0,1.32399 -0.11525,1.92321 -0.0697,0.038 -0.35836,0.0887 -0.64207,0.11467 -0.49214,0.0509 -0.53766,0.038 -0.70891,-0.11467 -0.23793,-0.20321 -0.30467,-0.57994 -0.36407,-1.83239 -0.0337,-1.02163 -0.0101,-1.24875 0.31004,-1.26527 z m 6.06945,0.21469 c 0.43099,0.0887 0.70358,0.3212 0.8239,0.69799 0.0963,0.32355 0.15538,2.13471 0.062,2.26036 -0.0302,0.0509 -0.23559,0.11423 -0.46823,0.14996 -0.86665,0.11467 -1.63171,0.0236 -1.70656,-0.17896 -0.0967,-0.23592 0.54834,-2.56804 0.78644,-2.85699 0.10151,-0.22446 0.34732,-0.0509 0.50288,-0.0758 z m 5.61206,0.0169 c 0.1904,-0.0169 0.39325,0.16379 0.59114,0.55081 0.16045,0.32353 0.18435,0.43671 0.18435,1.16113 0,0.57752 -0.0337,0.82619 -0.0963,0.88075 -0.0534,0.038 -0.27028,0.11467 -0.50024,0.17896 -0.40135,0.10151 -0.48952,0.11423 -0.61529,0.0758 l -0.60192,-0.11467 0.0474,-0.35786 c 0.0428,-0.46823 0.35071,-1.50594 0.5672,-1.95539 0.12841,-0.26759 0.27568,-0.40089 0.42524,-0.41999 z m -2.61608,0.0101 c 0.12566,-0.004 0.18434,0.0236 0.26457,0.11467 0.19041,0.22446 0.43051,0.88839 0.58318,1.59687 0.20321,0.99753 0.20321,0.99492 -0.23254,1.12566 -0.18976,0.0638 -0.59118,0.11467 -0.87748,0.13723 -0.9443,0.0509 -1.01652,-0.0101 -0.90141,-0.84269 0.0914,-0.74371 0.45728,-1.91513 0.61522,-2.00078 0.17089,-0.0886 0.36936,-0.0886 0.54843,-0.12812 z m -48.13032,3.76912 c 0.0101,-8.5e-4 0.0169,0 0.0169,0 0.0234,0.52167 0.0234,1.04833 0.0337,1.57292 -1.32411,-0.10166 -2.29778,-0.41756 -2.29778,-0.78939 0,-0.36648 0.93892,-0.67889 2.24426,-0.78421 z m 2.3138,0.0509 c 1.07263,0.13318 1.81358,0.41517 1.80022,0.73857 0,0.32623 -0.71688,0.6041 -1.78152,0.73605 -0.0101,-0.4898 -0.0101,-0.98227 -0.0169,-1.47384 z m 50.09113,1.42581 c 0.0914,-0.0101 0.13072,-0.0169 0.27027,-9.5e-4 0.55638,0.0509 0.63678,0.0889 0.63678,0.27768 0,0.24604 -0.42288,0.98736 -0.70902,1.24366 -0.13376,0.12812 -0.31816,0.23491 -0.38226,0.23491 -0.32118,0 -0.50822,-0.67643 -0.35831,-1.30004 0.0914,-0.33732 0.25715,-0.44147 0.54304,-0.45437 z m -2.01961,0.22211 c 0.24904,-0.0236 0.48948,0.0509 0.73017,0.0758 -0.0697,0.70298 -0.38511,1.27862 -0.97094,1.66098 -0.14431,0 -0.21637,-0.27533 -0.21637,-0.87685 0,-0.71707 0.038,-0.85278 0.45727,-0.86168 z m -2.21486,0.25883 c 0.51622,0 0.97092,0.0234 0.99244,0.0509 0.0963,0.0889 -0.18201,0.78175 -0.59119,1.48206 -0.35069,0.6231 -0.40133,0.66879 -0.61792,0.68528 -0.85066,-0.10166 -0.82652,-1.0939 -0.95762,-1.77882 0,-0.40613 0.0913,-0.4415 1.17429,-0.4415 z m -8.0489,0.0762 c 0.5911,0.0101 0.82116,0.10166 0.82116,0.32626 0,0.28949 -0.21938,0.86423 -0.34496,0.93656 -0.19042,0.10166 -0.20592,0.10166 -0.58051,-0.29185 -0.59114,-0.66377 -0.65803,-0.7869 0.10411,-0.97089 z m 2.84606,0.0236 c 0.0101,0.0169 0.12566,0.22445 0.24097,0.4606 0.25142,0.4899 0.27029,0.70306 0.0914,0.86678 -0.42239,0.2413 -0.51093,0.10165 -0.89343,-0.13954 -0.44386,-0.41996 -0.79443,-0.98479 -0.67946,-1.10155 0.39608,-0.14185 0.83191,-0.0886 1.24115,-0.0886 z m 1.12893,0.0169 1.05657,0.0169 c 0.41187,0 0.76765,0.0236 0.78645,0.0509 0.072,0.0636 -0.1604,1.43915 -0.28611,1.74944 -0.1446,0.34782 -0.65005,0.35021 -0.91228,-0.0636 -0.37455,-0.59137 -0.62051,-1.08884 -0.62853,-1.43096 z"
       id="path919"
       clip-path="url(#clipPath1818)" />
    <rect
       style="opacity:1;fill:url(#linearGradient1262);fill-opacity:1;stroke:none;stroke-width:2.13872552;stroke-linecap:round;stroke-linejoin:round;stroke-miterlimit:4;stroke-dasharray:none;stroke-opacity:1"
       id="rect1254"
       width="21.733631"
       height="145.14285"
       x="151.65767"
       y="229.60516"
       transform="rotate(-15)" />
    <g
       inkscape:export-ydpi="96"
       inkscape:export-xdpi="96"
       inkscape:export-filename="/home/joost/git/freesewing/artwork/og/default.png"
       clip-path="none"
       id="g1586"
       transform="matrix(0.07565543,0.28234994,-0.1271374,0.03406636,214.17792,150.211)">
      <rect
         style="opacity:1;fill:#ef4444;fill-opacity:1;stroke:none;stroke-width:1;stroke-linecap:round;stroke-linejoin:round;stroke-miterlimit:4;stroke-dasharray:none;stroke-opacity:1"
         id="rect1574"
         width="100"
         height="20"
         x="2.8421709e-14"
         y="-54.459431" />
      <rect
         y="-54.459431"
         x="100.00002"
         height="20"
         width="100"
         id="rect1576"
         style="opacity:1;fill:#f97316;fill-opacity:1;stroke:none;stroke-width:1;stroke-linecap:round;stroke-linejoin:round;stroke-miterlimit:4;stroke-dasharray:none;stroke-opacity:1" />
      <rect
         style="opacity:1;fill:#facc15;fill-opacity:1;stroke:none;stroke-width:1;stroke-linecap:round;stroke-linejoin:round;stroke-miterlimit:4;stroke-dasharray:none;stroke-opacity:1"
         id="rect1578"
         width="100"
         height="20"
         x="200.00002"
         y="-54.459431" />
      <rect
         y="-54.459431"
         x="300.00003"
         height="20"
         width="100"
         id="rect1580"
         style="opacity:1;fill:#22c55e;fill-opacity:1;stroke:none;stroke-width:1;stroke-linecap:round;stroke-linejoin:round;stroke-miterlimit:4;stroke-dasharray:none;stroke-opacity:1" />
      <rect
         style="opacity:1;fill:#3b82f6;fill-opacity:1;stroke:none;stroke-width:1;stroke-linecap:round;stroke-linejoin:round;stroke-miterlimit:4;stroke-dasharray:none;stroke-opacity:1"
         id="rect1582"
         width="100"
         height="20"
         x="400.00006"
         y="-54.459431" />
      <rect
         y="-54.459431"
         x="500"
         height="20"
         width="100"
         id="rect1584"
         style="opacity:1;fill:#8b5cf6;fill-opacity:1;stroke:none;stroke-width:1;stroke-linecap:round;stroke-linejoin:round;stroke-miterlimit:4;stroke-dasharray:none;stroke-opacity:1" />
    </g>
    <text
       id="text1659"
       y="304.66589"
       x="14.254917"
       style="font-style:normal;font-weight:normal;font-size:13.63457108px;line-height:1.25;font-family:sans-serif;letter-spacing:0px;word-spacing:0px;fill:#fdf4ff;fill-opacity:1;stroke:none;stroke-width:0.34086427"
       xml:space="preserve"><tspan
         style="font-style:normal;font-variant:normal;font-weight:normal;font-stretch:normal;font-size:8.46666622px;font-family:'Ubuntu Mono';-inkscape-font-specification:'Ubuntu Mono';fill:#a3a3a3;stroke-width:0.34086427"
         y="304.66589"
         x="14.254917"
         id="tspan1657"
         sodipodi:role="line"><tspan
           style="font-size:8.46666622px;fill:#a3a3a3;fill-opacity:0.53472218"
           id="tspan1665">sub_1 sub_2</tspan></tspan></text>
    <text
       xml:space="preserve"
       style="font-style:normal;font-weight:normal;font-size:13.63457108px;line-height:1.25;font-family:sans-serif;letter-spacing:0px;word-spacing:0px;fill:#fdf4ff;fill-opacity:1;stroke:none;stroke-width:0.34086427"
       x="112.71771"
       y="173.13019"
       id="text1127"><tspan
         sodipodi:role="line"
         id="tspan1125"
         x="112.71771"
         y="173.13019"
         style="font-style:normal;font-variant:normal;font-weight:normal;font-stretch:normal;font-size:8.46666622px;font-family:'Ubuntu Mono';-inkscape-font-specification:'Ubuntu Mono';fill:#a3a3a3;stroke-width:0.34086427">lead_1</tspan></text>
  </g>
</svg>
