<svg width="317.5mm" height="166.69mm" version="1.1" viewBox="0 0 317.5 166.69" xmlns="http://www.w3.org/2000/svg" xmlns:xlink="http://www.w3.org/1999/xlink">
  <defs>
    <clipPath id="b">
      <path d="m220.24 149.84 44.718 166.69h49.898c1.4658 0 2.6458-1.18 2.6458-2.6458v-161.4c0-1.4658-1.18-2.6458-2.6458-2.6458z" />
    </clipPath>
    <linearGradient id="a" x1="216.77" x2="202.78" y1="227.89" y2="227.89" gradientTransform="translate(-46.024 69.559)" gradientUnits="userSpaceOnUse">
      <stop stop-color="#262626" offset="0"/>
      <stop stop-color="#262626" stop-opacity="0" offset="1"/>
    </linearGradient>
  </defs>
  <style>
    .mono { font-family: 'Ubuntu Mono'; }
    .pacifico { font-family: Pacifico; font-size: 16px; }}
    .tiny { font-size: 8px; }
    .mini { font-size: 9px; }
    .small { font-size: 11px; }
    .big   { font-size: 22px; }
    .gray-200 { fill: #E5E5E5; }
    .gray-300 { fill: #D4D4D4; }
    .gray-400 { fill: #A3A3A3; }
    .gray-500 { fill: #737373; }
    .gray-600 { fill: #525252; }
    .gray-700 { fill: #404040; }
    .gray-800 { fill: #262626; }
    .gray-900 { fill: #171717; }
    .italic { font-style: italic; }
    .bold { font-weight: bold; }
  </style>
  <g>
    <rect x="-5" y="-5" width="330" height="180" class="gray-800"/>
  </g>
  <g transform="translate(0,-149.83637)">
    <text class="mono gray-300 small italic">
      <tspan x="15" y="273">intro_1</tspan>
      <tspan x="15" y="285">intro_2</tspan>
    </text>
    <text class="mono gray-200 big bold">
      <tspan x="15" y="230">1title_1</tspan>
      <tspan x="15" y="215">2title_1</tspan>
      <tspan x="15" y="239">2title_2</tspan>
      <tspan x="15" y="203">3title_1</tspan>
      <tspan x="15" y="227">3title_2</tspan>
      <tspan x="15" y="251">3title_3</tspan>
    </text>
    <text>
      <tspan x="15" y="173" class="pacifico gray-500">FreeSewing</tspan>
    </text>
    <text class="gray1 mono mini gray-400">
      <tspan x="15" y="305">sub_1sub_2</tspan>
    </text>
    <text class="gray1 mono tiny gray-400 bold">
      <tspan x="113" y="173">lead_1</tspan>
    </text>
  </g>
  <g transform="translate(0,-149.83637)">
    <path transform="matrix(.26458 0 0 .26458 -4.2331e-6 130.31)" d="m832.4 73.809 169.01 630h188.59c5.54 0 10-4.46 10-10v-610c0-5.54-4.46-10-10-10z" class="gray-900"/>
    <path d="m284.46 163.43c-2.6455 1.8805-2.5091 1.6398-4.6464 2.3378-4.9006 1.6024-9.6004 0.72209-15.178 0.25614-1.6772-0.18771-3.3411-0.29657-4.9647-0.30736-8.1987-0.0509-15.162 2.3485-16.48 9.0627-2.4315 1.4739-4.6678 3.2581-6.8827 5.0449-4.7293 3.7316-8.2897 8.2924-10.718 13.789-3.317 8.1184-0.32117 16.831 1.1636 25.059 0.35311 1.9259 0.72222 3.761 0.92023 4.4698 0.28106 0.99748 0.77578 1.95 1.3134 2.806 0.12566 0.0234 0.78911-1 0.94697-1.4524 0.23018-0.65867 0.20592-1.7146-0.0474-2.6242-0.55637-2.0463-1.0861-3.7074-1.1315-4.542-0.0798-1.5676 0.22515-3.0146 0.79705-3.7316 0.20324-0.25411 0.66869 1.0571 0.54836 1.5434-0.14214 0.58627-0.24838 1.5889-0.20322 2.0517 0.12566 1.5674 0.35597 3.2446 0.64192 4.7105 0.36652 1.8912 0.52433 3.1057 0.45726 3.5764-0.0484 0.34258-0.20827 0.68782-0.82383 1.7468-0.53503 0.9277-0.81325 1.6798-0.85603 2.3433-0.0474 0.64724 0.15033 2.2657 0.33198 2.6615 0.26453 0.61799 1.062 1.2678 1.7575 1.4285 0.66598 0.25377 1.0004 0.7804 1.3428 1.3722 0.83185 1.5861 1.4739 3.5177 2.1105 6.4278 0.31005 1.3937 0.56985 2.6376 0.65271 3.2902-5.1359 4e-3 -11.714 0.0101-17.706 0.0101-2.017 0.038-5.6602-0.91499-9.0012-1.1345-0.48415-5.2269-2.7792-11.299-6.706-11.652-2.6803-0.24366-4.9032 0.77539-6.7837 5.0102l0.0534 0.22683c1.1101-0.92769 2.2818-3.7664 6.5028-3.5711 3.242 0.14695 4.3227 6.2835 4.6437 9.975-1.9741 0.14461-3.6539 0.75129-4.5313 2.2684h-0.0169c0 9.3e-4 0 0.0101 0.0101 0.0169-0.0101 0.0101-0.0101 0.0101-0.0101 0.0169h0.0169c0.9041 1.5542 2.6455 2.1561 4.6918 2.2764 1.3669 38.653 37.701 43.639 47.63 43.639 37.043 0 50.011-25.171 51.961-35.141 0.91223 4.2478-1.9607 9.6591-2.6482 13.653 7.8136-9.0334 6.4012-17.719 4.9728-26.455 1.1877 1.4124 2.7953 2.2871 4.9754 1.803-1.5542-1.0381-3.662-0.31107-4.9246-4.6892-0.551-1.8912-1.0272-3.3089-1.5006-4.4993-1.0219-3.8332-2.4716-7.4952-4.2532-11.064-1.5033-3.8706-0.51094-6.3798-0.66068-9.7021 2.7043 8.9184 4.395 11.291 7.5514 12.225-7.9392-9.5656-5.2215-24.377-9.7074-37.596 2.0303 1.1929 4.3468 1.5514 6.8131 0.0886-2.386-0.67884-4.7667 1.1156-8.1906-3.916-2.8916-5.6256-7.0806-9.7798-12.163-13.444-2.7231-1.7762-5.7458-2.9692-8.7845-4.0766 3.095-0.77541 6.551-3.5309 6.7114-5.588zm-5.192 29.711c4.0766 1.4874 8.5705 7.1369 8.5197 12.679v0.30563c-0.10932 7.5274-3.531 11.575-3.3865 16.587 0.18436 5.9036 2.7257 7.9633 3.2313 8.9477-0.86661-3.6405-1.3749-8.2202-0.23019-11.847 1.4712-4.6651 2.9558-8.5278 2.8488-12.182-0.0535-0.85538-0.41717-4.0579-0.66065-5.4756 4.3708 6.3076-0.94703 15.48 0.58314 21.482 2.6589 10.456 14.576 11.778 11.029 32.846-3.1217 18.521-24.511 32.578-46.434 32.578-16.253 0-44.417-8.9958-45.808-40.905 3.3036-0.23627 6.8559-1.1561 8.8487-1.1231 6.024 0 12.904 8.7e-4 18.088 4e-3 0.97365 4.3922 1.704 5.4515 5.398 8.3779 4.1088 3.2315 5.0664 3.6246 11.144 3.6835 6.0802 0.0638 7.8831-1.2412 13.781-6.8212 1.2733-1.4926 1.8243-3.4481 2.4423-5.2856 6.0668-0.0509 10.491-0.16378 14.843-0.36693 4.4324-0.20087 5.0583 0 12.2-0.73605-7.1422-0.7361-7.768-0.53556-12.2-0.73861-4.2371-0.19279-8.5277-0.30198-14.33-0.35549 0.48675-2.1854 1.1822-4.32 1.9232-6.4306 0.45725-1.2437 0.99509-2.4555 1.5461-3.662l0.60191-0.18638c1.1609-0.4123 2.1881-1.2947 2.5974-2.4876 0.52692-1.581 0.15231-3.3571-0.86669-4.6491-0.35066-0.48478-0.78642-1.1016-0.96557-1.3749-0.53779-0.85029-0.55102-1.3242-0.0969-4.4859 0.38273-2.6482 0.42526-4.0339 0.16043-5.3767-0.0532-0.76775-0.0583-2.3459-0.0826-2.7713 0.20321 0.11424 0.64468 1.118 1.0914 2.4798 0.44386 1.3668 0.51625 1.6504 0.61784 2.814 0.11178 1.3214-0.3822 2.3005-0.78905 4.2718-0.20321 1.0166-0.38272 1.9609-0.38272 2.0892 0 0.13723 0.0963 0.42523 0.19783 0.64973 0.23794 0.50259 0.68475 1.2094 0.76761 1.2094 1.458-1.6077 2.314-3.5924 3.0763-5.6067 0.80247-2.279 1.0379-4.6972 1.5996-7.0431 0.45488-2.0437 0.97914-4.0901 1.1422-6.1872 0.32858-4.0926 0.1365-6.9816-0.76772-11.246-0.21703-0.96318-0.8425-2.8005-1.2786-3.6673zm-14.338 20.161c1.5648-0.0169 3.1136 0.17088 4.5876 0.59644 2.0035 0.76777 2.2844 2.5572 2.6536 4.5661 0.20592 1.2839 0.19782 2.2068-0.038 3.7154-0.16344 2.1882-1.0325 3.8813-2.9318 5.0717-2.8649 0.52919-5.9276 1.0406-8.3565-0.85534-2.0384-2.8087-3.2662-6.3584-2.798-9.8197 0.29658-1.4205 0.95767-2.1587 2.3165-2.6001 1.4632-0.42002 3.012-0.64975 4.5635-0.67388zm-23.762 0.25411c1.4632-0.0169 2.9425 0.14186 3.7557 0.66115 3.4908 2.362 2.37 6.2059 0.98976 9.5791-2.0089 4.4163-6.353 4.2531-10.563 4.2184-2.3299-0.68277-2.5439-2.5921-2.881-4.633-0.28848-1.9715-0.90404-4.0847-0.39034-6.0668 1.3188-3.1885 6.139-3.555 9.0895-3.7584zm53.24 0.55075c0.0169 8.4876 1.4685 12.658 4.3789 18.668-1.7147-3.2714-4.1649-5.1331-5.0771-9.0439-1.7441-7.5513 0.13651-7.1288 0.6981-9.6245zm-42.299 6.147c0.46013 0.46584 0.68214 1.1079 1.0808 1.6184 0.3077-0.52666 0.62321-1.0507 1.0191-1.5194 0.20593 4e-3 0.45728 0.41233 0.6849 1.1396 0.97361 2.6911 1.1635 5.6522 2.4261 8.2389 1.1796 1.8724-0.43051 2.9638-2.1988 3.0495-1.2893-8.9e-4 -1.835-0.88333-2.592-1.7549-0.19548 0.56982-0.56718 0.93659-1.011 1.3215-1.1289 0.94673-3.341 0.59646-3.6834-0.89594 0.45486-2.8514 1.9072-5.4704 2.8595-8.2041 0.47349-0.99748 0.47884-1.7628 1.4151-2.9933zm-16.563 14.405c0.56983 0 2.1346 1.0622 2.453 1.6612 0.2194 0.39845 0.71953 1.9501 0.75431 2.3272 0.056 0.44915-0.0798 1.514-0.21941 1.8028-0.10151 0.20559-0.17894 0.23624-0.29655 0.10166-0.0992-0.11467-1.4098-2.6267-2.247-4.2906-0.65799-1.3322-0.72751-1.6021-0.44384-1.6021zm32.693 0.83247c0.0234 9.4e-4 0.0534 0.0101 0.0826 0.0169 0.17626 0.0758 0.0535 0.69796-0.60991 2.9718-0.12566 0.6853-0.43045 1.2247-0.87739 1.6745-0.14693 0-0.214-0.17087-0.44384-1.1205-0.19548-0.81094-0.21637-1.5327-0.08-2.18 0.2356-0.81096 1.1877-1.0597 1.9286-1.3643zm-3.967 4.9566c0.056-0.0101 0.10961 0.0169 0.17928 0.0758 0.24098 0.16917 0.27569 0.61302 0.11525 1.4819-0.19547 1.1181-0.23794 1.2412-0.52689 1.3563-0.12566 0.0509-0.3507 0.10166-0.50028 0.10166-0.27028-0.0509-0.33967-0.2676-0.27567-0.59896 0-0.69545 0.20322-1.2999 0.66336-2.0141 0.1739-0.2676 0.2622-0.38178 0.34495-0.39611zm-23.093 0.0509c0.18437 0 0.74105 0.40087 0.94696 0.67893 0.23051 0.29419 0.49217 2.0464 0.34497 2.3487-0.16851 0.37935-0.9925 0.19008-1.2199-0.28275-0.13882-0.28277-0.46826-1.8136-0.46826-2.1774 0-0.3373 0.16346-0.56733 0.39562-0.56733zm21.108 0.46298c0.22513 0.32119 0.28343 0.73228 0.23492 1.637l-0.0479 0.82366-0.23558 0.23489c-0.14113 0.13072-0.38222 0.29185-0.52684 0.35783-0.31884 0.14997-0.56174 0.16381-0.60728 0.038-0.0532-0.16009 0.038-1.1828 0.13651-1.5275 0.11525-0.35546 0.63129-1.4177 0.80249-1.6424 0.0777-0.2056 0.1685 0.0509 0.24096 0.0762zm-13.431-0.0509c0.48417 0.12668 0.69811 0.55836 0.96298 0.95431l0.17897 0.35263-0.25109 0.87437c-0.13375 0.48102-0.27568 0.91503-0.31814 0.96323-0.0484 0.0509-0.2275 0.0758-0.49211 0.0758-0.70621-0.0169-0.78645-0.0509-0.97627-0.33731l-0.17627-0.26288 0.15031-0.73607c0.21637-1.0596 0.32118-1.3777 0.56168-1.6505 0.12566-0.14693 0.25108-0.22682 0.36075-0.23828zm-4.4698 0.75632 0.39847 0.39847 0.0667 0.901c0.038 0.49244 0.0509 0.94928 0.0234 1.0064-0.0234 0.0758-0.16852 0.10166-0.61527 0.10166h-0.58045c-0.31006-0.34018-0.4066-0.75385-0.53771-1.1828-0.30466-1.2867-0.30466-1.8725 0.0101-1.9501 0.51628 0.038 0.85599 0.40612 1.2332 0.72718zm15.515-0.61812c0.63123 0.16919 0.50556 1.1713 0.5029 1.8885-0.0484 1.1612-0.0944 1.4017-0.24366 1.5514-0.2595 0.26051-0.98172 0.11467-1.3321-0.27029-0.11525-0.13954-0.12566-0.18165-0.038-0.74622 0.10411-0.68786 0.23861-1.1155 0.53507-1.704 0.21705-0.42234 0.41997-0.68782 0.57246-0.71956zm-14.247 0.0509c0.0337-8.9e-4 0.0914 0 0.14417 0.0101 0.40136 0.038 0.7758 0.29423 1.1074 0.77542l0.26761 0.39324c0.0236 0.64464 0 1.324-0.11525 1.9232-0.0697 0.038-0.35836 0.0887-0.64207 0.11467-0.49214 0.0509-0.53766 0.038-0.70891-0.11467-0.23793-0.20321-0.30467-0.57994-0.36407-1.8324-0.0337-1.0216-0.0101-1.2488 0.31004-1.2653zm6.0694 0.21469c0.43099 0.0887 0.70358 0.3212 0.8239 0.69799 0.0963 0.32355 0.15538 2.1347 0.062 2.2604-0.0302 0.0509-0.23559 0.11423-0.46823 0.14996-0.86665 0.11467-1.6317 0.0236-1.7066-0.17896-0.0967-0.23592 0.54834-2.568 0.78644-2.857 0.10151-0.22446 0.34732-0.0509 0.50288-0.0758zm5.6121 0.0169c0.1904-0.0169 0.39325 0.16379 0.59114 0.55081 0.16045 0.32353 0.18435 0.43671 0.18435 1.1611 0 0.57752-0.0337 0.82619-0.0963 0.88075-0.0534 0.038-0.27028 0.11467-0.50024 0.17896-0.40135 0.10151-0.48952 0.11423-0.61529 0.0758l-0.60192-0.11467 0.0474-0.35786c0.0428-0.46823 0.35071-1.5059 0.5672-1.9554 0.12841-0.26759 0.27568-0.40089 0.42524-0.41999zm-2.6161 0.0101c0.12566-4e-3 0.18434 0.0236 0.26457 0.11467 0.19041 0.22446 0.43051 0.88839 0.58318 1.5969 0.20321 0.99753 0.20321 0.99492-0.23254 1.1257-0.18976 0.0638-0.59118 0.11467-0.87748 0.13723-0.9443 0.0509-1.0165-0.0101-0.90141-0.84269 0.0914-0.74371 0.45728-1.9151 0.61522-2.0008 0.17089-0.0886 0.36936-0.0886 0.54843-0.12812zm-48.13 3.7691c0.0101-8.5e-4 0.0169 0 0.0169 0 0.0234 0.52167 0.0234 1.0483 0.0337 1.5729-1.3241-0.10166-2.2978-0.41756-2.2978-0.78939 0-0.36648 0.93892-0.67889 2.2443-0.78421zm2.3138 0.0509c1.0726 0.13318 1.8136 0.41517 1.8002 0.73857 0 0.32623-0.71688 0.6041-1.7815 0.73605-0.0101-0.4898-0.0101-0.98227-0.0169-1.4738zm50.091 1.4258c0.0914-0.0101 0.13072-0.0169 0.27027-9.5e-4 0.55638 0.0509 0.63678 0.0889 0.63678 0.27768 0 0.24604-0.42288 0.98736-0.70902 1.2437-0.13376 0.12812-0.31816 0.23491-0.38226 0.23491-0.32118 0-0.50822-0.67643-0.35831-1.3 0.0914-0.33732 0.25715-0.44147 0.54304-0.45437zm-2.0196 0.22211c0.24904-0.0236 0.48948 0.0509 0.73017 0.0758-0.0697 0.70298-0.38511 1.2786-0.97094 1.661-0.14431 0-0.21637-0.27533-0.21637-0.87685 0-0.71707 0.038-0.85278 0.45727-0.86168zm-2.2149 0.25883c0.51622 0 0.97092 0.0234 0.99244 0.0509 0.0963 0.0889-0.18201 0.78175-0.59119 1.4821-0.35069 0.6231-0.40133 0.66879-0.61792 0.68528-0.85066-0.10166-0.82652-1.0939-0.95762-1.7788 0-0.40613 0.0913-0.4415 1.1743-0.4415zm-8.0489 0.0762c0.5911 0.0101 0.82116 0.10166 0.82116 0.32626 0 0.28949-0.21938 0.86423-0.34496 0.93656-0.19042 0.10166-0.20592 0.10166-0.58051-0.29185-0.59114-0.66377-0.65803-0.7869 0.10411-0.97089zm2.8461 0.0236c0.0101 0.0169 0.12566 0.22445 0.24097 0.4606 0.25142 0.4899 0.27029 0.70306 0.0914 0.86678-0.42239 0.2413-0.51093 0.10165-0.89343-0.13954-0.44386-0.41996-0.79443-0.98479-0.67946-1.1016 0.39608-0.14185 0.83191-0.0886 1.2412-0.0886zm1.1289 0.0169 1.0566 0.0169c0.41187 0 0.76765 0.0236 0.78645 0.0509 0.072 0.0636-0.1604 1.4392-0.28611 1.7494-0.1446 0.34782-0.65005 0.35021-0.91228-0.0636-0.37455-0.59137-0.62051-1.0888-0.62853-1.431z" clip-path="url(#b)" class="gray-700"/>
    <path class="gray-300" d="m 275.12441,297.89232 c -1.76172,0.0243 -3.38909,0.72065 -4.59761,1.98566 -0.84215,0.88156 -1.39167,1.86474 -1.71411,3.06577 -0.1427,0.53073 -0.16298,0.72762 -0.16159,1.58141 0.002,0.85181 0.0227,1.05405 0.16829,1.60363 0.6355,2.39683 2.50583,4.23663 4.91669,4.83665 0.20753,0.0516 0.46213,0.1059 0.56588,0.12029 0.45929,0.0636 1.57081,0.0368 2.06569,-0.0495 2.03747,-0.35518 3.84722,-1.66952 4.77625,-3.46847 1.08425,-2.09884 0.94104,-4.76458 -0.36141,-6.72319 -1.10619,-1.66368 -2.89699,-2.73214 -4.8955,-2.92121 -0.25636,-0.0242 -0.51089,-0.0344 -0.76258,-0.031 z m 15.29524,0.0129 c -1.83068,0 -3.38051,0.63901 -4.64871,1.91648 -1.3014,1.32146 -1.9516,2.88517 -1.9516,4.69107 0,1.80588 0.6502,3.35892 1.9516,4.65852 1.30137,1.29933 2.85122,1.94954 4.64871,1.94954 1.81963,0 3.39678,-0.65512 4.73081,-1.96606 1.25714,-1.24429 1.88604,-2.79159 1.88604,-4.642 0,-1.85042 -0.63931,-3.41359 -1.91805,-4.69107 -1.27982,-1.27747 -2.84597,-1.91648 -4.6988,-1.91648 z m 15.34067,0.43936 a 6.6085787,6.6085787 0 0 0 -2.53243,12.77625 l 1.5458,-4.02763 a 2.2946513,2.2946513 0 1 1 1.6444,0 l 1.5458,4.02763 a 6.6085787,6.6085787 0 0 0 -2.20357,-12.77625 z m -15.32415,0.74966 c 1.49996,0 2.77357,0.52869 3.82111,1.58607 1.05858,1.04604 1.58811,2.32353 1.58811,3.83246 0,1.51969 -0.51861,2.78132 -1.55508,3.7834 -1.09231,1.0795 -2.37631,1.6191 -3.85414,1.6191 -1.47836,0 -2.75252,-0.53414 -3.82161,-1.60257 -1.07022,-1.06845 -1.60361,-2.33526 -1.60361,-3.79993 0,-1.46496 0.53942,-2.74219 1.62013,-3.83246 1.03646,-1.05739 2.30516,-1.58607 3.80509,-1.58607 z m -15.22194,0.008 c 0.87575,-0.002 1.36156,0.087 2.1256,0.3929 1.53377,0.61428 2.73611,2.00492 3.17832,3.67654 0.18496,0.69932 0.18206,2.04756 -0.006,2.74514 h -5.3e-4 c -0.53236,1.97276 -2.15218,3.47823 -4.19645,3.90008 -3.18718,0.65792 -6.29289,-1.75346 -6.49086,-5.04006 -0.12807,-2.12276 1.15704,-4.25275 3.13029,-5.18772 0.74718,-0.35407 1.34887,-0.48378 2.2593,-0.48688 z m 15.18115,1.14359 c -0.49811,0.0175 -0.89249,0.42633 -0.89216,0.92469 -3e-5,0.5107 0.41394,0.92466 0.92471,0.92469 0.51073,-3e-5 0.92471,-0.41399 0.92466,-0.92469 5e-5,-0.51068 -0.41393,-0.92467 -0.92466,-0.92469 -0.0108,-1.8e-4 -0.0217,-1.8e-4 -0.0325,0 z m -1.31965,2.20458 c -0.23506,0 -0.42644,0.1906 -0.42644,0.42647 v 2.70331 h 0.7548 v 3.20052 h 2.04816 v -3.20052 h 0.75378 v -2.70331 c 0,-0.23586 -0.1914,-0.42647 -0.42644,-0.42647 z m -11.75913,0.0263 c -0.31972,-0.007 -0.63903,0.0434 -0.87563,0.15075 -0.81562,0.37031 -1.23263,1.24043 -1.09094,2.27583 0.0977,0.71469 0.55214,1.32252 1.14669,1.53339 0.14243,0.0505 0.48819,0.0941 0.76823,0.0971 0.44804,0.005 0.55539,-0.0181 0.89632,-0.18844 0.33309,-0.16637 0.82814,-0.62807 0.82814,-0.77186 0,-0.022 -0.17236,-0.12712 -0.38311,-0.23336 l -0.38361,-0.19362 -0.19878,0.2282 c -0.44232,0.50754 -1.22169,0.35725 -1.43528,-0.27673 -0.10488,-0.31193 -0.0899,-0.99607 0.0279,-1.27525 0.13167,-0.31204 0.3756,-0.46105 0.75482,-0.46105 0.27548,0 0.32914,0.0242 0.53026,0.24369 l 0.22355,0.24421 0.43212,-0.2091 c 0.23778,-0.11492 0.43216,-0.22666 0.43216,-0.24834 0,-0.12757 -0.49613,-0.58333 -0.79304,-0.72849 -0.23984,-0.11743 -0.56004,-0.18031 -0.87976,-0.1869 z m -3.86757,0.003 c -0.31465,-0.002 -0.62483,0.0471 -0.84519,0.14714 -0.81324,0.36944 -1.21243,1.1924 -1.09145,2.2526 0.0813,0.71532 0.5437,1.3433 1.1467,1.55715 h 5.3e-4 c 0.14232,0.0503 0.48755,0.0935 0.76823,0.0966 0.44805,0.005 0.55549,-0.0181 0.8963,-0.18846 0.40105,-0.20034 0.89968,-0.70905 0.79096,-0.80696 -0.0314,-0.0283 -0.20233,-0.1311 -0.37947,-0.22871 l -0.32218,-0.17762 -0.24989,0.26332 c -0.24793,0.2608 -0.35374,0.29661 -0.77288,0.26434 -0.19934,-0.0153 -0.4106,-0.14975 -0.53643,-0.34179 -0.24256,-0.37018 -0.22501,-1.31046 0.0309,-1.67022 0.15482,-0.21742 0.49684,-0.34514 0.78269,-0.29119 0.11531,0.0215 0.30508,0.13677 0.42906,0.26073 l 0.222,0.22253 0.41666,-0.20549 c 0.22873,-0.11282 0.41613,-0.22336 0.41613,-0.24576 0,-0.13611 -0.54252,-0.62585 -0.83123,-0.75068 -0.23779,-0.10279 -0.55687,-0.15564 -0.87152,-0.15748 z" />
    <rect transform="rotate(-15)" x="151.66" y="229.61" width="21.734" height="145.14" fill="url(#a)"/>
    <g transform="matrix(.075655 .28235 -.12714 .034066 214.18 150.21)">
      <rect x="2.8422e-14" y="-54.459" width="100" height="20" fill="#ef4444"/>
      <rect x="100" y="-54.459" width="100" height="20" fill="#f97316"/>
      <rect x="200" y="-54.459" width="100" height="20" fill="#facc15"/>
      <rect x="300" y="-54.459" width="100" height="20" fill="#22c55e"/>
      <rect x="400" y="-54.459" width="100" height="20" fill="#3b82f6"/>
      <rect x="500" y="-54.459" width="100" height="20" fill="#8b5cf6"/>
    </g>
  </g>
</svg>
