<?xml version="1.0" encoding="UTF-8" standalone="no"?>
<!-- Created with Inkscape (http://www.inkscape.org/) -->

<svg
   width="384"
   height="384"
   viewBox="0 0 101.59999 101.59999"
   version="1.1"
   id="svg1"
   inkscape:version="1.4-beta (f21c272752, 2024-04-22, custom)"
   sodipodi:docname="knitbinding_d.svg"
   xmlns:inkscape="http://www.inkscape.org/namespaces/inkscape"
   xmlns:sodipodi="http://sodipodi.sourceforge.net/DTD/sodipodi-0.dtd"
   xmlns="http://www.w3.org/2000/svg"
   xmlns:svg="http://www.w3.org/2000/svg">
  <sodipodi:namedview
     id="namedview1"
     pagecolor="#ffffff"
     bordercolor="#000000"
     borderopacity="0.25"
     inkscape:showpageshadow="2"
     inkscape:pageopacity="0.0"
     inkscape:pagecheckerboard="0"
     inkscape:deskcolor="#d1d1d1"
     inkscape:document-units="mm"
     inkscape:zoom="12.243923"
     inkscape:cx="214.7596"
     inkscape:cy="42.265865"
     inkscape:window-width="2256"
     inkscape:window-height="1427"
     inkscape:window-x="0"
     inkscape:window-y="0"
     inkscape:window-maximized="1"
     inkscape:current-layer="layer1"
     showgrid="false">
    <inkscape:grid
       id="grid20"
       units="mm"
       originx="0"
       originy="0"
       spacingx="0.9999999"
       spacingy="0.9999999"
       empcolor="#0099e5"
       empopacity="0.30196078"
       color="#0099e5"
       opacity="0.14901961"
       empspacing="5"
       dotted="false"
       gridanglex="30"
       gridanglez="30"
       visible="false" />
  </sodipodi:namedview>
  <defs
     id="defs1">
    <inkscape:path-effect
       effect="spiro"
       id="path-effect2"
       is_visible="true"
       lpeversion="1" />
  </defs>
  <g
     inkscape:label="Ebene 1"
     inkscape:groupmode="layer"
     id="layer1"
     transform="translate(-54.241072,-78.755178)">
    <path
       style="fill:#ac9393;stroke:#000000;stroke-width:0.264583px;stroke-linecap:butt;stroke-linejoin:miter;stroke-opacity:1"
       d="m 114.98463,92.06338 2.10006,3.801417 -4.3054,1.60772 -1.17896,-4.030976 z"
       id="path6" />
    <path
       style="fill:#ac9393;stroke:#000000;stroke-width:0.264583px;stroke-linecap:butt;stroke-linejoin:miter;stroke-opacity:1"
       d="m 99.909427,93.452297 -3.7192,-1.412639 -0.803087,3.349594 3.760089,0.774723 z"
       id="path7" />
    <g
       id="g79"
       style="stroke-width:1.93805;stroke-dasharray:none"
       transform="matrix(0.13655335,0,0,0.13648744,26.21335,152.21015)">
      <path
         id="fs-10"
         class="fabric sa"
         d="m 458.44023,25.299748 -53.11975,8.410339 -8.31991,11.439612 c 1.14325,7.207038 -4.97651,14.318638 1.74988,23.548804 9.01482,12.370407 4.01232,34.355387 1.62976,56.201367 -3.08233,28.26222 -3.16957,47.36979 -13.54956,57.75978 -1.41,1.4 -3.86008,3.09035 -6.83007,4.85035 -4.37,2.59 -9.80042,5.18002 -15.24042,6.89002 -3.38999,1.07 -6.76989,1.80971 -9.82989,1.80971 l -9.9999,9.99991 c 0,40.99995 7.59026,81.84032 15.22026,117.53029 7.31999,34.19996 14.77997,63.44976 14.77997,83.01974 0,19.68998 -5.50034,32.37006 -12.34033,44.96004 -0.73,1.34 -1.47978,2.68032 -2.28978,4.14032 -2.27,4.04 -4.63987,8.14997 -7.23987,12.92996 -1.69,3.12 -3.39034,6.34977 -5.05034,9.77977 -8.42999,17.42998 -14.09,47.33003 -17.37,77.31 -2.93999,26.78998 -4.08967,53.56993 -4.08967,70.87992 l 8.08995,29.94029 c 37.20996,3.88999 59.91994,6.26994 82.63991,7.71994 l 1.90996,0.0599 c 35.61997,2.28 71.23991,2.27997 162.68981,2.27997 91.44991,0 127.07037,3e-5 162.69033,-2.27997 l 1.90996,-0.0599 c 22.71998,-1.45 45.42996,-3.82995 82.63992,-7.71994 l 8.08995,-29.94029 c 0,-17.30999 -1.1502,-44.08994 -4.09019,-70.87992 -3.28,-29.97997 -8.94001,-59.88002 -17.37,-77.31 -1.66,-3.43 -3.35983,-6.65977 -5.04982,-9.77977 -2.6,-4.77999 -4.96987,-8.88996 -7.23987,-12.92996 -0.81,-1.46 -1.5603,-2.80032 -2.2903,-4.14032 -6.83999,-12.58998 -12.33982,-25.27006 -12.33982,-44.96004 0,-19.56998 7.45999,-48.81978 14.77998,-83.01974 7.62999,-35.68997 15.22026,-76.53034 15.22026,-117.53029 l -10.00042,-9.99991 c -3.06,0 -6.4399,-0.73971 -9.82989,-1.80971 -5.44,-1.71 -10.86991,-4.30002 -15.2399,-6.89002 -2.97,-1.76 -5.42008,-3.45035 -6.83008,-4.85035 -10.37998,-10.38999 -23.93605,-29.32981 -23.93605,-57.75978 0,-18.38611 -2.30164,-32.868287 11.65068,-50.166697 9.10945,-11.294092 0.76834,-21.091237 2.11545,-29.583474 l -8.3199,-11.439612 -53.12027,-8.410339 C 674.09457,60.090544 607.171,59.769324 556.51352,57.1537 522.18856,55.381382 481.98006,53.749484 458.44023,25.299748 Z"
         style="fill:#212178;fill-opacity:1;stroke:#212121;stroke-width:1.93805;stroke-linecap:round;stroke-linejoin:round;stroke-dasharray:none;stroke-opacity:1"
         sodipodi:nodetypes="cccssccccccscccccccccscccccccccsccccccsscccac" />
    </g>
    <g
       id="g25"
       transform="matrix(0.13655335,0,0,0.13648744,183.01722,130.90465)"
       style="stroke-width:1.93805;stroke-dasharray:none">
      <!-- Start of group #fs-stack-bibi.front-part-bibi.front -->
      <g
         id="g24"
         transform="matrix(1,0,0,-1,-568.86447,58.409633)"
         style="stroke-width:1.93805;stroke-dasharray:none">
        <path
           id="path3"
           style="fill:#212178;fill-opacity:1;stroke:#212121;stroke-width:1.93805;stroke-linecap:round;stroke-linejoin:round;stroke-dasharray:none;stroke-opacity:1"
           class="fabric sa"
           d="m -44.714735,318.72633 c -0.784505,0.78488 -1.53392,1.5624 -2.240676,2.31194 -23.455579,18.85525 -67.861509,37.53 -95.387619,63.72517 L -470.46468,63.95599 c 34.33275,-27.801341 42.1028,-69.1093283 69.0525,-99.420928 0.74918,-0.707102 1.52667,-1.456526 2.31118,-2.241417 3.91548,-3.931507 25.05992,-28.407545 29.92937,-33.944345 2.24037,-2.566875 4.98254,-5.678113 7.78833,-8.725795 2.45242,-2.679991 4.81256,-5.183405 7.1873,-7.55928 l 0.3041,-0.318398 c 0.94,-0.940454 1.89429,-1.866771 2.84843,-2.77893 5.39975,-5.147667 10.60179,-9.757917 15.75434,-13.950817 l 14.03993,1.41821 c 0.43136,0.51642 0.89093,1.0185 1.39298,1.52078 2.03647,2.03745 4.57503,3.912417 7.29714,5.617607 5.16849,3.233506 10.98709,5.80244 15.82999,7.409126 2.46034,0.806887 4.60922,1.387171 6.17865,1.54315 14.61272,1.453438 33.92498,-4.525285 56.0689,-22.675733 11.71868,-9.60199 21.17531,-18.35593 28.98506,-26.16945 8.05713,-8.061 14.3547,-15.12525 19.55631,-21.07926 1.54069,-1.76783 2.98209,-3.43665 4.34609,-5.01355 1.30041,-1.49911 -0.2688,-2.63798 0.91147,-3.97444 l 59.68978,43.39876 c -58.42486,123.19485196 46.165613,315.61925 76.278095,441.71505 z"
           sodipodi:nodetypes="cccccccccccccsccccsccccc" />
        <path
           id="path1"
           style="fill:#212178;fill-opacity:1;stroke:#212121;stroke-width:1.93805;stroke-linecap:round;stroke-linejoin:round;stroke-dasharray:none;stroke-opacity:1"
           class="fabric sa"
           d="m 52.057077,312.96704 c 0.784505,0.78488 1.53392,1.5624 2.240677,2.31194 23.455578,18.85525 67.861516,37.53 95.387616,63.72517 L 477.80702,58.1967 c -34.33275,-27.801341 -42.1028,-69.109328 -69.0525,-99.420921 -0.74918,-0.707102 -1.52666,-1.456526 -2.31117,-2.241417 -3.91548,-3.931507 -25.05993,-28.407545 -29.92937,-33.944345 -2.24037,-2.566875 -4.98254,-5.678113 -7.78833,-8.725796 -2.45242,-2.67999 -4.81256,-5.183404 -7.1873,-7.559279 l -0.30411,-0.318399 c -0.93999,-0.940453 -1.89429,-1.86677 -2.84843,-2.778929 -5.39975,-5.147664 -10.60178,-9.757914 -15.75434,-13.950824 l -14.03993,1.41821 c -0.43135,0.51642 -0.89093,1.0185 -1.39297,1.52079 -2.03648,2.03745 -4.57504,3.91242 -7.29715,5.6176 -5.16848,3.23351 -10.98709,5.802444 -15.82999,7.40913 -2.46033,0.806887 -4.60922,1.387171 -6.17865,1.543149 -14.61271,1.453439 -33.92497,-4.525284 -56.0689,-22.675739 -11.71868,-9.60198 -21.17531,-18.35592 -28.98505,-26.16944 -8.05713,-8.06101 -14.3547,-15.12526 -19.55632,-21.07927 -1.54069,-1.76783 -2.98209,-3.43665 -4.34609,-5.01355 -1.3004,-1.49911 -2.54424,-2.91335 -3.7245,-4.24982 l -59.32472,49.43343 C 189.56238,-2.3103101 78.953498,185.9278 52.057077,312.96704 Z"
           sodipodi:nodetypes="cccccccccccccsccccsccccc" />
        <path
           style="fill:none;fill-opacity:0.238985;stroke:#cccccc;stroke-width:1.46498;stroke-dasharray:1.46498, 1.46498;stroke-dashoffset:0;stroke-opacity:1"
           d="m 185.21192,-172.42215 -59.32472,49.43343"
           id="path14"
           sodipodi:nodetypes="cc" />
        <path
           style="fill:none;fill-opacity:0.238985;stroke:#cccccc;stroke-width:1.46498;stroke-dasharray:1.46498, 1.46498;stroke-dashoffset:0;stroke-opacity:1"
           d="m -180.68261,-166.38748 59.68978,43.39876"
           id="path41"
           sodipodi:nodetypes="cc" />
      </g>
      <!-- end of group #fs-stack-bibi.front-part-bibi.front -->
    </g>
    <path
       id="path5"
       style="fill:#aa0000;stroke:#1a1a1a;stroke-width:0.264583px"
       d="M 112.68247 92.937775 L 111.23708 93.582697 C 114.70677 103.89751 117.90162 114.3047 120.81737 124.78958 C 121.85919 128.5359 122.86801 132.3051 123.38621 136.15891 C 123.82207 139.40037 123.90731 142.67722 124.10657 145.94177 C 124.19537 147.39666 124.30728 148.85574 124.20838 150.30998 C 124.10948 151.76422 123.79031 153.22656 123.06995 154.49371 C 122.30383 155.84134 121.10742 156.91621 119.75387 157.67181 C 118.40031 158.4274 116.89215 158.87627 115.36447 159.13942 C 112.14823 159.69343 108.85709 159.44292 105.59349 159.45103 C 101.74471 159.46103 97.822931 159.82479 94.102205 158.84021 C 93.021687 158.55428 91.963826 158.15319 91.018672 157.55657 C 90.073519 156.95995 89.242401 156.16056 88.699434 155.18359 C 87.873611 153.69768 87.766902 151.93252 87.67469 150.23505 C 87.413223 145.42186 87.12326 140.58043 87.685542 135.79304 C 88.498127 128.87453 91.058171 122.30396 93.330159 115.71881 C 95.850881 108.41273 98.040164 100.99246 99.888932 93.488129 L 98.462662 92.975499 C 96.62901 100.40791 94.433592 108.00347 91.937479 115.23822 C 89.678222 121.78647 87.064357 128.45392 86.222582 135.62096 C 85.640069 140.5806 85.941766 145.50675 86.202945 150.31463 C 86.295515 152.01868 86.372076 154.02681 87.412174 155.89827 C 88.099767 157.13546 89.116927 158.09566 90.234224 158.80094 C 91.34651 159.50306 92.544541 159.95167 93.72445 160.2639 C 97.779132 161.33685 101.83887 160.93357 105.59763 160.92381 C 108.78368 160.91581 112.16036 161.18508 115.6151 160.58998 C 117.25862 160.30688 118.92714 159.81861 120.47062 158.957 C 122.02038 158.09187 123.42396 156.85083 124.34945 155.22286 C 125.2179 153.69523 125.56862 152.0119 125.67754 150.41024 C 125.78606 148.8146 125.66411 147.2911 125.57625 145.85134 C 125.37907 142.62101 125.29549 139.30918 124.84555 135.96306 C 124.31063 131.98491 123.28081 128.15042 122.2364 124.39477 C 119.32072 113.91014 116.15054 103.25377 112.68247 92.937775 z " />
    <path
       id="path4"
       style="fill:none;stroke:#ff0000;stroke-width:0.264583px;stroke-dasharray:0.793749, 0.793749"
       d="m 98.449219,94.191406 c -1.77653,7.076004 -3.852465,14.269084 -6.22461,21.144534 -2.262731,6.55831 -4.863159,13.20193 -5.699218,20.32031 -0.578511,4.92556 -0.280847,9.83216 -0.01953,14.64258 0.09357,1.72226 0.169615,3.64779 1.171875,5.45117 0.659114,1.18594 1.635938,2.11141 2.71875,2.79492 1.07898,0.6811 2.245761,1.11674 3.40625,1.42383 3.994531,1.05703 8.006284,0.66023 11.794924,0.65039 3.20944,-0.008 6.55329,0.25953 9.96484,-0.32812 1.62107,-0.27924 3.25455,-0.75937 4.75977,-1.59961 1.51044,-0.84318 2.86964,-2.04655 3.76367,-3.61914 0.83973,-1.47711 1.18404,-3.10873 1.29101,-4.68165 0.10673,-1.56916 -0.0152,-3.07236 -0.10351,-4.51953 -0.1977,-3.23876 -0.28131,-6.54336 -0.72852,-9.86914 -0.53155,-3.95316 -1.55747,-7.77084 -2.60156,-11.52539 -2.81792,-10.13305 -5.89494,-20.41061 -9.22656,-30.398435 h 0"
       sodipodi:nodetypes="csssssscscsscccsc" />
  </g>
</svg>
