<?xml version="1.0" encoding="UTF-8" standalone="no"?>
<!--

      __                           _           
     / _|_ _ ___ ___ ________ __ _(_)_ _  __ _ 
    |  _| '_/ -_) -_|_-< -_) V  V / | ' \/ _` |
    |_| |_| \___\___/__|___|\_/\_/|_|_||_\__, |
                  freesewing.org         |___/ 
     
    This pattern is available under a 
    Creative Commons Attribution license (CC-BY)
    https://creativecommons.org/licenses/by/3.0/
    See: https://docs.freesewing.org/license 

  -->

<svg
    width ="2111.8039390258"
    height ="1204.7244106"
    viewbox ="0 0 2111.8039390258 1204.7244106" class="freesewing"
    xmlns:dc="http://purl.org/dc/elements/1.1/"
    xmlns:cc="http://creativecommons.org/ns#"
    xmlns:rdf="http://www.w3.org/1999/02/22-rdf-syntax-ns#"
    xmlns:svg="http://www.w3.org/2000/svg"
    xmlns="http://www.w3.org/2000/svg"
    xmlns:xlink="http://www.w3.org/1999/xlink"
    xmlns:sodipodi="http://sodipodi.sourceforge.net/DTD/sodipodi-0.dtd"
    xmlns:inkscape="http://www.inkscape.org/namespaces/inkscape" 
>

<style type="text/css">
    <![CDATA[
    path,circle,rect{fill:none;stroke:none}path{fill:none;stroke:#000;stroke-opacity:1;stroke-width:.3;stroke-linecap:round;stroke-linejoin:round}path.fabric{stroke-width:.6;stroke:#653f95}path.lining{stroke-width:.6;stroke:#0275d8}path.interfacing{stroke-width:.6;stroke:#d9534f}path.canvas{stroke-width:.6;stroke:#5cb85c}path.various{stroke-width:.6;stroke:#5bc0de}path.sa{stroke-dasharray:0.4,0.8}path.help{stroke-width:.2;stroke-dasharray:15,1.5,1,1.5}path.hint{stroke-width:.2;stroke-dasharray:0.4,0.8}path.note{stroke:#0275d8;stroke-width:.6;marker-start:url(#noteArrow)}text{font-size:5px;font-family:-apple-system,system-ui,BlinkMacSystemFont,"Segoe UI",Roboto,"Helvetica Neue",Arial,sans-serif;fill:#000;text-anchor:start;font-weight:200}text.part-nr{font-size:28px;text-anchor:middle;fill:#000;font-weight:100}text.part-nr.horizontal{text-anchor:start}text.part-title{font-size:18px;text-anchor:middle;fill:#000}text.part-title.horizontal{text-anchor:start}text.part-msg{font-size:10px;text-anchor:middle}text.part-msg.horizontal,text.part-title.vertical,text.part-msg.vertical{text-anchor:start}text.part-nr.small{font-size:14px}text.part-title.small{font-size:9px}text.part-msg.small{font-size:5px}text.note,text.dimension-label{fill:#0275d8}text.note tspan{alignment-baseline:middle}text.note-5,text.note-6,text.note-7,text.note-11,text.note-12,text.note-0,text.note-1,text.dimension-label{text-anchor:middle}text.note-8,text.note-9,text.note-10{text-anchor:end}text.dimension-label{font-size:7px}text.grainline{fill:#999}path.arrow{stroke:#0275d8}path.grainline{stroke:#999;stroke-width:.6;marker-start:url(#grainlineStart);marker-end:url(#grainlineEnd)}path.dimension{stroke:#0275d8;stroke-width:.6;marker-start:url(#dimensionStart);marker-end:url(#dimensionEnd)}path.dimension.dimension-sm{stroke-width:.3}path.dimension-leader{stroke:#0275d8;stroke-width:.3}path.single-arrow{marker-start:url(#dimensionStart)}path.double-arrow{marker-start:url(#dimensionStart);marker-end:url(#dimensionEnd)}.text-xs{font-size:3px}.text-sm{font-size:4px}.text-lg{font-size:7px}.text-xl{font-size:9px}.text-center{text-anchor:middle}.stroke-xs{stroke-width:.1}.stroke-sm{stroke-width:.2}.stroke-lg{stroke-width:.6}.stroke-xl{stroke-width:1}.stroke-xxl{stroke-width:2}.dashed{stroke-dasharray:1,1.5}.dotted{stroke-dasharray:0.4,0.8}.hidden{stroke:none;file:none}.stroke-fabric{stroke:#653f95}.stroke-lining{stroke:#0275d8}.stroke-interfacing{stroke:#d9534f}.stroke-canvas{stroke:#5cb85c}.stroke-note{stroke:#0275d8}.stroke-mark{stroke:#f0ad4e}.stroke-hint{stroke:#86739c}.stroke-gray{stroke:#999}.fill-fabric{fill:#653f95}.fill-lining{fill:#0275d8}.fill-interfacing{fill:#d9534f}.fill-canvas{fill:#5cb85c}.fill-note{fill:#0275d8}.fill-mark{fill:#f0ad4e}.fill-hint{fill:#86739c}.fill-gray{fill:#999}]]>
</style>

<defs id="defs">
    <marker orient="auto" refY="0.0" refX="0.0" id="noteArrow" style="overflow:visible;" > <path style="stroke: #0275d8; fill: #0275d8;" d="M 0,0 L 9,-3 C 8,-2 8,2  9, 3 z" /> </marker>
    <marker orient="auto" refY="0.0" refX="0.0" id="dimensionStart" style="overflow:visible;" > <path style="stroke: #0275d8; fill: #0275d8;" d="M 0,0 L 12,-4 C 10,-2 10,2  12, 4 z" /> </marker>
    <marker orient="auto" refY="0.0" refX="0.0" id="dimensionEnd" style="overflow:visible;" > <path style="stroke: #0275d8; fill: #0275d8;" d="M 0,0 L -12,-4 C -10,-2 -10,2  -12, 4 z" /> </marker>
    <marker orient="auto" refY="0.0" refX="0.0" id="grainlineStart" style="overflow:visible;" > <path style="stroke: #999999; fill: #999999;" d="M 0,0 L 12,-4 C 10,-2 10,2  12, 4 z" /> </marker>
    <marker orient="auto" refY="0.0" refX="0.0" id="grainlineEnd" style="overflow:visible;" > <path style="stroke: #999999; fill: #999999;" d="M 0,0 L -12,-4 C -10,-2 -10,2  -12, 4 z" /> </marker>
    <g id="notch"> <circle cy="0" cx="0" r="1.4" class="fill-mark" /> <circle cy="0" cx="0" r="2.8" class="stroke-mark stroke-xl" /> </g>
    <g id="scalebox"> <rect y="0" x="-50.8" height="50.8" width="101.6" style="fill:#333333;fill-opacity:1;stroke:none" /> <rect style="fill:#ffffff;fill-opacity:1;stroke:none" width="100" height="50" x="-49.6" y="0.4" /> <text x="-40" y="10" class="text-sm"> <tspan x="-40" dy="4" class="text-xs">freesewing.org</tspan> <tspan x="-40" dy="8" class="text-xl">Cathrin Corset </tspan> <tspan x="-40" dy="8" class="fill-brand">freesewing.org/drafts/__REFERENCE__</tspan> </text> <text y="0" x="0" class="text-xs text-center"> <tspan x="0" y="42">The (white) inside of this box should measure 10 by 5 cm</tspan> <tspan x="0" dy="5">The (black) outside of this box should measure 4 by 2 inch</tspan> </text> </g>
    <g id="logo-sm" transform="scale(0.4)"> <use xlink:href = "#logo"/> </g>
    <g id="logo-lg" transform="scale(2)"> <use xlink:href = "#logo"/> </g>
    <g id="logo" transform="translate(-23 -36)"> 
    <path style="fill:#000;fill-opacity:1;stroke:none;" d="M 23.6,48 C 22.2,47.9 20.9,47.7 19.6,47.4 17.8,46.9 16.9,46.6 15.2,45.8 12.5,44.5 10.6,43 9,40.6 8.6,40 8.5,39.9 8.1,39.1 7.7,38.4 7.6,38.3 7.2,37.2 6.8,36.2 6.5,35.1 6.2,34 6,33.2 6,32.4 5.9,31.6 5.9,31.6 5.8,31.6 5.6,31.5 5.2,31.4 4.81,31.2 4.59,30.8 4.84,30.3 5.4,30.1 5.9,30 6.2,30 6.2,29.9 6.2,29.5 6.2,28.4 6,27.4 5.3,26.6 4.44,25.8 3.09,26.1 2.4,27 2.26,27.1 2.11,27.4 2.03,27.5 1.96,27.5 2,27.1 2.34,26.6 3.71,24.8 5.5,25.3 6.4,27.1 6.7,27.8 6.8,28.4 6.9,29.4 6.9,29.6 6.9,29.8 6.9,29.8 7,29.9 7.1,29.9 7.5,30 9.8,30.4 9.8,30.4 12.5,30.4 14.4,30.4 15.1,30.4 16.5,30.3 16.9,30.3 16.9,30.3 16.9,30.2 17,30.1 16.9,29.8 16.7,29.1 16.5,28 16.3,27.3 16,26.7 15.8,26.5 15.8,26.4 15.7,26.3 15.6,26.2 15.5,26.2 15.4,26.2 15.2,26.1 14.9,25.9 14.8,25.6 14.7,25.5 14.6,24.9 14.7,24.6 14.7,24.4 14.8,24.1 15,23.8 15.2,23.4 15.3,23.2 15.3,23.1 15.3,22.9 15.3,22.5 15.1,21.8 15,21.2 14.9,20.6 14.9,20 14.9,19.8 14.9,19.4 15,19.2 15,19 15,19 14.9,19.1 14.7,19.4 14.6,19.9 14.6,20.5 14.6,20.8 14.7,21 14.9,21.7 15,22.1 15,22.5 14.9,22.7 14.8,22.9 14.6,23.3 14.5,23.3 14.5,23.3 14.5,23.3 14.5,23.2 14.3,22.9 14.1,22.5 14,22.2 14,22 13.8,21.3 13.7,20.5 13.6,19.7 13.4,18.8 13.2,18.1 13,17.1 12.8,15.6 12.7,15 12.7,14.5 12.7,13.5 12.7,13.2 12.7,12.8 13,11.7 13.3,11.1 13.5,10.5 14.1,9.39 14.6,8.74 14.7,8.62 14.8,8.45 14.9,8.36 15.4,7.65 16.1,6.89 17.3,5.93 17.8,5.52 19.1,4.54 19.1,4.54 19.1,4.54 19.1,4.52 19.2,4.49 19.3,4.36 19.9,3.99 20.3,3.81 20.4,3.76 20.6,3.67 20.7,3.61 20.9,3.55 21.1,3.45 21.3,3.38 21.6,3.25 21.6,3.28 21.8,2.88 22.7,1.81 23.8,1.2 25.1,0.775 26.2,0.433 27.2,0.271 28.3,0.264 30.5,0.274 31.8,1.27 34.1,0.69 34.4,0.563 34.9,0.295 35.1,0.099 35.2,0.036 35.3,-0.008 35.3,0.001 35.3,0.029 34.9,0.43 34.6,0.6 33.9,1.14 33.4,1.32 32.5,1.4 32.3,1.43 32.1,1.45 32,1.46 31.9,1.48 32,1.51 32.5,1.55 34.1,1.68 35.7,2.15 37.1,2.82 37.9,3.19 38.6,3.76 39.3,4.57 39.9,5.14 40.3,5.81 40.8,6.48 41.2,7.11 41.6,8.16 41.9,8.92 42.4,10.6 42.6,12.3 42.7,15.8 42.7,16.4 42.8,17 42.8,17.6 42.9,19.3 43,19.9 43.8,22 44,22.6 44,22.7 44.2,23 44.4,23.4 44.6,23.7 44.8,23.9 44.9,24 44.9,24.1 44.9,24.1 44.9,24.2 44.4,23.7 44.1,23.3 43.9,23 43.4,22.1 43.1,21.7 42.9,21.1 42.4,19.5 42.3,18.9 42.2,18.4 42.1,17 42,16.2 41.9,14.5 41.7,13.1 41.5,12 41.1,10.6 40.6,9.32 39.8,8.14 39.4,7.53 38.7,6.56 38.3,6.1 37.6,5.31 36.8,4.61 36,4 35,3.27 33.8,2.85 32.5,2.56 31.2,2.3 30.5,2.23 29.1,2.25 27.4,2.27 26,2.5 24.9,2.91 24.2,3.19 23.8,3.37 23.3,3.71 22.9,4 22.3,4.49 22.3,4.53 22.4,4.54 22.4,4.49 22.6,4.42 25,2.86 26.9,2.4 29.7,2.41 30.4,2.43 31.4,2.51 31.8,2.57 33.5,2.76 34.9,3.42 36.3,4.44 36.6,4.72 37.5,5.58 37.8,5.94 38.8,7.07 39.7,8.38 40.4,9.74 41,10.8 41.3,11.9 41.5,13.1 41.6,13.8 41.6,14 41.6,14.4 41.6,14.8 41.6,14.8 41.5,14.3 41.3,13.8 41.1,13.3 41,12.8 40.7,12.1 40.3,11.1 40,10.6 39.3,9.19 38.3,7.96 37.2,6.85 37.1,6.68 36.7,6.41 36.5,6.25 35.6,5.57 34.7,4.98 33.7,4.5 32.6,4.03 31.5,3.83 30.3,3.67 28.7,3.56 27.2,3.68 25.6,4 24.7,4.22 23.7,4.6 22.9,5.14 22.5,5.41 22.4,5.51 22.5,5.47 22.5,5.46 22.7,5.33 23,5.19 23.9,4.58 25,4.31 26,4.1 27.1,3.94 28.3,3.91 29.4,4.01 32.4,4.19 33.8,4.68 36.2,6.37 37.2,7.12 38,8.06 38.7,9.04 39,9.52 39.4,10.2 40.2,11.6 40.5,12.1 40.8,12.9 41,13.3 41.2,14 41.6,15.2 41.6,15.5 41.8,16.6 41.8,17.7 42,18.8 42,19 42.1,19.5 42.2,19.9 42.2,20.4 42.3,20.9 42.4,21.2 42.5,22 42.7,23.1 42.8,23.6 43,24.7 43.2,25.6 43.6,27.1 43.8,28.1 44.1,29 44.2,29.5 44.3,30.5 44.4,30.6 44.4,31.4 44.4,31.9 44.4,32.1 44.4,32.1 44.3,32.1 44.3,32 44.2,31.8 44.1,31.2 43.8,30.3 43.7,30 43.4,29.3 43.2,28.9 43.1,28.5 42.7,27.4 42.3,26.2 42.1,25.1 41.8,24 41.7,23.2 41.4,21.4 41.1,19 40.9,17.9 40.6,16.7 40.1,14.7 39.6,13.4 39,12.3 38.4,11.3 37.8,10.3 37.1,9.4 36.4,8.5 35,7.25 34.2,6.78 33.5,6.39 32.8,6.11 31.6,5.79 30.6,5.54 29.6,5.33 28.6,5.32 27.2,5.32 26.1,5.46 24.8,5.81 24.1,5.99 23.2,6.34 23.2,6.43 23.1,6.47 23.2,6.46 23.6,6.33 25.4,5.7 27.3,5.36 29.2,5.57 31.2,5.9 33.2,6.65 34.9,7.72 35.8,8.34 36.6,9.08 37.3,9.96 37.9,10.9 38.5,11.8 38.9,12.8 39.6,14.4 40.1,16.1 40.4,17.9 40.6,19.1 40.8,20.2 41,21.4 41.2,22.6 41.3,23.3 41.5,24.1 41.7,25.4 42.1,26.6 42.5,27.8 42.8,28.7 42.9,29.1 43.3,29.9 43.6,30.5 43.8,31.1 44,31.6 44.3,32.3 44.5,33 44.5,33.7 44.4,34.7 44.3,35.5 44,36.9 43.8,37.5 43.6,38.1 43.4,38.7 43.3,39.1 43.1,39.4 43.1,39.4 43,39.4 43.1,39.4 43.2,38.8 43.4,37.9 43.5,37.2 43.6,36.4 43.7,35.9 43.7,34.9 43.7,34.6 43.6,34.3 43.4,33 43.3,32.7 43.2,32.3 42.9,31.4 42.4,30.3 41.9,29.2 41.4,28 41.1,26.8 41.1,26.4 40.9,25.4 40.8,24.6 40.7,24.2 40.6,23.6 40.5,23.1 40.3,21.9 40.3,21.8 40,19.9 39.5,17.2 39.2,15.6 38.7,14 38.3,12.6 37.7,11.5 36.6,10.3 36.1,9.72 35.6,9.26 34.8,8.78 34.5,8.53 33.5,8.04 32.9,7.81 32,7.48 30.4,7.11 29.4,7.01 28.8,6.95 26.9,6.94 26.5,7 25.8,7.08 24.4,7.36 24.3,7.44 24.3,7.48 24.4,7.47 24.5,7.43 24.5,7.41 24.6,7.39 24.7,7.38 24.8,7.37 25,7.34 25.2,7.31 27.1,7 28.2,6.96 29.5,7.15 30.8,7.39 32.2,7.63 33.4,8.15 34.3,8.57 34.9,8.98 35.5,9.5 36,9.94 36.3,10.2 36.7,10.8 37,11.2 37.1,11.5 37.3,11.9 37.7,12.6 37.8,12.9 38.2,13.9 38.2,14.1 38.3,14.4 38.4,14.6 38.6,15 38.8,15.9 38.9,16.2 39,16.8 39.2,17.7 39.3,18.4 39.3,18.7 39.4,19.2 39.4,19.4 39.5,20.1 39.7,21.7 39.8,21.9 40,22.9 40.4,23.9 40.6,25 40.6,25.2 40.8,25.7 40.8,26.1 41,26.9 41.1,27.2 41.1,27.3 41.1,27.3 41.1,27.3 41,27.2 41,27.1 40.8,26.7 40.6,26.3 40,25.1 39.5,23.8 39,22.5 38.8,21.9 38.5,20.7 38.3,19.9 38.1,19.1 38.1,19 38.1,17.9 38.1,17.3 38.1,16.8 38.1,16.7 38,15.5 37.6,14.1 37.3,13.2 36.8,12.2 36.3,11.5 35.5,10.7 35,10.1 34.3,9.59 33.5,9.28 32.2,8.75 30.7,8.58 29.2,8.59 27.9,8.61 27.4,8.67 26.3,8.91 25.5,9.08 24.9,9.26 24.7,9.39 24.6,9.45 24.6,9.44 25,9.34 25.4,9.26 26,9.14 26.6,9.03 27.5,8.88 29.2,8.76 30.1,8.8 31.3,8.84 32.4,9.02 33,9.28 33.7,9.55 34.4,9.87 34.9,10.3 35.9,11.2 36.6,12 37,12.9 37.3,13.4 37.5,14.1 37.6,15 37.7,15.9 37.7,16.1 37.7,16.7 37.7,17.5 37.4,18.3 37.2,19.2 36.9,19.8 36.8,20.5 36.6,21.2 36.4,22 36.4,22.2 36.4,22.9 36.4,23.6 36.5,24.3 36.7,25.1 36.7,25.2 36.7,25.4 36.7,25.4 36.8,25.5 36.8,25.5 36.7,25.4 36.6,25.3 36.2,24.6 36,24.3 35.6,23.3 35.3,22.1 35.6,21 35.7,20.6 35.9,20.2 36.3,18.8 36.6,17.9 36.7,17.7 36.8,17 36.8,16.6 36.8,15.6 36.7,15.1 36.6,14.3 36.3,13.6 35.9,12.9 35.7,12.6 35.1,11.9 34.8,11.6 34.5,11.3 34.1,11 33.7,10.8 33.3,10.6 33.3,10.6 33.4,10.9 33.6,11.1 33.9,11.9 33.9,12.3 34.3,13.9 34.4,15 34.2,16.5 34.2,17.3 34,18.1 33.8,18.9 33.6,19.8 33.5,20.7 33.2,21.5 32.9,22.3 32.6,23 32,23.6 32,23.6 31.8,23.4 31.8,23.2 31.7,23.1 31.7,23 31.7,22.9 31.7,22.9 31.7,22.5 31.8,22.2 32,21.4 32,21.3 31.9,20.8 31.9,20.4 31.9,20.3 31.7,19.8 31.5,19.2 31.4,18.9 31.3,18.8 31.2,18.8 31.2,18.8 31.3,18.9 31.3,19 31.5,19.4 31.5,19.6 31.6,20.1 31.6,20.6 31.4,21.6 31.3,22.8 31.3,23 31.5,23.3 31.5,23.4 31.7,23.6 31.8,23.8 32.2,24.3 32.4,25 32.2,25.6 32,26 31.6,26.4 31.2,26.5 L 31,26.6 C 30.8,27 30.6,27.5 30.4,28 30.1,28.8 29.6,30.2 29.7,30.3 29.7,30.4 29.7,30.4 29.7,30.4 29.8,30.4 30.7,30.4 31.8,30.5 35.7,30.5 36.7,30.5 38.8,30.7 39.6,30.7 39.9,30.8 39.8,30.8 39.8,30.8 39.7,30.8 39.6,30.8 38.9,30.9 36.8,31 36.3,31 35.8,31 35.2,31 33.8,31.1 33.4,31.1 32.6,31.1 31.9,31.1 30.9,31.2 29.4,31.2 29.3,31.3 29.3,31.3 29.3,31.4 29.2,31.6 29.1,32.1 29,32.4 28.9,32.7 28.8,32.9 28.8,33 28.5,33.2 27.8,33.9 26.2,35.2 25.3,35.7 L 25.1,35.8 24.8,35.8 C 24,35.8 21.9,35.7 21.8,35.7 21.6,35.8 21.5,35.7 21.1,35.5 20.4,35.2 19.7,34.8 19.2,34.4 18.2,33.6 17.7,33.2 17.6,32.9 17.6,32.8 17.5,32.4 17.4,32.1 17.3,31.7 17.2,31.4 17.2,31.3 17.1,31.3 17,31.3 15.1,31.3 12.8,31.3 11.9,31.3 10.7,31.5 10.6,31.5 10.4,31.5 10.2,31.5 10.1,31.5 9.7,31.6 9.4,31.6 8.7,31.7 7.2,31.9 6.8,31.9 6.7,31.9 6.7,32.5 6.8,33.1 7,34.3 7.3,35.4 7.8,36.5 8.3,37.9 9.1,39.1 10,40.3 10.6,41.2 11.6,42.3 12.4,43 13.9,44.3 15.8,45.2 17.7,45.8 19.3,46.3 21,46.6 22.7,46.8 24.4,47.1 26.3,47.1 28,46.8 29.8,46.6 31.5,46 33.1,45.3 34.1,44.9 35.4,44.2 36.2,43.6 37.7,42.5 38.8,41.1 39.8,39.5 40.8,38.1 41.2,36.3 41.7,34.7 41.9,33.8 42,32.8 42,31.9 42,30.9 42,30.5 41.7,29.5 41.7,29.4 41.7,29.2 41.6,29.1 41.6,28.9 41.6,28.9 41.7,28.9 41.7,29 41.7,29 41.7,29.1 41.7,29.2 41.8,29.5 42.3,30.5 42.7,31.3 42.8,31.5 42.8,31.8 43.1,32.6 43.2,33.4 43.2,34.3 43.3,35.3 42.9,36.4 42.4,37.3 42,38.2 41.8,38.6 41.1,39.7 40.6,40.5 39.8,41.6 39.3,42.2 39,42.5 38.2,43.4 37.8,43.7 36.6,44.7 35.8,45.3 34.4,45.9 33,46.6 32.3,46.9 30.4,47.4 29.4,47.7 28,47.9 26.9,48 26.4,48 24.4,48 23.6,48 z M 24.2,31.8 C 24.4,31.5 24.5,31.3 24.4,31.2 24.4,31.2 24.3,31.2 24.1,31.2 23.7,31.2 23.6,31.2 23.6,31.4 23.6,31.6 23.8,31.9 23.9,32 23.9,32.1 23.9,32.1 24,32.1 24.1,32.1 24.1,32 24.2,31.8 z M 23.4,32 C 23.4,31.8 23.5,31.3 23.5,31.3 23.5,31.3 23.3,31.3 23.2,31.3 L 22.9,31.3 22.9,31.4 C 22.9,31.5 23,31.7 23.1,31.9 23.2,32.1 23.3,32.1 23.4,32 z M 22,31.8 C 22,31.7 22,31.6 21.9,31.4 21.9,31.4 21.9,31.3 21.9,31.3 21.8,31.2 21.4,31.3 21.4,31.3 21.3,31.3 21.5,31.6 21.6,31.7 21.8,31.8 21.8,31.8 21.9,31.8 21.9,31.8 22,31.8 22,31.8 z M 24.9,31.7 C 25,31.6 25.1,31.2 25.1,31.2 25.1,31.1 25,31.1 24.9,31.1 24.7,31.1 24.7,31.1 24.7,31.5 24.7,31.7 24.7,31.8 24.7,31.8 24.8,31.8 24.8,31.7 24.9,31.7 z M 22.5,31.7 C 22.6,31.7 22.6,31.5 22.6,31.4 22.6,31.3 22.6,31.3 22.3,31.3 22,31.3 22,31.3 22.3,31.6 22.4,31.8 22.4,31.8 22.5,31.7 z M 25.5,31.6 C 25.6,31.5 25.8,31.2 25.8,31.1 25.8,31.1 25.7,31.1 25.5,31 25.3,31 25.3,31 25.2,31.2 25.2,31.5 25.2,31.7 25.4,31.7 25.4,31.7 25.5,31.7 25.5,31.6 z M 21.1,31.4 C 21.1,31.4 21.1,31.3 21.1,31.2 21.1,31.2 21.1,31.2 20.9,31.2 20.8,31.2 20.7,31.2 20.7,31.2 20.7,31.2 20.8,31.3 20.9,31.4 21,31.4 21,31.4 21.1,31.4 z M 26.2,31.4 C 26.4,31.3 26.4,31.1 26.3,31.1 26.1,31 26,31.1 25.9,31.2 25.9,31.3 25.9,31.3 26,31.4 26,31.4 26.1,31.4 26.2,31.4 z M 7.9,30.9 C 8,30.8 8,30.8 7.9,30.7 7.8,30.6 7.8,30.6 7.5,30.5 7.3,30.5 7,30.5 7,30.5 7,30.6 6.9,30.8 7,30.8 7,30.9 7.7,31 7.9,30.9 z M 6.1,30.7 6.1,30.6 6,30.6 C 5.8,30.6 5.8,30.7 5.8,30.7 5.8,30.7 5.9,30.8 6,30.8 6.1,30.8 6.1,30.8 6.1,30.7 z M 26.3,30.3 C 26.3,30.2 26.3,30.1 26.4,29.7 26.4,29.3 26.3,29 26.2,29 26.1,29 26,29.1 26,29.2 25.8,29.5 25.8,29.6 25.8,29.9 25.7,30.1 25.7,30.1 25.8,30.2 25.9,30.3 26.2,30.4 26.3,30.3 z M 23.3,30.2 C 23.3,30.2 23.4,30.2 23.4,30.2 23.5,30.1 23.4,29.4 23.4,29.3 23.4,29.2 23.3,29.1 23.1,29.1 23,29 22.9,29 22.9,29.1 22.8,29.2 22.6,30.1 22.6,30.2 22.6,30.2 22.9,30.3 23.3,30.2 z M 21.3,30.2 C 21.4,30.1 21.4,30.1 21.4,29.8 L 21.4,29.4 21.3,29.3 C 21.2,29.1 21,29 20.9,29 20.7,29 20.7,29 20.7,29.5 20.7,29.9 20.7,30.1 20.8,30.2 20.9,30.2 20.9,30.2 21.1,30.2 21.2,30.2 21.3,30.2 21.3,30.2 z M 24.5,30.1 C 24.6,30.1 24.6,30.1 24.5,29.7 24.5,29.5 24.4,29.2 24.3,29.1 24.3,29.1 24.3,29.1 24.2,29.1 24.1,29.1 24,29.1 24,29.1 24,29.2 23.8,29.6 23.8,29.9 23.7,30.2 23.8,30.2 24.1,30.2 24.2,30.2 24.4,30.2 24.5,30.1 z M 25.3,30.1 C 25.4,30.1 25.4,30.1 25.5,30 25.5,30 25.5,29.9 25.5,29.7 25.5,29.4 25.5,29.4 25.4,29.3 25.3,29 25.2,29 25,29.2 25,29.4 24.8,29.8 24.8,30 L 24.8,30.1 24.9,30.1 C 25,30.1 25,30.1 25,30.1 25.1,30.2 25.1,30.2 25.3,30.1 z M 22.2,30.1 C 22.2,30.1 22.3,29.9 22.4,29.7 L 22.4,29.4 22.4,29.3 C 22.3,29.2 22.3,29.1 22.2,29 22.1,28.9 22,28.9 21.9,29 21.8,29.1 21.7,29.2 21.7,29.6 L 21.6,29.9 21.7,30 C 21.7,30.1 21.8,30.1 22,30.1 22.1,30.1 22.2,30.1 22.2,30.1 z M 26.9,30.1 C 26.9,30.1 27,30 27,29.9 L 27.1,29.9 27.2,29.5 C 27.2,29.2 27.2,29.1 27.1,28.9 27,28.9 27,28.9 27,28.9 26.9,29 26.7,29.4 26.7,29.5 26.6,29.7 26.6,30 26.6,30.1 26.6,30.1 26.7,30.1 26.9,30.1 z M 20.5,30.1 C 20.5,30 20.5,29.9 20.5,29.7 L 20.5,29.3 20.3,29.2 C 20.2,29 20,28.9 19.9,28.9 19.8,29 19.8,29.2 19.9,29.7 19.9,29.8 19.9,29.9 20,30 L 20.1,30.1 20.3,30.1 C 20.5,30.1 20.5,30.1 20.5,30.1 z M 19.6,29.9 C 19.7,29.8 19.6,29.1 19.5,29 19.4,28.9 19.2,28.8 19.1,28.8 19,28.8 19,28.8 19,29 19,29.1 19.1,29.7 19.2,29.8 19.2,30 19.5,30 19.6,29.9 z M 27.7,29.8 C 27.8,29.8 27.9,29.7 27.9,29.3 28,29 28,28.8 27.9,28.8 27.8,28.7 27.8,28.7 27.7,28.9 27.5,29.2 27.4,29.4 27.4,29.6 L 27.4,29.9 27.5,29.9 C 27.6,29.9 27.7,29.9 27.7,29.8 z M 18.8,29.7 C 18.8,29.5 18.7,28.9 18.7,28.9 18.6,28.8 18.4,28.8 18.4,28.8 18.3,28.9 18.3,29.2 18.5,29.6 18.6,29.8 18.7,29.8 18.8,29.8 18.8,29.8 18.8,29.8 18.8,29.7 z M 28.3,29.6 C 28.4,29.6 28.4,29.4 28.5,29 28.5,28.6 28.5,28.6 28.4,28.6 28.3,28.6 28.3,28.7 28.2,28.7 28.2,28.8 28.2,29.6 28.2,29.6 28.2,29.6 28.3,29.6 28.3,29.6 z M 18.1,28.7 C 18.2,28.6 18.2,28.2 18.2,28.1 18.2,27.9 18,27.3 17.9,27.2 17.8,27 17.2,26.6 17,26.6 16.9,26.6 16.9,26.7 17.2,27.2 17.5,27.8 18,28.7 18,28.8 18.1,28.8 18.1,28.8 18.1,28.7 z M 28.9,28.6 C 29,28.4 29,28.3 29.1,28 29.4,27.1 29.4,26.9 29.3,26.9 29.3,26.8 29.1,26.9 28.9,27.1 L 28.6,27.2 28.6,27.4 C 28.5,27.6 28.5,27.9 28.6,28.2 28.7,28.6 28.7,28.6 28.8,28.6 28.8,28.6 28.9,28.6 28.9,28.6 z M 23,25.7 C 23.1,25.6 23.2,25.5 23.3,25.4 23.3,25.3 23.4,25.2 23.4,25.2 23.4,25.2 23.5,25.3 23.7,25.6 23.9,25.8 24,25.8 24.4,25.9 24.7,25.9 24.9,25.8 25.1,25.6 25.5,25.3 25.5,25.2 25.2,24.7 25,24.4 25,24.3 24.9,23.8 24.8,23.5 24.7,23.1 24.6,22.9 24.5,22.4 24.4,21.9 24.3,21.6 24.2,21.3 24.1,21.2 24,21.2 24,21.2 23.8,21.4 23.7,21.6 23.7,21.7 23.7,21.7 23.6,21.7 23.6,21.7 23.5,21.6 23.4,21.4 23.4,21.3 23.3,21.2 23.3,21.2 L 23.2,21.1 23.2,21.2 C 23,21.4 22.9,21.6 22.7,22.3 22.4,23 22.4,23.2 22,24.1 21.7,24.8 21.6,25 21.6,25.4 21.6,25.7 21.6,25.7 21.7,25.7 21.8,25.7 21.9,25.7 21.9,25.8 22,25.8 22.6,25.9 22.7,25.8 22.9,25.8 22.9,25.8 23,25.7 z M 18.6,24 C 19.2,24 19.4,23.9 19.7,23.7 20.3,23.5 20.6,23 20.9,22.5 21.2,21.8 21.4,21.2 21.4,20.5 21.4,20.1 21.4,19.8 21.2,19.5 21.1,19.3 20.9,19.2 20.5,18.9 20,18.5 18.6,18.6 18,18.7 17.4,18.8 17.2,18.9 17,19 16.9,19 16.7,19.2 16.5,19.3 16.1,19.5 15.9,19.6 15.8,19.7 15.8,19.8 15.7,19.9 15.7,20 15.6,20.2 15.6,20.3 15.6,20.8 15.6,21.3 15.8,21.8 15.8,22.3 15.9,22.6 16,22.9 16,23.1 16,23.2 16.1,23.3 16.1,23.3 16.2,23.7 16.6,24 16.9,24.1 17,24.1 18.2,24 18.6,24 z M 29.7,23.8 C 30,23.7 30.5,23.2 30.6,22.7 30.6,22.6 30.7,22.5 30.7,22.4 30.7,22.3 30.7,22 30.8,21.9 30.9,21.3 30.9,20.9 30.8,20.5 30.7,19.7 30.6,19.4 30.4,19.2 30.3,19.1 30.3,19.1 30.3,19.1 30.3,19 30,18.8 29.8,18.7 28.7,18.4 27.5,18.5 26.3,18.8 25.8,18.9 25.6,19.2 25.5,19.8 25.3,20.5 25.5,21.3 25.8,22.1 26,22.5 26.4,23.3 26.5,23.4 26.9,23.8 27.3,24 27.8,24 28.4,23.9 29.1,23.9 29.7,23.8 z M 23.2,2.67 C 23.8,2.34 25.2,1.79 25.9,1.61 26.5,1.44 28,1.34 29.5,1.35 29.9,1.36 30.2,1.35 30.2,1.34 30.2,1.33 30,1.3 29.8,1.27 29.5,1.23 29.3,1.22 28.7,1.22 27.3,1.22 26.4,1.32 25.5,1.56 24.9,1.74 23.4,2.45 23,2.73 22.9,2.83 22.9,2.83 23.2,2.67 z" />
    </g>
    <g id="button" > <circle id="button-circle-edge" cx="0" cy="0" r="3.4" style="stroke:#000000;fill:none;stroke-width:1;" /> <circle id="button-circle-hole1" cx="-1" cy="-1" r="0.5" style="stroke:none;fill:#000000;" /> <circle id="button-circle-hole2" cx="1" cy="-1" r="0.5" style="stroke:none;fill:#000000;" /> <circle id="button-circle-hole3" cx="1" cy="1" r="0.5" style="stroke:none;fill:#000000;" /> <circle id="button-circle-hole4" cx="-1" cy="1" r="0.5" style="stroke:none;fill:#000000;" /> </g>
    <g id="button-lg" > 
    <circle id="button-lg-circle-edge" cx="0" cy="0" r="7.5" style="stroke:#000000;fill:#000; fill-opacity:0.3;stroke-width:1;" /> <circle id="button-lg-circle-hole1" cx="-1.2" cy="-1.2" r="0.7" style="stroke:none;fill:#000000;" /> <circle id="button-lg-circle-hole2" cx="1.2" cy="-1.2" r="0.7" style="stroke:none;fill:#000000;" /> <circle id="button-lg-circle-hole3" cx="1.2" cy="1.2" r="0.7" style="stroke:none;fill:#000000;" /> <circle id="button-lg-circle-hole4" cx="-1.2" cy="1.2" r="0.7" style="stroke:none;fill:#000000;" /> </g>
    <g id="buttonhole" > <path style="fill:none;stroke:#000000;" d="M -1,-5 L 1,-5 L 1,5 L -1,5 z" id="buttonhole-outer" /> <path style="fill:#000000;stroke:none;" d="M -1,-5 L 1,-5 L 1,-4 L -1,-4 z M -1,5 L 1,5 L 1,4 L -1,4 z" id="buttonhole-bartack" /> </g>
    <radialGradient id="snap-male-grad" cx="50%" cy="50%" r="50%" fx="50%" fy="50%"> <stop offset="30%" style="stop-color:rgb(235,235,235); stop-opacity:1" /> <stop offset="80%" style="stop-color:rgb(100,100,100);stop-opacity:1" /> </radialGradient>
    <g id="snap-male" > <circle id="snap-male-circle-edge" cx="0" cy="0" r="3.4" style="stroke:#666;fill:#dddddd;stroke-width:0.3;" /> <circle id="snap-male-circle-middle" cx="0" cy="0" r="1.8" style="stroke:none;fill:url(#snap-male-grad);" /> <path style="fill:none;stroke:#666; stroke-width:0.2;" d="M -2,0 L -3,0 M 2,0 L 3,0 M 0,2 L 0,3 M 0,-2 L 0,-3 M 1.5,1.5 L 2.1,2.1 M -1.5,1.5 L -2.1,2.1 M -1.5,-1.5 L -2.1,-2.1 M 1.5,-1.5 L 2.1,-2.1" id="snap-male-lines" /> </g>
    <g id="snap-female" > <circle id="snap-female-circle-edge" cx="0" cy="0" r="3.4" style="stroke:#666;fill:#bbbbbb;stroke-width:0.3;" /> <circle id="snap-female-circle-middle" cx="0" cy="0" r="2" style="stroke:#666;fill:#dddddd; stroke-width:0.4;" /> <path style="fill:none;stroke:#666; stroke-width:0.5;" d="M -1.7,-1 L -1.7,1 M 1.7,-1 L 1.7,1" id="snap-female-lines" /> </g> 
</defs>


<!-- Start of group #patternScaleContainer -->
<g id="patternScaleContainer"  transform=" scale(3.54330709 ) " >
    
    <!-- Start of group #panel1 -->
    <g id="panel1"  transform=" translate(15 40)  translate(0 0) " >
        <path class="fabric" id="2"  d=" M  0,-25  L  -0,285  C  7.623,285  14.997,283.218  23.1,280.117  L  38.35,-9.692  C  31.585,-16.59  22.243,-25  0,-25  z " />
        <path class="fabric sa" id="3"  d=" M  -10,-25  L  -10,285  L  -0,295  C  8.813,295  17.969,292.788  26.674,289.456  L  33.086,280.642  L  48.336,-9.167  L  45.49,-16.694  C  38.509,-23.812  26.081,-35  -0,-35  L  -10,-25  z " />
        <path class="grainline" id="4"  d=" M  0,265  L  9,265  L  9,-5  L  -0,-5 " />
        <text id="5" class="text-lg text-center grainline" dy="-2" ><textPath xlink:href="#4" startOffset="50%"><tspan class="text-lg text-center grainline" dy="-2" >Cut on fold - Grainline</tspan></textPath></text>
        <text x="19.175" y="50" id="6" class="part-nr vertical small" ><tspan >1</tspan></text>
        <text x="19.175" y="50" id="7" class="part-title vertical small" transform="translate(5, 10)" writing-mode="tb-rl" ><tspan >Panel 1</tspan></text>
        <text x="19.175" y="50" id="8" class="part-msg vertical small" transform="translate(-5, 10)" writing-mode="tb-rl" ><tspan >1x from main fabric</tspan><tspan dx="-6" y="50">Cut on fold</tspan></text>
    </g>
    <!-- End of group #panel1 -->
    
    <!-- Start of group #panel2 -->
    <g id="panel2"  transform=" translate(-8.114 21.694)  translate(68.336 0) " >
        <path class="fabric" id="9"  d=" M  38.35,-9.692  L  23.1,280.117  C  33.747,276.045  44.97,269.682  57.75,263.057  L  57.75,260  C  57.75,260  45.75,120  45.75,100  C  45.75,80  53.75,15  53.75,-0  C  47.282,0  43.531,-4.41  38.35,-9.692  z " />
        <path class="fabric sa" id="10"  d=" M  28.364,-10.217  L  13.114,279.592  L  26.672,289.457  C  38.024,285.115  49.739,278.474  62.352,271.935  L  67.75,263.057  L  67.75,260  L  67.714,259.148  C  67.714,259.158  55.75,119.578  55.75,100  L  55.75,100  C  55.75,80.613  63.75,15.613  63.75,0  L  53.75,-10  C  51.904,-10  50.92,-11.158  45.489,-16.694  L  28.364,-10.217  z " />
        <path class="grainline" id="11"  d=" M  38.5,260  L  38.5,10 " />
        <text id="12" class="text-lg text-center grainline" dy="-2" ><textPath xlink:href="#11" startOffset="50%"><tspan class="text-lg text-center grainline" dy="-2" >Grainline</tspan></textPath></text>
        <text x="38.5" y="182" id="13" class="part-nr vertical small" ><tspan >2</tspan></text>
        <text x="38.5" y="182" id="14" class="part-title vertical small" transform="translate(5, 10)" writing-mode="tb-rl" ><tspan >Panel 2</tspan></text>
        <text x="38.5" y="182" id="15" class="part-msg vertical small" transform="translate(-5, 10)" writing-mode="tb-rl" ><tspan >2x from main fabric</tspan></text>
    </g>
    <!-- End of group #panel2 -->
    
    <!-- Start of group #panel3 -->
    <g id="panel3"  transform=" translate(-42.75 15)  translate(132.972 0) " >
        <path class="fabric" id="16"  d=" M  61.75,0  C  61.75,15  69.75,80  69.75,100  C  69.75,120  57.75,260  57.75,260  L  57.75,263.057  C  71.22,256.105  86.62,248.715  104.397,242.542  C  104.397,242.542  93.875,120  93.875,100  C  93.875,80  101.875,15  101.875,-0  z " />
        <path class="fabric sa" id="17"  d=" M  51.75,-0  C  51.75,15.613  59.75,80.613  59.75,100  L  59.75,100  C  59.75,119.578  47.786,259.158  47.786,259.148  L  47.75,260  L  47.75,263.057  L  62.336,271.943  C  75.662,265.066  90.435,257.976  107.677,251.989  L  114.36,241.684  C  114.36,241.687  103.875,119.576  103.875,100  L  103.875,100  C  103.875,80.613  111.875,15.613  111.875,0  L  101.875,-10  L  61.75,-10  L  51.75,-0  z " />
        <path class="grainline" id="18"  d=" M  81.813,230  L  81.813,10 " />
        <text id="19" class="text-lg text-center grainline" dy="-2" ><textPath xlink:href="#18" startOffset="50%"><tspan class="text-lg text-center grainline" dy="-2" >Grainline</tspan></textPath></text>
        <text x="81.813" y="182" id="20" class="part-nr vertical small" ><tspan >3</tspan></text>
        <text x="81.813" y="182" id="21" class="part-title vertical small" transform="translate(5, 10)" writing-mode="tb-rl" ><tspan >Panel 3</tspan></text>
        <text x="81.813" y="182" id="22" class="part-msg vertical small" transform="translate(-5, 10)" writing-mode="tb-rl" ><tspan >2x from main fabric</tspan></text>
    </g>
    <!-- End of group #panel3 -->
    
    <!-- Start of group #panel4 -->
    <g id="panel4"  transform=" translate(-92.39 15)  translate(419.411 0) " >
        <path class="fabric" id="23"  d=" M  109.875,0  C  109.875,15  117.875,80  117.875,100  C  117.875,120  107.353,242.542  107.353,242.542  C  119.643,238.14  135.473,234.442  151.658,232.217  C  151.658,149.581  142,120  142,100  C  142,80  150,15  150,-0  z " />
        <path class="fabric sa" id="24"  d=" M  99.875,-0  C  99.875,15.613  107.875,80.613  107.875,100  L  107.875,100  C  107.875,119.576  97.39,241.687  97.39,241.684  L  110.725,251.956  C  122.471,247.749  137.296,244.286  153.02,242.124  L  161.658,232.217  C  161.658,147.99  152,118.409  152,100  L  152,100  C  152,80.613  160,15.613  160,0  L  150,-10  L  109.875,-10  L  99.875,-0  z " />
        <path class="grainline" id="25"  d=" M  129.938,220  L  129.938,10 " />
        <text id="26" class="text-lg text-center grainline" dy="-2" ><textPath xlink:href="#25" startOffset="50%"><tspan class="text-lg text-center grainline" dy="-2" >Grainline</tspan></textPath></text>
        <text x="129.938" y="182" id="27" class="part-nr vertical small" ><tspan >4</tspan></text>
        <text x="129.938" y="182" id="28" class="part-title vertical small" transform="translate(5, 10)" writing-mode="tb-rl" ><tspan >Panel 4</tspan></text>
        <text x="129.938" y="182" id="29" class="part-msg vertical small" transform="translate(-5, 10)" writing-mode="tb-rl" ><tspan >2x from main fabric</tspan></text>
    </g>
    <!-- End of group #panel4 -->
    
    <!-- Start of group #panel5 -->
    <g id="panel5"  transform=" translate(-141.378 15)  translate(493.679 0) " >
        <path class="fabric" id="30"  d=" M  219,100  C  219,80  227,15  227,-0  L  227,0  C  218.68,0  207.9,0  192.5,0  L  158,0  C  158,15  166,80  166,100  C  166,120  156.342,232.217  156.342,232.217  C  165.656,230.81  178.483,230  192.5,230  C  207.9,230  220.22,231.2  228.733,233.12  C  228.733,233.12  219,120  219,100  z " />
        <path class="fabric sa" id="31"  d=" M  229,100  C  229,80.613  237,15.613  237,0  L  227,-10  C  218.68,-10  207.9,-10  192.5,-10  L  192.5,-10  L  158,-10  L  148,-0  C  148,15.613  156,80.613  156,100  L  156,100  C  156,119.573  146.378,231.372  146.378,231.367  L  157.836,242.105  C  166.724,240.762  178.796,240  192.5,240  L  192.5,240  C  207.414,240  218.629,241.092  226.533,242.875  L  238.697,232.267  C  238.697,232.275  229,119.573  229,100  L  229,100  z " />
        <path class="grainline" id="32"  d=" M  192.5,220  L  192.5,10 " />
        <text id="33" class="text-lg text-center grainline" dy="-2" ><textPath xlink:href="#32" startOffset="50%"><tspan class="text-lg text-center grainline" dy="-2" >Grainline</tspan></textPath></text>
        <text x="192.5" y="182" id="34" class="part-nr vertical small" ><tspan >5</tspan></text>
        <text x="192.5" y="182" id="35" class="part-title vertical small" transform="translate(5, 10)" writing-mode="tb-rl" ><tspan >Panel 5</tspan></text>
        <text x="192.5" y="182" id="36" class="part-msg vertical small" transform="translate(-5, 10)" writing-mode="tb-rl" ><tspan >2x from main fabric</tspan></text>
        <use x="192.5" y="40" xlink:href="#logo-sm" id="37" ></use>
    </g>
    <!-- End of group #panel5 -->
    
    <!-- Start of group #panel6 -->
    <g id="panel6"  transform=" translate(-218.267 15)  translate(334.88 0) " >
        <path class="fabric" id="38"  d=" M  276.75,100  C  276.75,80  284.75,15  284.75,-0  L  235,0  C  235,15  243,80  243,100  C  243,120  233.267,149.92  233.267,233.12  C  252.129,236.883  267.342,243.412  287.835,249.233  C  287.835,249.233  276.75,120  276.75,100  z " />
        <path class="fabric sa" id="39"  d=" M  286.75,100  C  286.75,80.613  294.75,15.613  294.75,0  L  284.75,-10  L  235,-10  L  225,-0  C  225,15.613  233,80.613  233,100  L  233,100  C  233,118.416  223.267,148.336  223.267,233.12  L  231.311,242.927  C  249.149,246.486  263.989,252.855  285.103,258.852  L  297.798,248.379  C  297.798,248.378  286.75,119.576  286.75,100  L  286.75,100  z " />
        <path class="grainline" id="40"  d=" M  259.875,220  L  259.875,10 " />
        <text id="41" class="text-lg text-center grainline" dy="-2" ><textPath xlink:href="#40" startOffset="50%"><tspan class="text-lg text-center grainline" dy="-2" >Grainline</tspan></textPath></text>
        <text x="259.875" y="182" id="42" class="part-nr vertical small" ><tspan >6</tspan></text>
        <text x="259.875" y="182" id="43" class="part-title vertical small" transform="translate(5, 10)" writing-mode="tb-rl" ><tspan >Panel 6</tspan></text>
        <text x="259.875" y="182" id="44" class="part-msg vertical small" transform="translate(-5, 10)" writing-mode="tb-rl" ><tspan >2x from main fabric</tspan></text>
    </g>
    <!-- End of group #panel6 -->
    
    <!-- Start of group #panel7 -->
    <g id="panel7"  transform=" translate(-274.702 15)  translate(209.582 0) " >
        <path class="fabric" id="45"  d=" M  385,0  C  340.626,0  312.234,0  292.75,0  L  292.75,0  C  292.75,15  300.75,80  300.75,100  C  300.75,120  289.665,249.233  289.665,249.233  C  309.979,255.006  337.876,260  385,260  z " />
        <path class="fabric sa" id="46"  d=" M  385,-10  C  340.626,-10  312.234,-10  292.75,-10  L  282.75,-0  C  282.75,15.613  290.75,80.613  290.75,100  L  290.75,100  C  290.75,119.576  279.702,248.378  279.702,248.379  L  286.931,258.852  C  307.73,264.763  336.985,270  385,270  L  395,260  L  395,0  L  385,-10  z " />
        <path class="grainline" id="47"  d=" M  375,250  L  375,10 " />
        <text id="48" class="text-lg text-center grainline" dy="-2" ><textPath xlink:href="#47" startOffset="50%"><tspan class="text-lg text-center grainline" dy="-2" >Grainline</tspan></textPath></text>
        <text x="336.875" y="182" id="49" class="part-nr vertical small" ><tspan >7</tspan></text>
        <text x="336.875" y="182" id="50" class="part-title vertical small" transform="translate(5, 10)" writing-mode="tb-rl" ><tspan >Panel 7</tspan></text>
        <text x="336.875" y="182" id="51" class="part-msg vertical small" transform="translate(-5, 10)" writing-mode="tb-rl" ><tspan >2x from main fabric</tspan></text>
        <use x="319" y="60" xlink:href="#scalebox" id="52" transform="rotate( -90 319 60)" ></use>
    </g>
    <!-- End of group #panel7 -->
</g>
<!-- End of group #patternScaleContainer -->

</svg>

