<?xml version="1.0" encoding="UTF-8" standalone="no"?>
<!-- Created with Inkscape (http://www.inkscape.org/) -->

<svg
   width="600"
   height="400"
   viewBox="0 0 158.75 105.83333"
   version="1.1"
   id="svg1"
   inkscape:version="1.4 (e7c3feb100, 2024-10-09)"
   sodipodi:docname="step-7c.svg"
   xmlns:inkscape="http://www.inkscape.org/namespaces/inkscape"
   xmlns:sodipodi="http://sodipodi.sourceforge.net/DTD/sodipodi-0.dtd"
   xmlns="http://www.w3.org/2000/svg"
   xmlns:svg="http://www.w3.org/2000/svg">
  <sodipodi:namedview
     id="namedview1"
     pagecolor="#ffffff"
     bordercolor="#666666"
     borderopacity="1.0"
     inkscape:showpageshadow="2"
     inkscape:pageopacity="0.0"
     inkscape:pagecheckerboard="0"
     inkscape:deskcolor="#d1d1d1"
     inkscape:document-units="mm"
     inkscape:zoom="1.6755094"
     inkscape:cx="331.24255"
     inkscape:cy="207.39961"
     inkscape:window-width="2256"
     inkscape:window-height="1427"
     inkscape:window-x="0"
     inkscape:window-y="0"
     inkscape:window-maximized="1"
     inkscape:current-layer="layer1" />
  <defs
     id="defs1">
    <inkscape:path-effect
       effect="offset"
       id="path-effect15"
       is_visible="true"
       lpeversion="1.3"
       linejoin_type="miter"
       unit="mm"
       offset="-1.7"
       miter_limit="4"
       attempt_force_join="false"
       update_on_knot_move="true" />
    <inkscape:path-effect
       effect="skeletal"
       id="path-effect14"
       is_visible="true"
       lpeversion="1"
       pattern="M 0.60184771,2.3738152 0.19065875,0 0,2.4145346"
       copytype="repeated"
       prop_scale="0.5"
       scale_y_rel="false"
       spacing="0"
       normal_offset="2"
       tang_offset="0"
       prop_units="false"
       vertical_pattern="false"
       hide_knot="false"
       fuse_tolerance="0" />
    <inkscape:path-effect
       effect="skeletal"
       id="path-effect12"
       is_visible="true"
       lpeversion="1"
       pattern="M 0.60184771,2.3738152 0.19065875,0 0,2.4145346"
       copytype="repeated"
       prop_scale="0.5"
       scale_y_rel="false"
       spacing="0"
       normal_offset="2"
       tang_offset="0"
       prop_units="false"
       vertical_pattern="false"
       hide_knot="false"
       fuse_tolerance="0" />
    <inkscape:path-effect
       effect="skeletal"
       id="path-effect8"
       is_visible="true"
       lpeversion="1"
       pattern="M 0.60184771,2.3738152 0.19065875,0 0,2.4145346"
       copytype="repeated"
       prop_scale="0.5"
       scale_y_rel="false"
       spacing="0"
       normal_offset="2"
       tang_offset="0"
       prop_units="false"
       vertical_pattern="false"
       hide_knot="false"
       fuse_tolerance="0" />
    <inkscape:path-effect
       effect="skeletal"
       id="path-effect9"
       is_visible="true"
       lpeversion="1"
       pattern="M 0.60184771,2.3738152 0.19065875,0 0,2.4145346"
       copytype="repeated"
       prop_scale="0.5"
       scale_y_rel="false"
       spacing="0"
       normal_offset="2"
       tang_offset="0"
       prop_units="false"
       vertical_pattern="false"
       hide_knot="false"
       fuse_tolerance="0" />
    <inkscape:path-effect
       effect="skeletal"
       id="path-effect7"
       is_visible="true"
       lpeversion="1"
       pattern="M 0.60184771,2.3738152 0.19065875,0 0,2.4145346"
       copytype="repeated"
       prop_scale="0.5"
       scale_y_rel="false"
       spacing="0"
       normal_offset="2"
       tang_offset="0"
       prop_units="false"
       vertical_pattern="false"
       hide_knot="false"
       fuse_tolerance="0" />
    <inkscape:path-effect
       effect="skeletal"
       id="path-effect5"
       is_visible="true"
       lpeversion="1"
       pattern="M 0.60184771,2.3738152 0.19065875,0 0,2.4145346"
       copytype="repeated"
       prop_scale="0.5"
       scale_y_rel="false"
       spacing="0"
       normal_offset="2"
       tang_offset="0"
       prop_units="false"
       vertical_pattern="false"
       hide_knot="false"
       fuse_tolerance="0" />
    <inkscape:path-effect
       effect="offset"
       id="path-effect4"
       is_visible="true"
       lpeversion="1.3"
       linejoin_type="miter"
       unit="mm"
       offset="-2"
       miter_limit="4"
       attempt_force_join="false"
       update_on_knot_move="true" />
    <inkscape:path-effect
       effect="skeletal"
       id="path-effect3"
       is_visible="true"
       lpeversion="1"
       pattern="M 0.49730967,4.8652525 0.99731968,0.07292255 1.7037697,4.8652525"
       copytype="repeated"
       prop_scale="1"
       scale_y_rel="false"
       spacing="0"
       normal_offset="-1.3"
       tang_offset="0"
       prop_units="false"
       vertical_pattern="false"
       hide_knot="false"
       fuse_tolerance="0" />
    <inkscape:path-effect
       effect="offset"
       id="path-effect11"
       is_visible="true"
       lpeversion="1.3"
       linejoin_type="miter"
       unit="mm"
       offset="2.8"
       miter_limit="4"
       attempt_force_join="false"
       update_on_knot_move="true" />
    <inkscape:path-effect
       effect="offset"
       id="path-effect1"
       is_visible="true"
       lpeversion="1.3"
       linejoin_type="miter"
       unit="mm"
       offset="1.8"
       miter_limit="4"
       attempt_force_join="false"
       update_on_knot_move="true" />
    <inkscape:path-effect
       effect="skeletal"
       id="path-effect33"
       is_visible="true"
       lpeversion="1"
       pattern="M 0.49730967,4.8652525 0.99731968,0.07292255 1.7037697,4.8652525"
       copytype="repeated"
       prop_scale="1"
       scale_y_rel="false"
       spacing="0"
       normal_offset="-1.3"
       tang_offset="0"
       prop_units="false"
       vertical_pattern="false"
       hide_knot="false"
       fuse_tolerance="0" />
    <inkscape:path-effect
       effect="skeletal"
       id="path-effect35"
       is_visible="true"
       lpeversion="1"
       pattern="M 0.49730967,4.8652525 0.99731968,0.07292255 1.7037697,4.8652525"
       copytype="repeated"
       prop_scale="1"
       scale_y_rel="false"
       spacing="0"
       normal_offset="-1.3"
       tang_offset="0"
       prop_units="false"
       vertical_pattern="false"
       hide_knot="false"
       fuse_tolerance="0" />
    <inkscape:path-effect
       effect="skeletal"
       id="path-effect36"
       is_visible="true"
       lpeversion="1"
       pattern="M 0.49730967,4.8652525 0.99731968,0.07292255 1.7037697,4.8652525"
       copytype="repeated"
       prop_scale="1"
       scale_y_rel="false"
       spacing="0"
       normal_offset="-1.3"
       tang_offset="0"
       prop_units="false"
       vertical_pattern="false"
       hide_knot="false"
       fuse_tolerance="0" />
    <inkscape:path-effect
       effect="skeletal"
       id="path-effect39"
       is_visible="true"
       lpeversion="1"
       pattern="M 0.49730967,4.8652525 0.99731968,0.07292255 1.7037697,4.8652525"
       copytype="repeated"
       prop_scale="1"
       scale_y_rel="false"
       spacing="0"
       normal_offset="-1.3"
       tang_offset="0"
       prop_units="false"
       vertical_pattern="false"
       hide_knot="false"
       fuse_tolerance="0" />
    <inkscape:path-effect
       effect="skeletal"
       id="path-effect35-2"
       is_visible="true"
       lpeversion="1"
       pattern="M 0.49730967,4.8652525 0.99731968,0.07292255 1.7037697,4.8652525"
       copytype="repeated"
       prop_scale="1"
       scale_y_rel="false"
       spacing="0"
       normal_offset="-1.3"
       tang_offset="0"
       prop_units="false"
       vertical_pattern="false"
       hide_knot="false"
       fuse_tolerance="0" />
    <inkscape:path-effect
       effect="skeletal"
       id="path-effect35-2-6"
       is_visible="true"
       lpeversion="1"
       pattern="M 0.49730967,4.8652525 0.99731968,0.07292255 1.7037697,4.8652525"
       copytype="repeated"
       prop_scale="1"
       scale_y_rel="false"
       spacing="0"
       normal_offset="-1.3"
       tang_offset="0"
       prop_units="false"
       vertical_pattern="false"
       hide_knot="false"
       fuse_tolerance="0" />
    <inkscape:path-effect
       effect="skeletal"
       id="path-effect33-6"
       is_visible="true"
       lpeversion="1"
       pattern="M 0.49730967,4.8652525 0.99731968,0.07292255 1.7037697,4.8652525"
       copytype="repeated"
       prop_scale="1"
       scale_y_rel="false"
       spacing="0"
       normal_offset="-1.3"
       tang_offset="0"
       prop_units="false"
       vertical_pattern="false"
       hide_knot="false"
       fuse_tolerance="0" />
  </defs>
  <g
     inkscape:label="Layer 1"
     inkscape:groupmode="layer"
     id="layer1">
    <path
       id="rect14"
       style="opacity:1;vector-effect:none;fill:#aeb5bf;stroke:#0b1627;stroke-width:2;stroke-linecap:round;stroke-linejoin:round;stop-color:#000000;stop-opacity:1"
       d="m 74.347917,-52.916665 144.727083,7.14375 v 94.456246 h -88.9 C 85.99664,12.612413 78.24458,-20.318307 74.347917,-52.916665 Z"
       sodipodi:nodetypes="ccccc" />
    <path
       style="font-variation-settings:normal;opacity:1;vector-effect:none;fill:#5677a8;fill-opacity:1;stroke:#0b1627;stroke-width:2;stroke-linecap:round;stroke-linejoin:round;stroke-miterlimit:4;stroke-dasharray:none;stroke-dashoffset:0;stroke-opacity:1;-inkscape-stroke:none;stop-color:#000000;stop-opacity:1"
       d="m 95.44111,-20.844336 c 4.93614,-0.649731 20.63347,21.8907837 34.91701,38.782335 l 5.24344,17.144053 c 12.58486,3.633955 20.36491,-3.96515 26.12905,-4.226982 l 1.89753,10.927133 c -13.77081,2.5095 -20.26264,9.468501 -34.34581,7.917265 C 111.98378,29.869722 95.227471,23.113208 83.906751,-11.171543 Z"
       id="path14"
       sodipodi:nodetypes="cccccccc" />
    <path
       id="path20"
       class="fabric"
       d="m 0.69583337,88.051267 10.77501963,3.72383 c 16.36051,5.65416 28.73377,9.221563 31.28926,20.991913 1.6579,7.69355 -0.43205,17.9962 -5.51459,32.70271 -6.81701,19.72525 -19.16206,46.38484 -37.54695963,83.32584 l -5.35889997,10.75997 11.55118,3.31471 C 73.257223,262.1843 181.01315,283.65971 299.37971,308.81283 l 0.67164,0.16863 c 48.02381,10.19583 97.79284,21.0058 147.32022,32.51468 91.02356,21.15233 181.40658,44.73893 258.43617,71.3602 4.68794,1.62015 9.40726,3.2723 14.15121,4.97528 4.78314,1.58956 9.51553,3.2039 14.20347,4.82405 l 3.26638,-9.45139 39.35712,-113.88122 3.26639,-9.45138 c -4.78245,-1.65281 -9.50504,-3.29551 -14.16754,-4.92802 -4.67557,-1.59471 -9.40469,-3.2185 -14.18714,-4.87131 C 605.10512,229.41027 515.94671,190.21765 428.93385,144.84699 379.06929,118.85337 329.91345,90.840377 271.12895,57.531897 l -0.31483,-0.16171 -78.80246,-39.4754 c -3.74776,14.87167 -35.83955,28.37938 -62.50006,31.8872 L 37.641543,25.134107 5.7823634,77.864267 Z"
       style="font-variation-settings:normal;opacity:1;vector-effect:none;fill:#aeb5bf;fill-opacity:1;stroke:#0b1627;stroke-width:2;stroke-linecap:round;stroke-linejoin:round;stroke-miterlimit:4;stroke-dasharray:none;stroke-dashoffset:0;stroke-opacity:1;-inkscape-stroke:none;stop-color:#000000;stop-opacity:1"
       sodipodi:nodetypes="cscsccccccsccccccscccccccc" />
    <path
       style="font-variation-settings:normal;opacity:1;vector-effect:none;fill:#5677a8;fill-opacity:1;stroke:#0b1627;stroke-width:2;stroke-linecap:round;stroke-linejoin:round;stroke-miterlimit:4;stroke-dasharray:none;stroke-dashoffset:0;stroke-opacity:1;-inkscape-stroke:none;stop-color:#000000;stop-opacity:1"
       d="m 127.98486,49.270247 c 12.44706,-1.638371 24.2816,-4.731473 35.33325,-9.683927 l 1.89753,10.927133 c -13.77081,2.5095 -26.87722,9.468501 -40.96039,7.917265 z"
       id="path13"
       sodipodi:nodetypes="ccccc" />
    <path
       id="path3"
       class="fabric"
       d="m 97.898997,7.8648659 v 5.7001701 c 0,8.617828 -0.412235,15.82491 5.484273,19.412091 3.73303,2.263115 9.34037,2.937799 17.08088,2.937799 10.52609,0 25.29146,-1.499506 45.6904,-4.146582 l 5.9601,-0.77515"
       style="font-variation-settings:normal;vector-effect:none;fill:none;fill-opacity:1;stroke:#999999;stroke-width:0.999999;stroke-linecap:butt;stroke-linejoin:miter;stroke-miterlimit:4;stroke-dasharray:2, 2;stroke-dashoffset:0;stroke-opacity:1;-inkscape-stroke:none;stop-color:#000000"
       sodipodi:nodetypes="cscscc"
       inkscape:path-effect="#path-effect11"
       inkscape:original-d="m 99.298997,7.8648659 v 5.7001701 c 0,8.655 -0.33495,15.08491 4.810053,18.21491 3.365,2.04 8.5751,2.73498 16.3551,2.73498 10.435,0 25.04984,-1.47989 45.50984,-4.13489 l 5.9601,-0.77515"
       transform="matrix(-0.65328287,1.8902967,1.8902967,0.65328287,50.699243,-104.79128)" />
    <path
       style="font-variation-settings:normal;opacity:1;vector-effect:none;fill:#e7e7e7;fill-opacity:1;stroke:#beb7c8;stroke-width:1.84818;stroke-linecap:round;stroke-linejoin:round;stroke-miterlimit:4;stroke-dasharray:none;stroke-dashoffset:0;stroke-opacity:1;-inkscape-stroke:none;stop-color:#000000;stop-opacity:1"
       d="M 8.1838734,67.096827 -64.288587,219.78528 114.54881,272.01902 166.20127,123.41117 Z"
       id="path11"
       sodipodi:nodetypes="ccccc" />
    <path
       id="fs-11"
       class="fabric"
       d="m 20.961693,52.730557 8.53057,4.13177 -0.0448,0.0918 0.51184,0.13436 53.65236,14.08753 c 22.134217,5.8118 34.660477,0.0923 44.650307,-20.42063 l 0.88675,-1.40212 -92.516945,-25.932925 z"
       style="font-variation-settings:normal;opacity:1;vector-effect:none;fill:#5677a8;fill-opacity:1;stroke:#0b1627;stroke-width:2;stroke-linecap:round;stroke-linejoin:round;stroke-miterlimit:4;stroke-dasharray:none;stroke-dashoffset:0;stroke-opacity:1;-inkscape-stroke:none;stop-color:#000000;stop-opacity:1"
       sodipodi:nodetypes="ccccscccc" />
    <path
       id="path34"
       class="fabric"
       d="m 499.08055,913.88763 c 1.53504,0.47373 3.07085,0.93958 4.60743,1.39755 -1.61278,-0.078 -3.22666,-0.14496 -4.84162,-0.20074 1.5369,0.45472 3.07457,0.90155 4.61302,1.34051 -1.61465,-0.059 -3.23039,-0.10693 -4.84721,-0.14369 1.53876,0.4357 3.0783,0.86352 4.6186,1.28346 -1.61651,-0.04 -3.2341,-0.0689 -4.85279,-0.0866 1.54062,0.41668 3.08202,0.82549 4.62419,1.22641 -1.61837,-0.021 -3.23783,-0.0309 -4.85838,-0.0296 1.54249,0.39767 3.08575,0.78746 4.62977,1.16937 -1.62023,-0.002 -3.24155,0.007 -4.86396,0.0274 1.54435,0.37866 3.08947,0.74944 4.63536,1.11233 -1.62209,0.017 -3.24527,0.0452 -4.86954,0.0845 1.5462,0.35965 3.09318,0.71141 4.64094,1.05529 -1.62396,0.036 -3.249,0.0832 -4.87513,0.14153 1.54807,0.34062 3.09691,0.67337 4.64652,0.99824 -1.62581,0.0551 -3.25272,0.12125 -4.88071,0.19857 0.26817,0.0556 0.53636,0.11105 0.80458,0.16623 1.30849,0.266 2.61708,0.53107 3.92576,0.79518 -1.58259,0.0802 -3.16537,0.16237 -4.74835,0.24648 1.58254,0.3188 3.16521,0.63622 4.74802,0.95226 -1.58292,0.0835 -3.16603,0.16904 -4.74933,0.25649 1.58287,0.31547 3.16587,0.62955 4.749,0.94224 -1.58324,0.0869 -3.16668,0.17572 -4.7503,0.26651 1.58319,0.31213 3.16651,0.62287 4.74997,0.93223 -1.58357,0.0902 -3.16733,0.18239 -4.75128,0.27652 1.58351,0.30879 3.16716,0.61619 4.75095,0.92221 -1.5839,0.0936 -3.16798,0.18907 -4.75226,0.28654 1.58384,0.30545 3.16782,0.60952 4.75192,0.9122 -1.58422,0.0969 -3.16863,0.19575 -4.75323,0.29655 1.58417,0.30211 3.16847,0.60284 4.7529,0.90218 -1.58454,0.10024 -3.16928,0.20243 -4.75421,0.30657 1.58449,0.29878 3.16912,0.59616 4.75388,0.89217 -1.58487,0.10357 -3.16993,0.2091 -4.75518,0.31658 1.58481,0.29544 3.16976,0.58949 4.75485,0.88215 -1.5852,0.10692 -3.17058,0.21578 -4.75616,0.3266 1.58514,0.2921 3.17042,0.58281 4.75583,0.87214 -1.58552,0.11025 -3.17124,0.22245 -4.75714,0.33661 1.58547,0.28876 3.17107,0.57613 4.7568,0.86212 -1.58584,0.11359 -3.17188,0.22914 -4.75811,0.34664 1.58579,0.28541 3.17172,0.56945 4.75778,0.8521 -1.58617,0.11693 -3.17253,0.23581 -4.75909,0.35665 1.58612,0.28208 3.17237,0.56277 4.75876,0.84208 -1.5865,0.12027 -3.17318,0.24249 -4.76006,0.36667 1.58644,0.27874 3.17302,0.5561 4.75973,0.83207 -1.58682,0.1236 -3.17384,0.24916 -4.76104,0.37668 1.58677,0.2754 3.17367,0.54942 4.76071,0.82205 -1.58715,0.12695 -3.17449,0.25584 -4.76202,0.3867 1.58709,0.27206 3.17432,0.54274 4.76169,0.81204 -1.58748,0.13028 -3.17514,0.26252 -4.763,0.39671 1.58742,0.26872 3.17497,0.53607 4.76266,0.80203 -1.5878,0.13361 -3.17578,0.26919 -4.76396,0.40672 1.58774,0.26539 3.17562,0.52939 4.76363,0.79201 -1.58812,0.13696 -3.17644,0.27587 -4.76494,0.41674 1.58807,0.26205 3.17627,0.52271 4.76461,0.782 -1.58845,0.14029 -3.17709,0.28254 -4.76592,0.42675 1.58839,0.25871 3.17692,0.51604 4.76559,0.77198 -1.58878,0.14364 -3.17774,0.28922 -4.7669,0.43677 1.58872,0.25537 3.17758,0.50936 4.76657,0.76197 -1.5891,0.14697 -3.1784,0.2959 -4.76788,0.44678 1.58905,0.25203 3.17823,0.50268 4.76754,0.75195 -1.58942,0.15031 -3.17904,0.30258 -4.76884,0.4568 1.58937,0.2487 3.17887,0.49601 4.76851,0.74194 -1.58975,0.15365 -3.17969,0.30925 -4.76982,0.46681 1.58969,0.24536 3.17952,0.48933 4.76949,0.73192 -1.59008,0.15699 -3.18034,0.31593 -4.7708,0.47683 1.59002,0.24202 3.18018,0.48266 4.77047,0.72191 -1.5904,0.16032 -3.181,0.3226 -4.77178,0.48684 1.59035,0.23868 3.18083,0.47598 4.77145,0.71189 -1.59073,0.16367 -3.18165,0.32929 -4.77276,0.49686 1.59068,0.23534 3.18148,0.4693 4.77242,0.70188 -1.59105,0.167 -3.18229,0.33596 -4.77372,0.50687 1.59099,0.232 3.18212,0.46263 4.77339,0.69186 -1.59138,0.17034 -3.18294,0.34264 -4.7747,0.51689 1.59132,0.22867 3.18278,0.45595 4.77437,0.68185 -1.5917,0.17368 -3.1836,0.34931 -4.77568,0.5269 1.59165,0.22533 3.18343,0.44927 4.77535,0.67183 -1.59203,0.17702 -3.18425,0.35599 -4.77666,0.53692 1.59198,0.22199 3.18408,0.4426 4.77633,0.66182 -1.59236,0.18036 -3.1849,0.36267 -4.77763,0.54693 1.59229,0.21865 3.18473,0.43592 4.77729,0.65181 -1.59267,0.18369 -3.18554,0.36934 -4.7786,0.55694 1.59262,0.21531 3.18538,0.42924 4.77827,0.64179 -1.593,0.18703 -3.1862,0.37602 -4.77958,0.56696 1.59295,0.21198 3.18603,0.42257 4.77925,0.63178 -1.59333,0.19037 -3.18685,0.38269 -4.78056,0.57697 1.59328,0.20864 3.18668,0.41589 4.78023,0.62176 -1.59366,0.19371 -3.1875,0.38937 -4.78154,0.58699 1.5936,0.2053 3.18734,0.40922 4.78121,0.61175 -1.59398,0.19704 -3.18815,0.39605 -4.78251,0.597 1.59392,0.20196 3.18798,0.40254 4.78217,0.60173 -1.5943,0.20039 -3.1888,0.40273 -4.78348,0.60702 1.59425,0.19862 3.18863,0.39586 4.78315,0.59172 -1.59463,0.20372 -3.18945,0.4094 -4.78446,0.61703 1.59457,0.19529 3.18928,0.38919 4.78413,0.5817 -1.59496,0.20706 -3.1901,0.41608 -4.78544,0.62705 1.5949,0.19195 3.18994,0.38251 4.78511,0.57169 -1.59528,0.2104 -3.19075,0.42275 -4.78642,0.63706 1.59523,0.18861 3.19059,0.37583 4.78609,0.56167 -1.59561,0.21374 -3.19141,0.42944 -4.78739,0.64708 1.59555,0.18527 3.19123,0.36916 4.78705,0.55166 -1.59593,0.21708 -3.19205,0.43611 -4.78836,0.65709 1.59587,0.18193 3.19189,0.36248 4.78803,0.54164 -1.59626,0.22042 -3.1927,0.44279 -4.78934,0.66711 1.5962,0.1786 3.19254,0.3558 4.78901,0.53163 -1.59658,0.22375 -3.19335,0.44946 -4.79032,0.67713 1.59653,0.17525 3.19319,0.34912 4.78999,0.5216 -1.59691,0.2271 -3.19401,0.45614 -4.7913,0.68715 1.59686,0.17191 3.19384,0.34244 4.79097,0.51159 -1.59724,0.23043 -3.19466,0.46282 -4.79227,0.69716 1.00678,0.10626 2.01362,0.21197 3.02052,0.31714 0.59061,0.0603 1.18141,0.11906 1.77238,0.17635 -1.59632,0.22693 -3.19275,0.46908 -4.78858,0.7275 1.60055,0.15033 3.20217,0.2893 4.80453,0.41638 -1.59406,0.25354 -3.18739,0.52346 -4.77926,0.8108 1.60407,0.12199 3.20872,0.23173 4.81363,0.3287 -1.59021,0.28203 -3.17884,0.5816 -4.76515,0.89973 1.60652,0.0915 3.21312,0.16977 4.81948,0.23442 -1.58475,0.31239 -3.16707,0.64348 -4.74623,0.99429 1.60788,0.0587 3.21535,0.10338 4.8221,0.13352 -1.5777,0.34464 -3.1521,0.70912 -4.72251,1.09448 1.60816,0.0237 3.21543,0.0326 4.82147,0.026 -1.56904,0.37876 -3.13394,0.77851 -4.69399,1.20029 1.60737,-0.0134 3.21334,-0.0426 4.8176,-0.0881 -1.55877,0.41475 -3.11257,0.85164 -4.66066,1.31172 1.60549,-0.0528 3.20909,-0.12216 4.81048,-0.20877 -1.54691,0.4526 -3.08799,0.92852 -4.62252,1.42877 1.60252,-0.0943 3.20267,-0.20615 4.80012,-0.33608 -1.53345,0.49234 -3.06022,1.00915 -4.57959,1.55145 1.59849,-0.13806 3.1941,-0.29454 4.78652,-0.46999 -1.51838,0.53396 -3.02924,1.09354 -4.53185,1.67976 1.59336,-0.18401 3.18336,-0.38733 4.76967,-0.61051 -1.50171,0.57745 -2.99506,1.18167 -4.47931,1.81369 1.58716,-0.23216 3.17047,-0.48452 4.74959,-0.75762 -1.48345,0.62282 -2.95768,1.27355 -4.42197,1.95324 1.57988,-0.28252 3.15541,-0.58611 4.72626,-0.91134 -1.03383,0.47331 -2.06263,0.96112 -3.08616,1.4638 -0.4255,0.20892 -0.84994,0.42061 -1.27329,0.63509 1.5714,-0.33547 3.13687,-0.69466 4.69567,-1.07759 -1.4416,0.71969 -2.87026,1.47157 -4.28449,2.2555 1.55871,-0.39374 3.11027,-0.81124 4.65392,-1.2525 -1.41457,0.77304 -2.81448,1.57808 -4.19822,2.41501 1.54305,-0.45224 3.07772,-0.92827 4.60325,-1.42809 -1.38459,0.82587 -2.75279,1.68356 -4.10308,2.57296 1.52441,-0.51097 3.03922,-1.04575 4.54365,-1.60436 -1.35166,0.87817 -2.6852,1.78799 -3.99909,2.72933 1.5028,-0.56992 2.99477,-1.16367 4.47513,-1.78128 -1.31578,0.92995 -2.6117,1.89136 -3.88625,2.88408 1.47823,-0.62904 2.94438,-1.28199 4.39769,-1.95882 -1.27694,0.9812 -2.53229,1.99372 -3.76453,3.03732 1.45066,-0.6885 2.88802,-1.4008 4.31132,-2.13711 -1.23515,1.03191 -2.44698,2.09501 -3.63397,3.18901 1.42013,-0.7481 2.82573,-1.5201 4.21603,-2.3161 -1.19041,1.0822 -2.35577,2.1952 -3.49455,3.3391 1.38663,-0.8079 2.75749,-1.6398 4.11182,-2.4956 -1.14271,1.1318 -2.25864,2.2944 -3.34627,3.4876 1.35015,-0.868 2.6833,-1.76 3.99869,-2.676 -1.09207,1.181 -2.15562,2.3926 -3.18913,3.6346 1.05796,-0.7493 2.10406,-1.5142 3.13787,-2.2948 0.24686,-0.1863 0.49298,-0.3733 0.73838,-0.5612 -1.03917,1.2314 -2.04678,2.4907 -3.02327,3.7762 1.26727,-0.9857 2.51502,-1.9927 3.7434,-3.0203 -0.98197,1.2745 -1.93292,2.5751 -2.85328,3.9001 1.22286,-1.0383 2.42643,-2.0966 3.61085,-3.1742 -0.92592,1.3145 -1.82135,2.6534 -2.68674,4.015 1.17883,-1.0878 2.33859,-2.1943 3.47942,-3.3188 -0.87101,1.3517 -1.71207,2.7259 -2.52364,4.121 1.13518,-1.1341 2.2515,-2.2856 3.34912,-3.4538 -0.81726,1.3858 -1.60511,2.7923 -2.364,4.218 1.09189,-1.1772 2.16515,-2.3706 3.21993,-3.5794 -0.76465,1.417 -1.50044,2.8529 -2.20781,4.3062 1.04899,-1.2173 2.07955,-2.4494 3.09186,-3.6955 -0.71319,1.4451 -1.39807,2.9074 -2.05506,4.3852 1.00645,-1.254 1.9947,-2.5217 2.96491,-3.802 -0.66289,1.4702 -1.298,2.9559 -1.90576,4.4554 0.96427,-1.2878 1.91058,-2.5878 2.83907,-3.8992 -0.61374,1.4924 -1.20023,2.9985 -1.75992,4.5166 0.92249,-1.3183 1.82722,-2.6475 2.71436,-3.9869 -0.56573,1.5117 -1.10476,3.0352 -1.61752,4.5689 0.88106,-1.3456 1.7446,-2.7008 2.59076,-4.065 -0.51887,1.5279 -1.01159,3.0658 -1.47857,4.6122 0.0595,-0.097 0.11895,-0.1942 0.17829,-0.2913 0.77802,-1.2739 1.54227,-2.5546 2.29307,-3.8418 -0.47288,1.5411 -0.92218,3.0904 -1.34874,4.6473 0.8026,-1.3904 1.58986,-2.7883 2.36218,-4.1932 -0.43192,1.552 -0.84123,3.1115 -1.22878,4.678 0.76707,-1.4096 1.51943,-2.8261 2.25747,-4.2492 -0.3927,1.5619 -0.76377,3.1307 -1.11406,4.706 0.73299,-1.4276 1.45191,-2.8615 2.15715,-4.3015 -0.35524,1.571 -0.68983,3.1483 -1.00462,4.7313 0.7004,-1.4441 1.38735,-2.8941 2.06125,-4.3497 -0.31953,1.579 -0.6194,3.1638 -0.90044,4.7538 0.66926,-1.4594 1.32571,-2.9242 1.96975,-4.3941 -0.28558,1.5863 -0.55248,3.1777 -0.80152,4.7738 0.63959,-1.4735 1.26701,-2.9518 1.88265,-4.4346 -0.25339,1.5926 -0.48906,3.1897 -0.70787,4.7908 0.6114,-1.4861 1.21125,-2.9766 1.79996,-4.4711 -0.22295,1.598 -0.42916,3.2 -0.61948,4.8053 0.58466,-1.4975 1.15842,-2.9989 1.72166,-4.5038 -0.19425,1.6026 -0.37276,3.2084 -0.53635,4.8171 0.55941,-1.5076 1.10854,-3.0186 1.64778,-4.5325 -0.16732,1.6061 -0.31987,3.215 -0.45849,4.826 0.53562,-1.5164 1.06158,-3.0356 1.5783,-4.5573 -0.14214,1.6088 -0.27049,3.2198 -0.38589,4.8323 0.51329,-1.5238 1.01757,-3.05 1.51323,-4.5782 -0.11873,1.6106 -0.22463,3.2228 -0.31856,4.8359"
       style="font-variation-settings:normal;vector-effect:none;fill:none;fill-opacity:1;stroke:#999999;stroke-width:0.5;stroke-linecap:butt;stroke-linejoin:miter;stroke-miterlimit:4;stroke-dasharray:none;stroke-dashoffset:15;stroke-opacity:1;-inkscape-stroke:none;stop-color:#000000"
       inkscape:path-effect="#path-effect35-2-6"
       inkscape:original-d="m 500.15609,914.09925 -1.87999,9.555 -0.0501,55.72581 c 0,22.88444 10.97633,33.50234 33.35374,37.95514"
       sodipodi:nodetypes="ccsc"
       transform="rotate(-75.287911,-297.32045,794.23832)" />
    <path
       id="path2"
       style="font-variation-settings:normal;opacity:1;vector-effect:none;fill:#ffffff;fill-opacity:1;stroke:none;stroke-width:0.25;stroke-linecap:butt;stroke-linejoin:miter;stroke-miterlimit:4;stroke-dasharray:none;stroke-dashoffset:7.5;stroke-opacity:1;-inkscape-stroke:none;stop-color:#000000;stop-opacity:1"
       d="m 84.863281,16.982422 h 7.369141 v 1.669922 h -7.369141 z m -0.130859,10.558594 h 7.36914 v 1.669921 h -7.36914 z m 0.261719,11.199218 h 7.36914 v 1.667969 h -7.36914 z"
       transform="matrix(0.50932975,-1.9340587,1.9340587,0.50932975,-32.236563,206.26788)"
       inkscape:path-effect="#path-effect15"
       inkscape:original-d="m 93.092011,16.12337 -9.087473,-7.1e-5 1.27e-4,3.388224 9.087474,7.1e-5 z m -0.131927,10.559155 -9.087474,-7.1e-5 1.28e-4,3.388223 9.087407,-1.79e-4 z m 0.262501,11.197541 -9.087474,-7.1e-5 1.28e-4,3.388223 9.087473,7.1e-5 z" />
    <path
       id="path1"
       class="fabric"
       d="m 441.21252,1011.4129 c 20.08587,-4.2331 28.19202,-14.09123 28.19202,-36.08306 v -56.0002 -9.99991"
       style="font-variation-settings:normal;opacity:1;fill:none;fill-opacity:1;stroke:#ff0000;stroke-width:2;stroke-linecap:butt;stroke-linejoin:miter;stroke-miterlimit:4;stroke-dasharray:4, 12;stroke-dashoffset:0;stroke-opacity:1;stop-color:#000000;stop-opacity:1"
       sodipodi:nodetypes="cscc"
       transform="matrix(-0.26209074,0.96504323,0.96504323,0.26209074,-735.42568,-637.91578)"
       inkscape:path-effect="#path-effect4"
       inkscape:original-d="m 441.62496,1013.3699 c 21.02,-4.43 29.77958,-15.09006 29.77958,-38.04006 v -56.0002 -9.99991" />
    <path
       style="font-variation-settings:normal;opacity:1;vector-effect:none;fill:none;fill-opacity:1;stroke:#ff0000;stroke-width:0.25;stroke-linecap:butt;stroke-linejoin:miter;stroke-miterlimit:4;stroke-dasharray:none;stroke-dashoffset:7.5;stroke-opacity:1;-inkscape-stroke:none;stop-color:#000000;stop-opacity:1"
       id="rect4"
       width="9.0874891"
       height="3.3882256"
       x="84.004616"
       y="16.12328"
       inkscape:path-effect="#path-effect5"
       sodipodi:type="rect"
       d="m 84.606463,17.706554 -0.411188,-1.186908 -0.190659,1.207267 m 1.203695,-0.02036 -0.411189,-1.186908 -0.190659,1.207267 m 1.203696,-0.02036 -0.411189,-1.186908 -0.190659,1.207267 m 1.203696,-0.02036 -0.411189,-1.186908 -0.190659,1.207267 m 1.203695,-0.02036 -0.411189,-1.186908 -0.190658,1.207267 m 1.203695,-0.02036 -0.411189,-1.186908 -0.190659,1.207267 m 1.203696,-0.02036 -0.411189,-1.186908 -0.190659,1.207267 m 1.203695,-0.02036 -0.411188,-1.186908 -0.190659,1.207267 m 1.203695,-0.02036 -0.411189,-1.186908 -0.190659,1.207267 m 1.203696,-0.02036 -0.411189,-1.186908 -0.190659,1.207267 m 1.203696,-0.02036 -0.411189,-1.186908 -0.190659,1.207267 m 1.203695,-0.02036 -0.411189,-1.186908 -0.190658,1.207267 m 1.203695,-0.02036 -0.411189,-1.186908 -0.190659,1.207267 m 1.203696,-0.02036 -0.411189,-1.186908 -0.190659,1.207267 m 1.203695,-0.02036 -0.411189,-1.186908 -0.190658,1.207267 m -0.921653,-1.061559 1.186908,-0.411189 -0.828777,-0.130885 m 1.225143,1.225143 -0.05977,0.37849 m -1.5235,-0.459711 1.186908,-0.411189 -1.207268,-0.190659 m 0.02036,1.203695 1.186908,-0.411189 -1.207268,-0.190658 m 0.02036,1.203695 1.186908,-0.411189 -1.207268,-0.190659 m 0.02036,1.203696 1.186908,-0.411189 -1.207268,-0.190659 m 1.440547,-0.542666 0.163087,0.470756 m -1.112519,1.112518 0.716153,-0.248102 -1.207268,-0.190658 m 0.838699,-1.144514 0.411189,1.186908 0.190659,-1.207268 m -1.203696,0.02036 0.411189,1.186908 0.190659,-1.207268 m -1.203695,0.02036 0.411189,1.186908 0.190658,-1.207268 m -1.203695,0.02036 0.411189,1.186908 0.190659,-1.207268 m -1.203696,0.02036 0.411189,1.186908 0.190659,-1.207268 m -1.203696,0.02036 0.411189,1.186908 0.190659,-1.207268 m -1.203695,0.02036 0.411189,1.186908 0.190658,-1.207268 m -1.203695,0.02036 0.411189,1.186908 0.190659,-1.207268 m -1.203696,0.02036 0.411189,1.186908 0.190659,-1.207268 m -1.203695,0.02036 0.411189,1.186908 0.190658,-1.207268 m -1.203695,0.02036 0.411189,1.186908 0.190659,-1.207268 m -1.203696,0.02036 0.411189,1.186908 0.190659,-1.207268 m -1.203696,0.02036 0.411189,1.186908 0.190659,-1.207268 m -1.203695,0.02036 0.411189,1.186908 0.190658,-1.207268 m 0.482893,1.50032 -0.298218,0.103314 m -1.285056,-1.285056 0.307875,0.88869 0.190659,-1.207268 m 1.08474,0.898473 -1.186908,0.411189 1.207267,0.190658 m -0.02036,-1.203695 -1.186908,0.411189 1.207267,0.190659 m -0.02036,-1.203696 -1.186908,0.411189 1.207267,0.190659 m -0.02036,-1.203695 -1.186908,0.411188 1.207267,0.190659 m -0.02036,-1.203695 -1.186908,0.411189 1.207267,0.190659"
       transform="matrix(0.50932975,-1.9340587,1.9340587,0.50932975,-32.236563,206.26788)" />
    <path
       style="font-variation-settings:normal;opacity:1;vector-effect:none;fill:none;fill-opacity:1;stroke:#ff0000;stroke-width:0.25;stroke-linecap:butt;stroke-linejoin:miter;stroke-miterlimit:4;stroke-dasharray:none;stroke-dashoffset:7.5;stroke-opacity:1;-inkscape-stroke:none;stop-color:#000000;stop-opacity:1"
       id="path5"
       width="9.0874891"
       height="3.3882256"
       x="84.004616"
       y="16.12328"
       inkscape:path-effect="#path-effect7"
       sodipodi:type="rect"
       d="m 84.606463,17.706554 -0.411188,-1.186908 -0.190659,1.207267 m 1.203695,-0.02036 -0.411189,-1.186908 -0.190659,1.207267 m 1.203696,-0.02036 -0.411189,-1.186908 -0.190659,1.207267 m 1.203696,-0.02036 -0.411189,-1.186908 -0.190659,1.207267 m 1.203695,-0.02036 -0.411189,-1.186908 -0.190658,1.207267 m 1.203695,-0.02036 -0.411189,-1.186908 -0.190659,1.207267 m 1.203696,-0.02036 -0.411189,-1.186908 -0.190659,1.207267 m 1.203695,-0.02036 -0.411188,-1.186908 -0.190659,1.207267 m 1.203695,-0.02036 -0.411189,-1.186908 -0.190659,1.207267 m 1.203696,-0.02036 -0.411189,-1.186908 -0.190659,1.207267 m 1.203696,-0.02036 -0.411189,-1.186908 -0.190659,1.207267 m 1.203695,-0.02036 -0.411189,-1.186908 -0.190658,1.207267 m 1.203695,-0.02036 -0.411189,-1.186908 -0.190659,1.207267 m 1.203696,-0.02036 -0.411189,-1.186908 -0.190659,1.207267 m 1.203695,-0.02036 -0.411189,-1.186908 -0.190658,1.207267 m -0.921653,-1.061559 1.186908,-0.411189 -0.828777,-0.130885 m 1.225143,1.225143 -0.05977,0.37849 m -1.5235,-0.459711 1.186908,-0.411189 -1.207268,-0.190659 m 0.02036,1.203695 1.186908,-0.411189 -1.207268,-0.190658 m 0.02036,1.203695 1.186908,-0.411189 -1.207268,-0.190659 m 0.02036,1.203696 1.186908,-0.411189 -1.207268,-0.190659 m 1.440547,-0.542666 0.163087,0.470756 m -1.112519,1.112518 0.716153,-0.248102 -1.207268,-0.190658 m 0.838699,-1.144514 0.411189,1.186908 0.190659,-1.207268 m -1.203696,0.02036 0.411189,1.186908 0.190659,-1.207268 m -1.203695,0.02036 0.411189,1.186908 0.190658,-1.207268 m -1.203695,0.02036 0.411189,1.186908 0.190659,-1.207268 m -1.203696,0.02036 0.411189,1.186908 0.190659,-1.207268 m -1.203696,0.02036 0.411189,1.186908 0.190659,-1.207268 m -1.203695,0.02036 0.411189,1.186908 0.190658,-1.207268 m -1.203695,0.02036 0.411189,1.186908 0.190659,-1.207268 m -1.203696,0.02036 0.411189,1.186908 0.190659,-1.207268 m -1.203695,0.02036 0.411189,1.186908 0.190658,-1.207268 m -1.203695,0.02036 0.411189,1.186908 0.190659,-1.207268 m -1.203696,0.02036 0.411189,1.186908 0.190659,-1.207268 m -1.203696,0.02036 0.411189,1.186908 0.190659,-1.207268 m -1.203695,0.02036 0.411189,1.186908 0.190658,-1.207268 m 0.482893,1.50032 -0.298218,0.103314 m -1.285056,-1.285056 0.307875,0.88869 0.190659,-1.207268 m 1.08474,0.898473 -1.186908,0.411189 1.207267,0.190658 m -0.02036,-1.203695 -1.186908,0.411189 1.207267,0.190659 m -0.02036,-1.203696 -1.186908,0.411189 1.207267,0.190659 m -0.02036,-1.203695 -1.186908,0.411188 1.207267,0.190659 m -0.02036,-1.203695 -1.186908,0.411189 1.207267,0.190659"
       transform="matrix(0.50932975,-1.9340587,1.9340587,0.50932975,-11.881813,211.90128)" />
    <path
       style="font-variation-settings:normal;opacity:1;vector-effect:none;fill:none;fill-opacity:1;stroke:#ff0000;stroke-width:0.25;stroke-linecap:butt;stroke-linejoin:miter;stroke-miterlimit:4;stroke-dasharray:none;stroke-dashoffset:7.5;stroke-opacity:1;-inkscape-stroke:none;stop-color:#000000;stop-opacity:1"
       id="path7"
       width="9.0874891"
       height="3.3882256"
       x="84.004616"
       y="16.12328"
       inkscape:path-effect="#path-effect9"
       sodipodi:type="rect"
       d="m 84.606463,17.706554 -0.411188,-1.186908 -0.190659,1.207267 m 1.203695,-0.02036 -0.411189,-1.186908 -0.190659,1.207267 m 1.203696,-0.02036 -0.411189,-1.186908 -0.190659,1.207267 m 1.203696,-0.02036 -0.411189,-1.186908 -0.190659,1.207267 m 1.203695,-0.02036 -0.411189,-1.186908 -0.190658,1.207267 m 1.203695,-0.02036 -0.411189,-1.186908 -0.190659,1.207267 m 1.203696,-0.02036 -0.411189,-1.186908 -0.190659,1.207267 m 1.203695,-0.02036 -0.411188,-1.186908 -0.190659,1.207267 m 1.203695,-0.02036 -0.411189,-1.186908 -0.190659,1.207267 m 1.203696,-0.02036 -0.411189,-1.186908 -0.190659,1.207267 m 1.203696,-0.02036 -0.411189,-1.186908 -0.190659,1.207267 m 1.203695,-0.02036 -0.411189,-1.186908 -0.190658,1.207267 m 1.203695,-0.02036 -0.411189,-1.186908 -0.190659,1.207267 m 1.203696,-0.02036 -0.411189,-1.186908 -0.190659,1.207267 m 1.203695,-0.02036 -0.411189,-1.186908 -0.190658,1.207267 m -0.921653,-1.061559 1.186908,-0.411189 -0.828777,-0.130885 m 1.225143,1.225143 -0.05977,0.37849 m -1.5235,-0.459711 1.186908,-0.411189 -1.207268,-0.190659 m 0.02036,1.203695 1.186908,-0.411189 -1.207268,-0.190658 m 0.02036,1.203695 1.186908,-0.411189 -1.207268,-0.190659 m 0.02036,1.203696 1.186908,-0.411189 -1.207268,-0.190659 m 1.440547,-0.542666 0.163087,0.470756 m -1.112519,1.112518 0.716153,-0.248102 -1.207268,-0.190658 m 0.838699,-1.144514 0.411189,1.186908 0.190659,-1.207268 m -1.203696,0.02036 0.411189,1.186908 0.190659,-1.207268 m -1.203695,0.02036 0.411189,1.186908 0.190658,-1.207268 m -1.203695,0.02036 0.411189,1.186908 0.190659,-1.207268 m -1.203696,0.02036 0.411189,1.186908 0.190659,-1.207268 m -1.203696,0.02036 0.411189,1.186908 0.190659,-1.207268 m -1.203695,0.02036 0.411189,1.186908 0.190658,-1.207268 m -1.203695,0.02036 0.411189,1.186908 0.190659,-1.207268 m -1.203696,0.02036 0.411189,1.186908 0.190659,-1.207268 m -1.203695,0.02036 0.411189,1.186908 0.190658,-1.207268 m -1.203695,0.02036 0.411189,1.186908 0.190659,-1.207268 m -1.203696,0.02036 0.411189,1.186908 0.190659,-1.207268 m -1.203696,0.02036 0.411189,1.186908 0.190659,-1.207268 m -1.203695,0.02036 0.411189,1.186908 0.190658,-1.207268 m 0.482893,1.50032 -0.298218,0.103314 m -1.285056,-1.285056 0.307875,0.88869 0.190659,-1.207268 m 1.08474,0.898473 -1.186908,0.411189 1.207267,0.190658 m -0.02036,-1.203695 -1.186908,0.411189 1.207267,0.190659 m -0.02036,-1.203696 -1.186908,0.411189 1.207267,0.190659 m -0.02036,-1.203695 -1.186908,0.411188 1.207267,0.190659 m -0.02036,-1.203695 -1.186908,0.411189 1.207267,0.190659"
       transform="matrix(0.50932975,-1.9340587,1.9340587,0.50932975,9.9086663,217.09678)" />
  </g>
</svg>
