<?xml version="1.0" encoding="UTF-8" standalone="no"?>
<!-- Created with Inkscape (http://www.inkscape.org/) -->

<svg
   width="600"
   height="400"
   viewBox="0 0 158.75 105.83333"
   version="1.1"
   id="svg1"
   inkscape:version="1.4 (e7c3feb100, 2024-10-09)"
   sodipodi:docname="step-3.svg"
   xmlns:inkscape="http://www.inkscape.org/namespaces/inkscape"
   xmlns:sodipodi="http://sodipodi.sourceforge.net/DTD/sodipodi-0.dtd"
   xmlns="http://www.w3.org/2000/svg"
   xmlns:svg="http://www.w3.org/2000/svg">
  <sodipodi:namedview
     id="namedview1"
     pagecolor="#ffffff"
     bordercolor="#666666"
     borderopacity="1.0"
     inkscape:showpageshadow="2"
     inkscape:pageopacity="0.0"
     inkscape:pagecheckerboard="0"
     inkscape:deskcolor="#d1d1d1"
     inkscape:document-units="mm"
     inkscape:zoom="1"
     inkscape:cx="391.5"
     inkscape:cy="159.5"
     inkscape:window-width="2256"
     inkscape:window-height="1427"
     inkscape:window-x="0"
     inkscape:window-y="0"
     inkscape:window-maximized="1"
     inkscape:current-layer="layer1" />
  <defs
     id="defs1">
    <inkscape:path-effect
       effect="offset"
       id="path-effect19"
       is_visible="true"
       lpeversion="1.3"
       linejoin_type="miter"
       unit="mm"
       offset="-1"
       miter_limit="4"
       attempt_force_join="false"
       update_on_knot_move="true" />
    <inkscape:path-effect
       effect="offset"
       id="path-effect18"
       is_visible="true"
       lpeversion="1.3"
       linejoin_type="miter"
       unit="mm"
       offset="-1"
       miter_limit="4"
       attempt_force_join="false"
       update_on_knot_move="true" />
    <inkscape:path-effect
       effect="skeletal"
       id="path-effect17"
       is_visible="true"
       lpeversion="1"
       pattern="M 0.49730967,4.8652525 0.99731968,0.07292255 1.7037697,4.8652525"
       copytype="repeated"
       prop_scale="1"
       scale_y_rel="false"
       spacing="0"
       normal_offset="-1.3"
       tang_offset="0"
       prop_units="false"
       vertical_pattern="false"
       hide_knot="false"
       fuse_tolerance="0" />
    <inkscape:path-effect
       effect="skeletal"
       id="path-effect15"
       is_visible="true"
       lpeversion="1"
       pattern="M 0.49730967,4.8652525 0.99731968,0.07292255 1.7037697,4.8652525"
       copytype="repeated"
       prop_scale="1"
       scale_y_rel="false"
       spacing="0"
       normal_offset="-1.3"
       tang_offset="0"
       prop_units="false"
       vertical_pattern="false"
       hide_knot="false"
       fuse_tolerance="0" />
    <inkscape:path-effect
       effect="skeletal"
       id="path-effect13"
       is_visible="true"
       lpeversion="1"
       pattern="m -43.706093,-69.991573 0.50001,-4.79233 0.70645,4.79233"
       copytype="repeated"
       prop_scale="1"
       scale_y_rel="false"
       spacing="0"
       normal_offset="-1.3"
       tang_offset="0"
       prop_units="false"
       vertical_pattern="false"
       hide_knot="false"
       fuse_tolerance="0" />
    <inkscape:path-effect
       effect="skeletal"
       id="path-effect7"
       is_visible="true"
       lpeversion="1"
       pattern="m -43.706093,-69.991573 0.50001,-4.79233 0.70645,4.79233"
       copytype="repeated"
       prop_scale="1"
       scale_y_rel="false"
       spacing="0"
       normal_offset="-1.3"
       tang_offset="0"
       prop_units="false"
       vertical_pattern="false"
       hide_knot="false"
       fuse_tolerance="0" />
    <inkscape:path-effect
       effect="skeletal"
       id="path-effect2"
       is_visible="true"
       lpeversion="1"
       pattern="m -43.706093,-69.991573 0.50001,-4.79233 0.70645,4.79233"
       copytype="repeated"
       prop_scale="1"
       scale_y_rel="false"
       spacing="0"
       normal_offset="-1.3"
       tang_offset="0"
       prop_units="false"
       vertical_pattern="false"
       hide_knot="false"
       fuse_tolerance="0" />
    <inkscape:path-effect
       effect="skeletal"
       id="path-effect1"
       is_visible="true"
       lpeversion="1"
       pattern="M 0,0 H 1"
       copytype="single_stretched"
       prop_scale="1"
       scale_y_rel="false"
       spacing="0"
       normal_offset="0"
       tang_offset="0"
       prop_units="false"
       vertical_pattern="false"
       hide_knot="false"
       fuse_tolerance="0" />
    <inkscape:path-effect
       effect="skeletal"
       id="path-effect5"
       is_visible="true"
       lpeversion="1"
       pattern="M 0.49730967,4.8652525 0.99731968,0.07292255 1.7037697,4.8652525"
       copytype="repeated"
       prop_scale="1"
       scale_y_rel="false"
       spacing="0"
       normal_offset="-1.3"
       tang_offset="0"
       prop_units="false"
       vertical_pattern="false"
       hide_knot="false"
       fuse_tolerance="0" />
    <inkscape:path-effect
       effect="skeletal"
       id="path-effect33"
       is_visible="true"
       lpeversion="1"
       pattern="M 0.49730967,4.8652525 0.99731968,0.07292255 1.7037697,4.8652525"
       copytype="repeated"
       prop_scale="1"
       scale_y_rel="false"
       spacing="0"
       normal_offset="-1.3"
       tang_offset="0"
       prop_units="false"
       vertical_pattern="false"
       hide_knot="false"
       fuse_tolerance="0" />
    <inkscape:path-effect
       effect="skeletal"
       id="path-effect35"
       is_visible="true"
       lpeversion="1"
       pattern="M 0.49730967,4.8652525 0.99731968,0.07292255 1.7037697,4.8652525"
       copytype="repeated"
       prop_scale="1"
       scale_y_rel="false"
       spacing="0"
       normal_offset="-1.3"
       tang_offset="0"
       prop_units="false"
       vertical_pattern="false"
       hide_knot="false"
       fuse_tolerance="0" />
    <inkscape:path-effect
       effect="skeletal"
       id="path-effect36"
       is_visible="true"
       lpeversion="1"
       pattern="M 0.49730967,4.8652525 0.99731968,0.07292255 1.7037697,4.8652525"
       copytype="repeated"
       prop_scale="1"
       scale_y_rel="false"
       spacing="0"
       normal_offset="-1.3"
       tang_offset="0"
       prop_units="false"
       vertical_pattern="false"
       hide_knot="false"
       fuse_tolerance="0" />
    <inkscape:path-effect
       effect="skeletal"
       id="path-effect39"
       is_visible="true"
       lpeversion="1"
       pattern="M 0.49730967,4.8652525 0.99731968,0.07292255 1.7037697,4.8652525"
       copytype="repeated"
       prop_scale="1"
       scale_y_rel="false"
       spacing="0"
       normal_offset="-1.3"
       tang_offset="0"
       prop_units="false"
       vertical_pattern="false"
       hide_knot="false"
       fuse_tolerance="0" />
    <inkscape:path-effect
       effect="skeletal"
       id="path-effect39-6"
       is_visible="true"
       lpeversion="1"
       pattern="M 0.49730967,4.8652525 0.99731968,0.07292255 1.7037697,4.8652525"
       copytype="repeated"
       prop_scale="1"
       scale_y_rel="false"
       spacing="0"
       normal_offset="-1.3"
       tang_offset="0"
       prop_units="false"
       vertical_pattern="false"
       hide_knot="false"
       fuse_tolerance="0" />
    <inkscape:path-effect
       effect="skeletal"
       id="path-effect36-2"
       is_visible="true"
       lpeversion="1"
       pattern="M 0.49730967,4.8652525 0.99731968,0.07292255 1.7037697,4.8652525"
       copytype="repeated"
       prop_scale="1"
       scale_y_rel="false"
       spacing="0"
       normal_offset="-1.3"
       tang_offset="0"
       prop_units="false"
       vertical_pattern="false"
       hide_knot="false"
       fuse_tolerance="0" />
  </defs>
  <g
     inkscape:label="Layer 1"
     inkscape:groupmode="layer"
     id="layer1">
    <path
       class="lining sa sa"
       id="fs-12"
       d="m 127.16918,99.764933 2.17382,0.15947 1.96005,-6.566149 c 10.20058,-34.151435 16.40243,-55.086218 16.5031,-67.985825 0.002,-0.221244 4.3e-4,-0.43876 -0.002,-0.652535 l -0.0443,-3.461701 -3.37273,-0.30383 C 118.66422,16.591385 93.335473,11.13916 67.682303,7.8804016 l -4.05481,-0.361655 -0.0317,4.0686254 c -0.0532,6.809792 0.0995,11.753634 -4.2323,14.213653 -3.33361,1.890292 -8.71211,2.478336 -17.15686,2.41243 -7.28227,-0.05683 -16.68638,-0.688993 -28.82459,-1.766253 l -4.2759297,-0.378381 0.19533,4.284154 c 0.63759,13.925398 2.4095597,31.939775 4.7203297,52.512187 l 0.76064,6.808643 2.16951,0.230688 54.90108,5.843631 0.2511,0.02066 55.065477,3.996109"
       style="font-variation-settings:normal;vector-effect:none;fill:#e7e7e7;fill-opacity:1;stroke:#beb7c8;stroke-width:0.75;stroke-linecap:round;stroke-linejoin:round;stroke-miterlimit:4;stroke-dasharray:none;stroke-dashoffset:0;stroke-opacity:1;-inkscape-stroke:none;stop-color:#000000"
       sodipodi:nodetypes="cccccccccscsccccccccc" />
    <g
       id="g2"
       transform="matrix(-0.3624104,-0.0968138,-0.09640031,0.3624852,220.02126,-35.964167)"
       style="stroke-width:1.33297">
      <path
         id="fs-19"
         class="fabric"
         d="m 148.66868,199.87312 -1.72031,9.3302 c -6.435,28.68623 -6.76442,53.01296 -4.5822,81.89764 l 9.96994,-0.7798 0.0403,0.5199 c 40.38,5.16 69.55998,7.9297 90.60998,7.9297 42.21,0 58.40984,-11.9298 67.77984,-27.4598 6.48996,-10.76 9.22986,-25.62 9.28986,-46.16 l 1.3002,-9.9198 -163.27785,-14.12764 z"
         style="fill:#5677a8;fill-opacity:1;stroke:#0b1627;stroke-width:2.66594;stroke-linecap:round;stroke-linejoin:round;stroke-dasharray:none;stroke-dashoffset:0;stroke-opacity:1"
         sodipodi:nodetypes="cccccsccccc" />
      <path
         id="path36"
         class="fabric"
         d="m 632.76126,1204.2307 c 0.12376,-1.6013 0.25361,-3.2023 0.38955,-4.803 0.27741,1.5908 0.54622,3.1812 0.80642,4.7712 0.13846,-1.6006 0.283,-3.2008 0.43364,-4.8008 0.26271,1.5901 0.51682,3.1797 0.76233,4.7689 0.15315,-1.5998 0.31239,-3.1993 0.47772,-4.7985 0.24802,1.5894 0.48744,3.1783 0.71825,4.7667 0.16785,-1.599 0.34178,-3.1978 0.52181,-4.7963 0.23332,1.5886 0.45804,3.1768 0.67416,4.7645 0.18254,-1.5983 0.37117,-3.1963 0.5659,-4.7941 0.21862,1.5879 0.42865,3.1753 0.63007,4.7623 0.19724,-1.5976 0.40056,-3.1949 0.60998,-4.7918 0.20394,1.5871 0.39926,3.1737 0.58599,4.76 0.21193,-1.5969 0.42995,-3.1934 0.65407,-4.7896 0.18924,1.5863 0.36987,3.1722 0.5419,4.7577 0.22663,-1.5961 0.45934,-3.1919 0.69815,-4.7873 0.17455,1.5856 0.34048,3.1708 0.49782,4.7555 0.17468,-1.1548 0.35255,-2.3094 0.53362,-3.4639 0.068,-0.4334 0.13606,-0.8669 0.20418,-1.3003 0.15373,1.6205 0.30631,3.2411 0.4578,4.8618 0.24701,-1.5696 0.49481,-3.1392 0.74338,-4.7089 0.15181,1.6207 0.30253,3.2414 0.45219,4.8621 0.24889,-1.5696 0.49853,-3.1393 0.74891,-4.7089 0.14997,1.6207 0.29889,3.2415 0.44681,4.8623 0.25068,-1.5697 0.50209,-3.1394 0.7542,-4.7091 0.14821,1.6208 0.29542,3.2417 0.44167,4.8625 0.2524,-1.5697 0.50549,-3.1394 0.75925,-4.7091 0.002,0.018 0.43518,4.8449 0.43678,4.8626 0.002,-0.013 0.76202,-4.6967 0.76406,-4.7093 0.002,0.019 0.43046,4.8441 0.43212,4.8627 0.002,-0.013 0.76647,-4.6962 0.76863,-4.7094 0.14342,1.6209 0.28597,3.2418 0.42771,4.8628 0.25707,-1.5699 0.51472,-3.1398 0.77295,-4.7097 0.14198,1.621 0.28315,3.2419 0.42354,4.8629 0.25846,-1.5699 0.51749,-3.1399 0.77704,-4.7099 0.14063,1.6209 0.28048,3.2419 0.41961,4.8629 0.25978,-1.57 0.52008,-3.1401 0.78089,-4.7102 0.13935,1.621 0.27797,3.2419 0.41592,4.8629 0.26101,-1.5701 0.52252,-3.1403 0.7845,-4.7105 0.13815,1.621 0.27562,3.2419 0.41246,4.8629 0.26217,-1.5702 0.52481,-3.1405 0.78787,-4.7108 0.13703,1.6209 0.27344,3.2419 0.40926,4.8628 0.26325,-1.5703 0.52692,-3.1407 0.791,-4.7112 0.13599,1.6209 0.27141,3.2418 0.40628,4.8628 0.26425,-1.5705 0.52889,-3.141 0.79389,-4.7116 0.13504,1.6208 0.26954,3.2417 0.40356,4.8626 0.26516,-1.5706 0.53068,-3.1413 0.79654,-4.712 0.13416,1.6208 0.26784,3.2416 0.40106,4.8624 0.26601,-1.5707 0.53233,-3.1415 0.79896,-4.7124 0.13336,1.6208 0.26629,3.2415 0.39882,4.8623 0.26675,-1.571 0.5338,-3.1419 0.80112,-4.7129 0.13265,1.6206 0.26491,3.2413 0.39681,4.862 0.26744,-1.5711 0.53513,-3.1422 0.80306,-4.7134 0.13201,1.6206 0.26368,3.2412 0.39504,4.8617 0.26803,-1.5712 0.53629,-3.1425 0.80475,-4.7139 0.13146,1.6205 0.26262,3.241 0.39352,4.8615 0.26855,-1.5715 0.53729,-3.1429 0.8062,-4.7145 0.13098,1.6204 0.26171,3.2408 0.39223,4.8612 0.26899,-1.5717 0.53813,-3.1434 0.80742,-4.7151 0.13058,1.6203 0.26096,3.2405 0.39118,4.8608 0.26934,-1.5718 0.53882,-3.1437 0.80839,-4.7157 0.13027,1.6202 0.26038,3.2403 0.39038,4.8604 0.26962,-1.572 0.53934,-3.1441 0.80913,-4.7163 0.13003,1.62 0.25995,3.24 0.38981,4.86 0.26982,-1.5723 0.5397,-3.1446 0.80962,-4.717 0.12988,1.6199 0.25969,3.2397 0.38949,4.8596 0.26993,-1.5725 0.5399,-3.1451 0.80987,-4.7177 0.12981,1.6197 0.25959,3.2394 0.38941,4.859 0.26997,-1.5727 0.53994,-3.1455 0.80989,-4.7184 0.12981,1.6196 0.25965,3.2391 0.38956,4.8586 0.26993,-1.573 0.53983,-3.1461 0.80966,-4.7192 0.1299,1.6194 0.25987,3.2387 0.38996,4.858 0.26982,-1.5732 0.53956,-3.1465 0.8092,-4.7199 0.13006,1.6191 0.26025,3.2383 0.3906,4.8574 0.26961,-1.5735 0.53912,-3.1471 0.8085,-4.7208 0.13031,1.619 0.26078,3.2379 0.39148,4.8568 0.26932,-1.5737 0.53852,-3.1476 0.80755,-4.7215 0.13063,1.6187 0.26148,3.2374 0.3926,4.8561 0.26896,-1.5741 0.53776,-3.1482 0.80636,-4.7224 0.13104,1.6185 0.26235,3.237 0.39396,4.8554 0.26853,-1.5743 0.53685,-3.1488 0.80495,-4.7233 0.13152,1.6183 0.26336,3.2366 0.39556,4.8548 0.268,-1.5747 0.53577,-3.1495 0.80328,-4.7243 0.13209,1.6181 0.26454,3.2361 0.3974,4.854 0.2674,-1.575 0.53453,-3.15 0.80138,-4.7252 0.13274,1.6178 0.26588,3.2356 0.39948,4.8533 0.26672,-1.5753 0.53314,-3.1507 0.79923,-4.7262 0.13347,1.6175 0.2674,3.235 0.40181,4.8524 0.26596,-1.5756 0.53159,-3.1514 0.79685,-4.7272 0.13428,1.6173 0.26906,3.2345 0.40437,4.8517 0.26512,-1.576 0.52988,-3.1521 0.79424,-4.7283 0.13516,1.617 0.27087,3.2339 0.40717,4.8508 0.2642,-1.5764 0.528,-3.1528 0.79137,-4.7294 0.13613,1.6167 0.27286,3.2334 0.41022,4.8499 0.2632,-1.5767 0.52596,-3.1535 0.78827,-4.7304 0.13718,1.6164 0.275,3.2327 0.4135,4.8489 0.26212,-1.577 0.52377,-3.1542 0.78493,-4.7315 0.13831,1.616 0.2773,3.232 0.41703,4.848 0.26095,-1.5775 0.52141,-3.1551 0.78134,-4.7327 0.13952,1.6157 0.27977,3.2314 0.4208,4.847 0.25972,-1.5779 0.5189,-3.1559 0.77753,-4.7339 0.1408,1.6154 0.28239,3.2307 0.4248,4.846 0.2584,-1.5783 0.51623,-3.1567 0.77347,-4.7352 0.14217,1.6151 0.28517,3.2301 0.42904,4.845 0.257,-1.5787 0.5134,-3.1575 0.76917,-4.7364 0.14363,1.6147 0.28812,3.2293 0.43354,4.8439 0.25552,-1.5791 0.5104,-3.1584 0.76463,-4.7377 0.14515,1.6144 0.29123,3.2286 0.43826,4.8428 0.25396,-1.5796 0.50725,-3.1592 0.75985,-4.739 0.14677,1.614 0.2945,3.2278 0.44324,4.8416 0.25232,-1.58 0.50393,-3.1601 0.75483,-4.7403 0.14845,1.6136 0.29792,3.2271 0.44844,4.8405 0.2506,-1.5805 0.50047,-3.161 0.74958,-4.7417 0.15022,1.6132 0.3015,3.2263 0.45389,4.8392 0.2488,-1.5809 0.49683,-3.1619 0.74408,-4.743 0.15207,1.6128 0.30525,3.2254 0.45958,4.838 0.24692,-1.5814 0.49304,-3.1629 0.73834,-4.7444 0.154,1.6123 0.30916,3.2245 0.46552,4.8366 0.24496,-1.5818 0.48909,-3.1638 0.73236,-4.7458 0.15601,1.6119 0.31323,3.2236 0.47168,4.8353 0.24293,-1.5823 0.48498,-3.1647 0.72615,-4.7473 0.1581,1.6114 0.31746,3.2228 0.4781,4.834 0.2408,-1.5828 0.48071,-3.1657 0.71969,-4.7488 0.16027,1.611 0.32184,3.2219 0.48475,4.8326 0.23861,-1.5833 0.47628,-3.1667 0.71299,-4.7503 0.16253,1.6105 0.3264,3.2209 0.49165,4.8312 0.23633,-1.5838 0.47169,-3.1678 0.70606,-4.7519 0.16485,1.6101 0.3311,3.22 0.49878,4.8298 0.23396,-1.5843 0.46693,-3.1688 0.69888,-4.7535 0.16727,1.6096 0.33597,3.219 0.50615,4.8284 0.23153,-1.5849 0.46203,-3.17 0.69147,-4.7551 0.16976,1.609 0.341,3.218 0.51377,4.8268 0.22901,-1.5854 0.45696,-3.171 0.68381,-4.7567 0.17233,1.6085 0.34619,3.2169 0.52163,4.8253 0.22641,-1.586 0.45172,-3.1722 0.67592,-4.7585 0.17498,1.6081 0.35154,3.216 0.52972,4.8238 0.22373,-1.5866 0.44633,-3.1733 0.66778,-4.7601 0.17772,1.6075 0.35706,3.2149 0.53806,4.8221 0.22098,-1.5871 0.44079,-3.1744 0.65941,-4.7618 0.18053,1.6069 0.36273,3.2138 0.54664,4.8205 0.21814,-1.5877 0.43507,-3.1756 0.65079,-4.7636 0.18342,1.6064 0.36856,3.2127 0.55546,4.8189 0.21522,-1.5884 0.42921,-3.1768 0.64194,-4.7654 0.18639,1.6058 0.37455,3.2115 0.56452,4.8171 0.21222,-1.5889 0.42317,-3.178 0.63285,-4.7672 0.18944,1.6053 0.3807,3.2105 0.57381,4.8155 0.20914,-1.5895 0.41699,-3.1792 0.62352,-4.7691 0.19257,1.6047 0.38701,3.2093 0.58335,4.8137 0.20599,-1.5901 0.41064,-3.1804 0.61395,-4.7709 0.19579,1.6041 0.39348,3.2081 0.59313,4.8119 0.20275,-1.5908 0.40413,-3.1817 0.60413,-4.7728 0.19909,1.6035 0.40012,3.2069 0.60316,4.8101 0.19943,-1.5914 0.39746,-3.183 0.59408,-4.7748 0.20246,1.6029 0.40692,3.2057 0.61342,4.8083 0.19603,-1.5921 0.39063,-3.1843 0.58379,-4.7767 0.20591,1.6023 0.41387,3.2044 0.62392,4.8064 0.19255,-1.5928 0.38365,-3.1857 0.57326,-4.7787 0.20944,1.6016 0.42098,3.2031 0.63466,4.8044 0.189,-1.5934 0.3765,-3.187 0.56249,-4.7807 0.21306,1.601 0.42826,3.2018 0.64564,4.8025 0.18536,-1.5941 0.3692,-3.1883 0.55148,-4.7827 0.21675,1.6003 0.4357,3.2005 0.65687,4.8005 0.18165,-1.5948 0.36173,-3.1897 0.54023,-4.7848 0.22053,1.5996 0.44329,3.1992 0.66833,4.7985 0.17785,-1.5955 0.35411,-3.1911 0.52874,-4.7869 0.22439,1.599 0.45105,3.1978 0.68004,4.7965 0.17397,-1.5962 0.34632,-3.1926 0.51701,-4.7891 0.22832,1.5983 0.45897,3.1965 0.69199,4.7944 0.17001,-1.5969 0.33837,-3.1939 0.50504,-4.7912 0.12721,0.8748 0.25514,1.7495 0.38378,2.6241 0.10617,0.7227 0.21312,1.4455 0.32086,2.1686 0.16566,-1.598 0.32869,-3.1971 0.48895,-4.7972 0.23711,1.5973 0.47816,3.1957 0.72343,4.7949 0.15918,-1.6009 0.3155,-3.2027 0.46881,-4.8055 0.24412,1.5985 0.49251,3.1977 0.74544,4.7976 0.15211,-1.6035 0.30111,-3.2078 0.44687,-4.8129 0.25167,1.5992 0.50791,3.1989 0.76901,4.7991 0.14444,-1.6058 0.28554,-3.2124 0.42315,-4.8196 0.25972,1.5995 0.52433,3.1994 0.79411,4.7994 0.13618,-1.6079 0.26878,-3.2164 0.39766,-4.8254 0.26828,1.5993 0.54178,3.1989 0.82075,4.7984 0.12733,-1.6097 0.25083,-3.2199 0.37037,-4.8305 0.27737,1.5988 0.56026,3.1977 0.84896,4.7963 0.11787,-1.6113 0.23168,-3.2229 0.34129,-4.8349 0.28697,1.598 0.57977,3.1957 0.8787,4.793 0.10782,-1.6126 0.21135,-3.2254 0.31043,-4.8384 0.29708,1.5967 0.60032,3.1929 0.90998,4.7885 0.0972,-1.6137 0.18983,-3.2274 0.27779,-4.8412 0.30771,1.595 0.62189,3.1893 0.94282,4.7827 0.0859,-1.6144 0.16711,-3.2288 0.24335,-4.8432 0.31886,1.5929 0.6445,3.1849 0.9772,4.7758 0.0741,-1.6149 0.14321,-3.2297 0.20714,-4.8443 0.33051,1.5903 0.66813,3.1796 1.01312,4.7676 0.0617,-1.6152 0.11811,-3.2301 0.16913,-4.8448 0.34269,1.5875 0.6928,3.1736 1.0506,4.7583 0.0487,-1.6152 0.0918,-3.23 0.12934,-4.8444 0.35538,1.5841 0.71849,3.1668 1.08961,4.7477 0.035,-1.6149 0.0643,-3.2294 0.0878,-4.8433 0.36859,1.5804 0.74522,3.1592 1.13018,4.736 0.0208,-1.6144 0.0357,-3.2283 0.0444,-4.8414 0.38231,1.5763 0.77297,3.1507 1.17228,4.723 0.006,-1.6136 0.006,-3.2266 -7.5e-4,-4.8387 0.39655,1.5718 0.80177,3.1415 1.21594,4.7089 -0.009,-1.6126 -0.0252,-3.2244 -0.0477,-4.8353 0.4113,1.5669 0.83158,3.1315 1.26114,4.6936 -0.0254,-1.6114 -0.0575,-3.2217 -0.0964,-4.8311 0.42657,1.5616 0.86243,3.1207 1.30789,4.677 -0.042,-1.6098 -0.0909,-3.2185 -0.14691,-4.826 0.44234,1.5559 0.89431,3.109 1.35617,4.6592 -0.0592,-1.608 -0.12552,-3.2147 -0.1992,-4.8202 0.45864,1.5498 0.92722,3.0966 1.40601,4.6402 -0.077,-1.6059 -0.16133,-3.2104 -0.25328,-4.8136 0.47546,1.5433 0.96116,3.0833 1.4574,4.6201 -0.0953,-1.6036 -0.19834,-3.2057 -0.30915,-4.8063 0.49278,1.5363 0.99613,3.0693 1.51033,4.5987 -0.11432,-1.601 -0.23654,-3.2004 -0.3668,-4.7982 0.51063,1.5291 1.03213,3.0545 1.5648,4.5761 -0.13389,-1.5981 -0.27592,-3.1945 -0.42623,-4.7892 0.52898,1.5213 1.06916,3.0388 1.62081,4.5523 -0.15405,-1.595 -0.31649,-3.1882 -0.48745,-4.7795 0.54786,1.5132 1.10722,3.0224 1.67838,4.5273 -0.17482,-1.5916 -0.35825,-3.1813 -0.55046,-4.769 0.56725,1.5047 1.14632,3.0051 1.7375,4.5011 -0.19618,-1.588 -0.40122,-3.1739 -0.61526,-4.7578 0.58715,1.4958 1.18644,2.9871 1.79815,4.4738 -0.21813,-1.5841 -0.44536,-3.1661 -0.68183,-4.7458 0.60756,1.4864 1.22759,2.9682 1.86035,4.4452 -0.24068,-1.58 -0.4907,-3.1577 -0.7502,-4.7331 0.6285,1.4768 1.26977,2.9487 1.9241,4.4155 -0.26383,-1.5756 -0.53723,-3.1488 -0.82035,-4.7195 0.64995,1.4666 1.31298,2.9282 1.98939,4.3844 -0.28756,-1.5709 -0.58494,-3.1392 -0.89229,-4.705 0.67192,1.4561 1.35723,2.9068 2.05624,4.3522 -0.3119,-1.566 -0.63386,-3.1293 -0.96602,-4.69 0.6944,1.4452 1.40251,2.8849 2.12462,4.3188 -0.33683,-1.5607 -0.68395,-3.1188 -1.04152,-4.674 0.71739,1.4339 1.44881,2.862 2.19455,4.2842 -0.36236,-1.5553 -0.73524,-3.1078 -1.11882,-4.6573 0.7409,1.4221 1.49615,2.8383 2.26603,4.2484 -0.38848,-1.5496 -0.78773,-3.0963 -1.1979,-4.6399 0.76492,1.41 1.54451,2.8139 2.33905,4.2114 -0.41519,-1.5436 -0.8414,-3.0842 -1.27877,-4.6216 0.78946,1.3975 1.59391,2.7886 2.41362,4.1732 -0.44251,-1.5375 -0.89626,-3.0717 -1.36142,-4.6026 0.81451,1.3845 1.64433,2.7625 2.48973,4.1338 -0.47041,-1.531 -0.95232,-3.0586 -1.44586,-4.5828 0.84009,1.3712 1.69579,2.7356 2.56739,4.0931 -0.49891,-1.5242 -1.00956,-3.0449 -1.53209,-4.5622 0.70296,1.1017 1.41641,2.1988 2.1405,3.2912 0.16814,0.2536 0.33692,0.5069 0.50634,0.7598 -0.52811,-1.5172 -1.06975,-3.0291 -1.62495,-4.5355 0.89275,1.3429 1.80354,2.6758 2.73235,3.9982 -0.56159,-1.5056 -1.13675,-3.0055 -1.72551,-4.4994 0.92238,1.3232 1.86277,2.6358 2.82118,3.9372 -0.59524,-1.493 -1.20409,-2.9797 -1.82659,-4.4598 0.95189,1.3024 1.92177,2.5934 2.90964,3.8725 -0.62906,-1.479 -1.27177,-2.9513 -1.92817,-4.4166 0.98127,1.2804 1.9805,2.5487 2.9977,3.8044 -0.66303,-1.4639 -1.33978,-2.9207 -2.03025,-4.37 1.01052,1.2572 2.03899,2.5017 3.08539,3.7328 -0.69719,-1.4477 -1.40813,-2.8878 -2.13284,-4.3198 1.03965,1.2327 2.09721,2.4521 3.1727,3.6575 -0.73151,-1.4303 -1.47682,-2.8525 -2.23595,-4.2662 1.06865,1.2072 2.15519,2.4003 3.25963,3.5788 -0.766,-1.4118 -1.54585,-2.8149 -2.33955,-4.209 1.09752,1.1804 2.21291,2.3461 3.34617,3.4964 -0.80066,-1.392 -1.61521,-2.7749 -2.44366,-4.1483 1.12626,1.1525 2.27037,2.2896 3.43233,3.4106 -0.83549,-1.3711 -1.68491,-2.7326 -2.54828,-4.0841 1.15488,1.1234 2.32759,2.2307 3.51812,3.3211 -0.87049,-1.349 -1.75495,-2.6879 -2.65341,-4.0163 1.18337,1.0931 2.38455,2.1693 3.60352,3.2282 -0.90565,-1.3258 -1.82533,-2.641 -2.75905,-3.9452 1.21174,1.0616 2.44126,2.1057 3.68855,3.1317 -0.94099,-1.3013 -1.89605,-2.5916 -2.86519,-3.8704 1.01467,0.842 2.04123,1.6718 3.07968,2.4891 0.23057,0.1814 0.46171,0.3623 0.69341,0.5424 -0.9765,-1.2757 -1.9666,-2.5393 -2.96993,-3.7908 1.26807,0.995 2.5529,1.9707 3.85381,2.9273 -1.01029,-1.2483 -2.0336,-2.4845 -3.06959,-3.7087 1.29409,0.9599 2.60415,1.9008 3.92951,2.8228 -1.04269,-1.2209 -2.09784,-2.4298 -3.16511,-3.6269 1.31879,0.9254 2.65278,1.8319 4.0013,2.7197 -1.07372,-1.1936 -2.15935,-2.3755 -3.25652,-3.5455 1.34219,0.8913 2.69881,1.7639 4.06918,2.6181 -1.10338,-1.1666 -2.2181,-2.3214 -3.34381,-3.4646 1.36429,0.8577 2.74223,1.6969 4.13315,2.5179 -1.13167,-1.1397 -2.27411,-2.2676 -3.42697,-3.384 1.38508,0.8245 2.78304,1.6308 4.1932,2.4191 -1.15857,-1.1129 -2.32736,-2.2142 -3.50601,-3.3039 1.40457,0.7918 2.82125,1.5657 4.24935,2.3217 -1.18411,-1.0862 -2.37788,-2.1609 -3.58094,-3.2242 1.42276,0.7597 2.85686,1.5016 4.30159,2.2259 -1.20827,-1.0597 -2.42564,-2.108 -3.65173,-3.145 1.43964,0.728 2.88984,1.4384 4.34991,2.1314 -1.23107,-1.0333 -2.47065,-2.0553 -3.71841,-3.066 1.45522,0.6967 2.92023,1.3761 4.39432,2.0383 -1.25248,-1.007 -2.51291,-2.0029 -3.78096,-2.9876 1.4695,0.666 2.948,1.3148 4.43483,1.9468 -1.24086,-0.9566 -2.48875,-1.9026 -3.74334,-2.838 -0.032,-0.024 -0.064,-0.048 -0.0961,-0.072 1.48254,0.6385 2.97267,1.2563 4.47015,1.8539 -1.29173,-0.952 -2.59056,-1.8904 -3.89635,-2.8154 1.49273,0.6023 2.99279,1.1844 4.49994,1.7468 -1.31047,-0.9204 -2.62783,-1.8275 -3.95193,-2.7217 1.50254,0.567 3.01215,1.1144 4.52859,1.6425 -1.32865,-0.8896 -2.66395,-1.7663 -4.00577,-2.6303 1.51197,0.5326 3.03074,1.0461 4.55609,1.5407 -1.34623,-0.8595 -2.69889,-1.7065 -4.05784,-2.5411 1.521,0.4991 3.04856,0.9795 4.58242,1.4416 -1.36323,-0.8302 -2.73266,-1.6482 -4.10816,-2.4541 1.52966,0.4664 3.06561,0.9146 4.60761,1.345 -1.37964,-0.8017 -2.76527,-1.5914 -4.15673,-2.3694 1.53793,0.4346 3.08189,0.8515 4.63165,1.2511 -1.39548,-0.7739 -2.79671,-1.5361 -4.20356,-2.2869 1.54582,0.4037 3.09741,0.7901 4.65454,1.1598 -1.41072,-0.7468 -2.82697,-1.4823 -4.24862,-2.2067 1.55332,0.3736 3.11216,0.7305 4.67627,1.0711 -1.42538,-0.7205 -2.85607,-1.4299 -4.29193,-2.1286 1.56044,0.3444 3.12614,0.6726 4.69685,0.985 -1.43946,-0.6949 -2.88401,-1.3791 -4.3335,-2.0528 1.56718,0.3161 3.13936,0.6164 4.71629,0.9015 -1.45296,-0.6701 -2.91077,-1.3297 -4.37331,-1.9793 1.57353,0.2887 3.1518,0.5621 4.73457,0.8206 -1.46587,-0.6459 -2.93637,-1.2818 -4.41137,-1.9078 1.5795,0.2621 3.16348,0.5093 4.75169,0.7423 -1.47819,-0.6226 -2.96079,-1.2354 -4.44766,-1.8388 1.58508,0.2364 3.17438,0.4585 4.76766,0.6667 -1.48993,-0.6 -2.98405,-1.1905 -4.48221,-1.7719 1.59028,0.2116 3.18452,0.4093 4.78248,0.5936 -1.50109,-0.5781 -3.00614,-1.1471 -4.51501,-1.7072 1.5951,0.1876 3.1939,0.3618 4.79616,0.5231 -1.51167,-0.5569 -3.02707,-1.1051 -4.54606,-1.6447 1.59953,0.1644 3.2025,0.316 4.80868,0.4552 -1.52166,-0.5365 -3.04683,-1.0646 -4.57536,-1.5845 1.60358,0.1422 3.21034,0.2721 4.82005,0.39 -1.53106,-0.5169 -3.06541,-1.0257 -4.6029,-1.5265 1.60725,0.1208 3.21741,0.2298 4.83027,0.3273 -1.53989,-0.498 -3.08283,-0.9882 -4.62869,-1.4707 1.61053,0.1003 3.22371,0.1893 4.83933,0.2673 -1.54812,-0.4799 -3.09907,-0.9522 -4.65272,-1.4173 1.61342,0.081 3.22924,0.1506 4.84724,0.2099 -1.55578,-0.4624 -3.11416,-0.9177 -4.67501,-1.366 1.61594,0.062 3.23402,0.1136 4.854,0.1551 -1.56284,-0.4457 -3.12806,-0.8846 -4.69553,-1.3169 1.61806,0.044 3.23801,0.078 4.85961,0.1029 -1.56933,-0.4298 -3.14081,-0.8531 -4.71431,-1.2701 1.6198,0.027 3.24124,0.045 4.86406,0.053 -1.57522,-0.4146 -3.15238,-0.823 -4.73134,-1.2254 1.62117,0.011 3.24371,0.013 4.86738,0.01 -1.58055,-0.4002 -3.1628,-0.7945 -4.74662,-1.1832 1.62215,-0 3.2454,-0.017 4.86953,-0.038 -1.58528,-0.3865 -3.17203,-0.7674 -4.76014,-1.143 1.62274,-0.019 3.24633,-0.045 4.87053,-0.08 -1.58942,-0.3736 -3.1801,-0.7419 -4.7719,-1.1051 1.62295,-0.032 3.24649,-0.072 4.87038,-0.119 -1.59299,-0.3613 -3.18701,-0.7177 -4.78192,-1.0694 1.62277,-0.045 3.24588,-0.097 4.86908,-0.1555 -1.59597,-0.3499 -3.19274,-0.6951 -4.79018,-1.0359 1.62221,-0.057 3.2445,-0.1202 4.86662,-0.1896 -1.59836,-0.3391 -3.1973,-0.6739 -4.79669,-1.0047 1.62127,-0.068 3.24235,-0.1415 4.86301,-0.2208 -1.60017,-0.3292 -3.2007,-0.6543 -4.80145,-0.9757 1.61995,-0.078 3.23945,-0.1612 4.85826,-0.2496 -1.60139,-0.3199 -3.20293,-0.6361 -4.80445,-0.9489 1.61823,-0.087 3.23576,-0.1791 4.85235,-0.2757 -1.60204,-0.3114 -3.20399,-0.6195 -4.80571,-0.9244 1.61614,-0.095 3.23132,-0.1952 4.84529,-0.2993 -1.6021,-0.3036 -3.20388,-0.6042 -4.80521,-0.902 1.61366,-0.1028 3.2261,-0.2097 4.83708,-0.3202 -1.60157,-0.2966 -3.2026,-0.5905 -4.80296,-0.882 1.6108,-0.1094 3.22012,-0.2223 4.82772,-0.3384 -1.60047,-0.2904 -3.20016,-0.5784 -4.79896,-0.8642 1.60756,-0.1151 3.21337,-0.2333 4.8172,-0.3541 -1.59877,-0.2849 -3.19655,-0.5676 -4.79319,-0.8485 1.60392,-0.12 3.20584,-0.2425 4.80553,-0.3673 -1.5965,-0.28 -3.19177,-0.5583 -4.78569,-0.8351 1.59991,-0.1239 3.19756,-0.25 4.79271,-0.3777 -1.59363,-0.276 -3.18582,-0.5506 -4.77643,-0.824 1.30208,-0.1037 2.60248,-0.2084 3.90107,-0.314 0.29817,-0.023 0.59632,-0.046 0.89446,-0.069 -1.569,-0.2715 -3.13765,-0.5482 -4.70597,-0.8299 1.62121,-0.1264 3.24194,-0.2458 4.8622,-0.3579 -1.56818,-0.2838 -3.13602,-0.5727 -4.70352,-0.8666 1.62039,-0.1142 3.24031,-0.2213 4.85975,-0.3213 -1.56736,-0.296 -3.13439,-0.5971 -4.70107,-0.9032 1.61958,-0.102 3.23868,-0.1969 4.8573,-0.2846 -1.56654,-0.3082 -3.13275,-0.6216 -4.69862,-0.94 1.61876,-0.09 3.23705,-0.1724 4.85485,-0.2478 -1.56573,-0.3205 -3.13112,-0.6461 -4.69617,-0.9767 1.61795,-0.078 3.23541,-0.1479 4.8524,-0.2112 -1.56491,-0.3327 -3.12948,-0.6705 -4.69372,-1.0134 1.61713,-0.065 3.23378,-0.1234 4.84995,-0.1744 -1.56409,-0.3449 -3.12785,-0.695 -4.69127,-1.0501 1.61631,-0.053 3.23215,-0.099 4.84751,-0.1377 -1.56329,-0.3572 -3.12623,-0.7195 -4.68883,-1.0868 1.6155,-0.041 3.23052,-0.074 4.84506,-0.101"
         style="font-variation-settings:normal;vector-effect:none;fill:none;fill-opacity:1;stroke:#214478;stroke-width:0.666485;stroke-linecap:butt;stroke-linejoin:miter;stroke-miterlimit:4;stroke-dasharray:none;stroke-dashoffset:15;stroke-opacity:1;-inkscape-stroke:none;stop-color:#000000"
         sodipodi:nodetypes="ccsccc"
         inkscape:path-effect="#path-effect36-2"
         inkscape:original-d="m 632.73281,1203.1349 10.01024,-0.2599 c 40.38,5.16 69.55998,7.9297 90.60998,7.9297 42.21,0 58.40984,-11.9298 67.77984,-27.4598 6.48996,-10.76 9.22986,-25.62 9.28986,-46.16 l 1.3002,-9.9198"
         transform="translate(-490.36664,-912.03394)" />
      <path
         id="path15"
         class="fabric"
         d="m 632.66362,1200.4699 10.01024,-0.2599 0.40711,0.021 c 40.41759,5.1648 69.41526,7.9082 90.27206,7.9082 41.23929,0 56.61821,-11.455 65.497,-26.1708 6.12452,-10.1541 8.84722,-24.4049 8.90677,-44.7909 l 0.0226,-0.3387 1.3002,-9.9198"
         style="font-variation-settings:normal;fill:none;fill-opacity:1;stroke:#ff0066;stroke-width:2.66594;stroke-linecap:butt;stroke-linejoin:miter;stroke-miterlimit:4;stroke-dasharray:5.33189, 5.33189;stroke-dashoffset:0;stroke-opacity:1;stop-color:#000000"
         sodipodi:nodetypes="ccsccc"
         transform="translate(-490.36664,-912.03394)"
         inkscape:path-effect="#path-effect19"
         inkscape:original-d="m 632.73281,1203.1349 10.01024,-0.2599 c 40.38,5.16 69.55998,7.9297 90.60998,7.9297 42.21,0 58.40984,-11.9298 67.77984,-27.4598 6.48996,-10.76 9.22986,-25.62 9.28986,-46.16 l 1.3002,-9.9198" />
    </g>
    <g
       id="g3"
       transform="matrix(0.375063,0,0,0.3751404,-39.411493,-4.3791789)"
       style="stroke-width:1.33297">
      <path
         id="path27"
         style="fill:#5677a8;fill-opacity:1;stroke:#0b1627;stroke-width:2.66594;stroke-linecap:round;stroke-linejoin:round;stroke-dasharray:none;stroke-dashoffset:0;stroke-opacity:1"
         d="m 277.27893,35.71958 v 11.39983 c 0,17.31 0.66991,30.16981 -9.62009,36.42981 -6.73,4.08 -17.15014,5.46994 -32.71014,5.46994 -20.87001,0 -50.09977,-2.95977 -91.01977,-8.26977 l -12.0003,-1.56011 0.73019,12.07988 0.74982,12.4504 9.98027,-0.6103 0.0196,0.2403 c 40.98,5.28 70.41015,8.1499 91.54015,8.1499 34.51,0 49.19987,-8.3502 57.09987,-21.4302 5.83899,-9.67269 7.62889,-23.31635 7.68842,-42.00418 l -0.0884,0.67438 0.10026,-1.62005 c 0,0.32632 -0.0109,0.62239 -0.0119,0.94567 l 1.21181,-9.24594 -12.38012,-1.61954 z" />
      <path
         id="path38"
         style="font-variation-settings:normal;vector-effect:none;fill:none;fill-opacity:1;stroke:#214478;stroke-width:0.666485;stroke-linecap:butt;stroke-linejoin:miter;stroke-miterlimit:4;stroke-dasharray:none;stroke-dashoffset:15;stroke-opacity:1;-inkscape-stroke:none;stop-color:#000000"
         d="m 623.81581,1016.8489 c 0.10599,-1.6026 0.21855,-3.2048 0.33769,-4.8068 0.29497,1.5876 0.58066,3.1749 0.85706,4.7617 0.12185,-1.6018 0.25028,-3.2034 0.38528,-4.8047 0.27911,1.587 0.54894,3.1735 0.80947,4.7596 0.13771,-1.6011 0.28201,-3.202 0.43288,-4.8025 0.26324,1.5862 0.5172,3.172 0.76186,4.7574 0.15359,-1.6004 0.31375,-3.2005 0.48049,-4.8003 0.24737,1.5855 0.48546,3.1705 0.71426,4.7552 0.16945,-1.5997 0.34548,-3.1991 0.52808,-4.7982 0.23151,1.5848 0.45374,3.1692 0.66667,4.7531 0.18532,-1.599 0.37721,-3.1976 0.57568,-4.796 0.21565,1.584 0.422,3.1677 0.61907,4.7509 0.20118,-1.5983 0.40894,-3.1962 0.62327,-4.7938 0.19979,1.5833 0.39028,3.1662 0.57147,4.7487 0.21705,-1.5975 0.44068,-3.1948 0.67088,-4.7917 0.18392,1.5826 0.35854,3.1648 0.52387,4.7466 0.16538,-1.1338 0.33408,-2.2675 0.50609,-3.401 0.0691,-0.4549 0.13825,-0.9099 0.20749,-1.3648 0.16173,1.6204 0.3222,3.2409 0.48145,4.8614 0.23915,-1.5691 0.47917,-3.1381 0.72005,-4.7072 0.1596,1.6206 0.31799,3.2411 0.47521,4.8617 0.24123,-1.569 0.4833,-3.1381 0.72619,-4.7071 0.15756,1.6206 0.31395,3.2412 0.46922,4.8619 0.24323,-1.5691 0.48727,-3.1381 0.73209,-4.7072 0.1556,1.6207 0.31007,3.2414 0.46347,4.8621 0.24515,-1.5691 0.49107,-3.1382 0.73774,-4.7073 0.15371,1.6208 0.30636,3.2415 0.45797,4.8624 0.24698,-1.5692 0.4947,-3.1383 0.74314,-4.7075 0.15192,1.6208 0.30281,3.2417 0.45271,4.8625 0.24874,-1.5692 0.49819,-3.1383 0.74831,-4.7076 0.1502,1.6209 0.29942,3.2418 0.4477,4.8627 0.25041,-1.5693 0.5015,-3.1385 0.75323,-4.7078 0.14856,1.6209 0.29619,3.2418 0.44294,4.8627 0.002,-0.013 0.75578,-4.6947 0.7579,-4.708 0.147,1.621 0.29313,3.2419 0.43841,4.8628 0.002,-0.014 0.76007,-4.6942 0.76233,-4.7082 0.14553,1.6209 0.29023,3.2419 0.43414,4.8628 0.25494,-1.5694 0.51045,-3.1389 0.76652,-4.7084 0.14414,1.6209 0.28749,3.2418 0.4301,4.8627 0.25629,-1.5695 0.51312,-3.1391 0.77046,-4.7087 0.14283,1.6209 0.28493,3.2418 0.42633,4.8627 0.25755,-1.5696 0.51561,-3.1393 0.77415,-4.709 0.1416,1.6208 0.28252,3.2417 0.42279,4.8626 0.25873,-1.5697 0.51794,-3.1396 0.7776,-4.7094 0.14046,1.6209 0.28028,3.2417 0.41949,4.8626 0.25985,-1.5699 0.52012,-3.1399 0.78082,-4.7098 0.13939,1.6208 0.27819,3.2416 0.41644,4.8624 0.26086,-1.57 0.52213,-3.1401 0.78378,-4.7102 0.13841,1.6207 0.27628,3.2415 0.41364,4.8622 0.2618,-1.5701 0.52398,-3.1404 0.78649,-4.7106 0.13752,1.6207 0.27453,3.2414 0.41109,4.862 0.26266,-1.5703 0.52566,-3.1407 0.78897,-4.7111 0.13669,1.6206 0.27294,3.2412 0.40877,4.8619 0.26344,-1.5705 0.52718,-3.1411 0.7912,-4.7117 0.13596,1.6205 0.27152,3.2411 0.40671,4.8616 0.26414,-1.5707 0.52854,-3.1414 0.79318,-4.7122 0.13531,1.6205 0.27026,3.2409 0.40489,4.8613 0.26475,-1.5709 0.52973,-3.1418 0.79493,-4.7127 0.13473,1.6203 0.26915,3.2406 0.40331,4.8609 0.26528,-1.571 0.53077,-3.1421 0.79642,-4.7133 0.13424,1.6202 0.26823,3.2404 0.40199,4.8606 0.26573,-1.5713 0.53163,-3.1426 0.79767,-4.7139 0.13383,1.62 0.26745,3.2401 0.4009,4.8602 0.26611,-1.5715 0.53234,-3.143 0.79868,-4.7146 0.13351,1.6199 0.26685,3.2399 0.40007,4.8598 0.26639,-1.5717 0.53288,-3.1435 0.79944,-4.7153 0.13326,1.6198 0.2664,3.2396 0.39947,4.8593 0.2666,-1.5719 0.53326,-3.1439 0.79996,-4.716 0.1331,1.6197 0.26613,3.2393 0.39913,4.8589 0.26672,-1.5722 0.53347,-3.1444 0.80023,-4.7167 0.13302,1.6194 0.26601,3.2389 0.39903,4.8583 0.26676,-1.5724 0.53352,-3.1449 0.80026,-4.7175 0.13302,1.6193 0.26606,3.2386 0.39917,4.8578 0.26673,-1.5727 0.53342,-3.1455 0.80005,-4.7183 0.1331,1.6191 0.26627,3.2382 0.39955,4.8572 0.26661,-1.573 0.53315,-3.146 0.7996,-4.7191 0.13326,1.6189 0.26664,3.2377 0.40019,4.8566 0.26641,-1.5733 0.53271,-3.1466 0.79889,-4.72 0.1335,1.6187 0.26718,3.2373 0.40106,4.8559 0.26613,-1.5735 0.53212,-3.1471 0.79795,-4.7208 0.13383,1.6184 0.26788,3.2368 0.40219,4.8552 0.26577,-1.5738 0.53136,-3.1478 0.79675,-4.7218 0.13424,1.6183 0.26875,3.2365 0.40357,4.8546 0.26532,-1.5742 0.53043,-3.1484 0.79531,-4.7227 0.13474,1.6179 0.26978,3.2359 0.40518,4.8538 0.2648,-1.5745 0.52935,-3.1491 0.79364,-4.7237 0.1353,1.6177 0.27097,3.2354 0.40704,4.853 0.26419,-1.5748 0.5281,-3.1497 0.79171,-4.7247 0.13596,1.6174 0.27233,3.2349 0.40915,4.8522 0.2635,-1.5751 0.52668,-3.1504 0.78954,-4.7257 0.1367,1.6172 0.27385,3.2343 0.4115,4.8514 0.26273,-1.5755 0.52511,-3.1512 0.78713,-4.7269 0.13751,1.6169 0.27553,3.2338 0.4141,4.8506 0.26187,-1.5759 0.52337,-3.1519 0.78447,-4.7279 0.13841,1.6166 0.27738,3.2331 0.41694,4.8496 0.26094,-1.5763 0.52147,-3.1526 0.78157,-4.7291 0.13939,1.6163 0.27939,3.2326 0.42003,4.8488 0.25992,-1.5767 0.5194,-3.1534 0.77842,-4.7303 0.14046,1.616 0.28157,3.2319 0.42337,4.8478 0.25882,-1.577 0.51717,-3.1542 0.77502,-4.7314 0.14161,1.6156 0.28391,3.2312 0.42695,4.8467 0.25765,-1.5774 0.51479,-3.1549 0.77139,-4.7326 0.14283,1.6153 0.28641,3.2306 0.43077,4.8458 0.25639,-1.5779 0.51224,-3.1558 0.76752,-4.7339 0.14414,1.615 0.28907,3.2298 0.43484,4.8447 0.25505,-1.5783 0.50952,-3.1567 0.76339,-4.7352 0.14553,1.6146 0.2919,3.2291 0.43916,4.8436 0.25362,-1.5787 0.50663,-3.1575 0.75901,-4.7364 0.14701,1.6142 0.2949,3.2283 0.44373,4.8424 0.25212,-1.5791 0.50359,-3.1584 0.7544,-4.7378 0.14856,1.6139 0.29805,3.2276 0.44853,4.8413 0.25053,-1.5796 0.50039,-3.1593 0.74954,-4.7391 0.1502,1.6134 0.30138,3.2268 0.45359,4.8401 0.24886,-1.5801 0.49702,-3.1602 0.74444,-4.7405 0.15191,1.613 0.30486,3.226 0.45888,4.8389 0.24712,-1.5806 0.49349,-3.1612 0.7391,-4.742 0.15371,1.6126 0.3085,3.2252 0.46442,4.8376 0.24529,-1.581 0.4898,-3.1621 0.73351,-4.7434 0.15559,1.6122 0.31232,3.2243 0.47021,4.8364 0.24338,-1.5815 0.48594,-3.1632 0.72767,-4.7449 0.15756,1.6118 0.3163,3.2234 0.47625,4.835 0.24138,-1.582 0.48192,-3.1641 0.72159,-4.7464 0.1596,1.6113 0.32043,3.2226 0.48253,4.8337 0.23931,-1.5825 0.47774,-3.1652 0.71526,-4.748 0.16174,1.6109 0.32474,3.2217 0.48906,4.8324 0.23715,-1.5831 0.47339,-3.1662 0.7087,-4.7496 0.16394,1.6104 0.3292,3.2208 0.49582,4.831 0.23492,-1.5836 0.46889,-3.1673 0.70188,-4.7512 0.16624,1.61 0.33384,3.2198 0.50285,4.8295 0.2326,-1.5841 0.46421,-3.1684 0.69482,-4.7528 0.16861,1.6095 0.33863,3.2188 0.51011,4.828 0.2302,-1.5846 0.45938,-3.1695 0.68752,-4.7544 0.17106,1.6089 0.34358,3.2178 0.51761,4.8265 0.22772,-1.5852 0.45439,-3.1706 0.67998,-4.7561 0.1736,1.6084 0.3487,3.2167 0.52536,4.8249 0.22516,-1.5858 0.44923,-3.1717 0.67219,-4.7578 0.17622,1.6079 0.35399,3.2157 0.53336,4.8234 0.22252,-1.5864 0.44391,-3.173 0.66416,-4.7596 0.17891,1.6073 0.35943,3.2146 0.5416,4.8218 0.21979,-1.587 0.43842,-3.1742 0.65588,-4.7614 0.18169,1.6068 0.36504,3.2135 0.55009,4.8201 0.21698,-1.5876 0.43277,-3.1753 0.64735,-4.7632 0.18456,1.6063 0.37083,3.2125 0.55883,4.8185 0.21409,-1.5882 0.42696,-3.1765 0.63858,-4.765 0.18751,1.6057 0.37677,3.2113 0.56781,4.8168 0.21112,-1.5888 0.42098,-3.1778 0.62957,-4.7669 0.19054,1.6051 0.38287,3.2102 0.57704,4.8151 0.20806,-1.5895 0.41484,-3.1791 0.62031,-4.7689 0.19364,1.6046 0.38913,3.209 0.58651,4.8134 0.20493,-1.5901 0.40854,-3.1804 0.61081,-4.7708 0.19683,1.604 0.39556,3.2078 0.59622,4.8115 0.20172,-1.5907 0.40208,-3.1816 0.60107,-4.7727 0.2001,1.6034 0.40215,3.2066 0.60618,4.8097 0.19842,-1.5914 0.39545,-3.1829 0.59108,-4.7747 0.20346,1.6028 0.40891,3.2054 0.61639,4.8079 0.19504,-1.5921 0.38866,-3.1843 0.58084,-4.7767 0.2069,1.6021 0.41583,3.2041 0.62685,4.8059 0.19158,-1.5927 0.38171,-3.1857 0.57035,-4.7788 0.21042,1.6015 0.42292,3.2029 0.63755,4.8041 0.18804,-1.5935 0.3746,-3.1871 0.55964,-4.7809 0.21401,1.6009 0.43016,3.2016 0.64849,4.8021 0.18442,-1.5941 0.36731,-3.1884 0.54866,-4.7829 0.2177,1.6002 0.43758,3.2002 0.65968,4.8001 0.18072,-1.5949 0.35988,-3.1899 0.53746,-4.7851 0.22146,1.5995 0.44515,3.1989 0.67111,4.7981 0.17694,-1.5956 0.35228,-3.1914 0.526,-4.7873 0.22531,1.5988 0.45289,3.1975 0.6828,4.796 0.17306,-1.5963 0.3445,-3.1928 0.51429,-4.7894 0.22924,1.5981 0.4608,3.1961 0.69473,4.7939 0.16911,-1.597 0.33657,-3.1942 0.50235,-4.7917 0.0398,0.2724 0.0796,0.5448 0.11951,0.8171 0.19357,1.3244 0.38959,2.6496 0.58829,3.9755 0.16437,-1.5987 0.32614,-3.1984 0.48511,-4.7992 0.23849,1.5977 0.48092,3.1964 0.72768,4.7958 0.15784,-1.6015 0.31275,-3.2039 0.46452,-4.8072 0.24556,1.5987 0.4955,3.1982 0.75022,4.7981 0.15049,-1.604 0.2977,-3.2088 0.44145,-4.8143 0.25335,1.5993 0.51154,3.1989 0.77495,4.7989 0.1423,-1.6062 0.281,-3.2131 0.41589,-4.8205 0.26189,1.5993 0.52905,3.1987 0.80188,4.7982 0.13329,-1.6081 0.26265,-3.2167 0.38786,-4.8258 0.27115,1.5988 0.54801,3.1975 0.83099,4.796 0.12346,-1.6097 0.24264,-3.2198 0.35735,-4.8302 0.28114,1.5978 0.56844,3.1953 0.86231,4.7923 0.11279,-1.611 0.22097,-3.2223 0.32434,-4.8336 0.29187,1.5963 0.59034,3.192 0.89582,4.787 0.1013,-1.612 0.19765,-3.2241 0.28886,-4.8362 0.30333,1.5943 0.6137,3.1879 0.93153,4.7804 0.089,-1.6128 0.17268,-3.2254 0.2509,-4.838 0.31551,1.5919 0.63852,3.1827 0.96942,4.7722 0.0758,-1.6131 0.14605,-3.226 0.21046,-4.8387 0.32843,1.5889 0.6648,3.1765 1.00951,4.7626 0.0619,-1.6133 0.11777,-3.2262 0.16753,-4.8387 0.34209,1.5855 0.69255,3.1693 1.0518,4.7514 0.0471,-1.613 0.0878,-3.2256 0.12213,-4.8377 0.35646,1.5815 0.72176,3.1612 1.09628,4.7388 0.0314,-1.6126 0.0562,-3.2245 0.0742,-4.8358 0.37158,1.5771 0.75243,3.152 1.14295,4.7247 0.015,-1.6118 0.023,-3.2229 0.0239,-4.8331 0.38742,1.5721 0.78457,3.1419 1.19182,4.7091 -0.002,-1.6107 -0.0119,-3.2206 -0.029,-4.8294 0.404,1.5666 0.81817,3.1307 1.24289,4.692 -0.0204,-1.6094 -0.0485,-3.2177 -0.0843,-4.8249 0.4213,1.5607 0.85322,3.1186 1.29614,4.6734 -0.0394,-1.6077 -0.0867,-3.2142 -0.14213,-4.8195 0.43935,1.5544 0.88975,3.1056 1.3516,4.6534 -0.0591,-1.6057 -0.12652,-3.2101 -0.20242,-4.8131 0.45812,1.5474 0.92773,3.0914 1.40924,4.6318 -0.0797,-1.6035 -0.16804,-3.2054 -0.2652,-4.8059 0.47762,1.54 0.96718,3.0763 1.46909,4.6088 -0.10113,-1.6009 -0.21122,-3.2002 -0.33046,-4.7978 0.49785,1.532 1.00809,3.0602 1.53112,4.5842 -0.12338,-1.598 -0.25604,-3.1943 -0.3982,-4.7887 0.51882,1.5236 1.05047,3.0431 1.59535,4.5582 -0.14645,-1.5949 -0.30252,-3.1879 -0.46843,-4.7789 0.54052,1.5147 1.09432,3.025 1.66178,4.5307 -0.17034,-1.5914 -0.35065,-3.1808 -0.54113,-4.768 0.56295,1.5053 1.13962,3.0059 1.7304,4.5016 -0.19507,-1.5876 -0.40044,-3.1731 -0.61632,-4.7563 0.58611,1.4954 1.18638,2.9859 1.80122,4.4712 -0.22063,-1.5836 -0.45189,-3.1649 -0.69399,-4.7438 0.61,1.485 1.23461,2.9648 1.87423,4.4393 -0.24702,-1.5793 -0.50499,-3.156 -0.77414,-4.7303 0.63462,1.4741 1.2843,2.9427 1.94943,4.4057 -0.27423,-1.5745 -0.55975,-3.1465 -0.85677,-4.7158 0.65997,1.4627 1.33545,2.9197 2.02682,4.3708 -0.30226,-1.5697 -0.61615,-3.1366 -0.94188,-4.7007 0.68606,1.4508 1.38807,2.8957 2.10642,4.3344 -0.33112,-1.5644 -0.67421,-3.1259 -1.02948,-4.6844 0.71288,1.4384 1.44215,2.8706 2.18821,4.2964 -0.36082,-1.5589 -0.73393,-3.1147 -1.11955,-4.6674 0.74042,1.4255 1.49769,2.8446 2.27218,4.257 -0.39133,-1.553 -0.7953,-3.1028 -1.21211,-4.6494 0.76871,1.4121 1.5547,2.8175 2.35836,4.216 -0.42268,-1.5468 -0.85832,-3.0904 -1.30715,-4.6305 0.79772,1.3982 1.61316,2.7895 2.44673,4.1736 -0.01,-0.033 -0.0197,-0.067 -0.0295,-0.1 -0.44516,-1.5073 -0.90512,-3.0098 -1.38003,-4.5072 0.82699,1.3839 1.67485,2.758 2.54384,4.121 -0.49272,-1.53 -1.00119,-3.0542 -1.52558,-4.5723 0.86157,1.3637 1.74427,2.7163 2.64836,4.0568 -0.53192,-1.5173 -1.07989,-3.0281 -1.64408,-4.5318 0.89645,1.3414 1.8143,2.6705 2.75383,3.9863 -0.57195,-1.5027 -1.16024,-2.9979 -1.76506,-4.4854 0.93166,1.317 1.88499,2.6205 2.86027,3.9095 -0.6128,-1.4861 -1.24224,-2.964 -1.88849,-4.4332 0.96718,1.2905 1.95631,2.5663 2.96765,3.8265 -0.65446,-1.4676 -1.32586,-2.9262 -2.01438,-4.3753 1.00302,1.262 2.02826,2.508 3.07599,3.7372 -0.69695,-1.4471 -1.41113,-2.8845 -2.14272,-4.3115 1.03918,1.2313 2.10085,2.4455 3.18529,3.6417 -0.74026,-1.4248 -1.49804,-2.839 -2.27353,-4.242 1.07565,1.1986 2.17408,2.3789 3.29554,3.5399 -0.78438,-1.4004 -1.58659,-2.7895 -2.4068,-4.1667 1.11245,1.1638 2.24795,2.3081 3.40675,3.432 -0.82933,-1.3743 -1.67678,-2.7364 -2.54252,-4.0857 1.14957,1.1269 2.32245,2.2332 3.51891,3.3178 -0.87509,-1.3462 -1.7686,-2.6793 -2.68071,-3.9989 0.93315,0.8553 1.88087,1.6971 2.8433,2.5249 0.26182,0.2251 0.5247,0.4492 0.78864,0.6722 -0.92169,-1.316 -1.86178,-2.6171 -2.81978,-3.9033 1.22478,1.0466 2.47247,2.0692 3.74211,3.0675 -0.96723,-1.2822 -1.95206,-2.5493 -2.95404,-3.8012 1.26056,1.0024 2.54292,1.9807 3.84608,2.9345 -1.01089,-1.2477 -2.03863,-2.4802 -3.08272,-3.6973 1.2944,0.9582 2.60947,1.892 3.94422,2.8014 -1.05271,-1.2128 -2.12149,-2.4101 -3.20585,-3.5919 1.32629,0.9139 2.67213,1.8033 4.03654,2.668 -1.09268,-1.1772 -2.20065,-2.3388 -3.32342,-3.4847 1.35624,0.8694 2.7309,1.7143 4.12301,2.5344 -1.13079,-1.1411 -2.27609,-2.2665 -3.43542,-3.3759 1.38424,0.8249 2.78578,1.6251 4.20365,2.4005 -1.16705,-1.1045 -2.34783,-2.193 -3.54187,-3.2654 1.4103,0.7804 2.83678,1.5359 4.27846,2.2664 -1.20145,-1.0673 -2.41586,-2.1184 -3.64275,-3.1533 1.43442,0.7357 2.88389,1.4465 4.34744,2.1321 -1.234,-1.0296 -2.48019,-2.0427 -3.73807,-3.0394 1.45659,0.6909 2.92711,1.3568 4.41058,1.9974 -1.2647,-0.9912 -2.5408,-1.9659 -3.82783,-2.9239 0.18622,0.082 0.37265,0.1626 0.55929,0.2432 1.29325,0.5606 2.59615,1.0997 3.90821,1.6179 -1.29394,-0.9507 -2.5988,-1.8832 -3.91415,-2.79787 1.49472,0.59909 3.00133,1.17097 4.51911,1.71637 -1.32185,-0.9086 -2.65393,-1.79967 -3.99586,-2.67347 1.51147,0.55138 3.03401,1.07648 4.56688,1.57613 -1.34806,-0.86794 -2.7057,-1.71888 -4.07251,-2.5532 1.52691,0.50544 3.06407,0.98556 4.61074,1.44118 -1.37259,-0.82862 -2.75409,-1.64084 -4.1441,-2.43704 1.54106,0.46124 3.09154,0.89813 4.65071,1.31149 -1.39544,-0.79067 -2.79913,-1.56555 -4.21065,-2.32501 1.55391,0.4188 3.11642,0.81422 4.68679,1.18708 -1.4166,-0.75411 -2.84079,-1.49301 -4.27215,-2.21711 1.56547,0.37814 3.13871,0.73384 4.71897,1.06794 -1.43608,-0.7189 -2.87907,-1.42321 -4.32858,-2.11331 1.57572,0.33921 3.15838,0.65696 4.74725,0.95406 -1.45387,-0.68507 -2.914,-1.35615 -4.37997,-2.01362 1.58468,0.30204 3.17547,0.58358 4.77163,0.84544 -1.46998,-0.65261 -2.94554,-1.29184 -4.42629,-1.91806 1.59233,0.26664 3.18995,0.51373 4.79212,0.74211 -1.48441,-0.62153 -2.97373,-1.23028 -4.46757,-1.82662 1.59869,0.23298 3.20184,0.44739 4.8087,0.64404 -1.49714,-0.59182 -2.99854,-1.17146 -4.50378,-1.73929 1.60374,0.20109 3.21112,0.38456 4.82139,0.55124 -1.5082,-0.56349 -3.01998,-1.11539 -4.53495,-1.65608 1.6075,0.17094 3.21781,0.32524 4.83018,0.4637 -1.51756,-0.53652 -3.03805,-1.06205 -4.56106,-1.57698 1.60996,0.14256 3.2219,0.26943 4.83508,0.38144 -1.52525,-0.51093 -3.05276,-1.01147 -4.58213,-1.50202 1.61112,0.11594 3.2234,0.21715 4.83609,0.30445 -0.28046,-0.0891 -0.56097,-0.17795 -0.84153,-0.26644 -1.25123,-0.39459 -2.50408,-0.78378 -3.75851,-1.16758 1.61061,0.0906 3.2229,0.16953 4.8367,0.23667 -1.53787,-0.46676 -3.07805,-0.92544 -4.62044,-1.37605 1.61166,0.0702 3.2248,0.12876 4.83925,0.17557 -1.5445,-0.4475 -3.09116,-0.88693 -4.63988,-1.31829 1.61236,0.0499 3.226,0.0882 4.84074,0.11473 -1.55077,-0.42823 -3.10355,-0.84841 -4.65824,-1.26053 1.61272,0.0297 3.22651,0.0477 4.84119,0.0542 -1.55667,-0.40897 -3.11521,-0.8099 -4.67553,-1.20278 1.61274,0.01 3.22633,0.008 4.8406,-0.006 -1.56222,-0.38972 -3.12617,-0.7714 -4.69173,-1.14504 1.61239,-0.0105 3.22543,-0.0325 4.83895,-0.0661 -1.56741,-0.37047 -3.1364,-0.73291 -4.70686,-1.08732 1.6117,-0.0304 3.22385,-0.0724 4.83627,-0.12584 -1.57226,-0.35122 -3.14593,-0.69442 -4.72093,-1.0296 1.61066,-0.0503 3.22157,-0.11204 4.83254,-0.18528 -1.57673,-0.33198 -3.15473,-0.65594 -4.73391,-0.97189 1.60928,-0.07 3.21859,-0.15153 4.82776,-0.24445 -1.58085,-0.31274 -3.16281,-0.61747 -4.74581,-0.9142 1.60754,-0.0897 3.21491,-0.19083 4.82193,-0.30334 -1.5846,-0.2935 -3.17017,-0.579 -4.75663,-0.85651 1.60545,-0.10928 3.21053,-0.22994 4.81505,-0.36196 -1.588,-0.27426 -3.17682,-0.54053 -4.76638,-0.79882 1.60302,-0.12877 3.20545,-0.26888 4.80713,-0.4203 -1.59103,-0.25503 -3.18275,-0.50208 -4.77505,-0.74115 1.60024,-0.14816 3.19968,-0.30762 4.79816,-0.47837 -1.59371,-0.23579 -3.18795,-0.46362 -4.78264,-0.68348 0.50631,-0.0531 1.01252,-0.10731 1.51862,-0.16266 1.10055,-0.12298 2.20107,-0.24506 3.30155,-0.36625 -1.58452,-0.22307 -3.16899,-0.4475 -4.75342,-0.67329 1.61131,-0.178 3.22256,-0.35408 4.83374,-0.52824 -1.58441,-0.22635 -3.16877,-0.45406 -4.75308,-0.68313 1.6112,-0.17472 3.22233,-0.34752 4.8334,-0.51839 -1.58429,-0.22964 -3.16854,-0.46063 -4.75274,-0.69298 1.61109,-0.17144 3.22211,-0.34096 4.83306,-0.50855 -1.58418,-0.23292 -3.16831,-0.46719 -4.7524,-0.70283 1.61098,-0.16815 3.22188,-0.33438 4.83271,-0.4987 -1.58406,-0.23619 -3.16808,-0.47375 -4.75204,-0.71267 1.61085,-0.16487 3.22164,-0.32782 4.83236,-0.48885 -1.58395,-0.23948 -3.16785,-0.48032 -4.7517,-0.72252 1.61074,-0.16159 3.22141,-0.32126 4.83202,-0.47901 -1.58384,-0.24276 -3.16762,-0.48688 -4.75136,-0.73236 1.61063,-0.15831 3.22118,-0.3147 4.83168,-0.46917 -1.58372,-0.24604 -3.16739,-0.49344 -4.75102,-0.7422 1.61051,-0.15503 3.22096,-0.30814 4.83133,-0.45932 -1.5836,-0.24933 -3.16716,-0.50001 -4.75067,-0.75206 1.6104,-0.15174 3.22073,-0.30157 4.83099,-0.44947 -1.58349,-0.2526 -3.16693,-0.50657 -4.75033,-0.7619 1.61029,-0.14846 3.2205,-0.295 4.83065,-0.43962 -1.58338,-0.25589 -3.1667,-0.51314 -4.74998,-0.77175 1.61016,-0.14518 3.22026,-0.28844 4.8303,-0.42978 -1.58326,-0.25917 -3.16648,-0.5197 -4.74964,-0.78159 1.61005,-0.1419 3.22003,-0.28188 4.82995,-0.41994 -1.58314,-0.26245 -3.16624,-0.52626 -4.74929,-0.79143 1.60994,-0.13862 3.21981,-0.27532 4.82961,-0.41009 -1.58303,-0.26574 -3.16601,-0.53283 -4.74895,-0.80129 1.60982,-0.13533 3.21958,-0.26875 4.82927,-0.40024 -1.58292,-0.26902 -3.16579,-0.53939 -4.74861,-0.81113 1.60971,-0.13205 3.21935,-0.26218 4.82893,-0.3904"
         sodipodi:nodetypes="ccsccc"
         inkscape:path-effect="#path-effect39-6"
         inkscape:original-d="m 623.77528,1015.7535 9.99987,-0.37 c 40.98,5.28 70.41015,8.1499 91.54015,8.1499 34.51,0 49.19987,-8.3502 57.09987,-21.4302 5.83899,-9.67269 7.62889,-23.31635 7.65864,-32.66027 l 1.24155,-18.58985"
         transform="translate(-490.36664,-912.03394)" />
      <path
         id="path14"
         style="font-variation-settings:normal;fill:none;fill-opacity:1;stroke:#ff0066;stroke-width:2.66594;stroke-linecap:butt;stroke-linejoin:miter;stroke-miterlimit:4;stroke-dasharray:5.33189, 5.33189;stroke-dashoffset:0;stroke-opacity:1;stop-color:#000000"
         d="m 623.67671,1013.0894 9.99987,-0.37 0.43924,0.02 c 41.02096,5.2853 70.27008,8.1281 91.19948,8.1281 33.72218,0 47.49211,-8.0134 54.81753,-20.142 5.47458,-9.06907 7.24591,-22.13852 7.27505,-31.29106 l 0.006,-0.16916 1.24155,-18.58985"
         sodipodi:nodetypes="ccsccc"
         transform="translate(-490.36664,-912.03394)"
         inkscape:path-effect="#path-effect18"
         inkscape:original-d="m 623.77528,1015.7535 9.99987,-0.37 c 40.98,5.28 70.41015,8.1499 91.54015,8.1499 34.51,0 49.19987,-8.3502 57.09987,-21.4302 5.83899,-9.67269 7.62889,-23.31635 7.65864,-32.66027 l 1.24155,-18.58985" />
    </g>
  </g>
</svg>
