<?xml version="1.0" encoding="UTF-8" standalone="no"?>
<!-- Created with Inkscape (http://www.inkscape.org/) -->

<svg
   width="600"
   height="400"
   viewBox="0 0 158.75 105.83333"
   version="1.1"
   id="svg1"
   inkscape:version="1.4 (e7c3feb100, 2024-10-09)"
   sodipodi:docname="step-4.svg"
   xmlns:inkscape="http://www.inkscape.org/namespaces/inkscape"
   xmlns:sodipodi="http://sodipodi.sourceforge.net/DTD/sodipodi-0.dtd"
   xmlns="http://www.w3.org/2000/svg"
   xmlns:svg="http://www.w3.org/2000/svg">
  <sodipodi:namedview
     id="namedview1"
     pagecolor="#ffffff"
     bordercolor="#666666"
     borderopacity="1.0"
     inkscape:showpageshadow="2"
     inkscape:pageopacity="0.0"
     inkscape:pagecheckerboard="0"
     inkscape:deskcolor="#d1d1d1"
     inkscape:document-units="mm"
     inkscape:zoom="2.1002586"
     inkscape:cx="269.72868"
     inkscape:cy="150.21959"
     inkscape:window-width="2256"
     inkscape:window-height="1427"
     inkscape:window-x="0"
     inkscape:window-y="0"
     inkscape:window-maximized="1"
     inkscape:current-layer="layer1" />
  <defs
     id="defs1">
    <inkscape:path-effect
       effect="offset"
       id="path-effect4"
       is_visible="true"
       lpeversion="1.3"
       linejoin_type="miter"
       unit="mm"
       offset="-5"
       miter_limit="4"
       attempt_force_join="false"
       update_on_knot_move="true" />
    <inkscape:path-effect
       effect="offset"
       id="path-effect19"
       is_visible="true"
       lpeversion="1.3"
       linejoin_type="miter"
       unit="mm"
       offset="1"
       miter_limit="4"
       attempt_force_join="false"
       update_on_knot_move="true" />
    <inkscape:path-effect
       effect="offset"
       id="path-effect18"
       is_visible="true"
       lpeversion="1.3"
       linejoin_type="miter"
       unit="mm"
       offset="1"
       miter_limit="4"
       attempt_force_join="false"
       update_on_knot_move="true" />
    <inkscape:path-effect
       effect="skeletal"
       id="path-effect17"
       is_visible="true"
       lpeversion="1"
       pattern="M 0.49730967,4.8652525 0.99731968,0.07292255 1.7037697,4.8652525"
       copytype="repeated"
       prop_scale="1"
       scale_y_rel="false"
       spacing="0"
       normal_offset="-1.3"
       tang_offset="0"
       prop_units="false"
       vertical_pattern="false"
       hide_knot="false"
       fuse_tolerance="0" />
    <inkscape:path-effect
       effect="skeletal"
       id="path-effect15"
       is_visible="true"
       lpeversion="1"
       pattern="M 0.49730967,4.8652525 0.99731968,0.07292255 1.7037697,4.8652525"
       copytype="repeated"
       prop_scale="1"
       scale_y_rel="false"
       spacing="0"
       normal_offset="-1.3"
       tang_offset="0"
       prop_units="false"
       vertical_pattern="false"
       hide_knot="false"
       fuse_tolerance="0" />
    <inkscape:path-effect
       effect="skeletal"
       id="path-effect13"
       is_visible="true"
       lpeversion="1"
       pattern="m -43.706093,-69.991573 0.50001,-4.79233 0.70645,4.79233"
       copytype="repeated"
       prop_scale="1"
       scale_y_rel="false"
       spacing="0"
       normal_offset="-1.3"
       tang_offset="0"
       prop_units="false"
       vertical_pattern="false"
       hide_knot="false"
       fuse_tolerance="0" />
    <inkscape:path-effect
       effect="skeletal"
       id="path-effect7"
       is_visible="true"
       lpeversion="1"
       pattern="m -43.706093,-69.991573 0.50001,-4.79233 0.70645,4.79233"
       copytype="repeated"
       prop_scale="1"
       scale_y_rel="false"
       spacing="0"
       normal_offset="-1.3"
       tang_offset="0"
       prop_units="false"
       vertical_pattern="false"
       hide_knot="false"
       fuse_tolerance="0" />
    <inkscape:path-effect
       effect="skeletal"
       id="path-effect2"
       is_visible="true"
       lpeversion="1"
       pattern="m -43.706093,-69.991573 0.50001,-4.79233 0.70645,4.79233"
       copytype="repeated"
       prop_scale="1"
       scale_y_rel="false"
       spacing="0"
       normal_offset="-1.3"
       tang_offset="0"
       prop_units="false"
       vertical_pattern="false"
       hide_knot="false"
       fuse_tolerance="0" />
    <inkscape:path-effect
       effect="skeletal"
       id="path-effect1"
       is_visible="true"
       lpeversion="1"
       pattern="M 0,0 H 1"
       copytype="single_stretched"
       prop_scale="1"
       scale_y_rel="false"
       spacing="0"
       normal_offset="0"
       tang_offset="0"
       prop_units="false"
       vertical_pattern="false"
       hide_knot="false"
       fuse_tolerance="0" />
    <inkscape:path-effect
       effect="skeletal"
       id="path-effect5"
       is_visible="true"
       lpeversion="1"
       pattern="M 0.49730967,4.8652525 0.99731968,0.07292255 1.7037697,4.8652525"
       copytype="repeated"
       prop_scale="1"
       scale_y_rel="false"
       spacing="0"
       normal_offset="-1.3"
       tang_offset="0"
       prop_units="false"
       vertical_pattern="false"
       hide_knot="false"
       fuse_tolerance="0" />
    <inkscape:path-effect
       effect="skeletal"
       id="path-effect33"
       is_visible="true"
       lpeversion="1"
       pattern="M 0.49730967,4.8652525 0.99731968,0.07292255 1.7037697,4.8652525"
       copytype="repeated"
       prop_scale="1"
       scale_y_rel="false"
       spacing="0"
       normal_offset="-1.3"
       tang_offset="0"
       prop_units="false"
       vertical_pattern="false"
       hide_knot="false"
       fuse_tolerance="0" />
    <inkscape:path-effect
       effect="skeletal"
       id="path-effect35"
       is_visible="true"
       lpeversion="1"
       pattern="M 0.49730967,4.8652525 0.99731968,0.07292255 1.7037697,4.8652525"
       copytype="repeated"
       prop_scale="1"
       scale_y_rel="false"
       spacing="0"
       normal_offset="-1.3"
       tang_offset="0"
       prop_units="false"
       vertical_pattern="false"
       hide_knot="false"
       fuse_tolerance="0" />
    <inkscape:path-effect
       effect="skeletal"
       id="path-effect36"
       is_visible="true"
       lpeversion="1"
       pattern="M 0.49730967,4.8652525 0.99731968,0.07292255 1.7037697,4.8652525"
       copytype="repeated"
       prop_scale="1"
       scale_y_rel="false"
       spacing="0"
       normal_offset="-1.3"
       tang_offset="0"
       prop_units="false"
       vertical_pattern="false"
       hide_knot="false"
       fuse_tolerance="0" />
    <inkscape:path-effect
       effect="skeletal"
       id="path-effect39"
       is_visible="true"
       lpeversion="1"
       pattern="M 0.49730967,4.8652525 0.99731968,0.07292255 1.7037697,4.8652525"
       copytype="repeated"
       prop_scale="1"
       scale_y_rel="false"
       spacing="0"
       normal_offset="-1.3"
       tang_offset="0"
       prop_units="false"
       vertical_pattern="false"
       hide_knot="false"
       fuse_tolerance="0" />
    <inkscape:path-effect
       effect="skeletal"
       id="path-effect39-6"
       is_visible="true"
       lpeversion="1"
       pattern="M 0.49730967,4.8652525 0.99731968,0.07292255 1.7037697,4.8652525"
       copytype="repeated"
       prop_scale="1"
       scale_y_rel="false"
       spacing="0"
       normal_offset="-1.3"
       tang_offset="0"
       prop_units="false"
       vertical_pattern="false"
       hide_knot="false"
       fuse_tolerance="0" />
    <inkscape:path-effect
       effect="skeletal"
       id="path-effect36-2"
       is_visible="true"
       lpeversion="1"
       pattern="M 0.49730967,4.8652525 0.99731968,0.07292255 1.7037697,4.8652525"
       copytype="repeated"
       prop_scale="1"
       scale_y_rel="false"
       spacing="0"
       normal_offset="-1.3"
       tang_offset="0"
       prop_units="false"
       vertical_pattern="false"
       hide_knot="false"
       fuse_tolerance="0" />
  </defs>
  <g
     inkscape:label="Layer 1"
     inkscape:groupmode="layer"
     id="layer1">
    <path
       id="path20"
       class="fabric"
       d="m 95.214766,8.536286 v 4.275135 c 0,6.49125 -0.251212,11.313675 3.607538,13.661175 2.523746,1.53 6.431326,2.051235 12.266326,2.051235 7.82625,0 18.78738,-1.10991 34.13238,-3.10116 l 4.47007,-0.58137 -0.24007,4.50012 c -1.40625,26.2425 -6.99378,67.065026 -12.57753,112.098779 l -0.0225,0.25871 c -2.26875,18.27 -4.5336,37.23379 -6.52115,56.19754 -3.6525,34.8525 -6.36375,69.77615 -6.36375,100.33865 0,1.86 0.008,3.73504 0.03,5.62504 -0.0225,1.89 -0.03,3.76505 -0.03,5.62505 h -3.74995 -45.183864 -3.749962 c 0,-1.8975 -0.0037,-3.77255 -0.01125,-5.62505 0.0075,-1.8525 0.01125,-3.72754 0.01125,-5.62504 0,-58.1625 -2.97,-94.56371 -8.3925,-130.96121 -3.105,-20.8575 -7.012538,-41.71116 -11.617538,-66.62616 l -0.01875,-0.1314 -3.442425,-30.434973 -0.299962,-2.62872 2.373675,-1.16253 c 5.6325,-2.75625 8.655,-6.21009 10.44375,-17.688836 l 2.107612,-32.718735 0.198638,-3.07869 3.056212,-0.40113 25.290113,-3.31143 z"
       style="font-variation-settings:normal;fill:#5677a8;fill-opacity:1;stroke:#0b1627;stroke-width:0.999999;stroke-linecap:round;stroke-linejoin:round;stroke-miterlimit:4;stroke-dasharray:none;stroke-dashoffset:0;stroke-opacity:1;stop-color:#000000;opacity:1;stop-opacity:1;vector-effect:none;-inkscape-stroke:none" />
    <path
       id="path27"
       style="fill:#5677a8;fill-opacity:1;stroke:#0b1627;stroke-width:0.999999;stroke-linecap:round;stroke-linejoin:round;stroke-dasharray:none;stroke-dashoffset:0;stroke-opacity:1"
       d="m 94.736043,9.0206786 v 4.2765364 c 0,6.493681 -0.251259,11.317915 3.608139,13.666294 2.524178,1.530573 6.432388,2.051995 12.268368,2.051995 7.82756,0 18.79057,-1.110329 34.13814,-3.102324 l 4.50087,-0.585261 -0.27387,4.531651 -0.28122,4.670648 -3.74323,-0.228948 -0.007,0.09015 c -15.37008,1.980742 -26.40824,3.057357 -34.33332,3.057357 -12.943423,0 -18.45305,-3.132497 -21.416048,-8.039334 -2.189989,-3.628616 -2.861314,-8.746905 -2.883642,-15.757465 l 0.03316,0.252988 -0.0376,-0.607747 c 0,0.122416 0.0041,0.233484 0.0045,0.354759 l -0.45491,-3.468529 4.643325,-0.6075551 z" />
    <path
       id="fs-19"
       class="fabric"
       d="m 12.447264,22.093701 0.275975,3.548609 c 0.433251,11.021331 2.65897,19.871303 6.234321,30.130303 l 3.538037,-1.247894 0.06472,0.184555 c 15.131562,-2.038918 25.97369,-3.859968 33.602429,-5.897898 15.297343,-4.086511 20.018297,-9.979255 21.916985,-16.515795 1.314762,-4.528658 0.875222,-10.180449 -1.083096,-17.631704 l -0.485066,-3.721658 -60.5355,10.686489 z"
       style="fill:#5677a8;fill-opacity:1;stroke:#0b1627;stroke-width:0.999999;stroke-linecap:round;stroke-linejoin:round;stroke-dasharray:none;stroke-dashoffset:0;stroke-opacity:1"
       sodipodi:nodetypes="cccccsccccc" />
    <path
       class="lining sa sa"
       id="fs-12"
       d="m 31.880172,101.48685 -2.173822,0.15947 -1.960053,-6.566153 C 17.545716,60.928732 11.34387,39.993949 11.243197,27.094342 c -0.0017,-0.221244 -4.24e-4,-0.43876 0.0019,-0.652535 l 0.04429,-3.461701 3.372731,-0.30383 C 40.385015,18.313298 65.713766,12.861073 91.366944,9.602314 l 4.054801,-0.3616551 0.03175,4.0686261 c 0.05315,6.809792 -0.09953,11.753634 4.2323,14.213653 3.333615,1.890292 8.712115,0.874041 17.156865,0.808135 7.28227,-0.05683 15.84604,-2.140497 27.98425,-3.217757 l 4.81069,-0.683961 0.11025,7.645533 c -0.63759,13.925398 -2.40956,31.939775 -4.72033,52.512187 l -0.76064,6.808643 -2.16951,0.230688 -54.901078,5.843631 -0.251097,0.02066 -55.065481,3.996113"
       style="font-variation-settings:normal;vector-effect:none;fill:#e7e7e7;fill-opacity:0.90052086;stroke:#beb7c8;stroke-width:0.75;stroke-linecap:round;stroke-linejoin:round;stroke-miterlimit:4;stroke-dasharray:none;stroke-dashoffset:0;stroke-opacity:1;-inkscape-stroke:none;stop-color:#000000"
       sodipodi:nodetypes="cccccccccscsccccccccc" />
    <path
       id="path15"
       class="fabric"
       d="m 809.0796,1126.9186 -1.32231,10.0885 -4.9e-4,0.17 c -0.0593,20.3067 -2.80608,34.6763 -8.90658,44.7906 -4.48991,7.4416 -10.41271,13.8214 -20.42436,18.5172 -10.01164,4.6958 -24.21899,7.6539 -45.07283,7.6539 -20.81615,0 -49.93326,-2.7535 -90.27206,-7.9082 l -0.20277,-0.026 -10.21458,0.2653"
       style="font-variation-settings:normal;fill:none;fill-opacity:1;stroke:#999999;stroke-width:2.66594;stroke-linecap:butt;stroke-linejoin:miter;stroke-miterlimit:4;stroke-dasharray:5.33189, 5.33189;stroke-dashoffset:0;stroke-opacity:1;stop-color:#000000"
       sodipodi:nodetypes="ccsccc"
       transform="matrix(0.3624104,-0.0968138,0.09640031,0.3624852,-326.33397,-319.08871)" />
    <path
       id="path14"
       style="font-variation-settings:normal;fill:none;fill-opacity:1;stroke:#999999;stroke-width:2.66594;stroke-linecap:butt;stroke-linejoin:miter;stroke-miterlimit:4;stroke-dasharray:5.33189, 5.33189;stroke-dashoffset:0;stroke-opacity:1;stop-color:#000000"
       d="m 788.65534,950.67543 -1.24719,18.67434 -2.7e-4,0.0847 c -0.0143,4.50587 -0.45828,10.10165 -1.59704,15.68232 -1.13876,5.58067 -2.98283,11.14394 -5.67769,15.60814 -3.70173,6.129 -8.80751,11.0086 -17.31067,14.5359 -8.50316,3.5274 -20.4672,5.6067 -37.50718,5.6067 -20.88861,0 -50.25849,-2.8531 -91.19948,-8.1281 l -0.21879,-0.028 -10.22032,0.3782"
       sodipodi:nodetypes="ccsccc"
       transform="matrix(-0.375063,0,0,0.3751404,382.65149,-346.51996)" />
    <path
       id="path1"
       style="font-variation-settings:normal;fill:none;fill-opacity:1;stroke:#ff0066;stroke-width:2.66594;stroke-linecap:butt;stroke-linejoin:miter;stroke-miterlimit:4;stroke-dasharray:5.33189, 5.33189;stroke-dashoffset:0;stroke-opacity:1;stop-color:#000000"
       d="m 623.28241,1002.4329 9.99987,-0.37 2.19624,0.1002 c 41.42221,5.3369 69.60245,8.0406 89.83678,8.0406 30.3452,0 40.60971,-6.5808 45.68818,-14.98925 4.0453,-6.70131 5.71316,-17.1706 5.74068,-25.81396 l 0.0296,-0.84583 1.24155,-18.58985"
       sodipodi:nodetypes="ccsccc"
       transform="matrix(-0.375063,0,0,0.3751404,382.65149,-346.51996)" />
  </g>
</svg>
