<?xml version="1.0" encoding="UTF-8" standalone="no"?>
<!-- Created with Inkscape (http://www.inkscape.org/) -->

<svg
   width="600"
   height="400"
   viewBox="0 0 158.75 105.83333"
   version="1.1"
   id="svg1"
   inkscape:version="1.4 (e7c3feb100, 2024-10-09)"
   sodipodi:docname="step-4b.svg"
   xmlns:inkscape="http://www.inkscape.org/namespaces/inkscape"
   xmlns:sodipodi="http://sodipodi.sourceforge.net/DTD/sodipodi-0.dtd"
   xmlns="http://www.w3.org/2000/svg"
   xmlns:svg="http://www.w3.org/2000/svg">
  <sodipodi:namedview
     id="namedview1"
     pagecolor="#ffffff"
     bordercolor="#666666"
     borderopacity="1.0"
     inkscape:showpageshadow="2"
     inkscape:pageopacity="0.0"
     inkscape:pagecheckerboard="0"
     inkscape:deskcolor="#d1d1d1"
     inkscape:document-units="mm"
     inkscape:zoom="1"
     inkscape:cx="435.5"
     inkscape:cy="120.5"
     inkscape:window-width="2256"
     inkscape:window-height="1427"
     inkscape:window-x="0"
     inkscape:window-y="0"
     inkscape:window-maximized="1"
     inkscape:current-layer="layer1"
     showgrid="false" />
  <defs
     id="defs1">
    <inkscape:path-effect
       effect="offset"
       id="path-effect3"
       is_visible="true"
       lpeversion="1.3"
       linejoin_type="miter"
       unit="mm"
       offset="-2"
       miter_limit="4"
       attempt_force_join="false"
       update_on_knot_move="true" />
    <inkscape:path-effect
       effect="offset"
       id="path-effect4"
       is_visible="true"
       lpeversion="1.3"
       linejoin_type="miter"
       unit="mm"
       offset="-5"
       miter_limit="4"
       attempt_force_join="false"
       update_on_knot_move="true" />
    <inkscape:path-effect
       effect="offset"
       id="path-effect19"
       is_visible="true"
       lpeversion="1.3"
       linejoin_type="miter"
       unit="mm"
       offset="1"
       miter_limit="4"
       attempt_force_join="false"
       update_on_knot_move="true" />
    <inkscape:path-effect
       effect="offset"
       id="path-effect18"
       is_visible="true"
       lpeversion="1.3"
       linejoin_type="miter"
       unit="mm"
       offset="1"
       miter_limit="4"
       attempt_force_join="false"
       update_on_knot_move="true" />
    <inkscape:path-effect
       effect="skeletal"
       id="path-effect17"
       is_visible="true"
       lpeversion="1"
       pattern="M 0.49730967,4.8652525 0.99731968,0.07292255 1.7037697,4.8652525"
       copytype="repeated"
       prop_scale="1"
       scale_y_rel="false"
       spacing="0"
       normal_offset="-1.3"
       tang_offset="0"
       prop_units="false"
       vertical_pattern="false"
       hide_knot="false"
       fuse_tolerance="0" />
    <inkscape:path-effect
       effect="skeletal"
       id="path-effect15"
       is_visible="true"
       lpeversion="1"
       pattern="M 0.49730967,4.8652525 0.99731968,0.07292255 1.7037697,4.8652525"
       copytype="repeated"
       prop_scale="1"
       scale_y_rel="false"
       spacing="0"
       normal_offset="-1.3"
       tang_offset="0"
       prop_units="false"
       vertical_pattern="false"
       hide_knot="false"
       fuse_tolerance="0" />
    <inkscape:path-effect
       effect="skeletal"
       id="path-effect13"
       is_visible="true"
       lpeversion="1"
       pattern="m -43.706093,-69.991573 0.50001,-4.79233 0.70645,4.79233"
       copytype="repeated"
       prop_scale="1"
       scale_y_rel="false"
       spacing="0"
       normal_offset="-1.3"
       tang_offset="0"
       prop_units="false"
       vertical_pattern="false"
       hide_knot="false"
       fuse_tolerance="0" />
    <inkscape:path-effect
       effect="skeletal"
       id="path-effect7"
       is_visible="true"
       lpeversion="1"
       pattern="m -43.706093,-69.991573 0.50001,-4.79233 0.70645,4.79233"
       copytype="repeated"
       prop_scale="1"
       scale_y_rel="false"
       spacing="0"
       normal_offset="-1.3"
       tang_offset="0"
       prop_units="false"
       vertical_pattern="false"
       hide_knot="false"
       fuse_tolerance="0" />
    <inkscape:path-effect
       effect="skeletal"
       id="path-effect2"
       is_visible="true"
       lpeversion="1"
       pattern="m -43.706093,-69.991573 0.50001,-4.79233 0.70645,4.79233"
       copytype="repeated"
       prop_scale="1"
       scale_y_rel="false"
       spacing="0"
       normal_offset="-1.3"
       tang_offset="0"
       prop_units="false"
       vertical_pattern="false"
       hide_knot="false"
       fuse_tolerance="0" />
    <inkscape:path-effect
       effect="skeletal"
       id="path-effect1"
       is_visible="true"
       lpeversion="1"
       pattern="M 0,0 H 1"
       copytype="single_stretched"
       prop_scale="1"
       scale_y_rel="false"
       spacing="0"
       normal_offset="0"
       tang_offset="0"
       prop_units="false"
       vertical_pattern="false"
       hide_knot="false"
       fuse_tolerance="0" />
    <inkscape:path-effect
       effect="skeletal"
       id="path-effect5"
       is_visible="true"
       lpeversion="1"
       pattern="M 0.49730967,4.8652525 0.99731968,0.07292255 1.7037697,4.8652525"
       copytype="repeated"
       prop_scale="1"
       scale_y_rel="false"
       spacing="0"
       normal_offset="-1.3"
       tang_offset="0"
       prop_units="false"
       vertical_pattern="false"
       hide_knot="false"
       fuse_tolerance="0" />
    <inkscape:path-effect
       effect="skeletal"
       id="path-effect33"
       is_visible="true"
       lpeversion="1"
       pattern="M 0.49730967,4.8652525 0.99731968,0.07292255 1.7037697,4.8652525"
       copytype="repeated"
       prop_scale="1"
       scale_y_rel="false"
       spacing="0"
       normal_offset="-1.3"
       tang_offset="0"
       prop_units="false"
       vertical_pattern="false"
       hide_knot="false"
       fuse_tolerance="0" />
    <inkscape:path-effect
       effect="skeletal"
       id="path-effect35"
       is_visible="true"
       lpeversion="1"
       pattern="M 0.49730967,4.8652525 0.99731968,0.07292255 1.7037697,4.8652525"
       copytype="repeated"
       prop_scale="1"
       scale_y_rel="false"
       spacing="0"
       normal_offset="-1.3"
       tang_offset="0"
       prop_units="false"
       vertical_pattern="false"
       hide_knot="false"
       fuse_tolerance="0" />
    <inkscape:path-effect
       effect="skeletal"
       id="path-effect36"
       is_visible="true"
       lpeversion="1"
       pattern="M 0.49730967,4.8652525 0.99731968,0.07292255 1.7037697,4.8652525"
       copytype="repeated"
       prop_scale="1"
       scale_y_rel="false"
       spacing="0"
       normal_offset="-1.3"
       tang_offset="0"
       prop_units="false"
       vertical_pattern="false"
       hide_knot="false"
       fuse_tolerance="0" />
    <inkscape:path-effect
       effect="skeletal"
       id="path-effect39"
       is_visible="true"
       lpeversion="1"
       pattern="M 0.49730967,4.8652525 0.99731968,0.07292255 1.7037697,4.8652525"
       copytype="repeated"
       prop_scale="1"
       scale_y_rel="false"
       spacing="0"
       normal_offset="-1.3"
       tang_offset="0"
       prop_units="false"
       vertical_pattern="false"
       hide_knot="false"
       fuse_tolerance="0" />
    <inkscape:path-effect
       effect="skeletal"
       id="path-effect39-6"
       is_visible="true"
       lpeversion="1"
       pattern="M 0.49730967,4.8652525 0.99731968,0.07292255 1.7037697,4.8652525"
       copytype="repeated"
       prop_scale="1"
       scale_y_rel="false"
       spacing="0"
       normal_offset="-1.3"
       tang_offset="0"
       prop_units="false"
       vertical_pattern="false"
       hide_knot="false"
       fuse_tolerance="0" />
    <inkscape:path-effect
       effect="skeletal"
       id="path-effect36-2"
       is_visible="true"
       lpeversion="1"
       pattern="M 0.49730967,4.8652525 0.99731968,0.07292255 1.7037697,4.8652525"
       copytype="repeated"
       prop_scale="1"
       scale_y_rel="false"
       spacing="0"
       normal_offset="-1.3"
       tang_offset="0"
       prop_units="false"
       vertical_pattern="false"
       hide_knot="false"
       fuse_tolerance="0" />
    <inkscape:path-effect
       effect="skeletal"
       id="path-effect36-0"
       is_visible="true"
       lpeversion="1"
       pattern="M 0.49730967,4.8652525 0.99731968,0.07292255 1.7037697,4.8652525"
       copytype="repeated"
       prop_scale="1"
       scale_y_rel="false"
       spacing="0"
       normal_offset="-1.3"
       tang_offset="0"
       prop_units="false"
       vertical_pattern="false"
       hide_knot="false"
       fuse_tolerance="0" />
    <inkscape:path-effect
       effect="skeletal"
       id="path-effect39-0"
       is_visible="true"
       lpeversion="1"
       pattern="M 0.49730967,4.8652525 0.99731968,0.07292255 1.7037697,4.8652525"
       copytype="repeated"
       prop_scale="1"
       scale_y_rel="false"
       spacing="0"
       normal_offset="-1.3"
       tang_offset="0"
       prop_units="false"
       vertical_pattern="false"
       hide_knot="false"
       fuse_tolerance="0" />
  </defs>
  <g
     inkscape:label="Layer 1"
     inkscape:groupmode="layer"
     id="layer1">
    <path
       id="fs-19"
       class="fabric"
       d="m 12.008697,21.57281 0.275975,3.548609 c 0.433251,11.021331 2.65897,19.871303 6.234321,30.130303 l 3.538037,-1.247894 0.06472,0.184555 C 37.253312,52.149465 48.09544,50.328415 55.724179,48.290485 71.021522,44.203974 75.742476,38.31123 77.641164,31.77469 78.955926,27.246032 78.516386,21.594241 76.558068,14.142986 l -0.485066,-2.85153 -60.5355,9.816361 z"
       style="fill:#5677a8;fill-opacity:1;stroke:#0b1627;stroke-width:0.999999;stroke-linecap:round;stroke-linejoin:round;stroke-dasharray:none;stroke-dashoffset:0;stroke-opacity:1"
       sodipodi:nodetypes="cccccsccccc" />
    <path
       id="path27"
       style="font-variation-settings:normal;opacity:1;vector-effect:none;fill:#aeb5bf;fill-opacity:1;stroke:#0b1627;stroke-width:0.75;stroke-linecap:round;stroke-linejoin:round;stroke-miterlimit:4;stroke-dasharray:none;stroke-dashoffset:0;stroke-opacity:1;-inkscape-stroke:none;stop-color:#000000;stop-opacity:1"
       d="m 90.854399,9.5291341 -0.35295,0.046509 -4.643128,0.6077149 0.454753,3.468522 c -4e-4,-0.121275 -0.0041,-0.232084 -0.0041,-0.3545 l 0.03721,0.607714 -0.03307,-0.253214 c 0.02233,7.01056 0.693556,12.129078 2.883545,15.757694 2.962998,4.906837 8.472841,8.039303 21.416271,8.039303 7.92508,0 18.96322,-1.076953 34.3333,-3.057695 l 0.007,-0.08992 3.74292,0.228927 0.28112,-4.670516 0.0202,-0.33383 -0.11627,0.0072 -3.75067,-0.13901 -0.82373,0.03772 c -15.53593,2.002087 -26.10543,3.016354 -33.69458,3.016354 -11.381366,0 -15.231163,-2.468564 -17.135909,-5.622913 -1.517243,-2.513932 -2.142519,-6.44169 -2.15284,-9.684163 l -0.01137,-0.317294 -0.465605,-6.973734 z" />
    <path
       class="lining sa sa"
       id="fs-12"
       d="m 32.647114,99.862811 -2.173822,0.159469 -1.960053,-6.566157 C 18.312658,59.304692 12.110812,38.369909 12.010139,25.470302 c -0.0017,-0.221244 -4.24e-4,-0.43876 0.0019,-0.652535 l 0.04429,-3.461701 3.372731,-0.30383 C 41.151957,16.689258 62.042262,12.575612 87.69544,9.3168525 l 4.054801,-0.361655 0.03175,4.0686265 c 0.05314,6.809792 1.3095,14.289889 5.641333,16.749908 3.333606,1.890292 11.530176,2.19653 19.974926,2.130624 7.28227,-0.05683 15.98186,-1.675314 28.12007,-2.752574 l 4.27593,-0.378381 -0.19533,4.284154 c -0.63759,13.925398 -1.49369,29.333068 -3.80446,49.90548 l -0.76064,6.808643 -2.16951,0.230688 -54.901076,5.843627 -0.251097,0.0207 -55.065481,3.996118"
       style="font-variation-settings:normal;vector-effect:none;fill:#e7e7e7;fill-opacity:0.93781;stroke:#beb7c8;stroke-width:0.75;stroke-linecap:round;stroke-linejoin:round;stroke-miterlimit:4;stroke-dasharray:none;stroke-dashoffset:0;stroke-opacity:1;-inkscape-stroke:none;stop-color:#000000"
       sodipodi:nodetypes="cccccccccscsccccccccc" />
    <path
       id="path15"
       class="fabric"
       d="m 75.520192,11.072547 0.493311,3.784919 0.01621,0.06169 c 1.936072,7.366614 2.325849,12.841301 1.089987,17.098193 -0.909813,3.132176 -2.441287,6.018152 -5.616931,8.689587 -3.175644,2.671436 -8.039382,5.119137 -15.597023,7.138077 -7.54399,2.015291 -18.36177,3.83614 -33.47789,5.872977 l -0.076,0.01024 -3.67631,1.085046"
       style="font-variation-settings:normal;fill:none;fill-opacity:1;stroke:#999999;stroke-width:0.999999;stroke-linecap:butt;stroke-linejoin:miter;stroke-miterlimit:4;stroke-dasharray:2, 2;stroke-dashoffset:0;stroke-opacity:1;stop-color:#000000"
       sodipodi:nodetypes="ccsccc" />
    <path
       id="path20"
       style="font-variation-settings:normal;opacity:1;vector-effect:none;fill:#5677a8;fill-opacity:0.943609;stroke:#0b1627;stroke-width:0.999999;stroke-linecap:round;stroke-linejoin:round;stroke-miterlimit:4;stroke-dasharray:none;stroke-dashoffset:0;stroke-opacity:1;-inkscape-stroke:none;stop-color:#000000;stop-opacity:1"
       class="fabric"
       d="M 90.864734,9.1064209 65.691077,12.402861 62.634933,12.80387 62.435978,15.882751 60.328613,48.601168 C 58.539866,60.079914 55.517306,63.533761 49.884806,66.290011 l -2.3735,1.162719 0.29973,2.62878 3.44268,30.43484 0.0186,0.13125 c 4.605,24.915 8.51238,45.76893 11.617381,66.62643 5.4225,36.3975 8.39277,72.7985 8.39277,130.961 0,1.8975 -0.0039,3.77248 -0.01137,5.62498 0.0075,1.8525 0.01137,3.72748 0.01137,5.62498 h 3.749642 45.183811 3.75016 c 0,-1.86 0.007,-3.73498 0.03,-5.62498 -0.022,-1.89 -0.03,-3.76498 -0.03,-5.62498 0,-30.5625 2.71145,-65.48608 6.36395,-100.33858 1.98755,-18.96375 4.2523,-37.92761 6.52105,-56.19761 l 0.0222,-0.25889 c 5.57334,-44.94984 11.1475,-85.694209 12.56667,-111.942009 l -0.55862,0.03514 -3.75067,-0.13901 -0.82373,0.03772 c -15.53593,2.002087 -26.10543,3.016354 -33.69458,3.016354 -11.381366,0 -15.231163,-2.468564 -17.135909,-5.622913 -1.517243,-2.513932 -2.142519,-6.44169 -2.15284,-9.684163 l -0.01137,-0.317294 -0.465605,-6.9737342 z"
       sodipodi:nodetypes="cccccccccccsccccccscccccccsccccc" />
    <path
       id="path4"
       style="font-variation-settings:normal;fill:none;fill-opacity:1;stroke:#ff0066;stroke-width:0.999999;stroke-linecap:butt;stroke-linejoin:miter;stroke-miterlimit:4;stroke-dasharray:2, 2;stroke-dashoffset:0;stroke-opacity:1;stop-color:#000000"
       d="m 150.61803,31.788307 c -0.34551,0.0452 -0.97362,0.250023 -1.9083,0.266798 l -0.0908,-4.31e-4 c -1.38829,-0.03811 -2.47182,-0.11719 -3.71387,-0.120236 l 0.0943,-0.002 c -1.03641,0.04637 -1.82508,0.219152 -3.18454,0.366636 l 0.0307,-0.0036 c -7.78559,0.966763 -15.61393,1.900491 -23.51068,2.409929 l -0.0102,6.31e-4 c -4.48951,0.266651 -9.08286,0.449641 -13.71968,-0.0019 l -0.0179,-0.0018 c -2.82187,-0.300459 -5.845384,-0.812354 -8.65323,-2.267513 -2.079335,-1.069114 -3.840779,-2.75096 -4.942815,-4.870698 -1.301602,-2.501125 -1.806515,-5.190504 -2.062686,-7.71332 -0.161362,-1.51545 -0.108177,-2.85804 -0.215484,-4.007922 l -0.0042,-0.05251 C 88.562582,13.602943 88.416066,11.41524 88.270138,9.2272049"
       sodipodi:nodetypes="ccccccccccc"
       inkscape:path-effect="#path-effect3"
       inkscape:original-d="m 150.35857,29.805208 c -0.56223,0.07356 -1.11828,0.240053 -1.68473,0.250219 -1.25459,-0.03444 -2.50941,-0.117907 -3.76385,-0.120983 -1.11019,0.04967 -2.20674,0.256521 -3.31086,0.376304 -7.77904,0.965949 -15.56831,1.894046 -23.39299,2.398835 -4.46169,0.264999 -8.9504,0.438014 -13.40725,0.004 -2.72594,-0.290246 -5.494152,-0.784456 -7.950458,-2.05742 -1.725103,-0.886982 -3.186097,-2.289755 -4.083199,-4.015307 -1.125095,-2.161953 -1.603713,-4.595602 -1.848066,-7.001805 -0.140938,-1.323634 -0.08926,-2.657153 -0.212894,-3.981995 -0.146154,-2.18765 -0.292665,-4.375277 -0.438568,-6.5629424" />
  </g>
</svg>
