<?xml version="1.0" encoding="UTF-8" standalone="no"?>
<!-- Created with Inkscape (http://www.inkscape.org/) -->

<svg
   width="384"
   height="384"
   viewBox="0 0 101.59999 101.59999"
   version="1.1"
   id="svg1"
   inkscape:version="1.3 (0e150ed6c4, 2023-07-21)"
   sodipodi:docname="sleeve.svg"
   xmlns:inkscape="http://www.inkscape.org/namespaces/inkscape"
   xmlns:sodipodi="http://sodipodi.sourceforge.net/DTD/sodipodi-0.dtd"
   xmlns="http://www.w3.org/2000/svg"
   xmlns:svg="http://www.w3.org/2000/svg">
  <sodipodi:namedview
     id="namedview1"
     pagecolor="#ffffff"
     bordercolor="#000000"
     borderopacity="0.25"
     inkscape:showpageshadow="2"
     inkscape:pageopacity="0.0"
     inkscape:pagecheckerboard="0"
     inkscape:deskcolor="#d1d1d1"
     inkscape:document-units="mm"
     inkscape:zoom="1"
     inkscape:cx="154.5"
     inkscape:cy="222.5"
     inkscape:window-width="2256"
     inkscape:window-height="1427"
     inkscape:window-x="0"
     inkscape:window-y="0"
     inkscape:window-maximized="1"
     inkscape:current-layer="layer1"
     showgrid="false">
    <inkscape:grid
       id="grid20"
       units="mm"
       originx="0"
       originy="0"
       spacingx="0.9999999"
       spacingy="0.9999999"
       empcolor="#0099e5"
       empopacity="0.30196078"
       color="#0099e5"
       opacity="0.14901961"
       empspacing="5"
       dotted="false"
       gridanglex="30"
       gridanglez="30"
       visible="false" />
  </sodipodi:namedview>
  <defs
     id="defs1" />
  <g
     inkscape:label="Ebene 1"
     inkscape:groupmode="layer"
     id="layer1"
     transform="translate(-54.241072,-78.755178)">
    <g
       id="g79"
       style="stroke-width:1.32408;stroke-dasharray:none"
       transform="matrix(0.19542082,-0.04194772,0.04192748,0.19532651,-41.497971,162.96908)">
      <path
         id="fs-10"
         class="fabric sa"
         d="m 460.70674,-51.700005 -55.38626,85.410092 -8.31991,11.439612 c 2.5,15.759984 3.37964,39.880214 3.37964,79.750171 0,28.42997 -3.16957,47.36979 -13.54956,57.75978 -1.41,1.4 -3.86008,3.09035 -6.83007,4.85035 -4.37,2.59 -9.80042,5.18002 -15.24042,6.89002 -3.38999,1.07 -6.76989,1.80971 -9.82989,1.80971 l -9.9999,9.99991 c 0,40.99995 7.59026,81.84032 15.22026,117.53029 7.31999,34.19996 14.77997,63.44976 14.77997,83.01974 0,19.68998 -5.50034,32.37006 -12.34033,44.96004 -0.73,1.34 -1.47978,2.68032 -2.28978,4.14032 -2.27,4.04 -4.63987,8.14997 -7.23987,12.92996 -1.69,3.12 -3.39034,6.34977 -5.05034,9.77977 -8.42999,17.42998 -14.09,47.33003 -17.37,77.31 -2.93999,26.78998 -4.08967,53.56993 -4.08967,70.87992 l 8.08995,29.94029 c 37.20996,3.88999 59.91994,6.26994 82.63991,7.71994 l 1.90996,0.0599 c 35.61997,2.28 71.23991,2.27997 162.68981,2.27997 91.44991,0 127.07037,3e-5 162.69033,-2.27997 l 1.90996,-0.0599 c 22.71998,-1.45 45.42996,-3.82995 82.63992,-7.71994 l 8.08995,-29.94029 c 0,-17.30999 -1.1502,-44.08994 -4.09019,-70.87992 -3.28,-29.97997 -8.94001,-59.88002 -17.37,-77.31 -1.66,-3.43 -3.35983,-6.65977 -5.04982,-9.77977 -2.6,-4.77999 -4.96987,-8.88996 -7.23987,-12.92996 -0.81,-1.46 -1.5603,-2.80032 -2.2903,-4.14032 -6.83999,-12.58998 -12.33982,-25.27006 -12.33982,-44.96004 0,-19.56998 7.45999,-48.81978 14.77998,-83.01974 7.62999,-35.68997 15.22026,-76.53034 15.22026,-117.53029 l -10.00042,-9.99991 c -3.06,0 -6.4399,-0.73971 -9.82989,-1.80971 -5.44,-1.71 -10.86991,-4.30002 -15.2399,-6.89002 -2.97,-1.76 -5.42008,-3.45035 -6.83008,-4.85035 -10.37998,-10.38999 -13.55007,-29.32981 -13.55007,-57.75978 0,-39.869957 0.88016,-63.990187 3.38015,-79.750171 l -8.3199,-11.439612 -53.12027,-8.410339 -11.19813,3.008109 c -0.16,0.979999 -3.1115,5.631788 -3.7715,5.881787 -95.36023,33.792932 -193.30628,-20.078982 -214.67374,-76.999753 13.81034,-20.074482 -3.37002,0.40019 -3.53002,-0.579809 z"
         style="fill:#212178;fill-opacity:1;stroke:#212121;stroke-width:1.32408;stroke-linecap:round;stroke-linejoin:round;stroke-dasharray:none;stroke-opacity:1"
         sodipodi:nodetypes="cccsccccccscccccccccscccccccccsccccccscccccccc" />
      <g
         id="use38"
         style="stroke-width:1.32408;stroke-dasharray:none"
         transform="translate(753.38042,124.89983)">
        <path
           d="m -1.1,-1.1 2.2,2.2 m 0,-2.2 -2.2,2.2"
           class="note"
           id="path31"
           style="fill:none;stroke:#8b5cf6;stroke-width:0.4;stroke-linecap:round;stroke-linejoin:round;stroke-opacity:1" />
        <circle
           cy="0"
           cx="0"
           r="2.8"
           class="note"
           id="circle32"
           style="fill:none;stroke:#8b5cf6;stroke-width:0.4;stroke-linecap:round;stroke-linejoin:round;stroke-opacity:1" />
      </g>
      <g
         id="use39"
         style="stroke-width:1.32408;stroke-dasharray:none"
         transform="translate(808.24042,226.26983)">
        <circle
           cy="0"
           cx="0"
           r="1.4"
           class="fill-note"
           id="circle34"
           style="fill:#8b5cf6;stroke:#000000;stroke-width:0.3;stroke-linecap:round;stroke-linejoin:round;stroke-opacity:1" />
        <circle
           cy="0"
           cx="0"
           r="2.8"
           class="note"
           id="circle35"
           style="fill:none;stroke:#8b5cf6;stroke-width:0.4;stroke-linecap:round;stroke-linejoin:round;stroke-opacity:1" />
      </g>
      <g
         id="use40"
         style="stroke-width:1.32408;stroke-dasharray:none"
         transform="translate(793.03041,325.36982)">
        <circle
           cy="0"
           cx="0"
           r="1.4"
           class="fill-note"
           id="circle36"
           style="fill:#8b5cf6;stroke:#000000;stroke-width:0.3;stroke-linecap:round;stroke-linejoin:round;stroke-opacity:1" />
        <circle
           cy="0"
           cx="0"
           r="2.8"
           class="note"
           id="circle37"
           style="fill:none;stroke:#8b5cf6;stroke-width:0.4;stroke-linecap:round;stroke-linejoin:round;stroke-opacity:1" />
      </g>
      <g
         id="use68"
         style="stroke-width:1.32408;stroke-dasharray:none"
         transform="matrix(-1,0,0,1,410.38042,124.89983)">
        <path
           d="m -1.1,-1.1 2.2,2.2 m 0,-2.2 -2.2,2.2"
           class="note"
           id="path32"
           style="fill:none;stroke:#8b5cf6;stroke-width:0.4;stroke-linecap:round;stroke-linejoin:round;stroke-opacity:1" />
        <circle
           cy="0"
           cx="0"
           r="2.8"
           class="note"
           id="circle33"
           style="fill:none;stroke:#8b5cf6;stroke-width:0.4;stroke-linecap:round;stroke-linejoin:round;stroke-opacity:1" />
      </g>
      <g
         id="use69"
         style="stroke-width:1.32408;stroke-dasharray:none"
         transform="matrix(-1,0,0,1,355.52042,226.26983)">
        <circle
           cy="0"
           cx="0"
           r="1.4"
           class="fill-note"
           id="circle38"
           style="fill:#8b5cf6;stroke:#000000;stroke-width:0.3;stroke-linecap:round;stroke-linejoin:round;stroke-opacity:1" />
        <circle
           cy="0"
           cx="0"
           r="2.8"
           class="note"
           id="circle39"
           style="fill:none;stroke:#8b5cf6;stroke-width:0.4;stroke-linecap:round;stroke-linejoin:round;stroke-opacity:1" />
      </g>
      <g
         id="use70"
         style="stroke-width:1.32408;stroke-dasharray:none"
         transform="matrix(-1,0,0,1,370.73043,325.36982)">
        <circle
           cy="0"
           cx="0"
           r="1.4"
           class="fill-note"
           id="circle40"
           style="fill:#8b5cf6;stroke:#000000;stroke-width:0.3;stroke-linecap:round;stroke-linejoin:round;stroke-opacity:1" />
        <circle
           cy="0"
           cx="0"
           r="2.8"
           class="note"
           id="circle41"
           style="fill:none;stroke:#8b5cf6;stroke-width:0.4;stroke-linecap:round;stroke-linejoin:round;stroke-opacity:1" />
      </g>
    </g>
    <g
       id="g25"
       transform="matrix(0.19786001,0.02829004,-0.02827638,0.19776452,181.31519,172.2585)"
       style="stroke-width:1.32408;stroke-dasharray:none">
      <!-- Start of group #fs-stack-bibi.front-part-bibi.front -->
      <g
         id="g24"
         transform="rotate(180,-280.35115,-90.611863)"
         style="stroke-width:1.32408;stroke-dasharray:none">
        <path
           id="path1"
           style="fill:#212178;fill-opacity:1;stroke:#212121;stroke-width:1.32408;stroke-linecap:round;stroke-linejoin:round;stroke-dasharray:none;stroke-opacity:1"
           class="fabric sa"
           d="m -184.45486,-67.68802 c 0.11,1.779998 -0.86496,1.475173 -0.72496,3.455171 0.15,2.079998 0.30974,4.279753 0.46974,6.619751 0.53,7.889992 1.07022,17.340376 1.07022,28.740364 0,11.049989 -0.5004,23.9300369 -2.0004,39.010022 -2.82999,28.49999 -12.25976,46.390011 -23.61974,55.700013 -1.22,1 -3.15014,2.1099 -5.46014,3.279903 -4.55999,2.290003 -10.49001,4.589856 -16.43,5.959856 -3.13,0.72 -6.24968,1.190103 -9.12968,1.190103 -0.70999,0 -1.39034,-0.0299 -2.06034,-0.0899 l -10.93008,8.929699 c -0.68,6.609996 -1.09951,13.550105 -1.27951,21.010098 -0.03,1.32 -0.0501,2.65012 -0.0501,3.98012 l 0.01,0.44028 c 0,3.36 0.0999,6.79986 0.25993,10.42986 0.17,4.13999 0.42991,8.27991 0.65991,11.67991 0.47,7.35999 1.99922,40.95179 2.00922,46.50178 0,1.11 -0.0196,2.18996 -0.0496,3.21996 l 2.39004,3.90367 c 18.21325,39.236 19.28217,75.94511 20.02044,108.63862 v 75.46981 144.5302 l 9.9999,29.99972 H 9.1536458e-5 219.29988 l 9.99991,-29.99972 v -144.5302 l 0.15299,-70.18585 c 0.0763,-34.9911 0.28268,-61.82495 19.20275,-109.96465 l 2.23704,-9.18763 c -0.03,-1.03 -0.0501,-2.10996 -0.0501,-3.21996 0.01,-5.54999 2.35744,-37.81576 2.82744,-45.17575 0.23,-3.4 0.48991,-7.53992 0.65991,-11.67991 0.16,-3.63 0.26045,-7.06986 0.26045,-10.42986 l 0.01,-0.44028 c 0,-1.33 -0.0201,-2.66012 -0.0501,-3.98012 -0.18,-7.459993 -0.60003,-14.400102 -1.28003,-21.010098 l -10.93008,-8.929699 c -0.67,0.06 -1.34982,0.0899 -2.05982,0.0899 -2.88,0 -6.0002,-0.470103 -9.13019,-1.190103 -5.94,-1.37 -11.87001,-3.669853 -16.43001,-5.959856 -2.31,-1.170003 -4.23961,-2.279903 -5.45961,-3.279903 -11.35999,-9.310002 -20.79027,-27.200023 -23.62027,-55.700013 -1.5,-15.0799851 -1.99987,-27.960033 -1.99987,-39.010022 0,-11.399988 0.5397,-20.850372 1.0697,-28.740364 0.16,-2.339998 0.32025,-4.539753 0.47025,-6.619751 0.14,-1.979998 0.26001,-3.859968 0.37001,-5.639966 l -8.90048,-10.640178 -53.41999,-5.769673 -11.00966,8.869743 c -4.5,41.629958 -23.170042,68.4700769 -53.220012,81.920064 C 42.370124,11.957134 22.490069,15.387097 9.1536458e-5,15.387097 -22.489886,15.387097 -42.369941,11.957134 -58.999925,4.507141 -89.049895,-8.9428461 -107.07508,-37.597927 -111.57507,-79.227885 Z"
           sodipodi:nodetypes="cccscsccsccccccccccscccccccsccccccccccsccccscccccccsccc" />
        <path
           class="help"
           id="path2"
           d="M 250.51735,182.584 128,179.0072"
           style="fill:none;stroke:#000055;stroke-width:1.32617;stroke-linecap:round;stroke-linejoin:round;stroke-dasharray:3.9785, 3.9785;stroke-dashoffset:0;stroke-opacity:1"
           sodipodi:nodetypes="cc" />
        <g
           id="use4"
           style="stroke-width:1.32408;stroke-dasharray:none"
           transform="translate(175.69,11.127105)">
          <circle
             cy="0"
             cx="0"
             r="1.4"
             class="fill-note"
             id="circle28"
             style="fill:#8b5cf6;stroke:#000000;stroke-width:0.3;stroke-linecap:round;stroke-linejoin:round;stroke-opacity:1" />
          <circle
             cy="0"
             cx="0"
             r="2.8"
             class="note"
             id="circle29"
             style="fill:none;stroke:#8b5cf6;stroke-width:0.4;stroke-linecap:round;stroke-linejoin:round;stroke-opacity:1" />
        </g>
        <path
           class="help"
           id="path20"
           d="M -251.71039,182.36897 -128,179.0072"
           style="fill:none;stroke:#000055;stroke-width:1.32617;stroke-linecap:round;stroke-linejoin:round;stroke-dasharray:3.9785, 3.9785;stroke-dashoffset:0;stroke-opacity:1"
           sodipodi:nodetypes="cc" />
        <g
           id="use23"
           style="stroke-width:1.32408;stroke-dasharray:none"
           transform="matrix(-1,0,0,1,-175.69,11.127105)">
          <circle
             cy="0"
             cx="0"
             r="1.4"
             class="fill-note"
             id="circle30"
             style="fill:#8b5cf6;stroke:#000000;stroke-width:0.3;stroke-linecap:round;stroke-linejoin:round;stroke-opacity:1" />
          <circle
             cy="0"
             cx="0"
             r="2.8"
             class="note"
             id="circle31"
             style="fill:none;stroke:#8b5cf6;stroke-width:0.4;stroke-linecap:round;stroke-linejoin:round;stroke-opacity:1" />
        </g>
        <path
           style="fill:none;fill-opacity:0.238985;stroke:#002255;stroke-width:5.29633;stroke-dasharray:21.1853, 5.29633;stroke-dashoffset:0;stroke-opacity:1"
           d="m -184.45486,-67.68802 72.87979,-11.539865"
           id="path41"
           sodipodi:nodetypes="cc" />
      </g>
      <!-- end of group #fs-stack-bibi.front-part-bibi.front -->
    </g>
    <g
       id="fs-stack-bibi.sleeve-part-bibi.sleeve"
       transform="matrix(0,0.19987223,-0.19977577,0,80.234629,138.48754)"
       style="stroke-width:1.32408;stroke-dasharray:none">
      <path
         class="fabric sa"
         id="fs-2"
         d="m -169.51,1.49 12.73,84.59 9.89,8.52 h 293.78 l 9.89,-8.52 12.73,-84.59 -8.52,-11.4 c -0.18,-0.02 -0.42,-0.05 -0.74,-0.08 -3.12,-0.38 -12.71,-2.01 -34.22,-13.31 -2.64,-1.39 -5.09,-2.77 -7.38,-4.16 -14.09,-8.53 -21.44,-17.39 -28.84,-27.14 -1.27,-1.68 -2.53,-3.37 -3.83,-5.1 -7.15,-9.49 -15.21,-19.85 -28.74,-31.66 -11.78,-10.29 -32.31,-15.66 -53.87,-15.66 -1.55,0 -3.11,0.03 -4.66,0.08 l -0.36,0.01 c -22.33,0.81 -44.42,7.18 -57.08,17.31 -8.64,6.91 -21.49,19.38 -34.57,31.86 -0.83,0.79 -1.66,1.58 -2.49,2.37 -13.48,12.82 -26.91,25.36 -35.5,30.44 -15.31,9.05 -30.31,14.96 -32.11,15.69 z"
         style="fill:#233859;fill-opacity:1;stroke:#212121;stroke-width:1.32408;stroke-linecap:round;stroke-linejoin:round;stroke-dasharray:none;stroke-opacity:1" />
      <path
         class="fabric"
         id="fs-1"
         d="m -159.62,0 12.73,84.6 H 146.89 L 159.62,0 c 0,0 -12.22,-0.77 -38.24,-14.45 -39.04,-20.52 -37.5,-40.37 -70.72,-69.38 -22.14,-19.33 -80.18,-16.35 -103.14,2.02 -18.36,14.69 -56,54.99 -73.72,65.46 C -142.14,-6.92 -159.62,0 -159.62,0 Z"
         style="fill:none;stroke:#dbdee3;stroke-width:1.32408;stroke-linecap:round;stroke-linejoin:round;stroke-dasharray:none;stroke-opacity:1" />
      <g
         id="use26"
         style="stroke-width:1.32408;stroke-dasharray:none"
         transform="translate(70.199997,-63.68)">
        <circle
           cy="0"
           cx="0"
           r="1.4"
           class="fill-note"
           id="circle43"
           style="fill:#8b5cf6;stroke:#000000;stroke-width:0.3;stroke-linecap:round;stroke-linejoin:round;stroke-opacity:1" />
        <circle
           cy="0"
           cx="0"
           r="2.8"
           class="note"
           id="circle44"
           style="fill:none;stroke:#8b5cf6;stroke-width:0.4;stroke-linecap:round;stroke-linejoin:round;stroke-opacity:1" />
      </g>
      <g
         id="use27"
         style="stroke-width:1.32408;stroke-dasharray:none"
         transform="translate(-70.599998,-65.589996)">
        <path
           d="m -1.1,-1.1 2.2,2.2 m 0,-2.2 -2.2,2.2"
           class="note"
           id="path42"
           style="fill:none;stroke:#8b5cf6;stroke-width:0.4;stroke-linecap:round;stroke-linejoin:round;stroke-opacity:1" />
        <circle
           cy="0"
           cx="0"
           r="2.8"
           class="note"
           id="circle42"
           style="fill:none;stroke:#8b5cf6;stroke-width:0.4;stroke-linecap:round;stroke-linejoin:round;stroke-opacity:1" />
      </g>
    </g>
    <g
       id="path44"
       transform="translate(5.2916669)">
      <path
         style="color:#000000;fill:#ff0000;-inkscape-stroke:none"
         d="m 96.566406,99.730469 c -6.818141,0.426491 -14.341284,2.458181 -21.86914,6.384761 l 0.490234,0.9375 c 9.872177,-5.14939 19.709441,-6.96434 27.83398,-6.17187 8.12455,0.79247 14.50553,4.18369 17.59375,9.38477 l 0.91016,-0.53907 c -3.31094,-5.57616 -10.04068,-9.08283 -18.40234,-9.898435 -2.09042,-0.2039 -4.28393,-0.239822 -6.556644,-0.09766 z"
         id="path4" />
      <g
         id="g2">
        <path
           style="color:#000000;fill:#ff0000;-inkscape-stroke:none"
           d="m 121.80078,105.74219 -0.97851,3.83789 -3.83789,-0.97852 -0.26172,1.02539 4.86328,1.24024 1.24023,-4.86328 z"
           id="path3" />
      </g>
    </g>
    <g
       id="path46"
       transform="translate(5.2916669)">
      <path
         style="color:#000000;fill:#ff0000;-inkscape-stroke:none"
         d="m 119.42969,169.05859 c -9.67488,4.76154 -28.546823,8.20091 -44.261721,0.85352 l -0.449219,0.95898 c 16.12134,7.53742 35.19821,4.04819 45.17773,-0.86328 z"
         id="path12" />
      <g
         id="g11">
        <path
           style="color:#000000;fill:#ff0000;-inkscape-stroke:none"
           d="m 115.82031,167.46875 -0.34179,1.00195 3.75195,1.27735 -1.27734,3.74804 1.00195,0.3418 1.61719,-4.75195 z"
           id="path11" />
      </g>
    </g>
    <g
       id="path47"
       transform="translate(5.2916669)">
      <path
         style="color:#000000;fill:#ff0000;-inkscape-stroke:none"
         d="m 99.849609,120.21094 c -1.975338,-0.21072 -3.971373,0.14391 -5.757812,0.69726 -3.572878,1.1067 -6.347656,3.03321 -6.347656,3.03321 l 0.603515,0.87109 c 0,0 2.669612,-1.84284 6.058594,-2.89258 1.694491,-0.52487 3.557819,-0.84551 5.332031,-0.65625 1.774209,0.18926 3.453739,0.87008 4.882809,2.38672 l 0.77149,-0.72656 c -1.60787,-1.70639 -3.56763,-2.50218 -5.542971,-2.71289 z"
         id="path6" />
      <g
         id="g5">
        <path
           style="color:#000000;fill:#ff0000;-inkscape-stroke:none"
           d="m 104.79297,118.97461 -0.11719,3.96094 -3.95898,-0.11914 -0.0332,1.05859 5.01758,0.14844 0.15039,-5.01563 z"
           id="path5" />
      </g>
    </g>
    <g
       id="path48"
       transform="translate(5.2916669)">
      <path
         style="color:#000000;fill:#ff0000;-inkscape-stroke:none"
         d="m 87.863281,152.29102 -0.955078,0.45507 c 1.051618,2.20032 3.907386,3.47487 7.320313,4.06641 3.412926,0.59154 7.446114,0.46966 11.025394,-0.41797 l -0.25586,-1.02734 c -3.41955,0.84801 -7.338854,0.96547 -10.587894,0.40234 -3.24904,-0.56313 -5.763104,-1.83862 -6.546875,-3.47851 z"
         id="path10" />
      <g
         id="g9">
        <path
           style="color:#000000;fill:#ff0000;-inkscape-stroke:none"
           d="m 101.81055,153.04492 -0.54688,0.9082 3.39258,2.04297 -2.04492,3.39258 0.9082,0.54688 2.58985,-4.29883 z"
           id="path9" />
      </g>
    </g>
    <g
       id="path49"
       transform="translate(5.2916669)">
      <path
         style="color:#000000;fill:#ff0000;-inkscape-stroke:none"
         d="m 94.351562,138.58398 -0.05469,1.05664 c 0,0 3.111941,0.15944 8.031258,0.0859 l -0.0156,-1.05859 c -4.889792,0.0731 -7.96094,-0.084 -7.960941,-0.084 z"
         id="path8" />
      <g
         id="g7">
        <path
           style="color:#000000;fill:#ff0000;-inkscape-stroke:none"
           d="m 99.732422,135.6875 -0.738281,0.75977 2.843749,2.75781 -2.759765,2.84179 0.759766,0.73829 3.496089,-3.60157 z"
           id="path7" />
      </g>
    </g>
  </g>
</svg>
