<?xml version="1.0" encoding="UTF-8" standalone="no"?>
<!-- Created with Inkscape (http://www.inkscape.org/) -->

<svg
   xmlns:dc="http://purl.org/dc/elements/1.1/"
   xmlns:cc="http://creativecommons.org/ns#"
   xmlns:rdf="http://www.w3.org/1999/02/22-rdf-syntax-ns#"
   xmlns:svg="http://www.w3.org/2000/svg"
   xmlns="http://www.w3.org/2000/svg"
   xmlns:sodipodi="http://sodipodi.sourceforge.net/DTD/sodipodi-0.dtd"
   xmlns:inkscape="http://www.inkscape.org/namespaces/inkscape"
   width="800mm"
   height="500mm"
   viewBox="0 0 800 500"
   version="1.1"
   id="svg8"
   inkscape:version="0.92.5 (2060ec1f9f, 2020-04-08)"
   sodipodi:docname="stamp.svg">
  <defs
     id="defs2" />
  <sodipodi:namedview
     id="base"
     pagecolor="#ffffff"
     bordercolor="#666666"
     borderopacity="1.0"
     inkscape:pageopacity="0.0"
     inkscape:pageshadow="2"
     inkscape:zoom="0.49497475"
     inkscape:cx="212.92607"
     inkscape:cy="715.65355"
     inkscape:document-units="mm"
     inkscape:current-layer="layer1"
     showgrid="false"
     inkscape:window-width="3840"
     inkscape:window-height="2032"
     inkscape:window-x="0"
     inkscape:window-y="54"
     inkscape:window-maximized="1" />
  <metadata
     id="metadata5">
    <rdf:RDF>
      <cc:Work
         rdf:about="">
        <dc:format>image/svg+xml</dc:format>
        <dc:type
           rdf:resource="http://purl.org/dc/dcmitype/StillImage" />
        <dc:title></dc:title>
      </cc:Work>
    </rdf:RDF>
  </metadata>
  <g
     inkscape:label="Layer 1"
     inkscape:groupmode="layer"
     id="layer1"
     transform="translate(0,203)">
    <rect
       style="opacity:1;fill:#212529;fill-opacity:1;stroke:none;stroke-width:3;stroke-linecap:round;stroke-linejoin:round;stroke-miterlimit:4;stroke-dasharray:none;stroke-dashoffset:0;stroke-opacity:0.94120029"
       id="rect815"
       width="800"
       height="500"
       x="7.7234785e-15"
       y="-202.99998" />
    <path
       inkscape:connector-curvature="0"
       d="m 454.76306,-65.126795 c -4.74583,3.375044 -4.5016,2.941942 -8.33516,4.195274 -8.79362,2.875156 -17.22562,1.297042 -27.23338,0.460616 -3.00871,-0.336102 -5.99445,-0.532017 -8.90879,-0.550302 -14.7099,-0.100993 -27.20341,4.213646 -29.56947,16.260312 -4.3634,2.64476 -8.37659,5.8447 -12.35071,9.051604 -8.48494,6.694887 -14.87341,14.878026 -19.23221,24.742992 -5.95077,14.5647294 -0.57556,30.199233 2.0895,44.962069 0.63389,3.45575 1.29476,6.747908 1.64959,8.019623 0.50415,1.792299 1.39144,3.499468 2.35682,5.036132 0.22552,0.04365 1.41677,-1.79468 1.70019,-2.605677 0.41272,-1.181833 0.36832,-3.077848 -0.0871,-4.708991 -0.99751,-3.672232 -1.94897,-6.653364 -2.02966,-8.150841 -0.14274,-2.810628 0.40314,-5.409339 1.4307,-6.694877 0.36395,-0.456265 1.20028,1.896004 0.98373,2.769171 -0.25337,1.050549 -0.44668,2.852096 -0.36395,3.681469 0.22552,2.812987 0.63825,5.821798 1.15198,8.452717 0.65653,3.393493 0.93994,5.572943 0.82022,6.416072 -0.088,0.614742 -0.37529,1.234876 -1.47903,3.135509 -0.95841,1.665722 -1.45838,3.01343 -1.5344,4.204511 -0.0871,1.161111 0.26733,4.063869 0.59472,4.77578 0.47455,1.1081 1.90525,2.27384 3.15387,2.561794 1.19334,0.456243 1.79466,1.400729 2.40748,2.462775 1.49287,2.845196 2.64477,6.310889 3.78751,11.53363 0.55728,2.499614 1.02285,4.731985 1.17262,5.904603 -9.21531,0.0088 -21.01773,0.01742 -31.76962,0.01742 -3.61927,0.06096 -10.15516,-1.642805 -16.15041,-2.036735 -0.86813,-9.376381 -4.98773,-20.274115 -12.03274,-20.907664 -4.81036,-0.435365 -8.7983,1.393773 -12.17336,8.991777 l 0.0967,0.40751 c 1.99276,-1.665722 4.09383,-6.759405 11.66877,-6.409193 5.81719,0.264696 7.75466,11.275549 8.33064,17.898941 -3.54098,0.260342 -6.55669,1.350056 -8.1302,4.070846 h -0.0349 c 0,0.0055 0,0.01742 0.0174,0.02613 -0.0174,0.0088 -0.0174,0.01742 -0.0174,0.02623 h 0.0349 c 1.62191,2.787657 4.74818,3.868144 8.41815,4.084691 2.45355,69.353987 67.64753,78.299607 85.46288,78.299607 66.46498,0 89.73346,-45.1639 93.23302,-63.053 1.63568,7.62333 -3.51793,17.33157 -4.75281,24.49874 14.02108,-16.20964 11.4868,-31.7926 8.92265,-47.467789 2.13103,2.53427 5.01543,4.103165 8.92727,3.234595 -2.78756,-1.863783 -6.57047,-0.557257 -8.83505,-8.41352 -0.98836,-3.393514 -1.84308,-5.937627 -2.69318,-8.075532 -1.83385,-6.876855 -4.4349,-13.447403 -7.63258,-19.84964 -2.69543,-6.945992 -0.91461,-11.447684 -1.1841,-17.407667 4.8518,16.000038 7.88597,20.257493 13.54867,21.932342 -14.24448,-17.163441 -9.3696,-43.7387785 -17.41681,-67.458833 3.64236,2.140262 7.79845,2.785297 12.22403,0.168056 -4.28043,-1.217889 -8.55408,2.002773 -14.69604,-7.025842 -5.18817,-10.09301 -12.70545,-17.548127 -21.82394,-24.123198 -4.88647,-3.186184 -10.30957,-5.326443 -15.76269,-7.314585 5.55449,-1.391517 11.75402,-6.335532 12.04197,-10.026217 z m -9.3143,53.310213 c 7.31465,2.6678359 15.37799,12.80456238 15.28579,22.750139 v 0.412735 0.142737 c -0.19593,13.508185 -6.33545,20.769843 -6.07745,29.76389 0.33175,10.592893 4.89099,14.288284 5.79873,16.055241 -1.55504,-6.531272 -2.46741,-14.748979 -0.41274,-21.257247 2.64014,-8.369748 5.30338,-15.301906 5.11215,-21.859469 -0.0967,-1.534327 -0.74883,-7.2800333 -1.18645,-9.8234303 7.84215,11.3163003 -1.69792,27.7756563 1.04593,38.5459203 4.77116,18.762264 26.15287,21.132919 19.78972,58.934536 -5.60053,33.23245 -43.97972,58.4546 -83.31729,58.4546 -29.16169,0 -79.69654,-16.14051 -82.19379,-73.3948 5.92836,-0.424033 12.303,-2.073485 15.87849,-2.015824 10.80953,0 23.15337,0.0055 32.45383,0.0088 1.7486,7.881339 3.0595,9.781984 9.68751,15.032392 7.37223,5.798642 9.08852,6.503692 19.9948,6.609662 10.90851,0.11063 14.14312,-2.22778 24.72678,-12.240155 2.2854,-2.677062 3.27378,-6.185756 4.38187,-9.482533 10.88555,-0.100971 18.82444,-0.295174 26.63437,-0.659132 7.95276,-0.359616 9.0747,0 21.89083,-1.320118 -12.81613,-1.320128 -13.93807,-0.958429 -21.89083,-1.324658 -7.60261,-0.345671 -15.30187,-0.541594 -25.71287,-0.638255 0.87317,-3.921143 2.12189,-7.750022 3.45115,-11.537533 0.82023,-2.233088 1.78543,-4.407919 2.77379,-6.571154 l 1.08049,-0.336974 c 2.08262,-0.739259 3.92571,-2.322231 4.66061,-4.464764 0.94455,-2.835971 0.27427,-6.022153 -1.55504,-8.339787 -0.62867,-0.869 -1.41226,-1.978986 -1.73251,-2.467405 -0.96528,-1.527427 -0.98837,-2.375263 -0.1724,-8.049562 0.68613,-4.750448 0.76275,-7.238565 0.28822,-9.646048 -0.0967,-1.377668 -0.10626,-4.211389 -0.14971,-4.973896 0.36657,0.20289 1.15651,2.00662 1.95827,4.448671 0.79671,2.453549 0.92611,2.962669 1.10809,5.0499 0.20289,2.370644 -0.6844,4.128486 -1.4145,7.664792 -0.36398,1.824608 -0.68615,3.517921 -0.68615,3.748324 0,0.24642 0.1724,0.764502 0.3544,1.167999 0.4284,0.900857 1.23017,2.167953 1.37767,2.167953 2.61482,-2.884394 4.15148,-6.44612 5.51992,-10.05843 1.43984,-4.08931 1.86145,-8.429647 2.87053,-12.638766 0.81589,-3.667701 1.75549,-7.337662 2.04807,-11.102972 0.59209,-7.3422694 0.24642,-12.5258234 -1.37769,-20.1767711 -0.38746,-1.727891 -1.51123,-5.0246569 -2.29229,-6.5796969 z M 419.7221,24.358771 c 2.80837,-0.03494 5.58679,0.306484 8.23155,1.068991 3.59396,1.377668 4.09845,4.589204 4.76195,8.194636 0.36832,2.303778 0.35525,3.957915 -0.0609,6.664938 -0.29256,3.927954 -1.85223,6.964455 -5.25958,9.100022 -5.13983,0.95153 -10.63668,1.868414 -14.99321,-1.534327 -3.65847,-5.040762 -5.8609,-11.408409 -5.02003,-17.619518 0.53201,-2.548016 1.71637,-3.872763 4.15609,-4.665219 2.62404,-0.753181 5.40472,-1.165717 8.18776,-1.209523 z m -42.63435,0.456254 c 2.62406,-0.02623 5.27805,0.253386 6.73869,1.184203 6.26178,4.238981 4.25282,11.136571 1.7762,17.188673 -3.60543,7.922885 -11.39928,7.630246 -18.95574,7.568065 -4.17909,-1.223379 -4.56386,-4.651462 -5.16746,-8.312174 -0.51807,-3.538666 -1.6219,-7.328436 -0.70007,-10.885554 2.36597,-5.720365 11.0145,-6.379233 16.30865,-6.743213 z m 95.52531,0.988368 c 0.035,15.22814 2.63554,22.710953 7.85828,33.495073 -3.07787,-5.867775 -7.47359,-9.208258 -9.1116,-16.225745 -3.12855,-13.548683 0.24642,-12.790718 1.25332,-17.269328 z M 396.71859,36.83174 c 0.82459,0.835908 1.22329,1.988156 1.93746,2.905117 0.55291,-0.946922 1.11967,-1.886877 1.82924,-2.725387 0.36832,0.0088 0.82023,0.737495 1.2279,2.043426 1.74861,4.828822 2.08959,10.141411 4.35428,14.783548 2.11719,3.358935 -0.77408,5.317208 -3.94652,5.471585 -2.31302,-0.0055 -3.29206,-1.585066 -4.649,-3.149343 -0.35004,1.022936 -1.01833,1.679478 -1.81548,2.370644 -2.02497,1.700202 -5.99448,1.071272 -6.60963,-1.60805 0.8176,-5.116787 3.42354,-9.814292 5.1306,-14.719041 0.84985,-1.79005 0.85943,-3.163199 2.54115,-5.372499 z m -29.71923,25.846473 c 1.02059,0 3.82897,1.90523 4.40034,2.98111 0.39356,0.713994 1.29008,3.499468 1.35233,4.175168 0.10108,0.806301 -0.14274,2.718509 -0.39183,3.236844 -0.1846,0.368324 -0.32217,0.421444 -0.53462,0.182001 -0.17763,-0.202889 -2.52957,-4.714248 -4.03168,-7.699977 -1.17948,-2.389108 -1.3039,-2.875146 -0.79497,-2.875146 z m 58.65965,1.49287 c 0.0434,0.0055 0.0967,0.01742 0.14972,0.03494 0.31521,0.128771 0.0949,1.250958 -1.09426,5.331659 -0.22551,1.230247 -0.77407,2.197892 -1.57584,3.004193 -0.26296,0 -0.38226,-0.306496 -0.79672,-2.011217 -0.35003,-1.454378 -0.38661,-2.749164 -0.14274,-3.910285 0.42145,-1.455943 2.13104,-1.900622 3.4603,-2.448918 z m -7.11875,8.893385 c 0.10108,-0.01742 0.19766,0.03494 0.32217,0.135925 0.43276,0.302141 0.49545,1.098951 0.20724,2.658598 -0.35003,2.006598 -0.4284,2.227764 -0.94684,2.432837 -0.22551,0.10097 -0.62867,0.1724 -0.89624,0.1724 -0.48587,-0.08708 -0.61038,-0.478896 -0.49545,-1.07361 0,-1.248633 0.36397,-2.333739 1.19107,-3.614669 0.31085,-0.481519 0.4702,-0.687021 0.61734,-0.712275 z m -41.43404,0.09226 c 0.33175,0 1.32926,0.720949 1.70019,1.218661 0.41272,0.527672 0.88239,3.67232 0.61733,4.213748 -0.30213,0.681785 -1.78081,0.341328 -2.18857,-0.506772 -0.24903,-0.509385 -0.83851,-3.25533 -0.83851,-3.907331 0,-0.606034 0.29257,-1.018218 0.70965,-1.018218 z m 37.87466,0.829802 c 0.40316,0.575556 0.50677,1.315498 0.42144,2.937315 l -0.0784,1.479125 -0.42406,0.421432 c -0.25338,0.2377 -0.68612,0.525059 -0.94457,0.64521 -0.57119,0.267309 -1.00908,0.292562 -1.08971,0.07837 -0.0967,-0.288208 0.0697,-2.121888 0.24467,-2.741591 0.20724,-0.638244 1.13351,-2.543408 1.43993,-2.946564 0.14011,-0.368312 0.30215,0.09237 0.43277,0.128958 z m -24.10019,-0.08708 c 0.86897,0.221155 1.25331,1.002125 1.72787,1.714025 l 0.32217,0.633901 -0.4519,1.568884 c -0.23947,0.863764 -0.49547,1.640281 -0.57122,1.72787 -0.0871,0.09667 -0.40749,0.142737 -0.8823,0.138383 -1.26719,-0.03494 -1.41224,-0.08708 -1.75322,-0.603411 l -0.31521,-0.470209 0.26731,-1.320095 c 0.38922,-1.900645 0.57643,-2.472012 1.00901,-2.962669 0.22552,-0.262965 0.4519,-0.407521 0.64696,-0.425786 z m -8.01954,1.359205 0.71399,0.713994 0.12023,1.617309 c 0.0609,0.882393 0.0923,1.704809 0.0437,1.803884 -0.0437,0.140114 -0.30213,0.177636 -1.10354,0.177636 h -1.04106 c -0.55726,-0.608636 -0.73054,-1.352337 -0.9653,-2.119529 -0.54595,-2.308408 -0.54595,-3.361206 0.0174,-3.499467 0.92611,0.06085 1.53432,0.730539 2.21166,1.306261 z m 27.83695,-1.110449 c 1.13343,0.303883 0.90764,2.103424 0.90312,3.388984 -0.0871,2.082624 -0.16803,2.515719 -0.43798,2.782939 -0.46497,0.467596 -1.76017,0.207244 -2.3891,-0.48412 -0.20725,-0.249033 -0.22553,-0.327406 -0.061,-1.338493 0.18633,-1.234865 0.42579,-2.00199 0.95842,-3.057136 0.3892,-0.758406 0.75578,-1.234865 1.02745,-1.292427 z m -25.56312,0.09667 c 0.061,-0.0055 0.16368,0 0.26035,0.0088 0.71834,0.06085 1.3915,0.527672 1.98587,1.391513 l 0.48151,0.707039 c 0.0434,1.156491 0,2.375273 -0.20723,3.448795 -0.12458,0.06096 -0.64261,0.159315 -1.15188,0.207232 -0.88241,0.07837 -0.96531,0.06085 -1.27172,-0.207232 -0.42578,-0.363959 -0.54595,-1.041312 -0.65217,-3.28754 -0.061,-1.831497 -0.0174,-2.241608 0.55552,-2.269221 z m 10.89241,0.384869 c 0.77148,0.161057 1.26022,0.575545 1.47677,1.250981 0.1724,0.58077 0.27862,3.831305 0.11062,4.05699 -0.0608,0.09403 -0.42142,0.216812 -0.83851,0.26733 -1.55503,0.198525 -2.92818,0.05214 -3.0641,-0.320439 -0.1724,-0.421421 0.98376,-4.607557 1.41225,-5.125915 0.18198,-0.403156 0.62431,-0.09226 0.90311,-0.128947 z m 10.06767,0.02612 c 0.34133,-0.03494 0.70703,0.292573 1.06203,0.988368 0.28822,0.58077 0.33175,0.78366 0.33175,2.082613 0,1.036792 -0.0609,1.48372 -0.1724,1.580469 -0.0967,0.07837 -0.48587,0.216823 -0.89843,0.32044 -0.72096,0.188945 -0.87777,0.207232 -1.10356,0.131394 l -1.0805,-0.198547 0.0784,-0.642587 c 0.0784,-0.838521 0.62866,-2.702415 1.0183,-3.508694 0.23074,-0.478906 0.49544,-0.719241 0.76277,-0.753192 z m -4.69289,0.01742 c 0.22551,-0.0088 0.33175,0.04365 0.47453,0.20289 0.34134,0.403145 0.77409,1.594304 1.04603,2.866019 0.36658,1.79005 0.36658,1.785421 -0.41709,2.020431 -0.34134,0.106262 -1.05976,0.214211 -1.57358,0.243808 -1.69557,0.08708 -1.82462,-0.01742 -1.61721,-1.511334 0.16106,-1.333962 0.82022,-3.437298 1.10347,-3.591675 0.3065,-0.161058 0.6609,-0.156693 0.98376,-0.230745 z m -86.35903,6.763925 c 0.0174,-0.0055 0.035,0 0.035,0 0.0436,0.935347 0.0436,1.879921 0.0609,2.822224 -2.37527,-0.181979 -4.12153,-0.748827 -4.12153,-1.416844 0,-0.656531 1.68409,-1.218771 4.02706,-1.40538 z m 4.15147,0.07837 c 1.92371,0.239443 3.25297,0.744462 3.22989,1.324725 0,0.585135 -1.28781,1.085118 -3.19767,1.320029 -0.0174,-0.877697 -0.0174,-1.760101 -0.0349,-2.644754 z m 89.87697,2.559502 c 0.16367,-0.01742 0.2351,-0.02612 0.48412,-0.0055 0.99987,0.09932 1.14275,0.161057 1.14275,0.497182 0,0.442332 -0.75841,1.771675 -1.27171,2.232471 -0.23945,0.230744 -0.5712,0.421432 -0.68614,0.421432 -0.57555,0 -0.91235,-1.214142 -0.64259,-2.331469 0.16368,-0.606023 0.4606,-0.792357 0.97442,-0.815869 z m -3.62389,0.398802 c 0.44666,-0.04343 0.87777,0.07837 1.31087,0.138383 -0.12442,1.262467 -0.69136,2.294629 -1.74163,2.981121 -0.26035,0 -0.38924,-0.495452 -0.38924,-1.575763 0,-1.28556 0.0697,-1.529709 0.82024,-1.543543 z m -3.97403,0.464984 c 0.92611,0 1.74163,0.04365 1.78082,0.09491 0.1724,0.163681 -0.32741,1.403088 -1.05978,2.658599 -0.62866,1.119674 -0.72096,1.200308 -1.11044,1.230257 -1.52508,-0.1724 -1.48129,-1.962803 -1.7163,-3.19306 0,-0.727939 0.16107,-0.789756 2.1057,-0.789756 z m -14.44268,0.138372 c 1.06214,0.01742 1.47452,0.177614 1.47452,0.585124 0,0.518082 -0.39358,1.550509 -0.61996,1.679457 -0.34134,0.188967 -0.36832,0.177636 -1.04132,-0.523307 -1.05976,-1.188723 -1.17957,-1.409878 0.18633,-1.741627 z m 5.10765,0.05214 c 0.0174,0.02612 0.22551,0.403156 0.43274,0.824577 0.44931,0.880045 0.48414,1.262478 0.16106,1.555128 -0.75841,0.432764 -0.91697,0.188957 -1.60119,-0.249021 -0.79672,-0.753192 -1.42609,-1.767079 -1.22102,-1.976747 0.71224,-0.255999 1.49286,-0.159316 2.22776,-0.15408 z m 2.02498,0.02612 1.8961,0.03494 c 0.73925,0 1.37767,0.03494 1.41224,0.09667 0.12877,0.114993 -0.28821,2.580325 -0.51373,3.137847 -0.26037,0.624322 -1.1681,0.628665 -1.63803,-0.110627 -0.67047,-1.059775 -1.11279,-1.953654 -1.12656,-2.566479 z"
       id="path3671"
       style="fill:#f8f9fa;fill-opacity:1;stroke:none;stroke-width:0.26458332" />
  </g>
</svg>
