<?xml version="1.0" encoding="UTF-8" standalone="no"?>
<svg
   xmlns:dc="http://purl.org/dc/elements/1.1/"
   xmlns:cc="http://creativecommons.org/ns#"
   xmlns:rdf="http://www.w3.org/1999/02/22-rdf-syntax-ns#"
   xmlns:svg="http://www.w3.org/2000/svg"
   xmlns="http://www.w3.org/2000/svg"
   xmlns:sodipodi="http://sodipodi.sourceforge.net/DTD/sodipodi-0.dtd"
   xmlns:inkscape="http://www.inkscape.org/namespaces/inkscape"
   viewbox="0 0 500 718"
   id="svg2898"
   version="1.1"
   inkscape:version="0.47 r22583"
   width="982.052"
   height="739.461"
   sodipodi:docname="shoulderstrapwidth.svg">
  <metadata
     id="metadata2924">
    <rdf:RDF>
      <cc:Work
         rdf:about="">
        <dc:format>image/svg+xml</dc:format>
        <dc:type
           rdf:resource="http://purl.org/dc/dcmitype/StillImage" />
        <dc:title></dc:title>
      </cc:Work>
    </rdf:RDF>
  </metadata>
  <defs
     id="defs2922" />
  <sodipodi:namedview
     pagecolor="#ffffff"
     bordercolor="#666666"
     borderopacity="1"
     objecttolerance="10"
     gridtolerance="10"
     guidetolerance="10"
     inkscape:pageopacity="0"
     inkscape:pageshadow="2"
     inkscape:window-width="1832"
     inkscape:window-height="1057"
     id="namedview2920"
     showgrid="false"
     inkscape:zoom="0.478923"
     inkscape:cx="-390.744"
     inkscape:cy="224.386"
     inkscape:window-x="-8"
     inkscape:window-y="-8"
     inkscape:window-maximized="0"
     inkscape:current-layer="svg2898" />
  <style
     type="text/css"
     id="style2900">
  path{fill:#663f95;fill-opacity:1;stroke:#292b2c;stroke-width:4;stroke-linecap:round;stroke-linejoin:round;stroke-opacity:1;&quot;}
  path.sm{stroke-width:2;}
  path.back{fill:#86739c;}
  </style>
  <g
     id="g5546">
    <g
       style="fill:#212121"
       transform="translate(-15.8115,-0.280585)"
       id="g2946">
      <path
         sodipodi:nodetypes="ccccccccccccssc"
         style="fill:#212121;stroke:#babdb6"
         d="M 143.41,0.780585 103.193,8.29538 C 124.162,120.783 113.832,233.252 18.7644,233.252 18.7644,233.252 32.4473,414.992 32.4473,505.86 L 32.4473,715.552 251.08,715.552 251.089,715.552 469.722,715.552 469.722,505.86 C 469.722,414.992 490.778,233.252 490.778,233.252 395.71,233.252 378.007,120.783 398.976,8.29538 L 358.75,0.780585 C 332.289,142.723 337.785,142.732 251.089,142.732 251.086,142.732 251.083,142.732 251.08,142.732 164.384,142.732 169.871,142.723 143.41,0.780585 z"
         id="path2948" />
      <path
         sodipodi:nodetypes="ccccccccccccssc"
         style="fill:#8e8e8e"
         d="M 142.887,2.00905 102.66,9.51482 C 128.693,148.997 106.691,234.481 18.241,234.481 18.241,234.481 31.9148,416.212 31.9148,507.079 L 31.9148,716.772 250.548,716.772 250.566,716.772 469.198,716.772 469.198,507.079 C 469.198,416.212 485.825,234.481 485.825,234.481 397.375,234.481 372.42,148.997 398.453,9.51482 L 358.227,2.00905 C 353.211,28.8778 312.147,28.8747 250.566,28.8747 250.559,28.8747 250.554,28.8747 250.548,28.8747 188.966,28.8747 147.902,28.8778 142.887,2.00905 z"
         class="back"
         id="path2950" />
      <path
         d="M 143.41,0.780585 127.839,3.68596 C 134.754,44.6368 153.004,44.9888 255.155,44.9888 357.307,44.9888 366.353,43.5871 373.816,3.59168 L 358.75,0.780585 C 353.734,27.6493 312.67,27.6462 251.089,27.6462 251.083,27.6462 251.077,27.6462 251.071,27.6462 189.49,27.6462 148.426,27.6493 143.41,0.780585 z"
         style="fill:#545454;fill-opacity:1;stroke:none"
         class="sm"
         id="path2952" />
      <path
         sodipodi:nodetypes="ccccccccccssc"
         style="fill:#212121"
         d="M 143.41,0.780585 103.193,8.29538 C 124.162,120.783 112.356,233.252 17.288,233.252 17.288,233.252 32.4473,414.992 32.4473,505.86 L 32.4473,715.552 C 178.206,745.575 323.964,740.554 469.722,715.552 L 469.722,505.86 C 469.722,414.992 489.302,233.252 489.302,233.252 394.234,233.252 378.007,120.783 398.976,8.29538 L 358.75,0.780585 C 332.289,142.723 337.785,142.732 251.089,142.732 251.086,142.732 251.083,142.732 251.08,142.732 164.384,142.732 169.871,142.723 143.41,0.780585 z"
         class="sm"
         id="path2954" />
      <path
         sodipodi:nodetypes="ccccc"
         style="fill:#545454"
         d="M 490.778,233.252 C 395.71,233.252 378.007,120.783 398.976,8.29538 L 383.011,5.31292 C 359.49,130.911 383.712,249.215 488.52,249.215 489.469,243.49 490.064,238.276 490.778,233.252 z"
         class="sm"
         id="path2956" />
      <path
         sodipodi:nodetypes="ccccc"
         style="fill:#545454"
         d="M 15.8115,233.252 C 110.879,233.252 124.153,120.783 103.184,8.29538 L 119.149,5.31292 C 142.67,130.911 122.877,249.215 18.0691,249.215 17.1201,243.49 16.5247,238.276 15.8115,233.252 z"
         class="sm"
         id="path2958" />
      <path
         style="fill:#212121"
         d="M 33.1542,698.741 467.998,698.741"
         class="sm"
         id="path2960" />
      <path
         style="fill:#545454"
         d="M 143.41,0.780585 128.025,3.65542 C 154.425,168.255 158.429,159.109 251.699,159.109 344.969,159.109 354.171,158.981 372.969,3.43697 L 358.75,0.780585 C 332.289,142.723 337.785,142.732 251.089,142.732 251.086,142.732 251.083,142.732 251.08,142.732 164.384,142.732 169.871,142.723 143.41,0.780585 z"
         class="sm"
         id="path2962" />
    </g>
    <path
       sodipodi:nodetypes="cc"
       id="path3772"
       d="M 18.5875,692.942 C 164.403,717.189 305.525,716.018 451.335,692.942"
       style="fill:none;stroke:#545454;stroke-width:4;stroke-linecap:round;stroke-linejoin:round;stroke-miterlimit:4;stroke-opacity:1;stroke-dasharray:none;stroke-dashoffset:0" />
  </g>
  <g
     style="fill:#212121"
     transform="translate(489.489,-0.280585)"
     id="g5443" />
  <g
     id="g5558"
     transform="translate(505,0)">
    <g
       id="g5560"
       transform="translate(-15.8115,-0.280585)"
       style="fill:#212121">
      <path
         id="path5562"
         d="M 128.276,35.8463 82.5227,21.9526 C 103.492,134.44 113.832,233.252 18.7644,233.252 18.7644,233.252 32.4473,414.992 32.4473,505.86 L 32.4473,715.552 251.08,715.552 251.089,715.552 469.722,715.552 469.722,505.86 C 469.722,414.992 490.778,233.252 490.778,233.252 395.71,233.252 378.79,144.273 399.759,31.7856 L 360.838,30.5348 C 334.377,172.477 337.785,142.732 251.089,142.732 251.086,142.732 251.083,142.732 251.08,142.732 164.384,142.732 154.737,177.789 128.276,35.8463 z"
         style="fill:#212121;stroke:none"
         sodipodi:nodetypes="ccccccccccccssc" />
      <path
         id="path5564"
         class="back"
         d="M 96.7479,17.5118 79.4059,15.7897 C 105.439,155.272 106.691,234.481 18.241,234.481 18.241,234.481 31.9148,416.212 31.9148,507.079 L 31.9148,716.772 250.548,716.772 250.566,716.772 469.198,716.772 469.198,507.079 C 469.198,416.212 485.825,234.481 485.825,234.481 397.375,234.481 387.185,150.473 413.218,10.9913 L 401.413,9.39131 C 396.397,36.2601 312.147,28.8747 250.566,28.8747 250.559,28.8747 250.554,28.8747 250.548,28.8747 188.966,28.8747 101.763,44.3805 96.7479,17.5118 z"
         style="fill:#8e8e8e"
         sodipodi:nodetypes="ccccccccccccssc" />
      <path
         id="path5566"
         class="sm"
         style="fill:#545454;fill-opacity:1;stroke:none"
         d="M 103.177,9.27018 87.6057,12.1756 C 94.5207,53.1264 153.004,44.9888 255.155,44.9888 357.307,44.9888 406.955,51.3385 414.418,11.3431 L 399.352,8.53196 C 394.336,35.4007 312.67,27.6462 251.089,27.6462 251.083,27.6462 251.077,27.6462 251.071,27.6462 189.49,27.6462 108.193,36.1389 103.177,9.27018 z"
         sodipodi:nodetypes="ccsccssc" />
      <path
         id="path5568"
         class="sm"
         d="M 101.331,9.27018 66.6508,16.4159 C 87.6198,128.903 112.356,233.252 17.288,233.252 17.288,233.252 32.4473,414.992 32.4473,505.86 L 32.4473,715.552 C 178.206,745.575 323.964,740.554 469.722,715.552 L 469.722,505.86 C 469.722,414.992 489.302,233.252 489.302,233.252 394.234,233.252 420.824,129.273 441.793,16.785 L 402.305,9.27018 C 375.844,151.213 337.785,142.732 251.089,142.732 251.086,142.732 251.083,142.732 251.08,142.732 164.384,142.732 127.792,151.213 101.331,9.27018 z"
         style="fill:#212121"
         sodipodi:nodetypes="ccccccccccssc" />
      <path
         id="path5570"
         class="sm"
         d="M 490.778,233.252 C 395.71,233.252 427.666,130.058 448.635,17.5703 L 432.67,14.5878 C 409.149,140.186 383.712,249.215 488.52,249.215 489.469,243.49 490.064,238.276 490.778,233.252 z"
         style="fill:#545454"
         sodipodi:nodetypes="ccccc" />
      <path
         id="path5572"
         class="sm"
         d="M 15.8115,233.252 C 110.879,233.252 74.6919,130.38 53.7229,17.8923 L 69.6879,14.9099 C 93.2089,140.508 122.877,249.215 18.0691,249.215 17.1201,243.49 16.5247,238.276 15.8115,233.252 z"
         style="fill:#545454"
         sodipodi:nodetypes="ccccc" />
      <path
         id="path5574"
         class="sm"
         d="M 33.1542,698.741 467.998,698.741"
         style="fill:#212121" />
      <path
         id="path5576"
         class="sm"
         d="M 102.808,9.27018 87.4226,12.145 C 113.823,176.745 158.429,159.109 251.699,159.109 344.969,159.109 394.035,165.994 412.833,10.4501 L 398.614,7.79373 C 372.153,149.736 337.785,142.732 251.089,142.732 251.086,142.732 251.083,142.732 251.08,142.732 164.384,142.732 129.269,151.213 102.808,9.27018 z"
         style="fill:#545454"
         sodipodi:nodetypes="ccsccssc" />
    </g>
    <path
       style="fill:none;stroke:#545454;stroke-width:4;stroke-linecap:round;stroke-linejoin:round;stroke-miterlimit:4;stroke-opacity:1;stroke-dasharray:none;stroke-dashoffset:0"
       d="M 18.5875,692.942 C 164.403,717.189 305.525,716.018 451.335,692.942"
       id="path5578"
       sodipodi:nodetypes="cc" />
  </g>
</svg>
