<?xml version="1.0" encoding="UTF-8" standalone="no"?>
<!-- Created with Inkscape (http://www.inkscape.org/) -->

<svg
   xmlns:dc="http://purl.org/dc/elements/1.1/"
   xmlns:cc="http://creativecommons.org/ns#"
   xmlns:rdf="http://www.w3.org/1999/02/22-rdf-syntax-ns#"
   xmlns:svg="http://www.w3.org/2000/svg"
   xmlns="http://www.w3.org/2000/svg"
   xmlns:sodipodi="http://sodipodi.sourceforge.net/DTD/sodipodi-0.dtd"
   xmlns:inkscape="http://www.inkscape.org/namespaces/inkscape"
   width="807.857"
   height="550"
   id="svg28946"
   version="1.1"
   inkscape:version="0.47 r22583"
   sodipodi:docname="sleeveplacketwidth.svg">
  <defs
     id="defs28948" />
  <sodipodi:namedview
     id="base"
     pagecolor="#ffffff"
     bordercolor="#666666"
     borderopacity="1.0"
     inkscape:pageopacity="0.0"
     inkscape:pageshadow="2"
     inkscape:zoom="0.989949"
     inkscape:cx="183.972"
     inkscape:cy="387.006"
     inkscape:document-units="px"
     inkscape:current-layer="svg28946"
     showgrid="false"
     inkscape:window-width="1832"
     inkscape:window-height="1057"
     inkscape:window-x="-8"
     inkscape:window-y="-8"
     inkscape:window-maximized="0" />
  <metadata
     id="metadata28951">
    <rdf:RDF>
      <cc:Work
         rdf:about="">
        <dc:format>image/svg+xml</dc:format>
        <dc:type
           rdf:resource="http://purl.org/dc/dcmitype/StillImage" />
        <dc:title></dc:title>
      </cc:Work>
    </rdf:RDF>
  </metadata>
  <g
     id="g31120"
     transform="translate(-57.0994,-67.593)">
    <path
       sodipodi:nodetypes="cccc"
       id="path30941"
       d="M 315.168,424.174 C 356.139,422.28 388.946,324.179 419.213,48.523 L 68.6904,48.523 C 64.6764,226.617 54.2636,441.405 86.8731,424.174"
       style="fill:#212121;fill-opacity:1;stroke:#545454;stroke-width:5;stroke-linecap:round;stroke-linejoin:round;stroke-miterlimit:4;stroke-opacity:1;stroke-dasharray:none;stroke-dashoffset:0" />
    <path
       id="path30945"
       d="M 108.188,290.329 108.188,425.184"
       style="fill:#212121;fill-opacity:1;stroke:#545454;stroke-width:5;stroke-linecap:round;stroke-linejoin:round;stroke-miterlimit:4;stroke-opacity:1;stroke-dasharray:none;stroke-dashoffset:0" />
    <path
       sodipodi:nodetypes="ccccs"
       id="path30947"
       d="M 188.436,424.188 188.436,119.196 169.452,101.528 150.468,119.196 150.468,424.188"
       style="fill:#212121;fill-opacity:1;stroke:#545454;stroke-width:5;stroke-linecap:round;stroke-linejoin:round;stroke-miterlimit:4;stroke-opacity:1;stroke-dasharray:none;stroke-dashoffset:0" />
    <g
       transform="matrix(0.428838,0,0,0.428838,-45.4378,232.984)"
       id="g30897">
      <circle
         transform="matrix(6.98333,0,0,6.98333,502.722,134.062)"
         style="fill:#545454;fill-opacity:1;stroke:none"
         sodipodi:ry="5"
         sodipodi:rx="5"
         sodipodi:cy="0"
         sodipodi:cx="0"
         id="circle30891"
         cx="0"
         cy="0"
         r="5"
         d="M 5,0 C 5,2.76142 2.76142,5 0,5 -2.76142,5 -5,2.76142 -5,0 -5,-2.76142 -2.76142,-5 0,-5 2.76142,-5 5,-2.76142 5,0 z" />
      <circle
         transform="matrix(6.98333,0,0,6.98333,502.722,134.062)"
         style="fill:#8e8e8e;fill-opacity:1;stroke:none"
         sodipodi:ry="4"
         sodipodi:rx="4"
         sodipodi:cy="0"
         sodipodi:cx="0"
         id="circle30895"
         cx="0"
         cy="0"
         r="4"
         d="M 4,0 C 4,2.20914 2.20914,4 0,4 -2.20914,4 -4,2.20914 -4,0 -4,-2.20914 -2.20914,-4 0,-4 2.20914,-4 4,-2.20914 4,0 z" />
      <path
         inkscape:connector-curvature="0"
         id="path30893"
         style="fill:none;stroke:#ffffff;stroke-width:2.331883"
         d="M 488.569,119.899 516.875,148.215 M 488.569,148.215 516.875,119.899" />
    </g>
    <rect
       y="424.174"
       x="86.873"
       height="190.919"
       width="227.817"
       id="rect30939"
       style="fill:#212121;fill-opacity:1;stroke:#545454;stroke-width:5;stroke-linecap:round;stroke-linejoin:round;stroke-miterlimit:4;stroke-opacity:1;stroke-dasharray:none;stroke-dashoffset:0" />
    <path
       sodipodi:nodetypes="ccc"
       id="path30943"
       d="M 193.277,427.204 193.277,554.484 C 193.277,595.554 166.331,615.093 116.168,615.093"
       style="fill:#212121;fill-opacity:1;stroke:#545454;stroke-width:5.000003;stroke-linecap:round;stroke-linejoin:round;stroke-miterlimit:4;stroke-opacity:1;stroke-dasharray:none;stroke-dashoffset:0" />
    <path
       sodipodi:nodetypes="cc"
       id="path30952"
       d="M 153.493,174.148 185.414,174.148"
       style="fill:#212121;fill-opacity:1;stroke:#545454;stroke-width:5;stroke-linecap:round;stroke-linejoin:round;stroke-miterlimit:4;stroke-opacity:1;stroke-dasharray:none;stroke-dashoffset:0" />
    <g
       id="g31104"
       transform="matrix(0.428838,0,0,0.428838,-82.1849,403.172)">
      <circle
         d="M 5,0 C 5,2.76142 2.76142,5 0,5 -2.76142,5 -5,2.76142 -5,0 -5,-2.76142 -2.76142,-5 0,-5 2.76142,-5 5,-2.76142 5,0 z"
         r="5"
         cy="0"
         cx="0"
         id="circle31106"
         sodipodi:cx="0"
         sodipodi:cy="0"
         sodipodi:rx="5"
         sodipodi:ry="5"
         style="fill:#545454;fill-opacity:1;stroke:none"
         transform="matrix(6.98333,0,0,6.98333,502.722,134.062)" />
      <circle
         d="M 4,0 C 4,2.20914 2.20914,4 0,4 -2.20914,4 -4,2.20914 -4,0 -4,-2.20914 -2.20914,-4 0,-4 2.20914,-4 4,-2.20914 4,0 z"
         r="4"
         cy="0"
         cx="0"
         id="circle31108"
         sodipodi:cx="0"
         sodipodi:cy="0"
         sodipodi:rx="4"
         sodipodi:ry="4"
         style="fill:#8e8e8e;fill-opacity:1;stroke:none"
         transform="matrix(6.98333,0,0,6.98333,502.722,134.062)" />
      <path
         d="M 488.569,119.899 516.875,148.215 M 488.569,148.215 516.875,119.899"
         style="fill:none;stroke:#ffffff;stroke-width:2.331883"
         id="path31110"
         inkscape:connector-curvature="0" />
    </g>
    <g
       transform="matrix(0.428838,0,0,0.428838,-82.1849,505.639)"
       id="g31112">
      <circle
         transform="matrix(6.98333,0,0,6.98333,502.722,134.062)"
         style="fill:#545454;fill-opacity:1;stroke:none"
         sodipodi:ry="5"
         sodipodi:rx="5"
         sodipodi:cy="0"
         sodipodi:cx="0"
         id="circle31114"
         cx="0"
         cy="0"
         r="5"
         d="M 5,0 C 5,2.76142 2.76142,5 0,5 -2.76142,5 -5,2.76142 -5,0 -5,-2.76142 -2.76142,-5 0,-5 2.76142,-5 5,-2.76142 5,0 z" />
      <circle
         transform="matrix(6.98333,0,0,6.98333,502.722,134.062)"
         style="fill:#8e8e8e;fill-opacity:1;stroke:none"
         sodipodi:ry="4"
         sodipodi:rx="4"
         sodipodi:cy="0"
         sodipodi:cx="0"
         id="circle31116"
         cx="0"
         cy="0"
         r="4"
         d="M 4,0 C 4,2.20914 2.20914,4 0,4 -2.20914,4 -4,2.20914 -4,0 -4,-2.20914 -2.20914,-4 0,-4 2.20914,-4 4,-2.20914 4,0 z" />
      <path
         inkscape:connector-curvature="0"
         id="path31118"
         style="fill:none;stroke:#ffffff;stroke-width:2.331883"
         d="M 488.569,119.899 516.875,148.215 M 488.569,148.215 516.875,119.899" />
    </g>
  </g>
  <g
     transform="translate(387.186,-67.593)"
     id="g31218">
    <path
       style="fill:#212121;fill-opacity:1;stroke:#545454;stroke-width:5;stroke-linecap:round;stroke-linejoin:round;stroke-miterlimit:4;stroke-opacity:1;stroke-dasharray:none;stroke-dashoffset:0"
       d="M 315.168,424.174 C 356.139,422.28 388.946,324.179 419.213,48.523 L 68.6904,48.523 C 64.6764,226.617 54.2636,441.405 86.8731,424.174"
       id="path31220"
       sodipodi:nodetypes="cccc" />
    <path
       style="fill:#212121;fill-opacity:1;stroke:#545454;stroke-width:5;stroke-linecap:round;stroke-linejoin:round;stroke-miterlimit:4;stroke-opacity:1;stroke-dasharray:none;stroke-dashoffset:0"
       d="M 108.188,290.329 108.188,425.184"
       id="path31222" />
    <path
       style="fill:#212121;fill-opacity:1;stroke:#545454;stroke-width:5;stroke-linecap:round;stroke-linejoin:round;stroke-miterlimit:4;stroke-opacity:1;stroke-dasharray:none;stroke-dashoffset:0"
       d="M 198.436,424.188 198.436,119.196 169.452,91.4774 140.468,119.196 140.468,424.188"
       id="path31224"
       sodipodi:nodetypes="ccccc" />
    <g
       id="g31226"
       transform="matrix(0.428838,0,0,0.428838,-45.4378,232.984)">
      <circle
         d="M 5,0 C 5,2.76142 2.76142,5 0,5 -2.76142,5 -5,2.76142 -5,0 -5,-2.76142 -2.76142,-5 0,-5 2.76142,-5 5,-2.76142 5,0 z"
         r="5"
         cy="0"
         cx="0"
         id="circle31228"
         sodipodi:cx="0"
         sodipodi:cy="0"
         sodipodi:rx="5"
         sodipodi:ry="5"
         style="fill:#545454;fill-opacity:1;stroke:none"
         transform="matrix(6.98333,0,0,6.98333,502.722,134.062)" />
      <circle
         d="M 4,0 C 4,2.20914 2.20914,4 0,4 -2.20914,4 -4,2.20914 -4,0 -4,-2.20914 -2.20914,-4 0,-4 2.20914,-4 4,-2.20914 4,0 z"
         r="4"
         cy="0"
         cx="0"
         id="circle31230"
         sodipodi:cx="0"
         sodipodi:cy="0"
         sodipodi:rx="4"
         sodipodi:ry="4"
         style="fill:#8e8e8e;fill-opacity:1;stroke:none"
         transform="matrix(6.98333,0,0,6.98333,502.722,134.062)" />
      <path
         d="M 488.569,119.899 516.875,148.215 M 488.569,148.215 516.875,119.899"
         style="fill:none;stroke:#ffffff;stroke-width:2.331883"
         id="path31232"
         inkscape:connector-curvature="0" />
    </g>
    <rect
       style="fill:#212121;fill-opacity:1;stroke:#545454;stroke-width:5;stroke-linecap:round;stroke-linejoin:round;stroke-miterlimit:4;stroke-opacity:1;stroke-dasharray:none;stroke-dashoffset:0"
       id="rect31234"
       width="227.817"
       height="190.919"
       x="86.873"
       y="424.174" />
    <path
       style="fill:#212121;fill-opacity:1;stroke:#545454;stroke-width:5.000003;stroke-linecap:round;stroke-linejoin:round;stroke-miterlimit:4;stroke-opacity:1;stroke-dasharray:none;stroke-dashoffset:0"
       d="M 193.277,427.204 193.277,554.484 C 193.277,595.554 166.331,615.093 116.168,615.093"
       id="path31236"
       sodipodi:nodetypes="ccc" />
    <path
       style="fill:#212121;fill-opacity:1;stroke:#545454;stroke-width:5;stroke-linecap:round;stroke-linejoin:round;stroke-miterlimit:4;stroke-opacity:1;stroke-dasharray:none;stroke-dashoffset:0"
       d="M 143.493,174.148 195.414,174.148"
       id="path31238"
       sodipodi:nodetypes="cc" />
    <g
       transform="matrix(0.428838,0,0,0.428838,-82.1849,403.172)"
       id="g31240">
      <circle
         transform="matrix(6.98333,0,0,6.98333,502.722,134.062)"
         style="fill:#545454;fill-opacity:1;stroke:none"
         sodipodi:ry="5"
         sodipodi:rx="5"
         sodipodi:cy="0"
         sodipodi:cx="0"
         id="circle31242"
         cx="0"
         cy="0"
         r="5"
         d="M 5,0 C 5,2.76142 2.76142,5 0,5 -2.76142,5 -5,2.76142 -5,0 -5,-2.76142 -2.76142,-5 0,-5 2.76142,-5 5,-2.76142 5,0 z" />
      <circle
         transform="matrix(6.98333,0,0,6.98333,502.722,134.062)"
         style="fill:#8e8e8e;fill-opacity:1;stroke:none"
         sodipodi:ry="4"
         sodipodi:rx="4"
         sodipodi:cy="0"
         sodipodi:cx="0"
         id="circle31244"
         cx="0"
         cy="0"
         r="4"
         d="M 4,0 C 4,2.20914 2.20914,4 0,4 -2.20914,4 -4,2.20914 -4,0 -4,-2.20914 -2.20914,-4 0,-4 2.20914,-4 4,-2.20914 4,0 z" />
      <path
         inkscape:connector-curvature="0"
         id="path31246"
         style="fill:none;stroke:#ffffff;stroke-width:2.331883"
         d="M 488.569,119.899 516.875,148.215 M 488.569,148.215 516.875,119.899" />
    </g>
    <g
       id="g31248"
       transform="matrix(0.428838,0,0,0.428838,-82.1849,505.639)">
      <circle
         d="M 5,0 C 5,2.76142 2.76142,5 0,5 -2.76142,5 -5,2.76142 -5,0 -5,-2.76142 -2.76142,-5 0,-5 2.76142,-5 5,-2.76142 5,0 z"
         r="5"
         cy="0"
         cx="0"
         id="circle31250"
         sodipodi:cx="0"
         sodipodi:cy="0"
         sodipodi:rx="5"
         sodipodi:ry="5"
         style="fill:#545454;fill-opacity:1;stroke:none"
         transform="matrix(6.98333,0,0,6.98333,502.722,134.062)" />
      <circle
         d="M 4,0 C 4,2.20914 2.20914,4 0,4 -2.20914,4 -4,2.20914 -4,0 -4,-2.20914 -2.20914,-4 0,-4 2.20914,-4 4,-2.20914 4,0 z"
         r="4"
         cy="0"
         cx="0"
         id="circle31252"
         sodipodi:cx="0"
         sodipodi:cy="0"
         sodipodi:rx="4"
         sodipodi:ry="4"
         style="fill:#8e8e8e;fill-opacity:1;stroke:none"
         transform="matrix(6.98333,0,0,6.98333,502.722,134.062)" />
      <path
         d="M 488.569,119.899 516.875,148.215 M 488.569,148.215 516.875,119.899"
         style="fill:none;stroke:#ffffff;stroke-width:2.331883"
         id="path31254"
         inkscape:connector-curvature="0" />
    </g>
  </g>
</svg>
