<?xml version="1.0" encoding="UTF-8" standalone="no"?>
<!-- Created with Inkscape (http://www.inkscape.org/) -->

<svg
   xmlns:dc="http://purl.org/dc/elements/1.1/"
   xmlns:cc="http://creativecommons.org/ns#"
   xmlns:rdf="http://www.w3.org/1999/02/22-rdf-syntax-ns#"
   xmlns:svg="http://www.w3.org/2000/svg"
   xmlns="http://www.w3.org/2000/svg"
   xmlns:sodipodi="http://sodipodi.sourceforge.net/DTD/sodipodi-0.dtd"
   xmlns:inkscape="http://www.inkscape.org/namespaces/inkscape"
   width="1000"
   height="1000"
   viewBox="0 0 264.58333 264.58334"
   version="1.1"
   id="svg562"
   inkscape:version="0.92.3 (2405546, 2018-03-11)"
   sodipodi:docname="beltwidth.svg">
  <defs
     id="defs556" />
  <sodipodi:namedview
     id="base"
     pagecolor="#ffffff"
     bordercolor="#666666"
     borderopacity="1.0"
     inkscape:pageopacity="0.0"
     inkscape:pageshadow="2"
     inkscape:zoom="1.4142136"
     inkscape:cx="648.77856"
     inkscape:cy="465.06636"
     inkscape:document-units="mm"
     inkscape:current-layer="layer1"
     showgrid="false"
     units="px"
     inkscape:window-width="1920"
     inkscape:window-height="1043"
     inkscape:window-x="0"
     inkscape:window-y="0"
     inkscape:window-maximized="1"
     inkscape:snap-global="false"
     showguides="false" />
  <metadata
     id="metadata559">
    <rdf:RDF>
      <cc:Work
         rdf:about="">
        <dc:format>image/svg+xml</dc:format>
        <dc:type
           rdf:resource="http://purl.org/dc/dcmitype/StillImage" />
        <dc:title></dc:title>
      </cc:Work>
    </rdf:RDF>
  </metadata>
  <g
     inkscape:label="Layer 1"
     inkscape:groupmode="layer"
     id="layer1">
    <path
       style="fill:#404040;fill-opacity:1;stroke:#000000;stroke-width:2;stroke-linecap:square;stroke-linejoin:round;stroke-miterlimit:4;stroke-dasharray:none;stroke-dashoffset:0;stroke-opacity:1"
       d="m 191.24517,25.745198 c 0,0.05771 5.3e-4,0.110241 0,0.167949 l -14.06322,0.377237 -18.26297,5.2002 c 2.14918,15.066533 1.41082,27.431452 -0.87592,38.353732 1.55852,17.188315 2.32116,35.218314 2.08153,54.038564 -0.25083,19.66574 -2.51608,39.79971 -3.22874,60.14051 -0.87138,24.86753 -0.1886,49.98843 -0.19482,74.1903 h 32.67655 5.69888 42.73279 c -0.006,-24.20187 0.6961,-49.32277 -0.17466,-74.1903 -0.71266,-20.3408 -2.99755,-40.47477 -3.24838,-60.14051 -0.23963,-18.82025 0.54212,-36.850249 2.10064,-54.038564 -2.28674,-10.92228 -3.04421,-23.287199 -0.89503,-38.353732 l -17.75809,-5.053438 -19.89801,-0.523999 c 0,-0.05637 5.3e-4,-0.111583 0,-0.167949 l -3.3259,0.08372 z"
       id="primary1"
       inkscape:connector-curvature="0"
       sodipodi:nodetypes="cccccccccccccccccccc" />
    <path
       id="primary2"
       style="fill:#404040;stroke:#000000;stroke-width:2;stroke-linecap:square;stroke-linejoin:round;stroke-miterlimit:4;stroke-dasharray:none;stroke-dashoffset:0;stroke-opacity:1"
       d="m 211.42006,127.66124 c 2.57226,0 4.6575,-4.89393 4.6575,-7.6671 0,-2.77317 -2.08523,-7.6671 -4.65749,-7.66711 m -50.72062,0.0221 h 73.24733 m -73.56165,15.28993 h 73.40418 m 6.37786,26.20357 20.173,-0.53951 0.50042,-13.06083 c 0.17925,-3.44304 -1.16205,-4.32476 -4.3905,-3.95436 l -18.00514,0.77906 z m -85.50388,0 -20.173,-0.53951 -0.50042,-13.06083 c -0.17925,-3.44304 1.16205,-4.32476 4.3905,-3.95436 l 18.00514,0.77906 z"
       inkscape:connector-curvature="0"
       sodipodi:nodetypes="csccccccccccccccccc" />
    <path
       id="primary3"
       style="fill:#404040;stroke:#000000;stroke-width:2;stroke-linecap:square;stroke-linejoin:round;stroke-miterlimit:4;stroke-dasharray:none;stroke-dashoffset:0;stroke-opacity:1"
       d="m 162.41979,6.201643 c 1.96434,12.477717 4.18012,22.363934 7.39115,21.850599 5.55254,-0.882398 13.40738,-1.316552 23.90436,-1.258843 v 0.08455 c 1.08424,-0.02416 2.09566,-0.04831 3.13136,-0.06308 1.03818,0.01476 2.06454,0.03892 3.15127,0.06308 v -0.08455 c 10.48702,-0.05704 18.33564,0.376445 23.88507,1.258843 3.21102,0.513335 5.42681,-9.372882 7.39114,-21.850599 -8.96273,1.4997417 -22.05331,1.5225566 -34.40757,1.8030452 C 184.50609,7.7235286 171.38689,7.7027268 162.41979,6.201643 Z m 71.63342,24.620592 c 14.99204,-0.550912 16.56177,16.815225 18.11282,25.002405 5.59922,29.551286 5.25191,53.49951 6.89072,81.48194 l -20.11698,1.07834 -3.77866,-34.26994 c 0.0118,-11.8389 -2.84567,-21.806311 -1.36558,-32.69571 1.07491,-11.889228 1.23674,-27.40736 0.25768,-40.597035 z m -73.44775,0 C 145.61342,30.271323 144.0437,47.63746 142.49265,55.82464 c -5.59922,29.551286 -5.25192,53.49951 -6.89073,81.48194 l 20.11698,1.07834 3.77867,-34.26994 c -0.0118,-11.8389 2.84567,-21.806311 1.36557,-32.69571 -1.0749,-11.889228 -1.23673,-27.40736 -0.25768,-40.597035 z"
       inkscape:connector-curvature="0"
       sodipodi:nodetypes="ccccccccccccccccccccccccc" />
    <path
       id="secondary"
       style="opacity:0.98000004;fill:#404040;stroke:#000000;stroke-width:1;stroke-linecap:square;stroke-linejoin:round;stroke-miterlimit:4;stroke-dasharray:none;stroke-dashoffset:0;stroke-opacity:1"
       d="m 185.2018,120.07886 c 0,0.4 -0.30077,0.72427 -0.6718,0.72427 -0.37103,0 -0.6718,-0.32427 -0.6718,-0.72427 0,-0.4 0.30077,-0.72427 0.6718,-0.72427 0.37103,0 0.6718,0.32427 0.6718,0.72427 z m 25.46357,0 c 0,0.4 -0.30077,0.72427 -0.67179,0.72427 -0.37103,0 -0.6718,-0.32427 -0.6718,-0.72427 0,-0.4 0.30077,-0.72427 0.6718,-0.72427 0.37102,0 0.67179,0.32427 0.67179,0.72427 z m -24.01342,-1e-5 c 0,1.26346 -0.95004,2.2877 -2.12197,2.2877 -1.17193,0 -2.12196,-1.02424 -2.12196,-2.2877 0,-1.26346 0.95003,-2.2877 2.12196,-2.2877 1.17193,0 2.12197,1.02424 2.12197,2.2877 z m 25.46361,0 c 0,1.26346 -0.95004,2.2877 -2.12197,2.2877 -1.17193,0 -2.12196,-1.02424 -2.12196,-2.2877 0,-1.26346 0.95003,-2.2877 2.12196,-2.2877 1.17193,0 2.12197,1.02424 2.12197,2.2877 z M 160.22766,61.276721 C 152.839,79.766825 152.35477,105.2262 149.53897,136.85565 m 85.19329,-75.578929 c 7.38866,18.490104 7.8729,43.949479 10.68869,75.578929 m -68.53194,-9.55542 V 258.01935 M 217.75659,127.30023 V 258.01935 M 197.3228,127.30023 V 258.01935 M 197.2618,60.977444 V 112.2532 m -6.62123,-51.230797 h 13.32087 l -6.64114,-7.15917 -6.75877,7.286665 m -29.93056,71.962772 h 2.39193 c 0,6.06003 1.68425,13.43527 -3.2216,13.43192 m 3.2216,-10.55658 c 0,0.39323 0.0156,26.65783 0.0156,27.14231 0,4.38448 -1.91578,7.64365 -5.02162,8.59382 m 75.9025,-38.61147 h -3.99837 c 0,6.06003 -1.05561,13.43527 3.85024,13.43192 l 0.9081,-0.0114 m -4.75834,-10.54518 c 0,0.39323 -0.0156,26.65783 -0.0156,27.14231 0,5.24339 2.73923,8.87699 6.97786,8.87699"
       inkscape:connector-curvature="0"
       sodipodi:nodetypes="ccccccccccssssssssssccccccccccccccccccccsccccccsc" />
    <path
       sodipodi:nodetypes="cccccccccccccccccccc"
       inkscape:connector-curvature="0"
       id="path4219"
       d="m 61.03146,25.745198 c 0,0.05771 5.3e-4,0.110241 0,0.167949 l -14.06322,0.377237 -18.26297,5.2002 c 2.14918,15.066533 1.41082,27.431452 -0.87592,38.353732 1.55852,17.188315 2.32116,35.218314 2.08153,54.038564 -0.25083,19.66574 -2.51608,39.79971 -3.22874,60.14051 -0.87138,24.86753 -0.1886,49.98843 -0.19482,74.1903 h 32.67655 5.69888 42.73279 c -0.006,-24.20187 0.6961,-49.32277 -0.17466,-74.1903 -0.71266,-20.3408 -2.99755,-40.47477 -3.24838,-60.14051 -0.23963,-18.82025 0.54212,-36.850249 2.10064,-54.038564 -2.28674,-10.92228 -3.04421,-23.287199 -0.89503,-38.353732 L 87.62002,26.437146 67.72201,25.913147 c 0,-0.05637 5.3e-4,-0.111583 0,-0.167949 l -3.3259,0.08372 z"
       style="fill:#404040;fill-opacity:1;stroke:#000000;stroke-width:2;stroke-linecap:square;stroke-linejoin:round;stroke-miterlimit:4;stroke-dasharray:none;stroke-dashoffset:0;stroke-opacity:1" />
    <path
       sodipodi:nodetypes="csccccccccccccccccc"
       inkscape:connector-curvature="0"
       d="m 81.20635,125.01541 c 2.57226,0 4.6575,-2.2481 4.6575,-5.02127 0,-2.77317 -2.08523,-5.02127 -4.65749,-5.02128 m -50.72062,0.0221 h 73.24733 m -73.56165,9.99827 h 73.40418 m 6.37786,28.8494 20.173,-0.53951 0.50042,-13.06083 c 0.17925,-3.44304 -1.16205,-4.32476 -4.3905,-3.95436 l -18.00514,0.77906 z m -85.50388,0 -20.1730003,-0.53951 -0.50042,-13.06083 c -0.17925,-3.44304 1.16205,-4.32476 4.3905,-3.95436 L 26.1718,137.06699 Z"
       style="fill:#404040;stroke:#000000;stroke-width:2;stroke-linecap:square;stroke-linejoin:round;stroke-miterlimit:4;stroke-dasharray:none;stroke-dashoffset:0;stroke-opacity:1"
       id="path4221" />
    <path
       sodipodi:nodetypes="ccccccccccccccccccccccccc"
       inkscape:connector-curvature="0"
       d="m 32.20608,6.201643 c 1.96434,12.477717 4.18012,22.363934 7.39115,21.850599 5.55254,-0.882398 13.40738,-1.316552 23.90436,-1.258843 v 0.08455 c 1.08424,-0.02416 2.09566,-0.04831 3.13136,-0.06308 1.03818,0.01476 2.06454,0.03892 3.15127,0.06308 v -0.08455 c 10.48702,-0.05704 18.33564,0.376445 23.88507,1.258843 3.21102,0.513335 5.42681,-9.372882 7.39114,-21.850599 C 92.0977,7.7013847 79.00712,7.7241996 66.65286,8.0046882 54.29238,7.7235286 41.17318,7.7027268 32.20608,6.201643 Z m 71.63342,24.620592 c 14.99204,-0.550912 16.56177,16.815225 18.11282,25.002405 5.59922,29.551286 5.25191,53.49951 6.89072,81.48194 l -20.11698,1.07834 -3.77866,-34.26994 c 0.0118,-11.8389 -2.84567,-21.806311 -1.36558,-32.69571 1.07491,-11.889228 1.23674,-27.40736 0.25768,-40.597035 z m -73.44775,0 C 15.39971,30.271323 13.82999,47.63746 12.27894,55.82464 6.6797197,85.375926 7.0270197,109.32415 5.3882097,137.30658 l 20.1169803,1.07834 3.77867,-34.26994 C 29.27206,92.27608 32.12953,82.308669 30.64943,71.41927 29.57453,59.530042 29.4127,44.01191 30.39175,30.822235 Z"
       style="fill:#404040;stroke:#000000;stroke-width:2;stroke-linecap:square;stroke-linejoin:round;stroke-miterlimit:4;stroke-dasharray:none;stroke-dashoffset:0;stroke-opacity:1"
       id="path4223" />
    <path
       sodipodi:nodetypes="ccccccccccssssssssssccccccccccccccccccccsccccccsc"
       inkscape:connector-curvature="0"
       d="m 54.98809,120.07886 c 0,0.4 -0.30077,0.72427 -0.6718,0.72427 -0.37103,0 -0.6718,-0.32427 -0.6718,-0.72427 0,-0.4 0.30077,-0.72427 0.6718,-0.72427 0.37103,0 0.6718,0.32427 0.6718,0.72427 z m 25.46357,0 c 0,0.4 -0.30077,0.72427 -0.67179,0.72427 -0.37103,0 -0.6718,-0.32427 -0.6718,-0.72427 0,-0.4 0.30077,-0.72427 0.6718,-0.72427 0.37102,0 0.67179,0.32427 0.67179,0.72427 z m -24.01342,-1e-5 c 0,1.26346 -0.95004,2.2877 -2.12197,2.2877 -1.17193,0 -2.12196,-1.02424 -2.12196,-2.2877 0,-1.26346 0.95003,-2.2877 2.12196,-2.2877 1.17193,0 2.12197,1.02424 2.12197,2.2877 z m 25.46361,0 c 0,1.26346 -0.95004,2.2877 -2.12197,2.2877 -1.17193,0 -2.12196,-1.02424 -2.12196,-2.2877 0,-1.26346 0.95003,-2.2877 2.12196,-2.2877 1.17193,0 2.12197,1.02424 2.12197,2.2877 z M 30.01395,61.276721 C 22.62529,79.766825 22.14106,105.2262 19.32526,136.85565 m 85.19329,-75.578929 c 7.38866,18.490104 7.8729,43.949479 10.68869,75.578929 M 46.6753,124.6544 V 258.01935 M 87.54288,124.6544 V 258.01935 M 67.10909,124.6544 V 258.01935 M 67.04809,60.977444 V 114.89903 M 60.42686,61.022403 h 13.32087 l -6.64114,-7.15917 -6.75877,7.286665 M 30.41726,133.11267 h 2.39193 c 0,6.06003 1.68425,13.43527 -3.2216,13.43192 m 3.2216,-10.55658 c 0,0.39323 0.0156,26.65783 0.0156,27.14231 0,4.38448 -1.91578,7.64365 -5.02162,8.59382 m 75.9025,-38.61147 H 99.7073 c 0,6.06003 -1.05561,13.43527 3.85024,13.43192 l 0.9081,-0.0114 M 99.7073,135.98801 c 0,0.39323 -0.0156,26.65783 -0.0156,27.14231 0,5.24339 2.73923,8.87699 6.97786,8.87699"
       style="opacity:0.98000004;fill:#404040;stroke:#000000;stroke-width:1;stroke-linecap:square;stroke-linejoin:round;stroke-miterlimit:4;stroke-dasharray:none;stroke-dashoffset:0;stroke-opacity:1"
       id="path4225" />
  </g>
</svg>
