<?xml version="1.0" encoding="UTF-8" standalone="no"?>
<svg
   xmlns:dc="http://purl.org/dc/elements/1.1/"
   xmlns:cc="http://creativecommons.org/ns#"
   xmlns:rdf="http://www.w3.org/1999/02/22-rdf-syntax-ns#"
   xmlns:svg="http://www.w3.org/2000/svg"
   xmlns="http://www.w3.org/2000/svg"
   width="164"
   height="64"
   viewBox="0 0 7.872 3.072"
   version="1.1"
   id="svg817">
  <metadata
     id="metadata823">
    <rdf:RDF>
      <cc:Work
         rdf:about="">
        <dc:format>image/svg+xml</dc:format>
        <dc:type
           rdf:resource="http://purl.org/dc/dcmitype/StillImage" />
        <dc:title></dc:title>
      </cc:Work>
    </rdf:RDF>
  </metadata>
  <defs
     id="defs821" />
  <path
     d="m 1.333,0.57816356 c -0.03956,0.02812 -0.03752,0.02452 -0.06948,0.03496 -0.07328,0.02396 -0.14356,0.0108 -0.22696,0.00384 -0.02508,-0.0028 -0.04996,-0.00444 -0.07424,-0.0046 -0.1226,-8.4e-4 -0.22672,0.03512 -0.24644,0.13552 -0.03636,0.02204 -0.0698,0.04872 -0.10292,0.07544 -0.07072,0.0558 -0.12396,0.124 -0.16028,0.20620004 -0.0496,0.1214 -0.0048,0.25168 0.0174,0.37472 0.00528,0.0288 0.0108,0.05624 0.01376,0.06684 0.0042,0.01492 0.0116,0.02916 0.01964,0.04196 0.00188,3.2e-4 0.0118,-0.01496 0.01416,-0.02172 0.00344,-0.0098 0.00308,-0.02564 -6.8e-4,-0.03924 -0.00832,-0.0306 -0.01624,-0.05544 -0.01692,-0.06792 -0.0012,-0.02344 0.00336,-0.04508 0.01192,-0.0558 0.00304,-0.0038 0.01,0.0158 0.0082,0.02308 -0.00212,0.0088 -0.00372,0.02376 -0.00304,0.03068 0.00188,0.02344 0.00532,0.04852 0.0096,0.07044 0.00548,0.02828 0.00784,0.04644 0.00684,0.05348 -7.2e-4,0.0051 -0.00312,0.01028 -0.01232,0.02612 -0.008,0.01388 -0.01216,0.02512 -0.0128,0.03504 -6.8e-4,0.0097 0.00224,0.03388 0.00496,0.0398 0.00396,0.0092 0.01588,0.01896 0.02628,0.02136 0.00996,0.0038 0.01496,0.01168 0.02008,0.02052 0.01244,0.02372 0.02204,0.0526 0.03156,0.09612 0.00464,0.02084 0.00852,0.03944 0.00976,0.0492 -0.0768,8e-5 -0.17516,1.2e-4 -0.26476,1.2e-4 -0.03016,4.8e-4 -0.08464,-0.01368 -0.1346,-0.01696 C 0.19448,1.6992036 0.16016,1.6084036 0.10144,1.6031236 0.06136,1.5994836 0.02812,1.6147236 0,1.6780436 l 8e-4,0.0034 c 0.0166,-0.01388 0.03412,-0.05632 0.09724,-0.0534 0.04848,0.0022 0.06464,0.09396 0.06944,0.14916 -0.02952,0.0022 -0.05464,0.01124 -0.06776,0.03392 h -2.8e-4 c 0,4e-5 0,1.2e-4 1.2e-4,2e-4 -1.2e-4,8e-5 -1.2e-4,1.6e-4 -1.2e-4,2.4e-4 h 2.8e-4 c 0.01352,0.02324 0.03956,0.03224 0.07016,0.03404 0.02044,0.578 0.56376,0.65256 0.71224,0.65256 0.55392,0 0.74784,-0.3764 0.777,-0.52548 0.01364,0.06352 -0.02932,0.14444 -0.0396,0.20416 0.11684,-0.13508 0.09572,-0.26496 0.07436,-0.3956 0.01776,0.02112 0.0418,0.0342 0.0744,0.02696 -0.02324,-0.01552 -0.05476,-0.00464 -0.07364,-0.07012 -0.00824,-0.02828 -0.01536,-0.04948 -0.02244,-0.06728 -0.01528,-0.05732 -0.03696,-0.11208 -0.0636,-0.16544 -0.02248,-0.05788 -0.00764,-0.0954 -0.00988,-0.14508 0.04044,0.13336 0.06572,0.16884 0.11292,0.1828 -0.11872,-0.14304 -0.07808,-0.36452 -0.14516,-0.56220004 0.03036,0.01784 0.065,0.0232 0.10188,0.0014 -0.03568,-0.01016 -0.07128,0.01668 -0.12248,-0.05856 -0.04324,-0.08412 -0.10588,-0.14624 -0.18188,-0.20104 -0.04072,-0.02656 -0.08592,-0.0444 -0.13136,-0.06096 0.04628,-0.0116 0.09796,-0.0528 0.10036,-0.08356 z M 1.25536,1.0224436 c 0.06096,0.02224 0.12816,0.10672 0.1274,0.1896 v 0.0034 0.0012 c -0.00164,0.11256 -0.0528,0.17308 -0.05064,0.24804 0.00276,0.08828 0.04076,0.11908 0.04832,0.1338 -0.01296,-0.0544 -0.02056,-0.12288 -0.00344,-0.17712 0.022,-0.06976 0.0442,-0.12752 0.0426,-0.18216 -8e-4,-0.0128 -0.00624,-0.06068 -0.00988,-0.08188 0.06536,0.09432 -0.01416,0.23148 0.00872,0.32124 0.03976,0.15636 0.21796,0.17612 0.16492,0.49116 -0.04668,0.27696 -0.36652,0.48716 -0.69436,0.48716 -0.24304,0 -0.6642,-0.13452 -0.685,-0.61168 0.0494,-0.0035 0.10252,-0.01728 0.13232,-0.0168 0.09008,0 0.19296,4e-5 0.27048,8e-5 0.01456,0.06568 0.02548,0.08152 0.08072,0.12528 0.06144,0.04832 0.07576,0.0542 0.16664,0.05508 0.09092,9.2e-4 0.11788,-0.01856 0.20608,-0.102 0.01904,-0.02232 0.02728,-0.05156 0.03652,-0.07904 0.09072,-8.4e-4 0.15688,-0.0024 0.22196,-0.0055 0.06628,-0.003 0.07564,0 0.18244,-0.011 -0.1068,-0.01098 -0.11616,-0.00798 -0.18244,-0.01102 -0.06336,-0.00288 -0.12752,-0.00452 -0.21428,-0.00532 0.00728,-0.03268 0.01768,-0.0646 0.02876,-0.09616 0.00684,-0.0186 0.01488,-0.03672 0.02312,-0.05476 l 0.009,-0.0028 c 0.01736,-0.00616 0.03272,-0.01936 0.03884,-0.0372 0.00788,-0.02364 0.00228,-0.0502 -0.01296,-0.06952 -0.00524,-0.00724 -0.01176,-0.01648 -0.01444,-0.02056 -0.00804,-0.01272 -0.00824,-0.0198 -0.00144,-0.06708 0.00572,-0.0396 0.00636,-0.06032 0.0024,-0.0804 -8e-4,-0.01148 -8.8e-4,-0.03508 -0.00124,-0.04144 0.00304,0.0017 0.00964,0.01672 0.01632,0.03708 0.00664,0.02044 0.00772,0.02468 0.00924,0.04208 0.00168,0.01976 -0.00572,0.0344 -0.0118,0.06388 -0.00304,0.0152 -0.00572,0.02932 -0.00572,0.03124 0,0.002 0.00144,0.0064 0.00296,0.0097 0.00356,0.0075 0.01024,0.01808 0.01148,0.01808 0.0218,-0.02404 0.0346,-0.05372 0.046,-0.08384 0.012,-0.03408 0.01552,-0.07024 0.02392,-0.10532 0.0068,-0.03056 0.01464,-0.06116 0.01708,-0.09252 0.00492,-0.0612 0.00204,-0.1044 -0.01148,-0.16816 -0.00324,-0.0144 -0.0126,-0.04188 -0.01912,-0.05484 z m -0.2144,0.30148 c 0.0234,-2.8e-4 0.04656,0.0026 0.0686,0.0089 0.02996,0.01148 0.03416,0.03824 0.03968,0.06828 0.00308,0.0192 0.00296,0.033 -5.2e-4,0.05556 -0.00244,0.03272 -0.01544,0.05804 -0.04384,0.07584 -0.04284,0.0079 -0.08864,0.01556 -0.12496,-0.0128 -0.03048,-0.042 -0.04884,-0.09508 -0.04184,-0.14684 0.00444,-0.02124 0.01432,-0.03228 0.03464,-0.03888 0.02188,-0.0063 0.04504,-0.0097 0.06824,-0.01008 z m -0.35532,0.0038 c 0.02188,-2e-4 0.044,0.0021 0.05616,0.0099 0.0522,0.03532 0.03544,0.0928 0.0148,0.14324 -0.03004,0.06604 -0.095,0.0636 -0.15796,0.06308 -0.03484,-0.01022 -0.03804,-0.03878 -0.04308,-0.0693 -0.00432,-0.02948 -0.01352,-0.06108 -0.00584,-0.09072 0.01972,-0.04768 0.0918,-0.05316 0.13592,-0.0562 z m 0.79612,0.0082 c 2.8e-4,0.12692 0.02196,0.18928 0.06548,0.27916 -0.02564,-0.04888 -0.06228,-0.07672 -0.07592,-0.1352 -0.02608,-0.11292 0.00204,-0.1066 0.01044,-0.14392 z m -0.63252,0.09192 c 0.00688,0.007 0.0102,0.01656 0.01616,0.0242 0.0046,-0.0079 0.00932,-0.01572 0.01524,-0.02272 0.00308,8e-5 0.00684,0.0062 0.01024,0.01704 0.01456,0.04024 0.0174,0.08452 0.03628,0.1232 0.01764,0.028 -0.00644,0.04432 -0.03288,0.0456 -0.01928,-4e-5 -0.02744,-0.0132 -0.03876,-0.02624 -0.00292,0.0085 -0.00848,0.014 -0.01512,0.01976 -0.01688,0.01416 -0.04996,0.0089 -0.05508,-0.0134 0.0068,-0.04264 0.02852,-0.0818 0.04276,-0.12268 0.00708,-0.01492 0.00716,-0.02636 0.02116,-0.04476 z m -0.24768,0.2154 c 0.00852,0 0.03192,0.01588 0.03668,0.02484 0.00328,0.006 0.01076,0.02916 0.01128,0.0348 8.4e-4,0.0067 -0.0012,0.02264 -0.00328,0.02696 -0.00152,0.0031 -0.00268,0.0035 -0.00444,0.0015 -0.00148,-0.00162 -0.02108,-0.03922 -0.0336,-0.0641 -0.00984,-0.01992 -0.01088,-0.02396 -0.00664,-0.02396 z m 0.48888,0.01244 c 3.2e-4,4e-5 8e-4,1.6e-4 0.00124,2.8e-4 0.00264,0.0011 8e-4,0.01044 -0.00912,0.04444 -0.00188,0.01024 -0.00644,0.01832 -0.01312,0.02504 -0.0022,0 -0.0032,-0.0026 -0.00664,-0.01676 -0.00292,-0.01212 -0.00324,-0.02292 -0.0012,-0.0326 0.00352,-0.01212 0.01776,-0.01584 0.02884,-0.0204 z m -0.05932,0.07412 c 8.4e-4,-1.6e-4 0.00164,2.8e-4 0.00268,0.0011 0.0036,0.0025 0.00412,0.0092 0.00172,0.02216 -0.00292,0.01672 -0.00356,0.01856 -0.00788,0.02028 -0.00188,8.4e-4 -0.00524,0.0014 -0.00748,0.0014 -0.00404,-7.2e-4 -0.00508,-0.004 -0.00412,-0.009 0,-0.0104 0.00304,-0.01944 0.00992,-0.03012 0.0026,-0.004 0.00392,-0.0057 0.00516,-0.0059 z m -0.34532,7.6e-4 c 0.00276,0 0.01108,0.006 0.01416,0.01016 0.00344,0.0044 0.00736,0.0306 0.00516,0.03512 -0.00252,0.0057 -0.01484,0.0028 -0.01824,-0.0042 -0.00208,-0.0042 -0.007,-0.02712 -0.007,-0.03256 0,-0.005 0.00244,-0.0085 0.00592,-0.0085 z m 0.31564,0.0069 c 0.00336,0.0048 0.00424,0.01096 0.00352,0.02448 l -6.8e-4,0.01232 -0.00352,0.0035 c -0.00212,0.002 -0.00572,0.0044 -0.00788,0.0054 -0.00476,0.0022 -0.0084,0.0024 -0.00908,6.4e-4 -8e-4,-0.0024 5.6e-4,-0.01768 0.00204,-0.02284 0.00172,-0.0053 0.00944,-0.0212 0.012,-0.02456 0.00116,-0.0031 0.00252,7.6e-4 0.0036,0.0011 z m -0.20084,-6.6e-4 c 0.00724,0.0018 0.01044,0.0084 0.0144,0.01428 l 0.00268,0.0053 -0.00376,0.01308 c -0.002,0.0072 -0.00412,0.01368 -0.00476,0.0144 -7.2e-4,8e-4 -0.0034,0.0012 -0.00736,0.0012 -0.01056,-2.8e-4 -0.01176,-7.2e-4 -0.0146,-0.005 l -0.00264,-0.0039 0.00224,-0.011 c 0.00324,-0.01596 0.0048,-0.02072 0.0084,-0.0248 0.00188,-0.0022 0.00376,-0.0034 0.0054,-0.00356 z m -0.06684,0.01132 0.00596,0.006 0.001,0.01348 c 5.2e-4,0.0074 7.6e-4,0.0142 3.6e-4,0.01504 -3.6e-4,0.0012 -0.00252,0.0015 -0.0092,0.0015 H 0.7232 c -0.00464,-0.00514 -0.00608,-0.01134 -0.00804,-0.01774 -0.00456,-0.01924 -0.00456,-0.028 1.6e-4,-0.02916 0.00772,4.8e-4 0.0128,0.0061 0.01844,0.01088 z m 0.232,-0.0092 c 0.00944,0.0025 0.00756,0.01752 0.00752,0.02824 -7.2e-4,0.01736 -0.0014,0.02096 -0.00364,0.0232 -0.00388,0.0039 -0.01468,0.0017 -0.01992,-0.004 -0.00172,-0.00216 -0.00188,-0.0028 -5.2e-4,-0.01124 0.00156,-0.01028 0.00356,-0.01668 0.008,-0.02548 0.00324,-0.00632 0.00628,-0.01028 0.00856,-0.01076 z m -0.21304,8e-4 c 5.2e-4,-4e-5 0.00136,0 0.00216,8e-5 0.006,4.8e-4 0.0116,0.0044 0.01656,0.0116 l 0.004,0.0059 c 3.6e-4,0.0096 0,0.0198 -0.00172,0.02876 -0.00104,5.2e-4 -0.00536,0.0013 -0.0096,0.0017 -0.00736,6.8e-4 -0.00804,5.2e-4 -0.0106,-0.0017 -0.00356,-0.003 -0.00456,-0.0087 -0.00544,-0.0274 -5.2e-4,-0.01528 -1.6e-4,-0.01868 0.00464,-0.01892 z m 0.09076,0.0032 c 0.00644,0.0014 0.01052,0.0048 0.01232,0.01044 0.00144,0.0048 0.00232,0.03192 9.2e-4,0.0338 -4.8e-4,8e-4 -0.00352,0.0018 -0.007,0.0022 -0.01296,0.0016 -0.0244,4e-4 -0.02552,-0.0027 -0.00144,-0.0035 0.0082,-0.0384 0.01176,-0.04272 0.00152,-0.0034 0.0052,-7.6e-4 0.00752,-0.0011 z m 0.08392,2.4e-4 c 0.00284,-2.8e-4 0.00588,0.0024 0.00884,0.0082 0.0024,0.0048 0.00276,0.0065 0.00276,0.01736 0,0.0086 -5.2e-4,0.01236 -0.00144,0.01316 -8e-4,6.4e-4 -0.00404,0.0018 -0.00748,0.0027 -0.006,0.0016 -0.00732,0.0017 -0.0092,0.0011 l -0.009,-0.0016 6.8e-4,-0.0054 c 6.4e-4,-0.007 0.00524,-0.02252 0.00848,-0.02924 0.00192,-0.004 0.00412,-0.006 0.00636,-0.0063 z m -0.03912,1.2e-4 c 0.00188,-8e-5 0.00276,3.6e-4 0.00396,0.0017 0.00284,0.0034 0.00644,0.01328 0.00872,0.02388 0.00304,0.01492 0.00304,0.01488 -0.00348,0.01684 -0.00284,8.8e-4 -0.00884,0.0018 -0.01312,0.002 -0.01412,7.2e-4 -0.0152,-1.2e-4 -0.01348,-0.0126 0.00136,-0.01112 0.00684,-0.02864 0.0092,-0.02992 0.00256,-0.0014 0.00552,-0.0013 0.0082,-0.0019 z m -0.71972,0.05636 c 1.2e-4,-4e-5 2.8e-4,0 2.8e-4,0 3.6e-4,0.0078 3.6e-4,0.01568 5.2e-4,0.02352 -0.0198,-0.0015 -0.03436,-0.0062 -0.03436,-0.0118 0,-0.0055 0.01404,-0.01016 0.03356,-0.01172 z m 0.0346,6.8e-4 c 0.01604,0.002 0.02712,0.0062 0.02692,0.01104 0,0.0049 -0.01072,0.009 -0.02664,0.011 -1.6e-4,-0.0073 -1.6e-4,-0.01468 -2.8e-4,-0.02204 z m 0.74904,0.02132 c 0.00136,-1.2e-4 0.00196,-2.4e-4 0.00404,-4e-5 0.00832,8.4e-4 0.00952,0.0014 0.00952,0.0042 0,0.0037 -0.00632,0.01476 -0.0106,0.0186 -0.002,0.0019 -0.00476,0.0035 -0.00572,0.0035 -0.0048,0 -0.0076,-0.01012 -0.00536,-0.01944 0.00136,-0.005 0.00384,-0.0066 0.00812,-0.0068 z m -0.0302,0.0033 c 0.00372,-3.2e-4 0.00732,6.8e-4 0.01092,0.0012 -0.00104,0.01052 -0.00576,0.01912 -0.01452,0.02484 -0.00216,0 -0.00324,-0.0041 -0.00324,-0.01312 0,-0.01072 5.6e-4,-0.01276 0.00684,-0.01288 z m -0.03312,0.0039 c 0.00772,0 0.01452,3.6e-4 0.01484,8e-4 0.00144,0.0014 -0.00272,0.01168 -0.00884,0.02216 -0.00524,0.0093 -0.006,0.01 -0.00924,0.01024 -0.01272,-0.0014 -0.01236,-0.01636 -0.01432,-0.0266 0,-0.0061 0.00136,-0.0066 0.01756,-0.0066 z m -0.12036,0.0012 c 0.00884,1.6e-4 0.01228,0.0015 0.01228,0.0049 0,0.0043 -0.00328,0.01292 -0.00516,0.014 -0.00284,0.0016 -0.00308,0.0015 -0.00868,-0.0044 -0.00884,-0.01 -0.00984,-0.01182 0.00156,-0.01458 z m 0.04256,4.4e-4 c 1.6e-4,2.4e-4 0.00188,0.0034 0.0036,0.0069 0.00376,0.0073 0.00404,0.01052 0.00136,0.01296 -0.00632,0.0035 -0.00764,0.00146 -0.01336,-0.00218 -0.00664,-0.00628 -0.01188,-0.01472 -0.01016,-0.01648 0.00592,-0.00212 0.01244,-0.00132 0.01856,-0.00128 z m 0.01688,2e-4 0.0158,2.8e-4 c 0.00616,0 0.01148,3.2e-4 0.01176,8e-4 0.00108,9.6e-4 -0.0024,0.02152 -0.00428,0.02616 -0.00216,0.0052 -0.00972,0.0052 -0.01364,-9.2e-4 -0.0056,-0.0088 -0.00928,-0.01628 -0.0094,-0.0214 z"
     id="path815"
     style="fill:#ffffff;stroke:none;stroke-width:0.04" />
  <g
     id="text829"
     style="font-style:normal;font-variant:normal;font-weight:bold;font-stretch:normal;font-size:1.2421459px;line-height:125%;font-family:'Roboto Condensed';-inkscape-font-specification:'Roboto Condensed, Bold';font-variant-ligatures:normal;font-variant-caps:normal;font-variant-numeric:normal;font-feature-settings:normal;text-align:start;letter-spacing:0px;word-spacing:0px;writing-mode:lr-tb;text-anchor:start;fill:#000000;fill-opacity:1;stroke:none;stroke-width:0.03105366px;stroke-linecap:butt;stroke-linejoin:miter;stroke-opacity:1"
     aria-label="FreeSewing">
    <path
       id="path877"
       style="fill:#61dafb;fill-opacity:1;stroke-width:0.03105366px"
       d="M 2.6815708,1.5861531 H 2.4043927 V 1.9464239 H 2.2260768 V 1.0633358 H 2.7149292 V 1.2119323 H 2.4043927 V 1.438163 h 0.2771781 z" />
    <path
       id="path879"
       style="fill:#61dafb;fill-opacity:1;stroke-width:0.03105366px"
       d="m 3.0615085,1.455752 -0.057012,-0.00485 q -0.070356,0 -0.095223,0.061865 V 1.9464239 H 2.7370222 V 1.290173 h 0.1619399 l 0.00485,0.070962 q 0.040637,-0.083093 0.1122056,-0.083093 0.029113,0 0.047308,0.00788 z" />
    <path
       id="path881"
       style="fill:#61dafb;fill-opacity:1;stroke-width:0.03105366px"
       d="m 3.3621162,1.9585542 q -0.1322206,0 -0.2062156,-0.078847 -0.073995,-0.078847 -0.073995,-0.2256242 v -0.05216 q 0,-0.1552682 0.06793,-0.2395741 0.06793,-0.084306 0.1946918,-0.084306 0.1237294,0 0.1862006,0.079454 0.062471,0.078847 0.063684,0.2341154 v 0.084306 H 3.2529432 q 0.00364,0.072782 0.032145,0.1067469 0.028506,0.033358 0.087945,0.033358 0.086125,0 0.1437444,-0.058832 l 0.067323,0.1037144 q -0.031539,0.043669 -0.091584,0.070962 -0.060045,0.026687 -0.1304011,0.026687 z M 3.2541563,1.5558272 h 0.1716442 v -0.015769 q -0.00121,-0.058832 -0.019409,-0.089158 -0.018196,-0.030326 -0.063078,-0.030326 -0.044882,0 -0.065504,0.032145 -0.020015,0.032145 -0.023654,0.1031078 z" />
    <path
       id="path883"
       style="fill:#61dafb;fill-opacity:1;stroke-width:0.03105366px"
       d="m 3.9262216,1.9585542 q -0.1322206,0 -0.2062156,-0.078847 Q 3.646011,1.8008599 3.646011,1.6540829 v -0.05216 q 0,-0.1552682 0.06793,-0.2395741 0.06793,-0.084306 0.1946918,-0.084306 0.1237294,0 0.1862006,0.079454 0.062471,0.078847 0.063684,0.2341154 v 0.084306 H 3.8170486 q 0.00364,0.072782 0.032145,0.1067469 0.028506,0.033358 0.087945,0.033358 0.086125,0 0.1437444,-0.058832 l 0.067323,0.1037144 q -0.031539,0.043669 -0.091584,0.070962 -0.060045,0.026687 -0.1304011,0.026687 z M 3.8182617,1.5558272 h 0.1716441 v -0.015769 q -0.00121,-0.058832 -0.019408,-0.089158 -0.018196,-0.030326 -0.063078,-0.030326 -0.044882,0 -0.065504,0.032145 -0.020015,0.032145 -0.023654,0.1031078 z" />
    <path
       id="path885"
       style="fill:#ffffff;stroke-width:0.03105366px"
       d="m 4.6227318,1.7147346 q 0,-0.05398 -0.0279,-0.081273 -0.027293,-0.0279 -0.1000753,-0.057619 -0.1328271,-0.050341 -0.1910527,-0.1176642 -0.058226,-0.06793 -0.058226,-0.1601204 0,-0.111599 0.078847,-0.1789224 0.079454,-0.06793 0.2013635,-0.06793 0.081273,0 0.1449574,0.034571 0.063684,0.033965 0.097649,0.096436 0.034572,0.062471 0.034572,0.1419249 H 4.6251579 q 0,-0.061865 -0.026687,-0.09401 -0.02608,-0.032752 -0.075815,-0.032752 -0.046702,0 -0.072782,0.0279 -0.02608,0.027293 -0.02608,0.073995 0,0.036391 0.029113,0.06611 0.029113,0.029113 0.1031078,0.060652 0.129188,0.046702 0.1874136,0.1146316 0.058832,0.06793 0.058832,0.1728572 0,0.1152382 -0.073389,0.1801354 -0.073389,0.064897 -0.1995439,0.064897 -0.085519,0 -0.1558748,-0.035178 -0.070356,-0.035178 -0.110386,-0.1006818 -0.039424,-0.065504 -0.039424,-0.1546617 h 0.1789224 q 0,0.076421 0.029719,0.1109925 0.029719,0.034571 0.097043,0.034571 0.093403,0 0.093403,-0.098862 z" />
    <path
       id="path887"
       style="fill:#ffffff;stroke-width:0.03105366px"
       d="m 5.1063838,1.9585542 q -0.1322206,0 -0.2062156,-0.078847 -0.073995,-0.078847 -0.073995,-0.2256242 v -0.05216 q 0,-0.1552682 0.06793,-0.2395741 0.06793,-0.084306 0.1946918,-0.084306 0.1237294,0 0.1862006,0.079454 0.062471,0.078847 0.063684,0.2341154 v 0.084306 H 4.9972108 q 0.00364,0.072782 0.032145,0.1067469 0.028506,0.033358 0.087945,0.033358 0.086125,0 0.1437444,-0.058832 l 0.067323,0.1037144 q -0.031539,0.043669 -0.091584,0.070962 -0.060045,0.026687 -0.1304011,0.026687 z M 4.9984239,1.5558272 H 5.170068 V 1.5400578 Q 5.168855,1.4812257 5.1506595,1.4508999 5.132464,1.420574 5.0875818,1.420574 q -0.044882,0 -0.065504,0.032145 -0.020015,0.032145 -0.023654,0.1031078 z" />
    <path
       id="path889"
       style="fill:#ffffff;stroke-width:0.03105366px"
       d="M 5.8455255,1.6583285 5.9043576,1.290173 h 0.164366 L 5.9328639,1.9464239 H 5.7903325 L 5.6975355,1.5667445 5.6047385,1.9464239 H 5.4616005 L 5.3257408,1.290173 h 0.1649725 l 0.058226,0.368762 0.087338,-0.368762 h 0.1219098 z" />
    <path
       id="path891"
       style="fill:#ffffff;stroke-width:0.03105366px"
       d="M 6.284565,1.9464239 H 6.1123143 V 1.290173 H 6.284565 Z M 6.1044295,1.1203483 q 0,-0.04003 0.025474,-0.065504 0.025474,-0.025474 0.06793,-0.025474 0.042456,0 0.06793,0.025474 0.025474,0.025474 0.025474,0.065504 0,0.039424 -0.025474,0.065504 -0.024867,0.02608 -0.06793,0.02608 -0.043063,0 -0.068536,-0.02608 -0.024867,-0.02608 -0.024867,-0.065504 z" />
    <path
       id="path893"
       style="fill:#ffffff;stroke-width:0.03105366px"
       d="m 6.5177031,1.290173 0.00485,0.064897 q 0.058226,-0.077028 0.1522357,-0.077028 0.1692181,0 0.1740702,0.237148 V 1.9464239 H 6.6766104 V 1.5279275 q 0,-0.0558 -0.016982,-0.080667 -0.016376,-0.025474 -0.058226,-0.025474 -0.046702,0 -0.072782,0.047915 v 0.476722 H 6.3563697 V 1.290173 Z" />
    <path
       id="path895"
       style="fill:#ffffff;stroke-width:0.03105366px"
       d="m 6.8908007,1.5982834 q 0,-0.1613334 0.058226,-0.2407871 0.058226,-0.079454 0.163153,-0.079454 0.089158,0 0.1376792,0.070356 l 0.00667,-0.058226 h 0.1546617 v 0.6562509 q 0,0.1255489 -0.070356,0.1916592 -0.070356,0.066717 -0.20197,0.066717 -0.05398,0 -0.1134186,-0.021835 -0.059439,-0.021228 -0.088551,-0.054586 l 0.057619,-0.1188773 q 0.024261,0.025474 0.063078,0.041243 0.038817,0.016376 0.073389,0.016376 0.057619,0 0.082486,-0.0279 0.025474,-0.027293 0.02608,-0.088551 v -0.056406 q -0.049128,0.064291 -0.127975,0.064291 -0.1049274,0 -0.1625465,-0.081273 -0.057012,-0.08188 -0.058226,-0.2304763 z m 0.1716442,0.043063 q 0,0.090977 0.023654,0.1328271 0.023654,0.041243 0.075208,0.041243 0.052767,0 0.078241,-0.038211 V 1.4636367 q -0.026687,-0.04185 -0.077028,-0.04185 -0.050947,0 -0.075815,0.04185 -0.024261,0.04185 -0.024261,0.1346467 z" />
  </g>
</svg>
