<?xml version="1.0" encoding="UTF-8" standalone="no"?>
<svg
   xmlns:dc="http://purl.org/dc/elements/1.1/"
   xmlns:cc="http://creativecommons.org/ns#"
   xmlns:rdf="http://www.w3.org/1999/02/22-rdf-syntax-ns#"
   xmlns:svg="http://www.w3.org/2000/svg"
   xmlns="http://www.w3.org/2000/svg"
   id="svg562"
   version="1.1"
   viewBox="0 0 264.58335 150.8125"
   height="570"
   width="1000.0001">
  <defs
     id="defs556">
    <marker
       orient="auto"
       refY="0"
       refX="0"
       id="Arrow1MstartQR"
       style="overflow:visible">
      <path
         id="path5084"
         d="M 0,0 5,-5 -12.5,0 5,5 Z"
         style="fill:#ff5b77;fill-rule:evenodd;stroke:#ff5b77;stroke-width:1.00000003pt;marker-start:none"
         transform="matrix(0.4,0,0,0.4,4,0)" />
    </marker>
    <marker
       style="overflow:visible"
       id="Arrow1Mend3"
       refX="0"
       refY="0"
       orient="auto">
      <path
         transform="matrix(-0.4,0,0,-0.4,-4,0)"
         style="fill:#ff5b77;fill-rule:evenodd;stroke:#ff5b77;stroke-width:1.00000003pt;marker-start:none"
         d="M 0,0 5,-5 -12.5,0 5,5 Z"
         id="path5087" />
    </marker>
    <marker
       orient="auto"
       refY="0"
       refX="0"
       id="marker53"
       style="overflow:visible">
      <path
         id="path51"
         d="M 0,0 5,-5 -12.5,0 5,5 Z"
         style="fill:#ff5b77;fill-rule:evenodd;stroke:#ff5b77;stroke-width:1.00000003pt;marker-start:none"
         transform="matrix(0.4,0,0,0.4,4,0)" />
    </marker>
    <marker
       style="overflow:visible"
       id="marker57"
       refX="0"
       refY="0"
       orient="auto">
      <path
         transform="matrix(-0.4,0,0,-0.4,-4,0)"
         style="fill:#ff5b77;fill-rule:evenodd;stroke:#ff5b77;stroke-width:1.00000003pt;marker-start:none"
         d="M 0,0 5,-5 -12.5,0 5,5 Z"
         id="path55" />
    </marker>
  </defs>
  <metadata
     id="metadata559">
    <rdf:RDF>
      <cc:Work
         rdf:about="">
        <dc:format>image/svg+xml</dc:format>
        <dc:type
           rdf:resource="http://purl.org/dc/dcmitype/StillImage" />
        <dc:title></dc:title>
      </cc:Work>
    </rdf:RDF>
  </metadata>
  <g
     transform="translate(0,-47.625)"
     id="layer1">
    <path
       d="m 53.745323,55.951662 -24.994328,3.963973 c 0.17234,1.737551 -0.16973,12.234269 -0.16973,19.328273 -0.91715,7.656869 -0.0723,20.962022 0.86685,27.995622 2.05961,15.42627 0.22904,24.20665 0.22182,38.27184 0,15.45988 -3.1562,37.38627 -3.50111,41.21984 h 79.254465 c -0.34467,-3.83357 -2.45756,-24.63877 -2.45756,-40.09865 0,-21.75303 -1.09245,-35.74092 -1.09245,-41.17962 0.1979,-11.892533 0.37773,-17.332055 1.13757,-26.209032 0,-7.094004 -0.3494,-17.590722 -0.17706,-19.328273 L 77.846803,55.951662 c -2.22784,2.394111 -6.97055,2.235656 -12.04709,2.235656 -5.83693,0.03682 -9.85796,0.124716 -12.05439,-2.235656 z"
       style="fill:#404040;stroke:#000000;stroke-width:2;stroke-linecap:round;stroke-linejoin:round;stroke-miterlimit:4;stroke-dasharray:none"
       id="primary1" />
    <path
       d="m 29.758005,59.796959 c 4.03867,5.842073 7.195088,34.945535 2.25921,43.712951 -3.30051,29.05614 -11.77708,63.63539 -14.76716,87.13685 -7.17153,0.38249 -9.8107903,0.34584 -14.4503403,-1.16564 0.30732,-37.42232 8.0741203,-74.04536 16.6795603,-108.548428 2.64002,-10.08986 6.9666,-21.135733 10.27873,-21.135733 z m 73.645175,0 c -4.038677,5.842073 -7.195107,34.945535 -2.25922,43.712951 3.30051,29.05614 11.77708,63.63539 14.76716,87.13685 7.17153,0.38249 9.81079,0.34584 14.45035,-1.16564 -0.30733,-37.42232 -8.07412,-74.04536 -16.67957,-108.548428 -2.64001,-10.08986 -6.9666,-21.135733 -10.27872,-21.135733 z"
       style="fill:#404040;stroke:#000000;stroke-width:2;stroke-linecap:round;stroke-linejoin:round;stroke-miterlimit:4;stroke-dasharray:none"
       id="primary2" />
    <path
       id="path1665"
       style="fill:#404040;stroke:#000000;stroke-width:2;stroke-linecap:round;stroke-linejoin:round;stroke-miterlimit:4;stroke-dasharray:none"
       d="m 184.70739,55.951662 -24.99433,3.963973 c 0.17234,1.737551 -0.16973,12.234269 -0.16973,19.328273 -0.91715,7.656869 -0.0723,20.962022 0.86685,27.995622 2.05961,15.42627 0.22904,24.20665 0.22182,38.27184 0,15.45988 -3.1562,37.38627 -3.50111,41.21984 h 79.25447 c -0.34467,-3.83357 -2.45756,-24.63877 -2.45756,-40.09865 0,-21.75303 -1.09245,-35.74092 -1.09245,-41.17962 0.1979,-11.892533 0.37773,-17.332055 1.13757,-26.209032 0,-7.094004 -0.3494,-17.590722 -0.17706,-19.328273 l -24.98699,-3.963973 c -2.22784,2.394111 -6.97055,5.158916 -12.04709,5.158916 -5.83693,0.03682 -9.85796,-2.798544 -12.05439,-5.158916 z" />
    <path
       id="path1667"
       style="fill:#404040;stroke:#000000;stroke-width:2;stroke-linecap:round;stroke-linejoin:round;stroke-miterlimit:4;stroke-dasharray:none"
       d="m 160.72007,59.796959 c 4.03867,5.842073 7.19509,34.945535 2.25921,43.712951 -3.30051,29.05614 -11.77708,63.63539 -14.76716,87.13685 -7.17153,0.38249 -9.81079,0.34584 -14.45034,-1.16564 0.30732,-37.42232 8.07412,-74.04536 16.67956,-108.548428 2.64002,-10.08986 6.9666,-21.135733 10.27873,-21.135733 z m 73.64518,0 c -4.03868,5.842073 -7.19511,34.945535 -2.25922,43.712951 3.30051,29.05614 11.77708,63.63539 14.76716,87.13685 7.17153,0.38249 9.81079,0.34584 14.45035,-1.16564 -0.30733,-37.42232 -8.07412,-74.04536 -16.67957,-108.548428 -2.64001,-10.08986 -6.9666,-21.135733 -10.27872,-21.135733 z" />
  </g>
</svg>
