<?xml version="1.0" encoding="UTF-8" standalone="no"?>
<svg
   xmlns:dc="http://purl.org/dc/elements/1.1/"
   xmlns:cc="http://creativecommons.org/ns#"
   xmlns:rdf="http://www.w3.org/1999/02/22-rdf-syntax-ns#"
   xmlns:svg="http://www.w3.org/2000/svg"
   xmlns="http://www.w3.org/2000/svg"
   xmlns:sodipodi="http://sodipodi.sourceforge.net/DTD/sodipodi-0.dtd"
   xmlns:inkscape="http://www.inkscape.org/namespaces/inkscape"
   version="1.1"
   id="svg13134"
   height="546.562"
   width="1016.33"
   sodipodi:docname="shoulderseamlength.svg"
   inkscape:version="0.92.4 (5da689c313, 2019-01-14)">
  <sodipodi:namedview
     pagecolor="#ffffff"
     bordercolor="#666666"
     borderopacity="1"
     objecttolerance="10"
     gridtolerance="10"
     guidetolerance="10"
     inkscape:pageopacity="0"
     inkscape:pageshadow="2"
     inkscape:window-width="640"
     inkscape:window-height="480"
     id="namedview32"
     showgrid="false"
     inkscape:zoom="1.9235924"
     inkscape:cx="616.64363"
     inkscape:cy="349.11539"
     inkscape:current-layer="g14301" />
  <defs
     id="defs13136">
    <marker
       orient="auto"
       refY="0"
       refX="0"
       id="Arrow1Sstart6"
       style="overflow:visible">
      <path
         id="path8850"
         d="M 0,0 5,-5 -12.5,0 5,5 Z"
         style="fill:#ff5b77;fill-rule:evenodd;stroke:#ff5b77;stroke-width:1.00000003pt;marker-start:none"
         transform="matrix(0.2,0,0,0.2,1.2,0)" />
    </marker>
    <marker
       orient="auto"
       refY="0"
       refX="0"
       id="Arrow1SendT"
       style="overflow:visible">
      <path
         id="path8853-1"
         d="M 0,0 5,-5 -12.5,0 5,5 Z"
         style="fill:#ff5b77;fill-rule:evenodd;stroke:#ff5b77;stroke-width:1.00000003pt;marker-start:none"
         transform="matrix(-0.2,0,0,-0.2,-1.2,0)" />
    </marker>
    <marker
       orient="auto"
       refY="0"
       refX="0"
       id="marker1123"
       style="overflow:visible">
      <path
         id="path1121"
         d="M 0,0 5,-5 -12.5,0 5,5 Z"
         style="fill:#ff5b77;fill-rule:evenodd;stroke:#ff5b77;stroke-width:1.00000003pt;marker-start:none"
         transform="matrix(0.2,0,0,0.2,1.2,0)" />
    </marker>
    <marker
       orient="auto"
       refY="0"
       refX="0"
       id="marker1127"
       style="overflow:visible">
      <path
         id="path1125"
         d="M 0,0 5,-5 -12.5,0 5,5 Z"
         style="fill:#ff5b77;fill-rule:evenodd;stroke:#ff5b77;stroke-width:1.00000003pt;marker-start:none"
         transform="matrix(-0.2,0,0,-0.2,-1.2,0)" />
    </marker>
    <marker
       orient="auto"
       refY="0"
       refX="0"
       id="marker1131"
       style="overflow:visible">
      <path
         id="path1129"
         d="M 0,0 5,-5 -12.5,0 5,5 Z"
         style="fill:#ff5b77;fill-rule:evenodd;stroke:#ff5b77;stroke-width:1.00000003pt;marker-start:none"
         transform="matrix(0.2,0,0,0.2,1.2,0)" />
    </marker>
    <marker
       orient="auto"
       refY="0"
       refX="0"
       id="marker1135"
       style="overflow:visible">
      <path
         id="path1133"
         d="M 0,0 5,-5 -12.5,0 5,5 Z"
         style="fill:#ff5b77;fill-rule:evenodd;stroke:#ff5b77;stroke-width:1.00000003pt;marker-start:none"
         transform="matrix(-0.2,0,0,-0.2,-1.2,0)" />
    </marker>
    <marker
       orient="auto"
       refY="0"
       refX="0"
       id="marker1139"
       style="overflow:visible">
      <path
         id="path1137"
         d="M 0,0 5,-5 -12.5,0 5,5 Z"
         style="fill:#ff5b77;fill-rule:evenodd;stroke:#ff5b77;stroke-width:1.00000003pt;marker-start:none"
         transform="matrix(0.2,0,0,0.2,1.2,0)" />
    </marker>
    <marker
       orient="auto"
       refY="0"
       refX="0"
       id="marker1143"
       style="overflow:visible">
      <path
         id="path1141"
         d="M 0,0 5,-5 -12.5,0 5,5 Z"
         style="fill:#ff5b77;fill-rule:evenodd;stroke:#ff5b77;stroke-width:1.00000003pt;marker-start:none"
         transform="matrix(-0.2,0,0,-0.2,-1.2,0)" />
    </marker>
  </defs>
  <g
     transform="translate(-101.002,-456.688)"
     id="layer1">
    <g
       id="g14301">
      <path
         style="fill:#8e8e8e;stroke:#545454;stroke-width:4;stroke-miterlimit:4;stroke-dasharray:none"
         id="back"
         d="m 279.499,464.7 -32.938,23.384 c -6.08121,57.64977 203.25908,78.86751 211.981,5.781 L 421.601,464.7 c -9.437,9.437 -49.30071,16.36158 -70.80571,16.36158 C 326.07129,481.20658 288.804,474.004 279.499,464.7 Z"
         inkscape:connector-curvature="0"
         sodipodi:nodetypes="cccccc" />
      <path
         style="fill:#212121;stroke:#545454;stroke-width:4;stroke-miterlimit:4;stroke-dasharray:none"
         d="m 279.499,464.7 -85.857,9.599 c 0.731,6.849 -0.739,48.226 -0.739,76.189 0,27.821 -2.182,51.688 -11.673,66.517 -5.111,7.344 13.127,24.65 6.556,24.65 0,21.438 24.697,82.1 24.697,167.845 0,60.939 -28.334,149.568 -29.794,164.679 h 335.723 c -1.46,-15.111 -29.794,-103.74 -29.794,-164.679 0,-85.745 24.697,-146.407 24.697,-167.845 0,0 11.667,-17.306 6.556,-24.65 -9.491,-14.829 -11.673,-38.696 -11.673,-66.517 0,-27.963 -1.47,-69.34 -0.74,-76.189 L 421.601,464.7 c 0,13.822 -29.57814,52.57003 -70.53114,52.80903 C 310.11786,517.27003 279.499,478.522 279.499,464.7 Z"
         id="front"
         inkscape:connector-curvature="0"
         sodipodi:nodetypes="ccsccsccsccscccc" />
      <path
         style="fill:#212121;stroke:#545454;stroke-width:4;stroke-miterlimit:4;stroke-dasharray:none"
         id="sleeves"
         transform="translate(100.999,445.844)"
         d="M 93.5313,28 C 79.5014,28 58.9645,56.0721 47.7813,95.8438 16.6715,207.107 -6.30823,535.903 4.875,554.812 36.4055,554.812 25.6546,555.406 58.5625,555.406 66.8991,535.48 69.3155,448.056 81.7188,316.094 83.1421,280.917 84.1801,206.489 91.5,177.656 111.02,144.005 99.4279,52.1964 93.5313,28 z M 407.156,28 C 401.26,52.1964 389.668,144.005 409.187,177.656 416.507,206.489 420.17,280.917 421.594,316.094 434.2,448.869 434.805,518.197 442.125,555.406 484.022,555.406 471.146,554.812 495.812,554.812 506.792,525.939 484.016,207.107 452.906,95.8438 441.723,56.0721 421.186,28 407.156,28 z" />
      <path
         style="fill:none;stroke:#545454;stroke-width:4;stroke-miterlimit:4;stroke-dasharray:none"
         d="M 372.77425,568.79505 C 307.60641,579.05016 272.48548,532.3071 279.499,464.7"
         id="front-3"
         inkscape:connector-curvature="0"
         sodipodi:nodetypes="cc" />
      <path
         style="fill:none;stroke:#545454;stroke-width:4;stroke-miterlimit:4;stroke-dasharray:none"
         d="m 421.601,464.7 c -2.60132,39.07383 -18.89225,81.63842 -88.72626,76.20276"
         id="front-3-6"
         inkscape:connector-curvature="0"
         sodipodi:nodetypes="cc" />
      <path
         style="fill:none;stroke:#545454;stroke-width:4;stroke-miterlimit:4;stroke-dasharray:none"
         d="M 388.04834,633.25735 C 309.55144,664.61448 280.61041,576.72403 276.20292,536.3465"
         id="front-3-7"
         inkscape:connector-curvature="0"
         sodipodi:nodetypes="cc" />
      <path
         style="fill:none;stroke:#545454;stroke-width:4;stroke-miterlimit:4;stroke-dasharray:none"
         d="m 432.75634,519.92771 c -8.93261,31.83974 -50.09216,110.23722 -104.0475,79.84179"
         id="front-3-3"
         inkscape:connector-curvature="0"
         sodipodi:nodetypes="cc" />
      <path
         style="fill:#8e8e8e;stroke:#545454;stroke-width:4;stroke-miterlimit:4;stroke-dasharray:none"
         id="back-3"
         d="m 735.213,470.7 16.66479,32.97982 c -6.08121,57.64977 228.21239,66.39085 236.93431,-6.69566 L 997.315,470.7 c -9.437,9.437 -105.90698,14.00061 -127.41198,14.00061 C 845.17902,484.84561 744.518,480.004 735.213,470.7 Z"
         inkscape:connector-curvature="0"
         sodipodi:nodetypes="cccccc" />
      <path
         style="fill:#212121;stroke:#545454;stroke-width:4;stroke-miterlimit:4;stroke-dasharray:none"
         d="m 735.213,470.7 -25.857,3.599 c 0.731,6.849 -0.739,48.226 -0.739,76.189 0,27.821 -2.182,51.688 -11.673,66.517 -5.111,7.344 13.127,24.65 6.556,24.65 0,21.438 24.697,82.1 24.697,167.845 0,60.939 -28.334,149.568 -29.794,164.679 h 335.723 c -1.46,-15.111 -29.794,-103.74 -29.794,-164.679 0,-85.745 24.697,-146.407 24.697,-167.845 0,0 11.667,-17.306 6.556,-24.65 -9.491,-14.829 -11.673,-38.696 -11.673,-66.517 0,-27.963 -1.47,-69.34 -0.74,-76.189 L 997.315,470.7 c 0,13.822 -89.57814,46.57003 -130.53114,46.80903 C 825.83186,517.27003 735.213,484.522 735.213,470.7 Z"
         id="front-6"
         inkscape:connector-curvature="0"
         sodipodi:nodetypes="ccsccsccsccscccc" />
      <path
         inkscape:connector-curvature="0"
         style="fill:#212121;stroke:#545454;stroke-width:4;stroke-miterlimit:4;stroke-dasharray:none"
         id="sleeves-7"
         d="m 710.2443,473.844 c -14.0299,0 -34.5668,28.0721 -45.75,67.8438 -31.1098,111.2632 -54.08953,440.0592 -42.9063,458.9682 31.5305,0 20.7796,0.594 53.6875,0.594 8.3366,-19.926 10.753,-107.35 23.1563,-239.312 1.4233,-35.177 2.4613,-109.605 9.7812,-138.438 19.52,-33.651 7.9279,-125.4596 2.0313,-149.656 z m 313.6247,0 c -5.896,24.1964 -17.488,116.005 2.031,149.656 7.32,28.833 10.983,103.261 12.407,138.438 12.606,132.775 13.211,202.103 20.531,239.312 41.897,0 29.021,-0.594 53.687,-0.594 10.98,-28.873 -11.796,-347.705 -42.906,-458.9682 -11.183,-39.7717 -31.72,-67.8438 -45.75,-67.8438 z" />
      <path
         style="fill:none;stroke:#545454;stroke-width:4;stroke-miterlimit:4;stroke-dasharray:none"
         d="M 888.48825,568.79505 C 823.88899,579.39864 767.0189,562.09965 735.213,470.7"
         id="front-3-5"
         inkscape:connector-curvature="0"
         sodipodi:nodetypes="cc" />
      <path
         style="fill:none;stroke:#545454;stroke-width:4;stroke-miterlimit:4;stroke-dasharray:none"
         d="m 997.315,470.7 c -2.60132,39.07383 -78.89225,75.63842 -148.72626,70.20276"
         id="front-3-6-3"
         inkscape:connector-curvature="0"
         sodipodi:nodetypes="cc" />
      <path
         style="fill:none;stroke:#545454;stroke-width:4;stroke-miterlimit:4;stroke-dasharray:none"
         d="M 903.76234,633.25735 C 828.13774,664.61448 771.08067,598.03831 756.56639,557.66078"
         id="front-3-7-5"
         inkscape:connector-curvature="0"
         sodipodi:nodetypes="cc" />
      <path
         style="fill:none;stroke:#545454;stroke-width:4;stroke-miterlimit:4;stroke-dasharray:none"
         d="m 981.74143,531.36464 c -8.93261,31.83974 -83.36325,98.80029 -137.31859,68.40486"
         id="front-3-3-6"
         inkscape:connector-curvature="0"
         sodipodi:nodetypes="cc" />
    </g>
  </g>
  <metadata
     id="metadata14382">
    <rdf:RDF>
      <cc:Work
         rdf:about="">
        <dc:title />
        <dc:format>image/svg+xml</dc:format>
        <dc:type
           rdf:resource="http://purl.org/dc/dcmitype/StillImage" />
      </cc:Work>
    </rdf:RDF>
  </metadata>
</svg>
