<?xml version="1.0" encoding="UTF-8" standalone="no"?>
<!-- Created with Inkscape (http://www.inkscape.org/) -->

<svg
   version="1.1"
   id="svg1"
   width="280"
   height="300"
   viewBox="0 0 280 300"
   sodipodi:docname="backwidth.svg"
   inkscape:version="1.4 (e7c3feb100, 2024-10-09)"
   xml:space="preserve"
   xmlns:inkscape="http://www.inkscape.org/namespaces/inkscape"
   xmlns:sodipodi="http://sodipodi.sourceforge.net/DTD/sodipodi-0.dtd"
   xmlns="http://www.w3.org/2000/svg"
   xmlns:svg="http://www.w3.org/2000/svg"><defs
     id="defs1" /><sodipodi:namedview
     id="namedview1"
     pagecolor="#ffffff"
     bordercolor="#000000"
     borderopacity="0.25"
     inkscape:showpageshadow="2"
     inkscape:pageopacity="0.0"
     inkscape:pagecheckerboard="0"
     inkscape:deskcolor="#d1d1d1"
     inkscape:zoom="1"
     inkscape:cx="122"
     inkscape:cy="136.5"
     inkscape:window-width="2256"
     inkscape:window-height="1427"
     inkscape:window-x="0"
     inkscape:window-y="0"
     inkscape:window-maximized="1"
     inkscape:current-layer="g1"
     showgrid="false"><inkscape:grid
       id="grid1"
       units="px"
       originx="0"
       originy="0"
       spacingx="1"
       spacingy="1"
       empcolor="#0099e5"
       empopacity="0.30196078"
       color="#0099e5"
       opacity="0.14901961"
       empspacing="5"
       enabled="true"
       visible="false" /></sodipodi:namedview><g
     inkscape:groupmode="layer"
     inkscape:label="Image"
     id="g1"><path
       id="path3"
       style="fill:#e6e6e6;stroke:none;stroke-width:3;stroke-linecap:round;stroke-linejoin:round"
       d="m 216.05469,36.914062 -0.29102,0.0625 c -1.74625,-1.107044 -8.41023,2.588283 -17.35547,9.376954 2.83287,27.738555 -11.87972,41.561821 -41.84179,39.986328 -16.36397,19.074396 -30.2619,40.622156 -32.30078,58.960936 -1.58194,14.22851 8.01821,30.05713 20.2871,38.34766 27.90894,18.85909 98.75553,26.50703 101.84766,12.77343 1.61319,-4.24776 -12.51885,-28.65529 -16.37109,-44.62304 -9.054,-37.52975 26.75452,-85.623789 -13.78907,-114.765627 -0.0665,-0.0425 -0.11925,-0.07671 -0.18554,-0.119141 z M 33.5,167.72656 c -0.04818,4.19772 23.554309,8.81053 33.949219,4.32227 C 81.257799,166.08666 89.718386,150.147 92.566406,135.98828 95.842526,119.70112 88.183057,102.74111 81.810547,87.304687 79.444068,81.57227 75.686042,76.443122 71.697266,71.427734 l 0.01563,0.0625 c 7.82148,20.596899 13.349763,43.113976 4.033203,61.732426 -6.94251,13.87412 -32.335187,18.36752 -39.441407,26.81445 -1.782359,2.11861 -2.780687,5.63185 -2.804687,7.68945 z M 82.914062,21.09375 C 75.29499,24.787069 89.822956,40.137882 100.01367,44.808594 96.307569,35.906402 96.665899,24.970703 82.914062,21.09375 Z" /><path
       d="m 82.914062,21.09375 -26.773437,6.511719 c -4.58766,1.115679 -2.397239,11.958654 -0.880859,17.679687 2.616509,9.871685 9.843328,17.851231 16.4375,26.142578 v 0 c 3.988776,5.015388 7.746802,10.144536 10.113281,15.876953 6.37251,15.436423 14.031979,32.396433 10.755859,48.683593 C 89.718386,150.147 81.257799,166.08666 67.449219,172.04883 57.054309,176.53709 33.45182,171.92428 33.5,167.72656 l 0.404297,65.0918 c 0.2223,10.24537 44.278929,38.13939 118.953123,45.03516 74.6742,6.89576 80.24414,-22.36133 80.24414,-22.36133 l 13.29883,-59.07032 c -3.09213,13.7336 -73.93872,6.08566 -101.84766,-12.77343 -12.26889,-8.29053 -21.86904,-24.11915 -20.2871,-38.34766 2.03888,-18.33878 15.93681,-39.88654 32.30078,-58.960936 0,0 0,0 0,0 14.09891,-16.434182 29.97359,-30.979373 41.84179,-39.986328 0,0 0,0 0,0 8.94524,-6.788671 15.60922,-10.483998 17.35547,-9.376954 l 0.29102,-0.0625 c -13.54116,-8.667108 -23.10849,-15.767859 -31.0918,-13.044921 -27.21861,13.854678 -55.81222,30.621941 -82.92187,21.74414 -0.64905,-0.212547 -1.32904,-0.484633 -2.02735,-0.804687 0,0 0,0 0,0 C 89.822956,40.137882 75.29499,24.787069 82.914062,21.09375 Z"
       style="fill:#f9f9f9;stroke:none;stroke-width:3;stroke-linecap:round;stroke-linejoin:round"
       id="path2" /><path
       id="path17"
       style="font-variation-settings:normal;fill:none;fill-opacity:1;stroke:#b3b3b3;stroke-width:1;stroke-linecap:round;stroke-linejoin:round;stroke-miterlimit:4;stroke-dasharray:none;stroke-dashoffset:0;stroke-opacity:1;stop-color:#000000"
       d="m 67.475424,147.04669 c 7.63626,8.84863 6.50979,14.22703 7.02591,20.25594 m 14.85345,86.79875 -1.40031,10.92866 m 33.338756,-1.88549 c 3.60894,-26.97442 3.18981,-52.14083 19.99251,-74.45991 m -78.196466,54.22437 c 3.65121,-23.78889 8.07945,-44.06309 1.0761,-65.60871 M 224.60195,154.43234 c -20.95224,7.80911 -25.92951,26.28327 -29.52372,46.51573 M 33.815004,222.49419 c 0.72408,4.45052 45.28929,38.71725 119.963456,45.61302 74.6742,6.89577 82.8744,-27.51869 82.8744,-27.51869"
       sodipodi:nodetypes="cccccccccccsc" /><path
       style="fill:none;stroke:#ff0000;stroke-width:3;stroke-linecap:round;stroke-dasharray:none;paint-order:stroke fill markers"
       d="M 169.62273,72.112694 C 131.89499,98.405263 66.874692,169.44359 170,195"
       id="path6"
       sodipodi:nodetypes="cc" /><path
       id="path19"
       style="font-variation-settings:normal;fill:none;fill-opacity:1;stroke:#b3b3b3;stroke-width:1;stroke-linecap:round;stroke-linejoin:round;stroke-miterlimit:4;stroke-dasharray:none;stroke-dashoffset:0;stroke-opacity:1;stop-color:#000000"
       d="m 33.815004,217.46792 c 0.72408,4.45052 45.28929,38.71726 119.963456,45.61303 74.6742,6.89576 83.68764,-27.5187 83.68764,-27.5187 M 78.109794,79.767521 c 4.47267,9.746301 9.22023,32.088069 5.0181,47.487309 -1.93476,7.09023 -7.51656,13.09381 -13.19982,18.04103 -7.87191,6.85244 -19.25241,9.03369 -27.79284,15.12009 -3.09246,2.20387 -8.12871,5.15988 -8.34975,7.64754 m 25.1508,-141.198634 c -4.75173,1.345272 0.2367,14.881256 2.75712,21.795461 5.2278,14.340465 19.31748,24.669963 24.93366,38.877165 6.61806,16.741808 14.445506,35.579358 9.62682,52.867448 -4.30233,15.43551 -14.64,34.92619 -32.05557,36.96663 -7.24086,0.84835 -30.93357,0.78018 -30.73449,-5.18891 M 199.04261,26.446631 c -6.91953,-3.510773 -13.81494,1.144676 -18.7485,4.125834 -11.03805,6.669858 -24.29838,14.456064 -38.0124,17.452356 -14.74164,3.220809 -31.79004,6.397695 -45.378266,0.08175 -9.98016,-4.638876 -23.97045,-15.603498 -20.41389,-25.040261 m 18.07917,18.591833 c 0,0 -2.96382,-14.225569 -13.6335,-17.042514 M 200.21111,45.409457 c 1.56711,-0.744738 5.56365,18.931251 -4.15737,30.293973 -8.14572,9.521319 -15.08979,15.659211 -43.26759,14.78112 m 91.95783,108.68907 c 0.56703,-4.84852 -8.29179,-17.34201 -12.76497,-27.38407 -2.35671,-5.29071 -4.22391,-7.08004 -7.60923,-17.78997 -3.71559,-11.75486 -1.04886,-24.63446 -0.1086,-36.90302 1.05582,-13.77814 7.52952,-27.288294 6.4389,-40.989594 -0.648,-8.14095 -0.59574,-16.618401 -4.22172,-23.938542 -2.9736,-6.003078 -7.2831,-11.456259 -13.71414,-15.043962 m -1.33407,-3.090642 c -2.4975,-1.938681 -7.82238,2.651535 -11.19774,4.872231 -19.9494,13.12509 -37.97214,29.695545 -51.66129,48.735048 -13.88523,19.312221 -30.81789,41.009351 -29.4159,64.362151 0.84684,14.10564 10.02897,28.73593 22.3053,36.70293 28.68339,18.61474 92.40513,26.09853 103.00764,14.9153"
       sodipodi:nodetypes="csccsssccccssccsssccccsccsscsscccsssc" /><path
       style="fill:none;stroke:#ff0000;stroke-width:3;stroke-linecap:round;stroke-dasharray:none;paint-order:stroke fill markers"
       d="M 61.242779,57.855489 C 120.6539,117.35039 108.80427,181.13604 45.444173,172.96048"
       id="path7"
       sodipodi:nodetypes="cc" /><path
       id="path136"
       style="font-variation-settings:normal;fill:none;fill-opacity:1;stroke:#000000;stroke-width:3;stroke-linecap:round;stroke-linejoin:round;stroke-miterlimit:4;stroke-dasharray:none;stroke-dashoffset:0;stroke-opacity:1"
       d="m 233.10179,255.4913 13.29951,-59.06947 m -212.496326,36.39616 -0.40416,-65.09236 m 0.40416,65.09236 c 0.2223,10.24537 44.27886,38.13916 118.953056,45.03493 74.6742,6.89576 80.24376,-22.36162 80.24376,-22.36162 m -34.695,-209.168082 c 2.85012,27.784986 -11.89101,41.62041 -41.91897,40.015221 m 28.47483,-62.470128 c 8.02239,-2.736268 17.63148,4.440062 31.27821,13.164888 40.54359,29.141838 4.734,77.235521 13.788,114.765271 3.85224,15.96775 17.98563,40.37559 16.37244,44.62336 -3.09213,13.7336 -73.93902,6.08564 -101.84796,-12.77345 -12.26889,-8.29053 -21.86946,-24.11981 -20.28753,-38.34832 C 129.3854,99.251921 209.01218,32.695529 215.76437,36.976109 M 82.914324,21.094618 56.139714,27.60598 c -4.58766,1.115679 -2.3958,11.958547 -0.87942,17.67958 4.19922,15.843009 20.27076,26.810139 26.54946,42.019284 6.37251,15.436426 14.03367,32.397206 10.75755,48.684366 -2.84802,14.15872 -11.30937,30.09653 -25.11795,36.0587 -10.39491,4.48826 -33.99672,-0.12456 -33.94854,-4.32228 0.024,-2.0576 1.02183,-5.57038 2.80419,-7.68899 7.10622,-8.44693 32.49927,-12.93959 39.44178,-26.81371 9.31656,-18.61845 3.78804,-41.134868 -4.03344,-61.731767 m 11.20098,-50.396545 c 13.82382,3.897247 13.3836,14.9299 17.152436,23.857012 M 82.914324,21.094618 c -8.14116,3.946399 9.00498,21.205273 19.125836,24.519631 27.10965,8.877801 55.70388,-7.89126 82.92249,-21.745938"
       sodipodi:nodetypes="cccccscccccscscccscsssccsccccsc" /><path
       id="path1"
       style="fill:#0066ff;stroke:none;paint-order:stroke fill markers"
       d="m 125.93156,141.15077 -7.69846,-11.86312 -1.55606,7.30885 -14.67117,-3.1235 1.55889,-7.32223 -11.863122,7.69846 7.698457,11.86312 1.561745,-7.33559 14.67119,3.1235 -1.5646,7.34897 z" /><path
       style="fill:none;stroke:#0066ff;stroke-width:3;stroke-linecap:round;stroke-dasharray:none;paint-order:stroke fill markers"
       d="M 169.62273,72.112694 C 152.78615,90.48455 105,170 170,195"
       id="path4"
       sodipodi:nodetypes="cc" /><path
       style="fill:none;stroke:#0066ff;stroke-width:3;stroke-linecap:round;stroke-dasharray:none;paint-order:stroke fill markers"
       d="M 61.242779,57.855489 C 87.869843,90.392971 100,180 45.444173,172.96048"
       id="path5"
       sodipodi:nodetypes="cc" /></g></svg>
