<?xml version="1.0" encoding="UTF-8" standalone="no"?>
<!-- Created with Inkscape (http://www.inkscape.org/) -->

<svg
   version="1.1"
   id="template"
   width="280"
   height="200"
   viewBox="0 0 280 200"
   sodipodi:docname="strapangle.svg"
   inkscape:version="1.4 (e7c3feb100, 2024-10-09)"
   xml:space="preserve"
   xmlns:inkscape="http://www.inkscape.org/namespaces/inkscape"
   xmlns:sodipodi="http://sodipodi.sourceforge.net/DTD/sodipodi-0.dtd"
   xmlns="http://www.w3.org/2000/svg"
   xmlns:svg="http://www.w3.org/2000/svg"><defs
     id="defs1"><inkscape:path-effect
       effect="offset"
       id="path-effect34"
       is_visible="true"
       lpeversion="1.3"
       linejoin_type="miter"
       unit="mm"
       offset="1.2"
       miter_limit="4"
       attempt_force_join="false"
       update_on_knot_move="true" /><inkscape:path-effect
       effect="offset"
       id="path-effect32"
       is_visible="true"
       lpeversion="1.3"
       linejoin_type="miter"
       unit="mm"
       offset="-1.2"
       miter_limit="4"
       attempt_force_join="false"
       update_on_knot_move="true" /></defs><sodipodi:namedview
     id="namedview1"
     pagecolor="#ffffff"
     bordercolor="#000000"
     borderopacity="0.25"
     inkscape:showpageshadow="2"
     inkscape:pageopacity="0.0"
     inkscape:pagecheckerboard="0"
     inkscape:deskcolor="#d1d1d1"
     inkscape:zoom="4.3202652"
     inkscape:cx="149.29639"
     inkscape:cy="84.601289"
     inkscape:window-width="2256"
     inkscape:window-height="1427"
     inkscape:window-x="0"
     inkscape:window-y="0"
     inkscape:window-maximized="1"
     inkscape:current-layer="g1"
     showgrid="false"><inkscape:grid
       id="grid5"
       units="px"
       originx="0"
       originy="0"
       spacingx="1"
       spacingy="1"
       empcolor="#0099e5"
       empopacity="0.30196078"
       color="#0099e5"
       opacity="0.14901961"
       empspacing="5"
       enabled="true"
       visible="false" /></sodipodi:namedview><g
     inkscape:groupmode="layer"
     inkscape:label="Image"
     id="g1"><path
       id="path30"
       style="fill:#e6e6e6;fill-opacity:1;stroke:#000000;stroke-width:3;stroke-linecap:round;stroke-linejoin:round;paint-order:markers fill stroke"
       d="m 215.74511,64.4353 c 3.95374,5.97743 7.67461,13.12592 10.48438,21.75391 2.77901,8.53355 11.3418,19.14843 11.3418,19.14843 0,-17.75188 -8.53291,-33.28211 -21.82618,-40.90234 z M 42.428709,105.33764 c 0,0 8.562775,-10.61488 11.341796,-19.14843 2.848912,-8.74817 6.407543,-15.77541 10.164063,-21.57227 -13.110424,7.68524 -21.505859,23.11105 -21.505859,40.7207 z" /><path
       d="m 94.387693,52.59316 c -2.490533,1.53119 -4.716967,3.17422 -6.646485,4.90472 19.976902,-1.64173 84.345162,-1.76144 104.484372,-0.0328 -1.92132,-1.71895 -4.13789,-3.35003 -6.61328,-4.87192 -11.52149,-0.13402 -27.54946,-0.5893 -31.05859,-2.06418 -3.99837,-1.68049 8.39948,-3.47968 15.78125,-4.72855 -8.71834,-2.7275 -18.96644,-4.349489 -30.33594,-4.349489 -11.3695,0 -21.61565,1.621989 -30.33398,4.349489 7.38179,1.24887 19.77958,3.04808 15.78125,4.72855 -3.50914,1.47488 -19.5371,1.93016 -31.058597,2.06418 z"
       style="fill:#e6e6e6;fill-opacity:1;stroke:#000000;stroke-width:3;stroke-linejoin:round;stroke-dasharray:none;paint-order:markers fill stroke"
       id="path29" /><path
       id="path31"
       style="font-variation-settings:normal;opacity:1;vector-effect:none;fill:#f9f9f9;fill-opacity:1;stroke:none;stroke-width:3;stroke-linecap:round;stroke-linejoin:round;stroke-miterlimit:4;stroke-dasharray:none;stroke-dashoffset:0;stroke-opacity:1;-inkscape-stroke:none;paint-order:markers fill stroke;stop-color:#000000;stop-opacity:1"
       d="m 139.99902,32.714598 c -17.23844,-0.0619 -34.4764,1.84968 -51.714843,5.91992 -4.078497,4.795692 -14.86315,11.343442 -24.349609,25.982422 -3.75652,5.79686 -7.31515,12.8241 -10.164063,21.57227 -2.779021,8.53355 -11.341796,19.14843 -11.341796,19.14843 16.09854,60.08057 73.838821,46.29981 97.570311,46.2998 2.34587,0 5.08939,0.14776 8.13812,0.35473 27.79308,1.88678 80.95089,8.69476 89.43415,-46.65453 0,0 -8.56279,-10.61488 -11.3418,-19.14843 -2.80977,-8.62799 -6.53064,-15.77648 -10.48438,-21.75391 -10.17863,-15.38853 -21.946,-22.767292 -24.02929,-25.800782 -17.23845,-3.82261 -34.47836,-5.85802 -51.7168,-5.91992 z m 0,8.73632 c 11.3695,0 21.6176,2.607482 30.33594,6.992192 5.81873,2.92641 10.95268,6.64563 15.27734,10.91992 2.47539,2.44657 4.69196,5.06867 6.61328,7.83203 4.67927,6.73003 7.64664,14.26582 8.56055,21.94922 1.50153,12.62367 -23.106,46.51205 -60.78613,46.67519 -37.67903,-0.16382 -62.287636,-34.05174 -60.786135,-46.67519 0.911608,-7.6641 3.868413,-15.17932 8.527344,-21.89648 1.929518,-2.78194 4.155951,-5.42324 6.646484,-7.88477 4.32466,-4.27429 9.458617,-7.99351 15.277347,-10.91992 8.71833,-4.38471 18.96448,-6.992192 30.33398,-6.992192 z"
       sodipodi:nodetypes="scsscsscsscsssssscsssss" /><path
       style="font-variation-settings:normal;opacity:1;vector-effect:none;fill:none;fill-opacity:1;stroke:#b3b3b3;stroke-width:1;stroke-linecap:round;stroke-linejoin:round;stroke-miterlimit:4;stroke-dasharray:none;stroke-dashoffset:0;stroke-opacity:1;-inkscape-stroke:none;paint-order:markers fill stroke;stop-color:#000000;stop-opacity:1"
       d="m 94.144378,37.333728 c -1.062971,1.24989 -4.679417,6.618952 -6.027514,7.822482 -5.389756,4.81176 -13.204476,10.86025 -20.376163,21.92721 -3.550762,5.47934 -6.936995,12.15578 -9.65768,20.5102 -1.642756,5.04441 -4.653166,9.9999 -7.255488,13.89116 -1.301162,1.94563 -2.503868,3.60162 -3.388846,4.78184 -0.884978,1.18022 -2.84856,3.2828 -3.439324,4.01514 m 192.485077,0.39686 c -0.59076,-0.73234 -3.03815,-3.23178 -3.92313,-4.412 -0.88498,-1.18022 -2.08769,-2.83621 -3.38885,-4.78184 -2.60232,-3.89125 -5.61274,-8.84675 -7.25549,-13.89117 -2.66789,-8.19231 -6.20384,-14.98555 -9.95466,-20.6562 -5.78428,-8.74494 -12.13413,-14.79881 -16.82359,-18.94443 -1.87945,-1.6615 -3.48955,-3.00967 -4.80187,-4.22121 -0.87489,-0.8077 -3.85249,-5.306632 -4.59685,-6.390502"
       id="path32"
       sodipodi:nodetypes="csssssccssssssc" /><path
       style="font-variation-settings:normal;opacity:1;vector-effect:none;fill:none;fill-opacity:1;stroke:#b3b3b3;stroke-width:1;stroke-linecap:round;stroke-linejoin:round;stroke-miterlimit:4;stroke-dasharray:none;stroke-dashoffset:0;stroke-opacity:1;-inkscape-stroke:none;paint-order:markers fill stroke;stop-color:#000000;stop-opacity:1"
       inkscape:path-effect="#path-effect34"
       inkscape:original-d="m 44.791016,-251.48633 c -5.818729,2.92641 -10.952684,6.64563 -15.277344,10.91992 -2.490533,2.46153 -4.716966,5.10283 -6.646484,7.88477 -4.658931,6.71716 -7.615736,14.23238 -8.527344,21.89648 -1.501501,12.62345 23.107106,44.51137 60.786135,44.67519 37.680131,-0.16314 62.287661,-32.05152 60.786131,-44.67519 -0.91391,-7.6834 -3.88128,-15.21919 -8.56055,-21.94922 -1.92132,-2.76336 -4.13789,-5.38546 -6.61328,-7.83203 -4.32466,-4.27429 -9.45861,-7.99351 -15.27734,-10.91992 -8.718341,-4.38471 -18.966439,-4.99219 -30.33594,-4.99219 -11.369499,0 -21.615649,0.60748 -30.333984,4.99219 z"
       d="m 75.125,-261.01367 c -11.440966,0 -22.605587,0.56324 -32.371094,5.47461 -6.239318,3.13793 -11.762811,7.1355 -16.427734,11.74609 -2.682412,2.65118 -5.09156,5.50828 -7.185547,8.52735 -5.047176,7.27692 -8.298786,15.48846 -9.3046875,23.94531 -1.06179,8.9267 6.6515405,21.48438 17.1777345,30.92187 11.370239,10.19424 27.978782,18.73677 48.09375,18.82422 h 0.01953 0.01953 c 20.115519,-0.0871 36.724096,-8.62984 48.093746,-18.82422 10.52566,-9.43761 18.23755,-21.99544 17.17579,-30.92187 -1.00834,-8.47727 -4.27022,-16.71244 -9.33985,-24.00391 -2.08649,-3.00091 -4.48609,-5.83546 -7.15039,-8.46875 -4.66492,-4.61059 -10.18841,-8.60816 -16.42773,-11.74609 -9.765756,-4.91149 -20.932082,-5.47461 -32.37305,-5.47461 z"
       id="path33"
       sodipodi:nodetypes="sssscssssss"
       transform="translate(64.874021,299.92944)" /><path
       id="path49"
       style="font-variation-settings:normal;opacity:1;vector-effect:none;fill:none;fill-opacity:1;stroke:#000000;stroke-width:3;stroke-linecap:round;stroke-linejoin:round;stroke-miterlimit:4;stroke-dasharray:none;stroke-dashoffset:0;stroke-opacity:1;-inkscape-stroke:none;paint-order:markers fill stroke;stop-color:#000000;stop-opacity:1"
       d="m 139.99902,32.714598 c -17.23844,-0.0619 -34.4764,1.84968 -51.714843,5.91992 -4.078497,4.795692 -14.86315,11.343442 -24.349609,25.982422 -3.75652,5.79686 -7.31515,12.8241 -10.164063,21.57227 -2.779021,8.53355 -11.341796,19.14843 -11.341796,19.14843 16.09854,60.08057 73.838821,46.29981 97.570311,46.2998 2.34587,0 5.08939,0.14776 8.13812,0.35473 27.79308,1.88678 80.95089,8.69476 89.43415,-46.65453 0,0 -8.56279,-10.61488 -11.3418,-19.14843 -2.80977,-8.62799 -6.53064,-15.77648 -10.48438,-21.75391 -10.17863,-15.38853 -21.946,-22.767292 -24.02929,-25.800782 -17.23845,-3.82261 -34.47836,-5.85802 -51.7168,-5.91992 z m 0,8.73632 c 11.3695,0 21.6176,2.607482 30.33594,6.992192 5.81873,2.92641 10.95268,6.64563 15.27734,10.91992 2.47539,2.44657 4.69196,5.06867 6.61328,7.83203 4.67927,6.73003 7.64664,14.26582 8.56055,21.94922 1.50153,12.62367 -23.106,46.51205 -60.78613,46.67519 -37.67903,-0.16382 -62.287636,-34.05174 -60.786135,-46.67519 0.911608,-7.6641 3.868413,-15.17932 8.527344,-21.89648 1.929518,-2.78194 4.155951,-5.42324 6.646484,-7.88477 4.32466,-4.27429 9.458617,-7.99351 15.277347,-10.91992 8.71833,-4.38471 18.96448,-6.992192 30.33398,-6.992192 z"
       sodipodi:nodetypes="scsscsscsscsssssscsssss" /><path
       style="font-variation-settings:normal;opacity:1;fill:none;fill-opacity:1;stroke:#ffffff;stroke-width:5;stroke-linecap:butt;stroke-linejoin:bevel;stroke-miterlimit:4;stroke-dasharray:none;stroke-dashoffset:0;stroke-opacity:1;paint-order:markers fill stroke"
       d="m 171.76214,17.029457 72.742,114.350933"
       id="path44"
       sodipodi:nodetypes="cc" /><path
       style="font-variation-settings:normal;opacity:1;vector-effect:none;fill:none;fill-opacity:1;stroke:#b3b3b3;stroke-width:1;stroke-linecap:round;stroke-linejoin:round;stroke-miterlimit:4;stroke-dasharray:none;stroke-dashoffset:0;stroke-opacity:1;-inkscape-stroke:none;paint-order:markers fill stroke;stop-color:#000000;stop-opacity:1"
       d="m 195.95019,64.60522 14.27995,-0.18637"
       id="path38"
       sodipodi:nodetypes="cc" /><path
       style="font-variation-settings:normal;opacity:1;fill:none;fill-opacity:1;stroke:#ffffff;stroke-width:5;stroke-linecap:round;stroke-linejoin:bevel;stroke-miterlimit:4;stroke-dasharray:none;stroke-dashoffset:0;stroke-opacity:1;paint-order:markers fill stroke"
       d="m 201.59017,63.91934 -0.0255,193.64507"
       id="path45"
       sodipodi:nodetypes="cc" /><path
       style="font-variation-settings:normal;opacity:1;fill:none;fill-opacity:1;stroke:#ffffff;stroke-width:5;stroke-linecap:round;stroke-linejoin:round;stroke-miterlimit:4;stroke-dasharray:none;stroke-dashoffset:0;stroke-opacity:1;paint-order:markers fill stroke;stop-color:#000000;stop-opacity:1"
       id="path46"
       sodipodi:type="arc"
       sodipodi:cx="201.59016"
       sodipodi:cy="63.919319"
       sodipodi:rx="32.339306"
       sodipodi:ry="32.339306"
       sodipodi:start="1.0041383"
       sodipodi:end="1.5707963"
       sodipodi:arc-type="arc"
       d="m 218.9504,91.203982 a 32.339306,32.339306 0 0 1 -17.36024,5.054643"
       sodipodi:open="true" /><path
       style="font-variation-settings:normal;opacity:1;vector-effect:none;fill:none;fill-opacity:1;stroke:#b3b3b3;stroke-width:1;stroke-linecap:round;stroke-linejoin:round;stroke-miterlimit:4;stroke-dasharray:none;stroke-dashoffset:0;stroke-opacity:1;-inkscape-stroke:none;paint-order:markers fill stroke;stop-color:#000000;stop-opacity:1"
       d="m 69.905541,64.60522 14.27995,-0.18637"
       id="path39"
       sodipodi:nodetypes="cc" /><path
       id="path40"
       style="opacity:1;fill:none;stroke:#ff0000;stroke-width:3;stroke-linecap:round;stroke-linejoin:round;paint-order:markers fill stroke;stop-color:#000000;stop-opacity:1"
       d="m 218.9504,91.20398 c -5.18845,3.30122 -11.2106,5.05465 -17.36024,5.05465 m 1e-5,-32.3393 -0.0255,193.64507 m -29.80253,-240.534943 72.742,114.350933"
       sodipodi:nodetypes="cccccc" /><text
       xml:space="preserve"
       style="font-size:32.8508px;font-family:'Inter Variable';-inkscape-font-specification:'Inter Variable';font-variation-settings:normal;text-align:start;writing-mode:lr-tb;direction:ltr;text-anchor:start;opacity:1;fill:#0066ff;fill-opacity:1;stroke:none;stroke-width:0.999999;stroke-linecap:round;stroke-linejoin:bevel;stroke-miterlimit:4;stroke-dasharray:none;stroke-dashoffset:0;stroke-opacity:1;paint-order:markers fill stroke"
       x="205.81573"
       y="123.64796"
       id="text47"><tspan
         sodipodi:role="line"
         id="tspan47"
         x="205.81573"
         y="123.64796"
         style="font-size:32.8508px;fill:#0066ff;stroke:none;stroke-width:0.999999;stroke-dasharray:none">α</tspan></text></g></svg>
