<?xml version="1.0" encoding="UTF-8" standalone="no"?>
<svg
   xmlns:dc="http://purl.org/dc/elements/1.1/"
   xmlns:cc="http://creativecommons.org/ns#"
   xmlns:rdf="http://www.w3.org/1999/02/22-rdf-syntax-ns#"
   xmlns:svg="http://www.w3.org/2000/svg"
   xmlns="http://www.w3.org/2000/svg"
   xmlns:sodipodi="http://sodipodi.sourceforge.net/DTD/sodipodi-0.dtd"
   xmlns:inkscape="http://www.inkscape.org/namespaces/inkscape"
   version="1.1"
   width="1036.226"
   height="379.24622"
   id="svg13134"
   sodipodi:docname="brimlength.svg"
   inkscape:version="0.92.4 (5da689c313, 2019-01-14)">
  <sodipodi:namedview
     pagecolor="#ffffff"
     bordercolor="#666666"
     borderopacity="1"
     objecttolerance="10"
     gridtolerance="10"
     guidetolerance="10"
     inkscape:pageopacity="0"
     inkscape:pageshadow="2"
     inkscape:window-width="1920"
     inkscape:window-height="1015"
     id="namedview14"
     showgrid="false"
     fit-margin-top="0"
     fit-margin-left="0"
     fit-margin-right="0"
     fit-margin-bottom="0"
     inkscape:zoom="1.3569363"
     inkscape:cx="518.14713"
     inkscape:cy="190.88463"
     inkscape:window-x="0"
     inkscape:window-y="0"
     inkscape:window-maximized="1"
     inkscape:current-layer="svg13134" />
  <metadata
     id="metadata3096">
    <rdf:RDF>
      <cc:Work
         rdf:about="">
        <dc:format>image/svg+xml</dc:format>
        <dc:type
           rdf:resource="http://purl.org/dc/dcmitype/StillImage" />
        <dc:title></dc:title>
      </cc:Work>
    </rdf:RDF>
  </metadata>
  <defs
     id="defs13136" />
  <path
     style="fill:#212121;fill-opacity:0.98086123;stroke:#545454;stroke-width:4;stroke-miterlimit:4;stroke-dasharray:none;stroke-opacity:1"
     id="rect4674-6-3"
     d="M 185.79963,17.442486 C 255.28357,14.133576 113.80648,211.62738 41.313244,195.48226 22.335004,191.25558 40.426874,92.465876 84.041387,54.260666 129.63773,14.319456 165.28964,18.419206 185.79963,17.442486 Z"
     inkscape:connector-curvature="0"
     sodipodi:nodetypes="ssss" />
  <path
     style="fill:#212121;fill-opacity:0.98086123;stroke:#545454;stroke-width:4;stroke-miterlimit:4;stroke-dasharray:none;stroke-opacity:1"
     id="rect4674"
     d="M 34.768254,238.47696 C 27.335614,92.580296 116.44528,19.159706 197.46949,17.133726 386.505,12.406986 398.20772,235.81977 398.20772,235.81977 c 1.40857,-1.85331 51.55552,43.37733 -19.77735,39.65891 -17.73481,-0.92447 -32.00111,11.3221 -82.39397,8.45492 -11.69981,23.16096 -32.47468,46.03009 -67.91594,46.78453 C 151.13304,332.35696 46.486962,313.58168 9.7308938,294.10272 -10.557363,283.35091 13.091124,271.40607 34.768254,238.47696 Z"
     inkscape:connector-curvature="0"
     sodipodi:nodetypes="cscscssc" />
  <g
     transform="matrix(0.991716,0,0,0.991716,169.41087,512.89649)"
     style="fill:#212121;stroke:#545454"
     id="g4303" />
  <path
     style="fill:none;fill-opacity:1;stroke:#545454;stroke-width:4;stroke-miterlimit:4;stroke-dasharray:none;stroke-opacity:1"
     id="rect4674-67"
     d="M 97.115067,256.46932 C 92.564497,197.03483 136.05956,85.916856 210.15065,21.168636"
     inkscape:connector-curvature="0"
     sodipodi:nodetypes="cc" />
  <path
     style="fill:none;fill-opacity:1;stroke:#545454;stroke-width:4;stroke-miterlimit:4;stroke-dasharray:none;stroke-opacity:1"
     id="rect4674-5"
     d="M 296.0364,283.9336 C 138.36425,267.20551 92.502757,258.48599 34.768254,238.47696"
     inkscape:connector-curvature="0"
     sodipodi:nodetypes="cc" />
  <path
     style="fill:#212121;fill-opacity:0.98086123;stroke:#545454;stroke-width:4;stroke-miterlimit:4;stroke-dasharray:none;stroke-opacity:1"
     id="rect4674-6"
     d="m 229.45394,22.594036 c 3.79974,-11.58118 71.55244,-0.42441 105.32678,31.90705 55.21804,52.859064 78.36975,184.859614 61.84481,203.456854 -11.45276,12.88898 -21.57439,23.81728 -38.81422,28.53139 -22.34126,6.10906 -33.82853,4.667 -57.7438,2.00614 -22.16439,-2.46605 -15.95091,-86.94719 -63.69659,-182.97783 -7.58963,-15.264984 -12.09994,-67.126484 -6.91698,-82.923604 z"
     inkscape:connector-curvature="0"
     sodipodi:nodetypes="sssssss" />
  <path
     style="fill:none;fill-opacity:1;stroke:#545454;stroke-width:10;stroke-miterlimit:4;stroke-dasharray:none;stroke-opacity:1"
     id="rect4674-67-5"
     d="m 214.79921,20.184136 c -16.18864,33.02752 -54.92821,38.49401 -61.68452,32.04878 -7.56831,-7.21981 38.17865,-57.1909599 60.55119,-31.48217 2.08865,2.40013 70.63727,20.24099 51.82058,-7.65192 -12.58672,-18.6579199 -47.69001,0.97044 -50.68725,7.08531 z"
     inkscape:connector-curvature="0"
     sodipodi:nodetypes="sssss" />
  <path
     style="fill:#212121;fill-opacity:0.98086123;stroke:#545454;stroke-width:4;stroke-miterlimit:4;stroke-dasharray:none;stroke-opacity:1"
     id="rect4674-6-3-0"
     d="M 765.31538,17.208006 C 834.79935,13.899096 693.3222,211.3929 620.829,195.24778 601.8507,191.0211 619.9426,92.231396 663.5571,54.026186 c 45.5964,-39.94121 81.2483,-35.84146 101.75828,-36.81818 z"
     inkscape:connector-curvature="0"
     sodipodi:nodetypes="ssss" />
  <path
     style="fill:#212121;fill-opacity:0.98086123;stroke:#545454;stroke-width:4;stroke-miterlimit:4;stroke-dasharray:none;stroke-opacity:1"
     id="rect4674-9"
     d="M 614.284,238.24248 C 606.8514,92.345816 695.961,18.925226 776.98524,16.899246 966.02075,12.172506 977.72342,235.58529 977.72342,235.58529 c 8.7242,2.77493 134.32738,93.94871 -19.77727,39.65891 -16.74992,-5.90086 -32.0011,11.3221 -82.394,8.45492 -11.6998,23.16096 -52.42388,79.4373 -86.96386,87.41499 -80.37237,18.56358 -212.70953,-9.14732 -249.34173,-29.24587 -20.1303,-11.04468 53.3603,-70.69665 75.03744,-103.62576 z"
     inkscape:connector-curvature="0"
     sodipodi:nodetypes="cscscssc" />
  <path
     style="fill:none;fill-opacity:1;stroke:#545454;stroke-width:4;stroke-miterlimit:4;stroke-dasharray:none;stroke-opacity:1"
     id="rect4674-67-3"
     d="M 676.6308,256.23484 C 672.0802,196.80035 715.5753,85.682376 789.6664,20.934156"
     inkscape:connector-curvature="0"
     sodipodi:nodetypes="cc" />
  <path
     style="fill:none;fill-opacity:1;stroke:#545454;stroke-width:4;stroke-miterlimit:4;stroke-dasharray:none;stroke-opacity:1"
     id="rect4674-5-6"
     d="M 875.55215,283.69912 C 717.88,266.97103 672.0185,258.25151 614.284,238.24248"
     inkscape:connector-curvature="0"
     sodipodi:nodetypes="cc" />
  <path
     style="fill:#212121;fill-opacity:0.98086123;stroke:#545454;stroke-width:4;stroke-miterlimit:4;stroke-dasharray:none;stroke-opacity:1"
     id="rect4674-6-0"
     d="m 808.96969,22.359556 c 3.79974,-11.58118 71.55246,-0.42441 105.32676,31.90705 55.2181,52.859064 78.36977,184.859614 61.84477,203.456854 -11.45267,12.88898 -21.57437,23.81728 -38.81417,28.53139 -22.3413,6.10906 -33.8285,4.667 -57.7438,2.00614 -22.1644,-2.46605 -15.9509,-86.94719 -63.69658,-182.97783 -7.58963,-15.264984 -12.09994,-67.126484 -6.91698,-82.923604 z"
     inkscape:connector-curvature="0"
     sodipodi:nodetypes="sssssss" />
  <path
     style="fill:none;fill-opacity:1;stroke:#545454;stroke-width:10;stroke-miterlimit:4;stroke-dasharray:none;stroke-opacity:1"
     id="rect4674-67-5-6"
     d="m 794.31496,19.949656 c -16.18864,33.02752 -54.92826,38.49401 -61.68456,32.04878 -7.5683,-7.21981 38.17869,-57.1909599 60.55123,-31.48217 2.08865,2.40013 70.63722,20.24099 51.82062,-7.65192 -12.5868,-18.6579199 -47.69005,0.97044 -50.68729,7.08531 z"
     inkscape:connector-curvature="0"
     sodipodi:nodetypes="sssss" />
</svg>
