<?xml version="1.0" encoding="utf-8"?>
<!-- Generator: Adobe Illustrator 25.3.1, SVG Export Plug-In . SVG Version: 6.00 Build 0)  -->
<svg version="1.1" id="Calque_1" xmlns="http://www.w3.org/2000/svg" xmlns:xlink="http://www.w3.org/1999/xlink" x="0px" y="0px"
	 viewBox="0 0 270 270" style="enable-background:new 0 0 270 270;" xml:space="preserve">
<style type="text/css">
	.st0{fill:#AEB5BC;stroke:#000000;stroke-miterlimit:10;}
	.st1{fill:#AEB5BC;stroke:#000000;stroke-linecap:square;stroke-linejoin:bevel;stroke-miterlimit:10;}
	.st2{fill:#DFE2E5;stroke:#000000;stroke-miterlimit:10;}
	.st3{fill:none;stroke:#000000;stroke-miterlimit:10;}
	.st4{fill:#C1C1C1;stroke:#000000;stroke-miterlimit:10;}
</style>
<g id="Calque_1_1_">
	<path class="st0" d="M53.2,50.2c0,0,19.9,58.7,35-1.6"/>
	<polygon class="st1" points="19.7,242.9 68.7,252.9 117.6,242.9 68.6,186.4 	"/>
	<g>
		<path class="st2" d="M24.3,79.2l-4.6,163.7c16.8,2.2,52.6-28.7,52.6-28.7c28.8-29,28.4-98.7,28.4-98.7s-6.3-56.1-8.1-61.1
			C91,49.4,88,51,88,51c-18.3,59.9-37.2-9.6-37.2-9.6C20.1,43.4,24.3,79.2,24.3,79.2z"/>
		<line class="st3" x1="22.2" y1="149.5" x2="69.7" y2="216.6"/>
	</g>
	<path class="st2" d="M189.5,34.4c-11.9,16-28.2,32.1-33.6,49.5c-5.4,58.8-9.3,159-9.3,159l54.8,10.1l54.9-9.9
		c0,0-4.6-100.3-10.1-159.1c-5.4-17.5-21.8-33.6-33.6-49.5h-0.2h-22.7L189.5,34.4z M86.5,41.4c0,0-6.1,69.3-37.2,9.6
		c0,0-2.9-1.6-4.6,3.4c0,0.9,0,0.6,0,0.6s5.9,111.9,25,161.6c0,0,29.2,27.8,47.9,26.3L113,79.2C113,79.2,117.1,43.4,86.5,41.4z
		 M68.6,217.6l46.4-68.1"/>
	<path class="st2" d="M56.4,37.3l-32.8,9.2C13.1,49.8,12,62.2,10.4,74c-5.5,52.2-6.5,120-2.7,128.2l0,0H19l1.5-11.2
		c4.4-32,9-76.9,3.5-104.8C22.4,77.7,44.8,51.4,56.4,37.3z M112.8,86.2c-5.5,27.9-0.9,72.8,3.5,104.8l1.5,11.2h11.4l0,0
		c3.7-8.2,2.8-76.1-2.7-128.2c-1.6-11.8-2.7-24.2-13.3-27.5l-32.8-9.2C92.1,51.4,114.4,77.7,112.8,86.2z M56.4,37.3l-32.8,9.2
		C13.1,49.8,12,62.2,10.4,74c-5.5,52.2-6.5,120-2.7,128.2l0,0H19l1.5-11.2c4.4-32,9-76.9,3.5-104.8C22.4,77.7,44.8,51.4,56.4,37.3z
		 M112.8,86.2c-5.5,27.9-0.9,72.8,3.5,104.8l1.5,11.2h11.4l0,0c3.7-8.2,2.8-76.1-2.7-128.2c-1.6-11.8-2.7-24.2-13.3-27.5l-32.8-9.2
		C92.1,51.4,114.4,77.7,112.8,86.2z M189.1,37.3l-32.8,9.2C145.8,49.8,144.7,62.2,143,74c-5.5,52.2-6.5,120-2.7,128.2l0,0h11.4
		l1.5-11.2c4.4-32,9-76.9,3.5-104.8C155.1,77.7,177.5,51.4,189.1,37.3z M245.4,86.2c-5.5,27.9-0.9,72.8,3.5,104.8l1.5,11.2h11.4l0,0
		c3.7-8.2,2.8-76.1-2.7-128.2c-1.6-11.8-2.7-24.2-13.3-27.5L213,37.3C224.7,51.4,247.1,77.7,245.4,86.2z"/>
	<path class="st2" d="M84.1,52.3c3.6-7.4,5.7-8.6,9.1-9.2c5.4-2.7,7.5-0.2,8.9-2.1c0.7-0.9-3.1-1.4,0.6-4.3c1-0.8,0.4-2.4,0.4-4.4
		l-29.9,8.9c0.1,0.1,0.3,0.6,0.5,1.3l-28.6-9.3c-0.7-0.2-1.3,0.5-1,1.1c0.7,1.6,0.7,3.2-1.1,4.6c-1.8,1.4,2.2,3.5,5.1,4.5
		c1.4,0.9,4.8,6.8,5.8,7.6 M73.2,41.2C73.2,41.2,73.1,41.2,73.2,41.2L73.2,41.2z"/>
	<path class="st4" d="M72.1,44.1"/>
	<path class="st0" d="M84.7,53c-4.6-5.1-6.3-9.8,3.2-14c6.7-3.9,9.5-0.1,15.1-6.8c0.4-1.1,0.4-3.1-0.6-3.4
		c-4.8-4.9-57.3-6.3-59.4,3.4c1.9,8.2,16.1,9.7,10.9,20.1"/>
	<path class="st3" d="M86.5,39.6C72.2,36,61,36.7,52.1,41.8"/>
	<path class="st2" d="M171.7,29.3c-6.6,22.9,6.1,44.3,34,43.1c25.7-0.6,36.2-25.7,27.7-44C212.2,34.8,188.7,30.9,171.7,29.3z"/>
	<path class="st4" d="M212.6,31.7c0,5,1.2,9.8,0,15c-1.3,6.1-0.9,10.5,0,13.1c0.6,1.9,0.1,7.3,0,11.4 M193.2,31.7c0,5,2,10,0,15
		c-2.3,5.9-2.2,10.3,0,13.1c1.2,1.6,0.1,7.3,0,11.4 M84,25.4v13.4 M61.5,25.8v12.6"/>
	<path class="st2" d="M53.7,50.6c0,0,17.5,45.6,31.8,3c0,0,2.5-5.6,4.6-1.3s-1,15.1-4.3,22.3c-17.5,38-35.2-21.2-35.2-21.2"/>
	<path class="st3" d="M53,65.1c-0.1,6.4,11.4,51.6,32.3,16.9"/>
	<path class="st3" d="M56.1,83.3c-0.4,7.3,17.6,31.3,33.8-1.3"/>
	<circle cx="47.9" cy="54.7" r="1.7"/>
	<circle cx="88" cy="55" r="1.7"/>
	<path class="st3" d="M49.2,51c1.4,1.8,3.6,8.7,3.6,8.7"/>
</g>
<g id="Calque_2_1_">
</g>
<line class="st3" x1="156.7" y1="161.7" x2="155.6" y2="243.9"/>
<line class="st3" x1="245.7" y1="164.5" x2="248.4" y2="244"/>
</svg>
