<?xml version="1.0" encoding="UTF-8" standalone="no"?>
<!-- Created with Inkscape (http://www.inkscape.org/) -->

<svg
   width="101mm"
   height="101mm"
   viewBox="0 0 101 101"
   version="1.1"
   id="svg8"
   inkscape:version="1.2.1 (9c6d41e, 2022-07-14)"
   sodipodi:docname="sticker-round-lgbtq-lg.svg"
   xmlns:inkscape="http://www.inkscape.org/namespaces/inkscape"
   xmlns:sodipodi="http://sodipodi.sourceforge.net/DTD/sodipodi-0.dtd"
   xmlns="http://www.w3.org/2000/svg"
   xmlns:svg="http://www.w3.org/2000/svg"
   xmlns:rdf="http://www.w3.org/1999/02/22-rdf-syntax-ns#"
   xmlns:cc="http://creativecommons.org/ns#"
   xmlns:dc="http://purl.org/dc/elements/1.1/">
  <defs
     id="defs2" />
  <sodipodi:namedview
     id="base"
     pagecolor="#ffffff"
     bordercolor="#666666"
     borderopacity="1.0"
     inkscape:pageopacity="0.0"
     inkscape:pageshadow="2"
     inkscape:zoom="0.9899495"
     inkscape:cx="193.44421"
     inkscape:cy="202.53558"
     inkscape:document-units="mm"
     inkscape:current-layer="layer1"
     showgrid="false"
     inkscape:window-width="1817"
     inkscape:window-height="1027"
     inkscape:window-x="1109"
     inkscape:window-y="506"
     inkscape:window-maximized="0"
     inkscape:showpageshadow="2"
     inkscape:pagecheckerboard="0"
     inkscape:deskcolor="#d1d1d1" />
  <metadata
     id="metadata5">
    <rdf:RDF>
      <cc:Work
         rdf:about="">
        <dc:format>image/svg+xml</dc:format>
        <dc:type
           rdf:resource="http://purl.org/dc/dcmitype/StillImage" />
      </cc:Work>
    </rdf:RDF>
  </metadata>
  <g
     inkscape:label="Layer 1"
     inkscape:groupmode="layer"
     id="layer1"
     transform="translate(0,-231)">
    <circle
       style="fill:none;stroke:#ffffff;stroke-width:0.1;stroke-linecap:round;stroke-linejoin:round;stroke-dasharray:none;stroke-opacity:0.996587"
       id="path695"
       cx="50.549999"
       cy="281.54999"
       r="47.5" />
    <rect
       style="fill:#ffffff;stroke-width:3.29999;stroke-linecap:round;stroke-linejoin:round;stroke-opacity:0.996587"
       id="rect578"
       width="95"
       height="95"
       x="3"
       y="234" />
    <g
       id="g1459"
       transform="matrix(0.75393081,-0.75393081,0.75393081,0.75393081,-199.15098,105.57567)"
       style="stroke-width:0.937893">
      <rect
         style="fill:#933da1;fill-opacity:1;stroke:none;stroke-width:2.81368;stroke-linecap:round;stroke-linejoin:round;stroke-miterlimit:4;stroke-dasharray:none;stroke-dashoffset:0;stroke-opacity:0.9412"
         id="rect815"
         width="174.11697"
         height="98.556778"
         x="-38.55357"
         y="238.38815" />
      <rect
         y="233.46028"
         x="-38.55357"
         height="82.130653"
         width="174.11697"
         id="rect2603"
         style="fill:#3874ff;fill-opacity:1;stroke:none;stroke-width:2.81368;stroke-linecap:round;stroke-linejoin:round;stroke-miterlimit:4;stroke-dasharray:none;stroke-dashoffset:0;stroke-opacity:0.9412" />
      <rect
         style="fill:#389c56;fill-opacity:1;stroke:none;stroke-width:2.81368;stroke-linecap:round;stroke-linejoin:round;stroke-miterlimit:4;stroke-dasharray:none;stroke-dashoffset:0;stroke-opacity:0.9412"
         id="rect2605"
         width="174.11697"
         height="65.704521"
         x="-38.55357"
         y="233.46028" />
      <rect
         y="233.46028"
         x="-38.55357"
         height="49.278389"
         width="174.11697"
         id="rect2607"
         style="fill:#fff138;fill-opacity:1;stroke:none;stroke-width:2.81368;stroke-linecap:round;stroke-linejoin:round;stroke-miterlimit:4;stroke-dasharray:none;stroke-dashoffset:0;stroke-opacity:0.9412" />
      <rect
         style="fill:#ffa538;fill-opacity:1;stroke:none;stroke-width:2.81368;stroke-linecap:round;stroke-linejoin:round;stroke-miterlimit:4;stroke-dasharray:none;stroke-dashoffset:0;stroke-opacity:0.9412"
         id="rect2609"
         width="174.11697"
         height="32.852261"
         x="-38.55357"
         y="233.46028" />
      <rect
         y="228.53246"
         x="-38.55357"
         height="21.35397"
         width="174.11697"
         id="rect2611"
         style="fill:#ea3a3a;fill-opacity:1;stroke:none;stroke-width:2.81368;stroke-linecap:round;stroke-linejoin:round;stroke-miterlimit:4;stroke-dasharray:none;stroke-dashoffset:0;stroke-opacity:0.9412" />
    </g>
    <path
       inkscape:connector-curvature="0"
       d="m 67.148569,241.58701 c -1.619143,1.15147 -1.535818,1.00368 -2.843721,1.4313 -3.000132,0.98091 -5.876893,0.44252 -9.291256,0.1572 -1.026487,-0.11465 -2.045137,-0.18151 -3.039429,-0.18775 -5.0186,-0.0345 -9.281033,1.43757 -10.088264,5.54757 -1.488669,0.9023 -2.857856,1.99401 -4.213714,3.08814 -2.89482,2.2841 -5.074385,5.07595 -6.561485,8.44162 -2.030232,4.96905 -0.196365,10.30311 0.712879,15.33977 0.216265,1.179 0.441735,2.30219 0.562792,2.73607 0.172003,0.61148 0.474722,1.19392 0.804082,1.71817 0.07694,0.0148 0.483362,-0.61228 0.580056,-0.88898 0.140805,-0.4032 0.12566,-1.05006 -0.02972,-1.60657 -0.340323,-1.25284 -0.664933,-2.26993 -0.692463,-2.78083 -0.04869,-0.95891 0.137536,-1.84553 0.488114,-2.28411 0.124181,-0.15572 0.409502,0.64687 0.335622,0.94477 -0.08643,0.35842 -0.152402,0.97305 -0.124182,1.25602 0.07694,0.9597 0.217755,1.98622 0.393023,2.88381 0.22399,1.15778 0.320681,1.90134 0.279838,2.18899 -0.03003,0.20975 -0.128042,0.4213 -0.504605,1.06974 -0.326981,0.56831 -0.497559,1.02811 -0.523494,1.43448 -0.02972,0.39613 0.0912,1.38646 0.202902,1.62935 0.161896,0.37805 0.650017,0.77578 1.07601,0.87402 0.407134,0.15572 0.612289,0.47789 0.821366,0.84023 0.509323,0.97069 0.90232,2.15309 1.29219,3.93493 0.190129,0.85281 0.348968,1.61442 0.400064,2.0145 -3.144002,0.003 -7.170652,0.007 -10.838893,0.007 -1.234793,0.0209 -3.464654,-0.56049 -5.510063,-0.69489 -0.296181,-3.19896 -1.701672,-6.91695 -4.10523,-7.1331 -1.641158,-0.14849 -3.001731,0.47552 -4.153206,3.06775 l 0.03298,0.13896 c 0.679872,-0.56828 1.396699,-2.30611 3.981053,-2.18663 1.984661,0.0904 2.645671,3.84689 2.842179,6.10661 -1.208083,0.0887 -2.236958,0.46062 -2.773794,1.38887 h -0.01199 c 0,10e-4 0,0.007 0.0059,0.008 -0.0059,0.003 -0.0059,0.007 -0.0059,0.008 h 0.01199 c 0.553351,0.95106 1.619944,1.31969 2.872034,1.39358 0.837082,23.66162 23.079422,26.71362 29.157514,26.71362 22.675968,0 30.614515,-15.40867 31.808463,-21.51191 0.55805,2.60086 -1.200215,5.91305 -1.621522,8.35829 4.783603,-5.53029 3.918974,-10.84673 3.044153,-16.19467 0.727052,0.8646 1.711128,1.39987 3.045738,1.10354 -0.951039,-0.63586 -2.241659,-0.19012 -3.014275,-2.87045 -0.337194,-1.15776 -0.628803,-2.02574 -0.918834,-2.75514 -0.625658,-2.34619 -1.513062,-4.58788 -2.604021,-6.77215 -0.919604,-2.36976 -0.312037,-3.90561 -0.403981,-5.93898 1.655296,5.45875 2.690477,6.91128 4.622425,7.48269 -4.859815,-5.85568 -3.196643,-14.92243 -5.942125,-23.01504 1.242671,0.73019 2.660611,0.95027 4.170493,0.0575 -1.460362,-0.41552 -2.918411,0.68328 -5.013873,-2.39702 -1.770057,-3.44347 -4.334737,-5.98693 -7.445708,-8.23016 -1.667126,-1.08703 -3.517334,-1.81722 -5.377784,-2.49552 1.895033,-0.47475 4.010137,-2.16152 4.108379,-3.42066 z m -3.177776,18.18793 c 2.495552,0.91019 5.246536,4.36854 5.215078,7.76169 v 0.14094 0.0488 c -0.06684,4.60862 -2.161475,7.08609 -2.073452,10.1546 0.113192,3.614 1.668668,4.87477 1.978361,5.47759 -0.530534,-2.22829 -0.841808,-5.03193 -0.140805,-7.25237 0.900742,-2.85553 1.809363,-5.22056 1.744122,-7.45782 -0.03298,-0.52347 -0.255482,-2.48375 -0.404784,-3.35147 2.675519,3.8608 -0.579282,9.47627 0.356841,13.15077 1.627785,6.40115 8.92262,7.20996 6.751693,20.1068 -1.910743,11.33797 -15.004636,19.94305 -28.4255,19.94305 -9.949143,0 -27.190203,-5.5067 -28.042193,-25.04022 2.022589,-0.14455 4.197435,-0.70744 5.417292,-0.68777 3.687906,0 7.899275,0.001 11.072328,0.003 0.596571,2.68891 1.043812,3.33735 3.305102,5.12865 2.515197,1.97831 3.100747,2.21887 6.82166,2.25501 3.721675,0.0378 4.825231,-0.76005 8.436078,-4.176 0.779712,-0.91332 1.116921,-2.11039 1.49497,-3.23517 3.713841,-0.0345 6.422365,-0.1007 9.086892,-0.22486 2.713257,-0.1227 3.09603,0 7.468531,-0.45041 -4.372501,-0.45037 -4.755274,-0.32697 -7.468531,-0.45193 -2.593796,-0.11794 -5.220566,-0.18476 -8.772503,-0.21774 0.297901,-1.33778 0.723929,-2.6441 1.177435,-3.93629 0.279839,-0.76185 0.609138,-1.50385 0.946337,-2.24188 l 0.368634,-0.11498 c 0.71053,-0.25221 1.33934,-0.79228 1.590067,-1.52324 0.322255,-0.96755 0.09358,-2.0546 -0.530536,-2.8453 -0.214484,-0.2965 -0.481823,-0.67518 -0.591083,-0.84181 -0.329324,-0.52112 -0.337203,-0.81037 -0.05882,-2.74629 0.234089,-1.62073 0.26023,-2.4696 0.09834,-3.29095 -0.03298,-0.47002 -0.03627,-1.43681 -0.05109,-1.69695 0.125069,0.0691 0.394568,0.68459 0.668107,1.51777 0.271815,0.83706 0.315961,1.01077 0.378049,1.72285 0.06922,0.80883 -0.233497,1.40854 -0.482588,2.61503 -0.124182,0.6225 -0.234096,1.20021 -0.234096,1.27882 0,0.0839 0.05882,0.26082 0.120913,0.39848 0.14616,0.30735 0.419699,0.73964 0.470024,0.73964 0.892101,-0.98406 1.416366,-2.19923 1.883238,-3.43163 0.491233,-1.39516 0.635077,-2.87596 0.979345,-4.31201 0.278359,-1.25129 0.598923,-2.50339 0.698743,-3.788 0.202004,-2.50498 0.08407,-4.27345 -0.470029,-6.88375 -0.132197,-0.58951 -0.515588,-1.71428 -0.782064,-2.24482 z m -8.777205,12.34202 c 0.958134,-0.0131 1.906053,0.10463 2.80837,0.36469 1.226158,0.47002 1.398274,1.56571 1.624643,2.79578 0.12566,0.78597 0.121192,1.35032 -0.02078,2.27388 -0.09982,1.34011 -0.63193,2.37608 -1.79442,3.10467 -1.753565,0.32465 -3.628935,0.63747 -5.11526,-0.52347 -1.248165,-1.71976 -1.999574,-3.89222 -1.712691,-6.01127 0.181507,-0.86932 0.585576,-1.32128 1.417939,-1.59164 0.895247,-0.25697 1.843939,-0.39773 2.793431,-0.41264 z m -14.545634,0.15572 c 0.895254,-0.008 1.800721,0.0864 2.299049,0.40403 2.136343,1.44621 1.450943,3.79948 0.605989,5.86429 -1.230071,2.70305 -3.889111,2.60322 -6.467161,2.58201 -1.425786,-0.4174 -1.557059,-1.58696 -1.76299,-2.83589 -0.176752,-1.20729 -0.553347,-2.50025 -0.238846,-3.71385 0.807203,-1.95162 3.757835,-2.17639 5.564051,-2.30059 z m 32.590529,0.33721 c 0.01199,5.1954 0.899173,7.74832 2.681022,11.42758 -1.05008,-2.00192 -2.549775,-3.1416 -3.108617,-5.53577 -1.067375,-4.62243 0.08407,-4.36384 0.427595,-5.89181 z m -25.893044,3.76255 c 0.281329,0.28519 0.417353,0.6783 0.661009,0.99114 0.188634,-0.32305 0.381999,-0.64374 0.624083,-0.92982 0.12566,0.003 0.27984,0.25162 0.418925,0.69716 0.596577,1.64746 0.712909,3.45997 1.485556,5.04374 0.722328,1.14595 -0.264092,1.81407 -1.34644,1.86675 -0.789137,-10e-4 -1.123158,-0.54078 -1.586107,-1.07447 -0.119434,0.34899 -0.347424,0.57298 -0.61939,0.80879 -0.690861,0.58006 -2.045147,0.3655 -2.255018,-0.54863 0.278942,-1.7457 1.168014,-3.34835 1.750414,-5.02172 0.289944,-0.6107 0.293215,-1.07918 0.866968,-1.83294 z m -10.139359,8.81809 c 0.348196,0 1.306337,0.65002 1.501271,1.01707 0.134284,0.24359 0.44014,1.19392 0.461377,1.42445 0.03449,0.2751 -0.04869,0.92748 -0.133692,1.10432 -0.06298,0.12566 -0.109924,0.1439 -0.182397,0.0623 -0.0606,-0.0692 -0.863016,-1.60838 -1.375495,-2.62703 -0.402404,-0.81508 -0.444854,-0.9809 -0.27122,-0.9809 z m 20.013012,0.50934 c 0.01478,0.003 0.03298,0.007 0.05109,0.0131 0.107542,0.0439 0.03238,0.42679 -0.373329,1.81902 -0.07694,0.41973 -0.26409,0.74985 -0.537633,1.02494 -0.08972,0 -0.130407,-0.10464 -0.271818,-0.68617 -0.119434,-0.49619 -0.131901,-0.93793 -0.04869,-1.33408 0.143795,-0.49673 0.72705,-0.64844 1.180558,-0.8355 z m -2.428717,3.03416 c 0.03449,-0.007 0.06743,0.0131 0.109924,0.0465 0.147655,0.10316 0.169035,0.37493 0.07071,0.90704 -0.119435,0.68459 -0.14616,0.76007 -0.323035,0.83002 -0.07694,0.0345 -0.214484,0.0588 -0.305772,0.0588 -0.165765,-0.0297 -0.208244,-0.16344 -0.169034,-0.36627 0,-0.42601 0.124182,-0.79622 0.406358,-1.23324 0.106047,-0.1643 0.160418,-0.23439 0.210621,-0.24301 z m -14.136118,0.0314 c 0.113192,0 0.453505,0.24596 0.580054,0.41579 0.140805,0.18002 0.301048,1.25289 0.210616,1.4376 -0.103074,0.23263 -0.607562,0.11646 -0.746678,-0.1729 -0.08497,-0.17377 -0.286076,-1.11062 -0.286076,-1.33306 0,-0.20676 0.09982,-0.3474 0.242113,-0.3474 z m 12.921759,0.28312 c 0.137553,0.19637 0.172895,0.44881 0.143795,1.00213 l -0.02674,0.50464 -0.144665,0.14389 c -0.08643,0.0811 -0.234084,0.17914 -0.322261,0.22014 -0.194873,0.0913 -0.344269,0.0997 -0.371779,0.0268 -0.03298,-0.0984 0.02378,-0.72393 0.08348,-0.93535 0.07071,-0.21777 0.386721,-0.86775 0.491263,-1.00528 0.0478,-0.12566 0.103091,0.0315 0.147655,0.0439 z m -8.222301,-0.0297 c 0.296469,0.0754 0.427593,0.34189 0.589499,0.58477 l 0.109924,0.21628 -0.154176,0.53526 c -0.08169,0.29469 -0.169039,0.55961 -0.194884,0.5895 -0.02971,0.033 -0.139031,0.0486 -0.301016,0.0472 -0.432327,-0.0131 -0.481814,-0.0297 -0.598149,-0.20587 l -0.107526,-0.16048 0.0912,-0.45038 c 0.132789,-0.64843 0.196661,-0.84338 0.344246,-1.01078 0.07694,-0.0897 0.154176,-0.13896 0.220725,-0.14521 z m -2.73604,0.46371 0.243591,0.24361 0.04103,0.55179 c 0.02078,0.30103 0.03149,0.58162 0.01495,0.61542 -0.01495,0.0478 -0.103074,0.0605 -0.376499,0.0605 H 42.18557 c -0.190123,-0.20764 -0.249242,-0.46138 -0.329334,-0.72311 -0.186264,-0.78757 -0.186264,-1.14676 0.0059,-1.1939 0.315962,0.0209 0.523467,0.24922 0.754556,0.44564 z m 9.497178,-0.37884 c 0.386694,0.10365 0.30966,0.71763 0.30812,1.15622 -0.02972,0.71053 -0.05731,0.8583 -0.149412,0.94946 -0.158628,0.1595 -0.60052,0.0708 -0.815093,-0.16516 -0.07071,-0.0851 -0.07694,-0.1117 -0.02083,-0.45666 0.06357,-0.4213 0.145256,-0.68302 0.326985,-1.04301 0.132789,-0.25875 0.257851,-0.4213 0.350537,-0.44095 z m -8.721411,0.033 c 0.02083,-0.001 0.05585,0 0.08883,0.003 0.245077,0.0209 0.47474,0.18003 0.677522,0.47475 l 0.164278,0.24124 c 0.01478,0.39457 0,0.81036 -0.0707,1.17663 -0.04249,0.0209 -0.219239,0.0544 -0.39299,0.0708 -0.301053,0.0268 -0.329334,0.0209 -0.433875,-0.0708 -0.145256,-0.12418 -0.186262,-0.35528 -0.222502,-1.12162 -0.02083,-0.62485 -0.0059,-0.76477 0.189528,-0.7742 z m 3.716182,0.13124 c 0.263206,0.0549 0.42995,0.19636 0.50383,0.4268 0.05882,0.19815 0.09506,1.30715 0.03773,1.38415 -0.02075,0.032 -0.143778,0.0741 -0.286076,0.0912 -0.530531,0.0678 -0.999012,0.0179 -1.045385,-0.1094 -0.05882,-0.14389 0.335632,-1.57197 0.481821,-1.74883 0.06209,-0.13748 0.212996,-0.0315 0.308115,-0.0438 z m 3.434802,0.008 c 0.116445,-0.0131 0.241218,0.0997 0.362336,0.33721 0.09834,0.19811 0.113192,0.26735 0.113192,0.71051 0,0.35372 -0.02078,0.50619 -0.05882,0.53922 -0.03298,0.0268 -0.165762,0.0741 -0.306516,0.1094 -0.245972,0.0644 -0.299471,0.0708 -0.376503,0.0448 l -0.368637,-0.0678 0.02674,-0.21922 c 0.02676,-0.28609 0.214483,-0.92198 0.347416,-1.19707 0.07873,-0.16344 0.169032,-0.24537 0.260236,-0.25697 z m -1.601081,0.007 c 0.07692,-0.003 0.113192,0.0148 0.161896,0.0691 0.116445,0.13749 0.264098,0.54394 0.356876,0.97782 0.125068,0.61072 0.125068,0.60913 -0.1423,0.6893 -0.116445,0.0361 -0.361562,0.0731 -0.536862,0.0831 -0.57848,0.0297 -0.622509,-0.007 -0.551745,-0.5156 0.05494,-0.45512 0.279834,-1.17273 0.376472,-1.22539 0.104569,-0.0549 0.22548,-0.0534 0.335632,-0.0788 z m -29.463254,2.30765 c 0.0059,-0.001 0.01199,0 0.01199,0 0.01495,0.31913 0.01495,0.64138 0.02078,0.96287 -0.810376,-0.0623 -1.40615,-0.25547 -1.40615,-0.48339 0,-0.22398 0.574563,-0.41581 1.373919,-0.47948 z m 1.416363,0.0268 c 0.656316,0.0818 1.109822,0.254 1.101947,0.45195 0,0.19964 -0.439365,0.37021 -1.090955,0.45035 -0.0059,-0.29945 -0.0059,-0.60049 -0.01199,-0.9023 z m 30.663477,0.87321 c 0.05585,-0.007 0.08021,-0.008 0.165168,-0.003 0.341128,0.0338 0.389874,0.0549 0.389874,0.16965 0,0.15095 -0.25875,0.60443 -0.433872,0.76164 -0.0817,0.0787 -0.194878,0.1439 -0.23409,0.1439 -0.196363,0 -0.31127,-0.41424 -0.219235,-0.79542 0.05585,-0.20678 0.157149,-0.27034 0.332444,-0.27838 z m -1.236369,0.13601 c 0.152385,-0.0148 0.29947,0.0268 0.447231,0.0471 -0.04245,0.43073 -0.235871,0.78289 -0.594196,1.01709 -0.08883,0 -0.132805,-0.16904 -0.132805,-0.53761 0,-0.43859 0.02378,-0.5219 0.279842,-0.52662 z m -1.355826,0.15868 c 0.315962,0 0.594194,0.0148 0.607563,0.0324 0.05882,0.0558 -0.111697,0.47869 -0.361565,0.90703 -0.214481,0.38201 -0.245972,0.40952 -0.378851,0.41972 -0.520314,-0.0588 -0.505374,-0.66964 -0.585552,-1.08936 0,-0.24837 0.05496,-0.26944 0.718405,-0.26944 z m -4.927435,0.0471 c 0.362372,0.007 0.503067,0.0605 0.503067,0.19963 0,0.17676 -0.134284,0.52898 -0.211514,0.57297 -0.116462,0.0644 -0.12566,0.0606 -0.355268,-0.17853 -0.361562,-0.40556 -0.402437,-0.48101 0.06357,-0.5942 z m 1.742588,0.0179 c 0.0061,0.008 0.07692,0.13749 0.147638,0.28132 0.153305,0.30025 0.165176,0.43072 0.05494,0.53058 -0.258748,0.14751 -0.312844,0.0644 -0.54628,-0.0851 -0.27182,-0.25697 -0.486542,-0.60289 -0.416577,-0.67442 0.242995,-0.0874 0.50932,-0.0544 0.760049,-0.0526 z m 0.690865,0.008 0.646895,0.0131 c 0.252212,0 0.470022,0.0131 0.481816,0.0328 0.04392,0.0393 -0.09834,0.88034 -0.17527,1.07054 -0.08883,0.21302 -0.398522,0.21448 -0.55885,-0.0376 -0.228745,-0.36156 -0.379652,-0.66654 -0.38435,-0.87562 z"
       id="path3671"
       style="fill:#212529;fill-opacity:1;stroke:none;stroke-width:0.264582" />
  </g>
</svg>
