<?xml version="1.0" encoding="UTF-8" standalone="no"?>
<!-- Created with Inkscape (http://www.inkscape.org/) -->

<svg
   xmlns:dc="http://purl.org/dc/elements/1.1/"
   xmlns:cc="http://creativecommons.org/ns#"
   xmlns:rdf="http://www.w3.org/1999/02/22-rdf-syntax-ns#"
   xmlns:svg="http://www.w3.org/2000/svg"
   xmlns="http://www.w3.org/2000/svg"
   xmlns:sodipodi="http://sodipodi.sourceforge.net/DTD/sodipodi-0.dtd"
   xmlns:inkscape="http://www.inkscape.org/namespaces/inkscape"
   width="106mm"
   height="66mm"
   viewBox="0 0 106 66"
   version="1.1"
   id="svg8"
   inkscape:version="0.92.5 (2060ec1f9f, 2020-04-08)"
   sodipodi:docname="sticker-bugbounty.svg">
  <defs
     id="defs2" />
  <sodipodi:namedview
     id="base"
     pagecolor="#ffffff"
     bordercolor="#666666"
     borderopacity="1.0"
     inkscape:pageopacity="0.0"
     inkscape:pageshadow="2"
     inkscape:zoom="3.959798"
     inkscape:cx="137.57645"
     inkscape:cy="119.29399"
     inkscape:document-units="mm"
     inkscape:current-layer="layer1"
     showgrid="false"
     inkscape:window-width="3840"
     inkscape:window-height="2132"
     inkscape:window-x="1080"
     inkscape:window-y="0"
     inkscape:window-maximized="1" />
  <metadata
     id="metadata5">
    <rdf:RDF>
      <cc:Work
         rdf:about="">
        <dc:format>image/svg+xml</dc:format>
        <dc:type
           rdf:resource="http://purl.org/dc/dcmitype/StillImage" />
        <dc:title></dc:title>
      </cc:Work>
    </rdf:RDF>
  </metadata>
  <g
     inkscape:label="Layer 1"
     inkscape:groupmode="layer"
     id="layer1"
     transform="translate(0,-231)">
    <rect
       style="opacity:1;fill:#212529;fill-opacity:1;stroke:none;stroke-width:2.99999976;stroke-linecap:round;stroke-linejoin:round;stroke-miterlimit:4;stroke-dasharray:none;stroke-dashoffset:0;stroke-opacity:0.94120029"
       id="rect2615"
       width="106"
       height="66"
       x="0"
       y="231" />
    <rect
       y="234"
       x="2.635896"
       height="60"
       width="100"
       id="rect2613"
       style="opacity:1;fill:#212529;fill-opacity:1;stroke:none;stroke-width:2.99999976;stroke-linecap:round;stroke-linejoin:round;stroke-miterlimit:4;stroke-dasharray:none;stroke-dashoffset:0;stroke-opacity:0.94120029"
       inkscape:export-filename="/home/joost/Downloads/glitch.png"
       inkscape:export-xdpi="203.2"
       inkscape:export-ydpi="203.2" />
    <path
       inkscape:connector-curvature="0"
       d="m 64.187286,239.27284 c -0.985712,0.701 -0.934985,0.61103 -1.731218,0.87136 -1.826439,0.59716 -3.577771,0.2694 -5.656388,0.0957 -0.624911,-0.0698 -1.245051,-0.1105 -1.850362,-0.1143 -3.055254,-0.021 -5.650164,0.87517 -6.141595,3.37728 -0.906281,0.54931 -1.739823,1.21393 -2.565251,1.88002 -1.762326,1.39053 -3.089215,3.09017 -3.994541,5.13914 -1.235977,3.02509 -0.119544,6.27239 0.433991,9.33864 0.131659,0.71776 0.268922,1.40154 0.34262,1.66568 0.104713,0.37226 0.289004,0.72684 0.489514,1.046 0.04684,0.009 0.294264,-0.37275 0.35313,-0.5412 0.08572,-0.24546 0.0765,-0.63926 -0.01809,-0.97806 -0.207184,-0.76271 -0.404802,-1.3819 -0.421562,-1.69293 -0.02964,-0.58377 0.08373,-1.12353 0.297157,-1.39053 0.0756,-0.0948 0.249299,0.3938 0.204322,0.57516 -0.05262,0.2182 -0.09278,0.59238 -0.0756,0.76465 0.04684,0.58425 0.132566,1.20918 0.239267,1.75562 0.136362,0.70484 0.195226,1.15751 0.170361,1.33263 -0.01828,0.12769 -0.07795,0.25648 -0.307196,0.65124 -0.199062,0.34598 -0.302907,0.6259 -0.318696,0.87329 -0.01809,0.24116 0.05552,0.84406 0.123524,0.99193 0.09856,0.23015 0.395721,0.47228 0.65506,0.53209 0.247857,0.0948 0.372753,0.29093 0.500036,0.51152 0.310069,0.59094 0.54932,1.31077 0.786667,2.39553 0.115748,0.51918 0.212447,0.98284 0.243554,1.2264 -1.914025,0.002 -4.365394,0.004 -6.598568,0.004 -0.751725,0.0127 -2.109233,-0.34122 -3.35445,-0.42304 -0.180311,-1.94748 -1.035954,-4.21094 -2.499207,-4.34253 -0.999114,-0.0904 -1.827412,0.28949 -2.528414,1.8676 l 0.02008,0.0846 c 0.413897,-0.34596 0.850291,-1.40393 2.42361,-1.33119 1.208234,0.055 1.610648,2.34193 1.730279,3.71762 -0.735464,0.054 -1.361829,0.28042 -1.688647,0.84552 h -0.0073 c 0,7.2e-4 0,0.004 0.0036,0.005 -0.0036,0.002 -0.0036,0.004 -0.0036,0.005 h 0.0073 c 0.336872,0.57899 0.986199,0.80341 1.748454,0.84839 0.509604,14.40487 14.050432,16.26288 17.75069,16.26288 13.804815,0 18.637692,-9.38058 19.364551,-13.09615 0.339733,1.58337 -0.730674,3.59978 -0.98716,5.08841 2.912191,-3.36676 2.385817,-6.60334 1.853238,-9.85909 0.442619,0.52636 1.041711,0.85222 1.854203,0.67182 -0.578979,-0.3871 -1.364691,-0.11574 -1.835049,-1.74749 -0.205279,-0.70483 -0.382806,-1.23324 -0.559373,-1.67729 -0.380892,-1.42833 -0.921131,-2.79304 -1.585292,-4.12279 -0.559842,-1.44268 -0.189964,-2.37768 -0.245938,-3.61557 1.007721,3.32321 1.637925,4.20749 2.814068,4.55536 -2.958588,-3.56486 -1.946072,-9.08457 -3.617483,-14.01124 0.756521,0.44453 1.619743,0.57851 2.538938,0.035 -0.889048,-0.25296 -1.776688,0.41597 -3.052376,-1.45927 -1.077586,-2.09634 -2.638928,-3.64476 -4.532844,-5.01041 -1.014923,-0.66177 -2.141304,-1.1063 -3.27392,-1.51924 1.15367,-0.28902 2.441316,-1.3159 2.501124,-2.08245 z M 62.2527,250.3454 c 1.519257,0.55411 3.194018,2.65951 3.174867,4.72521 v 0.0858 0.0297 c -0.04069,2.80566 -1.315876,4.31391 -1.262289,6.18198 0.06891,2.20015 1.015862,2.96769 1.204399,3.33468 -0.322982,-1.35655 -0.512481,-3.06337 -0.08572,-4.41514 0.548359,-1.73841 1.101515,-3.17821 1.061797,-4.54022 -0.02008,-0.31868 -0.155534,-1.51207 -0.246427,-2.04033 1.628819,2.3504 -0.352659,5.76902 0.21724,8.00601 0.990973,3.89693 5.431967,4.38932 4.110337,12.24074 -1.163234,6.9024 -9.134614,12.14105 -17.30505,12.14105 -6.0569,0 -16.553018,-3.3524 -17.071698,-15.24414 1.231324,-0.088 2.55534,-0.43068 3.297972,-0.4187 2.245146,0 4.808969,7.3e-4 6.74068,0.002 0.363184,1.63697 0.635458,2.03173 2.0121,3.12225 1.531217,1.20437 1.887692,1.35082 4.152932,1.37282 2.265704,0.023 2.937534,-0.46271 5.135767,-2.54229 0.474678,-0.55602 0.679966,-1.28478 0.910117,-1.96953 2.260935,-0.021 3.909847,-0.0613 5.531974,-0.13689 1.651793,-0.0747 1.88482,0 4.546738,-0.2742 -2.661918,-0.27418 -2.894945,-0.19906 -4.546738,-0.27513 -1.579067,-0.0718 -3.178208,-0.11248 -5.340578,-0.13256 0.181358,-0.81442 0.440718,-1.60969 0.716806,-2.39636 0.170362,-0.4638 0.370835,-0.91552 0.576117,-1.36482 l 0.224419,-0.07 c 0.432561,-0.15354 0.815372,-0.48233 0.968011,-0.92733 0.196184,-0.58903 0.05697,-1.25081 -0.322983,-1.73218 -0.130575,-0.1805 -0.293327,-0.41104 -0.359843,-0.51248 -0.200488,-0.31725 -0.205285,-0.49334 -0.03581,-1.6719 0.14251,-0.98668 0.158424,-1.50346 0.05987,-2.00349 -0.02008,-0.28614 -0.02208,-0.87471 -0.0311,-1.03308 0.07614,0.0421 0.240207,0.41677 0.406734,0.924 0.165477,0.50959 0.192353,0.61534 0.230151,1.04885 0.04214,0.4924 -0.14215,0.8575 -0.293793,1.59199 -0.0756,0.37897 -0.142514,0.73067 -0.142514,0.77853 0,0.0511 0.03581,0.15878 0.07361,0.24259 0.08898,0.18711 0.255507,0.45028 0.286144,0.45028 0.543099,-0.59908 0.862264,-1.33886 1.146489,-2.08913 0.299056,-0.84935 0.386626,-1.75084 0.596212,-2.62509 0.169461,-0.76177 0.364616,-1.52403 0.425385,-2.30608 0.122977,-1.525 0.05118,-2.60162 -0.286147,-4.19073 -0.08048,-0.35889 -0.313883,-1.04363 -0.47611,-1.36662 z m -5.343441,7.51365 c 0.583299,-0.008 1.160379,0.0637 1.709697,0.22202 0.746468,0.28614 0.85125,0.95318 0.98906,1.70203 0.0765,0.47849 0.07378,0.82206 -0.01265,1.38431 -0.06077,0.81584 -0.38471,1.44652 -1.092418,1.89008 -1.067546,0.19764 -2.209245,0.38808 -3.114099,-0.31868 -0.759866,-1.04697 -1.217313,-2.36953 -1.042663,-3.65958 0.110499,-0.52923 0.356491,-0.80438 0.863222,-0.96897 0.545014,-0.15644 1.122564,-0.24213 1.700602,-0.25121 z m -8.85518,0.0948 c 0.545018,-0.005 1.096254,0.0526 1.399629,0.24597 1.300576,0.88043 0.883314,2.31307 0.368918,3.5701 -0.74885,1.64558 -2.367637,1.5848 -3.937118,1.57189 -0.867999,-0.25411 -0.947916,-0.96612 -1.073284,-1.72645 -0.107604,-0.73498 -0.33687,-1.52212 -0.145406,-2.26094 0.491414,-1.18812 2.287718,-1.32496 3.387317,-1.40057 z m 19.840662,0.20529 c 0.0073,3.16289 0.547404,4.71707 1.632169,6.95695 -0.639274,-1.21874 -1.552268,-1.91256 -1.892483,-3.3701 -0.649803,-2.81407 0.05118,-2.65664 0.260314,-3.58685 z m -15.763326,2.29059 c 0.171269,0.17362 0.254079,0.41294 0.402413,0.60339 0.114838,-0.19667 0.232556,-0.3919 0.379933,-0.56606 0.0765,0.002 0.170363,0.15318 0.255036,0.42442 0.363188,1.00295 0.434009,2.10638 0.904386,3.07056 0.439743,0.69764 -0.160776,1.10438 -0.819694,1.13645 -0.480416,-7.3e-4 -0.683763,-0.32922 -0.9656,-0.65412 -0.07271,0.21246 -0.211507,0.34882 -0.377076,0.49238 -0.420587,0.35313 -1.245057,0.22251 -1.372824,-0.334 0.169816,-1.06276 0.711071,-2.03843 1.065628,-3.05715 0.176514,-0.37179 0.178505,-0.65699 0.527798,-1.11587 z m -6.172701,5.36833 c 0.211977,0 0.79528,0.39572 0.913953,0.61918 0.08175,0.14829 0.267951,0.72684 0.28088,0.86718 0.021,0.16748 -0.02964,0.56464 -0.08139,0.6723 -0.03834,0.0765 -0.06692,0.0876 -0.111041,0.0379 -0.03689,-0.0421 -0.525392,-0.97916 -0.837382,-1.5993 -0.244978,-0.49621 -0.270821,-0.59716 -0.165115,-0.59716 z m 12.183644,0.31008 c 0.009,0.002 0.02008,0.004 0.0311,0.008 0.06547,0.0267 0.01971,0.25982 -0.227278,1.10739 -0.04684,0.25553 -0.160774,0.4565 -0.327303,0.62397 -0.05462,0 -0.07939,-0.0637 -0.165479,-0.41773 -0.07271,-0.30207 -0.0803,-0.571 -0.02964,-0.81217 0.08754,-0.3024 0.442618,-0.39476 0.718707,-0.50864 z m -1.478569,1.84715 c 0.021,-0.004 0.04105,0.008 0.06692,0.0283 0.08989,0.0628 0.102906,0.22825 0.04305,0.55219 -0.07271,0.41677 -0.08898,0.46272 -0.196659,0.50531 -0.04684,0.021 -0.130575,0.0358 -0.18615,0.0358 -0.100915,-0.0181 -0.126776,-0.0995 -0.102905,-0.22298 0,-0.25935 0.0756,-0.48473 0.247385,-0.75078 0.06456,-0.10002 0.09766,-0.14269 0.128223,-0.14794 z m -8.605873,0.0191 c 0.06891,0 0.276088,0.14974 0.353129,0.25313 0.08572,0.10959 0.183274,0.76274 0.12822,0.87519 -0.06275,0.14162 -0.369875,0.0709 -0.454567,-0.10526 -0.05173,-0.10579 -0.174159,-0.67613 -0.174159,-0.81155 0,-0.12587 0.06077,-0.21149 0.147395,-0.21149 z m 7.866588,0.17236 c 0.08374,0.11955 0.105256,0.27323 0.08754,0.61008 l -0.01628,0.30722 -0.08807,0.0876 c -0.05262,0.0494 -0.142507,0.10906 -0.196188,0.13402 -0.118636,0.0556 -0.209586,0.0607 -0.226334,0.0163 -0.02008,-0.0599 0.01448,-0.44072 0.05082,-0.56943 0.04305,-0.13257 0.23543,-0.52827 0.299074,-0.612 0.0291,-0.0765 0.06276,0.0192 0.08989,0.0267 z m -5.005623,-0.0181 c 0.180486,0.0459 0.260313,0.20814 0.358879,0.356 l 0.06692,0.13167 -0.09386,0.32586 c -0.04973,0.1794 -0.102909,0.34068 -0.118643,0.35888 -0.01809,0.0201 -0.08464,0.0296 -0.183254,0.0287 -0.263195,-0.008 -0.293322,-0.0181 -0.364145,-0.12533 l -0.06546,-0.0977 0.05552,-0.27418 c 0.08084,-0.39476 0.119724,-0.51344 0.209572,-0.61535 0.04684,-0.0546 0.09386,-0.0846 0.134374,-0.0884 z m -1.665663,0.2823 0.148295,0.14831 0.02498,0.33592 c 0.01265,0.18326 0.01917,0.35408 0.0091,0.37466 -0.0091,0.0291 -0.06275,0.0368 -0.229207,0.0368 h -0.216227 c -0.115744,-0.12641 -0.151735,-0.28088 -0.200494,-0.44022 -0.113395,-0.47946 -0.113395,-0.69813 0.0036,-0.72683 0.192353,0.0127 0.318679,0.15172 0.459363,0.2713 z m 5.78175,-0.23063 c 0.235414,0.0631 0.188517,0.43688 0.187579,0.70389 -0.01809,0.43256 -0.03489,0.52252 -0.09096,0.57802 -0.09657,0.0971 -0.365588,0.0431 -0.496217,-0.10055 -0.04305,-0.0518 -0.04684,-0.068 -0.01268,-0.27801 0.0387,-0.25648 0.08843,-0.41581 0.199064,-0.63497 0.08084,-0.15752 0.156976,-0.25648 0.213402,-0.26844 z m -5.309474,0.0201 c 0.01268,-7.3e-4 0.034,0 0.05408,0.002 0.149199,0.0127 0.289015,0.1096 0.412466,0.28902 l 0.10001,0.14686 c 0.009,0.24021 0,0.49334 -0.04304,0.71632 -0.02587,0.0127 -0.13347,0.0331 -0.239247,0.0431 -0.183277,0.0163 -0.200494,0.0127 -0.264137,-0.0431 -0.08843,-0.0756 -0.113394,-0.21629 -0.135456,-0.68283 -0.01268,-0.3804 -0.0036,-0.46558 0.115382,-0.47132 z m 2.26236,0.0799 c 0.160236,0.0334 0.261748,0.11954 0.306725,0.25983 0.03581,0.12063 0.05787,0.79577 0.02297,0.84265 -0.01263,0.0195 -0.08753,0.0451 -0.174159,0.0555 -0.32298,0.0413 -0.608185,0.0109 -0.636416,-0.0666 -0.03581,-0.0876 0.204328,-0.95699 0.293326,-1.06466 0.0378,-0.0837 0.129669,-0.0192 0.187576,-0.0267 z m 2.09106,0.005 c 0.07089,-0.008 0.14685,0.0607 0.220585,0.20529 0.05987,0.12061 0.06891,0.16276 0.06891,0.43255 0,0.21534 -0.01265,0.30816 -0.03581,0.32827 -0.02008,0.0163 -0.100914,0.0451 -0.186603,0.0666 -0.149744,0.0392 -0.182314,0.0431 -0.22921,0.0273 l -0.224421,-0.0413 0.01628,-0.13346 c 0.01629,-0.17417 0.130574,-0.56129 0.211502,-0.72876 0.04793,-0.0995 0.102904,-0.14938 0.158428,-0.15644 z m -0.974716,0.004 c 0.04683,-0.002 0.06891,0.009 0.09856,0.0421 0.07089,0.0837 0.160779,0.33114 0.217261,0.59528 0.07614,0.3718 0.07614,0.37083 -0.08663,0.41964 -0.07089,0.022 -0.220114,0.0445 -0.326834,0.0506 -0.352171,0.0181 -0.378975,-0.004 -0.335895,-0.31389 0.03345,-0.27707 0.170359,-0.71394 0.229191,-0.746 0.06366,-0.0334 0.137269,-0.0325 0.204328,-0.048 z m -17.93682,1.40487 c 0.0036,-7.3e-4 0.0073,0 0.0073,0 0.0091,0.19428 0.0091,0.39046 0.01265,0.58618 -0.493346,-0.0379 -0.856045,-0.15553 -0.856045,-0.29428 0,-0.13636 0.349786,-0.25314 0.836423,-0.2919 z m 0.862262,0.0163 c 0.399556,0.0498 0.675644,0.15463 0.67085,0.27514 0,0.12154 -0.267479,0.22538 -0.664158,0.27417 -0.0036,-0.1823 -0.0036,-0.36557 -0.0073,-0.54931 z m 18.667499,0.5316 c 0.034,-0.004 0.04883,-0.005 0.100552,-0.002 0.207674,0.0206 0.23735,0.0334 0.23735,0.10328 0,0.0919 -0.157523,0.36797 -0.264135,0.46368 -0.04974,0.0479 -0.118639,0.0876 -0.142511,0.0876 -0.119543,0 -0.189497,-0.25218 -0.133467,-0.48424 0.034,-0.12588 0.09567,-0.16458 0.202387,-0.16947 z m -0.752684,0.0828 c 0.09277,-0.009 0.182313,0.0163 0.272268,0.0287 -0.02584,0.26222 -0.143595,0.47661 -0.361738,0.61919 -0.05408,0 -0.08085,-0.10291 -0.08085,-0.32729 0,-0.26701 0.01448,-0.31773 0.170364,-0.3206 z m -0.825408,0.0966 c 0.192353,0 0.361737,0.009 0.369876,0.0197 0.03581,0.034 -0.068,0.29142 -0.220116,0.55219 -0.130573,0.23256 -0.149744,0.24931 -0.230639,0.25552 -0.31676,-0.0358 -0.307665,-0.40767 -0.356476,-0.66319 0,-0.1512 0.03346,-0.16403 0.437355,-0.16403 z m -2.999754,0.0287 c 0.220607,0.004 0.30626,0.0368 0.30626,0.12153 0,0.10761 -0.08175,0.32204 -0.128767,0.34882 -0.0709,0.0392 -0.0765,0.0369 -0.216282,-0.10869 -0.220114,-0.2469 -0.244998,-0.29283 0.0387,-0.36174 z m 1.060863,0.0109 c 0.0037,0.005 0.04683,0.0837 0.08988,0.17126 0.09333,0.18279 0.100557,0.26222 0.03345,0.32301 -0.157522,0.0898 -0.190455,0.0392 -0.332568,-0.0518 -0.16548,-0.15644 -0.2962,-0.36703 -0.253606,-0.41058 0.147932,-0.0532 0.310067,-0.0331 0.462707,-0.032 z m 0.420589,0.005 0.393821,0.008 c 0.153543,0 0.286143,0.008 0.293323,0.02 0.02674,0.0239 -0.05987,0.53594 -0.106702,0.65173 -0.05408,0.12968 -0.242615,0.13057 -0.34022,-0.0229 -0.139257,-0.22011 -0.231127,-0.40578 -0.233987,-0.53306 z"
       id="path3671"
       style="fill:#f8f9fa;fill-opacity:1;stroke:none;stroke-width:0.26458332" />
    <g
       id="g883"
       style="fill:#212529;fill-opacity:1">
      <rect
         y="274.81665"
         x="0"
         height="22.183372"
         width="106"
         id="rect841"
         style="opacity:1;fill:#212529;fill-opacity:1;stroke:none;stroke-width:1;stroke-linecap:round;stroke-linejoin:round;stroke-miterlimit:4;stroke-dasharray:none;stroke-opacity:1" />
      <rect
         style="opacity:1;fill:#212529;fill-opacity:1;stroke:none;stroke-width:0.99999994;stroke-linecap:round;stroke-linejoin:round;stroke-miterlimit:4;stroke-dasharray:none;stroke-opacity:1"
         id="rect847"
         width="52.145191"
         height="20.446121"
         x="53.854809"
         y="270.40671" />
    </g>
    <text
       id="text833"
       y="273.48029"
       x="7.5040722"
       style="font-style:normal;font-variant:normal;font-weight:normal;font-stretch:normal;font-size:3.4395833px;line-height:1.25;font-family:'Ubuntu Mono';-inkscape-font-specification:'Ubuntu Mono';letter-spacing:0px;word-spacing:0px;fill:#facc15;fill-opacity:1;stroke:none;stroke-width:0.26458332"
       xml:space="preserve"><tspan
         style="font-style:normal;font-variant:normal;font-weight:bold;font-stretch:normal;font-size:3.26319432px;font-family:monospace;-inkscape-font-specification:'monospace, Normal';font-variant-ligatures:normal;font-variant-caps:normal;font-variant-numeric:normal;font-feature-settings:normal;text-align:start;writing-mode:lr-tb;text-anchor:start;fill:#facc15;stroke:none;stroke-width:0.26458332"
         y="273.48029"
         x="7.5040722"
         id="tspan829"
         sodipodi:role="line">                        ▨++?F▦?■?▤?S▼O=??bug?+</tspan><tspan
         style="font-style:normal;font-variant:normal;font-weight:bold;font-stretch:normal;font-size:3.26319432px;font-family:monospace;-inkscape-font-specification:'monospace, Normal';font-variant-ligatures:normal;font-variant-caps:normal;font-variant-numeric:normal;font-feature-settings:normal;text-align:start;writing-mode:lr-tb;text-anchor:start;fill:#facc15;stroke:none;stroke-width:0.26458332"
         y="277.88019"
         x="7.5040722"
         sodipodi:role="line"
         id="tspan843">ReferenceError: Pattern is not defined</tspan><tspan
         style="font-style:normal;font-variant:normal;font-weight:bold;font-stretch:normal;font-size:3.26319432px;font-family:monospace;-inkscape-font-specification:'monospace, Normal';font-variant-ligatures:normal;font-variant-caps:normal;font-variant-numeric:normal;font-feature-settings:normal;text-align:start;writing-mode:lr-tb;text-anchor:start;fill:#facc15;stroke:none;stroke-width:0.26458332"
         y="282.28009"
         x="7.5040722"
         sodipodi:role="line"
         id="tspan837">at draft (./packages/core/src/pattern.js)</tspan><tspan
         style="font-style:normal;font-variant:normal;font-weight:bold;font-stretch:normal;font-size:3.26319432px;font-family:monospace;-inkscape-font-specification:'monospace, Normal';font-variant-ligatures:normal;font-variant-caps:normal;font-variant-numeric:normal;font-feature-settings:normal;text-align:start;writing-mode:lr-tb;text-anchor:start;fill:#facc15;stroke:none;stroke-width:0.26458332"
         y="286.67999"
         x="7.5040722"
         sodipodi:role="line"
         id="tspan839">Please report this at: </tspan><tspan
         style="font-style:normal;font-variant:normal;font-weight:bold;font-stretch:normal;font-size:3.26319432px;font-family:monospace;-inkscape-font-specification:'monospace, Normal';font-variant-ligatures:normal;font-variant-caps:normal;font-variant-numeric:normal;font-feature-settings:normal;text-align:start;writing-mode:lr-tb;text-anchor:start;fill:#facc15;stroke:none;stroke-width:0.26458332"
         y="291.0799"
         x="7.5040722"
         sodipodi:role="line"
         id="tspan849"> github.com/freesewing/freesewing/issues/new</tspan><tspan
         id="tspan831"
         style="font-style:normal;font-variant:normal;font-weight:bold;font-stretch:normal;font-size:3.26319432px;font-family:monospace;-inkscape-font-specification:'monospace, Normal';font-variant-ligatures:normal;font-variant-caps:normal;font-variant-numeric:normal;font-feature-settings:normal;text-align:start;writing-mode:lr-tb;text-anchor:start;fill:#facc15;stroke:none;stroke-width:0.26458332"
         y="295.4798"
         x="7.5040722"
         sodipodi:role="line" /></text>
    <text
       xml:space="preserve"
       style="font-style:normal;font-variant:normal;font-weight:normal;font-stretch:normal;font-size:3.52777767px;line-height:1.25;font-family:'Ubuntu Mono';-inkscape-font-specification:'Ubuntu Mono';letter-spacing:0px;word-spacing:0px;fill:#000000;fill-opacity:1;stroke:none;stroke-width:0.26458332"
       x="74.434563"
       y="273.48029"
       id="text857"><tspan
         sodipodi:role="line"
         id="tspan855"
         x="74.434563"
         y="276.77063"
         style="stroke-width:0.26458332"></tspan></text>
  </g>
</svg>
