<?xml version="1.0" encoding="UTF-8" standalone="no"?>
<svg
   xmlns:dc="http://purl.org/dc/elements/1.1/"
   xmlns:cc="http://creativecommons.org/ns#"
   xmlns:rdf="http://www.w3.org/1999/02/22-rdf-syntax-ns#"
   xmlns:svg="http://www.w3.org/2000/svg"
   xmlns="http://www.w3.org/2000/svg"
   xmlns:sodipodi="http://sodipodi.sourceforge.net/DTD/sodipodi-0.dtd"
   xmlns:inkscape="http://www.inkscape.org/namespaces/inkscape"
   width="174.28856mm"
   height="64.997749mm"
   viewBox="0 0 174.28856 64.99775"
   version="1.1"
   id="svg1042"
   sodipodi:docname="Teagan03h.svg"
   inkscape:version="1.0.1 (c497b03c, 2020-09-10)">
  <defs
     id="defs1036">
    <marker
       orient="auto"
       refY="0"
       refX="0"
       id="cutonfoldFrom"
       style="overflow:visible">
      <path
         class="note fill-note"
         d="m 0,0 12,-4 c -2,2 -2,6 0,8 z"
         id="path837" />
    </marker>
    <marker
       orient="auto"
       refY="0"
       refX="0"
       id="cutonfoldTo"
       style="overflow:visible">
      <path
         class="note fill-note"
         d="m 0,0 -12,-4 c 2,2 2,6 0,8 z"
         id="path840" />
    </marker>
    <marker
       orient="auto"
       refY="0"
       refX="0"
       id="marker1619"
       style="overflow:visible">
      <path
         class="note fill-note"
         d="m 0,0 12,-4 c -2,2 -2,6 0,8 z"
         id="path1617" />
    </marker>
    <marker
       orient="auto"
       refY="0"
       refX="0"
       id="marker1623"
       style="overflow:visible">
      <path
         class="note fill-note"
         d="m 0,0 -12,-4 c 2,2 2,6 0,8 z"
         id="path1621" />
    </marker>
    <marker
       orient="auto"
       refY="0"
       refX="0"
       id="grainlineFrom"
       style="overflow:visible">
      <path
         class="note fill-note"
         d="m 0,0 12,-4 c -2,2 -2,6 0,8 z"
         id="path849" />
    </marker>
    <marker
       orient="auto"
       refY="0"
       refX="0"
       id="grainlineTo"
       style="overflow:visible">
      <path
         class="note fill-note"
         d="m 0,0 -12,-4 c 2,2 2,6 0,8 z"
         id="path852" />
    </marker>
  </defs>
  <sodipodi:namedview
     id="base"
     pagecolor="#ffffff"
     bordercolor="#666666"
     borderopacity="1.0"
     inkscape:pageopacity="0.0"
     inkscape:pageshadow="2"
     inkscape:zoom="1.3320223"
     inkscape:cx="286.81557"
     inkscape:cy="146.58649"
     inkscape:document-units="mm"
     inkscape:current-layer="layer6"
     inkscape:document-rotation="0"
     showgrid="false"
     inkscape:window-width="1380"
     inkscape:window-height="806"
     inkscape:window-x="30"
     inkscape:window-y="25"
     inkscape:window-maximized="0"
     fit-margin-left="0"
     fit-margin-top="0"
     fit-margin-right="0"
     fit-margin-bottom="-50" />
  <metadata
     id="metadata1039">
    <rdf:RDF>
      <cc:Work
         rdf:about="">
        <dc:format>image/svg+xml</dc:format>
        <dc:type
           rdf:resource="http://purl.org/dc/dcmitype/StillImage" />
        <dc:title></dc:title>
      </cc:Work>
    </rdf:RDF>
  </metadata>
  <g
     inkscape:groupmode="layer"
     id="layer3"
     inkscape:label="Layer 2"
     transform="translate(-17.523895,-9.2381483)"
     style="display:inline">
    <path
       style="opacity:0;fill:#e6e6e6;stroke:none;stroke-width:0.679745"
       d="m 331.13394,138.40275 c -11.97728,-2.00717 -27.13568,-8.36673 -38.29013,-16.06427 -24.05009,-16.59665 -43.3613,-43.431814 -57.193,-79.476316 -2.10396,-5.482791 -3.82539,-10.307596 -3.82539,-10.721789 0,-0.414193 1.6059,0.52575 3.56866,2.088763 11.90226,9.478153 39.1096,17.449813 72.56278,21.260652 23.05028,2.625787 58.65352,3.116229 79.53016,1.095545 33.48592,-3.241159 57.58645,-10.378458 70.46464,-20.867898 4.37169,-3.560785 4.40841,-4.199655 -0.52129,9.068052 -8.96122,24.118023 -21.09616,44.105734 -36.55692,60.213641 -17.61734,18.35475 -38.45883,29.9696 -60.06474,33.47373 -7.73167,1.25395 -21.97453,1.22031 -29.67477,-0.0701 z"
       id="path1772"
       transform="matrix(0.26458333,0,0,0.26458333,12.893534,4.8592926)" />
    <path
       style="fill:#e2e5de;fill-opacity:1;stroke:#888a85;stroke-width:1;stroke-linecap:butt;stroke-linejoin:miter;stroke-miterlimit:4;stroke-dasharray:none;stroke-opacity:1"
       d="M 18.168653,123.7359 18.025993,90.118646 C 44.202011,89.764936 45.358711,60.473216 36.869406,21.234058 L 72.929409,9.9855826 c -3.649014,13.6689324 67.085951,14.2821354 63.308921,-1e-6 l 36.06,11.2484754 c -12.40799,57.626849 2.91627,69.133759 18.84341,68.884589 l 0.16821,33.617254 z"
       id="path6056-5"
       sodipodi:nodetypes="ccccccccc" />
    <path
       style="display:inline;fill:#e6e6e6;stroke:#888a85;stroke-width:1;stroke-linecap:butt;stroke-linejoin:miter;stroke-miterlimit:4;stroke-dasharray:none;stroke-opacity:1"
       d="m 90.355027,15.188569 -0.227309,10.228828 -3.112076,-1.635578 0.04279,-9.590989 z"
       id="path899"
       sodipodi:nodetypes="ccccc"
       transform="translate(12.893533,4.859292)" />
    <path
       style="display:inline;fill:#e6e6e6;fill-opacity:1;stroke:#888a85;stroke-width:1;stroke-linecap:butt;stroke-linejoin:miter;stroke-miterlimit:4;stroke-dasharray:none;stroke-opacity:1"
       d="m 90.355027,15.188569 3.068648,-0.956381 0.07023,10.191851 -3.366183,0.993358 z"
       id="path901"
       sodipodi:nodetypes="ccccc"
       transform="translate(12.893533,4.859292)" />
  </g>
  <g
     inkscape:groupmode="layer"
     id="layer6"
     inkscape:label="Layer 3"
     style="display:inline"
     transform="translate(-4.6303623,-4.3788563)">
    <path
       style="fill:#babdb6;fill-opacity:1;stroke:#888a85;stroke-width:1;stroke-linecap:butt;stroke-linejoin:miter;stroke-miterlimit:4;stroke-dasharray:none;stroke-opacity:1"
       d="m 60.035875,5.1262903 c -1.173144,13.8657457 66.073215,13.0701697 63.308915,0 l 10.9942,3.3567131 C 125.47401,29.887775 55.008741,32.085079 47.734907,8.9376184 Z"
       id="path897"
       sodipodi:nodetypes="ccccc" />
    <path
       style="fill:none;stroke:#888a85;stroke-width:0.5;stroke-linecap:butt;stroke-linejoin:miter;stroke-miterlimit:4;stroke-dasharray:1.5, 0.5;stroke-dashoffset:0;stroke-opacity:1"
       d="m 56.145278,6.3235854 c 1.325959,5.6447976 6.857103,8.5619076 17.957276,10.4561346 m 28.868026,0.795576 c 11.63056,-1.136536 20.76073,-2.727687 24.32188,-11.2517111"
       id="path903"
       sodipodi:nodetypes="cccc" />
    <path
       style="fill:none;stroke:#ff0000;stroke-width:0.5;stroke-linecap:butt;stroke-linejoin:miter;stroke-miterlimit:4;stroke-dasharray:2, 0.5;stroke-dashoffset:0;stroke-opacity:1"
       d="m 74.102554,16.77972 c 10.759212,1.856343 18.90439,1.66692 28.868026,0.795576"
       id="path907"
       sodipodi:nodetypes="cc" />
    <path
       style="fill:none;stroke:#888a85;stroke-width:1;stroke-linecap:butt;stroke-linejoin:miter;stroke-opacity:1;stroke-miterlimit:4;stroke-dasharray:none"
       d="M 90.355025,15.188569 90.127716,25.417397"
       id="path2969" />
  </g>
</svg>
