<?xml version="1.0" encoding="UTF-8" standalone="no"?>
<!-- Created with Inkscape (http://www.inkscape.org/) -->

<svg
   xmlns:dc="http://purl.org/dc/elements/1.1/"
   xmlns:cc="http://creativecommons.org/ns#"
   xmlns:rdf="http://www.w3.org/1999/02/22-rdf-syntax-ns#"
   xmlns:svg="http://www.w3.org/2000/svg"
   xmlns="http://www.w3.org/2000/svg"
   xmlns:sodipodi="http://sodipodi.sourceforge.net/DTD/sodipodi-0.dtd"
   xmlns:inkscape="http://www.inkscape.org/namespaces/inkscape"
   width="1013.46"
   height="623.174"
   id="svg28946"
   version="1.1"
   inkscape:version="0.47 r22583"
   sodipodi:docname="buttonholeplacketwidth.svg">
  <defs
     id="defs28948">
    <inkscape:perspective
       sodipodi:type="inkscape:persp3d"
       inkscape:vp_x="0 : 311.587 : 1"
       inkscape:vp_y="0 : 1000 : 0"
       inkscape:vp_z="1013.46 : 311.587 : 1"
       inkscape:persp3d-origin="506.73 : 207.725 : 1"
       id="perspective29800" />
  </defs>
  <sodipodi:namedview
     id="base"
     pagecolor="#ffffff"
     bordercolor="#666666"
     borderopacity="1.0"
     inkscape:pageopacity="0.0"
     inkscape:pageshadow="2"
     inkscape:zoom="0.494975"
     inkscape:cx="-115.656"
     inkscape:cy="362.358"
     inkscape:document-units="px"
     inkscape:current-layer="svg28946"
     showgrid="false"
     inkscape:window-width="1832"
     inkscape:window-height="1042"
     inkscape:window-x="24"
     inkscape:window-y="0"
     inkscape:window-maximized="0" />
  <metadata
     id="metadata28951">
    <rdf:RDF>
      <cc:Work
         rdf:about="">
        <dc:format>image/svg+xml</dc:format>
        <dc:type
           rdf:resource="http://purl.org/dc/dcmitype/StillImage" />
        <dc:title></dc:title>
      </cc:Work>
    </rdf:RDF>
  </metadata>
  <g
     style="fill:#212121;stroke:#545454"
     id="g10021"
     transform="translate(512.857,-1.55518e-7)" />
  <rect
     y="20.9674"
     x="204.34"
     height="62.6757"
     width="92.5761"
     id="inside"
     style="fill:#8e8e8e;fill-opacity:1;stroke:none" />
  <path
     sodipodi:nodetypes="ccccc"
     id="path16117"
     d="M 299.253,13.3014 C 299.253,-4.1479 199.23,0.816749 199.23,13.3014 L 199.23,34.4012 C 242.305,15.7107 271.509,23.6687 299.253,34.4012 L 299.253,13.3014 z"
     style="fill:#212121;fill-opacity:1;stroke:#545454;stroke-width:4;stroke-linecap:round;stroke-linejoin:round;stroke-miterlimit:4;stroke-opacity:1;stroke-dasharray:none;stroke-dashoffset:0"
     inkscape:connector-curvature="0" />
  <path
     sodipodi:nodetypes="cccccccccscssccc"
     id="path16119"
     class="fitline"
     d="M 240.693,61.8667 254.224,111.152 C 256.414,111.152 259.335,110.933 261.525,110.495 263.715,110.933 265.906,111.152 268.826,111.152 L 275.397,111.152 286.111,600.809 114.538,600.809 C 109.428,600.809 81.6846,600.809 81.6846,600.809 81.6846,600.809 78.7642,550.214 81.6846,524.368 83.1447,508.744 94.8259,457.565 94.8259,394.557 94.8259,305.902 86.7949,243.179 86.7949,221.014 93.3657,221.014 75.1133,203.126 80.224,195.533 89.7152,180.201 91.9055,155.524 91.9055,126.758 91.9055,97.8465 93.3657,55.0629 92.6356,47.9809 L 198.499,31.8458 C 198.499,46.2287 199.078,61.8667 240.693,61.8667 z"
     style="fill:#212121;fill-opacity:1;stroke:#545454;stroke-width:4;stroke-linecap:round;stroke-linejoin:round;stroke-miterlimit:4;stroke-opacity:1;stroke-dasharray:none;stroke-dashoffset:0"
     inkscape:connector-curvature="0" />
  <path
     style="fill:#212121;fill-opacity:1;stroke:#545454;stroke-width:3;stroke-linecap:butt;stroke-linejoin:round;stroke-miterlimit:4;stroke-opacity:1;stroke-dasharray:none;stroke-dashoffset:0"
     d="M 258.57,152.281 C 258.57,96.8126 249.286,61.9241 249.286,61.9241 245.111,61.5948 241.589,61.3773 236.964,59.2455 245.66,90.057 244.821,118.924 244.821,150.138 L 258.57,152.281 z"
     id="path29802"
     sodipodi:nodetypes="ccccc" />
  <path
     style="fill:#212121;fill-opacity:1;stroke:#545454;stroke-width:4;stroke-linecap:round;stroke-linejoin:round;stroke-miterlimit:4;stroke-opacity:1;stroke-dasharray:none;stroke-dashoffset:0"
     d="M 257.694,61.1957 C 252.263,80.0328 243.765,99.8529 243.765,118.888 L 243.765,600.809 386.134,600.809 C 391.245,600.809 420.448,600.809 420.448,600.809 420.448,600.809 423.369,550.433 420.448,524.587 418.258,508.963 406.577,446.175 406.577,383.168 406.577,294.512 413.878,247.042 413.878,224.679 418.988,225.898 424.829,203.126 420.449,195.533 410.957,180.201 408.037,155.524 408.037,126.758 408.037,97.8465 406.577,55.0629 408.037,47.9809 L 301.443,31.8458 C 301.443,45.8637 297.12,57.3992 258.425,58.4213 256.964,58.4213 259.155,61.1957 257.694,61.1957 z"
     class="fitline"
     id="path16149"
     sodipodi:nodetypes="ccccccscssccsc"
     inkscape:connector-curvature="0" />
  <circle
     transform="matrix(0.720385,0,0,0.720385,244.622,67.3559)"
     style="fill:#545454;fill-opacity:1;stroke:none"
     sodipodi:ry="5"
     sodipodi:rx="5"
     sodipodi:cy="0"
     sodipodi:cx="0"
     id="circle16173"
     cx="0"
     cy="0"
     r="5"
     d="M 5,0 C 5,2.76142 2.76142,5 0,5 -2.76142,5 -5,2.76142 -5,0 -5,-2.76142 -2.76142,-5 0,-5 2.76142,-5 5,-2.76142 5,0 z" />
  <path
     sodipodi:nodetypes="ccccc"
     id="path16151"
     d="M 302.903,35.7883 299.253,13.7394 C 299.253,22.7196 294.778,42.5624 258.273,58.9166 L 273.605,87.4633 C 291.127,69.941 300.713,49.7332 302.903,35.7883 z"
     style="fill:#212121;fill-opacity:1;stroke:#545454;stroke-width:4;stroke-linecap:round;stroke-linejoin:round;stroke-miterlimit:4;stroke-opacity:1;stroke-dasharray:none;stroke-dashoffset:0"
     inkscape:connector-curvature="0" />
  <path
     style="fill:#212121;fill-opacity:1;stroke:#545454;stroke-width:4;stroke-linecap:round;stroke-linejoin:round;stroke-miterlimit:4;stroke-opacity:1;stroke-dasharray:none;stroke-dashoffset:0"
     d="M 196.309,35.7883 200.69,11.9872 C 200.69,27.2462 200.538,43.991 237.773,60.3452 L 220.251,88.8919 C 202.728,71.3696 198.499,49.7332 196.309,35.7883 z"
     id="path16153"
     sodipodi:nodetypes="ccccc"
     inkscape:connector-curvature="0" />
  <path
     inkscape:connector-curvature="0"
     sodipodi:nodetypes="csccccccc"
     id="path16157"
     d="M 407.148,47.0057 C 421.178,47.0057 441.714,75.0654 452.897,114.837 484.007,226.1 506.78,544.924 495.8,573.797 495.8,588.437 495.394,607.754 495.19,621.174 L 442.121,621.174 C 442.121,607.55 442.121,589.047 442.121,574.407 434.801,537.198 434.191,467.862 421.584,335.086 420.161,299.91 416.501,225.49 409.181,196.658 389.661,163.006 401.251,71.2021 407.148,47.0057 z"
     style="fill:#212121;fill-opacity:1;stroke:#545454;stroke-width:4;stroke-linecap:round;stroke-linejoin:round;stroke-miterlimit:4;stroke-opacity:1;stroke-dasharray:none;stroke-dashoffset:0" />
  <path
     inkscape:connector-curvature="0"
     style="fill:#212121;fill-opacity:1;stroke:#545454;stroke-width:4;stroke-linecap:round;stroke-linejoin:round;stroke-miterlimit:4;stroke-opacity:1;stroke-dasharray:none;stroke-dashoffset:0"
     d="M 93.5249,47.0057 C 79.495,47.0057 58.9585,75.0654 47.7753,114.837 16.6655,226.1 -6.31096,554.887 4.87228,573.797 4.87228,588.437 5.27894,607.754 5.48227,621.174 L 58.5518,621.174 C 58.5518,607.55 58.5518,589.047 58.5518,574.407 66.8884,554.481 69.3284,467.048 81.7316,335.086 83.155,299.91 84.1716,225.49 91.4916,196.658 111.011,163.006 99.4215,71.2021 93.5249,47.0057 z"
     id="path16163"
     sodipodi:nodetypes="csccccccc" />
  <path
     id="seams"
     d="M 4.875,574.406 58.3438,574.406 4.875,574.406 z M 442.312,574.406 495.812,574.406 442.312,574.406 z"
     style="fill:#5c3566;fill-opacity:1;stroke:#545454;stroke-width:4;stroke-linecap:round;stroke-linejoin:round;stroke-miterlimit:4;stroke-opacity:1;stroke-dasharray:none;stroke-dashoffset:0" />
  <circle
     d="M 5,0 C 5,2.76142 2.76142,5 0,5 -2.76142,5 -5,2.76142 -5,0 -5,-2.76142 -2.76142,-5 0,-5 2.76142,-5 5,-2.76142 5,0 z"
     r="5"
     cy="0"
     cx="0"
     id="circle16181"
     sodipodi:cx="0"
     sodipodi:cy="0"
     sodipodi:rx="5"
     sodipodi:ry="5"
     style="fill:#545454;fill-opacity:1;stroke:none"
     transform="matrix(0.720385,0,0,0.720385,250.336,121.94)" />
  <path
     d="M 248.876,120.479 251.796,123.4 M 248.876,123.4 251.796,120.479"
     style="fill:#545454;fill-opacity:1;stroke:none"
     id="path16183"
     inkscape:connector-curvature="0" />
  <circle
     d="M 4,0 C 4,2.20914 2.20914,4 0,4 -2.20914,4 -4,2.20914 -4,0 -4,-2.20914 -2.20914,-4 0,-4 2.20914,-4 4,-2.20914 4,0 z"
     r="4"
     cy="0"
     cx="0"
     id="circle16185"
     sodipodi:cx="0"
     sodipodi:cy="0"
     sodipodi:rx="4"
     sodipodi:ry="4"
     style="fill:#545454;fill-opacity:1;stroke:none"
     transform="matrix(0.720385,0,0,0.720385,250.336,121.94)" />
  <circle
     transform="matrix(0.720385,0,0,0.720385,250.336,181.88)"
     style="fill:#545454;fill-opacity:1;stroke:none"
     sodipodi:ry="5"
     sodipodi:rx="5"
     sodipodi:cy="0"
     sodipodi:cx="0"
     id="circle16189"
     cx="0"
     cy="0"
     r="5"
     d="M 5,0 C 5,2.76142 2.76142,5 0,5 -2.76142,5 -5,2.76142 -5,0 -5,-2.76142 -2.76142,-5 0,-5 2.76142,-5 5,-2.76142 5,0 z" />
  <path
     inkscape:connector-curvature="0"
     id="path16191"
     style="fill:#545454;fill-opacity:1;stroke:none"
     d="M 248.876,180.42 251.796,183.341 M 248.876,183.341 251.796,180.42" />
  <circle
     transform="matrix(0.720385,0,0,0.720385,250.336,181.88)"
     style="fill:#545454;fill-opacity:1;stroke:none"
     sodipodi:ry="4"
     sodipodi:rx="4"
     sodipodi:cy="0"
     sodipodi:cx="0"
     id="circle16193"
     cx="0"
     cy="0"
     r="4"
     d="M 4,0 C 4,2.20914 2.20914,4 0,4 -2.20914,4 -4,2.20914 -4,0 -4,-2.20914 -2.20914,-4 0,-4 2.20914,-4 4,-2.20914 4,0 z" />
  <circle
     d="M 5,0 C 5,2.76142 2.76142,5 0,5 -2.76142,5 -5,2.76142 -5,0 -5,-2.76142 -2.76142,-5 0,-5 2.76142,-5 5,-2.76142 5,0 z"
     r="5"
     cy="0"
     cx="0"
     id="circle16197"
     sodipodi:cx="0"
     sodipodi:cy="0"
     sodipodi:rx="5"
     sodipodi:ry="5"
     style="fill:#545454;fill-opacity:1;stroke:none"
     transform="matrix(0.720385,0,0,0.720385,250.336,237.222)" />
  <path
     d="M 248.876,235.762 251.796,238.682 M 248.876,238.682 251.796,235.762"
     style="fill:#545454;fill-opacity:1;stroke:none"
     id="path16199"
     inkscape:connector-curvature="0" />
  <circle
     d="M 4,0 C 4,2.20914 2.20914,4 0,4 -2.20914,4 -4,2.20914 -4,0 -4,-2.20914 -2.20914,-4 0,-4 2.20914,-4 4,-2.20914 4,0 z"
     r="4"
     cy="0"
     cx="0"
     id="circle16201"
     sodipodi:cx="0"
     sodipodi:cy="0"
     sodipodi:rx="4"
     sodipodi:ry="4"
     style="fill:#545454;fill-opacity:1;stroke:none"
     transform="matrix(0.720385,0,0,0.720385,250.336,237.222)" />
  <circle
     transform="matrix(0.720385,0,0,0.720385,250.336,292.636)"
     style="fill:#545454;fill-opacity:1;stroke:none"
     sodipodi:ry="5"
     sodipodi:rx="5"
     sodipodi:cy="0"
     sodipodi:cx="0"
     id="circle16205"
     cx="0"
     cy="0"
     r="5"
     d="M 5,0 C 5,2.76142 2.76142,5 0,5 -2.76142,5 -5,2.76142 -5,0 -5,-2.76142 -2.76142,-5 0,-5 2.76142,-5 5,-2.76142 5,0 z" />
  <path
     inkscape:connector-curvature="0"
     id="path16207"
     style="fill:#545454;fill-opacity:1;stroke:none"
     d="M 248.876,291.176 251.796,294.096 M 248.876,294.096 251.796,291.176" />
  <circle
     transform="matrix(0.720385,0,0,0.720385,250.336,292.636)"
     style="fill:#545454;fill-opacity:1;stroke:none"
     sodipodi:ry="4"
     sodipodi:rx="4"
     sodipodi:cy="0"
     sodipodi:cx="0"
     id="circle16209"
     cx="0"
     cy="0"
     r="4"
     d="M 4,0 C 4,2.20914 2.20914,4 0,4 -2.20914,4 -4,2.20914 -4,0 -4,-2.20914 -2.20914,-4 0,-4 2.20914,-4 4,-2.20914 4,0 z" />
  <circle
     d="M 5,0 C 5,2.76142 2.76142,5 0,5 -2.76142,5 -5,2.76142 -5,0 -5,-2.76142 -2.76142,-5 0,-5 2.76142,-5 5,-2.76142 5,0 z"
     r="5"
     cy="0"
     cx="0"
     id="circle16213"
     sodipodi:cx="0"
     sodipodi:cy="0"
     sodipodi:rx="5"
     sodipodi:ry="5"
     style="fill:#545454;fill-opacity:1;stroke:none"
     transform="matrix(0.720385,0,0,0.720385,250.336,347.977)" />
  <path
     d="M 248.876,346.517 251.796,349.437 M 248.876,349.437 251.796,346.517"
     style="fill:#545454;fill-opacity:1;stroke:none"
     id="path16215"
     inkscape:connector-curvature="0" />
  <circle
     d="M 4,0 C 4,2.20914 2.20914,4 0,4 -2.20914,4 -4,2.20914 -4,0 -4,-2.20914 -2.20914,-4 0,-4 2.20914,-4 4,-2.20914 4,0 z"
     r="4"
     cy="0"
     cx="0"
     id="circle16217"
     sodipodi:cx="0"
     sodipodi:cy="0"
     sodipodi:rx="4"
     sodipodi:ry="4"
     style="fill:#545454;fill-opacity:1;stroke:none"
     transform="matrix(0.720385,0,0,0.720385,250.336,347.977)" />
  <circle
     transform="matrix(0.720385,0,0,0.720385,250.336,403.319)"
     style="fill:#545454;fill-opacity:1;stroke:none"
     sodipodi:ry="5"
     sodipodi:rx="5"
     sodipodi:cy="0"
     sodipodi:cx="0"
     id="circle16221"
     cx="0"
     cy="0"
     r="5"
     d="M 5,0 C 5,2.76142 2.76142,5 0,5 -2.76142,5 -5,2.76142 -5,0 -5,-2.76142 -2.76142,-5 0,-5 2.76142,-5 5,-2.76142 5,0 z" />
  <path
     inkscape:connector-curvature="0"
     id="path16223"
     style="fill:#545454;fill-opacity:1;stroke:none"
     d="M 248.876,401.858 251.796,404.779 M 248.876,404.779 251.796,401.858" />
  <circle
     transform="matrix(0.720385,0,0,0.720385,250.336,403.319)"
     style="fill:#545454;fill-opacity:1;stroke:none"
     sodipodi:ry="4"
     sodipodi:rx="4"
     sodipodi:cy="0"
     sodipodi:cx="0"
     id="circle16225"
     cx="0"
     cy="0"
     r="4"
     d="M 4,0 C 4,2.20914 2.20914,4 0,4 -2.20914,4 -4,2.20914 -4,0 -4,-2.20914 -2.20914,-4 0,-4 2.20914,-4 4,-2.20914 4,0 z" />
  <circle
     d="M 5,0 C 5,2.76142 2.76142,5 0,5 -2.76142,5 -5,2.76142 -5,0 -5,-2.76142 -2.76142,-5 0,-5 2.76142,-5 5,-2.76142 5,0 z"
     r="5"
     cy="0"
     cx="0"
     id="circle16229"
     sodipodi:cx="0"
     sodipodi:cy="0"
     sodipodi:rx="5"
     sodipodi:ry="5"
     style="fill:#545454;fill-opacity:1;stroke:none"
     transform="matrix(0.720385,0,0,0.720385,250.336,458.66)" />
  <path
     d="M 248.876,457.2 251.796,460.12 M 248.876,460.12 251.796,457.2"
     style="fill:#545454;fill-opacity:1;stroke:none"
     id="path16231"
     inkscape:connector-curvature="0" />
  <circle
     d="M 4,0 C 4,2.20914 2.20914,4 0,4 -2.20914,4 -4,2.20914 -4,0 -4,-2.20914 -2.20914,-4 0,-4 2.20914,-4 4,-2.20914 4,0 z"
     r="4"
     cy="0"
     cx="0"
     id="circle16233"
     sodipodi:cx="0"
     sodipodi:cy="0"
     sodipodi:rx="4"
     sodipodi:ry="4"
     style="fill:#545454;fill-opacity:1;stroke:none"
     transform="matrix(0.720385,0,0,0.720385,250.336,458.66)" />
  <circle
     transform="matrix(0.720385,0,0,0.720385,250.336,514.074)"
     style="fill:#545454;fill-opacity:1;stroke:none"
     sodipodi:ry="5"
     sodipodi:rx="5"
     sodipodi:cy="0"
     sodipodi:cx="0"
     id="circle16237"
     cx="0"
     cy="0"
     r="5"
     d="M 5,0 C 5,2.76142 2.76142,5 0,5 -2.76142,5 -5,2.76142 -5,0 -5,-2.76142 -2.76142,-5 0,-5 2.76142,-5 5,-2.76142 5,0 z" />
  <path
     inkscape:connector-curvature="0"
     id="path16239"
     style="fill:#545454;fill-opacity:1;stroke:none"
     d="M 248.876,512.614 251.796,515.534 M 248.876,515.534 251.796,512.614" />
  <circle
     transform="matrix(0.720385,0,0,0.720385,250.336,514.074)"
     style="fill:#545454;fill-opacity:1;stroke:none"
     sodipodi:ry="4"
     sodipodi:rx="4"
     sodipodi:cy="0"
     sodipodi:cx="0"
     id="circle16241"
     cx="0"
     cy="0"
     r="4"
     d="M 4,0 C 4,2.20914 2.20914,4 0,4 -2.20914,4 -4,2.20914 -4,0 -4,-2.20914 -2.20914,-4 0,-4 2.20914,-4 4,-2.20914 4,0 z" />
  <path
     style="fill:none;stroke:#545454;stroke-width:3;stroke-miterlimit:4;stroke-dasharray:none"
     d="M 256.428,600.317 256.428,112.46 C 256.428,103.724 265.715,74.6026 265.715,74.6026"
     id="path30620"
     sodipodi:nodetypes="ccc" />
  <g
     id="g30718"
     transform="translate(512,0)">
    <rect
       y="20.9674"
       x="204.34"
       height="62.6757"
       width="92.5761"
       id="rect30720"
       style="fill:#8e8e8e;fill-opacity:1;stroke:none" />
    <path
       sodipodi:nodetypes="ccccc"
       id="path30722"
       d="M 299.253,13.3014 C 299.253,-4.1479 199.23,0.816749 199.23,13.3014 L 199.23,34.4012 C 242.305,15.7107 271.509,23.6687 299.253,34.4012 L 299.253,13.3014 z"
       style="fill:#212121;fill-opacity:1;stroke:#545454;stroke-width:4;stroke-linecap:round;stroke-linejoin:round;stroke-miterlimit:4;stroke-opacity:1;stroke-dasharray:none;stroke-dashoffset:0"
       inkscape:connector-curvature="0" />
    <path
       sodipodi:nodetypes="cccccccccscssccc"
       id="path30724"
       class="fitline"
       d="M 240.693,61.8667 254.224,111.152 C 256.414,111.152 259.335,110.933 261.525,110.495 263.715,110.933 265.906,111.152 268.826,111.152 L 275.397,111.152 286.111,600.809 114.538,600.809 C 109.428,600.809 81.6846,600.809 81.6846,600.809 81.6846,600.809 78.7642,550.214 81.6846,524.368 83.1447,508.744 94.8259,457.565 94.8259,394.557 94.8259,305.902 86.7949,243.179 86.7949,221.014 93.3657,221.014 75.1133,203.126 80.224,195.533 89.7152,180.201 91.9055,155.524 91.9055,126.758 91.9055,97.8465 93.3657,55.0629 92.6356,47.9809 L 198.499,31.8458 C 198.499,46.2287 199.078,61.8667 240.693,61.8667 z"
       style="fill:#212121;fill-opacity:1;stroke:#545454;stroke-width:4;stroke-linecap:round;stroke-linejoin:round;stroke-miterlimit:4;stroke-opacity:1;stroke-dasharray:none;stroke-dashoffset:0"
       inkscape:connector-curvature="0" />
    <path
       style="fill:#212121;fill-opacity:1;stroke:#545454;stroke-width:3;stroke-linecap:butt;stroke-linejoin:round;stroke-miterlimit:4;stroke-opacity:1;stroke-dasharray:none;stroke-dashoffset:0"
       d="M 258.57,152.281 C 258.57,96.8126 249.286,61.9241 249.286,61.9241 245.111,61.5948 241.589,61.3773 236.964,59.2455 245.66,90.057 244.821,118.924 244.821,150.138 L 258.57,152.281 z"
       id="path30726"
       sodipodi:nodetypes="ccccc" />
    <path
       style="fill:#212121;fill-opacity:1;stroke:#545454;stroke-width:4;stroke-linecap:round;stroke-linejoin:round;stroke-miterlimit:4;stroke-opacity:1;stroke-dasharray:none;stroke-dashoffset:0"
       d="M 257.694,61.1957 C 252.263,80.0328 243.765,99.8529 243.765,118.888 L 243.765,600.809 386.134,600.809 C 391.245,600.809 420.448,600.809 420.448,600.809 420.448,600.809 423.369,550.433 420.448,524.587 418.258,508.963 406.577,446.175 406.577,383.168 406.577,294.512 413.878,247.042 413.878,224.679 418.988,225.898 424.829,203.126 420.449,195.533 410.957,180.201 408.037,155.524 408.037,126.758 408.037,97.8465 406.577,55.0629 408.037,47.9809 L 301.443,31.8458 C 301.443,45.8637 297.12,57.3992 258.425,58.4213 256.964,58.4213 259.155,61.1957 257.694,61.1957 z"
       class="fitline"
       id="path30728"
       sodipodi:nodetypes="ccccccscssccsc"
       inkscape:connector-curvature="0" />
    <circle
       transform="matrix(0.720385,0,0,0.720385,244.622,67.3559)"
       style="fill:#545454;fill-opacity:1;stroke:none"
       sodipodi:ry="5"
       sodipodi:rx="5"
       sodipodi:cy="0"
       sodipodi:cx="0"
       id="circle30730"
       cx="0"
       cy="0"
       r="5"
       d="M 5,0 C 5,2.76142 2.76142,5 0,5 -2.76142,5 -5,2.76142 -5,0 -5,-2.76142 -2.76142,-5 0,-5 2.76142,-5 5,-2.76142 5,0 z" />
    <path
       sodipodi:nodetypes="ccccc"
       id="path30732"
       d="M 302.903,35.7883 299.253,13.7394 C 299.253,22.7196 294.778,42.5624 258.273,58.9166 L 273.605,87.4633 C 291.127,69.941 300.713,49.7332 302.903,35.7883 z"
       style="fill:#212121;fill-opacity:1;stroke:#545454;stroke-width:4;stroke-linecap:round;stroke-linejoin:round;stroke-miterlimit:4;stroke-opacity:1;stroke-dasharray:none;stroke-dashoffset:0"
       inkscape:connector-curvature="0" />
    <path
       style="fill:#212121;fill-opacity:1;stroke:#545454;stroke-width:4;stroke-linecap:round;stroke-linejoin:round;stroke-miterlimit:4;stroke-opacity:1;stroke-dasharray:none;stroke-dashoffset:0"
       d="M 196.309,35.7883 200.69,11.9872 C 200.69,27.2462 200.538,43.991 237.773,60.3452 L 220.251,88.8919 C 202.728,71.3696 198.499,49.7332 196.309,35.7883 z"
       id="path30734"
       sodipodi:nodetypes="ccccc"
       inkscape:connector-curvature="0" />
    <path
       inkscape:connector-curvature="0"
       sodipodi:nodetypes="csccccccc"
       id="path30736"
       d="M 407.148,47.0057 C 421.178,47.0057 441.714,75.0654 452.897,114.837 484.007,226.1 506.78,544.924 495.8,573.797 495.8,588.437 495.394,607.754 495.19,621.174 L 442.121,621.174 C 442.121,607.55 442.121,589.047 442.121,574.407 434.801,537.198 434.191,467.862 421.584,335.086 420.161,299.91 416.501,225.49 409.181,196.658 389.661,163.006 401.251,71.2021 407.148,47.0057 z"
       style="fill:#212121;fill-opacity:1;stroke:#545454;stroke-width:4;stroke-linecap:round;stroke-linejoin:round;stroke-miterlimit:4;stroke-opacity:1;stroke-dasharray:none;stroke-dashoffset:0" />
    <path
       inkscape:connector-curvature="0"
       style="fill:#212121;fill-opacity:1;stroke:#545454;stroke-width:4;stroke-linecap:round;stroke-linejoin:round;stroke-miterlimit:4;stroke-opacity:1;stroke-dasharray:none;stroke-dashoffset:0"
       d="M 93.5249,47.0057 C 79.495,47.0057 58.9585,75.0654 47.7753,114.837 16.6655,226.1 -6.31096,554.887 4.87228,573.797 4.87228,588.437 5.27894,607.754 5.48227,621.174 L 58.5518,621.174 C 58.5518,607.55 58.5518,589.047 58.5518,574.407 66.8884,554.481 69.3284,467.048 81.7316,335.086 83.155,299.91 84.1716,225.49 91.4916,196.658 111.011,163.006 99.4215,71.2021 93.5249,47.0057 z"
       id="path30738"
       sodipodi:nodetypes="csccccccc" />
    <path
       id="path30740"
       d="M 4.875,574.406 58.3438,574.406 4.875,574.406 z M 442.312,574.406 495.812,574.406 442.312,574.406 z"
       style="fill:#5c3566;fill-opacity:1;stroke:#545454;stroke-width:4;stroke-linecap:round;stroke-linejoin:round;stroke-miterlimit:4;stroke-opacity:1;stroke-dasharray:none;stroke-dashoffset:0" />
    <circle
       d="M 5,0 C 5,2.76142 2.76142,5 0,5 -2.76142,5 -5,2.76142 -5,0 -5,-2.76142 -2.76142,-5 0,-5 2.76142,-5 5,-2.76142 5,0 z"
       r="5"
       cy="0"
       cx="0"
       id="circle30742"
       sodipodi:cx="0"
       sodipodi:cy="0"
       sodipodi:rx="5"
       sodipodi:ry="5"
       style="fill:#545454;fill-opacity:1;stroke:none"
       transform="matrix(0.720385,0,0,0.720385,252.836,121.94)" />
    <path
       d="M 251.376,120.479 254.296,123.4 M 251.376,123.4 254.296,120.479"
       style="fill:#545454;fill-opacity:1;stroke:none"
       id="path30744"
       inkscape:connector-curvature="0" />
    <circle
       d="M 4,0 C 4,2.20914 2.20914,4 0,4 -2.20914,4 -4,2.20914 -4,0 -4,-2.20914 -2.20914,-4 0,-4 2.20914,-4 4,-2.20914 4,0 z"
       r="4"
       cy="0"
       cx="0"
       id="circle30746"
       sodipodi:cx="0"
       sodipodi:cy="0"
       sodipodi:rx="4"
       sodipodi:ry="4"
       style="fill:#545454;fill-opacity:1;stroke:none"
       transform="matrix(0.720385,0,0,0.720385,252.836,121.94)" />
    <circle
       transform="matrix(0.720385,0,0,0.720385,252.836,181.88)"
       style="fill:#545454;fill-opacity:1;stroke:none"
       sodipodi:ry="5"
       sodipodi:rx="5"
       sodipodi:cy="0"
       sodipodi:cx="0"
       id="circle30748"
       cx="0"
       cy="0"
       r="5"
       d="M 5,0 C 5,2.76142 2.76142,5 0,5 -2.76142,5 -5,2.76142 -5,0 -5,-2.76142 -2.76142,-5 0,-5 2.76142,-5 5,-2.76142 5,0 z" />
    <path
       inkscape:connector-curvature="0"
       id="path30750"
       style="fill:#545454;fill-opacity:1;stroke:none"
       d="M 251.376,180.42 254.296,183.341 M 251.376,183.341 254.296,180.42" />
    <circle
       transform="matrix(0.720385,0,0,0.720385,252.836,181.88)"
       style="fill:#545454;fill-opacity:1;stroke:none"
       sodipodi:ry="4"
       sodipodi:rx="4"
       sodipodi:cy="0"
       sodipodi:cx="0"
       id="circle30752"
       cx="0"
       cy="0"
       r="4"
       d="M 4,0 C 4,2.20914 2.20914,4 0,4 -2.20914,4 -4,2.20914 -4,0 -4,-2.20914 -2.20914,-4 0,-4 2.20914,-4 4,-2.20914 4,0 z" />
    <circle
       d="M 5,0 C 5,2.76142 2.76142,5 0,5 -2.76142,5 -5,2.76142 -5,0 -5,-2.76142 -2.76142,-5 0,-5 2.76142,-5 5,-2.76142 5,0 z"
       r="5"
       cy="0"
       cx="0"
       id="circle30754"
       sodipodi:cx="0"
       sodipodi:cy="0"
       sodipodi:rx="5"
       sodipodi:ry="5"
       style="fill:#545454;fill-opacity:1;stroke:none"
       transform="matrix(0.720385,0,0,0.720385,252.836,237.222)" />
    <path
       d="M 251.376,235.762 254.296,238.682 M 251.376,238.682 254.296,235.762"
       style="fill:#545454;fill-opacity:1;stroke:none"
       id="path30756"
       inkscape:connector-curvature="0" />
    <circle
       d="M 4,0 C 4,2.20914 2.20914,4 0,4 -2.20914,4 -4,2.20914 -4,0 -4,-2.20914 -2.20914,-4 0,-4 2.20914,-4 4,-2.20914 4,0 z"
       r="4"
       cy="0"
       cx="0"
       id="circle30758"
       sodipodi:cx="0"
       sodipodi:cy="0"
       sodipodi:rx="4"
       sodipodi:ry="4"
       style="fill:#545454;fill-opacity:1;stroke:none"
       transform="matrix(0.720385,0,0,0.720385,252.836,237.222)" />
    <circle
       transform="matrix(0.720385,0,0,0.720385,252.836,292.636)"
       style="fill:#545454;fill-opacity:1;stroke:none"
       sodipodi:ry="5"
       sodipodi:rx="5"
       sodipodi:cy="0"
       sodipodi:cx="0"
       id="circle30760"
       cx="0"
       cy="0"
       r="5"
       d="M 5,0 C 5,2.76142 2.76142,5 0,5 -2.76142,5 -5,2.76142 -5,0 -5,-2.76142 -2.76142,-5 0,-5 2.76142,-5 5,-2.76142 5,0 z" />
    <path
       inkscape:connector-curvature="0"
       id="path30762"
       style="fill:#545454;fill-opacity:1;stroke:none"
       d="M 251.376,291.176 254.296,294.096 M 251.376,294.096 254.296,291.176" />
    <circle
       transform="matrix(0.720385,0,0,0.720385,252.836,292.636)"
       style="fill:#545454;fill-opacity:1;stroke:none"
       sodipodi:ry="4"
       sodipodi:rx="4"
       sodipodi:cy="0"
       sodipodi:cx="0"
       id="circle30764"
       cx="0"
       cy="0"
       r="4"
       d="M 4,0 C 4,2.20914 2.20914,4 0,4 -2.20914,4 -4,2.20914 -4,0 -4,-2.20914 -2.20914,-4 0,-4 2.20914,-4 4,-2.20914 4,0 z" />
    <circle
       d="M 5,0 C 5,2.76142 2.76142,5 0,5 -2.76142,5 -5,2.76142 -5,0 -5,-2.76142 -2.76142,-5 0,-5 2.76142,-5 5,-2.76142 5,0 z"
       r="5"
       cy="0"
       cx="0"
       id="circle30766"
       sodipodi:cx="0"
       sodipodi:cy="0"
       sodipodi:rx="5"
       sodipodi:ry="5"
       style="fill:#545454;fill-opacity:1;stroke:none"
       transform="matrix(0.720385,0,0,0.720385,252.836,347.977)" />
    <path
       d="M 251.376,346.517 254.296,349.437 M 251.376,349.437 254.296,346.517"
       style="fill:#545454;fill-opacity:1;stroke:none"
       id="path30768"
       inkscape:connector-curvature="0" />
    <circle
       d="M 4,0 C 4,2.20914 2.20914,4 0,4 -2.20914,4 -4,2.20914 -4,0 -4,-2.20914 -2.20914,-4 0,-4 2.20914,-4 4,-2.20914 4,0 z"
       r="4"
       cy="0"
       cx="0"
       id="circle30770"
       sodipodi:cx="0"
       sodipodi:cy="0"
       sodipodi:rx="4"
       sodipodi:ry="4"
       style="fill:#545454;fill-opacity:1;stroke:none"
       transform="matrix(0.720385,0,0,0.720385,252.836,347.977)" />
    <circle
       transform="matrix(0.720385,0,0,0.720385,252.836,403.319)"
       style="fill:#545454;fill-opacity:1;stroke:none"
       sodipodi:ry="5"
       sodipodi:rx="5"
       sodipodi:cy="0"
       sodipodi:cx="0"
       id="circle30772"
       cx="0"
       cy="0"
       r="5"
       d="M 5,0 C 5,2.76142 2.76142,5 0,5 -2.76142,5 -5,2.76142 -5,0 -5,-2.76142 -2.76142,-5 0,-5 2.76142,-5 5,-2.76142 5,0 z" />
    <path
       inkscape:connector-curvature="0"
       id="path30774"
       style="fill:#545454;fill-opacity:1;stroke:none"
       d="M 251.376,401.858 254.296,404.779 M 251.376,404.779 254.296,401.858" />
    <circle
       transform="matrix(0.720385,0,0,0.720385,252.836,403.319)"
       style="fill:#545454;fill-opacity:1;stroke:none"
       sodipodi:ry="4"
       sodipodi:rx="4"
       sodipodi:cy="0"
       sodipodi:cx="0"
       id="circle30776"
       cx="0"
       cy="0"
       r="4"
       d="M 4,0 C 4,2.20914 2.20914,4 0,4 -2.20914,4 -4,2.20914 -4,0 -4,-2.20914 -2.20914,-4 0,-4 2.20914,-4 4,-2.20914 4,0 z" />
    <circle
       d="M 5,0 C 5,2.76142 2.76142,5 0,5 -2.76142,5 -5,2.76142 -5,0 -5,-2.76142 -2.76142,-5 0,-5 2.76142,-5 5,-2.76142 5,0 z"
       r="5"
       cy="0"
       cx="0"
       id="circle30778"
       sodipodi:cx="0"
       sodipodi:cy="0"
       sodipodi:rx="5"
       sodipodi:ry="5"
       style="fill:#545454;fill-opacity:1;stroke:none"
       transform="matrix(0.720385,0,0,0.720385,252.836,458.66)" />
    <path
       d="M 251.376,457.2 254.296,460.12 M 251.376,460.12 254.296,457.2"
       style="fill:#545454;fill-opacity:1;stroke:none"
       id="path30780"
       inkscape:connector-curvature="0" />
    <circle
       d="M 4,0 C 4,2.20914 2.20914,4 0,4 -2.20914,4 -4,2.20914 -4,0 -4,-2.20914 -2.20914,-4 0,-4 2.20914,-4 4,-2.20914 4,0 z"
       r="4"
       cy="0"
       cx="0"
       id="circle30782"
       sodipodi:cx="0"
       sodipodi:cy="0"
       sodipodi:rx="4"
       sodipodi:ry="4"
       style="fill:#545454;fill-opacity:1;stroke:none"
       transform="matrix(0.720385,0,0,0.720385,252.836,458.66)" />
    <circle
       transform="matrix(0.720385,0,0,0.720385,252.836,514.074)"
       style="fill:#545454;fill-opacity:1;stroke:none"
       sodipodi:ry="5"
       sodipodi:rx="5"
       sodipodi:cy="0"
       sodipodi:cx="0"
       id="circle30784"
       cx="0"
       cy="0"
       r="5"
       d="M 5,0 C 5,2.76142 2.76142,5 0,5 -2.76142,5 -5,2.76142 -5,0 -5,-2.76142 -2.76142,-5 0,-5 2.76142,-5 5,-2.76142 5,0 z" />
    <path
       inkscape:connector-curvature="0"
       id="path30786"
       style="fill:#545454;fill-opacity:1;stroke:none"
       d="M 251.376,512.614 254.296,515.534 M 251.376,515.534 254.296,512.614" />
    <circle
       transform="matrix(0.720385,0,0,0.720385,252.836,514.074)"
       style="fill:#545454;fill-opacity:1;stroke:none"
       sodipodi:ry="4"
       sodipodi:rx="4"
       sodipodi:cy="0"
       sodipodi:cx="0"
       id="circle30788"
       cx="0"
       cy="0"
       r="4"
       d="M 4,0 C 4,2.20914 2.20914,4 0,4 -2.20914,4 -4,2.20914 -4,0 -4,-2.20914 -2.20914,-4 0,-4 2.20914,-4 4,-2.20914 4,0 z" />
    <path
       style="fill:none;stroke:#545454;stroke-width:3;stroke-miterlimit:4;stroke-dasharray:none"
       d="M 261.428,600.317 261.428,112.46 C 261.428,103.724 270.715,74.6026 270.715,74.6026"
       id="path30790"
       sodipodi:nodetypes="ccc" />
    <path
       sodipodi:type="arc"
       style="fill:none;fill-opacity:1;stroke:#ff5b77;stroke-width:3;stroke-linecap:butt;stroke-linejoin:round;stroke-miterlimit:4;stroke-opacity:1;stroke-dasharray:none;stroke-dashoffset:0"
       id="path30813"
       sodipodi:cx="222.234"
       sodipodi:cy="297.905"
       sodipodi:rx="46.467"
       sodipodi:ry="46.467"
       d="M 268.701,297.905 A 46.467,46.467 0 1 1 175.767,297.905 46.467,46.467 0 1 1 268.701,297.905 z"
       transform="translate(-485.736,2.02031)" />
    <path
       transform="translate(31.4621,2.02031)"
       d="M 268.701,297.905 A 46.467,46.467 0 1 1 175.767,297.905 46.467,46.467 0 1 1 268.701,297.905 z"
       sodipodi:ry="46.467"
       sodipodi:rx="46.467"
       sodipodi:cy="297.905"
       sodipodi:cx="222.234"
       id="path30815"
       style="fill:none;fill-opacity:1;stroke:#ff5b77;stroke-width:3;stroke-linecap:butt;stroke-linejoin:round;stroke-miterlimit:4;stroke-opacity:1;stroke-dasharray:none;stroke-dashoffset:0"
       sodipodi:type="arc" />
    <path
       transform="matrix(3.1087,0,0,3.1087,-701.822,-772.643)"
       d="M 268.701,297.905 A 46.467,46.467 0 1 1 175.767,297.905 46.467,46.467 0 1 1 268.701,297.905 z"
       sodipodi:ry="46.467"
       sodipodi:rx="46.467"
       sodipodi:cy="297.905"
       sodipodi:cx="222.234"
       id="path30817"
       style="fill:#212121;stroke:#ff5b77;stroke-width:0.96503499999999998;stroke-linecap:butt;stroke-linejoin:round;stroke-miterlimit:4;stroke-opacity:1;stroke-dasharray:none;stroke-dashoffset:0"
       sodipodi:type="arc" />
    <path
       sodipodi:type="arc"
       style="fill:#212121;stroke:#ff5b77;stroke-width:0.96503499999999998;stroke-linecap:butt;stroke-linejoin:round;stroke-miterlimit:4;stroke-opacity:1;stroke-dasharray:none;stroke-dashoffset:0"
       id="path30819"
       sodipodi:cx="222.234"
       sodipodi:cy="297.905"
       sodipodi:rx="46.467"
       sodipodi:ry="46.467"
       d="M 268.701,297.905 A 46.467,46.467 0 1 1 175.767,297.905 46.467,46.467 0 1 1 268.701,297.905 z"
       transform="matrix(3.1087,0,0,3.1087,-701.822,-471.618)" />
    <g
       id="g30825"
       transform="matrix(1,0,0,0.378873,-18.5322,31.4154)">
      <path
         transform="translate(-512,0)"
         id="path30821"
         d="M 454.569,-19.283 454.569,655.499"
         style="fill:#212121;fill-opacity:1;stroke:#545454;stroke-width:4.873876;stroke-linecap:butt;stroke-linejoin:round;stroke-miterlimit:4;stroke-opacity:1;stroke-dasharray:none;stroke-dashoffset:0" />
      <path
         style="fill:#212121;fill-opacity:1;stroke:#545454;stroke-width:4.873876;stroke-linecap:butt;stroke-linejoin:round;stroke-miterlimit:4;stroke-opacity:1;stroke-dasharray:none;stroke-dashoffset:0"
         d="M 72.569,-19.283 72.569,655.499"
         id="path30823" />
    </g>
    <path
       id="path30831"
       d="M -56.7099,17.0991 -56.7099,288.797"
       style="fill:#212121;fill-opacity:1;stroke:#545454;stroke-width:3.000002;stroke-linecap:butt;stroke-linejoin:round;stroke-miterlimit:4;stroke-opacity:1;stroke-dasharray:18.000011,3.000002;stroke-dashoffset:0" />
    <path
       style="fill:#212121;fill-opacity:1;stroke:#545454;stroke-width:3.000002;stroke-linecap:butt;stroke-linejoin:round;stroke-miterlimit:4;stroke-opacity:1;stroke-dasharray:18.000011,3.000002;stroke-dashoffset:0"
       d="M 34.7831,17.0991 34.7831,288.797"
       id="path30833" />
    <path
       style="fill:#212121;fill-opacity:1;stroke:#545454;stroke-width:3.000002;stroke-linecap:butt;stroke-linejoin:round;stroke-miterlimit:4;stroke-opacity:1;stroke-dasharray:18.000011,3.000002;stroke-dashoffset:0"
       d="M -43.0162,313.058 -43.0162,593.879"
       id="path30837" />
    <path
       id="path30839"
       d="M 21.09,313.058 21.09,593.879"
       style="fill:#212121;fill-opacity:1;stroke:#545454;stroke-width:3.000002;stroke-linecap:butt;stroke-linejoin:round;stroke-miterlimit:4;stroke-opacity:1;stroke-dasharray:18.000011,3.000002;stroke-dashoffset:0" />
    <g
       transform="matrix(1,0,0,0.380584,-18.5322,332.401)"
       id="g30841">
      <path
         style="fill:#212121;fill-opacity:1;stroke:#545454;stroke-width:4.862903;stroke-linecap:butt;stroke-linejoin:round;stroke-miterlimit:4;stroke-opacity:1;stroke-dasharray:none;stroke-dashoffset:0"
         d="M 454.569,-19.283 454.569,655.499"
         id="path30843"
         transform="translate(-512,0)" />
      <path
         id="path30845"
         d="M 72.569,-19.283 72.569,655.499"
         style="fill:#212121;fill-opacity:1;stroke:#545454;stroke-width:4.862903;stroke-linecap:butt;stroke-linejoin:round;stroke-miterlimit:4;stroke-opacity:1;stroke-dasharray:none;stroke-dashoffset:0" />
    </g>
    <path
       transform="matrix(3.1087,0,0,3.1087,-701.822,-471.618)"
       d="M 268.701,297.905 A 46.467,46.467 0 1 1 175.767,297.905 46.467,46.467 0 1 1 268.701,297.905 z"
       sodipodi:ry="46.467"
       sodipodi:rx="46.467"
       sodipodi:cy="297.905"
       sodipodi:cx="222.234"
       id="path30847"
       style="fill:none;stroke:#ff5b77;stroke-width:0.96503499999999998;stroke-linecap:butt;stroke-linejoin:round;stroke-miterlimit:4;stroke-opacity:1;stroke-dasharray:none;stroke-dashoffset:0"
       sodipodi:type="arc" />
    <path
       sodipodi:type="arc"
       style="fill:none;stroke:#ff5b77;stroke-width:0.96503499999999998;stroke-linecap:butt;stroke-linejoin:round;stroke-miterlimit:4;stroke-opacity:1;stroke-dasharray:none;stroke-dashoffset:0"
       id="path30849"
       sodipodi:cx="222.234"
       sodipodi:cy="297.905"
       sodipodi:rx="46.467"
       sodipodi:ry="46.467"
       d="M 268.701,297.905 A 46.467,46.467 0 1 1 175.767,297.905 46.467,46.467 0 1 1 268.701,297.905 z"
       transform="matrix(3.1087,0,0,3.1087,-701.822,-772.643)" />
  </g>
  <g
     id="g30897"
     transform="matrix(0.734266,0,0,0.734266,131.57,46.0447)">
    <circle
       d="M 5,0 C 5,2.76142 2.76142,5 0,5 -2.76142,5 -5,2.76142 -5,0 -5,-2.76142 -2.76142,-5 0,-5 2.76142,-5 5,-2.76142 5,0 z"
       r="5"
       cy="0"
       cx="0"
       id="circle30891"
       sodipodi:cx="0"
       sodipodi:cy="0"
       sodipodi:rx="5"
       sodipodi:ry="5"
       style="fill:#545454;fill-opacity:1;stroke:none"
       transform="matrix(6.98333,0,0,6.98333,502.722,134.062)" />
    <circle
       d="M 4,0 C 4,2.20914 2.20914,4 0,4 -2.20914,4 -4,2.20914 -4,0 -4,-2.20914 -2.20914,-4 0,-4 2.20914,-4 4,-2.20914 4,0 z"
       r="4"
       cy="0"
       cx="0"
       id="circle30895"
       sodipodi:cx="0"
       sodipodi:cy="0"
       sodipodi:rx="4"
       sodipodi:ry="4"
       style="fill:#8e8e8e;fill-opacity:1;stroke:none"
       transform="matrix(6.98333,0,0,6.98333,502.722,134.062)" />
    <path
       d="M 488.569,119.899 516.875,148.215 M 488.569,148.215 516.875,119.899"
       style="fill:none;stroke:#ffffff;stroke-width:1.361905"
       id="path30893"
       inkscape:connector-curvature="0" />
  </g>
  <g
     transform="matrix(0.734266,0,0,0.734266,131.57,356.535)"
     id="g30902">
    <circle
       transform="matrix(6.98333,0,0,6.98333,502.722,134.062)"
       style="fill:#545454;fill-opacity:1;stroke:none"
       sodipodi:ry="5"
       sodipodi:rx="5"
       sodipodi:cy="0"
       sodipodi:cx="0"
       id="circle30904"
       cx="0"
       cy="0"
       r="5"
       d="M 5,0 C 5,2.76142 2.76142,5 0,5 -2.76142,5 -5,2.76142 -5,0 -5,-2.76142 -2.76142,-5 0,-5 2.76142,-5 5,-2.76142 5,0 z" />
    <circle
       transform="matrix(6.98333,0,0,6.98333,502.722,134.062)"
       style="fill:#8e8e8e;fill-opacity:1;stroke:none"
       sodipodi:ry="4"
       sodipodi:rx="4"
       sodipodi:cy="0"
       sodipodi:cx="0"
       id="circle30906"
       cx="0"
       cy="0"
       r="4"
       d="M 4,0 C 4,2.20914 2.20914,4 0,4 -2.20914,4 -4,2.20914 -4,0 -4,-2.20914 -2.20914,-4 0,-4 2.20914,-4 4,-2.20914 4,0 z" />
    <path
       inkscape:connector-curvature="0"
       id="path30908"
       style="fill:none;stroke:#ffffff;stroke-width:1.361905"
       d="M 488.569,119.899 516.875,148.215 M 488.569,148.215 516.875,119.899" />
  </g>
  <path
     style="fill:#8e8e8e;fill-opacity:1;stroke:#ff5b77;stroke-width:3.00000199999999984;stroke-linecap:butt;stroke-linejoin:round;stroke-miterlimit:4;stroke-opacity:1;stroke-dasharray:18.00001100000000065, 3.00000199999999984;stroke-dashoffset:0"
     d="M 220.213,263.56 385.878,66.58"
     id="path30910" />
  <path
     style="fill:#8e8e8e;fill-opacity:1;stroke:#ff5b77;stroke-width:3.000002;stroke-linecap:butt;stroke-linejoin:round;stroke-miterlimit:4;stroke-opacity:1;stroke-dasharray:18.000011, 3.000002;stroke-dashoffset:0"
     d="M 257.589,347.402 531.34,294.874"
     id="path30912" />
  <path
     style="fill:#8e8e8e;fill-opacity:1;stroke:#ff5b77;stroke-width:3.000002;stroke-linecap:butt;stroke-linejoin:round;stroke-miterlimit:4;stroke-opacity:1;stroke-dasharray:18.000011, 3.000002;stroke-dashoffset:0"
     d="M 752.564,254.468 475.782,312.047"
     id="path30914" />
  <path
     style="fill:#8e8e8e;fill-opacity:1;stroke:#ff5b77;stroke-width:3.000002;stroke-linecap:butt;stroke-linejoin:round;stroke-miterlimit:4;stroke-opacity:1;stroke-dasharray:18.000011, 3.000002;stroke-dashoffset:0"
     d="M 794.99,336.291 609.122,550.443"
     id="path30916" />
</svg>
