<?xml version="1.0" encoding="UTF-8" standalone="no"?>
<svg
  xmlns:dc="http://purl.org/dc/elements/1.1/"
  xmlns:cc="http://creativecommons.org/ns#"
  xmlns:rdf="http://www.w3.org/1999/02/22-rdf-syntax-ns#"
  xmlns:svg="http://www.w3.org/2000/svg"
  xmlns="http://www.w3.org/2000/svg"
  xmlns:xlink="http://www.w3.org/1999/xlink"
  viewBox="0 0 48 48"
  width="500"
  height="500"
>
  <defs>
    <path id="logo" d="m 31.810744,4.9207574 c -0.787887,0.5600446 -0.747258,0.4883462 -1.38378,0.6962711 -1.45946,0.4771936 -2.859173,0.2150951 -4.520186,0.076474 -0.4995,-0.055763 -0.995015,-0.088428 -1.478582,-0.091614 C 21.986467,5.5851615 19.91279,6.3013463 19.520042,8.3009349 18.795889,8.739888 18.12989,9.271253 17.470264,9.803415 c -1.408475,1.111325 -2.468815,2.469612 -3.192172,4.106726 -0.987845,2.41783 -0.0956,5.012515 0.346542,7.463008 0.105155,0.573587 0.215095,1.120088 0.274047,1.3312 0.08366,0.29715 0.231029,0.580757 0.391155,0.835685 0.03745,0.0063 0.235012,-0.297947 0.282013,-0.432581 0.06852,-0.195975 0.06135,-0.510651 -0.01354,-0.781513 -0.165702,-0.609435 -0.323439,-1.104155 -0.336982,-1.352709 -0.0239,-0.466836 0.06692,-0.897824 0.237402,-1.111326 0.06055,-0.07569 0.199162,0.314676 0.163312,0.459667 -0.04222,0.174467 -0.07409,0.47321 -0.06055,0.61103 0.03745,0.466836 0.105954,0.966335 0.191196,1.402899 0.10914,0.56323 0.156143,0.924909 0.136227,1.06512 -0.01434,0.10197 -0.06215,0.204738 -0.245369,0.520211 -0.159329,0.276437 -0.24218,0.500296 -0.254927,0.697865 -0.01354,0.192789 0.04462,0.674761 0.09878,0.792666 0.07887,0.184026 0.316271,0.377611 0.523399,0.42541 0.198366,0.07569 0.297947,0.232622 0.399919,0.40868 0.247757,0.472414 0.438952,1.047595 0.628555,1.914349 0.09241,0.415054 0.169687,0.785496 0.194383,0.979878 -1.529567,0.0015 -3.488526,0.0024 -5.27302,0.0024 -0.600674,0.0095 -1.68571,-0.272454 -2.6807253,-0.337779 -0.1441855,-1.556674 -0.8277112,-3.365068 -1.9971915,-3.470226 -0.7982424,-0.07249 -1.4602577,0.231028 -2.020302,1.492124 l 0.015933,0.06771 c 0.3306093,-0.276436 0.6795416,-1.121682 1.9366538,-1.063526 0.9655388,0.04381 1.2873843,1.871329 1.3829829,2.970705 -0.5879271,0.04301 -1.0882227,0.223858 -1.3495236,0.675557 h -0.00558 c 0,7.97e-4 0,0.0024 0.0024,0.0041 -0.0024,0.0015 -0.0024,0.0032 -0.0024,0.0047 h 0.00558 c 0.2692677,0.462867 0.7878862,0.642113 1.3973229,0.677962 0.4070858,11.511596 11.2279708,12.99655 14.1851318,12.99655 11.031995,0 14.89415,-7.496468 15.474907,-10.465579 0.271657,1.265079 -0.583944,2.876699 -0.788682,4.066097 2.327012,-2.690284 1.906381,-5.277003 1.480971,-7.878859 0.353712,0.42063 0.832497,0.681135 1.481766,0.536941 -0.462852,-0.309099 -1.090611,-0.09241 -1.46663,-1.396525 -0.16411,-0.56323 -0.305913,-0.985455 -0.44692,-1.339964 -0.304321,-1.141597 -0.736104,-2.23221 -1.266673,-3.29494 -0.447716,-1.152751 -0.15216,-1.900008 -0.196772,-2.889446 0.805413,2.656027 1.308895,3.362656 2.248941,3.640685 -2.364455,-2.848817 -1.55506,-7.259862 -2.89104,-11.196901 0.604656,0.355305 1.294555,0.462055 2.029066,0.02788 -0.710612,-0.202348 -1.419629,0.332202 -2.439339,-1.166294 C 35.189332,10.127654 33.94178,8.8904588 32.428147,7.7990497 31.617159,7.2700755 30.716945,6.9147703 29.811952,6.584957 30.733674,6.3539288 31.762945,5.5333806 31.810744,4.9207574 Z m -1.546297,8.8483806 c 1.214094,0.442937 2.552465,2.125459 2.537328,3.776115 v 0.06852 0.0239 c -0.03265,2.24177 -1.051577,3.447101 -1.008558,4.940021 0.05497,1.758205 0.811786,2.371624 0.962352,2.66479 -0.258113,-1.084239 -0.409477,-2.448102 -0.06851,-3.528358 0.438157,-1.389355 0.880297,-2.539717 0.848431,-3.62794 -0.01594,-0.254927 -0.124277,-1.208516 -0.196772,-1.63074 1.301725,1.878498 -0.282014,4.610207 0.17367,6.397888 0.791868,3.114102 4.34094,3.507646 3.284583,9.782054 -0.929689,5.515998 -7.299695,9.702389 -13.82903,9.702389 -4.840439,0 -13.2283578,-2.679132 -13.6426152,-12.182357 0.9838602,-0.0701 2.0418122,-0.344153 2.6353152,-0.334593 1.794053,0 3.843034,7.97e-4 5.386941,0.0015 0.28998,1.308098 0.507465,1.623571 1.607637,2.495104 1.223654,0.962353 1.508854,1.07946 3.31884,1.096986 1.810784,0.01832 2.347724,-0.369644 4.104336,-2.031454 0.379205,-0.444531 0.543314,-1.026882 0.727341,-1.574179 1.8068,-0.01674 3.124457,-0.04859 4.420605,-0.109139 1.320048,-0.05975 1.506464,0 3.633516,-0.219079 -2.127052,-0.219078 -2.313468,-0.15933 -3.633516,-0.219874 -1.261892,-0.05735 -2.539717,-0.09003 -4.267648,-0.105955 0.144989,-0.650861 0.352119,-1.286588 0.57279,-1.915144 0.136228,-0.370443 0.296353,-0.731324 0.460464,-1.090613 l 0.179245,-0.05576 c 0.345746,-0.122685 0.651658,-0.38558 0.773546,-0.740884 0.156941,-0.47082 0.04541,-0.999794 -0.258114,-1.384576 -0.104356,-0.144194 -0.234215,-0.32822 -0.287589,-0.409478 -0.160128,-0.253334 -0.164111,-0.394341 -0.02868,-1.335981 0.113921,-0.788682 0.126667,-1.201346 0.04781,-1.601264 -0.01594,-0.228637 -0.01753,-0.698662 -0.0247,-0.825329 0.06055,0.03346 0.191993,0.333 0.325032,0.738495 0.132245,0.407088 0.153754,0.491532 0.184026,0.838075 0.03346,0.393544 -0.11392,0.685117 -0.23501,1.272247 -0.06055,0.302727 -0.113922,0.583944 -0.113922,0.622183 0,0.04063 0.02868,0.126667 0.05895,0.193586 0.0709,0.14977 0.203944,0.360086 0.228638,0.360086 0.434175,-0.478787 0.689103,-1.0699 0.916147,-1.669776 0.238995,-0.678745 0.3091,-1.398917 0.476397,-2.097579 0.135431,-0.608638 0.291574,-1.218075 0.340169,-1.842649 0.09798,-1.218872 0.04063,-2.079253 -0.228639,-3.349112 -0.06452,-0.286794 -0.250943,-0.834091 -0.380798,-1.092205 z m -4.270038,6.004344 c 0.46604,-0.0056 0.927299,0.05099 1.366253,0.177652 0.59669,0.228638 0.680338,0.761597 0.790276,1.35988 0.06135,0.382392 0.05895,0.657236 -0.0104,1.106546 -0.04859,0.651658 -0.307507,1.155937 -0.873126,1.510446 -0.853212,0.157737 -1.765376,0.309896 -2.488733,-0.254928 -0.607047,-0.836481 -0.972707,-1.893635 -0.833294,-2.924498 0.08843,-0.42302 0.2852,-0.642896 0.689898,-0.774343 0.435766,-0.125074 0.897027,-0.193586 1.359083,-0.200755 z m -7.076634,0.07569 c 0.435767,-0.004 0.876314,0.04222 1.118496,0.196773 1.039626,0.703441 0.705831,1.848226 0.29476,2.8528 -0.598283,1.315268 -1.892041,1.266672 -3.145967,1.256316 -0.693882,-0.203146 -0.757613,-0.771953 -0.857991,-1.379797 -0.08604,-0.58713 -0.269268,-1.216482 -0.116311,-1.806799 0.392748,-0.949606 1.82831,-1.058747 2.707013,-1.119293 z m 15.855706,0.164111 c 0.0056,2.527766 0.437361,3.769743 1.304115,5.559813 -0.510652,-0.974302 -1.240382,-1.52877 -1.512041,-2.693471 -0.519414,-2.24894 0.04064,-2.123069 0.207926,-2.866342 z m -12.59741,1.830698 c 0.137023,0.138617 0.203145,0.329813 0.321846,0.481973 0.09161,-0.156939 0.185618,-0.313082 0.303522,-0.452496 0.06133,0.0015 0.136228,0.122684 0.203943,0.339372 0.289981,0.801429 0.346542,1.68332 0.722561,2.453679 0.351322,0.557654 -0.128261,0.882687 -0.654845,0.90818 -0.383986,-7.96e-4 -0.546503,-0.262895 -0.771954,-0.522601 -0.05816,0.169685 -0.168889,0.278826 -0.301133,0.393544 -0.336186,0.282013 -0.995014,0.177653 -1.096985,-0.266877 0.135428,-0.849228 0.568009,-1.629148 0.851616,-2.443322 0.141008,-0.297151 0.142601,-0.524993 0.421429,-0.891452 z m -4.932853,4.289957 c 0.169687,0 0.635727,0.316268 0.730529,0.494718 0.06533,0.118701 0.214298,0.580757 0.224655,0.693084 0.01674,0.133838 -0.0239,0.450904 -0.06533,0.536942 -0.03028,0.06135 -0.05338,0.0701 -0.08843,0.03028 -0.02947,-0.03345 -0.419835,-0.782309 -0.669186,-1.277825 -0.195975,-0.396732 -0.216688,-0.477193 -0.132244,-0.477193 z m 9.736646,0.247757 c 0.0063,7.97e-4 0.01593,0.0032 0.0247,0.0056 0.05258,0.02151 0.01594,0.207926 -0.181636,0.885077 -0.03745,0.203942 -0.128261,0.364866 -0.261301,0.498703 -0.04381,0 -0.06373,-0.05099 -0.132244,-0.333797 -0.05816,-0.241384 -0.06453,-0.456479 -0.0239,-0.649269 0.0701,-0.241385 0.353713,-0.315473 0.574384,-0.406291 z m -1.181431,1.476191 c 0.01674,-0.0032 0.03265,0.0056 0.05338,0.0223 0.0717,0.05019 0.08205,0.182432 0.03426,0.441342 -0.05816,0.333 -0.0709,0.369646 -0.15694,0.403902 -0.03745,0.01674 -0.104356,0.02868 -0.148974,0.02868 -0.08046,-0.01434 -0.10117,-0.07967 -0.08205,-0.178449 0,-0.207129 0.06055,-0.387171 0.197568,-0.599878 0.05179,-0.07967 0.07807,-0.11392 0.102769,-0.117903 z m -6.877472,0.01513 c 0.05497,0 0.220673,0.119498 0.282015,0.202349 0.06852,0.08763 0.146584,0.609437 0.102768,0.699458 -0.05018,0.113124 -0.295556,0.05656 -0.363271,-0.08444 -0.04142,-0.08444 -0.139413,-0.540128 -0.139413,-0.648472 0,-0.100382 0.04859,-0.168889 0.117903,-0.168889 z m 6.28636,0.137821 c 0.06692,0.0956 0.08444,0.218283 0.0701,0.487549 l -0.01354,0.245369 -0.0701,0.0701 c -0.04222,0.03904 -0.113922,0.08684 -0.156941,0.106753 -0.0948,0.04462 -0.167296,0.04859 -0.180839,0.01275 -0.01594,-0.0478 0.01115,-0.352119 0.04063,-0.454886 0.03426,-0.105954 0.18801,-0.422224 0.238995,-0.489143 0.02311,-0.06135 0.05018,0.01513 0.0717,0.02151 z m -3.999976,-0.01434 c 0.144194,0.03664 0.207925,0.166501 0.286794,0.284404 l 0.05338,0.105155 -0.07489,0.260505 c -0.03982,0.143397 -0.08205,0.272453 -0.0948,0.286794 -0.01434,0.01594 -0.06772,0.0239 -0.146584,0.02311 -0.210315,-0.0056 -0.234214,-0.01434 -0.290777,-0.100382 l -0.05258,-0.07807 0.04462,-0.219078 c 0.06453,-0.315473 0.0956,-0.410275 0.167297,-0.491533 0.03745,-0.04381 0.07488,-0.06771 0.107541,-0.0709 z m -1.331201,0.225451 0.118701,0.118701 0.01992,0.268472 c 0.0104,0.146583 0.01513,0.28281 0.0072,0.29954 -0.0072,0.0231 -0.05018,0.02947 -0.183229,0.02947 h -0.172873 c -0.0924,-0.101171 -0.12109,-0.224654 -0.160125,-0.352119 -0.09081,-0.383188 -0.09081,-0.557654 0.0032,-0.580756 0.153754,0.0095 0.254927,0.12109 0.367255,0.216688 z m 4.620565,-0.184024 c 0.188009,0.05018 0.150566,0.348932 0.14977,0.562433 -0.01434,0.345746 -0.02788,0.417444 -0.0725,0.462057 -0.07727,0.07727 -0.29237,0.03425 -0.396731,-0.08046 -0.03425,-0.04142 -0.03745,-0.05418 -0.0104,-0.222265 0.03107,-0.204738 0.0709,-0.332202 0.159329,-0.507466 0.06453,-0.12587 0.125075,-0.204738 0.170484,-0.214298 z m -4.242953,0.01594 c 0.0104,-7.96e-4 0.02709,0 0.04301,0.0015 0.119498,0.0095 0.231028,0.08763 0.329813,0.231028 l 0.07967,0.117108 c 0.0072,0.191993 0,0.394341 -0.03426,0.572791 -0.02071,0.0104 -0.106754,0.02629 -0.191196,0.03426 -0.146584,0.01354 -0.160127,0.0104 -0.211112,-0.03426 -0.0709,-0.06055 -0.09082,-0.172873 -0.10834,-0.545705 -0.0104,-0.30432 -0.0032,-0.372036 0.09241,-0.376815 z m 1.807596,0.06373 c 0.128261,0.02709 0.209519,0.0956 0.245369,0.207925 0.02868,0.0964 0.04621,0.635725 0.01833,0.673167 -0.0095,0.01594 -0.0701,0.03585 -0.139415,0.04462 -0.258115,0.03265 -0.485956,0.008 -0.508261,-0.05338 -0.02868,-0.0701 0.163312,-0.764783 0.234215,-0.850821 0.03028,-0.06692 0.103567,-0.01513 0.149769,-0.02151 z m 1.67137,0.0047 c 0.05656,-0.0056 0.117107,0.04859 0.17606,0.164109 0.04781,0.0964 0.05497,0.129854 0.05497,0.345746 0,0.172077 -0.0104,0.246165 -0.02868,0.262098 -0.01593,0.01275 -0.08046,0.03585 -0.148973,0.05338 -0.119499,0.03107 -0.145787,0.03426 -0.18323,0.02151 l -0.179246,-0.03265 0.01354,-0.106754 c 0.01275,-0.139414 0.104356,-0.448514 0.168891,-0.582351 0.03824,-0.07967 0.08205,-0.119496 0.126666,-0.125073 z m -0.779122,0.0024 c 0.03745,-0.0015 0.05498,0.0072 0.07886,0.03346 0.05656,0.06692 0.12826,0.264488 0.173669,0.475599 0.06055,0.29715 0.06055,0.296353 -0.06931,0.33539 -0.05656,0.01753 -0.17606,0.03585 -0.261302,0.04063 -0.281217,0.01434 -0.302725,-0.0024 -0.26847,-0.250944 0.02709,-0.221469 0.136227,-0.570401 0.183229,-0.595894 0.05099,-0.02709 0.109938,-0.02629 0.163313,-0.03824 z M 8.6194933,29.247232 c 0.00241,-7.97e-4 0.00558,0 0.00558,0 0.00722,0.155346 0.00722,0.312287 0.010399,0.46843 -0.3943415,-0.03028 -0.6843217,-0.124277 -0.6843217,-0.235012 0,-0.10914 0.2796238,-0.202349 0.6683886,-0.233418 z m 0.689101,0.01354 c 0.3194569,0.03983 0.5401279,0.12348 0.5361459,0.219875 0,0.0972 -0.213503,0.180043 -0.5305696,0.219078 -0.00317,-0.145786 -0.00317,-0.292369 -0.00558,-0.438953 z m 14.9180517,0.424614 c 0.02709,-0.0024 0.03904,-0.0047 0.08046,-7.97e-4 0.165703,0.01673 0.189602,0.02709 0.189602,0.08286 0,0.07329 -0.12587,0.293964 -0.211113,0.370442 -0.03982,0.03824 -0.0948,0.0701 -0.11392,0.0701 -0.0956,0 -0.151363,-0.201553 -0.106753,-0.387172 0.02709,-0.100382 0.07649,-0.131447 0.16172,-0.135431 z m -0.601471,0.06612 c 0.07409,-0.0063 0.145786,0.01354 0.217485,0.0231 -0.02071,0.209519 -0.114717,0.380798 -0.289183,0.494718 -0.04302,0 -0.06453,-0.08205 -0.06453,-0.2613 0,-0.213503 0.01116,-0.254132 0.136227,-0.256522 z m -0.659626,0.07727 c 0.153754,0 0.289185,0.0072 0.295557,0.01594 0.02868,0.02709 -0.05416,0.232621 -0.176059,0.441343 -0.104356,0.18562 -0.119498,0.199162 -0.184027,0.203942 -0.253333,-0.02868 -0.246164,-0.325829 -0.285199,-0.529771 0,-0.12109 0.02709,-0.131448 0.349728,-0.131448 z m -2.397117,0.02311 c 0.17606,0.0032 0.244572,0.02947 0.244572,0.0972 0,0.08604 -0.06533,0.257318 -0.102769,0.278827 -0.05656,0.03107 -0.06135,0.02947 -0.172873,-0.08684 -0.17606,-0.19757 -0.195976,-0.234215 0.03107,-0.289184 z m 0.847635,0.0088 c 0.0032,0.0047 0.03745,0.06692 0.0717,0.137023 0.07488,0.145787 0.08046,0.209519 0.02709,0.258114 -0.125871,0.07169 -0.152161,0.03107 -0.266081,-0.04142 -0.132244,-0.125074 -0.236604,-0.293166 -0.202349,-0.328219 0.117905,-0.04222 0.247759,-0.02628 0.369646,-0.02548 z m 0.336186,0.004 0.314677,0.0056 c 0.122683,0 0.228637,0.0063 0.234214,0.01594 0.02151,0.01911 -0.0478,0.428598 -0.08524,0.521009 -0.04302,0.103568 -0.193586,0.104356 -0.271658,-0.01832 -0.111529,-0.17606 -0.184822,-0.324237 -0.187212,-0.426209 z" />
   </defs>
  <use x="0" y="0" xlink:href="#logo" stroke="black" fill="black" stroke-width="1" stroke-linejoin="round"></use>
  <use x="0" y="0" xlink:href="#logo" fill="white"></use>
</svg>
