<?xml version="1.0" encoding="UTF-8" standalone="no"?>
<svg
   xmlns:dc="http://purl.org/dc/elements/1.1/"
   xmlns:cc="http://creativecommons.org/ns#"
   xmlns:rdf="http://www.w3.org/1999/02/22-rdf-syntax-ns#"
   xmlns:svg="http://www.w3.org/2000/svg"
   xmlns="http://www.w3.org/2000/svg"
   xmlns:sodipodi="http://sodipodi.sourceforge.net/DTD/sodipodi-0.dtd"
   xmlns:inkscape="http://www.inkscape.org/namespaces/inkscape"
   id="svg6842"
   version="1.1"
   viewBox="0 0 279.86758 159.003"
   height="159.00301mm"
   width="279.86758mm"
   sodipodi:docname="step3.svg"
   inkscape:version="0.92.4 (5da689c313, 2019-01-14)">
  <sodipodi:namedview
     pagecolor="#ffffff"
     bordercolor="#666666"
     borderopacity="1"
     objecttolerance="10"
     gridtolerance="10"
     guidetolerance="10"
     inkscape:pageopacity="0"
     inkscape:pageshadow="2"
     inkscape:window-width="3840"
     inkscape:window-height="2086"
     id="namedview1455"
     showgrid="false"
     inkscape:zoom="1"
     inkscape:cx="511.93583"
     inkscape:cy="261.44589"
     inkscape:window-x="0"
     inkscape:window-y="0"
     inkscape:window-maximized="1"
     inkscape:current-layer="svg6842" />
  <defs
     id="defs6836" />
  <metadata
     id="metadata6839">
    <rdf:RDF>
      <cc:Work
         rdf:about="">
        <dc:format>image/svg+xml</dc:format>
        <dc:type
           rdf:resource="http://purl.org/dc/dcmitype/StillImage" />
        <dc:title />
      </cc:Work>
    </rdf:RDF>
  </metadata>
  <g
     id="g2030"
     style="fill:#000000;stroke:#000000;stroke-width:1.00012499;stroke-miterlimit:4;stroke-dasharray:none">
    <path
       style="color:#000000;font-style:normal;font-variant:normal;font-weight:normal;font-stretch:normal;font-size:medium;line-height:normal;font-family:sans-serif;font-variant-ligatures:normal;font-variant-position:normal;font-variant-caps:normal;font-variant-numeric:normal;font-variant-alternates:normal;font-feature-settings:normal;text-indent:0;text-align:start;text-decoration:none;text-decoration-line:none;text-decoration-style:solid;text-decoration-color:#000000;letter-spacing:normal;word-spacing:normal;text-transform:none;writing-mode:lr-tb;direction:ltr;text-orientation:mixed;dominant-baseline:auto;baseline-shift:baseline;text-anchor:start;white-space:normal;shape-padding:0;clip-rule:nonzero;display:inline;overflow:visible;visibility:visible;opacity:1;isolation:auto;mix-blend-mode:normal;color-interpolation:sRGB;color-interpolation-filters:linearRGB;solid-color:#000000;solid-opacity:1;vector-effect:none;fill:#000000;fill-opacity:1;fill-rule:nonzero;stroke:#000000;stroke-width:1.00012499;stroke-linecap:butt;stroke-linejoin:miter;stroke-miterlimit:4;stroke-dasharray:none;stroke-dashoffset:0;stroke-opacity:1;color-rendering:auto;image-rendering:auto;shape-rendering:auto;text-rendering:auto;enable-background:accumulate"
       d="m 279.77148,46.417969 c -72.77841,0 -112.40404,7.787747 -154.18164,14.208984 C 83.812251,67.04819 39.692335,72.177112 -43.8125,67.144531 l -0.636719,10.564453 c 84.164236,5.072321 129.5922,-0.157329 171.646489,-6.621093 42.05428,-6.463765 80.5467,-14.085938 152.57421,-14.085938 z"
       id="path2022"
       inkscape:connector-curvature="0" />
    <path
       style="color:#000000;font-style:normal;font-variant:normal;font-weight:normal;font-stretch:normal;font-size:medium;line-height:normal;font-family:sans-serif;font-variant-ligatures:normal;font-variant-position:normal;font-variant-caps:normal;font-variant-numeric:normal;font-variant-alternates:normal;font-feature-settings:normal;text-indent:0;text-align:start;text-decoration:none;text-decoration-line:none;text-decoration-style:solid;text-decoration-color:#000000;letter-spacing:normal;word-spacing:normal;text-transform:none;writing-mode:lr-tb;direction:ltr;text-orientation:mixed;dominant-baseline:auto;baseline-shift:baseline;text-anchor:start;white-space:normal;shape-padding:0;clip-rule:nonzero;display:inline;overflow:visible;visibility:visible;opacity:1;isolation:auto;mix-blend-mode:normal;color-interpolation:sRGB;color-interpolation-filters:linearRGB;solid-color:#000000;solid-opacity:1;vector-effect:none;fill:#000000;fill-opacity:1;fill-rule:nonzero;stroke:#000000;stroke-width:1.00012499;stroke-linecap:butt;stroke-linejoin:miter;stroke-miterlimit:4;stroke-dasharray:none;stroke-dashoffset:0;stroke-opacity:1;color-rendering:auto;image-rendering:auto;shape-rendering:auto;text-rendering:auto;enable-background:accumulate"
       d="m 64.449219,86.041016 c -34.24398,0.179971 -72.7965691,2.649329 -116.47461,8.914062 l 1.501953,10.476562 c 172.796798,-24.784212 262.037828,10.7168 328.972658,10.7168 v -10.58399 c -47.30431,0 -111.26806,-20.063348 -214.000001,-19.523434 z"
       id="path2024"
       inkscape:connector-curvature="0" />
    <path
       style="color:#000000;font-style:normal;font-variant:normal;font-weight:normal;font-stretch:normal;font-size:medium;line-height:normal;font-family:sans-serif;font-variant-ligatures:normal;font-variant-position:normal;font-variant-caps:normal;font-variant-numeric:normal;font-variant-alternates:normal;font-feature-settings:normal;text-indent:0;text-align:start;text-decoration:none;text-decoration-line:none;text-decoration-style:solid;text-decoration-color:#000000;letter-spacing:normal;word-spacing:normal;text-transform:none;writing-mode:lr-tb;direction:ltr;text-orientation:mixed;dominant-baseline:auto;baseline-shift:baseline;text-anchor:start;white-space:normal;shape-padding:0;clip-rule:nonzero;display:inline;overflow:visible;visibility:visible;opacity:1;isolation:auto;mix-blend-mode:normal;color-interpolation:sRGB;color-interpolation-filters:linearRGB;solid-color:#000000;solid-opacity:1;vector-effect:none;fill:#000000;fill-opacity:1;fill-rule:nonzero;stroke:#000000;stroke-width:1.00012499;stroke-linecap:butt;stroke-linejoin:miter;stroke-miterlimit:4;stroke-dasharray:none;stroke-dashoffset:0;stroke-opacity:1;color-rendering:auto;image-rendering:auto;shape-rendering:auto;text-rendering:auto;enable-background:accumulate"
       d="m 17.5625,45.628906 c -2.53114,0.0019 -5.198379,0.09072 -8.0058594,0.271485 l 0.6796874,10.560547 c 10.375805,-0.668066 18.361792,0.105225 23.855469,1.523437 5.493677,1.418212 8.285705,3.661494 8.828125,4.488281 0.27121,0.413394 0.1601,0.292707 0.164062,0.269532 0.004,-0.02318 -0.0305,0.285877 -0.714843,0.919921 -1.368678,1.268088 -5.280707,3.226975 -11.556641,4.125 -59.350472,8.492477 -108.066211,-10.713686 -224.10742,-17.839843 l -0.64844,10.564453 c 115.044948,7.064976 163.936592,26.669236 226.25586,17.751953 7.603843,-1.088036 13.324952,-3.20312 17.248047,-6.837891 1.961547,-1.817385 3.487651,-4.166723 3.955078,-6.90039 0.467427,-2.733668 -0.276684,-5.616639 -1.748047,-7.859375 C 48.824852,52.180543 43.695583,49.534334 36.738281,47.738281 31.520305,46.391242 25.155921,45.623163 17.5625,45.628906 Z"
       id="path2026"
       inkscape:connector-curvature="0" />
    <path
       style="color:#000000;font-style:normal;font-variant:normal;font-weight:normal;font-stretch:normal;font-size:medium;line-height:normal;font-family:sans-serif;font-variant-ligatures:normal;font-variant-position:normal;font-variant-caps:normal;font-variant-numeric:normal;font-variant-alternates:normal;font-feature-settings:normal;text-indent:0;text-align:start;text-decoration:none;text-decoration-line:none;text-decoration-style:solid;text-decoration-color:#000000;letter-spacing:normal;word-spacing:normal;text-transform:none;writing-mode:lr-tb;direction:ltr;text-orientation:mixed;dominant-baseline:auto;baseline-shift:baseline;text-anchor:start;white-space:normal;shape-padding:0;clip-rule:nonzero;display:inline;overflow:visible;visibility:visible;opacity:1;isolation:auto;mix-blend-mode:normal;color-interpolation:sRGB;color-interpolation-filters:linearRGB;solid-color:#000000;solid-opacity:1;vector-effect:none;fill:#000000;fill-opacity:1;fill-rule:nonzero;stroke:#000000;stroke-width:1.00012499;stroke-linecap:butt;stroke-linejoin:miter;stroke-miterlimit:4;stroke-dasharray:none;stroke-dashoffset:0;stroke-opacity:1;color-rendering:auto;image-rendering:auto;shape-rendering:auto;text-rendering:auto;enable-background:accumulate"
       d="m -58.865234,82.216797 c -33.661957,0.148856 -74.111666,2.280999 -131.904296,5.830078 l 0.64844,10.564453 c 115.500895,-7.092977 160.545478,-8.488609 220.93359,0.152344 6.275933,0.898025 10.187963,2.854958 11.556641,4.123048 0.684339,0.63404 0.718806,0.94505 0.714843,0.92187 -0.004,-0.0232 0.107148,-0.14386 -0.164062,0.26953 -0.54242,0.82679 -3.334449,3.06812 -8.828125,4.48633 -5.493677,1.41822 -13.479664,2.19346 -23.855469,1.52539 l -0.6796874,10.56055 c 11.2299214,0.72306 20.2243384,-0.0418 27.1816404,-1.83789 6.957302,-1.79605 12.086571,-4.44421 15.029297,-8.92969 1.471363,-2.24273 2.215474,-5.12375 1.748047,-7.85742 C 53.048198,99.291723 51.522094,96.942385 49.560547,95.125 45.637452,91.490229 39.916344,89.375146 32.3125,88.287109 1.6716861,83.902706 -25.203277,82.06794 -58.865234,82.216797 Z"
       id="path2028"
       inkscape:connector-curvature="0" />
  </g>
  <g
     transform="translate(1000.0368,273.06404)"
     id="layer1">
    <path
       id="path8081"
       d="m -864.16992,-272.02734 c -27.93578,0.31909 -55.5629,8.43687 -79.4082,22.91796 -13.42077,6.24725 -28.72146,8.35867 -41.46579,15.83569 -9.79744,23.92759 -5.74248,50.71647 -3.01468,75.66822 1.0208,6.63011 6.73269,11.48566 13.33026,11.87411 41.76521,13.27479 83.44896,33.41533 128.3794,30.35812 41.01395,-3.47117 78.9921,-21.00221 117.57048,-33.66745 7.73131,-9.21983 4.88426,-22.13306 7.14954,-33.11947 0.80038,-17.08298 1.33946,-35.33722 -5.57031,-51.22851 -14.23111,-8.29668 -31.3897,-9.54214 -45.58027,-17.94066 -17.93079,-9.19941 -36.64881,-18.07008 -57.10918,-19.24684 -11.3708,-1.39372 -22.83944,-1.58752 -34.28125,-1.45117 z"
       style="fill:#babdb6;stroke:#888a85;stroke-width:2;stroke-linecap:round;stroke-linejoin:round;stroke-miterlimit:4;stroke-dasharray:none;stroke-opacity:1" />
    <path
       style="fill:none;stroke:#000000;stroke-width:0.5;stroke-linecap:round;stroke-linejoin:round;stroke-miterlimit:4;stroke-dasharray:0.50000001, 1.00000003;stroke-dashoffset:0;stroke-opacity:1"
       d="m -856.52265,-264.06281 v 0.003 c -22.22513,0.0612 -48.59115,2.90327 -69.44119,14.98366 -21.08208,12.21482 -53.49752,20.47038 -53.49752,20.47038 -6.39525,29.14632 -3.29524,51.17113 0,73.04959 38.62041,11.13729 79.05939,31.85435 122.93871,32.62231 v 0.0145 c 0.12389,-0.003 0.24747,-0.005 0.37135,-0.008 0.12401,0.003 0.24776,0.006 0.37186,0.008 v -0.0145 c 43.87932,-0.76796 84.3183,-21.48502 122.93871,-32.62231 3.29523,-21.87848 6.39524,-43.90327 0,-73.04959 0,0 -32.41492,-8.25556 -53.49701,-20.47038 -20.85009,-12.08036 -47.21653,-14.92244 -69.4417,-14.98357 v -0.003 c -0.12313,0 -0.24803,0.001 -0.37135,0.002 -0.12351,-1.7e-4 -0.24865,-0.002 -0.37186,-10e-4 z"
       id="path8091" />
    <path
       id="fs-1"
       d="m -980.56889,-163.06837 c 0.35739,2.5129 0.73119,5.0135 1.10753,7.51219 38.62041,11.13729 79.05939,31.85435 122.93871,32.62231 v 0.0145 c 0.12389,-0.003 0.24747,-0.005 0.37135,-0.008 0.12401,0.003 0.24776,0.006 0.37186,0.008 v -0.0145 c 43.87932,-0.76796 84.3183,-21.48502 122.93871,-32.62231 3.29523,-21.87848 6.39524,-43.90327 0,-73.04959 0,0 -32.41492,-8.25556 -53.49701,-20.47038 -20.85009,-12.08036 -47.21653,-14.92244 -69.4417,-14.98357 v -0.003 c -0.12313,0 -0.24803,0.001 -0.37135,0.002 -0.12351,-1.7e-4 -0.24865,-0.002 -0.37186,-10e-4 v -0.001 0.003 c -22.22513,0.0612 -48.59115,2.90327 -69.44119,14.98366 -21.08208,12.21482 -53.49752,20.47038 -53.49752,20.47038 -0.64414,2.93568 -1.19196,5.7991 -1.65294,8.59741"
       style="fill:none;stroke:#000000;stroke-width:1;stroke-linecap:round;stroke-linejoin:round;stroke-miterlimit:4;stroke-dasharray:3.00000008, 3.00000008;stroke-dashoffset:0;stroke-opacity:1" />
    <path
       d="m -855.9012,-264.5612 v 142.14015"
       style="fill:none;stroke:#000000;stroke-width:0.5;stroke-linecap:butt;stroke-linejoin:miter;stroke-miterlimit:4;stroke-dasharray:none;stroke-opacity:1"
       id="path983" />
    <path
       id="path8093"
       d="m -981.1143,-220.00827 c -0.12738,-0.57168 -0.17728,-1.16634 -0.38215,-1.71505 -0.0385,-0.10321 -0.0867,0.20396 -0.14781,0.29563 -0.0387,0.058 -0.0898,0.10916 -0.14782,0.14781 -0.0917,0.0611 -0.21772,0.0699 -0.29562,0.14782 -0.18004,0.18003 -0.0692,0.33024 -0.29563,0.44344 -0.62535,0.31267 -0.2317,0.0632 -0.73907,0.14781 -0.20038,0.0334 -0.38967,0.12261 -0.59125,0.14781 -0.0466,0.006 -1.16167,-0.006 -1.1825,0 -1.17095,0.33456 0.24946,0.2811 -0.88688,0.44344 -0.1951,0.0279 -0.39685,-0.0324 -0.59125,0 -0.10867,0.0181 -0.19333,0.1069 -0.29563,0.14781 -0.14466,0.0579 -0.30983,0.0676 -0.44343,0.14782 -0.1195,0.0717 -0.17098,0.2333 -0.29563,0.29562 -0.1817,0.0908 -0.39853,0.0836 -0.59125,0.14782 -0.10452,0.0348 -0.19334,0.10689 -0.29563,0.14781 -0.14466,0.0579 -0.30408,0.0781 -0.44344,0.14781 -0.15889,0.0795 -0.2911,0.20423 -0.44344,0.29563 -0.0945,0.0567 -0.20395,0.0867 -0.29562,0.14781 -0.058,0.0386 -0.0817,0.12578 -0.14782,0.14781 -0.0935,0.0312 -0.19708,0 -0.29562,0 -0.0493,0 -0.10374,-0.022 -0.14782,0 -0.22638,0.1132 -0.11559,0.26341 -0.29562,0.44344 -0.0779,0.0779 -0.19111,0.11297 -0.29563,0.14781 -0.14781,0.0493 -0.21151,-0.10451 -0.29562,0.14782 -0.0262,0.0787 0,1.05563 0,1.1825 0,0.78834 0,1.57667 0,2.36501 0,0.0268 0.0202,0.97423 0,1.03469 -0.0484,0.14525 -0.36583,0.24388 -0.44344,0.29563 -0.20335,0.13556 -0.15202,0.22803 -0.29563,0.44344 -0.13556,0.20334 -0.22803,0.15202 -0.44344,0.29562 -0.33958,0.22639 0.0634,0.0844 -0.29562,0.44344 -0.0779,0.0779 -0.19709,0.0985 -0.29563,0.14781 -0.26278,0.13139 -0.43464,0.23474 -0.73906,0.29563 -0.0966,0.0193 -0.19709,0 -0.29563,0 -0.24635,0 -0.49271,0 -0.73906,0 -0.98542,0 -1.97084,0 -2.95626,0 -0.0638,0 -1.02978,-0.005 -1.03469,0 -0.036,0.036 0.0318,1.1825 0,1.1825 -0.0493,0 0,-0.0985 0,-0.14781"
       style="fill:none;stroke:#000000;stroke-width:1;stroke-linecap:round;stroke-linejoin:round;stroke-miterlimit:4;stroke-dasharray:none;stroke-opacity:1" />
    <path
       id="path8095"
       d="m -980.56889,-163.06837 c -0.25992,0.4031 -0.48784,0.82873 -0.77975,1.20931 -0.03,0.0391 -0.0985,0 -0.14781,0 -0.29563,0 -0.59125,0 -0.88688,0 -0.39417,0 -0.78834,0 -1.1825,0 -0.0986,0 -0.20414,0.0366 -0.29563,0 -0.35494,-0.14198 -0.62318,-0.47537 -0.88688,-0.73907 -0.0985,-0.0985 -0.19708,-0.19708 -0.29562,-0.29562 -0.0493,-0.0493 -0.0855,-0.11665 -0.14782,-0.14782 -0.13935,-0.0697 -0.30983,-0.0676 -0.44344,-0.14781 -0.11949,-0.0717 -0.17612,-0.22392 -0.29562,-0.29563 -0.13361,-0.0802 -0.29877,-0.0899 -0.44344,-0.14781 -0.10229,-0.0409 -0.19333,-0.10689 -0.29563,-0.14781 -0.14466,-0.0579 -0.30983,-0.0676 -0.44343,-0.14782 -0.1195,-0.0717 -0.19709,-0.19708 -0.29563,-0.29562 -0.14781,-0.0493 -0.30408,-0.0781 -0.44344,-0.14781 -0.0623,-0.0312 -0.0985,-0.0985 -0.14781,-0.14782 -0.0493,-0.0493 -0.10916,-0.0898 -0.14781,-0.14781 -0.0611,-0.0917 -0.0562,-0.23451 -0.14782,-0.29563 -0.082,-0.0547 -0.19708,0 -0.29562,0 -0.0493,0 -0.0986,0 -0.14782,0 -0.29562,0 -0.59125,0 -0.88688,0 -1.37958,0 -2.75917,0 -4.13876,0 -0.39417,0 -0.78833,0 -1.1825,0 -0.14781,0 -0.2985,0.029 -0.44344,0 -0.11861,-0.0237 -0.60768,-0.19051 -0.73907,-0.29562 -0.21764,-0.17411 -0.36827,-0.42402 -0.59125,-0.59125 -0.14212,-0.10659 -0.33246,-0.15691 -0.44344,-0.29563 -0.19466,-0.24333 -0.1353,-0.61967 -0.29562,-0.88688 -0.0717,-0.1195 -0.19709,-0.19708 -0.29563,-0.29562 -0.0493,-0.0493 -0.11665,-0.0855 -0.14781,-0.14781 -0.15302,-0.30604 -0.0452,-0.42429 -0.29563,-0.59126 -0.0917,-0.0611 -0.21772,-0.0699 -0.29562,-0.14781 -0.0779,-0.0779 -0.0867,-0.20396 -0.14782,-0.29563 -0.0387,-0.058 -0.11665,-0.0855 -0.14781,-0.14781 -0.022,-0.0441 0.022,-0.10374 0,-0.14781 -0.0312,-0.0623 -0.12578,-0.0817 -0.14781,-0.14781 -0.0312,-0.0935 0.0547,-0.21364 0,-0.29563 -0.0611,-0.0917 -0.21772,-0.0699 -0.29563,-0.14781 -0.0697,-0.0697 0.0697,-0.22595 0,-0.29563 -0.0348,-0.0348 -0.12578,0.0441 -0.14781,0 -0.15198,-0.30396 0.25119,-0.44344 -0.14781,-0.44344"
       style="fill:none;stroke:#000000;stroke-width:1;stroke-linecap:round;stroke-linejoin:round;stroke-miterlimit:4;stroke-dasharray:none;stroke-opacity:1" />
  </g>
  <g
     id="g2020">
    <path
       inkscape:connector-curvature="0"
       id="path2000"
       d="m 279.77148,46.417969 c -72.77841,0 -112.40404,7.787747 -154.18164,14.208984 C 83.812251,67.04819 39.692335,72.177112 -43.8125,67.144531 l -0.636719,10.564453 c 84.164236,5.072321 129.5922,-0.157329 171.646489,-6.621093 42.05428,-6.463765 80.5467,-14.085938 152.57421,-14.085938 z"
       style="color:#000000;font-style:normal;font-variant:normal;font-weight:normal;font-stretch:normal;font-size:medium;line-height:normal;font-family:sans-serif;font-variant-ligatures:normal;font-variant-position:normal;font-variant-caps:normal;font-variant-numeric:normal;font-variant-alternates:normal;font-feature-settings:normal;text-indent:0;text-align:start;text-decoration:none;text-decoration-line:none;text-decoration-style:solid;text-decoration-color:#000000;letter-spacing:normal;word-spacing:normal;text-transform:none;writing-mode:lr-tb;direction:ltr;text-orientation:mixed;dominant-baseline:auto;baseline-shift:baseline;text-anchor:start;white-space:normal;shape-padding:0;clip-rule:nonzero;display:inline;overflow:visible;visibility:visible;opacity:1;isolation:auto;mix-blend-mode:normal;color-interpolation:sRGB;color-interpolation-filters:linearRGB;solid-color:#000000;solid-opacity:1;vector-effect:none;fill:none;fill-opacity:1;fill-rule:nonzero;stroke:#000000;stroke-width:0.52916666;stroke-linecap:butt;stroke-linejoin:miter;stroke-miterlimit:4;stroke-dasharray:0.52916666,1.58749999;stroke-dashoffset:0;stroke-opacity:1;color-rendering:auto;image-rendering:auto;shape-rendering:auto;text-rendering:auto;enable-background:accumulate" />
    <path
       inkscape:connector-curvature="0"
       id="path2002"
       d="m 64.449219,86.041016 c -34.24398,0.179971 -72.7965691,2.649329 -116.47461,8.914062 l 1.501953,10.476562 c 172.796798,-24.784212 262.037828,10.7168 328.972658,10.7168 v -10.58399 c -47.30431,0 -111.26806,-20.063348 -214.000001,-19.523434 z"
       style="color:#000000;font-style:normal;font-variant:normal;font-weight:normal;font-stretch:normal;font-size:medium;line-height:normal;font-family:sans-serif;font-variant-ligatures:normal;font-variant-position:normal;font-variant-caps:normal;font-variant-numeric:normal;font-variant-alternates:normal;font-feature-settings:normal;text-indent:0;text-align:start;text-decoration:none;text-decoration-line:none;text-decoration-style:solid;text-decoration-color:#000000;letter-spacing:normal;word-spacing:normal;text-transform:none;writing-mode:lr-tb;direction:ltr;text-orientation:mixed;dominant-baseline:auto;baseline-shift:baseline;text-anchor:start;white-space:normal;shape-padding:0;clip-rule:nonzero;display:inline;overflow:visible;visibility:visible;opacity:1;isolation:auto;mix-blend-mode:normal;color-interpolation:sRGB;color-interpolation-filters:linearRGB;solid-color:#000000;solid-opacity:1;vector-effect:none;fill:none;fill-opacity:1;fill-rule:nonzero;stroke:#000000;stroke-width:0.52916666;stroke-linecap:butt;stroke-linejoin:miter;stroke-miterlimit:4;stroke-dasharray:0.52916666,1.58749999;stroke-dashoffset:0;stroke-opacity:1;color-rendering:auto;image-rendering:auto;shape-rendering:auto;text-rendering:auto;enable-background:accumulate" />
    <path
       inkscape:connector-curvature="0"
       id="path2004"
       d="m 17.5625,45.628906 c -2.53114,0.0019 -5.198379,0.09072 -8.0058594,0.271485 l 0.6796874,10.560547 c 10.375805,-0.668066 18.361792,0.105225 23.855469,1.523437 5.493677,1.418212 8.285705,3.661494 8.828125,4.488281 0.27121,0.413394 0.1601,0.292707 0.164062,0.269532 0.004,-0.02318 -0.0305,0.285877 -0.714843,0.919921 -1.368678,1.268088 -5.280707,3.226975 -11.556641,4.125 -59.350472,8.492477 -108.066211,-10.713686 -224.10742,-17.839843 l -0.64844,10.564453 c 115.044948,7.064976 163.936592,26.669236 226.25586,17.751953 7.603843,-1.088036 13.324952,-3.20312 17.248047,-6.837891 1.961547,-1.817385 3.487651,-4.166723 3.955078,-6.90039 0.467427,-2.733668 -0.276684,-5.616639 -1.748047,-7.859375 C 48.824852,52.180543 43.695583,49.534334 36.738281,47.738281 31.520305,46.391242 25.155921,45.623163 17.5625,45.628906 Z"
       style="color:#000000;font-style:normal;font-variant:normal;font-weight:normal;font-stretch:normal;font-size:medium;line-height:normal;font-family:sans-serif;font-variant-ligatures:normal;font-variant-position:normal;font-variant-caps:normal;font-variant-numeric:normal;font-variant-alternates:normal;font-feature-settings:normal;text-indent:0;text-align:start;text-decoration:none;text-decoration-line:none;text-decoration-style:solid;text-decoration-color:#000000;letter-spacing:normal;word-spacing:normal;text-transform:none;writing-mode:lr-tb;direction:ltr;text-orientation:mixed;dominant-baseline:auto;baseline-shift:baseline;text-anchor:start;white-space:normal;shape-padding:0;clip-rule:nonzero;display:inline;overflow:visible;visibility:visible;opacity:1;isolation:auto;mix-blend-mode:normal;color-interpolation:sRGB;color-interpolation-filters:linearRGB;solid-color:#000000;solid-opacity:1;vector-effect:none;fill:none;fill-opacity:1;fill-rule:nonzero;stroke:#000000;stroke-width:0.52916666;stroke-linecap:butt;stroke-linejoin:miter;stroke-miterlimit:4;stroke-dasharray:0.52916666,1.58749999;stroke-dashoffset:0;stroke-opacity:1;color-rendering:auto;image-rendering:auto;shape-rendering:auto;text-rendering:auto;enable-background:accumulate" />
    <path
       inkscape:connector-curvature="0"
       id="path2006"
       d="m -58.865234,82.216797 c -33.661957,0.148856 -74.111666,2.280999 -131.904296,5.830078 l 0.64844,10.564453 c 115.500895,-7.092977 160.545478,-8.488609 220.93359,0.152344 6.275933,0.898025 10.187963,2.854958 11.556641,4.123048 0.684339,0.63404 0.718806,0.94505 0.714843,0.92187 -0.004,-0.0232 0.107148,-0.14386 -0.164062,0.26953 -0.54242,0.82679 -3.334449,3.06812 -8.828125,4.48633 -5.493677,1.41822 -13.479664,2.19346 -23.855469,1.52539 l -0.6796874,10.56055 c 11.2299214,0.72306 20.2243384,-0.0418 27.1816404,-1.83789 6.957302,-1.79605 12.086571,-4.44421 15.029297,-8.92969 1.471363,-2.24273 2.215474,-5.12375 1.748047,-7.85742 C 53.048198,99.291723 51.522094,96.942385 49.560547,95.125 45.637452,91.490229 39.916344,89.375146 32.3125,88.287109 1.6716861,83.902706 -25.203277,82.06794 -58.865234,82.216797 Z"
       style="color:#000000;font-style:normal;font-variant:normal;font-weight:normal;font-stretch:normal;font-size:medium;line-height:normal;font-family:sans-serif;font-variant-ligatures:normal;font-variant-position:normal;font-variant-caps:normal;font-variant-numeric:normal;font-variant-alternates:normal;font-feature-settings:normal;text-indent:0;text-align:start;text-decoration:none;text-decoration-line:none;text-decoration-style:solid;text-decoration-color:#000000;letter-spacing:normal;word-spacing:normal;text-transform:none;writing-mode:lr-tb;direction:ltr;text-orientation:mixed;dominant-baseline:auto;baseline-shift:baseline;text-anchor:start;white-space:normal;shape-padding:0;clip-rule:nonzero;display:inline;overflow:visible;visibility:visible;opacity:1;isolation:auto;mix-blend-mode:normal;color-interpolation:sRGB;color-interpolation-filters:linearRGB;solid-color:#000000;solid-opacity:1;vector-effect:none;fill:none;fill-opacity:1;fill-rule:nonzero;stroke:#000000;stroke-width:0.52916666;stroke-linecap:butt;stroke-linejoin:miter;stroke-miterlimit:4;stroke-dasharray:0.52916666,1.58749999;stroke-dashoffset:0;stroke-opacity:1;color-rendering:auto;image-rendering:auto;shape-rendering:auto;text-rendering:auto;enable-background:accumulate" />
  </g>
</svg>
