<?xml version="1.0" encoding="UTF-8" standalone="no"?>
<svg
   width="210.27757mm"
   height="122.46715mm"
   viewBox="0 0 210.27758 122.46714"
   version="1.1"
   id="svg1192"
   inkscape:version="1.3.2 (091e20e, 2023-11-25)"
   sodipodi:docname="step06b.svg"
   xmlns:inkscape="http://www.inkscape.org/namespaces/inkscape"
   xmlns:sodipodi="http://sodipodi.sourceforge.net/DTD/sodipodi-0.dtd"
   xmlns="http://www.w3.org/2000/svg"
   xmlns:svg="http://www.w3.org/2000/svg"
   xmlns:rdf="http://www.w3.org/1999/02/22-rdf-syntax-ns#"
   xmlns:cc="http://creativecommons.org/ns#"
   xmlns:dc="http://purl.org/dc/elements/1.1/">
  <defs
     id="defs1186">
    <marker
       style="overflow:visible"
       id="marker5349"
       refX="0"
       refY="0"
       orient="auto"
       inkscape:stockid="Arrow1Send"
       inkscape:isstock="true">
      <path
         transform="matrix(-0.2,0,0,-0.2,-1.2,0)"
         style="fill:#e60000;fill-opacity:1;fill-rule:evenodd;stroke:#e60000;stroke-width:1pt;stroke-opacity:1"
         d="M 0,0 5,-5 -12.5,0 5,5 Z"
         id="path5347" />
    </marker>
    <marker
       style="overflow:visible"
       id="marker5339"
       refX="0"
       refY="0"
       orient="auto"
       inkscape:stockid="Arrow1Send"
       inkscape:isstock="true">
      <path
         transform="matrix(-0.2,0,0,-0.2,-1.2,0)"
         style="fill:#e60000;fill-opacity:1;fill-rule:evenodd;stroke:#e60000;stroke-width:1pt;stroke-opacity:1"
         d="M 0,0 5,-5 -12.5,0 5,5 Z"
         id="path5337" />
    </marker>
    <marker
       style="overflow:visible"
       id="marker5285"
       refX="0"
       refY="0"
       orient="auto"
       inkscape:stockid="Arrow1Mend"
       inkscape:isstock="true">
      <path
         transform="matrix(-0.4,0,0,-0.4,-4,0)"
         style="fill:#e60000;fill-opacity:1;fill-rule:evenodd;stroke:#e60000;stroke-width:1pt;stroke-opacity:1"
         d="M 0,0 5,-5 -12.5,0 5,5 Z"
         id="path5283" />
    </marker>
    <marker
       style="overflow:visible"
       id="marker5275"
       refX="0"
       refY="0"
       orient="auto"
       inkscape:stockid="Arrow1Mend"
       inkscape:isstock="true">
      <path
         transform="matrix(-0.4,0,0,-0.4,-4,0)"
         style="fill:#e60000;fill-opacity:1;fill-rule:evenodd;stroke:#e60000;stroke-width:1pt;stroke-opacity:1"
         d="M 0,0 5,-5 -12.5,0 5,5 Z"
         id="path5273" />
    </marker>
    <marker
       style="overflow:visible"
       id="marker5203"
       refX="0"
       refY="0"
       orient="auto"
       inkscape:stockid="Arrow1Mstart"
       inkscape:isstock="true">
      <path
         transform="matrix(0.4,0,0,0.4,4,0)"
         style="fill:#e60000;fill-opacity:1;fill-rule:evenodd;stroke:#e60000;stroke-width:1pt;stroke-opacity:1"
         d="M 0,0 5,-5 -12.5,0 5,5 Z"
         id="path5201" />
    </marker>
    <marker
       style="overflow:visible"
       id="marker5193"
       refX="0"
       refY="0"
       orient="auto"
       inkscape:stockid="Arrow1Mstart"
       inkscape:isstock="true">
      <path
         transform="matrix(0.4,0,0,0.4,4,0)"
         style="fill:#e60000;fill-opacity:1;fill-rule:evenodd;stroke:#e60000;stroke-width:1pt;stroke-opacity:1"
         d="M 0,0 5,-5 -12.5,0 5,5 Z"
         id="path5191" />
    </marker>
  </defs>
  <sodipodi:namedview
     id="base"
     pagecolor="#ffffff"
     bordercolor="#666666"
     borderopacity="1.0"
     inkscape:pageopacity="0.0"
     inkscape:pageshadow="2"
     inkscape:zoom="0.64240262"
     inkscape:cx="-502.02161"
     inkscape:cy="-537.8247"
     inkscape:document-units="mm"
     inkscape:current-layer="layer2"
     inkscape:document-rotation="0"
     showgrid="false"
     fit-margin-top="0"
     fit-margin-left="0"
     fit-margin-right="0"
     fit-margin-bottom="-150"
     inkscape:window-width="1312"
     inkscape:window-height="806"
     inkscape:window-x="2252"
     inkscape:window-y="131"
     inkscape:window-maximized="0"
     inkscape:showpageshadow="2"
     inkscape:pagecheckerboard="0"
     inkscape:deskcolor="#d1d1d1" />
  <metadata
     id="metadata1189">
    <rdf:RDF>
      <cc:Work
         rdf:about="">
        <dc:format>image/svg+xml</dc:format>
        <dc:type
           rdf:resource="http://purl.org/dc/dcmitype/StillImage" />
        <dc:title />
      </cc:Work>
    </rdf:RDF>
  </metadata>
  <g
     inkscape:groupmode="layer"
     id="layer2"
     inkscape:label="Layer 2"
     transform="translate(18.892803,-7.1603024)"
     style="display:inline">
    <path
       class="fabric sa"
       id="fs-13-7"
       d="m 55.141236,265.64872 c 25.06408,-73.12607 41.53023,-126.99076 57.283924,-162.75218 4.41719,-10.026937 8.30709,-19.801794 11.83783,-27.466014 1.88124,-4.069888 2.39701,-5.120377 4.11354,-8.358351 1.3219,-2.228393 2.50829,-4.275248 4.91036,-8.184939 4.82371,-6.734002 13.75591,-18.79786 13.75591,-18.79786 -0.006,-0.0048 -1.0469,1.294845 -1.07362,1.280479 -0.86151,-0.400998 -11.72097,-4.524208 -21.37479,-9.807241 -5.25712,-3.124276 -9.38523,-5.748259 -13.39162,-7.987243 v 0 c -4.39644,-1.506872 -9.11754,-3.933545 -13.786384,-6.565232 -5.68071,-3.09795 -11.42497,-6.294738 -15.94349,-9.3498396 l -3.47086,0.673499 -12.36857,18.2981236 C 58.375296,37.368239 50.945315,40.455975 40.017379,39.746937 38.888258,39.671777 37.72385,39.560733 36.521006,39.415374 l -2.78154,2.178292 c -0.276009,2.254814 -0.51165,5.348003 -0.906799,9.53877 -0.694579,7.346661 -1.903493,18.11383 -4.770107,33.72518 -5.578336,30.385214 -17.431214,79.053664 -43.95679,156.443694 l -2.498579,15.00018 66.305616,22.72636 z"
       style="opacity:1;fill:#e2e5de;fill-opacity:1;stroke:#888a85;stroke-width:1;stroke-linecap:round;stroke-linejoin:round;stroke-miterlimit:4;stroke-dasharray:none;stroke-dashoffset:0;stroke-opacity:1"
       sodipodi:nodetypes="ccccccccccccccccccccccc" />
    <path
       class="lining sa"
       id="fs-29-0-6"
       d="m 151.36746,17.774964 -1.66978,-1.862114 -10.97757,9.841892 -0.79585,2.275241 9.48261,55.263619 c 4.53095,2.389157 11.13604,5.364984 21.10285,-0.910155 1.83706,-1.156289 5.71032,-4.676437 7.69505,-6.532683 l 14.80769,-13.849153 v 0"
       style="fill:#e2e5de;fill-opacity:1;stroke:#888a85;stroke-width:1;stroke-miterlimit:4;stroke-dasharray:none;stroke-opacity:1"
       sodipodi:nodetypes="ccccccscc" />
    <path
       class="fabric sa"
       id="fs-32-8"
       d="m 138.72008,25.754698 -8.99253,8.042663 -0.80569,2.232426 3.66465,24.573913 c 0.5074,3.390663 1.19542,6.210808 2.21381,8.771543 0.98494,2.472757 2.1129,4.434902 3.85985,6.686708 0.9792,1.262195 2.56488,2.649887 3.86561,3.975891 1.89119,1.927916 4.8959,3.1158 7.25098,4.361075 0,0 -11.05666,-58.644158 -11.05669,-58.644203 z"
       style="fill:#e2e5de;fill-opacity:1;stroke:#888a85;stroke-width:1;stroke-miterlimit:4;stroke-dasharray:none;stroke-opacity:1"
       sodipodi:nodetypes="cccccscccc" />
    <path
       sodipodi:type="star"
       style="fill:#888a85;fill-opacity:1;stroke:#888a85;stroke-width:8.59356;stroke-linecap:round;stroke-linejoin:bevel;stroke-miterlimit:4;stroke-dasharray:none;stroke-opacity:1"
       id="path3099"
       sodipodi:sides="3"
       sodipodi:cx="42.798103"
       sodipodi:cy="126.60064"
       sodipodi:r1="3.3327425"
       sodipodi:r2="6.7609301"
       sodipodi:arg1="0.94200001"
       sodipodi:arg2="2.0959068"
       inkscape:flatsided="false"
       inkscape:rounded="0"
       inkscape:randomized="0"
       inkscape:transform-center-x="0.1083703"
       inkscape:transform-center-y="0.15915263"
       transform="matrix(0.10933024,-0.05563199,0.04330768,0.10181809,125.5752,60.481546)"
       d="m 44.758328,129.29595 -5.349537,3.15471 0.07499,-5.50007 -0.05729,-6.21019 4.725704,2.81498 5.406829,3.05548 z" />
    <path
       sodipodi:type="star"
       style="fill:#888a85;fill-opacity:1;stroke:#888a85;stroke-width:8.59356;stroke-linecap:round;stroke-linejoin:bevel;stroke-miterlimit:4;stroke-dasharray:none;stroke-opacity:1"
       id="path3099-1"
       sodipodi:sides="3"
       sodipodi:cx="42.798103"
       sodipodi:cy="126.60064"
       sodipodi:r1="3.3327425"
       sodipodi:r2="6.7609301"
       sodipodi:arg1="0.94200001"
       sodipodi:arg2="2.0959068"
       inkscape:flatsided="false"
       inkscape:rounded="0"
       inkscape:randomized="0"
       inkscape:transform-center-x="0.01234626"
       inkscape:transform-center-y="0.036051063"
       transform="matrix(0.11895088,-0.0299785,0.01962893,0.10889071,121.9965,26.092185)"
       d="m 44.758328,129.29595 -5.349537,3.15471 0.07499,-5.50007 -0.05729,-6.21019 4.725704,2.81498 5.406829,3.05548 z" />
    <path
       style="fill:none;stroke:#888a85;stroke-width:1;stroke-linecap:butt;stroke-linejoin:miter;stroke-miterlimit:4;stroke-dasharray:none;stroke-opacity:1"
       d="m 151.36746,17.774964 39.645,44.226647"
       id="path929" />
    <path
       style="fill:none;stroke:#ff0000;stroke-width:0.5;stroke-linecap:butt;stroke-linejoin:miter;stroke-miterlimit:4;stroke-dasharray:1.5, 0.5;stroke-dashoffset:0;stroke-opacity:1"
       d="m 188.72215,59.605375 c -7.4917,6.813499 -14.271,13.987242 -22.47512,20.440491 -3.06017,2.595125 -10.59076,3.851734 -15.99154,1.76751 -5.64414,-2.052902 -9.86763,-8.520922 -13.74221,-13.202264"
       id="path1818"
       sodipodi:nodetypes="cccc" />
    <path
       style="fill:#babdb6;fill-opacity:1;stroke:#e2e5de;stroke-width:0;stroke-opacity:1"
       d="m 650.86195,282.7721 c -5.86964,-0.98149 -11.14126,-2.25373 -11.71473,-2.8272 -0.57347,-0.57348 -9.85965,-47.44995 -20.63596,-104.16995 L 598.91796,72.64766 617.01732,55.640745 c 9.95464,-9.353804 18.98284,-16.736844 20.06266,-16.406756 1.07982,0.330087 33.9779,36.216722 73.10685,79.748081 l 71.14354,79.14791 -14.03397,13.20867 c -7.71868,7.26476 -20.80376,19.67016 -29.07796,27.56755 -42.6873,40.74329 -58.51132,48.68929 -87.35649,43.8659 z"
       id="path2"
       transform="matrix(0.26458333,0,0,0.26458333,-18.892803,7.1603024)" />
    <path
       style="fill:#babdb6;fill-opacity:1;stroke:#e2e5de;stroke-width:0;stroke-opacity:1"
       d="m 659.88292,296.20039 c -5.33789,-0.47156 -11.37778,-1.9292 -17.33638,-4.18388 l -3.16457,-1.19744 -0.74174,-3.69156 c -0.40795,-2.03036 -0.74848,-3.83323 -0.75674,-4.00637 -0.009,-0.19259 0.93819,0.0206 2.44006,0.54898 1.35029,0.47508 2.53051,0.78836 2.6227,0.69616 0.0922,-0.0922 0.27421,-0.53924 0.40447,-0.99341 l 0.23683,-0.82578 -2.70091,-1.00027 c -1.48551,-0.55015 -2.7723,-1.00027 -2.85954,-1.00027 -0.0872,0 -0.16701,0.21671 -0.17725,0.48157 -0.016,0.41301 -0.0534,0.40322 -0.26328,-0.0688 -0.39326,-0.88463 -29.25189,-154.51612 -29.06071,-154.70729 0.0954,-0.0954 0.24037,-0.1066 0.32212,-0.0248 0.0817,0.0818 2.23943,11.15432 4.79485,24.60572 15.14024,79.69625 24.51505,127.36341 25.36108,128.95095 0.32731,0.61418 2.90552,1.37631 8.13701,2.40535 8.69053,1.70943 16.8814,2.31397 22.78609,1.68176 14.26528,-1.52736 27.32104,-8.52354 46.50268,-24.91934 7.38084,-6.30889 12.52682,-11.05429 29.9975,-27.66236 8.0638,-7.66565 23.33108,-22.08919 31.15552,-29.43374 l 3.91264,-3.67266 -0.85889,-0.98958 c -0.81911,-0.94373 -9.97521,-11.14186 -37.08321,-41.30352 -6.73329,-7.49179 -14.96773,-16.6553 -18.29874,-20.36336 -3.33101,-3.70806 -6.60272,-7.33012 -7.27046,-8.04903 -1.02963,-1.10852 -1.12815,-1.30711 -0.64847,-1.30711 0.40331,0 9.71237,10.20239 32.44017,35.55323 17.531,19.55427 32.10833,35.84837 32.39407,36.20909 l 0.51951,0.65587 -1.41385,1.2368 c -0.77762,0.68024 -1.41385,1.39136 -1.41385,1.58026 0,0.18891 0.29301,0.61873 0.65113,0.95517 l 0.65114,0.61171 1.52822,-1.39671 1.52823,-1.39671 2.98027,3.31684 c 1.63915,1.82426 3.01653,3.42234 3.06085,3.5513 0.0443,0.12895 -12.89605,12.3666 -28.75637,27.19476 -32.43329,30.32261 -34.19777,31.94762 -41.51081,38.22942 -9.54126,8.19582 -13.06725,10.6684 -21.17333,14.84765 -13.90503,7.16903 -26.30539,9.99745 -38.93804,8.88144 z m -1.65109,-10.15023 c 0,-0.60539 -0.0929,-1.10286 -0.20638,-1.10549 -0.11351,-0.003 -1.37464,-0.1278 -2.80251,-0.27818 -2.83455,-0.29852 -3.03295,-0.22324 -3.04086,1.15381 -0.004,0.71655 0.0444,0.73727 2.12843,0.90876 1.17296,0.0965 2.38031,0.21406 2.68301,0.26119 0.3027,0.0471 0.70515,0.10255 0.89434,0.12316 0.22409,0.0244 0.34397,-0.34614 0.34397,-1.06325 z m 7.42988,0 v -1.10072 h -2.8894 -2.88939 v 1.10072 1.10073 h 2.88939 2.8894 z m 7.6647,0.40726 c 0.0585,-0.0585 0.0215,-0.55915 -0.0823,-1.11249 l -0.18875,-1.00608 -1.83935,0.17623 c -3.95248,0.3787 -3.9032,0.35978 -3.9032,1.49835 v 1.01561 l 2.95361,-0.2326 c 1.62448,-0.12793 3.00149,-0.28049 3.06001,-0.33902 z m -22.61902,-2.24464 c -0.15317,-0.15317 -4.6841,-1.1574 -5.31838,-1.17875 -0.39677,-0.0134 -0.7857,1.6066 -0.46247,1.92629 0.12882,0.12741 1.41062,0.47026 2.84843,0.76187 l 2.61422,0.5302 0.23727,-0.94164 c 0.13049,-0.5179 0.16691,-1.01198 0.0809,-1.09797 z m 27.57336,1.40823 2.57496,-0.47614 -0.15536,-0.95735 c -0.0854,-0.52655 -0.20754,-1.00954 -0.27133,-1.07332 -0.1306,-0.13061 -5.40179,0.90859 -5.59654,1.10334 -0.25819,0.25819 0.25125,2.06623 0.5564,1.97469 0.17431,-0.0523 1.47565,-0.30934 2.89187,-0.57122 z m 7.81311,-1.95869 c 1.17296,-0.3647 2.13265,-0.76305 2.13265,-0.88523 0,-0.12218 -0.13859,-0.6197 -0.30797,-1.10561 -0.2301,-0.66005 -0.42147,-0.83588 -0.75675,-0.69532 -0.24682,0.10348 -1.50665,0.51352 -2.79961,0.9112 l -2.35083,0.72305 0.24516,1.0304 c 0.28014,1.17739 0.12261,1.1765 3.83735,0.0215 z m 6.07665,-2.32973 c 1.08481,-0.47577 2.24999,-1.04659 2.58928,-1.26848 0.5986,-0.39147 0.60296,-0.42701 0.14705,-1.19881 -0.25841,-0.43745 -0.55247,-0.79537 -0.65347,-0.79537 -0.43552,0 -5.06228,2.19362 -5.04838,2.39352 0.0462,0.66422 0.49357,1.73419 0.72511,1.73419 0.14741,0 1.15559,-0.38927 2.24041,-0.86505 z m 7.52833,-4.42054 c 2.03579,-1.54669 2.06867,-1.61022 1.29726,-2.50675 l -0.66704,-0.77523 -2.26754,1.71268 c -1.24715,0.94196 -2.22814,1.84806 -2.17997,2.01354 0.0482,0.16548 0.27339,0.58814 0.50051,0.93926 0.4,0.61838 0.43606,0.62371 1.15074,0.17 0.40579,-0.25762 1.38051,-0.95669 2.16604,-1.5535 z m 5.46217,-4.35463 c 1.11731,-0.913 2.1,-1.77085 2.18374,-1.90635 0.0837,-0.1355 -0.14134,-0.5877 -0.50019,-1.00489 l -0.65246,-0.75853 -2.24029,1.77054 c -1.23215,0.9738 -2.24055,1.88639 -2.24087,2.02798 -5.7e-4,0.25343 1.09038,1.53123 1.30733,1.53123 0.0612,0 1.02542,-0.74699 2.14274,-1.65998 z m 5.91767,-4.85066 c 1.20409,-1.00791 2.18864,-1.90569 2.18789,-1.99506 -7.5e-4,-0.0894 -0.28396,-0.51564 -0.62936,-0.94727 l -0.628,-0.78478 -2.19124,1.85176 c -1.20518,1.01847 -2.23669,1.89177 -2.29225,1.94066 -0.0939,0.0827 1.10359,1.71836 1.28272,1.75204 0.0445,0.008 1.06614,-0.80943 2.27024,-1.81735 z m 5.79752,-4.95235 c 1.19379,-1.00742 2.17053,-1.91457 2.17053,-2.01589 0,-0.10131 -0.30041,-0.46643 -0.66758,-0.81137 -0.78412,-0.73664 -0.78594,-0.73584 -3.25286,1.43169 l -1.85658,1.63127 0.56821,0.79799 c 0.31252,0.43889 0.63561,0.79798 0.71799,0.79798 0.0824,0 1.1265,-0.82425 2.32029,-1.83167 z m 4.61083,-3.98756 c 0.5497,-0.47628 1.53675,-1.3558 2.19343,-1.95447 l 1.19398,-1.0885 -0.75306,-0.78602 -0.75306,-0.78602 -2.14033,1.84616 c -1.17717,1.01539 -2.14953,1.96201 -2.16079,2.1036 -0.0202,0.25449 1.06228,1.53123 1.29828,1.53123 0.0671,0 0.57185,-0.38969 1.12155,-0.86598 z m 8.00596,-7.23176 0.95253,-0.99191 -0.7418,-0.7418 -0.7418,-0.7418 -1.03627,0.94952 c -0.56995,0.52223 -1.56177,1.44024 -2.20403,2.04003 l -1.16776,1.09051 0.72838,0.76027 0.72839,0.76027 1.26491,-1.06658 c 0.69571,-0.58663 1.69356,-1.51295 2.21745,-2.05851 z m 4.4019,-3.95886 c 1.06582,-0.95553 1.93785,-1.89364 1.93785,-2.08468 0,-0.19104 -0.28817,-0.61807 -0.64038,-0.94896 l -0.64039,-0.60161 -2.18021,2.03708 -2.18022,2.03709 0.67209,0.72329 c 0.36965,0.39781 0.76689,0.68995 0.88275,0.6492 0.11586,-0.0407 1.08269,-0.85588 2.14851,-1.81141 z m 5.48731,-5.11411 2.0222,-2.03578 -0.51559,-0.70738 c -0.28357,-0.38905 -0.63942,-0.70533 -0.79077,-0.70284 -0.15135,0.002 -1.18786,0.85027 -2.30337,1.88395 l -2.02819,1.87941 0.63524,0.85921 c 0.34939,0.47257 0.70793,0.85921 0.79677,0.85921 0.0888,0 1.07151,-0.9161 2.18371,-2.03578 z m 5.4933,-5.15669 c 1.08046,-1.00455 1.96447,-1.94266 1.96447,-2.08468 0,-0.14203 -0.30972,-0.54919 -0.68826,-0.90482 l -0.68826,-0.64658 -2.02944,1.90573 c -1.11619,1.04814 -2.04478,1.98189 -2.06354,2.07499 -0.0567,0.28161 1.11156,1.65122 1.3337,1.5635 0.11378,-0.0449 1.09088,-0.90359 2.17133,-1.90814 z m 5.51081,-5.25458 c 1.07649,-1.01893 1.95727,-1.95704 1.95727,-2.08468 0,-0.12765 -0.30972,-0.52304 -0.68826,-0.87867 l -0.68826,-0.64658 -2.02943,1.90573 c -1.11619,1.04814 -2.04479,2.02157 -2.06355,2.16316 -0.0433,0.327 1.10845,1.56661 1.36371,1.46772 0.10519,-0.0407 1.07201,-0.90775 2.14852,-1.92668 z m 5.51432,-5.25913 c 1.07061,-1.03581 1.94656,-1.97392 1.94656,-2.08468 0,-0.11076 -0.30972,-0.49234 -0.68826,-0.84797 l -0.68826,-0.64658 -2.02943,1.90573 c -1.11619,1.04814 -2.04479,2.02157 -2.06355,2.16316 -0.0441,0.3327 1.10973,1.56482 1.37443,1.46772 0.11108,-0.0407 1.07791,-0.92156 2.14851,-1.95738 z m 5.52422,-5.27171 2.0504,-2.06417 -0.73515,-0.73515 -0.73514,-0.73514 -2.01009,1.88668 c -1.10555,1.03767 -2.05432,1.99663 -2.10838,2.13103 -0.0993,0.24688 1.01682,1.58092 1.32266,1.58092 0.0909,0 1.08798,-0.92887 2.2157,-2.06417 z m 5.50361,-5.22843 2.0504,-2.06417 -0.72779,-0.72778 -0.72778,-0.72779 -2.08129,1.89762 c -1.14471,1.04369 -2.08352,2.01347 -2.08625,2.15506 -0.006,0.28655 1.09755,1.53123 1.35701,1.53123 0.0909,0 1.08798,-0.92887 2.2157,-2.06417 z m 5.47755,-5.17903 1.93934,-1.87718 -0.59578,-0.80583 c -0.32767,-0.44321 -0.64464,-0.80583 -0.70436,-0.80583 -0.0597,0 -1.07547,0.89453 -2.25721,1.98785 l -2.14863,1.98784 0.58908,0.75321 c 0.324,0.41427 0.73514,0.72709 0.91366,0.69517 0.17851,-0.0319 1.19727,-0.90278 2.2639,-1.93523 z m 5.52936,-5.14115 2.06385,-1.90352 -0.82554,-0.82715 -0.82554,-0.82715 -2.07606,2.03331 -2.07606,2.03331 0.51672,0.70935 c 0.2842,0.39014 0.66118,0.70395 0.83775,0.69736 0.17656,-0.007 1.24976,-0.86857 2.38488,-1.91551 z"
       id="path3"
       transform="matrix(0.26458333,0,0,0.26458333,-18.892803,7.1603024)" />
    <path
       style="fill:#babdb6;fill-opacity:1;stroke:#e2e5de;stroke-width:0;stroke-opacity:1"
       d="m 628.09957,284.86152 c -6.73557,-3.44715 -10.20175,-5.52016 -13.15316,-7.86646 -1.08998,-0.86651 -5.27565,-4.84887 -9.3015,-8.84969 -5.37439,-5.34098 -7.94119,-8.11526 -9.6581,-10.4388 -2.50233,-3.38646 -5.18568,-7.34202 -6.34698,-9.35614 l -0.71398,-1.23831 0.18663,-5.36296 0.18663,-5.36296 1.3477,1.71682 c 0.74124,0.94425 1.48423,1.71269 1.65109,1.70766 0.57906,-0.0175 1.58949,-1.06637 1.3755,-1.42786 -0.1145,-0.19341 -0.93555,-1.2479 -1.82456,-2.34331 -1.61183,-1.98605 -1.61831,-1.99038 -2.30426,-1.54092 l -0.68788,0.45071 0.0158,-1.21087 c 0.0164,-1.25574 -0.076,-2.11613 -1.23843,-11.53015 -1.48198,-12.00213 -5.29819,-35.13449 -7.69485,-46.6431 -2.41206,-11.58256 -10.50259,-47.65688 -11.00085,-49.05093 -0.0975,-0.27289 3.5314,-0.34398 17.55934,-0.34398 h 17.6823 l 14.24118,75.60586 c 7.83266,41.58321 14.23616,75.70308 14.23002,75.82191 -0.006,0.11884 -0.26944,0.0778 -0.58511,-0.0911 -0.31566,-0.16893 -0.6008,-0.26616 -0.63364,-0.21606 -0.50571,0.77138 -0.99387,1.61241 -0.99387,1.71229 0,0.0699 0.65817,0.50364 1.4626,0.9639 l 1.4626,0.83681 0.60126,3.28724 c 0.66659,3.6445 0.69149,3.88892 0.39486,3.877 -0.11351,-0.005 -2.93067,-1.40254 -6.26035,-3.10661 z m 1.49455,-7.59054 0.5689,-0.79894 -2.39274,-1.71151 -2.39274,-1.71151 -0.63404,0.73713 c -0.34873,0.40541 -0.63314,0.82309 -0.63203,0.92816 0.002,0.22783 4.37805,3.35562 4.69437,3.35562 0.12066,0 0.47539,-0.35953 0.78828,-0.79895 z m -6.09484,-4.40743 0.59405,-0.8035 -1.987,-1.6989 c -1.09285,-0.93439 -2.14208,-1.76258 -2.33162,-1.84041 -0.31872,-0.13087 -1.41405,0.90303 -1.4349,1.35443 -0.0105,0.22798 4.10987,3.79187 4.38398,3.79187 0.0998,0 0.44876,-0.36157 0.77549,-0.80349 z m -5.80551,-4.74809 c 0.35029,-0.32908 0.63689,-0.71499 0.63689,-0.85758 0,-0.30702 -3.78285,-4.0477 -4.09334,-4.0477 -0.11749,0 -0.5075,0.31282 -0.86669,0.69516 l -0.65307,0.69517 2.04292,2.05664 c 1.1236,1.13115 2.09994,2.05664 2.16965,2.05664 0.0697,0 0.41334,-0.26925 0.76364,-0.59833 z m -5.15498,-5.57931 0.63321,-0.67403 -2.0071,-2.22283 -2.0071,-2.22283 -0.77748,0.74488 c -0.74449,0.71327 -0.75758,0.76904 -0.30837,1.31457 0.87355,1.06086 3.49851,3.73427 3.66659,3.73427 0.0919,0 0.45198,-0.30331 0.80025,-0.67403 z m -4.75501,-6.73651 c -2.10097,-2.515 -3.33216,-3.87186 -3.51325,-3.87186 -0.12021,0 -0.53818,0.27862 -0.92881,0.61915 l -0.71024,0.61916 1.96125,2.29485 1.96125,2.29486 0.79539,-0.76203 c 0.67647,-0.6481 0.74141,-0.82663 0.43441,-1.19413 z m -5.20721,-4.68187 c 0.34054,-0.28409 0.61916,-0.59386 0.61916,-0.68839 0,-0.0945 -0.8137,-1.1554 -1.80823,-2.3575 l -1.80822,-2.18564 -0.80599,0.59589 c -0.4433,0.32775 -0.80599,0.64561 -0.80599,0.70637 0,0.29444 3.47559,4.46181 3.71493,4.45436 0.15135,-0.005 0.55381,-0.24101 0.89434,-0.52509 z m -4.71155,-5.89249 0.75396,-0.64853 -1.77054,-2.24028 c -0.9738,-1.23216 -1.90374,-2.24055 -2.06655,-2.24087 -0.1628,-3.2e-4 -0.56985,0.29091 -0.90454,0.64718 l -0.60854,0.64775 1.73009,2.23165 c 0.95154,1.2274 1.81605,2.23614 1.92113,2.24163 0.10507,0.006 0.53032,-0.28184 0.94499,-0.63853 z"
       id="path4"
       transform="matrix(0.26458333,0,0,0.26458333,-18.892803,7.1603024)" />
    <path
       style="fill:#babdb6;fill-opacity:1;stroke:#e2e5de;stroke-width:0;stroke-opacity:1"
       d="m 568.93862,123.365 c -0.3849,-1.0702 -1.68954,-6.27146 -2.89921,-11.55836 l -2.19939,-9.61255 15.01216,-13.226445 c 11.21059,-9.87709 15.15112,-12.567419 15.56095,-10.623985 0.30185,1.431353 2.4608,12.584518 4.79768,24.78481 l 4.24886,22.18235 h -16.91061 c -12.11748,0 -17.10897,-0.55152 -17.61044,-1.94582 z"
       id="path5"
       transform="matrix(0.26458333,0,0,0.26458333,-18.892803,7.1603024)" />
    <path
       style="fill:#babdb6;fill-opacity:1;stroke:#e2e5de;stroke-width:0;stroke-opacity:1"
       d="m 568.81881,126.31815 c -0.0239,-0.0724 -0.33367,-1.37947 -0.68848,-2.9045 -0.63021,-2.70875 -3.86198,-16.32212 -4.60625,-19.40318 -0.3062,-1.26761 -0.35673,-1.60812 -0.27712,-1.86753 0.0771,-0.25126 3.32473,-3.203657 15.61294,-14.193657 8.53357,-7.632021 15.54766,-13.840366 15.58688,-13.796322 0.0392,0.04404 2.24876,11.660142 4.91011,25.813552 2.66134,14.153407 4.86127,25.831977 4.88873,25.952377 l 0.0499,0.2189 -15.26091,0.003 c -14.0127,0.003 -19.55982,0.0703 -20.00303,0.2429 -0.10435,0.0406 -0.1861,0.0154 -0.21281,-0.0657 z m 34.67733,-1.01348 c 0,-0.1396 -6.99207,-36.536396 -8.28701,-43.137531 -0.69838,-3.560072 -0.81865,-4.060251 -1.02621,-4.267811 -0.20051,-0.200506 -0.29497,-0.226066 -0.6417,-0.173632 -1.24227,0.187861 -3.87293,1.989927 -8.33692,5.711011 -2.62553,2.188581 -4.14101,3.509281 -13.32774,11.614735 -3.17667,2.802774 -7.51522,6.618458 -7.81571,6.873788 l -0.27566,0.23423 1.03395,4.52208 c 2.04816,8.95789 3.3127,14.18444 3.90033,16.12069 0.27934,0.92046 0.51829,1.16493 1.45286,1.48647 1.50551,0.51797 5.32922,0.8993 10.07126,1.00438 2.38917,0.0529 23.25255,0.0633 23.25255,0.0116 z"
       id="path6"
       transform="matrix(0.26458333,0,0,0.26458333,-18.892803,7.1603024)" />
    <path
       style="fill:#babdb6;fill-opacity:1;stroke:#e2e5de;stroke-width:0;stroke-opacity:1"
       d="m 598.65307,71.557538 c -0.15309,-0.854288 -0.17359,-1.14576 -0.0867,-1.232666 0.40335,-0.403304 38.45609,-34.471328 38.49514,-34.4641 0.0267,0.005 0.42337,0.431809 0.88136,0.948571 0.458,0.516763 6.53261,7.299667 13.49913,15.073121 l 12.66641,14.133551 -0.002,0.995201 -0.002,0.9952 -0.41123,-0.439032 c -0.22618,-0.241468 -2.03113,-2.210956 -4.011,-4.376641 -11.13728,-12.182517 -21.0144,-22.72834 -22.18743,-23.689547 -0.44253,-0.362616 -0.46432,-0.369231 -0.80759,-0.245105 -1.38264,0.49997 -6.06723,4.12402 -11.49465,8.892386 -3.22926,2.837131 -5.65166,5.055661 -10.89258,9.975827 -5.4525,5.118803 -6.33107,5.94534 -7.25219,6.822673 -0.48159,0.458697 -2.27607,2.144667 -3.98774,3.746601 -1.71166,1.601933 -3.35823,3.153401 -3.65903,3.447706 l -0.54691,0.535101 z"
       id="path7"
       transform="matrix(0.26458333,0,0,0.26458333,-18.892803,7.1603024)" />
  </g>
  <g
     inkscape:label="Layer 1"
     inkscape:groupmode="layer"
     id="layer1"
     transform="translate(18.892803,-7.1603024)"
     style="display:inline">
    <path
       class="fabric sa"
       id="fs-3"
       d="M 1.150619,247.98289 C 30.196667,159.21189 40.511465,108.46615 43.705331,79.427142 45.530662,62.818857 45.01228,53.421738 44.365365,48.091286 l 2.195056,-2.785484 c 3.410778,-0.391214 6.322426,-0.543288 8.906386,-0.763128 0.246559,-0.02193 0.487552,-0.04302 0.729338,-0.06649 7.501841,-0.707146 11.812411,-2.650493 18.548461,-15.318815 l 6.50211,-12.226667 3.1489,-1.142397 45.153364,18.354265 c 0,0 3.33576,13.747835 4.89137,21.601346 1.48051,8.560528 1.88228,11.672116 2.03637,14.871843 -0.0944,2.660038 -0.27853,3.932877 -1.16481,6.641559 -0.49718,1.518144 -1.12766,3.092652 -1.90576,4.779302 -3.8651,7.873387 -8.76814,16.619796 -14.71501,27.88915 -2.41601,4.57816 -5.00759,9.57235 -7.77015,15.09716 -14.130314,28.2567 -32.769784,70.30232 -55.779754,140.6258 l -7.040694,13.47873 -49.238557,-16.11094 z"
       style="opacity:1;fill:#babdb6;fill-opacity:1;stroke:#888a85;stroke-width:1;stroke-linecap:round;stroke-linejoin:round;stroke-miterlimit:4;stroke-dasharray:none;stroke-dashoffset:0;stroke-opacity:1"
       sodipodi:nodetypes="ccccccccccccsccccccc" />
    <path
       style="fill:none;stroke:#888a85;stroke-width:0.5;stroke-linecap:butt;stroke-linejoin:miter;stroke-miterlimit:4;stroke-dasharray:1.5, 0.5;stroke-dashoffset:0;stroke-opacity:1"
       d="m 126.63672,32.955774 2.08252,9.187691"
       id="path933"
       sodipodi:nodetypes="cc" />
    <path
       style="fill:none;stroke:#888a85;stroke-width:0.5;stroke-linecap:butt;stroke-linejoin:miter;stroke-miterlimit:4;stroke-dasharray:1.5, 0.5;stroke-dashoffset:0;stroke-opacity:1"
       d="m 47.912801,279.02785 c 9.890801,-31.54048 20.076325,-62.70257 32.702495,-92.60423 11.68052,-27.74581 23.865014,-56.79598 38.617114,-83.40798 10.93592,-19.059634 17.30873,-26.905733 13.90683,-38.970859"
       id="path968"
       sodipodi:nodetypes="cccc" />
  </g>
</svg>
