<?xml version="1.0" encoding="UTF-8" standalone="no"?>
<!-- Created with Inkscape (http://www.inkscape.org/) -->

<svg
   xmlns:dc="http://purl.org/dc/elements/1.1/"
   xmlns:cc="http://creativecommons.org/ns#"
   xmlns:rdf="http://www.w3.org/1999/02/22-rdf-syntax-ns#"
   xmlns:svg="http://www.w3.org/2000/svg"
   xmlns="http://www.w3.org/2000/svg"
   xmlns:sodipodi="http://sodipodi.sourceforge.net/DTD/sodipodi-0.dtd"
   xmlns:inkscape="http://www.inkscape.org/namespaces/inkscape"
   version="1.1"
   width="912.652"
   height="580.001"
   id="svg4180"
   inkscape:version="0.47 r22583"
   sodipodi:docname="rollLineCollarHeight.svg">
  <metadata
     id="metadata17708">
    <rdf:RDF>
      <cc:Work
         rdf:about="">
        <dc:format>image/svg+xml</dc:format>
        <dc:type
           rdf:resource="http://purl.org/dc/dcmitype/StillImage" />
        <dc:title></dc:title>
      </cc:Work>
    </rdf:RDF>
  </metadata>
  <sodipodi:namedview
     pagecolor="#ffffff"
     bordercolor="#666666"
     borderopacity="1"
     objecttolerance="10"
     gridtolerance="10"
     guidetolerance="10"
     inkscape:pageopacity="0"
     inkscape:pageshadow="2"
     inkscape:window-width="1832"
     inkscape:window-height="1057"
     id="namedview17706"
     showgrid="false"
     inkscape:zoom="0.830769"
     inkscape:cx="292.047"
     inkscape:cy="255.164"
     inkscape:window-x="-8"
     inkscape:window-y="-8"
     inkscape:window-maximized="0"
     inkscape:current-layer="svg4180" />
  <defs
     id="defs4182">
    <inkscape:perspective
       sodipodi:type="inkscape:persp3d"
       inkscape:vp_x="0 : 325 : 1"
       inkscape:vp_y="0 : 1000 : 0"
       inkscape:vp_z="1000 : 325 : 1"
       inkscape:persp3d-origin="500 : 216.667 : 1"
       id="perspective17710" />
    <marker
       refX="0"
       refY="0"
       orient="auto"
       id="Arrow1Mend"
       style="overflow:visible">
      <path
         d="M 0,0 5,-5 -12.5,0 5,5 0,0 z"
         transform="matrix(-0.4,0,0,-0.4,-4,0)"
         id="path4844"
         style="fill-rule:evenodd;stroke:#000000;stroke-width:1pt;marker-start:none" />
    </marker>
    <marker
       refX="0"
       refY="0"
       orient="auto"
       id="Arrow1Mstart"
       style="overflow:visible">
      <path
         d="M 0,0 5,-5 -12.5,0 5,5 0,0 z"
         transform="matrix(0.4,0,0,0.4,4,0)"
         id="path4841"
         style="fill-rule:evenodd;stroke:#000000;stroke-width:1pt;marker-start:none" />
    </marker>
    <marker
       refX="0"
       refY="0"
       orient="auto"
       id="Arrow1Mstartz"
       style="overflow:visible">
      <path
         d="M 0,0 5,-5 -12.5,0 5,5 0,0 z"
         transform="matrix(0.4,0,0,0.4,4,0)"
         id="path5479"
         style="fill:#ff5b77;fill-rule:evenodd;stroke:#ff5b77;stroke-width:1pt;marker-start:none" />
    </marker>
    <marker
       refX="0"
       refY="0"
       orient="auto"
       id="Arrow1Mends"
       style="overflow:visible">
      <path
         d="M 0,0 5,-5 -12.5,0 5,5 0,0 z"
         transform="matrix(-0.4,0,0,-0.4,-4,0)"
         id="path5482"
         style="fill:#ff5b77;fill-rule:evenodd;stroke:#ff5b77;stroke-width:1pt;marker-start:none" />
    </marker>
    <marker
       refX="0"
       refY="0"
       orient="auto"
       id="Arrow1Mstartz-9"
       style="overflow:visible">
      <path
         d="M 0,0 5,-5 -12.5,0 5,5 0,0 z"
         transform="matrix(0.4,0,0,0.4,4,0)"
         id="path5479-7"
         style="fill:#ff5b77;fill-rule:evenodd;stroke:#ff5b77;stroke-width:1pt;marker-start:none" />
    </marker>
    <marker
       refX="0"
       refY="0"
       orient="auto"
       id="Arrow1Mends-9"
       style="overflow:visible">
      <path
         d="M 0,0 5,-5 -12.5,0 5,5 0,0 z"
         transform="matrix(-0.4,0,0,-0.4,-4,0)"
         id="path5482-4"
         style="fill:#ff5b77;fill-rule:evenodd;stroke:#ff5b77;stroke-width:1pt;marker-start:none" />
    </marker>
    <inkscape:perspective
       id="perspective17316"
       inkscape:persp3d-origin="0.5 : 0.333333 : 1"
       inkscape:vp_z="1 : 0.5 : 1"
       inkscape:vp_y="0 : 1000 : 0"
       inkscape:vp_x="0 : 0.5 : 1"
       sodipodi:type="inkscape:persp3d" />
  </defs>
  <rect
     width="103.376"
     height="543.611"
     x="166.827"
     y="25.2976"
     id="rect3775"
     style="fill:#8e8e8e;stroke:#545454;stroke-width:2.61989;stroke-linecap:round;stroke-linejoin:round;stroke-miterlimit:4;stroke-opacity:1;stroke-dasharray:none;stroke-dashoffset:0" />
  <path
     d="M 215.032,26.7804 215.032,567.887"
     id="path3777"
     style="fill:#212121;fill-opacity:1;stroke:#545454;stroke-width:1.309945;stroke-linecap:round;stroke-linejoin:round;stroke-miterlimit:4;stroke-opacity:1;stroke-dasharray:none;stroke-dashoffset:0" />
  <path
     style="fill:#212121;fill-opacity:1;stroke:#545454;stroke-width:2.61989;stroke-linecap:round;stroke-linejoin:round;stroke-miterlimit:4;stroke-opacity:1;stroke-dasharray:none;stroke-dashoffset:0"
     id="path3781"
     d="M 143.442,35.1117 67.6538,64.8183 C 87.6668,115.165 93.5168,171.597 86.1318,204.469 93.9618,228.446 96.7968,283.867 97.1248,324.701 97.7878,406.738 81.4548,577.334 81.4548,577.334 81.4548,577.334 152.562,578.021 175.779,578.681 208.37,579.611 213.618,514.543 213.618,460.841 213.618,460.841 215.57,369.32 208.122,311.989 188.53,308.033 143.442,35.1117 143.442,35.1117 z" />
  <path
     style="fill:#212121;fill-opacity:1;stroke:#545454;stroke-width:2.61989;stroke-linecap:round;stroke-linejoin:round;stroke-miterlimit:4;stroke-opacity:1;stroke-dasharray:none;stroke-dashoffset:0"
     id="path3783"
     d="M 68.1358,64.7613 C 56.4297,66.1963 51.2057,102.744 39.5629,154.618 16.7594,256.238 16.5603,425.284 3.09144,527.509 L 56.6734,533.357 C 68.3848,428.684 82.1098,323.179 89.7468,220.133 88.9948,215.21 87.4968,209.774 86.1498,204.644 92.7888,174.199 88.7248,117.379 68.1358,64.7613 z" />
  <path
     style="fill:#212121;stroke:#545454;stroke-width:2.61989;stroke-linecap:round;stroke-linejoin:round;stroke-miterlimit:4;stroke-opacity:1;stroke-dasharray:none;stroke-dashoffset:0"
     id="path3793"
     d="M 143.442,35.1117 67.6538,64.8183 C 87.6668,115.165 93.5168,171.597 86.1318,204.469 93.9618,228.446 96.7968,283.867 97.1248,324.701 97.7878,406.738 81.4548,577.334 81.4548,577.334 81.4548,577.334 152.562,578.021 175.779,578.681 208.37,579.611 213.618,514.543 213.618,460.841 213.618,460.841 214.907,366.011 207.459,308.68 187.867,304.724 143.442,35.1117 143.442,35.1117 z" />
  <path
     style="fill:#212121;fill-opacity:1;stroke:#545454;stroke-width:2.61989;stroke-linecap:round;stroke-linejoin:round;stroke-miterlimit:4;stroke-opacity:1;stroke-dasharray:none;stroke-dashoffset:0"
     id="path3795"
     d="M 170.791,63.4483 128.239,95.4613 C 158.627,160.609 179.698,277.718 213.223,323.273 201.834,285.882 196.812,206.465 188.603,162.097 182.512,129.173 171.778,98.5603 170.791,63.4483 z" />
  <path
     style="fill:#212121;fill-opacity:1;stroke:#545454;stroke-width:2.61989;stroke-linecap:round;stroke-linejoin:round;stroke-miterlimit:4;stroke-opacity:1;stroke-dasharray:none;stroke-dashoffset:0"
     id="path3797"
     d="M 174.553,8.44384 C 152.069,24.3413 130.672,41.1296 126.368,71.9633 L 153.159,76.8593 170.725,63.6473 C 167.935,41.1793 172.266,25.8347 174.553,8.44384 z" />
  <path
     d="M 286.584,35.1117 362.372,64.8183 C 342.359,115.165 336.509,171.597 343.894,204.469 336.064,228.446 333.229,283.867 332.901,324.701 332.238,406.738 348.571,577.334 348.571,577.334 348.571,577.334 277.464,578.021 254.247,578.681 198.383,557.918 204.39,369.669 209.169,315.793 228.761,311.837 286.584,35.1117 286.584,35.1117 z"
     id="path3809"
     style="fill:#212121;fill-opacity:1;stroke:#545454;stroke-width:2.61989;stroke-linecap:round;stroke-linejoin:round;stroke-miterlimit:4;stroke-opacity:1;stroke-dasharray:none;stroke-dashoffset:0" />
  <path
     d="M 361.89,64.7613 C 373.596,66.1963 378.82,102.744 390.463,154.618 413.266,256.238 413.466,425.284 426.934,527.509 L 373.352,533.357 C 361.641,428.684 347.916,323.179 340.279,220.133 341.031,215.21 342.529,209.774 343.876,204.644 337.237,174.199 341.301,117.379 361.89,64.7613 z"
     id="path3811"
     style="fill:#212121;fill-opacity:1;stroke:#545454;stroke-width:2.61989;stroke-linecap:round;stroke-linejoin:round;stroke-miterlimit:4;stroke-opacity:1;stroke-dasharray:none;stroke-dashoffset:0" />
  <path
     d="M 286.584,35.1117 362.372,64.8183 C 342.359,115.165 336.509,171.597 343.894,204.469 336.064,228.446 333.229,283.867 332.901,324.701 332.238,406.738 348.571,577.334 348.571,577.334 348.571,577.334 277.464,578.021 254.247,578.681 198.383,557.918 204.39,369.669 209.169,315.793 228.761,311.837 286.584,35.1117 286.584,35.1117 z"
     id="path6109"
     style="fill:#212121;stroke:#545454;stroke-width:2.61989;stroke-linecap:round;stroke-linejoin:round;stroke-miterlimit:4;stroke-opacity:1;stroke-dasharray:none;stroke-dashoffset:0" />
  <rect
     width="62.8879"
     height="15.2513"
     x="236.274"
     y="202.59"
     transform="matrix(0.99561,-0.093602,0.093602,0.99561,0,0)"
     id="rect3813"
     style="fill:#212121;fill-opacity:0.301653;stroke:#545454;stroke-width:2.585929;stroke-linecap:round;stroke-linejoin:round;stroke-miterlimit:4;stroke-opacity:1;stroke-dasharray:none;stroke-dashoffset:0" />
  <path
     d="M 258.787,63.6423 301.787,95.4613 C 271.399,160.609 242.059,272.754 208.535,318.308 219.924,280.917 233.214,206.465 241.423,162.097 247.514,129.173 257.8,98.7543 258.787,63.6423 z"
     id="path3825"
     style="fill:#212121;fill-opacity:1;stroke:#545454;stroke-width:2.61989;stroke-linecap:round;stroke-linejoin:round;stroke-miterlimit:4;stroke-opacity:1;stroke-dasharray:none;stroke-dashoffset:0" />
  <path
     d="M 255.473,8.44384 C 277.957,24.3413 299.354,41.1296 303.658,71.9633 L 276.867,76.8593 258.787,63.0683 C 261.226,40.5113 256.676,26.1438 255.473,8.44384 z"
     id="path3827"
     style="fill:#212121;fill-opacity:1;stroke:#545454;stroke-width:2.61989;stroke-linecap:round;stroke-linejoin:round;stroke-miterlimit:4;stroke-opacity:1;stroke-dasharray:none;stroke-dashoffset:0" />
  <path
     d="M 170.707,33.7074 C 199.077,25.0618 232.913,25.1666 258.787,33.9878 L 255.706,8.67704 C 247.359,4.31234 234.393,1.30994 215.588,1.30994 199.127,1.30994 181.867,4.51924 174.301,8.65084 L 170.707,33.7074 z"
     id="path3841"
     style="fill:#212121;fill-opacity:1;stroke:#545454;stroke-width:2.61989;stroke-linecap:round;stroke-linejoin:round;stroke-miterlimit:4;stroke-opacity:1;stroke-dasharray:none;stroke-dashoffset:0" />
  <rect
     style="fill:#8e8e8e;stroke:#545454;stroke-width:2.61989;stroke-linecap:round;stroke-linejoin:round;stroke-miterlimit:4;stroke-opacity:1;stroke-dasharray:none;stroke-dashoffset:0"
     id="rect9541"
     y="25.2976"
     x="649.453"
     height="543.611"
     width="103.376" />
  <path
     style="fill:#212121;fill-opacity:1;stroke:#545454;stroke-width:1.309945;stroke-linecap:round;stroke-linejoin:round;stroke-miterlimit:4;stroke-opacity:1;stroke-dasharray:none;stroke-dashoffset:0"
     id="path9543"
     d="M 697.658,26.7804 697.658,567.887" />
  <path
     style="fill:#212121;fill-opacity:1;stroke:#545454;stroke-width:2.61989;stroke-linecap:round;stroke-linejoin:round;stroke-miterlimit:4;stroke-opacity:1;stroke-dasharray:none;stroke-dashoffset:0"
     id="path9547"
     d="M 626.065,35.1117 550.277,64.8183 C 570.29,115.165 576.14,171.597 568.755,204.469 576.585,228.446 579.42,283.867 579.748,324.701 580.411,406.738 564.078,577.334 564.078,577.334 564.078,577.334 635.185,578.021 658.402,578.681 690.993,579.611 696.241,514.543 696.241,460.841 696.241,460.841 698.193,369.32 690.745,311.989 671.153,308.033 626.065,35.1117 626.065,35.1117 z" />
  <path
     style="fill:#212121;fill-opacity:1;stroke:#545454;stroke-width:2.61989;stroke-linecap:round;stroke-linejoin:round;stroke-miterlimit:4;stroke-opacity:1;stroke-dasharray:none;stroke-dashoffset:0"
     id="path9549"
     d="M 550.759,64.7613 C 539.053,66.1963 533.829,102.744 522.186,154.618 499.383,256.238 499.183,425.284 485.715,527.509 L 539.297,533.357 C 551.007,428.684 564.733,323.179 572.37,220.133 571.618,215.21 570.12,209.774 568.773,204.644 575.412,174.199 571.348,117.379 550.759,64.7613 z" />
  <path
     style="fill:#212121;stroke:#545454;stroke-width:2.61989;stroke-linecap:round;stroke-linejoin:round;stroke-miterlimit:4;stroke-opacity:1;stroke-dasharray:none;stroke-dashoffset:0"
     id="path9559"
     d="M 626.065,35.1117 550.277,64.8183 C 570.29,115.165 576.14,171.597 568.755,204.469 576.585,228.446 579.42,283.867 579.748,324.701 580.411,406.738 564.078,577.334 564.078,577.334 564.078,577.334 635.185,578.021 658.402,578.681 690.993,579.611 696.241,514.543 696.241,460.841 696.241,460.841 697.53,366.011 690.082,308.68 670.49,304.724 626.065,35.1117 626.065,35.1117 z" />
  <path
     style="fill:#212121;fill-opacity:1;stroke:#545454;stroke-width:2.61989;stroke-linecap:round;stroke-linejoin:round;stroke-miterlimit:4;stroke-opacity:1;stroke-dasharray:none;stroke-dashoffset:0"
     id="path9561"
     d="M 658.483,60.0473 610.861,95.4613 C 641.25,160.609 662.321,277.718 695.845,323.273 684.457,285.882 679.434,206.465 671.226,162.097 665.135,129.173 659.471,95.1593 658.483,60.0473 z" />
  <path
     style="fill:#212121;fill-opacity:1;stroke:#545454;stroke-width:2.61989;stroke-linecap:round;stroke-linejoin:round;stroke-miterlimit:4;stroke-opacity:1;stroke-dasharray:none;stroke-dashoffset:0"
     id="path9573"
     d="M 769.21,35.1117 844.998,64.8183 C 824.985,115.165 819.135,171.597 826.52,204.469 818.69,228.446 815.855,283.867 815.527,324.701 814.864,406.738 831.197,577.334 831.197,577.334 831.197,577.334 760.09,578.021 736.873,578.681 681.009,557.918 687.016,369.669 691.795,315.793 711.387,311.837 769.21,35.1117 769.21,35.1117 z" />
  <path
     style="fill:#212121;fill-opacity:1;stroke:#545454;stroke-width:2.61989;stroke-linecap:round;stroke-linejoin:round;stroke-miterlimit:4;stroke-opacity:1;stroke-dasharray:none;stroke-dashoffset:0"
     id="path9575"
     d="M 844.516,64.7613 C 856.222,66.1963 861.446,102.744 873.089,154.618 895.892,256.238 896.092,425.284 909.56,527.509 L 855.978,533.357 C 844.267,428.684 830.542,323.179 822.905,220.133 823.657,215.21 825.155,209.774 826.502,204.644 819.863,174.199 823.927,117.379 844.516,64.7613 z" />
  <path
     style="fill:#212121;stroke:#545454;stroke-width:2.61989;stroke-linecap:round;stroke-linejoin:round;stroke-miterlimit:4;stroke-opacity:1;stroke-dasharray:none;stroke-dashoffset:0"
     id="path9587"
     d="M 769.21,35.1117 844.998,64.8183 C 824.985,115.165 819.135,171.597 826.52,204.469 818.69,228.446 815.855,283.867 815.527,324.701 814.864,406.738 831.197,577.334 831.197,577.334 831.197,577.334 760.09,578.021 736.873,578.681 681.009,557.918 687.016,369.669 691.795,315.793 711.387,311.837 769.21,35.1117 769.21,35.1117 z" />
  <rect
     style="fill:#212121;fill-opacity:0.301653;stroke:#545454;stroke-width:2.585929;stroke-linecap:round;stroke-linejoin:round;stroke-miterlimit:4;stroke-opacity:1;stroke-dasharray:none;stroke-dashoffset:0"
     id="rect9577"
     transform="matrix(0.99561,-0.093602,0.093602,0.99561,0,0)"
     y="247.764"
     x="716.781"
     height="15.2513"
     width="62.8879" />
  <path
     style="fill:#212121;fill-opacity:1;stroke:#545454;stroke-width:2.61989;stroke-linecap:round;stroke-linejoin:round;stroke-miterlimit:4;stroke-opacity:1;stroke-dasharray:none;stroke-dashoffset:0"
     id="path9589"
     d="M 736.278,60.5613 784.413,95.4613 C 754.025,160.609 724.685,272.754 691.161,318.308 702.55,280.917 715.84,206.465 724.049,162.097 730.14,129.173 735.291,95.6733 736.278,60.5613 z" />
  <path
     style="fill:#212121;fill-opacity:1;stroke:#545454;stroke-width:2.61989;stroke-linecap:round;stroke-linejoin:round;stroke-miterlimit:4;stroke-opacity:1;stroke-dasharray:none;stroke-dashoffset:0"
     id="path9605"
     d="M 656.927,33.7074 C 685.298,25.0618 712.458,24.6531 738.332,33.4743 L 736.857,9.57564 C 735.406,8.72944 734.919,7.03434 732.943,6.30084 724.732,3.25914 713.37,1.30994 698.214,1.30994 684.373,1.30994 669.969,3.57874 661.234,6.75664 659.581,7.35924 658.837,9.08314 657.632,9.74074 L 656.927,33.7074 z" />
  <path
     style="fill:#212121;fill-opacity:1;stroke:#545454;stroke-width:2.61989;stroke-linecap:round;stroke-linejoin:round;stroke-miterlimit:4;stroke-opacity:1;stroke-dasharray:none;stroke-dashoffset:0"
     id="path9591"
     d="M 733.478,6.13314 C 762.881,22.5257 784.078,41.2789 786.284,71.9633 L 759.493,76.8593 736.278,60.5663 C 736.752,42.6701 739.647,25.3605 733.478,6.13314 z" />
  <path
     style="fill:#212121;fill-opacity:1;stroke:#545454;stroke-width:2.61989;stroke-linecap:round;stroke-linejoin:round;stroke-miterlimit:4;stroke-opacity:1;stroke-dasharray:none;stroke-dashoffset:0"
     id="path9758"
     d="M 661.454,6.51824 C 632.051,22.9109 610.662,41.2789 608.456,71.9633 L 635.247,76.8593 658.462,60.5663 C 657.988,42.6701 655.284,25.7456 661.454,6.51824 z" />
  <path
     style="fill:#212121;fill-opacity:0.301653;stroke:#545454;stroke-width:1.309945;stroke-linecap:round;stroke-linejoin:round;stroke-miterlimit:4;stroke-opacity:1;stroke-dasharray:none;stroke-dashoffset:0"
     id="path3785"
     d="M 132.561,253.372 C 136.47,300.441 135.692,346.339 132.561,391.65" />
  <path
     style="fill:#212121;fill-opacity:0.301653;stroke:#545454;stroke-width:1.309945;stroke-linecap:round;stroke-linejoin:round;stroke-miterlimit:4;stroke-opacity:1;stroke-dasharray:none;stroke-dashoffset:0"
     id="path3787"
     d="M 86.9098,207.057 49.5263,532.246" />
  <path
     style="fill:#212121;stroke:#545454;stroke-width:1.309945;stroke-linecap:round;stroke-linejoin:round;stroke-miterlimit:4;stroke-opacity:1;stroke-dasharray:none;stroke-dashoffset:0"
     id="path3789"
     d="M 89.5558,187.872 C 119.771,315.141 104.075,446.238 93.5248,576.905" />
  <path
     style="fill:#212121;fill-opacity:1;stroke:#545454;stroke-width:2.61989;stroke-linecap:round;stroke-linejoin:round;stroke-miterlimit:4;stroke-opacity:1;stroke-dashoffset:0"
     id="path3791"
     d="M 90.3838,481.176 128.419,481.176 C 137.128,481.176 144.139,474.166 144.139,465.457 L 144.139,386.027 95.5108,386.027" />
  <path
     style="fill:#212121;stroke:#545454;stroke-width:2.61989;stroke-linecap:round;stroke-linejoin:round;stroke-miterlimit:4;stroke-opacity:1;stroke-dasharray:none;stroke-dashoffset:0"
     id="path3799"
     d="M 5.21884,484.129 3.30104,491.119" />
  <path
     style="fill:#212121;stroke:#545454;stroke-width:2.61989;stroke-linecap:round;stroke-linejoin:round;stroke-miterlimit:4;stroke-opacity:1;stroke-dasharray:none;stroke-dashoffset:0"
     id="path3801"
     d="M 4.74984,492.9 2.83204,499.89" />
  <path
     style="fill:#212121;stroke:#545454;stroke-width:2.61989;stroke-linecap:round;stroke-linejoin:round;stroke-miterlimit:4;stroke-opacity:1;stroke-dasharray:none;stroke-dashoffset:0"
     id="path3803"
     d="M 4.04774,501.672 2.12994,508.662" />
  <path
     style="fill:#212121;stroke:#545454;stroke-width:2.61989;stroke-linecap:round;stroke-linejoin:round;stroke-miterlimit:4;stroke-opacity:1;stroke-dasharray:none;stroke-dashoffset:0"
     id="path3805"
     d="M 3.22764,510.328 1.30994,517.318" />
  <path
     d="M 297.465,253.372 C 293.556,300.441 294.334,346.339 297.465,391.65"
     id="path3815"
     style="fill:#212121;fill-opacity:0.301653;stroke:#545454;stroke-width:1.309945;stroke-linecap:round;stroke-linejoin:round;stroke-miterlimit:4;stroke-opacity:1;stroke-dasharray:none;stroke-dashoffset:0" />
  <path
     d="M 343.116,207.057 380.499,532.246"
     id="path3817"
     style="fill:#212121;fill-opacity:0.301653;stroke:#545454;stroke-width:1.309945;stroke-linecap:round;stroke-linejoin:round;stroke-miterlimit:4;stroke-opacity:1;stroke-dasharray:none;stroke-dashoffset:0" />
  <path
     d="M 340.47,187.872 C 310.255,315.141 325.951,446.238 336.501,576.905"
     id="path3819"
     style="fill:#212121;stroke:#545454;stroke-width:1.309945;stroke-linecap:round;stroke-linejoin:round;stroke-miterlimit:4;stroke-opacity:1;stroke-dasharray:none;stroke-dashoffset:0" />
  <path
     d="M 339.642,481.176 301.607,481.176 C 292.898,481.176 285.887,474.166 285.887,465.457 L 285.887,386.027 334.515,386.027"
     id="path3821"
     style="fill:#212121;fill-opacity:1;stroke:#545454;stroke-width:2.61989;stroke-linecap:round;stroke-linejoin:round;stroke-miterlimit:4;stroke-opacity:1;stroke-dashoffset:0" />
  <path
     d="M 424.807,484.129 426.725,491.119"
     id="path3829"
     style="fill:#212121;stroke:#545454;stroke-width:2.61989;stroke-linecap:round;stroke-linejoin:round;stroke-miterlimit:4;stroke-opacity:1;stroke-dasharray:none;stroke-dashoffset:0" />
  <path
     d="M 425.276,492.9 427.194,499.89"
     id="path3831"
     style="fill:#212121;stroke:#545454;stroke-width:2.61989;stroke-linecap:round;stroke-linejoin:round;stroke-miterlimit:4;stroke-opacity:1;stroke-dasharray:none;stroke-dashoffset:0" />
  <path
     d="M 425.978,501.672 427.896,508.662"
     id="path3833"
     style="fill:#212121;stroke:#545454;stroke-width:2.61989;stroke-linecap:round;stroke-linejoin:round;stroke-miterlimit:4;stroke-opacity:1;stroke-dasharray:none;stroke-dashoffset:0" />
  <path
     d="M 426.798,510.328 428.716,517.318"
     id="path3835"
     style="fill:#212121;stroke:#545454;stroke-width:2.61989;stroke-linecap:round;stroke-linejoin:round;stroke-miterlimit:4;stroke-opacity:1;stroke-dasharray:none;stroke-dashoffset:0" />
  <path
     d="M 222.97,321.514 A 5.14622,5.14622 0 1 1 212.68,321.514 5.14622,5.14622 0 1 1 222.97,321.514 z"
     id="path3837"
     style="fill:#212121;stroke:#545454;stroke-width:2.61989;stroke-linecap:round;stroke-linejoin:round;stroke-miterlimit:4;stroke-opacity:1;stroke-dasharray:none;stroke-dashoffset:0" />
  <path
     d="M 212.737,397.979 226.306,397.979"
     id="path3839"
     style="fill:#212121;stroke:#545454;stroke-width:2.61989;stroke-linecap:round;stroke-linejoin:round;stroke-miterlimit:4;stroke-opacity:1;stroke-dasharray:none;stroke-dashoffset:0" />
  <path
     style="fill:#212121;fill-opacity:0.301653;stroke:#545454;stroke-width:1.309945;stroke-linecap:round;stroke-linejoin:round;stroke-miterlimit:4;stroke-opacity:1;stroke-dasharray:none;stroke-dashoffset:0"
     id="path9551"
     d="M 615.184,253.372 C 619.093,300.441 618.315,346.339 615.184,391.65" />
  <path
     style="fill:#212121;fill-opacity:0.301653;stroke:#545454;stroke-width:1.309945;stroke-linecap:round;stroke-linejoin:round;stroke-miterlimit:4;stroke-opacity:1;stroke-dasharray:none;stroke-dashoffset:0"
     id="path9553"
     d="M 569.533,207.057 532.15,532.246" />
  <path
     style="fill:#212121;stroke:#545454;stroke-width:1.309945;stroke-linecap:round;stroke-linejoin:round;stroke-miterlimit:4;stroke-opacity:1;stroke-dasharray:none;stroke-dashoffset:0"
     id="path9555"
     d="M 572.179,187.872 C 602.394,315.141 586.698,446.238 576.148,576.905" />
  <path
     style="fill:#212121;fill-opacity:1;stroke:#545454;stroke-width:2.61989;stroke-linecap:round;stroke-linejoin:round;stroke-miterlimit:4;stroke-opacity:1;stroke-dashoffset:0"
     id="path9557"
     d="M 573.007,481.176 611.042,481.176 C 619.751,481.176 626.762,474.166 626.762,465.457 L 626.762,386.027 578.134,386.027" />
  <path
     style="fill:#212121;stroke:#545454;stroke-width:2.61989;stroke-linecap:round;stroke-linejoin:round;stroke-miterlimit:4;stroke-opacity:1;stroke-dasharray:none;stroke-dashoffset:0"
     id="path9565"
     d="M 487.842,484.129 485.924,491.119" />
  <path
     style="fill:#212121;stroke:#545454;stroke-width:2.61989;stroke-linecap:round;stroke-linejoin:round;stroke-miterlimit:4;stroke-opacity:1;stroke-dasharray:none;stroke-dashoffset:0"
     id="path9567"
     d="M 487.373,492.9 485.455,499.89" />
  <path
     style="fill:#212121;stroke:#545454;stroke-width:2.61989;stroke-linecap:round;stroke-linejoin:round;stroke-miterlimit:4;stroke-opacity:1;stroke-dasharray:none;stroke-dashoffset:0"
     id="path9569"
     d="M 486.671,501.672 484.753,508.662" />
  <path
     style="fill:#212121;stroke:#545454;stroke-width:2.61989;stroke-linecap:round;stroke-linejoin:round;stroke-miterlimit:4;stroke-opacity:1;stroke-dasharray:none;stroke-dashoffset:0"
     id="path9571"
     d="M 485.851,510.328 483.933,517.318" />
  <path
     style="fill:#212121;fill-opacity:0.301653;stroke:#545454;stroke-width:1.309945;stroke-linecap:round;stroke-linejoin:round;stroke-miterlimit:4;stroke-opacity:1;stroke-dasharray:none;stroke-dashoffset:0"
     id="path9579"
     d="M 780.091,253.372 C 776.182,300.441 776.96,346.339 780.091,391.65" />
  <path
     style="fill:#212121;fill-opacity:0.301653;stroke:#545454;stroke-width:1.309945;stroke-linecap:round;stroke-linejoin:round;stroke-miterlimit:4;stroke-opacity:1;stroke-dasharray:none;stroke-dashoffset:0"
     id="path9581"
     d="M 825.742,207.057 863.125,532.246" />
  <path
     style="fill:#212121;stroke:#545454;stroke-width:1.309945;stroke-linecap:round;stroke-linejoin:round;stroke-miterlimit:4;stroke-opacity:1;stroke-dasharray:none;stroke-dashoffset:0"
     id="path9583"
     d="M 823.096,187.872 C 792.881,315.141 808.577,446.238 819.127,576.905" />
  <path
     style="fill:#212121;fill-opacity:1;stroke:#545454;stroke-width:2.61989;stroke-linecap:round;stroke-linejoin:round;stroke-miterlimit:4;stroke-opacity:1;stroke-dashoffset:0"
     id="path9585"
     d="M 822.268,481.176 784.233,481.176 C 775.524,481.176 768.513,474.166 768.513,465.457 L 768.513,386.027 817.141,386.027" />
  <path
     style="fill:#212121;stroke:#545454;stroke-width:2.61989;stroke-linecap:round;stroke-linejoin:round;stroke-miterlimit:4;stroke-opacity:1;stroke-dasharray:none;stroke-dashoffset:0"
     id="path9593"
     d="M 907.433,484.129 909.351,491.119" />
  <path
     style="fill:#212121;stroke:#545454;stroke-width:2.61989;stroke-linecap:round;stroke-linejoin:round;stroke-miterlimit:4;stroke-opacity:1;stroke-dasharray:none;stroke-dashoffset:0"
     id="path9595"
     d="M 907.902,492.9 909.82,499.89" />
  <path
     style="fill:#212121;stroke:#545454;stroke-width:2.61989;stroke-linecap:round;stroke-linejoin:round;stroke-miterlimit:4;stroke-opacity:1;stroke-dasharray:none;stroke-dashoffset:0"
     id="path9597"
     d="M 908.604,501.672 910.522,508.662" />
  <path
     style="fill:#212121;stroke:#545454;stroke-width:2.61989;stroke-linecap:round;stroke-linejoin:round;stroke-miterlimit:4;stroke-opacity:1;stroke-dasharray:none;stroke-dashoffset:0"
     id="path9599"
     d="M 909.424,510.328 911.342,517.318" />
  <path
     style="fill:#212121;stroke:#545454;stroke-width:2.61989;stroke-linecap:round;stroke-linejoin:round;stroke-miterlimit:4;stroke-opacity:1;stroke-dasharray:none;stroke-dashoffset:0"
     id="path9601"
     d="M 705.598,321.514 A 5.14622,5.14622 0 1 1 695.308,321.514 5.14622,5.14622 0 1 1 705.598,321.514 z" />
  <path
     style="fill:#212121;stroke:#545454;stroke-width:2.61989;stroke-linecap:round;stroke-linejoin:round;stroke-miterlimit:4;stroke-opacity:1;stroke-dasharray:none;stroke-dashoffset:0"
     id="path9603"
     d="M 695.363,397.979 708.932,397.979" />
  <path
     style="fill:none;stroke:#ff5b77;stroke-width:2.440242;stroke-linecap:square;stroke-linejoin:round;stroke-miterlimit:4;stroke-opacity:1;stroke-dashoffset:0"
     d="M 687.245,44.2164 C 687.245,24.9634 694.719,9.35544 713.975,9.35544 733.225,9.35544 747.674,20.3154 747.674,39.5684 747.674,58.8204 733.225,75.5903 713.975,75.5903 699.715,75.5903 686.898,66.9123 681.604,53.6764"
     id="path9144"
     sodipodi:nodetypes="csssc" />
  <path
     sodipodi:nodetypes="csssc"
     id="path9147"
     d="M 211.768,30.1274 C 220.531,12.9844 234.29,2.48844 251.435,11.2534 268.576,20.0144 276.454,36.3504 267.691,53.4934 258.928,70.6363 238.429,78.9913 221.288,70.2293 208.591,63.7393 201.128,50.1784 202.439,35.9834"
     style="fill:none;stroke:#ff5b77;stroke-width:2.440242;stroke-linecap:square;stroke-linejoin:round;stroke-miterlimit:4;stroke-opacity:1;stroke-dashoffset:0" />
</svg>
