<?xml version="1.0" encoding="UTF-8" standalone="no"?>
<svg
   xmlns:dc="http://purl.org/dc/elements/1.1/"
   xmlns:cc="http://creativecommons.org/ns#"
   xmlns:rdf="http://www.w3.org/1999/02/22-rdf-syntax-ns#"
   xmlns:svg="http://www.w3.org/2000/svg"
   xmlns="http://www.w3.org/2000/svg"
   id="svg6842"
   version="1.1"
   viewBox="0 0 266.06067 143.14335"
   height="143.14336mm"
   width="266.06067mm">
  <defs
     id="defs6836" />
  <metadata
     id="metadata6839">
    <rdf:RDF>
      <cc:Work
         rdf:about="">
        <dc:format>image/svg+xml</dc:format>
        <dc:type
           rdf:resource="http://purl.org/dc/dcmitype/StillImage" />
        <dc:title></dc:title>
      </cc:Work>
    </rdf:RDF>
  </metadata>
  <path
     style="color:#000000;font-style:normal;font-variant:normal;font-weight:normal;font-stretch:normal;font-size:medium;line-height:normal;font-family:sans-serif;font-variant-ligatures:normal;font-variant-position:normal;font-variant-caps:normal;font-variant-numeric:normal;font-variant-alternates:normal;font-feature-settings:normal;text-indent:0;text-align:start;text-decoration:none;text-decoration-line:none;text-decoration-style:solid;text-decoration-color:#000000;letter-spacing:normal;word-spacing:normal;text-transform:none;writing-mode:lr-tb;direction:ltr;text-orientation:mixed;dominant-baseline:auto;baseline-shift:baseline;text-anchor:start;white-space:normal;shape-padding:0;clip-rule:nonzero;display:inline;overflow:visible;visibility:visible;opacity:1;isolation:auto;mix-blend-mode:normal;color-interpolation:sRGB;color-interpolation-filters:linearRGB;solid-color:#000000;solid-opacity:1;vector-effect:none;fill:#000000;fill-opacity:1;fill-rule:nonzero;stroke:#000000;stroke-width:1.00012493;stroke-linecap:butt;stroke-linejoin:miter;stroke-miterlimit:4;stroke-dasharray:none;stroke-dashoffset:0;stroke-opacity:1;color-rendering:auto;image-rendering:auto;shape-rendering:auto;text-rendering:auto;enable-background:accumulate"
     d="m 12.621139,39.678372 c -72.77841,0 -112.404039,7.787747 -154.181639,14.208984 -41.77759,6.421237 -85.89751,11.550159 -169.40234,6.517578 l -0.63672,10.564453 c 84.16423,5.072321 129.5922,-0.157329 171.64649,-6.621093 42.05428,-6.463765 80.546699,-14.085938 152.574209,-14.085938 z"
     id="path2022" />
  <path
     style="color:#000000;font-style:normal;font-variant:normal;font-weight:normal;font-stretch:normal;font-size:medium;line-height:normal;font-family:sans-serif;font-variant-ligatures:normal;font-variant-position:normal;font-variant-caps:normal;font-variant-numeric:normal;font-variant-alternates:normal;font-feature-settings:normal;text-indent:0;text-align:start;text-decoration:none;text-decoration-line:none;text-decoration-style:solid;text-decoration-color:#000000;letter-spacing:normal;word-spacing:normal;text-transform:none;writing-mode:lr-tb;direction:ltr;text-orientation:mixed;dominant-baseline:auto;baseline-shift:baseline;text-anchor:start;white-space:normal;shape-padding:0;clip-rule:nonzero;display:inline;overflow:visible;visibility:visible;opacity:1;isolation:auto;mix-blend-mode:normal;color-interpolation:sRGB;color-interpolation-filters:linearRGB;solid-color:#000000;solid-opacity:1;vector-effect:none;fill:#000000;fill-opacity:1;fill-rule:nonzero;stroke:#000000;stroke-width:1.00012493;stroke-linecap:butt;stroke-linejoin:miter;stroke-miterlimit:4;stroke-dasharray:none;stroke-dashoffset:0;stroke-opacity:1;color-rendering:auto;image-rendering:auto;shape-rendering:auto;text-rendering:auto;enable-background:accumulate"
     d="m -201.21676,76.2897 c -34.24398,0.179971 -72.79656,2.649329 -116.47461,8.914062 l 1.50196,10.476562 C -143.39261,70.896112 -54.151581,106.39712 12.783249,106.39712 V 95.813134 c -47.304309,0 -111.268059,-20.063348 -214.000009,-19.523434 z"
     id="path2024" />
  <path
     style="color:#000000;font-style:normal;font-variant:normal;font-weight:normal;font-stretch:normal;font-size:medium;line-height:normal;font-family:sans-serif;font-variant-ligatures:normal;font-variant-position:normal;font-variant-caps:normal;font-variant-numeric:normal;font-variant-alternates:normal;font-feature-settings:normal;text-indent:0;text-align:start;text-decoration:none;text-decoration-line:none;text-decoration-style:solid;text-decoration-color:#000000;letter-spacing:normal;word-spacing:normal;text-transform:none;writing-mode:lr-tb;direction:ltr;text-orientation:mixed;dominant-baseline:auto;baseline-shift:baseline;text-anchor:start;white-space:normal;shape-padding:0;clip-rule:nonzero;display:inline;overflow:visible;visibility:visible;opacity:1;isolation:auto;mix-blend-mode:normal;color-interpolation:sRGB;color-interpolation-filters:linearRGB;solid-color:#000000;solid-opacity:1;vector-effect:none;fill:#000000;fill-opacity:1;fill-rule:nonzero;stroke:#000000;stroke-width:1.00012493;stroke-linecap:butt;stroke-linejoin:miter;stroke-miterlimit:4;stroke-dasharray:none;stroke-dashoffset:0;stroke-opacity:1;color-rendering:auto;image-rendering:auto;shape-rendering:auto;text-rendering:auto;enable-background:accumulate"
     d="m 383.52152,90.006493 c -33.66196,0.148856 -74.11166,2.280999 -131.90429,5.830078 l 0.64844,10.564449 c 115.50089,-7.092973 160.54547,-8.488605 220.93359,0.15234 6.27593,0.89803 10.18796,2.85496 11.55664,4.12305 0.68434,0.63404 0.7188,0.94505 0.71484,0.92187 -0.004,-0.0232 0.10715,-0.14386 -0.16406,0.26953 -0.54242,0.82679 -3.33445,3.06812 -8.82813,4.48633 -5.49367,1.41822 -13.47966,2.19346 -23.85547,1.52539 l -0.67968,10.56055 c 11.22992,0.72306 20.22434,-0.0418 27.18164,-1.83789 6.9573,-1.79605 12.08657,-4.44421 15.02929,-8.92969 1.47137,-2.24273 2.21548,-5.12375 1.74805,-7.85742 -0.46743,-2.73366 -1.99353,-5.083 -3.95508,-6.90039 -3.92309,-3.634765 -9.6442,-5.749848 -17.24804,-6.837885 -30.64082,-4.384403 -57.51578,-6.219169 -91.17774,-6.070312 z"
     id="path2028" />
  <path
     style="color:#000000;font-style:normal;font-variant:normal;font-weight:normal;font-stretch:normal;font-size:medium;line-height:normal;font-family:sans-serif;font-variant-ligatures:normal;font-variant-position:normal;font-variant-caps:normal;font-variant-numeric:normal;font-variant-alternates:normal;font-feature-settings:normal;text-indent:0;text-align:start;text-decoration:none;text-decoration-line:none;text-decoration-style:solid;text-decoration-color:#000000;letter-spacing:normal;word-spacing:normal;text-transform:none;writing-mode:lr-tb;direction:ltr;text-orientation:mixed;dominant-baseline:auto;baseline-shift:baseline;text-anchor:start;white-space:normal;shape-padding:0;clip-rule:nonzero;display:inline;overflow:visible;visibility:visible;opacity:1;isolation:auto;mix-blend-mode:normal;color-interpolation:sRGB;color-interpolation-filters:linearRGB;solid-color:#000000;solid-opacity:1;vector-effect:none;fill:#000000;fill-opacity:1;fill-rule:nonzero;stroke:#000000;stroke-width:1.00012493;stroke-linecap:butt;stroke-linejoin:miter;stroke-miterlimit:4;stroke-dasharray:none;stroke-dashoffset:0;stroke-opacity:1;color-rendering:auto;image-rendering:auto;shape-rendering:auto;text-rendering:auto;enable-background:accumulate"
     d="m 463.07039,35.30923 c -2.53114,0.0019 -5.19838,0.09072 -8.00586,0.271485 l 0.67968,10.560547 c 10.37581,-0.668066 18.3618,0.105225 23.85547,1.523437 5.49368,1.418212 8.28571,3.661494 8.82813,4.488281 0.27121,0.413394 0.1601,0.292707 0.16406,0.269532 0.004,-0.02318 -0.0305,0.285877 -0.71484,0.919921 -1.36868,1.268088 -5.28071,3.226975 -11.55664,4.125 C 416.96991,65.95991 368.25418,46.753747 252.21297,39.62759 l -0.64844,10.564453 c 115.04494,7.064976 163.93659,26.669236 226.25586,17.751953 7.60384,-1.088036 13.32495,-3.20312 17.24804,-6.837891 1.96155,-1.817385 3.48765,-4.166723 3.95508,-6.90039 0.46743,-2.733668 -0.27668,-5.616639 -1.74805,-7.859375 -2.94272,-4.485473 -8.07199,-7.131682 -15.02929,-8.927735 -5.21798,-1.347039 -11.58236,-2.115118 -19.17578,-2.109375 z"
     id="path2026" />
  <path
     id="path8091"
     d="m 132.15873,0.99991368 v 0.003 c -22.22513,0.0612 -48.591153,2.90327 -69.441193,14.9836603 -21.08208,12.21482 -53.4975195,20.47038 -53.4975195,20.47038 -6.3952501,29.14632 -3.29524,51.17113 0,73.049586 38.6204095,11.13729 79.0593895,31.85435 122.9387125,32.62231 v 0.0145 c 0.12389,-0.003 0.24747,-0.005 0.37135,-0.008 0.12401,0.003 0.24776,0.006 0.37186,0.008 v -0.0145 c 43.87932,-0.76796 84.3183,-21.48502 122.93871,-32.62231 3.29523,-21.878476 6.39524,-43.903266 0,-73.049586 0,0 -32.41492,-8.25556 -53.49701,-20.47038 C 181.49355,3.9062137 155.12711,1.0641337 132.90194,1.0030037 v -0.003 c -0.12313,0 -0.24803,0.001 -0.37135,0.002 -0.12351,-1.7e-4 -0.24865,-0.002 -0.37186,-10e-4 z"
     style="fill:#babdb6;stroke:#888a85;stroke-width:2;stroke-linecap:round;stroke-linejoin:round;stroke-miterlimit:4;stroke-dasharray:none;stroke-dashoffset:0;stroke-opacity:1" />
  <path
     id="path983"
     style="fill:none;stroke:#000000;stroke-width:0.5;stroke-linecap:butt;stroke-linejoin:miter;stroke-miterlimit:4;stroke-dasharray:none;stroke-opacity:1"
     d="M 132.78018,0.50152368 V 142.64167" />
  <path
     style="fill:none;stroke:#2e3436;stroke-width:1;stroke-linecap:round;stroke-linejoin:round;stroke-miterlimit:4;stroke-dasharray:2.99999999, 2.99999999;stroke-dashoffset:0;stroke-opacity:1"
     d="M 129.78716,5.0045427 C 104.54098,4.9800957 78.540702,10.019136 56.849495,23.593253 42.695707,30.43391 27.737397,35.446288 12.621139,39.678372 7.8478995,61.68535 9.1927445,84.297417 12.783249,106.39712 c 42.216654,12.58212 83.670548,34.22761 128.773441,31.3125 38.47261,-2.99028 74.00021,-20.26284 110.70898,-31.3086 3.48819,-22.090566 5.2163,-44.78546 -0.0527,-66.77343 C 230.4852,34.063052 209.89278,24.935166 190.14458,14.473293 170.99427,6.6518817 150.1891,4.9417087 129.78716,5.0045427 Z"
     id="path8814" />
</svg>
