<?xml version="1.0" encoding="UTF-8" standalone="no"?>
<svg
   xmlns:dc="http://purl.org/dc/elements/1.1/"
   xmlns:cc="http://creativecommons.org/ns#"
   xmlns:rdf="http://www.w3.org/1999/02/22-rdf-syntax-ns#"
   xmlns:svg="http://www.w3.org/2000/svg"
   xmlns="http://www.w3.org/2000/svg"
   id="svg8"
   version="1.1"
   viewBox="0 0 134.00999 201.28883"
   height="201.28883mm"
   width="134.00999mm">
  <defs
     id="defs2">
    <marker
       orient="auto"
       refY="0"
       refX="0"
       id="cutonfoldFrom"
       style="overflow:visible">
      <path
         class="note fill-note"
         d="m 0,0 12,-4 c -2,2 -2,6 0,8 z"
         id="path1186" />
    </marker>
    <marker
       orient="auto"
       refY="0"
       refX="0"
       id="cutonfoldTo"
       style="overflow:visible">
      <path
         class="note fill-note"
         d="m 0,0 -12,-4 c 2,2 2,6 0,8 z"
         id="path1189" />
    </marker>
    <marker
       orient="auto"
       refY="0"
       refX="0"
       id="dimensionFrom"
       style="overflow:visible">
      <path
         class="mark fill-mark"
         d="m 0,0 12,-4 c -2,2 -2,6 0,8 z"
         id="path1192" />
    </marker>
    <marker
       orient="auto"
       refY="0"
       refX="0"
       id="dimensionTo"
       style="overflow:visible">
      <path
         class="mark fill-mark"
         d="m 0,0 -12,-4 c 2,2 2,6 0,8 z"
         id="path1195" />
    </marker>
    <marker
       orient="auto"
       refY="0"
       refX="0"
       id="grainlineFrom"
       style="overflow:visible">
      <path
         class="note fill-note"
         d="m 0,0 12,-4 c -2,2 -2,6 0,8 z"
         id="path1198" />
    </marker>
    <marker
       orient="auto"
       refY="0"
       refX="0"
       id="grainlineTo"
       style="overflow:visible">
      <path
         class="note fill-note"
         d="m 0,0 -12,-4 c 2,2 2,6 0,8 z"
         id="path1201" />
    </marker>
    <g
       id="logo"
       transform="translate(-23,-36)">
      <path
         style="fill:#000000;stroke:none"
         class="logo"
         d="M 35.222,0 C 34.233,0.703 34.284,0.613 33.485,0.874 31.653,1.473 29.896,1.144 27.811,0.97 27.184,0.9 26.562,0.859 25.955,0.855 22.89,0.834 20.287,1.733 19.794,4.243 c -0.909,0.551 -1.745,1.218 -2.573,1.886 -1.768,1.395 -3.099,3.1 -4.007,5.155 -1.24,3.035 -0.12,6.292 0.435,9.368 0.132,0.72 0.27,1.406 0.344,1.671 0.105,0.373 0.29,0.729 0.491,1.049 0.047,0.008 0.295,-0.374 0.354,-0.543 0.086,-0.246 0.077,-0.641 -0.017,-0.981 -0.208,-0.765 -0.406,-1.386 -0.423,-1.698 -0.03,-0.586 0.084,-1.127 0.298,-1.395 0.076,-0.095 0.25,0.395 0.205,0.577 -0.053,0.219 -0.093,0.594 -0.076,0.767 0.047,0.586 0.133,1.213 0.24,1.761 0.137,0.707 0.196,1.161 0.171,1.337 -0.018,0.128 -0.078,0.257 -0.308,0.653 -0.2,0.347 -0.304,0.628 -0.32,0.876 -0.017,0.242 0.056,0.847 0.124,0.995 0.099,0.231 0.397,0.474 0.657,0.534 0.249,0.095 0.374,0.292 0.502,0.513 0.311,0.593 0.551,1.315 0.789,2.403 0.116,0.521 0.213,0.986 0.244,1.23 -1.92,0.002 -4.379,0.003 -6.619,0.003 C 9.551,30.416 8.189,30.062 6.94,29.98 6.759,28.026 5.901,25.756 4.433,25.624 3.431,25.533 2.6,25.914 1.897,27.497 l 0.02,0.085 C 2.332,27.235 2.77,26.174 4.348,26.247 5.56,26.302 5.964,28.596 6.084,29.976 5.346,30.03 4.718,30.257 4.39,30.824 H 4.383 c 0,10e-4 0,0.003 0.003,0.005 -0.003,0.002 -0.003,0.004 -0.003,0.006 H 4.39 c 0.338,0.581 0.989,0.806 1.754,0.851 C 6.655,46.136 20.238,48 23.95,48 c 13.848,0 18.696,-9.41 19.425,-13.137 0.341,1.588 -0.733,3.611 -0.99,5.104 2.921,-3.377 2.393,-6.624 1.859,-9.89 0.444,0.528 1.045,0.855 1.86,0.674 -0.581,-0.388 -1.369,-0.116 -1.841,-1.753 -0.206,-0.707 -0.384,-1.237 -0.561,-1.682 -0.382,-1.433 -0.924,-2.802 -1.59,-4.136 -0.562,-1.447 -0.191,-2.385 -0.247,-3.627 1.011,3.334 1.643,4.221 2.823,4.57 -2.968,-3.576 -1.952,-9.113 -3.629,-14.055 0.759,0.446 1.625,0.58 2.547,0.035 C 42.714,9.849 41.824,10.52 40.544,8.639 39.463,6.536 37.897,4.983 35.997,3.613 34.979,2.949 33.849,2.503 32.713,2.089 33.87,1.799 35.162,0.769 35.222,0 Z m -1.941,11.107 c 1.524,0.556 3.204,2.668 3.185,4.74 v 0.086 0.03 c -0.041,2.814 -1.32,4.327 -1.266,6.201 0.069,2.207 1.019,2.977 1.208,3.345 -0.324,-1.361 -0.514,-3.073 -0.086,-4.429 0.55,-1.744 1.105,-3.188 1.065,-4.554 -0.02,-0.32 -0.156,-1.517 -0.247,-2.047 1.634,2.358 -0.354,5.787 0.218,8.031 0.994,3.909 5.449,4.403 4.123,12.279 -1.167,6.924 -9.163,12.179 -17.359,12.179 -6.076,0 -16.605,-3.363 -17.125,-15.292 1.235,-0.088 2.563,-0.432 3.308,-0.42 2.252,0 4.824,0.001 6.762,0.002 0.364,1.642 0.637,2.038 2.018,3.132 1.536,1.208 1.894,1.355 4.166,1.377 2.273,0.023 2.947,-0.464 5.152,-2.55 0.476,-0.558 0.682,-1.289 0.913,-1.976 2.268,-0.021 3.922,-0.061 5.549,-0.137 1.657,-0.075 1.891,0 4.561,-0.275 -2.67,-0.275 -2.904,-0.2 -4.561,-0.276 -1.584,-0.072 -3.188,-0.113 -5.357,-0.133 0.182,-0.817 0.442,-1.615 0.719,-2.404 0.171,-0.465 0.372,-0.918 0.578,-1.369 l 0.225,-0.07 c 0.434,-0.154 0.818,-0.484 0.971,-0.93 0.197,-0.591 0.057,-1.255 -0.324,-1.738 -0.131,-0.181 -0.294,-0.412 -0.361,-0.514 -0.201,-0.318 -0.206,-0.495 -0.036,-1.677 0.143,-0.99 0.159,-1.508 0.06,-2.01 -0.02,-0.287 -0.022,-0.877 -0.031,-1.036 0.076,0.042 0.241,0.418 0.408,0.927 0.166,0.511 0.193,0.617 0.231,1.052 0.042,0.494 -0.143,0.86 -0.295,1.597 -0.076,0.38 -0.143,0.733 -0.143,0.781 0,0.051 0.036,0.159 0.074,0.243 0.089,0.188 0.256,0.452 0.287,0.452 0.545,-0.601 0.865,-1.343 1.15,-2.096 0.3,-0.852 0.388,-1.756 0.598,-2.633 0.17,-0.764 0.366,-1.529 0.427,-2.313 0.123,-1.53 0.051,-2.61 -0.287,-4.204 -0.081,-0.36 -0.315,-1.047 -0.478,-1.371 z m -5.36,7.537 c 0.585,-0.007 1.164,0.064 1.715,0.223 0.749,0.287 0.854,0.956 0.992,1.707 0.077,0.48 0.074,0.825 -0.013,1.389 -0.061,0.818 -0.386,1.451 -1.096,1.896 -1.071,0.198 -2.216,0.389 -3.124,-0.32 -0.762,-1.05 -1.221,-2.377 -1.046,-3.671 0.111,-0.531 0.358,-0.807 0.866,-0.972 0.547,-0.157 1.126,-0.243 1.706,-0.252 z m -8.883,0.095 c 0.547,-0.005 1.1,0.053 1.404,0.247 1.305,0.883 0.886,2.32 0.37,3.581 -0.751,1.651 -2.375,1.59 -3.949,1.577 -0.871,-0.255 -0.951,-0.969 -1.077,-1.732 -0.108,-0.737 -0.338,-1.527 -0.146,-2.268 0.493,-1.192 2.295,-1.329 3.398,-1.405 z m 19.903,0.206 c 0.007,3.173 0.549,4.732 1.637,6.979 -0.641,-1.223 -1.557,-1.919 -1.898,-3.381 -0.652,-2.823 0.051,-2.665 0.261,-3.598 z m -15.813,2.298 c 0.172,0.174 0.255,0.414 0.404,0.605 0.115,-0.197 0.233,-0.393 0.381,-0.568 0.077,0.002 0.171,0.154 0.256,0.426 0.364,1.006 0.435,2.113 0.907,3.08 0.441,0.7 -0.161,1.108 -0.822,1.14 -0.482,-10e-4 -0.686,-0.33 -0.969,-0.656 -0.073,0.213 -0.212,0.35 -0.378,0.494 -0.422,0.354 -1.249,0.223 -1.377,-0.335 0.17,-1.066 0.713,-2.045 1.069,-3.067 0.177,-0.373 0.179,-0.659 0.529,-1.119 z m -6.192,5.385 c 0.213,0 0.798,0.397 0.917,0.621 0.082,0.149 0.269,0.729 0.282,0.87 0.021,0.168 -0.03,0.566 -0.082,0.674 -0.038,0.077 -0.067,0.088 -0.111,0.038 -0.037,-0.042 -0.527,-0.982 -0.84,-1.604 -0.246,-0.498 -0.272,-0.599 -0.166,-0.599 z m 12.222,0.311 c 0.008,0.001 0.02,0.004 0.031,0.007 0.066,0.027 0.02,0.261 -0.228,1.111 -0.047,0.256 -0.161,0.458 -0.328,0.626 -0.055,0 -0.08,-0.064 -0.166,-0.419 -0.073,-0.303 -0.081,-0.573 -0.03,-0.815 0.088,-0.303 0.444,-0.396 0.721,-0.51 z m -1.483,1.853 c 0.021,-0.004 0.041,0.007 0.067,0.028 0.09,0.063 0.103,0.229 0.043,0.554 -0.073,0.418 -0.089,0.464 -0.197,0.507 -0.047,0.021 -0.131,0.036 -0.187,0.036 -0.101,-0.018 -0.127,-0.1 -0.103,-0.224 0,-0.26 0.076,-0.486 0.248,-0.753 0.065,-0.1 0.098,-0.143 0.129,-0.148 z m -8.633,0.019 c 0.069,0 0.277,0.15 0.354,0.254 0.086,0.11 0.184,0.765 0.129,0.878 -0.063,0.142 -0.371,0.071 -0.456,-0.106 -0.052,-0.106 -0.175,-0.678 -0.175,-0.814 0,-0.126 0.061,-0.212 0.148,-0.212 z m 7.891,0.173 c 0.084,0.12 0.106,0.274 0.088,0.612 l -0.017,0.308 -0.088,0.088 c -0.053,0.049 -0.143,0.109 -0.197,0.134 -0.119,0.056 -0.21,0.061 -0.227,0.016 -0.02,-0.06 0.014,-0.442 0.051,-0.571 0.043,-0.133 0.236,-0.53 0.3,-0.614 0.029,-0.077 0.063,0.019 0.09,0.027 z m -5.021,-0.018 c 0.181,0.046 0.261,0.209 0.36,0.357 l 0.067,0.132 -0.094,0.327 c -0.05,0.18 -0.103,0.342 -0.119,0.36 -0.018,0.02 -0.085,0.03 -0.184,0.029 -0.264,-0.007 -0.294,-0.018 -0.365,-0.126 l -0.066,-0.098 0.056,-0.275 c 0.081,-0.396 0.12,-0.515 0.21,-0.617 0.047,-0.055 0.094,-0.085 0.135,-0.089 z m -1.671,0.283 0.149,0.149 0.025,0.337 c 0.013,0.184 0.019,0.355 0.009,0.376 -0.009,0.029 -0.063,0.037 -0.23,0.037 h -0.217 c -0.116,-0.127 -0.152,-0.282 -0.201,-0.442 -0.114,-0.481 -0.114,-0.7 0.004,-0.729 0.193,0.012 0.32,0.152 0.461,0.272 z m 5.8,-0.231 c 0.236,0.063 0.189,0.438 0.188,0.706 -0.018,0.434 -0.035,0.524 -0.091,0.58 -0.097,0.097 -0.367,0.043 -0.498,-0.101 -0.043,-0.052 -0.047,-0.068 -0.013,-0.279 0.039,-0.257 0.089,-0.417 0.2,-0.637 0.081,-0.158 0.157,-0.257 0.214,-0.269 z m -5.326,0.02 c 0.013,-0.001 0.034,0 0.054,0.002 0.15,0.012 0.29,0.11 0.414,0.29 l 0.1,0.147 c 0.009,0.241 0,0.495 -0.043,0.719 -0.026,0.013 -0.134,0.033 -0.24,0.043 -0.184,0.017 -0.201,0.013 -0.265,-0.043 -0.089,-0.076 -0.114,-0.217 -0.136,-0.685 -0.013,-0.382 -0.004,-0.467 0.116,-0.473 z m 2.269,0.08 c 0.161,0.034 0.263,0.12 0.308,0.261 0.036,0.121 0.058,0.798 0.023,0.845 -0.012,0.02 -0.088,0.045 -0.175,0.056 -0.324,0.041 -0.61,0.01 -0.638,-0.067 -0.036,-0.088 0.205,-0.96 0.294,-1.068 0.038,-0.084 0.13,-0.019 0.188,-0.027 z m 2.098,0.006 c 0.071,-0.007 0.147,0.061 0.221,0.206 0.06,0.121 0.069,0.163 0.069,0.434 0,0.216 -0.013,0.309 -0.036,0.329 -0.02,0.016 -0.101,0.045 -0.187,0.067 -0.15,0.039 -0.183,0.043 -0.23,0.027 l -0.225,-0.041 0.017,-0.134 c 0.016,-0.175 0.131,-0.563 0.212,-0.731 0.048,-0.1 0.103,-0.15 0.159,-0.157 z m -0.978,0.003 c 0.047,-0.002 0.069,0.009 0.099,0.042 0.071,0.084 0.161,0.332 0.218,0.597 0.076,0.373 0.076,0.372 -0.087,0.421 -0.071,0.022 -0.221,0.045 -0.328,0.051 -0.353,0.018 -0.38,-0.003 -0.337,-0.315 0.034,-0.278 0.171,-0.716 0.23,-0.748 0.064,-0.034 0.138,-0.033 0.205,-0.048 z M 6.111,30.536 c 0.003,-0.001 0.007,0 0.007,0 0.009,0.195 0.009,0.392 0.013,0.588 -0.495,-0.038 -0.859,-0.156 -0.859,-0.295 0,-0.137 0.351,-0.254 0.839,-0.293 z m 0.865,0.017 c 0.401,0.05 0.678,0.155 0.673,0.276 0,0.122 -0.268,0.226 -0.666,0.275 C 6.979,30.921 6.979,30.737 6.976,30.553 Z m 18.726,0.533 c 0.034,-0.003 0.049,-0.006 0.101,-10e-4 0.208,0.021 0.238,0.034 0.238,0.104 0,0.092 -0.158,0.369 -0.265,0.465 -0.05,0.048 -0.119,0.088 -0.143,0.088 -0.12,0 -0.19,-0.253 -0.134,-0.486 0.034,-0.126 0.096,-0.165 0.203,-0.17 z m -0.755,0.083 c 0.093,-0.008 0.183,0.017 0.273,0.029 -0.026,0.263 -0.144,0.478 -0.363,0.621 -0.054,0 -0.081,-0.103 -0.081,-0.328 0,-0.268 0.014,-0.319 0.171,-0.322 z m -0.828,0.097 c 0.193,0 0.363,0.009 0.371,0.02 0.036,0.034 -0.068,0.292 -0.221,0.554 -0.131,0.233 -0.15,0.25 -0.231,0.256 -0.318,-0.036 -0.309,-0.409 -0.358,-0.665 0,-0.152 0.034,-0.165 0.439,-0.165 z m -3.009,0.029 c 0.221,0.004 0.307,0.037 0.307,0.122 0,0.108 -0.082,0.323 -0.129,0.35 -0.071,0.039 -0.077,0.037 -0.217,-0.109 -0.221,-0.248 -0.246,-0.294 0.039,-0.363 z m 1.064,0.011 c 0.004,0.006 0.047,0.084 0.09,0.172 0.094,0.183 0.101,0.263 0.034,0.324 -0.158,0.09 -0.191,0.039 -0.334,-0.052 -0.166,-0.157 -0.297,-0.368 -0.254,-0.412 0.148,-0.053 0.311,-0.033 0.464,-0.032 z m 0.422,0.005 0.395,0.007 c 0.154,0 0.287,0.008 0.294,0.02 0.027,0.024 -0.06,0.538 -0.107,0.654 -0.054,0.13 -0.243,0.131 -0.341,-0.023 -0.14,-0.221 -0.232,-0.407 -0.235,-0.535 z"
         id="path1204" />
    </g>
    <g
       id="notch">
      <circle
         cy="0"
         cx="0"
         r="1.4"
         class="fill-note"
         id="circle1207" />
      <circle
         cy="0"
         cx="0"
         r="2.8"
         class="note"
         id="circle1209" />
    </g>
    <g
       id="bnotch">
      <path
         d="m -1.1,-1.1 2.2,2.2 m 0,-2.2 -2.2,2.2"
         class="note stroke-xl"
         id="path1212" />
      <circle
         cy="0"
         cx="0"
         r="2.8"
         class="note"
         id="circle1214" />
    </g>
  </defs>
  <metadata
     id="metadata5">
    <rdf:RDF>
      <cc:Work
         rdf:about="">
        <dc:format>image/svg+xml</dc:format>
        <dc:type
           rdf:resource="http://purl.org/dc/dcmitype/StillImage" />
        <dc:title></dc:title>
      </cc:Work>
    </rdf:RDF>
  </metadata>
  <g
     transform="translate(-35.091965,-18.228161)"
     id="layer1">
    <path
       style="fill:#babdb6;stroke:#888a85;stroke-width:2;stroke-miterlimit:4;stroke-dasharray:none"
       class="fabric sa"
       id="fs-3"
       d="m 36.091965,75.272578 v 90.110002 l 6.37,9.32 67.080005,26.16 6.22,0.34 c 19.58999,-5.24 34.08,-25.55 42.55999,-56.34 4.93,-17.91 7.98,-39.16 9.55,-61.620002 0.15001,-2.28 0.23,-4.42 0.23,-6.45 0,-19.71 -6.63,-29.54 -14.12,-37.46 l -14.13999,-0.4 c -9.97001,9.43 -24.34,15.25 -38.58,19.08 -26.810005,7.23 -53.620005,7.24 -55.290005,7.26 -0.01,0 -0.02,0 -0.02,0 z" />
    <path
       style="fill:none;stroke:#888a85;stroke-width:1;stroke-linecap:round;stroke-linejoin:round;stroke-miterlimit:4;stroke-dasharray:1.00000003, 2.00000006;stroke-dashoffset:0"
       class="fabric"
       id="fs-1"
       d="m 46.091965,75.272578 v 90.110002 l 67.080005,26.16 c 28.36,-7.59 40.92,-54.63 44.71999,-109.000002 1.39001,-19.94 -4.36999,-29.14 -11.17999,-36.34 -30.74001,29.07 -100.620005,29.07 -100.620005,29.07 z" />
    <path
       style="fill:none;stroke:#888a85;stroke-width:0.5;stroke-miterlimit:4;stroke-dasharray:0.5, 1;stroke-dashoffset:0"
       class="stroke-sm fabric dashed"
       id="fs-2"
       d="m 46.091965,77.272578 h 10 v 10 h -10 m 0,66.110002 h 10 v 10 h -10" />
    <path
       d="m 113.17197,191.54258 c 28.36,-7.59 40.92,-54.63 44.71999,-109.000002 1.39001,-19.94 -4.36999,-29.14 -11.17999,-36.34"
       id="path1334"
       class="fabric"
       style="fill:none;stroke:#2e3436;stroke-width:1;stroke-linecap:round;stroke-linejoin:round;stroke-miterlimit:4;stroke-dasharray:3.00000008, 3.00000008;stroke-dashoffset:0" />
    <path
       id="path1336"
       d="m 146.71197,46.202578 c 1.00287,-1.18783 -0.006,-2.716251 0.14857,-4.062792 0.0384,-1.8711 -0.29984,-3.772474 0.0337,-5.613816 0.23768,-1.312132 1.54852,-2.392506 1.38071,-3.754632 0.0509,-1.511704 -1.44399,-2.344832 -2.59495,-2.966713 -1.72828,-1.038619 -3.3915,-2.185722 -5.1638,-3.150551 -1.63216,-1.267804 -4.01045,-5.742666 -4.65338,-7.919081"
       style="fill:none;stroke:#000000;stroke-width:1;stroke-linecap:round;stroke-linejoin:round;stroke-miterlimit:4;stroke-dasharray:none;stroke-opacity:1" />
    <path
       style="fill:none;stroke:#000000;stroke-width:1;stroke-linecap:round;stroke-linejoin:round;stroke-miterlimit:4;stroke-dasharray:none;stroke-opacity:1"
       d="m 113.17197,191.54258 c -1.00287,1.18783 0.006,2.71625 -0.14857,4.06279 -0.0384,1.8711 0.29984,3.77248 -0.0337,5.61382 -0.23768,1.31213 -1.54852,2.39251 -1.38071,3.75463 -0.0509,1.51171 1.44399,2.34483 2.59495,2.96671 1.72828,1.03862 3.3915,2.18573 5.1638,3.15056 1.63216,1.2678 4.01045,5.74266 4.65338,7.91908"
       id="path1347" />
  </g>
  <style
     type="text/css"
     id="style1182"><![CDATA[ 
text.title-nr{font-size:24pt;font-weight:700;text-anchor:middle;dominant-baseline:reset-size}text.title-name{font-size:7pt;font-weight:500;text-anchor:middle;dominant-baseline:reset-size}text.title-pattern{font-size:4pt;font-weight:500;dominant-baseline:reset-size;text-anchor:middle;font-style:italic}svg.freesewing {
  /* Sample classes */
}
svg.freesewing path.sample {
  stroke-width: 0.75;
}
svg.freesewing path.sample-focus {
  stroke-width: 1.5;
  fill: rgba(0, 0, 0, 0.1);
}svg.freesewing {
  /* Paperless grid */
}
svg.freesewing path.grid {
  fill: none;
  stroke: #555;
  stroke-width: 0.3;
}
svg.freesewing path.gridline {
  stroke: #555;
  stroke-width: 0.2;
}
svg.freesewing path.gridline-lg {
  stroke: #777;
  stroke-width: 0.2;
  stroke-dasharray: 1.5, 1.5;
}
svg.freesewing path.gridline-sm {
  stroke: #999;
  stroke-width: 0.1;
}
svg.freesewing path.gridline-xs {
  stroke: #999;
  stroke-width: 0.1;
  stroke-dasharray: 0.5, 0.5;
}
svg.freesewing path.gridbox {
  fill: url(#grid);
}svg.freesewing {
  /* Reset */
  /* Defaults */
  /* Stroke classes */
  /* Fill classes */
  /* Text */
}
svg.freesewing path, svg.freesewing circle, svg.freesewing rect {
  fill: none;
  stroke: none;
}
svg.freesewing path, svg.freesewing circle {
  stroke: #000;
  stroke-opacity: 1;
  stroke-width: 0.3;
  stroke-linecap: round;
  stroke-linejoin: round;
}
svg.freesewing .fabric {
  stroke-width: 0.6;
  stroke: #212121;
}
svg.freesewing .lining {
  stroke-width: 0.6;
  stroke: #ff5b77;
}
svg.freesewing .interfacing {
  stroke-width: 0.6;
  stroke: #64b5f6;
}
svg.freesewing .canvas {
  stroke-width: 0.6;
  stroke: #ff9000;
}
svg.freesewing .various {
  stroke-width: 0.6;
  stroke: #4caf50;
}
svg.freesewing .note {
  stroke-width: 0.4;
  stroke: #dd60dd;
}
svg.freesewing .mark {
  stroke-width: 0.4;
  stroke: blue;
}
svg.freesewing .contrast {
  stroke-width: 0.8;
  stroke: red;
}
svg.freesewing .stroke-xs {
  stroke-width: 0.1;
}
svg.freesewing .stroke-sm {
  stroke-width: 0.2;
}
svg.freesewing .stroke-lg {
  stroke-width: 0.6;
}
svg.freesewing .stroke-xl {
  stroke-width: 1;
}
svg.freesewing .stroke-xxl {
  stroke-width: 2;
}
svg.freesewing .sa {
  stroke-dasharray: 0.4, 0.8;
}
svg.freesewing .help {
  stroke-width: 0.2;
  stroke-dasharray: 15, 1.5, 1, 1.5;
}
svg.freesewing .dotted {
  stroke-dasharray: 0.4, 0.8;
}
svg.freesewing .dashed {
  stroke-dasharray: 1, 1.5;
}
svg.freesewing .lashed {
  stroke-dasharray: 6, 6;
}
svg.freesewing .hidden {
  stroke: none;
  fill: none;
}
svg.freesewing .fill-fabric {
  fill: #212121;
}
svg.freesewing .fill-lining {
  fill: #ff5b77;
}
svg.freesewing .fill-interfacing {
  fill: #64b5f6;
}
svg.freesewing .fill-canvas {
  fill: #ff9000;
}
svg.freesewing .fill-various {
  fill: #4caf50;
}
svg.freesewing .fill-note {
  fill: #dd69dd;
}
svg.freesewing .fill-mark {
  fill: blue;
}
svg.freesewing .fill-contrast {
  fill: red;
}
svg.freesewing text {
  font-size: 5px;
  font-family: -apple-system, system-ui, BlinkMacSystemFont, "Segoe UI", Roboto, "Helvetica Neue", Arial, sans-serif;
  fill: #000;
  text-anchor: start;
  font-weight: 200;
  dominant-baseline: ideographic;
}
svg.freesewing .text-xs {
  font-size: 3px;
}
svg.freesewing .text-sm {
  font-size: 4px;
}
svg.freesewing .text-lg {
  font-size: 7px;
}
svg.freesewing .text-xl {
  font-size: 9px;
}
svg.freesewing .text-xxl {
  font-size: 12px;
}
svg.freesewing .center {
  text-anchor: middle;
}
svg.freesewing .right {
  text-anchor: end;
}
]]></style>
</svg>
