<?xml version="1.0" encoding="UTF-8" standalone="no"?>
<svg
   xmlns:dc="http://purl.org/dc/elements/1.1/"
   xmlns:cc="http://creativecommons.org/ns#"
   xmlns:rdf="http://www.w3.org/1999/02/22-rdf-syntax-ns#"
   xmlns:svg="http://www.w3.org/2000/svg"
   xmlns="http://www.w3.org/2000/svg"
   xmlns:sodipodi="http://sodipodi.sourceforge.net/DTD/sodipodi-0.dtd"
   xmlns:inkscape="http://www.inkscape.org/namespaces/inkscape"
   width="159.93233mm"
   height="108.54454mm"
   viewBox="0 0 159.93232 108.54455"
   version="1.1"
   id="svg1042"
   sodipodi:docname="Teagan3e.svg"
   inkscape:version="1.0.1 (c497b03c, 2020-09-10)">
  <defs
     id="defs1036">
    <marker
       orient="auto"
       refY="0"
       refX="0"
       id="cutonfoldFrom"
       style="overflow:visible">
      <path
         class="note fill-note"
         d="m 0,0 12,-4 c -2,2 -2,6 0,8 z"
         id="path837" />
    </marker>
    <marker
       orient="auto"
       refY="0"
       refX="0"
       id="cutonfoldTo"
       style="overflow:visible">
      <path
         class="note fill-note"
         d="m 0,0 -12,-4 c 2,2 2,6 0,8 z"
         id="path840" />
    </marker>
    <marker
       orient="auto"
       refY="0"
       refX="0"
       id="marker1619"
       style="overflow:visible">
      <path
         class="note fill-note"
         d="m 0,0 12,-4 c -2,2 -2,6 0,8 z"
         id="path1617" />
    </marker>
    <marker
       orient="auto"
       refY="0"
       refX="0"
       id="marker1623"
       style="overflow:visible">
      <path
         class="note fill-note"
         d="m 0,0 -12,-4 c 2,2 2,6 0,8 z"
         id="path1621" />
    </marker>
    <marker
       orient="auto"
       refY="0"
       refX="0"
       id="grainlineFrom"
       style="overflow:visible">
      <path
         class="note fill-note"
         d="m 0,0 12,-4 c -2,2 -2,6 0,8 z"
         id="path849" />
    </marker>
    <marker
       orient="auto"
       refY="0"
       refX="0"
       id="grainlineTo"
       style="overflow:visible">
      <path
         class="note fill-note"
         d="m 0,0 -12,-4 c 2,2 2,6 0,8 z"
         id="path852" />
    </marker>
  </defs>
  <sodipodi:namedview
     id="base"
     pagecolor="#ffffff"
     bordercolor="#666666"
     borderopacity="1.0"
     inkscape:pageopacity="0.0"
     inkscape:pageshadow="2"
     inkscape:zoom="1.036257"
     inkscape:cx="256.01895"
     inkscape:cy="315.85667"
     inkscape:document-units="mm"
     inkscape:current-layer="layer1"
     inkscape:document-rotation="0"
     showgrid="false"
     inkscape:window-width="1366"
     inkscape:window-height="806"
     inkscape:window-x="74"
     inkscape:window-y="23"
     inkscape:window-maximized="0"
     fit-margin-left="-50"
     fit-margin-top="10"
     fit-margin-right="-50"
     fit-margin-bottom="-100"
     showguides="false" />
  <metadata
     id="metadata1039">
    <rdf:RDF>
      <cc:Work
         rdf:about="">
        <dc:format>image/svg+xml</dc:format>
        <dc:type
           rdf:resource="http://purl.org/dc/dcmitype/StillImage" />
        <dc:title />
      </cc:Work>
    </rdf:RDF>
  </metadata>
  <g
     inkscape:groupmode="layer"
     id="layer3"
     inkscape:label="Layer 2"
     transform="translate(-23.239872,-3.3372213)"
     style="display:inline">
    <path
       style="opacity:0;fill:#e6e6e6;stroke:none;stroke-width:0.679745"
       d="m 331.13394,138.40275 c -11.97728,-2.00717 -27.13568,-8.36673 -38.29013,-16.06427 -24.05009,-16.59665 -43.3613,-43.431814 -57.193,-79.476316 -2.10396,-5.482791 -3.82539,-10.307596 -3.82539,-10.721789 0,-0.414193 1.6059,0.52575 3.56866,2.088763 11.90226,9.478153 39.1096,17.449813 72.56278,21.260652 23.05028,2.625787 58.65352,3.116229 79.53016,1.095545 33.48592,-3.241159 57.58645,-10.378458 70.46464,-20.867898 4.37169,-3.560785 4.40841,-4.199655 -0.52129,9.068052 -8.96122,24.118023 -21.09616,44.105734 -36.55692,60.213641 -17.61734,18.35475 -38.45883,29.9696 -60.06474,33.47373 -7.73167,1.25395 -21.97453,1.22031 -29.67477,-0.0701 z"
       id="path1772"
       transform="matrix(0.26458333,0,0,0.26458333,12.893534,4.8592926)" />
    <path
       style="fill:#babdb6;fill-opacity:1;stroke:#888a85;stroke-width:1;stroke-linecap:butt;stroke-linejoin:miter;stroke-opacity:1;stroke-miterlimit:4;stroke-dasharray:none"
       d="M 18.168653,211.74947 18.025993,90.118646 C 44.202011,89.764936 46.19322,65.892695 37.703915,26.653537 L 73.781784,14.817283 c -3.649014,13.668932 65.408226,14.460676 61.631196,0.17854 l 36.1533,11.635785 c -12.40799,57.626849 3.64832,63.736208 19.57546,63.487038 l -0.14266,121.630824 z"
       id="path6056-5"
       sodipodi:nodetypes="ccccccccc" />
    <path
       style="fill:#e2e5de;fill-opacity:1;stroke:#888a85;stroke-width:1;stroke-linecap:butt;stroke-linejoin:miter;stroke-opacity:1;stroke-miterlimit:4;stroke-dasharray:none"
       d="m 37.703915,26.653537 c -24.953796,6.154228 -45.1269928,15.9416 -64.294319,26.153126 8.089907,18.756302 16.879168,38.762661 25.2797205,47.136938 7.0190594,-5.198039 11.5468555,-7.480346 19.3366685,-9.824958 l 6.123387,6.004198 C 57.916885,85.982448 46.221847,59.001395 37.703915,26.653537 Z"
       id="path6738"
       sodipodi:nodetypes="cccccc" />
    <path
       style="display:inline;fill:#e2e5de;fill-opacity:1;stroke:#888a85;stroke-width:1;stroke-linecap:butt;stroke-linejoin:miter;stroke-opacity:1;stroke-miterlimit:4;stroke-dasharray:none"
       d="m 171.56628,26.631608 c 25.02259,4.844897 38.42957,11.062172 61.30019,16.747167 2.06032,21.700443 -14.8375,42.887212 -19.30227,55.15709 l -22.42246,-8.417219 -6.12339,6.0042 c -33.76751,-10.140394 -21.97,-37.143381 -13.45207,-69.491238 z"
       id="path6738-0"
       sodipodi:nodetypes="cccccc" />
  </g>
  <g
     inkscape:groupmode="layer"
     id="layer6"
     inkscape:label="Layer 3"
     style="display:inline"
     transform="translate(-10.346338,1.5220713)">
    <path
       style="fill:#e2e5de;fill-opacity:1;stroke:#888a85;stroke-width:1;stroke-linecap:butt;stroke-linejoin:miter;stroke-opacity:1;stroke-miterlimit:4;stroke-dasharray:none"
       d="M 5.2751106,206.89018 5.1324507,85.259353 C 31.308469,84.905642 33.299685,61.033403 24.810381,21.794244 L 60.88825,9.9579903 C 72.043788,53.66644 112.56966,52.337792 122.51945,10.13653 l 36.1533,11.635785 c -12.40799,57.626852 3.64832,63.736202 19.57546,63.487038 l -0.14266,121.630827 z"
       id="path6056"
       sodipodi:nodetypes="ccccccccc" />
  </g>
  <g
     inkscape:groupmode="layer"
     id="layer7"
     inkscape:label="Layer 4"
     style="display:inline"
     transform="translate(-10.346338,1.5220713)">
    <path
       style="fill:#e2e5de;fill-opacity:1;stroke:#888a85;stroke-width:1;stroke-linecap:butt;stroke-linejoin:miter;stroke-opacity:1;stroke-miterlimit:4;stroke-dasharray:none"
       d="M 57.940254,10.895989 63.722093,8.8384112 C 75.934306,49.561629 109.81488,47.090675 119.60366,9.1235211 l 5.59578,1.9510079 C 111.45278,56.050963 71.310574,55.774782 57.940254,10.895989 Z"
       id="path7299"
       sodipodi:nodetypes="ccccc" />
  </g>
  <g
     inkscape:groupmode="layer"
     id="layer1"
     inkscape:label="Layer 5"
     transform="translate(-64.263992)"
     style="display:inline">
    <path
       style="fill:none;stroke:#ff0000;stroke-width:0.5;stroke-linecap:butt;stroke-linejoin:miter;stroke-miterlimit:4;stroke-dasharray:2, 0.5;stroke-dashoffset:0;stroke-opacity:1"
       d="m 112.93855,12.074221 c 13.3078,44.243873 52.24214,43.067794 65.06864,0.231191"
       id="path909"
       sodipodi:nodetypes="cc" />
    <path
       style="fill:none;stroke:#888a85;stroke-width:1;stroke-linecap:butt;stroke-linejoin:miter;stroke-opacity:1;stroke-miterlimit:4;stroke-dasharray:none"
       d="m 124.06041,25.179917 c 14.94398,4.474589 28.46092,3.601531 43.66305,-0.09861"
       id="path911"
       sodipodi:nodetypes="cc" />
    <path
       style="fill:none;stroke:#ff0000;stroke-width:0.50000001;stroke-linecap:butt;stroke-linejoin:miter;stroke-miterlimit:4;stroke-dasharray:2.00000006,0.50000001;stroke-dashoffset:0;stroke-opacity:1"
       d="m 122.6385,22.606963 c 16.35542,5.268288 32.12374,3.647479 46.26929,0.222182"
       id="path915"
       sodipodi:nodetypes="cc" />
  </g>
</svg>
