<?xml version="1.0" encoding="UTF-8" standalone="no"?>
<!-- Created with Inkscape (http://www.inkscape.org/) -->

<svg
   width="175.91852mm"
   height="118.88269mm"
   viewBox="0 0 175.91851 118.88269"
   version="1.1"
   id="svg32513"
   sodipodi:docname="bee.svg"
   inkscape:version="1.1 (c68e22c387, 2021-05-23)"
   xmlns:inkscape="http://www.inkscape.org/namespaces/inkscape"
   xmlns:sodipodi="http://sodipodi.sourceforge.net/DTD/sodipodi-0.dtd"
   xmlns="http://www.w3.org/2000/svg"
   xmlns:svg="http://www.w3.org/2000/svg">
  <sodipodi:namedview
     id="namedview32515"
     pagecolor="#ffffff"
     bordercolor="#666666"
     borderopacity="1.0"
     inkscape:pageshadow="2"
     inkscape:pageopacity="0.0"
     inkscape:pagecheckerboard="0"
     inkscape:document-units="mm"
     showgrid="false"
     fit-margin-top="3"
     fit-margin-left="3"
     fit-margin-right="3"
     fit-margin-bottom="3"
     inkscape:zoom="2"
     inkscape:cx="371.25"
     inkscape:cy="248.25"
     inkscape:window-width="1920"
     inkscape:window-height="1001"
     inkscape:window-x="-9"
     inkscape:window-y="-9"
     inkscape:window-maximized="1"
     inkscape:current-layer="layer1"
     lock-margins="true" />
  <defs
     id="defs32510" />
  <g
     inkscape:label="Layer 1"
     id="layer1"
     transform="translate(-78.486946,-70.369269)"
     style="display:inline">
    <path
       id="path534-1-8"
       style="clip-rule:evenodd;display:inline;fill:none;fill-rule:evenodd;stroke:#ff9700;stroke-width:0.132;stroke-linecap:round;stroke-miterlimit:8.28928;stroke-dasharray:0.396, 0.396;stroke-dashoffset:0;stroke-opacity:1"
       class="st14"
       d="m 148.89392,145.33562 c 7.1609,-14.22416 -2.42094,-25.91197 -8.42857,-33.8338 l -1.21319,0.003 c -0.0726,-0.0161 -16.88073,13.19272 -17.67475,32.55075 m -36.554048,1.29146 c -7.160905,-14.22416 2.412649,-25.92437 8.42027,-33.8462 l 1.213194,-0.006 c 0.0726,-0.0161 16.889014,13.21339 17.683034,32.57142"
       inkscape:label="front-stitches" />
    <path
       id="path520"
       style="display:inline;opacity:0.3;fill:none;stroke:#000000;stroke-width:0.25641;stroke-miterlimit:8.28928;stroke-dasharray:none;stroke-dashoffset:0;stroke-opacity:1"
       d="m 149.08311,143.80816 c -0.0397,0.19816 -0.0317,0.40128 0.0238,0.58706 0.0291,0.0941 0.0767,0.17835 0.11377,0.27 0.0344,0.0917 0.082,0.17835 0.11907,0.27744 l -0.0106,0.007 c -0.0979,-0.0569 -0.16933,-0.14119 -0.23018,-0.23036 -0.0582,-0.0917 -0.082,-0.19817 -0.0979,-0.30221 -0.037,-0.20807 -0.008,-0.4211 0.0688,-0.61184 z m 0.24342,1.13946 c 0.008,-0.14863 0.0132,-0.29726 0.0265,-0.44588 0.0159,-0.14863 0.0132,-0.29725 0.037,-0.44341 0.0556,-0.29229 0.12171,-0.58211 0.21431,-0.86698 l 0.0132,0.003 c -0.0106,0.29725 -0.0476,0.59202 -0.0926,0.88432 -0.0212,0.14615 -0.0609,0.28982 -0.0873,0.43597 -0.0291,0.14615 -0.0635,0.28982 -0.0952,0.43596 z m -1.016,-1.33764 c -0.005,0.23781 -0.09,0.46074 -0.11642,0.69112 -0.0132,0.11642 -0.0291,0.23036 -0.0344,0.34678 -0.0106,0.11395 -0.005,0.2279 0.0185,0.34432 l -0.005,0.003 c -0.0608,-0.10652 -0.0794,-0.23037 -0.0794,-0.3468 0.003,-0.1189 0.0238,-0.23532 0.0476,-0.35175 0.0397,-0.23284 0.14023,-0.45083 0.16405,-0.68368 z m -2.04523,0.0372 c -0.10583,0.39138 0.008,0.81744 0.28575,1.11222 l -0.0794,0.0223 c 0.037,-0.29478 0.0582,-0.58955 0.10055,-0.88432 0.0556,-0.2923 0.1217,-0.58212 0.21431,-0.86699 l 0.0132,0.003 c -0.0212,0.59698 -0.14552,1.17414 -0.23813,1.76121 l -0.0159,0.0966 -0.0661,-0.0743 c -0.2831,-0.32698 -0.36512,-0.78276 -0.22754,-1.16919 z m -2.97127,-0.25018 c -0.10584,0.39137 0.008,0.81743 0.28575,1.11221 l -0.0794,0.0223 c 0.037,-0.29478 0.0582,-0.58955 0.10054,-0.88432 0.0556,-0.2923 0.12171,-0.58211 0.21432,-0.86699 l 0.0132,0.003 c -0.0212,0.59698 -0.14552,1.17415 -0.23813,1.76122 l -0.0159,0.0966 -0.0662,-0.0743 c -0.2831,-0.32698 -0.36512,-0.78276 -0.22754,-1.16918 z m -6.41615,-0.18331 c -0.0556,0.20808 -0.0582,0.43101 0.008,0.63414 0.0661,0.20312 0.17462,0.39633 0.31485,0.55734 l -0.0794,0.0248 c 0.0238,-0.31212 0.0317,-0.62423 0.0608,-0.93635 v -0.003 -0.003 c 0.0556,-0.29973 0.12436,-0.59698 0.21961,-0.89176 l 0.0132,0.003 c -0.0106,0.30716 -0.0476,0.60936 -0.0979,0.90909 v -0.005 c -0.0291,0.31211 -0.0741,0.62175 -0.10583,0.93387 l -0.0106,0.11146 -0.0688,-0.0891 c -0.14287,-0.18084 -0.24077,-0.38395 -0.29369,-0.59946 -0.0503,-0.21551 -0.0397,-0.44092 0.0291,-0.649 z m -3.84969,-0.41863 c -0.0212,0.16596 -0.0185,0.33441 -0.0238,0.50285 l -0.003,0.50532 0.003,0.25267 c 0.003,0.0793 0,0.17835 0.0238,0.23285 0.0106,0 -0.0291,-0.01 -0.0265,-0.005 0,0 0.008,-0.007 0.0106,-0.0149 0.0106,-0.0149 0.0185,-0.0322 0.0291,-0.0521 l 0.0529,-0.11395 c 0.0185,-0.0396 0.0344,-0.0793 0.0556,-0.1189 0.0106,-0.0198 0.0212,-0.0396 0.0397,-0.0594 0.0106,-0.01 0.0159,-0.0223 0.037,-0.0322 0.0212,-0.0173 0.0741,-0.007 0.0873,0.0149 l -0.0794,0.0223 c 0.037,-0.29477 0.0582,-0.58955 0.10054,-0.88432 0.0556,-0.2923 0.12171,-0.58211 0.21431,-0.86698 l 0.0132,0.003 c -0.0212,0.59698 -0.14552,1.17415 -0.23812,1.76121 l -0.0794,0.0223 c -0.003,0.005 0.0265,0.01 0.0265,0.005 0.003,-0.003 -0.005,0.005 -0.0106,0.01 -0.0106,0.0124 -0.0212,0.0298 -0.0317,0.0471 -0.0212,0.0346 -0.0397,0.0743 -0.0582,0.11147 l -0.0582,0.11643 c -0.0106,0.0198 -0.0212,0.0396 -0.037,0.0594 -0.008,0.01 -0.0159,0.0198 -0.0318,0.0322 -0.008,0.005 -0.0291,0.0149 -0.0476,0.007 -0.0238,-0.007 -0.0264,-0.0173 -0.0344,-0.0272 -0.037,-0.10403 -0.0212,-0.18082 -0.0238,-0.26752 l 0.008,-0.25266 0.0238,-0.50533 c 0.0132,-0.16845 0.0159,-0.33688 0.045,-0.50533 z m 1.90236,1.97672 c -0.008,-0.16101 -0.0265,-0.3245 -0.0291,-0.48551 0.005,-0.16349 0.0238,-0.3245 0.0529,-0.48551 0.0609,-0.31954 0.16933,-0.63414 0.32015,-0.92643 l 0.0397,-0.0768 0.0106,0.0843 c 0.0212,0.17093 0.0238,0.34431 0.005,0.51524 -0.0185,0.1734 -0.0794,0.33688 -0.11113,0.50285 -0.0344,0.16596 -0.0688,0.33441 -0.0741,0.50037 -0.003,0.0843 0.005,0.16845 0.0291,0.24771 0.0212,0.0817 0.0661,0.15606 0.0979,0.23533 l -0.005,0.003 c -0.0397,-0.0768 -0.09,-0.14863 -0.12171,-0.23037 -0.0291,-0.0817 -0.0397,-0.17092 -0.0423,-0.25762 -0.003,-0.17339 0.0238,-0.34432 0.0529,-0.51275 0.0317,-0.17093 0.0926,-0.33194 0.11113,-0.49791 0.0212,-0.16596 0.0238,-0.33688 0.008,-0.50284 l 0.0503,0.007 c -0.15611,0.28733 -0.26723,0.5945 -0.33338,0.91156 -0.0344,0.15854 -0.0556,0.31955 -0.0661,0.48057 -0.003,0.161 0.0106,0.32201 0.0159,0.4855 z m 10.18646,0.13376 c -0.008,-0.16101 -0.0265,-0.32449 -0.0291,-0.4855 0.005,-0.1635 0.0238,-0.32451 0.0529,-0.48552 0.0608,-0.31954 0.16933,-0.63413 0.32015,-0.92643 l 0.0397,-0.0768 0.0106,0.0843 c 0.0212,0.17091 0.0238,0.34431 0.005,0.51523 -0.0185,0.1734 -0.0794,0.33689 -0.11113,0.50286 -0.0344,0.16596 -0.0688,0.3344 -0.0741,0.50036 -0.003,0.0843 0.005,0.16845 0.0291,0.24772 0.0212,0.0817 0.0662,0.15606 0.0979,0.23532 l -0.005,0.003 c -0.0397,-0.0768 -0.09,-0.14863 -0.12171,-0.23037 -0.0291,-0.0817 -0.0397,-0.17093 -0.0423,-0.25762 -0.003,-0.1734 0.0238,-0.34432 0.0529,-0.51276 0.0318,-0.17092 0.0926,-0.33193 0.11113,-0.4979 0.0212,-0.16596 0.0238,-0.33688 0.008,-0.50285 l 0.0503,0.007 c -0.15611,0.28734 -0.26723,0.5945 -0.33338,0.91157 -0.0344,0.15853 -0.0556,0.31954 -0.0661,0.48056 -0.003,0.16101 0.0106,0.32202 0.0159,0.4855 z m -3.60892,-0.13872 c -0.008,-0.16101 -0.0265,-0.32449 -0.0291,-0.4855 0.005,-0.1635 0.0238,-0.3245 0.0529,-0.48551 0.0609,-0.31955 0.16934,-0.63414 0.32015,-0.92644 l 0.0397,-0.0768 0.0106,0.0843 c 0.0212,0.17091 0.0238,0.34431 0.005,0.51524 -0.0185,0.17339 -0.0794,0.33688 -0.11112,0.50285 -0.0344,0.16596 -0.0688,0.33441 -0.0741,0.50037 -0.003,0.0843 0.005,0.16844 0.0291,0.24771 0.0212,0.0817 0.0661,0.15606 0.0979,0.23533 l -0.005,0.003 c -0.0397,-0.0768 -0.09,-0.14862 -0.12171,-0.23036 -0.0291,-0.0817 -0.0397,-0.17092 -0.0423,-0.25762 -0.003,-0.1734 0.0238,-0.34432 0.0529,-0.51276 0.0318,-0.17092 0.0926,-0.33193 0.11112,-0.4979 0.0212,-0.16596 0.0238,-0.33688 0.008,-0.50284 l 0.0503,0.007 c -0.1561,0.28733 -0.26723,0.5945 -0.33338,0.91156 -0.0344,0.15854 -0.0556,0.31954 -0.0661,0.48055 -0.003,0.16102 0.0106,0.32203 0.0159,0.48552 z m -2.10344,-1.91726 c -0.10848,0.14367 -0.20637,0.2923 -0.28575,0.45083 -0.082,0.15853 -0.127,0.32697 -0.13758,0.49789 -0.0159,0.1734 -0.005,0.3468 0.0238,0.51771 0.0291,0.16597 0.0688,0.35423 0.15346,0.47561 v 0 l -0.0847,0.007 0.24871,-0.46817 c 0.082,-0.15111 0.127,-0.31956 0.17992,-0.48552 0.0926,-0.33688 0.1561,-0.68368 0.23812,-1.02799 l 0.0132,0.003 c -0.0185,0.35174 -0.0529,0.70597 -0.12964,1.05523 -0.037,0.1734 -0.0926,0.34928 -0.17463,0.51524 -0.082,0.16102 -0.17727,0.31459 -0.2831,0.46322 l -0.045,0.0619 -0.0397,-0.0569 v 0 c -0.0661,-0.0917 -0.0847,-0.17588 -0.10848,-0.26505 -0.0212,-0.0867 -0.037,-0.17587 -0.0476,-0.26505 -0.0212,-0.17835 -0.0265,-0.3567 -0.003,-0.53505 0.0212,-0.17835 0.0794,-0.35422 0.16933,-0.51028 0.0873,-0.15853 0.19315,-0.30468 0.30957,-0.4434 z m -8.18885,-0.25019 c -0.16669,0.22293 -0.31221,0.46322 -0.38629,0.72331 -0.037,0.12881 -0.0529,0.26257 -0.0344,0.39138 0.0212,0.12881 0.0794,0.24771 0.16933,0.34431 v 0 l -0.0847,0.007 c 0.0582,-0.12385 0.12435,-0.24523 0.1905,-0.3666 0.0688,-0.1189 0.13229,-0.24029 0.18785,-0.36414 0.11906,-0.24523 0.21167,-0.50285 0.29104,-0.76542 l 0.0132,0.003 c -0.005,0.27744 -0.0794,0.54992 -0.17991,0.81001 -0.10319,0.26009 -0.254,0.50038 -0.41011,0.7357 l -0.0397,0.0619 -0.045,-0.0545 v 0 c -0.10055,-0.11395 -0.15875,-0.25514 -0.17463,-0.39881 -0.0132,-0.14367 0.0106,-0.28487 0.0556,-0.41862 0.0926,-0.26753 0.25665,-0.50038 0.43921,-0.71341 z m -4.65931,-0.31954 c -0.16669,0.22293 -0.31221,0.46321 -0.3863,0.72331 -0.037,0.1288 -0.0529,0.26257 -0.0344,0.39137 0.0212,0.12881 0.0794,0.24771 0.16933,0.34432 v 0 l -0.0847,0.007 c 0.0582,-0.12385 0.12435,-0.24524 0.1905,-0.36661 0.0688,-0.1189 0.13229,-0.24028 0.18785,-0.36413 0.11906,-0.24524 0.21167,-0.50286 0.29104,-0.76542 l 0.0132,0.003 c -0.005,0.27744 -0.0794,0.54992 -0.17992,0.81001 -0.10318,0.26009 -0.254,0.50037 -0.4101,0.73569 l -0.0397,0.062 -0.045,-0.0545 v 0 c -0.10054,-0.11394 -0.15875,-0.25514 -0.17462,-0.39881 -0.0159,-0.14367 0.0106,-0.28486 0.0556,-0.41863 0.0926,-0.26753 0.25665,-0.50037 0.43921,-0.71341 z m 3.10091,2.13277 c -0.008,-0.16101 -0.0265,-0.3245 -0.0291,-0.4855 0.005,-0.1635 0.0238,-0.32451 0.0529,-0.48552 0.0609,-0.31954 0.16933,-0.63413 0.32014,-0.92643 l 0.0397,-0.0768 0.0106,0.0843 c 0.0212,0.17091 0.0238,0.34431 0.005,0.51523 -0.0185,0.1734 -0.0794,0.33688 -0.11112,0.50285 -0.0344,0.16597 -0.0688,0.33441 -0.0741,0.50037 -0.003,0.0843 0.005,0.16845 0.0291,0.24772 0.0212,0.0817 0.0662,0.15605 0.0979,0.23532 l -0.005,0.003 c -0.0397,-0.0768 -0.09,-0.14862 -0.1217,-0.23037 -0.0291,-0.0817 -0.0397,-0.17092 -0.0423,-0.25761 -0.003,-0.1734 0.0238,-0.34432 0.0529,-0.51276 0.0318,-0.17092 0.0926,-0.33193 0.11112,-0.4979 0.0212,-0.16596 0.0238,-0.33689 0.008,-0.50285 l 0.0503,0.007 c -0.1561,0.28734 -0.26723,0.5945 -0.33337,0.91157 -0.0344,0.15853 -0.0556,0.31954 -0.0662,0.48055 -0.003,0.16102 0.0106,0.32203 0.0159,0.48551 z m -6.15685,-0.17091 c -0.0132,-0.17836 -0.0318,-0.35423 -0.037,-0.53259 0.003,-0.17835 0.0212,-0.3567 0.0503,-0.53257 0.0609,-0.35175 0.17462,-0.69606 0.33602,-1.02057 l 0.037,-0.0768 0.0106,0.0843 c 0.0265,0.18827 0.0291,0.379 0.0132,0.56726 -0.0185,0.19074 -0.082,0.37156 -0.11377,0.55487 -0.0344,0.18331 -0.0688,0.36908 -0.0714,0.5524 0,0.0917 0.0106,0.18577 0.037,0.27247 0.0264,0.0892 0.0741,0.17092 0.11112,0.2601 l -0.005,0.003 c -0.045,-0.0843 -0.10054,-0.1635 -0.13494,-0.25267 -0.0318,-0.0917 -0.045,-0.18579 -0.0503,-0.28239 -0.005,-0.19073 0.0185,-0.379 0.0503,-0.56477 0.0318,-0.18827 0.0953,-0.36662 0.11377,-0.54992 0.0212,-0.18331 0.0212,-0.37156 0,-0.55488 l 0.0503,0.007 c -0.16668,0.31708 -0.28575,0.65644 -0.35189,1.00571 -0.0344,0.17339 -0.0556,0.35174 -0.0635,0.52761 0.003,0.17588 0.0159,0.35423 0.0238,0.53259 z m 1.41023,-1.7414 c -0.10584,0.39138 0.008,0.81744 0.28575,1.11221 l -0.0794,0.0223 c 0.037,-0.29478 0.0582,-0.58955 0.10054,-0.88433 0.0556,-0.29229 0.12171,-0.58212 0.21432,-0.86698 l 0.0132,0.003 c -0.0212,0.59697 -0.14552,1.17661 -0.23813,1.76121 l -0.0159,0.0966 -0.0661,-0.0743 c -0.2831,-0.32698 -0.36512,-0.78276 -0.22754,-1.16919 z m 3.55335,0.41119 c -0.10583,0.39139 0.008,0.81744 0.28575,1.11221 l -0.0794,0.0223 c 0.037,-0.29478 0.0582,-0.58955 0.10054,-0.88433 0.0556,-0.2923 0.12171,-0.58212 0.21431,-0.86698 l 0.0132,0.003 c -0.0212,0.59698 -0.14552,1.17414 -0.23812,1.76121 l -0.0159,0.0966 -0.0662,-0.0743 c -0.2831,-0.32697 -0.36512,-0.78276 -0.22754,-1.16919 z m -0.83079,1.38966 c -0.0132,-0.17836 -0.0318,-0.35423 -0.037,-0.53259 0.003,-0.17835 0.0212,-0.3567 0.0503,-0.53257 0.0609,-0.35175 0.17462,-0.69606 0.33602,-1.02057 l 0.037,-0.0768 0.0106,0.0843 c 0.0264,0.18827 0.0291,0.379 0.0132,0.56726 -0.0185,0.19074 -0.082,0.37156 -0.11377,0.55487 -0.0344,0.18331 -0.0688,0.36908 -0.0714,0.5524 0,0.0917 0.0106,0.18577 0.037,0.27247 0.0265,0.0891 0.0741,0.17092 0.11112,0.2601 l -0.005,0.003 c -0.045,-0.0843 -0.10054,-0.1635 -0.13494,-0.25267 -0.0318,-0.0917 -0.045,-0.18579 -0.0503,-0.28239 -0.005,-0.19073 0.0185,-0.379 0.0503,-0.56477 0.0318,-0.18827 0.0953,-0.36662 0.11377,-0.54992 0.0212,-0.18331 0.0212,-0.37156 0,-0.55488 l 0.0503,0.007 c -0.16669,0.31708 -0.28575,0.65644 -0.3519,1.00571 -0.0344,0.17339 -0.0556,0.35175 -0.0635,0.52761 0.003,0.17588 0.0159,0.35423 0.0238,0.53259 z m -4.68048,-2.03865 c -0.16669,0.22293 -0.3175,0.46569 -0.39158,0.72578 -0.037,0.12881 -0.0556,0.26505 -0.037,0.39386 0.0185,0.12881 0.0767,0.25019 0.16933,0.34431 v 0 l -0.0847,0.007 c 0.0609,-0.12633 0.127,-0.2477 0.19315,-0.3666 0.0714,-0.1189 0.13494,-0.24029 0.1905,-0.36662 0.12171,-0.24771 0.21431,-0.50285 0.29633,-0.77037 l 0.0132,0.003 c -0.005,0.2799 -0.0847,0.55239 -0.18785,0.81495 -0.10584,0.26258 -0.25929,0.50286 -0.4154,0.73818 l -0.0397,0.0619 -0.045,-0.0545 v 0 c -0.10054,-0.11394 -0.16139,-0.25762 -0.17462,-0.40128 -0.0132,-0.14367 0.0132,-0.28735 0.0582,-0.42111 0.0952,-0.26753 0.26194,-0.50037 0.4445,-0.71588 z m -38.332842,1.54322 c 0.07673,0.19074 0.103188,0.40377 0.06879,0.61185 -0.01587,0.10404 -0.03969,0.21055 -0.0979,0.3022 -0.06085,0.0892 -0.129646,0.17588 -0.230187,0.23037 l -0.01058,-0.007 c 0.03969,-0.0991 0.08467,-0.18579 0.119063,-0.27744 0.03704,-0.0891 0.08467,-0.17587 0.113771,-0.27 0.05556,-0.18827 0.06085,-0.38891 0.02381,-0.58707 z m -0.27252,1.14194 c -0.03175,-0.14615 -0.06615,-0.28981 -0.09525,-0.43597 -0.02646,-0.14614 -0.06615,-0.28981 -0.08731,-0.43596 -0.04498,-0.2923 -0.08202,-0.58708 -0.0926,-0.88433 l 0.01323,-0.003 c 0.0926,0.28487 0.15875,0.57717 0.214313,0.86698 0.02381,0.14615 0.02117,0.29726 0.03704,0.4434 0.01323,0.14863 0.01852,0.29725 0.02646,0.44588 z m 1.037166,-1.33763 c 0.02381,0.23285 0.124354,0.45083 0.164042,0.68368 0.02381,0.11642 0.04498,0.23285 0.04762,0.35175 0,0.1189 -0.01852,0.24275 -0.07937,0.34679 l -0.0053,-0.003 c 0.02381,-0.11643 0.0291,-0.2279 0.01852,-0.34432 -0.0053,-0.11394 -0.02117,-0.23037 -0.0344,-0.34679 -0.02646,-0.23037 -0.111125,-0.45578 -0.116416,-0.69111 z m 2.050521,0.0346 c 0.134938,0.38643 0.05292,0.84221 -0.227542,1.16919 l -0.06614,0.0743 -0.01588,-0.0966 c -0.0926,-0.5846 -0.216959,-1.16424 -0.238125,-1.76122 l 0.01323,-0.003 c 0.0926,0.28487 0.15875,0.57717 0.214312,0.86698 0.04233,0.2923 0.0635,0.58955 0.100542,0.88432 l -0.07937,-0.0223 c 0.277812,-0.29477 0.391583,-0.71835 0.28575,-1.11221 z m 2.973917,-0.25018 c 0.134937,0.38642 0.05292,0.84221 -0.227542,1.16918 l -0.06615,0.0743 -0.01588,-0.0966 c -0.0926,-0.58459 -0.216958,-1.16423 -0.238125,-1.76122 l 0.01323,-0.003 c 0.09261,0.28487 0.15875,0.57717 0.214313,0.86699 0.04233,0.29229 0.0635,0.58955 0.100542,0.88432 l -0.07937,-0.0223 c 0.277812,-0.29477 0.391583,-0.71835 0.28575,-1.11221 z m 6.4135,-0.18331 c 0.06879,0.20808 0.07937,0.43349 0.0291,0.649 -0.05292,0.21551 -0.150813,0.41863 -0.293688,0.59946 l -0.06879,0.0891 -0.01058,-0.11147 c -0.03175,-0.31212 -0.07673,-0.62176 -0.105833,-0.93386 v 0.005 c -0.04763,-0.30221 -0.08731,-0.60441 -0.0979,-0.9091 l 0.01323,-0.003 c 0.09525,0.29477 0.161396,0.59203 0.219604,0.89175 v 0.003 0.003 c 0.02646,0.31211 0.03704,0.62422 0.06086,0.93634 l -0.07937,-0.0248 c 0.140229,-0.16101 0.248708,-0.35422 0.314854,-0.55734 0.06615,-0.20312 0.0635,-0.42606 0.0079,-0.63413 z m 3.852338,-0.41863 c 0.0291,0.16845 0.0344,0.33689 0.045,0.50533 l 0.0238,0.50533 0.008,0.25266 c -0.005,0.0867 0.0132,0.16349 -0.0238,0.26753 -0.008,0.01 -0.0106,0.0198 -0.0344,0.0272 -0.0185,0.007 -0.0397,-0.003 -0.0476,-0.007 -0.0185,-0.0123 -0.0238,-0.0223 -0.0317,-0.0322 -0.0159,-0.0198 -0.0265,-0.0396 -0.037,-0.0594 l -0.0582,-0.11642 c -0.0185,-0.0372 -0.037,-0.0768 -0.0582,-0.11148 -0.0106,-0.0173 -0.0212,-0.0346 -0.0318,-0.0471 -0.005,-0.005 -0.0132,-0.0124 -0.0106,-0.01 0,0.005 0.0291,0 0.0265,-0.005 l -0.0794,-0.0223 c -0.0926,-0.58459 -0.21696,-1.16423 -0.23813,-1.7612 l 0.0132,-0.003 c 0.0926,0.28486 0.15875,0.57716 0.21431,0.86698 0.0423,0.2923 0.0635,0.58955 0.10055,0.88433 l -0.0794,-0.0223 c 0.0132,-0.0223 0.0662,-0.0322 0.0873,-0.0149 0.0212,0.0124 0.0291,0.0223 0.037,0.0322 0.0159,0.0198 0.0265,0.0396 0.0397,0.0595 0.0212,0.0396 0.0397,0.0793 0.0556,0.1189 l 0.0529,0.11394 c 0.008,0.0173 0.0185,0.0372 0.0291,0.0521 0.005,0.007 0.0106,0.0149 0.0106,0.0149 0.003,-0.005 -0.037,0.005 -0.0265,0.005 0.0212,-0.0545 0.0212,-0.15358 0.0238,-0.23285 l 0.003,-0.25266 -0.003,-0.50533 c -0.005,-0.16844 -0.003,-0.33689 -0.0238,-0.50285 z m -1.926172,1.9792 c 0.0053,-0.161 0.01587,-0.3245 0.01587,-0.48551 -0.0079,-0.16101 -0.03175,-0.32202 -0.06615,-0.48055 -0.06615,-0.31707 -0.179916,-0.62423 -0.333375,-0.91158 l 0.05027,-0.007 c -0.01587,0.16844 -0.01323,0.33688 0.0079,0.50285 0.01852,0.16596 0.07938,0.32698 0.111125,0.49789 0.0291,0.16845 0.05292,0.33937 0.05292,0.51276 -0.0026,0.0867 -0.01323,0.1734 -0.04233,0.25762 -0.0291,0.0817 -0.08202,0.15358 -0.121708,0.23037 l -0.0053,-0.003 c 0.03175,-0.0793 0.07673,-0.15358 0.0979,-0.23532 0.02381,-0.0817 0.0291,-0.16349 0.0291,-0.2477 -0.0053,-0.16845 -0.03969,-0.33441 -0.07408,-0.50038 -0.0291,-0.16596 -0.0926,-0.32697 -0.111125,-0.50285 -0.01852,-0.17092 -0.01588,-0.34432 0.0053,-0.51524 l 0.01058,-0.0843 0.03969,0.0768 c 0.150813,0.29478 0.259292,0.60689 0.320146,0.92644 0.0291,0.16101 0.04762,0.32202 0.05292,0.48551 -0.0026,0.16349 -0.01852,0.3245 -0.0291,0.48551 z m -10.183812,0.13377 c 0.0053,-0.16102 0.01588,-0.3245 0.01588,-0.48551 -0.0079,-0.16101 -0.03175,-0.32203 -0.06615,-0.48057 -0.06615,-0.31706 -0.179917,-0.62422 -0.333375,-0.91156 l 0.05027,-0.007 c -0.01587,0.16845 -0.01323,0.33688 0.0079,0.50285 0.01852,0.16597 0.07938,0.32697 0.111125,0.4979 0.02911,0.16844 0.05292,0.33936 0.05292,0.51275 -0.0026,0.0867 -0.01323,0.1734 -0.04233,0.25762 -0.0291,0.0817 -0.08202,0.15358 -0.121709,0.23037 l -0.0053,-0.003 c 0.03175,-0.0793 0.07673,-0.15358 0.0979,-0.23533 0.02381,-0.0817 0.0291,-0.16348 0.0291,-0.24771 -0.0053,-0.16844 -0.03969,-0.33441 -0.07408,-0.50037 -0.0291,-0.16596 -0.0926,-0.32698 -0.111125,-0.50285 -0.01852,-0.17091 -0.01588,-0.34431 0.0053,-0.51524 l 0.01058,-0.0842 0.03969,0.0768 c 0.150812,0.29477 0.259292,0.60689 0.320146,0.92643 0.0291,0.16101 0.04762,0.32202 0.05292,0.48551 -0.0026,0.16349 -0.01852,0.3245 -0.0291,0.48551 z m 3.608917,-0.13872 c 0.0053,-0.16102 0.01587,-0.3245 0.01587,-0.48551 -0.0079,-0.16101 -0.03175,-0.32203 -0.06615,-0.48056 -0.06615,-0.31707 -0.179917,-0.62422 -0.333375,-0.91157 l 0.05027,-0.007 c -0.01587,0.16845 -0.01323,0.33689 0.0079,0.50286 0.01852,0.16596 0.07937,0.32697 0.111125,0.49789 0.0291,0.16844 0.05292,0.33936 0.05292,0.51276 -0.0026,0.0867 -0.01323,0.1734 -0.04233,0.25761 -0.0291,0.0817 -0.08202,0.15359 -0.121708,0.23038 l -0.0053,-0.003 c 0.03175,-0.0793 0.07673,-0.15358 0.0979,-0.23532 0.02381,-0.0817 0.0291,-0.16349 0.0291,-0.24772 -0.0053,-0.16843 -0.03969,-0.3344 -0.07408,-0.50036 -0.0291,-0.16598 -0.0926,-0.32698 -0.111125,-0.50286 -0.01852,-0.17091 -0.01587,-0.34431 0.0053,-0.51523 l 0.01058,-0.0843 0.03969,0.0768 c 0.150812,0.29477 0.259291,0.60689 0.320145,0.92643 0.02911,0.16101 0.04762,0.32203 0.05292,0.48552 -0.0026,0.16348 -0.01852,0.32449 -0.0291,0.48551 z m 2.119312,-1.9247 c 0.116417,0.13872 0.22225,0.28486 0.309562,0.44339 0.08996,0.15606 0.148167,0.33194 0.169334,0.51029 0.02117,0.17835 0.01852,0.3567 -0.0026,0.53505 -0.01058,0.0892 -0.02646,0.17835 -0.04763,0.26505 -0.02381,0.0891 -0.04233,0.1734 -0.108479,0.26504 v 0 l -0.03969,0.057 -0.04498,-0.0619 c -0.108479,-0.14615 -0.203729,-0.30221 -0.28575,-0.46322 -0.08202,-0.16597 -0.134937,-0.34183 -0.174625,-0.51523 -0.07673,-0.34927 -0.113771,-0.70102 -0.129646,-1.05525 l 0.01323,-0.003 c 0.08202,0.34432 0.145521,0.69111 0.238125,1.02799 0.05027,0.16845 0.0979,0.33441 0.179917,0.48551 l 0.248708,0.46817 -0.08467,-0.007 v 0 c 0.08467,-0.12138 0.124354,-0.31212 0.153458,-0.4756 0.02646,-0.17093 0.03704,-0.3468 0.02381,-0.51771 -0.01058,-0.1734 -0.05821,-0.34185 -0.137584,-0.4979 -0.07937,-0.15854 -0.177271,-0.30964 -0.28575,-0.45084 z m 8.191515,-0.25019 c 0.17991,0.21551 0.34395,0.44836 0.4392,0.7134 0.045,0.13377 0.0688,0.27496 0.0556,0.41863 -0.0159,0.14368 -0.0741,0.28487 -0.17462,0.39882 v 0 l -0.045,0.0545 -0.0397,-0.0619 c -0.15346,-0.23533 -0.30427,-0.4756 -0.41011,-0.73569 -0.10054,-0.26011 -0.17727,-0.53258 -0.17991,-0.81002 l 0.0132,-0.003 c 0.0794,0.26505 0.17198,0.52019 0.29104,0.76542 0.0529,0.12386 0.11906,0.24523 0.18785,0.36413 0.0662,0.1189 0.1323,0.24028 0.1905,0.36662 l -0.0847,-0.007 v 0 c 0.0926,-0.0941 0.15082,-0.21551 0.16934,-0.34432 0.0185,-0.12881 0.003,-0.26257 -0.0344,-0.39138 -0.0714,-0.2601 -0.21961,-0.50037 -0.3863,-0.72332 z m 4.65931,-0.31954 c 0.17991,0.21551 0.34396,0.44834 0.43921,0.7134 0.045,0.13376 0.0688,0.27496 0.0556,0.41862 -0.0159,0.14368 -0.0741,0.28488 -0.17463,0.39882 v 0 l -0.045,0.0545 -0.0397,-0.0619 c -0.15346,-0.23533 -0.30427,-0.4756 -0.41011,-0.7357 -0.10054,-0.2601 -0.17727,-0.53258 -0.17991,-0.81001 l 0.0132,-0.003 c 0.0794,0.26505 0.17198,0.5202 0.29105,0.76542 0.0529,0.12386 0.11906,0.24524 0.18785,0.36414 0.0662,0.1189 0.13229,0.24028 0.1905,0.36661 l -0.0847,-0.007 v 0 c 0.0926,-0.0941 0.15082,-0.21551 0.16934,-0.34432 0.0185,-0.12881 0.003,-0.26257 -0.0344,-0.39139 -0.0714,-0.26009 -0.2196,-0.50036 -0.38629,-0.72331 z m -3.11944,2.13772 c 0.005,-0.16101 0.0159,-0.32449 0.0159,-0.4855 -0.008,-0.16102 -0.0318,-0.32203 -0.0661,-0.48056 -0.0661,-0.31707 -0.17992,-0.62423 -0.33338,-0.91157 l 0.0503,-0.007 c -0.0159,0.16844 -0.0132,0.33689 0.008,0.50285 0.0185,0.16597 0.0794,0.32698 0.11113,0.4979 0.0291,0.16844 0.0529,0.33936 0.0529,0.51276 -0.003,0.0867 -0.0132,0.1734 -0.0423,0.25761 -0.0291,0.0817 -0.082,0.15359 -0.12171,0.23038 l -0.005,-0.003 c 0.0318,-0.0793 0.0767,-0.15358 0.0979,-0.23532 0.0238,-0.0817 0.0291,-0.16349 0.0291,-0.24772 -0.005,-0.16843 -0.0397,-0.3344 -0.0741,-0.50036 -0.0291,-0.16598 -0.0926,-0.32698 -0.11113,-0.50286 -0.0185,-0.17092 -0.0159,-0.34431 0.005,-0.51523 l 0.0106,-0.0843 0.0397,0.0768 c 0.15082,0.29477 0.2593,0.60689 0.32015,0.92643 0.0291,0.16101 0.0476,0.32202 0.0529,0.48552 -0.003,0.16348 -0.0185,0.32449 -0.0291,0.4855 z m 6.15685,-0.17091 c 0.008,-0.17835 0.0238,-0.35422 0.0238,-0.53257 -0.008,-0.17588 -0.0291,-0.35423 -0.0635,-0.52763 -0.0661,-0.34927 -0.18521,-0.68863 -0.3519,-1.00569 l 0.0503,-0.007 c -0.0212,0.18578 -0.0212,0.37155 0,0.55486 0.0185,0.18331 0.082,0.36166 0.11377,0.54992 0.0291,0.18578 0.0556,0.37404 0.0503,0.56478 -0.003,0.0941 -0.0185,0.19073 -0.0503,0.28238 -0.0344,0.0891 -0.09,0.17093 -0.13494,0.25267 l -0.005,-0.003 c 0.037,-0.0867 0.0847,-0.16844 0.11113,-0.26009 0.0265,-0.0891 0.037,-0.18083 0.037,-0.27248 -0.003,-0.18579 -0.037,-0.37157 -0.0714,-0.55239 -0.0291,-0.18331 -0.0952,-0.36166 -0.11377,-0.55488 -0.0185,-0.18825 -0.0132,-0.37899 0.0132,-0.56724 l 0.0106,-0.0843 0.037,0.0768 c 0.16139,0.32449 0.27516,0.66881 0.33602,1.02055 0.0291,0.17588 0.0476,0.35423 0.0503,0.53259 -0.005,0.17835 -0.0265,0.3567 -0.037,0.53257 z m -1.3917,-1.7414 c 0.13493,0.38643 0.0529,0.84221 -0.22755,1.16919 l -0.0661,0.0743 -0.0159,-0.0966 c -0.0926,-0.58459 -0.21696,-1.16423 -0.23812,-1.76121 l 0.0132,-0.003 c 0.0926,0.28486 0.15875,0.57716 0.21431,0.86698 0.0423,0.2923 0.0635,0.58955 0.10054,0.88432 l -0.0794,-0.0223 c 0.27781,-0.29478 0.39158,-0.71836 0.28575,-1.11222 z m -3.55071,0.40872 c 0.13493,0.38643 0.0529,0.84222 -0.22754,1.16919 l -0.0662,0.0743 -0.0159,-0.0966 c -0.0926,-0.58459 -0.21695,-1.16423 -0.23812,-1.76121 l 0.0132,-0.003 c 0.0926,0.28486 0.15875,0.57716 0.21431,0.86698 0.0423,0.2923 0.0635,0.58955 0.10054,0.88432 l -0.0794,-0.0223 c 0.27781,-0.29477 0.39158,-0.71835 0.28575,-1.11221 z m 0.80962,1.39461 c 0.008,-0.17835 0.0238,-0.35423 0.0238,-0.53258 -0.008,-0.17587 -0.0291,-0.35422 -0.0635,-0.52762 -0.0661,-0.34927 -0.1852,-0.68863 -0.35189,-1.0057 l 0.0503,-0.007 c -0.0212,0.18578 -0.0212,0.37157 0,0.55487 0.0185,0.1833 0.082,0.36165 0.11377,0.54992 0.0291,0.18577 0.0556,0.37404 0.0503,0.56478 -0.003,0.0941 -0.0185,0.19072 -0.0503,0.28238 -0.0344,0.0891 -0.09,0.17092 -0.13494,0.25267 l -0.005,-0.003 c 0.037,-0.0867 0.0847,-0.16845 0.11113,-0.26009 0.0264,-0.0891 0.037,-0.18083 0.037,-0.27248 -0.003,-0.18579 -0.037,-0.37157 -0.0714,-0.5524 -0.0291,-0.18331 -0.0952,-0.36166 -0.11377,-0.55486 -0.0185,-0.18827 -0.0132,-0.379 0.0132,-0.56726 l 0.0106,-0.0843 0.037,0.0768 c 0.1614,0.3245 0.27517,0.66882 0.33602,1.02057 0.0291,0.17587 0.0476,0.35422 0.0503,0.53257 -0.005,0.17835 -0.0265,0.3567 -0.037,0.53258 z m 4.69636,-2.04608 c 0.18256,0.21551 0.34925,0.44835 0.4445,0.71587 0.0476,0.13377 0.0741,0.27496 0.0582,0.42112 -0.0132,0.14366 -0.0741,0.28733 -0.17462,0.40128 v 0 l -0.045,0.0545 -0.0397,-0.0619 c -0.1561,-0.23532 -0.30956,-0.4756 -0.41539,-0.73817 -0.10319,-0.26257 -0.17992,-0.53505 -0.18786,-0.81496 l 0.0132,-0.003 c 0.082,0.26505 0.17463,0.52267 0.29634,0.77038 0.0556,0.12633 0.1217,0.24771 0.1905,0.36661 0.0688,0.12137 0.13493,0.24276 0.19314,0.36661 l -0.0847,-0.007 v 0 c 0.0926,-0.0941 0.15082,-0.2155 0.16934,-0.34432 0.0185,-0.1288 0,-0.26504 -0.037,-0.39386 -0.0741,-0.26009 -0.2249,-0.50284 -0.39159,-0.72578 z m -24.974034,2.37305 c -0.01323,-0.11394 -0.03175,-0.22789 -0.05292,-0.33936 -0.0291,-0.11147 -0.05027,-0.22294 -0.04233,-0.34184 l 0.0053,-0.003 c 0.06085,0.10403 0.08467,0.22046 0.08996,0.33688 0.01058,0.11642 0.01323,0.23037 0.0053,0.3468 z m 38.377824,-4.80308 c 0.0688,0.18578 0.1561,0.35917 0.25135,0.52762 0.0952,0.16844 0.19579,0.33688 0.30163,0.50285 l 0.3175,0.49789 c 0.10583,0.16597 0.21431,0.33194 0.31485,0.50285 -0.15081,-0.13624 -0.2831,-0.28734 -0.41275,-0.4434 -0.12964,-0.15358 -0.24342,-0.31706 -0.34925,-0.48798 -0.10319,-0.17093 -0.20373,-0.34432 -0.27781,-0.5301 -0.0714,-0.18083 -0.13758,-0.37157 -0.14552,-0.56973 z m 1.00277,-2.68022 c 0.0238,0.42854 0.045,0.8546 0.12171,1.27322 0.0635,0.42111 0.17198,0.83479 0.31221,1.23607 0.127,0.40625 0.30956,0.79763 0.51064,1.17662 0.20373,0.37901 0.43656,0.74561 0.71438,1.08745 -0.32544,-0.30221 -0.59002,-0.66138 -0.81757,-1.03542 -0.22489,-0.37652 -0.4101,-0.77534 -0.55298,-1.18653 -0.12964,-0.41368 -0.24077,-0.83478 -0.2831,-1.2658 -0.0318,-0.21303 -0.0318,-0.43101 -0.0423,-0.64405 0.003,-0.21302 0.0212,-0.42853 0.037,-0.64156 z m 24.92639,-0.50533 c -0.12435,0.31955 -0.25135,0.64157 -0.38893,0.95864 -0.15875,0.30715 -0.29898,0.62671 -0.47625,0.92643 -0.17463,0.3022 -0.3519,0.60194 -0.56092,0.88433 -0.19315,0.29229 -0.42069,0.5623 -0.64029,0.83725 -0.47096,0.52762 -0.98161,1.02552 -1.56369,1.4491 -0.57944,0.41864 -1.21179,0.78771 -1.91029,1.00075 0.33867,-0.13129 0.65617,-0.29725 0.96044,-0.48303 0.15346,-0.0917 0.30427,-0.18579 0.44979,-0.28735 0.14817,-0.0966 0.28839,-0.20808 0.42862,-0.31459 0.55827,-0.43349 1.06363,-0.92395 1.51871,-1.45158 0.45773,-0.52762 0.85725,-1.09488 1.21973,-1.6869 0.18786,-0.28982 0.33867,-0.60193 0.51065,-0.90166 z m -41.7195,5.21676 c 0.20373,-0.34184 0.42598,-0.66633 0.63236,-1.00074 0.10583,-0.16597 0.20637,-0.33193 0.30162,-0.50285 0.0953,-0.17092 0.18257,-0.34432 0.25136,-0.52762 -0.008,0.19816 -0.0714,0.3889 -0.14552,0.5722 -0.0741,0.18579 -0.17198,0.35918 -0.27782,0.5301 -0.10847,0.16845 -0.22225,0.33193 -0.34925,0.48551 -0.12964,0.15606 -0.26193,0.30716 -0.41275,0.4434 z m -1.47902,0.0644 c 0.27782,-0.34184 0.51065,-0.70845 0.71438,-1.08745 0.20108,-0.38147 0.38364,-0.77037 0.51064,-1.17662 0.13759,-0.40376 0.24871,-0.81744 0.31221,-1.23606 0.0794,-0.41864 0.0979,-0.84469 0.12171,-1.27323 0.0159,0.21303 0.0344,0.42854 0.0318,0.64404 -0.0106,0.21551 -0.0106,0.43101 -0.0423,0.64404 -0.0423,0.43102 -0.15346,0.85213 -0.28311,1.2658 -0.14287,0.4112 -0.32808,0.81001 -0.55298,1.18653 -0.22225,0.37156 -0.48683,0.72826 -0.81227,1.03295 z m -17.727089,0.77533 c -0.695854,-0.21304 -1.328208,-0.5846 -1.907646,-1.00075 -0.579437,-0.4211 -1.092729,-0.919 -1.563687,-1.44662 -0.22225,-0.27248 -0.447146,-0.54496 -0.640292,-0.83726 -0.209021,-0.28238 -0.386292,-0.58212 -0.560917,-0.88432 -0.177271,-0.29973 -0.3175,-0.61928 -0.47625,-0.92643 -0.134937,-0.31707 -0.261937,-0.6391 -0.388937,-0.96112 l 0.455083,0.93139 c 0.171979,0.29973 0.322792,0.61184 0.510646,0.90166 0.359833,0.58955 0.762,1.15928 1.219729,1.6869 0.455083,0.52763 0.960438,1.01809 1.518708,1.45158 0.277813,0.21798 0.568855,0.42358 0.875771,0.60194 0.301625,0.18578 0.621771,0.35422 0.957792,0.48303 z m 26.151429,1.20882"
       inkscape:label="front-folds" />
    <path
       id="path344"
       style="display:inline;fill:none;stroke:#33ee42;stroke-width:0.265;stroke-linecap:round;stroke-linejoin:round;stroke-miterlimit:8.28928;stroke-dasharray:none;stroke-dashoffset:0;stroke-opacity:1"
       class="st16"
       d="m 148.22794,145.36847 c -0.72231,0.50535 -1.61661,1.11918 -2.65377,1.79387 -1.1774,0.76465 -3.6195,2.31511 -7.112,4.18042 -5.78379,3.08769 -10.67065,5.02708 -14.224,6.42673 -3.02154,1.18798 -5.55361,2.08491 -7.29721,2.68287 M 86.077314,145.46107 c 0.6985,0.48684 1.545167,1.06627 2.518834,1.69863 1.177395,0.76464 3.6195,2.3151 7.111999,4.18041 5.783793,3.08769 10.670643,5.02709 14.224003,6.42673 3.02154,1.18798 5.5536,2.08492 7.29721,2.68288 m 33.31104,-14.98865 -1.74625,1.33086 c -0.78582,0.55827 -1.84679,1.29381 -3.11944,2.12195 -1.1774,0.76465 -3.6195,2.31511 -7.112,4.18042 -5.78379,3.08769 -10.67065,5.02708 -14.224,6.42673 -3.02154,1.18798 -5.5536,2.08492 -7.29721,2.68287 m -33.308394,-16.74283 1.74625,1.33086 c 0.785812,0.55827 1.846792,1.29381 3.119437,2.12195 1.177396,0.76465 3.6195,2.31511 7.112,4.18042 5.783787,3.08769 10.670647,5.02708 14.223997,6.42673 3.02154,1.18798 5.55361,2.08492 7.29721,2.68287 m -3.9899,-17.99695 h 7.38714 m 3.0533,-68.241336 c -0.12171,-0.203729 -0.72231,-0.460375 -1.01335,-0.669396 -0.11113,-0.07937 -0.30163,-0.195791 -0.57415,-0.264583 h -4.94506 m 23.60245,35.554975 -17.51968,-35.544392 c -0.0423,-0.108479 -0.11112,-0.267229 -0.21696,-0.441854 -0.12171,-0.203729 -0.27516,-0.460375 -0.56356,-0.669396 -0.11112,-0.07937 -0.30162,-0.195791 -0.57415,-0.264583 m 17.04445,36.914665 -17.46515,-35.491199 m 28.95337,70.371219 c 4.01077,-12.25492 1.76549,-21.83075 -9.65832,-34.87446 l -1.82195,-0.006 c -10.24975,8.27047 -18.08782,21.83076 -18.30123,33.62589 10.24996,0.41804 23.44473,0.9816 29.7815,1.25412 M 110.17821,75.965614 c 0.12171,-0.203729 0.72231,-0.460375 1.01335,-0.669396 0.11113,-0.07937 0.30163,-0.195791 0.57415,-0.264583 h 5.38427 M 93.118893,110.58661 110.63065,75.042218 c 0.0423,-0.108479 0.11112,-0.267229 0.21696,-0.441854 0.1217,-0.203729 0.27516,-0.460375 0.56356,-0.669396 0.11112,-0.07937 0.30162,-0.195791 0.57414,-0.264583 h 9.89277 m -8.73918,67.996255 h 7.59353 M 94.940849,110.58105 112.406,75.089851 m 38.47836,68.058759 -30.15192,-1.48597 m -7.59354,0 -29.953138,1.79775 m 0.274823,2.00068 c -4.010771,-12.25493 -1.765469,-21.83076 9.658308,-34.87446 l 1.821963,-0.006 c 10.149414,8.1333 18.258894,20.19565 18.301224,33.6259 -10.24995,0.41804 -23.444724,0.9816 -29.781495,1.25412"
       inkscape:label="front-main" />
    <g
       id="g19951"
       style="display:inline;fill:#ffffff;fill-opacity:1;stroke:#3949ca;stroke-width:0.265;stroke-miterlimit:4;stroke-dasharray:none;stroke-opacity:1"
       transform="translate(-0.1614,-0.39159)"
       inkscape:label="front-bust-bow">
      <path
         id="path348"
         style="display:inline;fill:#ffffff;fill-opacity:1;stroke:#3949ca;stroke-width:0.265;stroke-miterlimit:4;stroke-dasharray:none;stroke-dashoffset:0;stroke-opacity:1"
         class="st17"
         d="m 115.54396,162.18803 c 0,0 -1.41023,20.03425 -2.07963,22.70919 l 2.17753,-0.29898 c 0,0 1.14035,-20.42848 1.27264,-21.51327 0.13494,-1.0795 -1.37054,-0.89694 -1.37054,-0.89694 z m 1.84944,0.40746 c 0,0 -0.51859,4.3815 -0.17198,6.96648 0.34396,2.58498 0.44185,14.73993 0.7911,15.53104 l 1.88648,0.87312 c 0,0 -0.88371,-12.16289 -1.09537,-14.46212 -0.21167,-2.29923 -0.20902,-6.5405 -0.20902,-6.5405 l -0.5715,-3.02419 z" />
      <path
         class="st17"
         d="m 116.18161,160.69843 c 0.0529,0.33602 -2.75961,1.94468 -4.02696,3.01625 -1.26471,1.0742 -1.03188,2.32039 -0.35454,4.0296 0,0 0.32543,0.71967 1.15093,1.17475 0.8255,0.45508 1.07421,-1.26206 1.07421,-1.26206 l -0.30427,-0.40482 c 0,0 -1.33085,-1.47637 -0.21167,-2.40241 1.11919,-0.92604 2.18811,-1.66688 2.18811,-1.66688 l 1.42081,-1.12977 0.84931,-0.36248 c 0,0 3.72534,4.31271 3.22792,7.22313 0,0 2.16694,-0.51329 0.9816,-3.26496 -1.18533,-2.75167 -4.38679,-5.04296 -4.38679,-5.04296 z"
         id="path350"
         style="display:inline;fill:#ffffff;fill-opacity:1;stroke:#3949ca;stroke-width:0.265;stroke-miterlimit:4;stroke-dasharray:none;stroke-dashoffset:0;stroke-opacity:1" />
      <path
         class="st17"
         d="m 118.02046,161.18261 c 0,0 1.89971,1.43669 2.04787,2.87602 0.21432,2.06375 1.43669,4.26509 1.97909,4.33123 0,0 -0.30163,0.38629 -0.99748,0.71173 -0.69586,0.32809 -1.48431,-0.61912 -1.48431,-0.61912 0,0 -1.9738,-4.13544 -1.62984,-6.604 l -1.43404,0.65616 c 0,0 -0.34131,4.7969 -1.57427,6.25211 0,0 -1.45785,0.75406 -2.04523,0.0714 0.27517,-0.13759 1.16152,-2.10344 1.54252,-4.39473 0.381,-2.2913 1.74625,-3.2729 1.99231,-3.5613 z"
         id="path352"
         style="display:inline;fill:#ffffff;fill-opacity:1;stroke:#3949ca;stroke-width:0.265;stroke-miterlimit:4;stroke-dasharray:none;stroke-dashoffset:0;stroke-opacity:1" />
      <path
         class="st17"
         d="m 118.02046,161.18261 c 0,0 1.89971,1.43669 2.04787,2.87602 0.21432,2.06375 1.43669,4.26509 1.97909,4.33123 0,0 -0.30163,0.38629 -0.99748,0.71173 -0.69586,0.32809 -1.48431,-0.61912 -1.48431,-0.61912 0,0 -1.9738,-4.13544 -1.62984,-6.604 l -1.43404,0.65616 c 0,0 -0.34131,4.7969 -1.57427,6.25211 0,0 -1.45785,0.75406 -2.04523,0.0714 0.27517,-0.13759 1.16152,-2.10344 1.54252,-4.39473 0.381,-2.2913 1.74625,-3.2729 1.99231,-3.5613 z"
         id="path354"
         style="display:inline;fill:#ffffff;fill-opacity:1;stroke:#3949ca;stroke-width:0.265;stroke-miterlimit:4;stroke-dasharray:none;stroke-dashoffset:0;stroke-opacity:1" />
      <path
         id="path358"
         style="display:inline;fill:#ffffff;fill-opacity:1;stroke:#3949ca;stroke-width:0.265;stroke-miterlimit:4;stroke-dasharray:none;stroke-dashoffset:0;stroke-opacity:1"
         class="st17"
         d="m 116.57583,161.58213 c 0,0 -1.35995,1.30175 -1.18797,2.8284 0.16933,1.52929 0.47625,-0.53446 0.47625,-0.53446 m 2.19604,-2.09021 c 0,0 0.91281,1.06363 1.08214,1.79917 0.16934,0.73819 -0.47096,0.78052 -0.50535,0.26194 0.0212,-1.016 -0.39952,-1.96586 -0.57679,-2.06111 z" />
      <path
         class="st17"
         d="m 116.18161,160.69843 c 0,0 1.03452,-0.48684 1.60602,-0.0952 0,0 0.71966,0.94456 0.0926,2.04522 0,0 -0.77523,0.33073 -1.39435,0.0476 0,0.003 0.2487,-1.29381 -0.30427,-1.9976"
         id="path360"
         style="display:inline;fill:#ffffff;fill-opacity:1;stroke:#3949ca;stroke-width:0.265;stroke-miterlimit:4;stroke-dasharray:none;stroke-dashoffset:0;stroke-opacity:1" />
    </g>
    <g
       id="g754"
       style="display:inline;fill:#ffffff;fill-opacity:1;stroke:#eb5fbf;stroke-width:1.00157;stroke-miterlimit:8.28928;stroke-dasharray:none;stroke-dashoffset:0;stroke-opacity:1"
       transform="matrix(0.26458333,0,0,0.26458333,-171.39137,212.4668)"
       inkscape:label="front-neck-bow">
      <path
         id="path740"
         style="fill:#ffffff;fill-opacity:1;stroke:#eb5fbf;stroke-width:1.00157;stroke-miterlimit:8.28928;stroke-dasharray:none;stroke-dashoffset:0;stroke-opacity:1"
         class="st17"
         d="m 1086.02,-517.66 c 0,0 -5.33,75.72 -7.86,85.83 l 8.23,-1.13 c 0,0 4.31,-77.21 4.81,-81.31 0.51,-4.07 -5.18,-3.39 -5.18,-3.39 z m 7,1.54 c 0,0 -1.96,16.56 -0.65,26.33 1.3,9.77 1.67,55.71 2.99,58.7 l 7.13,3.3 c 0,0 -3.34,-45.97 -4.14,-54.66 -0.8,-8.69 -0.79,-24.72 -0.79,-24.72 l -2.16,-11.43 z" />
      <path
         class="st17"
         d="m 1088.43,-523.28 c 0.2,1.27 -10.43,7.35 -15.22,11.4 -4.78,4.06 -3.9,8.77 -1.34,15.23 0,0 1.23,2.72 4.35,4.44 3.12,1.72 4.06,-4.77 4.06,-4.77 l -1.15,-1.53 c 0,0 -5.03,-5.58 -0.8,-9.08 4.23,-3.5 8.27,-6.3 8.27,-6.3 l 5.37,-4.27 3.21,-1.37 c 0,0 14.08,16.3 12.2,27.3 0,0 8.19,-1.94 3.71,-12.34 -4.48,-10.4 -16.58,-19.06 -16.58,-19.06 z"
         id="path742"
         style="fill:#ffffff;fill-opacity:1;stroke:#eb5fbf;stroke-width:1.00157;stroke-miterlimit:8.28928;stroke-dasharray:none;stroke-dashoffset:0;stroke-opacity:1" />
      <path
         class="st17"
         d="m 1095.39,-521.45 c 0,0 7.18,5.43 7.74,10.87 0.81,7.8 5.43,16.12 7.48,16.37 0,0 -1.14,1.46 -3.77,2.69 -2.63,1.24 -5.61,-2.34 -5.61,-2.34 0,0 -7.46,-15.63 -6.16,-24.96 l -5.42,2.48 c 0,0 -1.29,18.13 -5.95,23.63 0,0 -5.51,2.85 -7.73,0.27 1.04,-0.52 4.39,-7.95 5.83,-16.61 1.44,-8.66 6.6,-12.37 7.53,-13.46 z"
         id="path744"
         style="fill:#ffffff;fill-opacity:1;stroke:#eb5fbf;stroke-width:1.00157;stroke-miterlimit:8.28928;stroke-dasharray:none;stroke-dashoffset:0;stroke-opacity:1" />
      <path
         class="st17"
         d="m 1095.39,-521.45 c 0,0 7.18,5.43 7.74,10.87 0.81,7.8 5.43,16.12 7.48,16.37 0,0 -1.14,1.46 -3.77,2.69 -2.63,1.24 -5.61,-2.34 -5.61,-2.34 0,0 -7.46,-15.63 -6.16,-24.96 l -5.42,2.48 c 0,0 -1.29,18.13 -5.95,23.63 0,0 -5.51,2.85 -7.73,0.27 1.04,-0.52 4.39,-7.95 5.83,-16.61 1.44,-8.66 6.6,-12.37 7.53,-13.46 z"
         id="path746"
         style="fill:#ffffff;fill-opacity:1;stroke:#eb5fbf;stroke-width:1.00157;stroke-miterlimit:8.28928;stroke-dasharray:none;stroke-dashoffset:0;stroke-opacity:1" />
      <path
         id="path750"
         style="fill:#ffffff;fill-opacity:1;stroke:#eb5fbf;stroke-width:1.00157;stroke-miterlimit:8.28928;stroke-dasharray:none;stroke-dashoffset:0;stroke-opacity:1"
         class="st17"
         d="m 1089.92,-519.94 c 0,0 -5.14,4.92 -4.49,10.69 0.64,5.78 1.8,-2.02 1.8,-2.02 m 8.3,-7.9 c 0,0 3.45,4.02 4.09,6.8 0.64,2.79 -1.78,2.95 -1.91,0.99 0.08,-3.84 -1.51,-7.43 -2.18,-7.79 z" />
      <path
         class="st17"
         d="m 1088.43,-523.28 c 0,0 3.91,-1.84 6.07,-0.36 0,0 2.72,3.57 0.35,7.73 0,0 -2.93,1.25 -5.27,0.18 0,0.01 0.94,-4.89 -1.15,-7.55"
         id="path752"
         style="fill:#ffffff;fill-opacity:1;stroke:#eb5fbf;stroke-width:1.00157;stroke-miterlimit:8.28928;stroke-dasharray:none;stroke-dashoffset:0;stroke-opacity:1" />
    </g>
    <path
       id="path534-1-8-0"
       style="clip-rule:evenodd;display:inline;fill:none;fill-rule:evenodd;stroke:#5668ee;stroke-width:0.132;stroke-linecap:round;stroke-miterlimit:8.28928;stroke-dasharray:0.396, 0.396;stroke-dashoffset:0;stroke-opacity:1"
       class="st14"
       d="m 248.325,143.97137 c 6.11386,-13.87127 -3.32116,-24.87562 -9.09527,-32.86912 l -1.086,-0.0114 c -0.14219,-0.4956 -17.19137,12.72119 -17.87938,33.13807 m -37.1855,0.006 c -6.0045,-13.84447 3.74867,-24.87167 9.57305,-33.24939 l 0.99539,-0.003 c 0.16862,-0.20814 16.97946,13.11196 17.3795,33.25792"
       inkscape:label="back-stitches"
       sodipodi:nodetypes="cccccccc" />
    <path
       id="path714"
       style="display:inline;opacity:0.3;fill:#000000;fill-opacity:1;stroke:#000000;stroke-width:0.245025;stroke-miterlimit:8.28928;stroke-dasharray:none;stroke-dashoffset:0;stroke-opacity:1"
       d="m 183.73475,143.55891 c 0.0238,0.21263 0.12436,0.41168 0.16404,0.62431 0.0238,0.10631 0.045,0.21263 0.0476,0.32121 0,0.10862 -0.0185,0.22167 -0.0794,0.31667 l -0.005,-0.002 c 0.0238,-0.10632 0.0291,-0.20811 0.0185,-0.31441 -0.005,-0.10402 -0.0212,-0.21037 -0.0344,-0.31669 -0.0265,-0.21036 -0.11113,-0.4162 -0.11642,-0.6311 z m 2.05052,0.0317 c 0.13494,0.35287 0.0529,0.76907 -0.22754,1.06766 l -0.0661,0.0679 -0.0159,-0.0883 c -0.0926,-0.53383 -0.21696,-1.06315 -0.23812,-1.6083 l 0.0132,-0.002 c 0.0926,0.26013 0.15875,0.52705 0.21432,0.79171 0.0423,0.26692 0.0635,0.53836 0.10054,0.80753 l -0.0794,-0.0203 c 0.27782,-0.26919 0.39159,-0.65598 0.28575,-1.01565 z m 2.97392,-0.22847 c 0.13494,0.35288 0.0529,0.76908 -0.22754,1.06767 l -0.0662,0.0679 -0.0159,-0.0883 c -0.0926,-0.53383 -0.21696,-1.06314 -0.23813,-1.60829 l 0.0132,-0.003 c 0.0926,0.26013 0.15875,0.52706 0.21431,0.79171 0.0423,0.26692 0.0635,0.53835 0.10055,0.80753 l -0.0794,-0.0204 c 0.27781,-0.26917 0.39158,-0.65598 0.28575,-1.01563 z m 6.4135,-0.16738 c 0.0688,0.19001 0.0794,0.39585 0.0291,0.59265 -0.0529,0.19678 -0.15081,0.38227 -0.29368,0.54739 l -0.0688,0.0814 -0.0106,-0.10184 c -0.0317,-0.28502 -0.0767,-0.56777 -0.10583,-0.85277 v 0.005 c -0.0476,-0.27596 -0.0873,-0.55192 -0.0979,-0.83015 l 0.0132,-0.002 c 0.0953,0.26918 0.1614,0.54062 0.21961,0.81431 v 0.003 0.002 c 0.0264,0.28501 0.037,0.57002 0.0608,0.85504 l -0.0794,-0.0226 c 0.14023,-0.14703 0.24871,-0.32346 0.31486,-0.50894 0.0661,-0.18549 0.0635,-0.38906 0.008,-0.57908 z m 3.85233,-0.38228 c 0.0291,0.15381 0.0344,0.30763 0.045,0.46144 l 0.0238,0.46146 0.008,0.23072 c -0.003,0.0792 0.0132,0.14929 -0.0238,0.24429 -0.008,0.009 -0.0106,0.0181 -0.0344,0.0249 -0.0185,0.007 -0.0397,-0.002 -0.0476,-0.007 -0.0185,-0.0115 -0.0238,-0.0204 -0.0318,-0.0294 -0.0159,-0.018 -0.0265,-0.0362 -0.037,-0.0543 l -0.0582,-0.10632 c -0.0185,-0.0339 -0.037,-0.0701 -0.0582,-0.10183 -0.0106,-0.0159 -0.0212,-0.0316 -0.0317,-0.043 -0.005,-0.005 -0.0132,-0.0115 -0.0106,-0.009 0,0.005 0.0291,0 0.0265,-0.005 l -0.0794,-0.0203 c -0.0926,-0.53382 -0.21696,-1.06315 -0.23812,-1.60827 l 0.0132,-0.002 c 0.0926,0.26012 0.15875,0.52703 0.21432,0.79169 0.0423,0.26692 0.0635,0.53836 0.10054,0.80754 l -0.0794,-0.0203 c 0.0132,-0.0204 0.0661,-0.0294 0.0873,-0.0136 0.0212,0.0115 0.0291,0.0203 0.037,0.0294 0.0159,0.018 0.0265,0.0362 0.0397,0.0544 0.0212,0.0362 0.0397,0.0724 0.0556,0.10861 l 0.0529,0.10402 c 0.0106,0.0159 0.0185,0.0339 0.0291,0.0475 0.005,0.007 0.0106,0.0136 0.0106,0.0136 0.003,-0.005 -0.037,0.005 -0.0265,0.005 0.0212,-0.0498 0.0212,-0.14025 0.0238,-0.21264 l 0.003,-0.23072 -0.003,-0.46144 c -0.005,-0.15382 -0.003,-0.30765 -0.0238,-0.4592 z m -1.92616,1.80734 c 0.005,-0.14703 0.0159,-0.29632 0.0159,-0.44336 -0.008,-0.14703 -0.0318,-0.29406 -0.0661,-0.43882 -0.0662,-0.28954 -0.17992,-0.57004 -0.33338,-0.83243 l 0.0503,-0.007 c -0.0159,0.15381 -0.0132,0.30763 0.008,0.45919 0.0185,0.15154 0.0794,0.29858 0.11112,0.45466 0.0291,0.15382 0.0529,0.30989 0.0529,0.46823 -0.003,0.0792 -0.0132,0.15835 -0.0423,0.23525 -0.0291,0.0747 -0.082,0.14024 -0.12171,0.21036 l -0.005,-0.002 c 0.0317,-0.0724 0.0767,-0.14025 0.0979,-0.2149 0.0238,-0.0747 0.0291,-0.1493 0.0291,-0.2262 -0.005,-0.15381 -0.0397,-0.30537 -0.0741,-0.45692 -0.0291,-0.15155 -0.0926,-0.29858 -0.11112,-0.4592 -0.0185,-0.15607 -0.0159,-0.31441 0.005,-0.47048 l 0.0106,-0.0769 0.0397,0.0701 c 0.15081,0.26918 0.25929,0.55419 0.32015,0.84599 0.0291,0.14702 0.0476,0.29406 0.0529,0.44335 -0.003,0.1493 -0.0185,0.29632 -0.0291,0.44336 z m -10.18382,0.12215 c 0.005,-0.14703 0.0159,-0.29631 0.0159,-0.44335 -0.008,-0.14703 -0.0318,-0.29406 -0.0662,-0.43884 -0.0661,-0.28952 -0.17991,-0.57003 -0.33337,-0.83241 l 0.0503,-0.007 c -0.0159,0.15381 -0.0132,0.30762 0.008,0.45919 0.0185,0.15156 0.0794,0.29858 0.11112,0.45466 0.0291,0.15382 0.0529,0.3099 0.0529,0.46824 -0.003,0.0792 -0.0132,0.15833 -0.0423,0.23524 -0.0291,0.0747 -0.082,0.14025 -0.1217,0.21037 l -0.005,-0.002 c 0.0317,-0.0724 0.0767,-0.14023 0.0979,-0.2149 0.0238,-0.0747 0.0291,-0.14928 0.0291,-0.2262 -0.005,-0.15381 -0.0397,-0.30536 -0.0741,-0.45691 -0.0291,-0.15156 -0.0926,-0.29858 -0.11112,-0.45919 -0.0185,-0.15607 -0.0159,-0.31441 0.005,-0.4705 l 0.0106,-0.0768 0.0397,0.0701 c 0.15081,0.26918 0.25929,0.55419 0.32014,0.84599 0.0291,0.14703 0.0476,0.29407 0.0529,0.44335 -0.003,0.1493 -0.0185,0.29632 -0.0291,0.44336 z m 3.60892,-0.12668 c 0.005,-0.14702 0.0159,-0.29632 0.0159,-0.44335 -0.008,-0.14702 -0.0317,-0.29405 -0.0661,-0.43882 -0.0661,-0.28955 -0.17992,-0.57003 -0.33338,-0.83242 l 0.0503,-0.007 c -0.0159,0.15382 -0.0132,0.30764 0.008,0.4592 0.0185,0.15155 0.0794,0.29859 0.11113,0.45466 0.0291,0.15382 0.0529,0.3099 0.0529,0.46823 -0.003,0.0792 -0.0132,0.15835 -0.0423,0.23525 -0.0291,0.0747 -0.082,0.14024 -0.12171,0.21037 l -0.005,-0.002 c 0.0318,-0.0724 0.0767,-0.14025 0.0979,-0.21488 0.0238,-0.0747 0.0291,-0.1493 0.0291,-0.22621 -0.005,-0.15382 -0.0397,-0.30536 -0.0741,-0.45692 -0.0291,-0.15156 -0.0926,-0.29859 -0.11113,-0.4592 -0.0185,-0.15608 -0.0159,-0.31441 0.005,-0.47049 l 0.0106,-0.0769 0.0397,0.0701 c 0.15081,0.26916 0.25929,0.55419 0.32014,0.84598 0.0291,0.14704 0.0476,0.29407 0.0529,0.44337 -0.003,0.14928 -0.0185,0.29631 -0.0291,0.44334 z m 2.11931,-1.75757 c 0.11642,0.12667 0.22225,0.26013 0.30957,0.40489 0.0899,0.14251 0.14816,0.30312 0.16933,0.46598 0.0212,0.16287 0.0185,0.32573 -0.003,0.48859 -0.0106,0.0814 -0.0265,0.16287 -0.0476,0.24204 -0.0238,0.0814 -0.0423,0.15834 -0.10848,0.24202 v 0 l -0.0397,0.0521 -0.045,-0.0564 c -0.10848,-0.13346 -0.20373,-0.27597 -0.2831,-0.42299 -0.082,-0.15155 -0.13494,-0.31216 -0.17463,-0.47049 -0.0767,-0.31895 -0.11377,-0.64015 -0.12964,-0.96363 l 0.0132,-0.002 c 0.082,0.31442 0.14552,0.6311 0.23812,0.93873 0.0503,0.15382 0.0979,0.30538 0.17992,0.44335 l 0.24871,0.42751 -0.0847,-0.007 v 0 c 0.0847,-0.1108 0.12435,-0.28503 0.15346,-0.43431 0.0265,-0.15608 0.037,-0.31667 0.0238,-0.47276 -0.0106,-0.15834 -0.0582,-0.31216 -0.13758,-0.45466 -0.0794,-0.14477 -0.17727,-0.28275 -0.28575,-0.41169 z m 8.1915,-0.22847 c 0.17992,0.19681 0.34396,0.40944 0.43921,0.65147 0.045,0.12215 0.0688,0.25108 0.0556,0.38228 -0.0159,0.13119 -0.0741,0.26013 -0.17462,0.36418 v 0 l -0.045,0.0498 -0.0397,-0.0566 c -0.15346,-0.21489 -0.30427,-0.43431 -0.4101,-0.6718 -0.10054,-0.23752 -0.17727,-0.48634 -0.17992,-0.73969 l 0.0132,-0.002 c 0.0794,0.24203 0.17198,0.47502 0.29104,0.69897 0.0529,0.1131 0.11906,0.22393 0.18786,0.3325 0.0661,0.10862 0.13229,0.21942 0.1905,0.33479 l -0.0847,-0.007 v 0 c 0.0926,-0.086 0.15081,-0.19679 0.16933,-0.31443 0.0185,-0.11763 0.003,-0.23977 -0.0344,-0.35739 -0.0714,-0.2375 -0.21961,-0.45692 -0.38629,-0.66051 z m 4.65932,-0.2918 c 0.17991,0.19681 0.34395,0.40942 0.4392,0.65147 0.045,0.12215 0.0688,0.25108 0.0556,0.38227 -0.0159,0.13119 -0.0741,0.26014 -0.17463,0.36419 v 0 l -0.045,0.0498 -0.0397,-0.0564 c -0.15345,-0.2149 -0.30427,-0.43431 -0.4101,-0.67181 -0.10054,-0.23752 -0.17727,-0.48633 -0.17992,-0.73968 l 0.0132,-0.002 c 0.0794,0.24203 0.17198,0.47503 0.29104,0.69896 0.0556,0.1131 0.11907,0.22394 0.18786,0.33251 0.0661,0.10862 0.13229,0.21942 0.1905,0.33478 l -0.0847,-0.007 v 0 c 0.0926,-0.086 0.15081,-0.19679 0.16934,-0.31442 0.0185,-0.11762 0.003,-0.23977 -0.0344,-0.3574 -0.0714,-0.2375 -0.2196,-0.45692 -0.38629,-0.6605 z m -3.11944,1.95212 c 0.005,-0.14704 0.0159,-0.29632 0.0159,-0.44336 -0.008,-0.14703 -0.0318,-0.29406 -0.0661,-0.43882 -0.0662,-0.28954 -0.17992,-0.57003 -0.33338,-0.83243 l 0.0503,-0.007 c -0.0159,0.15382 -0.0132,0.30763 0.008,0.45918 0.0185,0.15156 0.0794,0.29859 0.11113,0.45466 0.0291,0.15384 0.0529,0.30991 0.0529,0.46825 -0.003,0.0792 -0.0132,0.15834 -0.0423,0.23524 -0.0291,0.0747 -0.082,0.14025 -0.12171,0.21037 l -0.005,-0.002 c 0.0317,-0.0724 0.0767,-0.14025 0.0979,-0.2149 0.0238,-0.0747 0.0291,-0.1493 0.0291,-0.2262 -0.005,-0.15381 -0.0397,-0.30537 -0.0741,-0.45691 -0.0291,-0.15157 -0.0926,-0.29859 -0.11113,-0.4592 -0.0185,-0.15608 -0.0159,-0.31442 0.005,-0.47049 l 0.0106,-0.0769 0.0397,0.0701 c 0.15082,0.26917 0.25929,0.55419 0.32015,0.84599 0.0291,0.14702 0.0476,0.29405 0.0529,0.44335 -0.003,0.14929 -0.0185,0.29632 -0.0265,0.44336 z m 6.15685,-0.15608 c 0.008,-0.16287 0.0238,-0.32347 0.0238,-0.48633 -0.008,-0.1606 -0.0291,-0.32347 -0.0635,-0.48182 -0.0661,-0.31893 -0.1852,-0.62883 -0.35189,-0.91837 l 0.0503,-0.007 c -0.0212,0.16966 -0.0212,0.3393 0,0.50669 0.0185,0.16738 0.082,0.33025 0.11377,0.50216 0.0291,0.16965 0.0556,0.34157 0.0503,0.51574 -0.003,0.086 -0.0185,0.17417 -0.0503,0.25785 -0.0344,0.0815 -0.09,0.15609 -0.13494,0.23074 l -0.005,-0.002 c 0.037,-0.0792 0.0847,-0.15381 0.11113,-0.2375 0.0264,-0.0815 0.037,-0.16514 0.037,-0.24883 -0.003,-0.16965 -0.037,-0.3393 -0.0714,-0.50442 -0.0291,-0.16738 -0.0953,-0.33025 -0.11377,-0.50669 -0.0185,-0.17192 -0.0132,-0.34609 0.0132,-0.51799 l 0.0106,-0.0769 0.037,0.0701 c 0.1614,0.29631 0.27517,0.61073 0.33602,0.93194 0.0291,0.16061 0.0476,0.32347 0.0503,0.48633 -0.005,0.16287 -0.0265,0.32574 -0.0371,0.48633 z m -1.39171,-1.59019 c 0.13494,0.35288 0.0529,0.76908 -0.22754,1.06767 l -0.0661,0.0679 -0.0159,-0.0883 c -0.0926,-0.53383 -0.21696,-1.06314 -0.23812,-1.60829 l 0.0132,-0.002 c 0.0926,0.26014 0.15875,0.52705 0.21431,0.79171 0.0423,0.26692 0.0635,0.53835 0.10054,0.80754 l -0.0794,-0.0204 c 0.27782,-0.26918 0.39159,-0.65597 0.28575,-1.01563 z m -3.5507,0.37323 c 0.13493,0.35286 0.0529,0.76909 -0.22755,1.06766 l -0.0661,0.0679 -0.0159,-0.0883 c -0.0926,-0.53384 -0.21696,-1.06314 -0.23812,-1.60828 l 0.0132,-0.002 c 0.0926,0.26013 0.15875,0.52706 0.21431,0.79169 0.0423,0.26693 0.0635,0.53837 0.10054,0.80754 l -0.0794,-0.0203 c 0.27781,-0.26917 0.39158,-0.65598 0.28575,-1.01564 z m 0.80962,1.27352 c 0.008,-0.16287 0.0238,-0.32348 0.0238,-0.48634 -0.008,-0.1606 -0.0291,-0.32347 -0.0635,-0.48181 -0.0661,-0.31894 -0.18521,-0.62884 -0.35189,-0.91838 l 0.0503,-0.007 c -0.0212,0.16965 -0.0212,0.33929 0,0.50668 0.0185,0.16739 0.082,0.33025 0.11377,0.50217 0.0291,0.16965 0.0556,0.34157 0.0503,0.51574 -0.003,0.086 -0.0185,0.17417 -0.0503,0.25787 -0.0344,0.0814 -0.09,0.15607 -0.13494,0.23073 l -0.005,-0.002 c 0.037,-0.0792 0.0847,-0.15381 0.11112,-0.2375 0.0265,-0.0814 0.037,-0.16513 0.037,-0.24882 -0.003,-0.16966 -0.037,-0.33931 -0.0714,-0.50444 -0.0291,-0.16738 -0.0953,-0.33024 -0.11377,-0.50668 -0.0185,-0.17191 -0.0132,-0.34608 0.0132,-0.518 l 0.0106,-0.0769 0.037,0.0701 c 0.1614,0.29634 0.27517,0.61076 0.33602,0.93196 0.0291,0.1606 0.0476,0.32347 0.0503,0.48633 -0.005,0.16286 -0.0265,0.32573 -0.037,0.48634 z m 4.69635,-1.86842 c 0.18257,0.19679 0.34925,0.40941 0.4445,0.65371 0.0476,0.12215 0.0741,0.25109 0.0582,0.38454 -0.0132,0.13119 -0.0741,0.2624 -0.17462,0.36645 v 0 l -0.045,0.0498 -0.0397,-0.0564 c -0.1561,-0.21488 -0.30956,-0.43431 -0.41539,-0.67408 -0.10319,-0.23977 -0.17992,-0.48859 -0.18786,-0.74419 l 0.0132,-0.002 c 0.082,0.24202 0.17463,0.47728 0.29633,0.70348 0.0556,0.11536 0.12171,0.2262 0.1905,0.33478 0.0662,0.1108 0.13494,0.22168 0.19315,0.33477 l -0.0847,-0.007 v 0 c 0.0926,-0.086 0.15082,-0.1968 0.16934,-0.31443 0.0185,-0.11761 0,-0.24202 -0.037,-0.35966 -0.0741,-0.23751 -0.22489,-0.45918 -0.39158,-0.66277 z m 37.56555,1.23732 c -0.005,0.21714 -0.09,0.42073 -0.11642,0.6311 -0.0132,0.10631 -0.0291,0.21036 -0.0344,0.31666 -0.0106,0.10402 -0.005,0.20811 0.0185,0.31443 l -0.005,0.002 c -0.0608,-0.0974 -0.0794,-0.21038 -0.0794,-0.31668 0.003,-0.10862 0.0238,-0.21489 0.0476,-0.32121 0.0397,-0.21262 0.14023,-0.41168 0.16404,-0.62432 z m -2.04523,0.0339 c -0.10584,0.35739 0.008,0.74646 0.28575,1.01563 l -0.0794,0.0203 c 0.037,-0.26918 0.0582,-0.53836 0.10054,-0.80753 0.0556,-0.26692 0.12171,-0.53159 0.21432,-0.79171 l 0.0132,0.002 c -0.0212,0.54516 -0.14552,1.07219 -0.23812,1.6083 l -0.0159,0.0883 -0.0661,-0.0679 c -0.28311,-0.29859 -0.36513,-0.71479 -0.22754,-1.06766 z m -2.97127,-0.22846 c -0.10584,0.35739 0.008,0.74645 0.28575,1.01564 l -0.0794,0.0203 c 0.037,-0.26918 0.0582,-0.53836 0.10054,-0.80753 0.0556,-0.26692 0.12171,-0.53158 0.21431,-0.79171 l 0.0132,0.002 c -0.0212,0.54515 -0.14552,1.07221 -0.23812,1.6083 l -0.0159,0.0883 -0.0661,-0.0679 c -0.28311,-0.29859 -0.36513,-0.71479 -0.22754,-1.06767 z m -6.41615,-0.1674 c -0.0556,0.19002 -0.0582,0.3936 0.008,0.57907 0.0661,0.1855 0.17462,0.36192 0.31485,0.50896 l -0.0794,0.0226 c 0.0238,-0.28501 0.0317,-0.57002 0.0608,-0.85503 v -0.002 -0.002 c 0.0556,-0.2737 0.12435,-0.54514 0.2196,-0.81432 l 0.0132,0.003 c -0.0106,0.28049 -0.0476,0.55645 -0.0979,0.83016 v -0.005 c -0.0291,0.28501 -0.0741,0.56777 -0.10584,0.85278 l -0.0106,0.10184 -0.0688,-0.0814 c -0.14288,-0.16512 -0.24077,-0.35061 -0.29369,-0.5474 -0.0503,-0.1968 -0.0397,-0.40264 0.0291,-0.59265 z m -3.84969,-0.38228 c -0.0212,0.15156 -0.0185,0.30538 -0.0238,0.45919 l -0.003,0.46145 0.003,0.23072 c 0.003,0.0724 0,0.16288 0.0238,0.21263 0.0106,0 -0.0291,-0.009 -0.0265,-0.005 0,0 0.008,-0.007 0.0106,-0.0136 0.0106,-0.0136 0.0185,-0.0294 0.0291,-0.0475 l 0.0529,-0.10402 c 0.0185,-0.0362 0.0344,-0.0724 0.0556,-0.10861 0.0106,-0.018 0.0212,-0.0362 0.0397,-0.0542 0.0106,-0.009 0.0159,-0.0204 0.037,-0.0294 0.0212,-0.0159 0.0741,-0.007 0.0873,0.0136 l -0.0794,0.0203 c 0.037,-0.26917 0.0582,-0.53836 0.10054,-0.80753 0.0556,-0.26692 0.12171,-0.53158 0.21431,-0.79171 l 0.0132,0.002 c -0.0212,0.54515 -0.14552,1.0722 -0.23812,1.6083 l -0.0794,0.0203 c -0.003,0.005 0.0265,0.009 0.0265,0.005 0.003,-0.002 -0.005,0.005 -0.0106,0.009 -0.0106,0.0115 -0.0212,0.0271 -0.0317,0.043 -0.0212,0.0316 -0.0397,0.0679 -0.0582,0.10183 l -0.0582,0.10632 c -0.0106,0.018 -0.0212,0.0362 -0.037,0.0542 -0.008,0.009 -0.0159,0.0181 -0.0318,0.0294 -0.008,0.005 -0.0291,0.0136 -0.0476,0.007 -0.0238,-0.007 -0.0265,-0.0159 -0.0344,-0.0249 -0.037,-0.095 -0.0212,-0.16511 -0.0238,-0.24429 l 0.008,-0.23071 0.0238,-0.46146 c 0.0132,-0.15382 0.0159,-0.30763 0.045,-0.46144 z m 1.90236,1.80508 c -0.008,-0.14702 -0.0265,-0.29631 -0.0291,-0.44335 0.005,-0.14928 0.0238,-0.29632 0.0529,-0.44335 0.0609,-0.29181 0.16933,-0.57908 0.32014,-0.84599 l 0.0397,-0.0701 0.0106,0.0768 c 0.0212,0.15609 0.0238,0.31442 0.005,0.4705 -0.0185,0.15835 -0.0794,0.30763 -0.11113,0.45919 -0.0344,0.15155 -0.0688,0.30537 -0.0741,0.45692 -0.003,0.0769 0.005,0.15382 0.0291,0.22619 0.0212,0.0747 0.0661,0.14251 0.0979,0.2149 l -0.005,0.002 c -0.0397,-0.0701 -0.09,-0.13572 -0.12171,-0.21037 -0.0291,-0.0747 -0.0397,-0.15607 -0.0423,-0.23524 -0.003,-0.15833 0.0238,-0.31442 0.0529,-0.46824 0.0317,-0.15608 0.0926,-0.30311 0.11113,-0.45466 0.0212,-0.15157 0.0238,-0.30764 0.008,-0.45919 l 0.0503,0.007 c -0.15611,0.26238 -0.26723,0.54289 -0.33338,0.83242 -0.0344,0.14477 -0.0556,0.2918 -0.0662,0.43883 -0.003,0.14703 0.0106,0.29404 0.0159,0.44335 z m 10.18381,0.12215 c -0.008,-0.14704 -0.0265,-0.29632 -0.0291,-0.44335 0.005,-0.14929 0.0238,-0.29633 0.0529,-0.44336 0.0609,-0.29179 0.16933,-0.57907 0.32015,-0.84599 l 0.0397,-0.0701 0.0106,0.0769 c 0.0212,0.15608 0.0238,0.31442 0.005,0.4705 -0.0185,0.15834 -0.0794,0.30763 -0.11113,0.45919 -0.0344,0.15156 -0.0688,0.30536 -0.0741,0.45691 -0.003,0.0769 0.005,0.15383 0.0291,0.22621 0.0212,0.0747 0.0661,0.14252 0.0979,0.21489 l -0.005,0.002 c -0.0397,-0.0701 -0.09,-0.13572 -0.12171,-0.21036 -0.0291,-0.0747 -0.0397,-0.15608 -0.0423,-0.23525 -0.003,-0.15834 0.0238,-0.31442 0.0529,-0.46825 0.0317,-0.15607 0.0926,-0.30309 0.11113,-0.45465 0.0212,-0.15156 0.0238,-0.30763 0.008,-0.4592 l 0.0503,0.007 c -0.15611,0.2624 -0.26723,0.54288 -0.33338,0.83242 -0.0344,0.14477 -0.0556,0.29181 -0.0661,0.43883 -0.003,0.14704 0.0106,0.29407 0.0159,0.44336 z m -3.60627,-0.12667 c -0.008,-0.14703 -0.0265,-0.29632 -0.0291,-0.44335 0.005,-0.1493 0.0238,-0.29632 0.0529,-0.44335 0.0609,-0.2918 0.16933,-0.57908 0.32015,-0.846 l 0.0397,-0.0701 0.0106,0.0769 c 0.0212,0.15609 0.0238,0.31443 0.005,0.47051 -0.0185,0.15833 -0.0794,0.30763 -0.11113,0.45919 -0.0344,0.15155 -0.0688,0.30537 -0.0741,0.45692 -0.003,0.0769 0.005,0.15381 0.0291,0.2262 0.0212,0.0747 0.0661,0.1425 0.0979,0.21489 l -0.005,0.002 c -0.0397,-0.0701 -0.09,-0.13572 -0.12171,-0.21037 -0.0291,-0.0747 -0.0397,-0.15608 -0.0423,-0.23525 -0.003,-0.15835 0.0238,-0.31442 0.0529,-0.46823 0.0317,-0.15607 0.0926,-0.30311 0.11113,-0.45466 0.0212,-0.15156 0.0238,-0.30764 0.008,-0.45919 l 0.0503,0.007 c -0.15611,0.26239 -0.26723,0.54287 -0.33338,0.83241 -0.0344,0.14477 -0.0556,0.2918 -0.0661,0.43884 -0.003,0.14701 0.0106,0.29405 0.0159,0.44335 z m -2.10344,-1.75078 c -0.10848,0.13119 -0.20637,0.26691 -0.28575,0.41167 -0.082,0.14477 -0.127,0.29859 -0.13758,0.45466 -0.0159,0.15835 -0.005,0.31669 0.0238,0.47277 0.0291,0.15155 0.0688,0.32347 0.15346,0.4343 v 0 l -0.0847,0.007 0.24871,-0.42751 c 0.082,-0.13799 0.127,-0.29181 0.17992,-0.44337 0.0926,-0.30763 0.1561,-0.6243 0.23812,-0.93873 l 0.0132,0.002 c -0.0185,0.32122 -0.0529,0.64468 -0.12965,0.96362 -0.037,0.15835 -0.0926,0.31894 -0.17462,0.47051 -0.082,0.14701 -0.17727,0.28726 -0.2831,0.42298 l -0.045,0.0564 -0.0397,-0.0521 v 0 c -0.0661,-0.0837 -0.0847,-0.16062 -0.10848,-0.24204 -0.0212,-0.0792 -0.037,-0.1606 -0.0476,-0.24204 -0.0212,-0.16286 -0.0265,-0.32572 -0.003,-0.48858 0.0212,-0.16287 0.0794,-0.32346 0.16933,-0.46597 0.0873,-0.14477 0.19315,-0.27824 0.30956,-0.40491 z m -8.18885,-0.22847 c -0.16669,0.20357 -0.31221,0.42299 -0.3863,0.6605 -0.037,0.11763 -0.0529,0.23977 -0.0344,0.35739 0.0212,0.11764 0.0794,0.22621 0.16933,0.31442 v 0 l -0.0847,0.007 c 0.0582,-0.1131 0.12435,-0.22395 0.1905,-0.33478 0.0688,-0.10862 0.13229,-0.21942 0.18785,-0.33252 0.11906,-0.22394 0.21167,-0.45919 0.29104,-0.69896 l 0.0132,0.002 c -0.005,0.25335 -0.0794,0.50218 -0.17992,0.73968 -0.10318,0.23751 -0.254,0.45693 -0.4101,0.67182 l -0.0397,0.0565 -0.045,-0.0498 v 0 c -0.10054,-0.10402 -0.15875,-0.23299 -0.17462,-0.3642 -0.0132,-0.13119 0.0106,-0.26012 0.0556,-0.38227 0.0926,-0.2443 0.25665,-0.45691 0.43921,-0.65145 z m -4.65932,-0.29181 c -0.16668,0.20359 -0.3122,0.42301 -0.38629,0.66052 -0.037,0.11761 -0.0529,0.23977 -0.0344,0.35738 0.0212,0.11763 0.0794,0.2262 0.16933,0.31443 v 0 l -0.0847,0.007 c 0.0582,-0.11309 0.12436,-0.22394 0.1905,-0.33476 0.0688,-0.10862 0.1323,-0.21943 0.18786,-0.33252 0.11906,-0.22394 0.21166,-0.4592 0.29104,-0.69896 l 0.0132,0.002 c -0.005,0.25335 -0.0794,0.50217 -0.17992,0.73967 -0.10319,0.23752 -0.254,0.45694 -0.4101,0.67182 l -0.0397,0.0564 -0.045,-0.0498 v 0 c -0.10054,-0.10402 -0.15875,-0.23298 -0.17462,-0.36418 -0.0159,-0.1312 0.0106,-0.26013 0.0556,-0.38228 0.0926,-0.2443 0.25664,-0.45693 0.43921,-0.65146 z m 3.10092,1.9476 c -0.008,-0.14704 -0.0265,-0.29633 -0.0291,-0.44336 0.005,-0.14929 0.0238,-0.29632 0.0529,-0.44335 0.0609,-0.2918 0.16934,-0.57907 0.32015,-0.846 l 0.0397,-0.0701 0.0106,0.0769 c 0.0212,0.15609 0.0238,0.31443 0.005,0.4705 -0.0185,0.15834 -0.0794,0.30763 -0.11112,0.45919 -0.0344,0.15156 -0.0688,0.30537 -0.0741,0.45691 -0.003,0.0769 0.005,0.15382 0.0291,0.22621 0.0212,0.0747 0.0661,0.1425 0.0979,0.21489 l -0.005,0.003 c -0.0397,-0.0701 -0.09,-0.13572 -0.12171,-0.21037 -0.0291,-0.0747 -0.0397,-0.15609 -0.0423,-0.23525 -0.003,-0.15834 0.0238,-0.31441 0.0529,-0.46823 0.0317,-0.15608 0.0926,-0.30312 0.11112,-0.45466 0.0212,-0.15156 0.0238,-0.30764 0.008,-0.4592 l 0.0503,0.007 c -0.1561,0.2624 -0.26723,0.54289 -0.33338,0.83242 -0.0344,0.14478 -0.0556,0.29179 -0.0661,0.43883 -0.003,0.14703 0.0106,0.29406 0.0159,0.44334 z m -6.15685,-0.15607 c -0.0132,-0.16288 -0.0317,-0.32348 -0.037,-0.48634 0.003,-0.16287 0.0212,-0.32574 0.0503,-0.48634 0.0608,-0.3212 0.17462,-0.63561 0.33602,-0.93195 l 0.037,-0.0701 0.0106,0.0769 c 0.0265,0.17192 0.0291,0.34608 0.0132,0.51801 -0.0185,0.17417 -0.082,0.33928 -0.11377,0.50668 -0.0344,0.16739 -0.0688,0.33703 -0.0714,0.50444 0,0.0837 0.0106,0.16963 0.037,0.2488 0.0265,0.0814 0.0741,0.15609 0.11113,0.23752 l -0.005,0.002 c -0.045,-0.0769 -0.10054,-0.1493 -0.13494,-0.23072 -0.0317,-0.0837 -0.045,-0.16966 -0.0503,-0.25787 -0.005,-0.17417 0.0185,-0.34609 0.0503,-0.51575 0.0318,-0.17191 0.0952,-0.33477 0.11377,-0.50216 0.0212,-0.16739 0.0212,-0.3393 0,-0.50669 l 0.0503,0.007 c -0.16669,0.28953 -0.28575,0.59943 -0.35189,0.91837 -0.0344,0.15835 -0.0556,0.32122 -0.0635,0.48181 0.003,0.1606 0.0159,0.32348 0.0238,0.48633 z m 1.41023,-1.5902 c -0.10584,0.35739 0.008,0.74646 0.28575,1.01564 l -0.0794,0.0203 c 0.037,-0.26917 0.0582,-0.53836 0.10054,-0.80753 0.0556,-0.26691 0.12171,-0.53158 0.21432,-0.79171 l 0.0132,0.002 c -0.0212,0.54514 -0.14552,1.07445 -0.23812,1.6083 l -0.0159,0.0883 -0.0661,-0.0679 c -0.28311,-0.29859 -0.36513,-0.71479 -0.22754,-1.06767 z m 3.55335,0.37548 c -0.10583,0.35741 0.008,0.74647 0.28575,1.01565 l -0.0794,0.0203 c 0.0371,-0.26918 0.0582,-0.53836 0.10055,-0.80754 0.0556,-0.26691 0.1217,-0.53157 0.21431,-0.7917 l 0.0132,0.002 c -0.0212,0.54513 -0.14552,1.07219 -0.23813,1.60827 l -0.0159,0.0883 -0.0661,-0.0679 c -0.2831,-0.29859 -0.36512,-0.7148 -0.22754,-1.06767 z m -0.83079,1.26899 c -0.0132,-0.16285 -0.0317,-0.32347 -0.037,-0.48633 0.003,-0.16286 0.0212,-0.32573 0.0503,-0.48633 0.0608,-0.32121 0.17462,-0.63562 0.33602,-0.93195 l 0.037,-0.0701 0.0106,0.0769 c 0.0265,0.17192 0.0291,0.34609 0.0132,0.518 -0.0185,0.17418 -0.082,0.3393 -0.11377,0.50668 -0.0344,0.1674 -0.0688,0.33704 -0.0714,0.50444 0,0.0837 0.008,0.16964 0.037,0.24881 0.0265,0.0814 0.0741,0.15608 0.11112,0.23752 l -0.005,0.002 c -0.045,-0.0769 -0.10054,-0.1493 -0.13494,-0.23073 -0.0317,-0.0837 -0.0476,-0.16965 -0.0503,-0.25786 -0.005,-0.17418 0.0185,-0.34609 0.0503,-0.51574 0.0318,-0.17193 0.0952,-0.33478 0.11377,-0.50218 0.0212,-0.16738 0.0212,-0.33928 0,-0.50669 l 0.0503,0.007 c -0.16668,0.28954 -0.28575,0.59943 -0.35189,0.91837 -0.0344,0.15834 -0.0556,0.32121 -0.0635,0.4818 0.003,0.16062 0.0159,0.32348 0.0238,0.48634 z m -4.68048,-1.86162 c -0.16669,0.20357 -0.3175,0.42524 -0.39158,0.66275 -0.037,0.11764 -0.0556,0.24204 -0.037,0.35968 0.0185,0.11762 0.0767,0.22846 0.16934,0.31441 v 0 l -0.0847,0.007 c 0.0609,-0.11536 0.127,-0.22619 0.19315,-0.33477 0.0714,-0.10862 0.13493,-0.21941 0.1905,-0.33478 0.12171,-0.2262 0.21431,-0.45918 0.29633,-0.70348 l 0.0132,0.002 c -0.005,0.25558 -0.0847,0.50442 -0.18785,0.74419 -0.10584,0.23977 -0.2593,0.45918 -0.4154,0.67407 l -0.0397,0.0564 -0.045,-0.0498 v 0 c -0.10054,-0.10402 -0.16139,-0.23525 -0.17462,-0.36644 -0.0132,-0.1312 0.0132,-0.2624 0.0582,-0.38456 0.0953,-0.24428 0.26193,-0.45691 0.4445,-0.65369 z m -4.56671,1.49969 m -1.05833,-0.1719"
       inkscape:label="back-folds" />
    <path
       id="path308-9"
       style="clip-rule:evenodd;display:inline;fill:none;fill-rule:evenodd;stroke:#dfb734;stroke-width:0.265;stroke-linecap:round;stroke-miterlimit:8.28928;stroke-dasharray:none;stroke-dashoffset:0;stroke-opacity:1"
       class="st14"
       d="m 249.10827,143.47108 -29.68889,-1.6348 m -7.59355,0 -29.50879,1.72759 m 29.50879,-1.72759 h 7.59355 l -0.10055,2.37067 h -7.38981 z m -29.67566,3.62479 c -3.64601,-12.14425 -3.8816,-17.04548 10.14941,-35.65789 l 1.66757,-0.003 c 10.14941,8.13329 17.92218,20.97632 17.96452,34.40657 -8.60954,0.34925 -19.29607,0.80433 -26.25196,1.10331 -0.45773,0.0185 -0.69586,0.0291 -1.11919,0.0476 m 61.96277,-0.005 c -6.90298,-0.29633 -18.19275,-0.77787 -27.20446,-1.143 0.0423,-13.43025 8.13983,-26.26469 18.28925,-34.39798 l 2.0035,0.006 c 12.64674,16.10764 13.59027,24.00757 9.48875,35.64654 m -56.80075,-35.66104 17.02594,-34.760962 c 0.0423,-0.108479 0.11113,-0.267229 0.21696,-0.441854 0.12171,-0.203729 0.27517,-0.460375 0.56356,-0.669396 0.11113,-0.07937 0.30163,-0.195791 0.57415,-0.264583 m -16.69551,36.075535 17.84128,-36.12323 m 27.78562,36.19849 -17.68131,-34.774962 c -0.0423,-0.108479 -0.11112,-0.267229 -0.21696,-0.441854 -0.12171,-0.203729 -0.27516,-0.460375 -0.56356,-0.669396 -0.11112,-0.07937 -0.30162,-0.195791 -0.57415,-0.264583 h -9.89277 m 26.92525,36.145225 -18.15697,-36.147868 m -38.00045,69.336048 c 0.72231,0.50535 4.49892,3.48786 5.53609,4.16255 1.1774,0.76465 3.6195,2.31511 7.112,4.18042 5.78379,3.08769 10.67065,5.02708 14.224,6.42673 3.02154,1.18798 5.5536,2.08491 7.29721,2.68287 M 249.80545,143.099 c -0.6985,0.48684 -4.86966,3.42834 -5.84333,4.06334 -1.17739,0.76465 -3.6195,2.31511 -7.112,4.18042 -5.78379,3.08769 -10.67064,5.02708 -14.22399,6.42673 -3.02155,1.18798 -5.55361,2.08491 -7.29721,2.68287 m -33.17875,-14.99129 1.6166,1.33086 c 0.78581,0.55827 1.84679,1.29381 3.11944,2.12195 1.17739,0.76465 3.6195,2.31511 7.112,4.18042 5.78379,3.08769 10.67064,5.02708 14.224,6.42673 3.02154,1.18798 5.5536,2.08492 7.29721,2.68287 m 33.57827,-16.74283 -2.01877,1.33086 c -0.78582,0.55827 -1.8468,1.29381 -3.11944,2.12195 -1.1774,0.76465 -3.6195,2.31511 -7.112,4.18042 -5.78379,3.08769 -10.67065,5.02708 -14.224,6.42673 -3.02154,1.18798 -5.5536,2.08492 -7.29721,2.68287 m -4.29948,-87.169614 h 9.19426"
       inkscape:label="back-main" />
    <g
       id="g16545"
       style="fill:#ffffff;fill-opacity:1;stroke:#ff0000;stroke-width:0.265;stroke-miterlimit:4;stroke-dasharray:none;stroke-opacity:1"
       inkscape:label="back-bust-bow">
      <path
         id="path558"
         style="display:inline;fill:#ffffff;fill-opacity:1;stroke:#ff0000;stroke-width:0.265;stroke-miterlimit:4;stroke-dasharray:none;stroke-dashoffset:0;stroke-opacity:1"
         class="st17"
         d="m 217.01431,162.18803 c 0,0 1.41023,20.03425 2.07963,22.70919 l -2.17752,-0.29898 c 0,0 -1.14036,-20.42848 -1.27265,-21.51327 -0.13494,-1.0795 1.37054,-0.89694 1.37054,-0.89694 z m -1.84943,0.40746 c 0,0 0.51858,4.3815 0.17197,6.96648 -0.34395,2.58498 -0.44185,14.73993 -0.7911,15.53104 l -1.88648,0.87312 c 0,0 0.88371,-12.16289 1.09538,-14.46212 0.21166,-2.29923 0.20902,-6.5405 0.20902,-6.5405 l 0.5715,-3.02419 z" />
      <path
         class="st17"
         d="m 216.37667,160.69843 c -0.0529,0.33602 2.7596,1.94468 4.02696,3.01625 1.2647,1.0742 1.03187,2.32039 0.35454,4.0296 0,0 -0.32544,0.71967 -1.15094,1.17475 -0.8255,0.45508 -1.07421,-1.26206 -1.07421,-1.26206 l 0.30427,-0.40482 c 0,0 1.33086,-1.47637 0.21167,-2.40241 -1.11919,-0.92604 -2.18811,-1.66688 -2.18811,-1.66688 l -1.42081,-1.12977 -0.84931,-0.36248 c 0,0 -3.72533,4.31271 -3.22792,7.22313 0,0 -2.16693,-0.51329 -0.9816,-3.26496 1.18533,-2.75167 4.38679,-5.04296 4.38679,-5.04296 z"
         id="path560"
         style="display:inline;fill:#ffffff;fill-opacity:1;stroke:#ff0000;stroke-width:0.265;stroke-miterlimit:4;stroke-dasharray:none;stroke-dashoffset:0;stroke-opacity:1" />
      <path
         class="st17"
         d="m 214.53781,161.18261 c 0,0 -1.89971,1.43669 -2.04787,2.87602 -0.21431,2.06375 -1.43669,4.26509 -1.97644,4.33123 0,0 0.30163,0.38629 0.99748,0.71173 0.69585,0.32809 1.48431,-0.61912 1.48431,-0.61912 0,0 1.97379,-4.13544 1.62984,-6.604 l 1.43404,0.65616 c 0,0 0.34131,4.7969 1.57427,6.25211 0,0 1.45785,0.75406 2.04523,0.0714 -0.27517,-0.13759 -1.16152,-2.10344 -1.54252,-4.39473 -0.381,-2.2913 -1.74625,-3.2729 -1.99232,-3.5613 z"
         id="path562"
         style="display:inline;fill:#ffffff;fill-opacity:1;stroke:#ff0000;stroke-width:0.265;stroke-miterlimit:4;stroke-dasharray:none;stroke-dashoffset:0;stroke-opacity:1" />
      <path
         class="st17"
         d="m 214.53781,161.18261 c 0,0 -1.89971,1.43669 -2.04787,2.87602 -0.21431,2.06375 -1.43669,4.26509 -1.97644,4.33123 0,0 0.30163,0.38629 0.99748,0.71173 0.69585,0.32809 1.48431,-0.61912 1.48431,-0.61912 0,0 1.97379,-4.13544 1.62984,-6.604 l 1.43404,0.65616 c 0,0 0.34131,4.7969 1.57427,6.25211 0,0 1.45785,0.75406 2.04523,0.0714 -0.27517,-0.13759 -1.16152,-2.10344 -1.54252,-4.39473 -0.381,-2.2913 -1.74625,-3.2729 -1.99232,-3.5613 z"
         id="path564"
         style="display:inline;fill:#ffffff;fill-opacity:1;stroke:#ff0000;stroke-width:0.265;stroke-miterlimit:4;stroke-dasharray:none;stroke-dashoffset:0;stroke-opacity:1" />
      <path
         id="path568"
         style="display:inline;fill:#ffffff;fill-opacity:1;stroke:#ff0000;stroke-width:0.265;stroke-miterlimit:4;stroke-dasharray:none;stroke-dashoffset:0;stroke-opacity:1"
         class="st17"
         d="m 215.98508,161.58213 c 0,0 1.35996,1.30175 1.18798,2.8284 -0.16933,1.52929 -0.47625,-0.53446 -0.47625,-0.53446 m -2.19868,-2.09021 c 0,0 -0.91282,1.06363 -1.08215,1.79917 -0.16933,0.73819 0.47096,0.78052 0.50535,0.26194 -0.0212,-1.016 0.39952,-1.96586 0.5768,-2.06111 z" />
      <path
         class="st17"
         d="m 216.37667,160.69843 c 0,0 -1.03452,-0.48684 -1.60602,-0.0952 0,0 -0.71967,0.94456 -0.0926,2.04522 0,0 0.77523,0.33073 1.39436,0.0476 0,0.003 -0.24607,-1.29381 0.30427,-1.9976"
         id="path570"
         style="display:inline;fill:#ffffff;fill-opacity:1;stroke:#ff0000;stroke-width:0.265;stroke-miterlimit:4;stroke-dasharray:none;stroke-dashoffset:0;stroke-opacity:1" />
    </g>
    <g
       id="g15733"
       inkscape:label="back-neck-bow"
       style="fill:#ffffff;fill-opacity:1;stroke:#9e2b95;stroke-width:0.265;stroke-miterlimit:4;stroke-dasharray:none;stroke-opacity:1"
       transform="matrix(-1,0,0,1,430.91211,0)">
      <path
         id="path724"
         style="display:inline;fill:#ffffff;fill-opacity:1;stroke:#9e2b95;stroke-width:0.265;stroke-miterlimit:4;stroke-dasharray:none;stroke-dashoffset:0;stroke-opacity:1"
         class="st17"
         d="m 214.11183,75.23801 c 0,0 -1.41023,20.03425 -2.07962,22.709187 l 2.17752,-0.298979 c 0,0 1.14035,-20.428479 1.27265,-21.51327 0.13493,-1.076855 -1.37055,-0.896938 -1.37055,-0.896938 z m 1.85209,0.407458 c 0,0 -0.51859,4.3815 -0.17198,6.966479 0.34396,2.58498 0.44185,14.739938 0.7911,15.531042 l 1.88648,0.873125 c 0,0 -0.88371,-12.162896 -1.09537,-14.462125 -0.21167,-2.299229 -0.20902,-6.5405 -0.20902,-6.5405 l -0.5715,-3.024187 z" />
      <path
         class="st17"
         d="m 214.74948,73.751052 c 0.0529,0.336021 -2.7596,1.944687 -4.02696,3.01625 -1.26471,1.074208 -1.03187,2.320396 -0.35454,4.029604 0,0 0.32544,0.719666 1.15094,1.17475 0.8255,0.455083 1.07421,-1.262063 1.07421,-1.262063 l -0.30428,-0.404812 c 0,0 -1.33085,-1.476375 -0.21166,-2.402417 1.11919,-0.926041 2.1881,-1.666875 2.1881,-1.666875 l 1.42081,-1.129771 0.84932,-0.362479 c 0,0 3.72533,4.312709 3.22791,7.223125 0,0 2.16694,-0.513292 0.98161,-3.264958 -1.18534,-2.751667 -4.38679,-5.042958 -4.38679,-5.042958 z"
         id="path726"
         style="display:inline;fill:#ffffff;fill-opacity:1;stroke:#9e2b95;stroke-width:0.265;stroke-miterlimit:4;stroke-dasharray:none;stroke-dashoffset:0;stroke-opacity:1" />
      <path
         class="st17"
         d="m 216.59098,74.235239 c 0,0 1.89971,1.436688 2.04787,2.876021 0.21432,2.06375 1.43669,4.265083 1.97909,4.331229 0,0 -0.30163,0.386292 -0.99748,0.711729 -0.69586,0.328084 -1.48431,-0.619125 -1.48431,-0.619125 0,0 -1.9738,-4.135437 -1.62984,-6.604 l -1.43404,0.656167 c 0,0 -0.34131,4.796896 -1.57427,6.252104 0,0 -1.45785,0.754063 -2.04523,0.07144 0.27517,-0.137584 1.16152,-2.103438 1.54252,-4.394729 0.381,-2.291292 1.74625,-3.272896 1.99231,-3.561292 z"
         id="path728"
         style="display:inline;fill:#ffffff;fill-opacity:1;stroke:#9e2b95;stroke-width:0.265;stroke-miterlimit:4;stroke-dasharray:none;stroke-dashoffset:0;stroke-opacity:1" />
      <path
         class="st17"
         d="m 216.59098,74.235239 c 0,0 1.89971,1.436688 2.04787,2.876021 0.21432,2.06375 1.43669,4.265083 1.97909,4.331229 0,0 -0.30163,0.386292 -0.99748,0.711729 -0.69586,0.328084 -1.48431,-0.619125 -1.48431,-0.619125 0,0 -1.9738,-4.135437 -1.62984,-6.604 l -1.43404,0.656167 c 0,0 -0.34131,4.796896 -1.57427,6.252104 0,0 -1.45785,0.754063 -2.04523,0.07144 0.27517,-0.137584 1.16152,-2.103438 1.54252,-4.394729 0.381,-2.291292 1.74625,-3.272896 1.99231,-3.561292 z"
         id="path730"
         style="display:inline;fill:#ffffff;fill-opacity:1;stroke:#9e2b95;stroke-width:0.265;stroke-miterlimit:4;stroke-dasharray:none;stroke-dashoffset:0;stroke-opacity:1" />
      <path
         id="path734"
         style="display:inline;fill:#ffffff;fill-opacity:1;stroke:#9e2b95;stroke-width:0.265;stroke-miterlimit:4;stroke-dasharray:none;stroke-dashoffset:0;stroke-opacity:1"
         class="st17"
         d="m 215.14371,74.63476 c 0,0 -1.35996,1.30175 -1.18798,2.828396 0.16933,1.529292 0.47625,-0.534458 0.47625,-0.534458 m 2.19604,-2.090209 c 0,0 0.91281,1.063625 1.08215,1.799167 0.16933,0.738187 -0.47096,0.780521 -0.50536,0.261937 0.0212,-1.016 -0.39952,-1.965854 -0.57679,-2.061104 z" />
      <path
         class="st17"
         d="m 214.74948,73.751052 c 0,0 1.03452,-0.486834 1.60602,-0.09525 0,0 0.71967,0.944562 0.0926,2.045229 0,0 -0.77522,0.330729 -1.39435,0.04762 0,0.0026 0.24871,-1.293813 -0.30427,-1.997604"
         id="path736"
         style="display:inline;fill:#ffffff;fill-opacity:1;stroke:#9e2b95;stroke-width:0.265;stroke-miterlimit:4;stroke-dasharray:none;stroke-dashoffset:0;stroke-opacity:1" />
    </g>
  </g>
</svg>
