<?xml version="1.0" encoding="UTF-8" standalone="no"?>
<!-- Created with Inkscape (http://www.inkscape.org/) -->

<svg
   width="175.9185mm"
   height="118.86085mm"
   viewBox="0 0 175.91849 118.86085"
   version="1.1"
   id="svg32513"
   sodipodi:docname="bee.svg"
   inkscape:version="1.1 (c68e22c387, 2021-05-23)"
   xmlns:inkscape="http://www.inkscape.org/namespaces/inkscape"
   xmlns:sodipodi="http://sodipodi.sourceforge.net/DTD/sodipodi-0.dtd"
   xmlns="http://www.w3.org/2000/svg"
   xmlns:svg="http://www.w3.org/2000/svg">
  <sodipodi:namedview
     id="namedview32515"
     pagecolor="#ffffff"
     bordercolor="#666666"
     borderopacity="1.0"
     inkscape:pageshadow="2"
     inkscape:pageopacity="0.0"
     inkscape:pagecheckerboard="0"
     inkscape:document-units="mm"
     showgrid="false"
     fit-margin-top="3"
     fit-margin-left="3"
     fit-margin-right="3"
     fit-margin-bottom="3"
     inkscape:zoom="2.2674997"
     inkscape:cx="309.81261"
     inkscape:cy="162.5138"
     inkscape:window-width="1920"
     inkscape:window-height="1001"
     inkscape:window-x="-9"
     inkscape:window-y="-9"
     inkscape:window-maximized="1"
     inkscape:current-layer="svg32513"
     lock-margins="true"
     inkscape:showpageshadow="2"
     inkscape:deskcolor="#d1d1d1">
    <inkscape:page
       x="0"
       y="0"
       width="175.9185"
       height="118.88269"
       id="page1"
       margin="0"
       bleed="0" />
    <inkscape:page
       x="0.19253746"
       y="127.48075"
       width="175.9185"
       height="118.88269"
       id="page2"
       margin="0"
       bleed="0" />
  </sodipodi:namedview>
  <defs
     id="defs32510" />
  <path
     id="path2"
     style="clip-rule:evenodd;display:inline;fill:none;fill-rule:evenodd;stroke:#ff9700;stroke-width:0.132;stroke-linecap:round;stroke-miterlimit:8.28928;stroke-dasharray:0.396, 0.396;stroke-dashoffset:0;stroke-opacity:1"
     class="st14"
     d="m 70.406974,75.018686 c 7.1609,-14.22416 -2.42094,-25.91197 -8.42857,-33.8338 l -1.21319,0.003 c -0.0726,-0.0161 -16.88073,13.19272 -17.67475,32.55075 m -36.5540484,1.29146 c -7.16090501,-14.22416 2.412649,-25.92437 8.4202704,-33.8462 l 1.213194,-0.006 c 0.0726,-0.0161 16.889014,13.21339 17.683034,32.57142"
     inkscape:label="front-stitches" />
  <path
     id="path3"
     style="display:inline;opacity:0.3;fill:none;stroke:#000000;stroke-width:0.25641;stroke-linecap:butt;stroke-miterlimit:8.28928;stroke-dasharray:none;stroke-dashoffset:0;stroke-opacity:1"
     d="m 70.596164,73.491226 c -0.0397,0.19816 -0.0317,0.40128 0.0238,0.58706 0.0291,0.0941 0.0767,0.17835 0.11377,0.27 0.0344,0.0917 0.082,0.17835 0.11907,0.27744 l -0.0106,0.007 c -0.0979,-0.0569 -0.16933,-0.14119 -0.23018,-0.23036 -0.0582,-0.0917 -0.082,-0.19817 -0.0979,-0.30221 -0.037,-0.20807 -0.008,-0.4211 0.0688,-0.61184 z m 0.24342,1.13946 c 0.008,-0.14863 0.0132,-0.29726 0.0265,-0.44588 0.0159,-0.14863 0.0132,-0.29725 0.037,-0.44341 0.0556,-0.29229 0.12171,-0.58211 0.21431,-0.86698 l 0.0132,0.003 c -0.0106,0.29725 -0.0476,0.59202 -0.0926,0.88432 -0.0212,0.14615 -0.0609,0.28982 -0.0873,0.43597 -0.0291,0.14615 -0.0635,0.28982 -0.0952,0.43596 z m -1.016,-1.33764 c -0.005,0.23781 -0.09,0.46074 -0.11642,0.69112 -0.0132,0.11642 -0.0291,0.23036 -0.0344,0.34678 -0.0106,0.11395 -0.005,0.2279 0.0185,0.34432 l -0.005,0.003 c -0.0608,-0.10652 -0.0794,-0.23037 -0.0794,-0.3468 0.003,-0.1189 0.0238,-0.23532 0.0476,-0.35175 0.0397,-0.23284 0.14023,-0.45083 0.16405,-0.68368 z m -2.04523,0.0372 c -0.10583,0.39138 0.008,0.81744 0.28575,1.11222 l -0.0794,0.0223 c 0.037,-0.29478 0.0582,-0.58955 0.10055,-0.88432 0.0556,-0.2923 0.1217,-0.58212 0.21431,-0.86699 l 0.0132,0.003 c -0.0212,0.59698 -0.14552,1.17414 -0.23813,1.76121 l -0.0159,0.0966 -0.0661,-0.0743 c -0.2831,-0.32698 -0.36512,-0.78276 -0.22754,-1.16919 z m -2.97127,-0.25018 c -0.10584,0.39137 0.008,0.81743 0.28575,1.11221 l -0.0794,0.0223 c 0.037,-0.29478 0.0582,-0.58955 0.10054,-0.88432 0.0556,-0.2923 0.12171,-0.58211 0.21432,-0.86699 l 0.0132,0.003 c -0.0212,0.59698 -0.14552,1.17415 -0.23813,1.76122 l -0.0159,0.0966 -0.0662,-0.0743 c -0.2831,-0.32698 -0.36512,-0.78276 -0.22754,-1.16918 z m -6.41615,-0.18331 c -0.0556,0.20808 -0.0582,0.43101 0.008,0.63414 0.0661,0.20312 0.17462,0.39633 0.31485,0.55734 l -0.0794,0.0248 c 0.0238,-0.31212 0.0317,-0.62423 0.0608,-0.93635 v -0.003 -0.003 c 0.0556,-0.29973 0.12436,-0.59698 0.21961,-0.89176 l 0.0132,0.003 c -0.0106,0.30716 -0.0476,0.60936 -0.0979,0.90909 v -0.005 c -0.0291,0.31211 -0.0741,0.62175 -0.10583,0.93387 l -0.0106,0.11146 -0.0688,-0.0891 c -0.14287,-0.18084 -0.24077,-0.38395 -0.29369,-0.59946 -0.0503,-0.21551 -0.0397,-0.44092 0.0291,-0.649 z m -3.84969,-0.41863 c -0.0212,0.16596 -0.0185,0.33441 -0.0238,0.50285 l -0.003,0.50532 0.003,0.25267 c 0.003,0.0793 0,0.17835 0.0238,0.23285 0.0106,0 -0.0291,-0.01 -0.0265,-0.005 0,0 0.008,-0.007 0.0106,-0.0149 0.0106,-0.0149 0.0185,-0.0322 0.0291,-0.0521 l 0.0529,-0.11395 c 0.0185,-0.0396 0.0344,-0.0793 0.0556,-0.1189 0.0106,-0.0198 0.0212,-0.0396 0.0397,-0.0594 0.0106,-0.01 0.0159,-0.0223 0.037,-0.0322 0.0212,-0.0173 0.0741,-0.007 0.0873,0.0149 l -0.0794,0.0223 c 0.037,-0.29477 0.0582,-0.58955 0.10054,-0.88432 0.0556,-0.2923 0.12171,-0.58211 0.21431,-0.86698 l 0.0132,0.003 c -0.0212,0.59698 -0.14552,1.17415 -0.23812,1.76121 l -0.0794,0.0223 c -0.003,0.005 0.0265,0.01 0.0265,0.005 0.003,-0.003 -0.005,0.005 -0.0106,0.01 -0.0106,0.0124 -0.0212,0.0298 -0.0317,0.0471 -0.0212,0.0346 -0.0397,0.0743 -0.0582,0.11147 l -0.0582,0.11643 c -0.0106,0.0198 -0.0212,0.0396 -0.037,0.0594 -0.008,0.01 -0.0159,0.0198 -0.0318,0.0322 -0.008,0.005 -0.0291,0.0149 -0.0476,0.007 -0.0238,-0.007 -0.0264,-0.0173 -0.0344,-0.0272 -0.037,-0.10403 -0.0212,-0.18082 -0.0238,-0.26752 l 0.008,-0.25266 0.0238,-0.50533 c 0.0132,-0.16845 0.0159,-0.33688 0.045,-0.50533 z m 1.90236,1.97672 c -0.008,-0.16101 -0.0265,-0.3245 -0.0291,-0.48551 0.005,-0.16349 0.0238,-0.3245 0.0529,-0.48551 0.0609,-0.31954 0.16933,-0.63414 0.32015,-0.92643 l 0.0397,-0.0768 0.0106,0.0843 c 0.0212,0.17093 0.0238,0.34431 0.005,0.51524 -0.0185,0.1734 -0.0794,0.33688 -0.11113,0.50285 -0.0344,0.16596 -0.0688,0.33441 -0.0741,0.50037 -0.003,0.0843 0.005,0.16845 0.0291,0.24771 0.0212,0.0817 0.0661,0.15606 0.0979,0.23533 l -0.005,0.003 c -0.0397,-0.0768 -0.09,-0.14863 -0.12171,-0.23037 -0.0291,-0.0817 -0.0397,-0.17092 -0.0423,-0.25762 -0.003,-0.17339 0.0238,-0.34432 0.0529,-0.51275 0.0317,-0.17093 0.0926,-0.33194 0.11113,-0.49791 0.0212,-0.16596 0.0238,-0.33688 0.008,-0.50284 l 0.0503,0.007 c -0.15611,0.28733 -0.26723,0.5945 -0.33338,0.91156 -0.0344,0.15854 -0.0556,0.31955 -0.0661,0.48057 -0.003,0.161 0.0106,0.32201 0.0159,0.4855 z m 10.18646,0.13376 c -0.008,-0.16101 -0.0265,-0.32449 -0.0291,-0.4855 0.005,-0.1635 0.0238,-0.32451 0.0529,-0.48552 0.0608,-0.31954 0.16933,-0.63413 0.32015,-0.92643 l 0.0397,-0.0768 0.0106,0.0843 c 0.0212,0.17091 0.0238,0.34431 0.005,0.51523 -0.0185,0.1734 -0.0794,0.33689 -0.11113,0.50286 -0.0344,0.16596 -0.0688,0.3344 -0.0741,0.50036 -0.003,0.0843 0.005,0.16845 0.0291,0.24772 0.0212,0.0817 0.0662,0.15606 0.0979,0.23532 l -0.005,0.003 c -0.0397,-0.0768 -0.09,-0.14863 -0.12171,-0.23037 -0.0291,-0.0817 -0.0397,-0.17093 -0.0423,-0.25762 -0.003,-0.1734 0.0238,-0.34432 0.0529,-0.51276 0.0318,-0.17092 0.0926,-0.33193 0.11113,-0.4979 0.0212,-0.16596 0.0238,-0.33688 0.008,-0.50285 l 0.0503,0.007 c -0.15611,0.28734 -0.26723,0.5945 -0.33338,0.91157 -0.0344,0.15853 -0.0556,0.31954 -0.0661,0.48056 -0.003,0.16101 0.0106,0.32202 0.0159,0.4855 z m -3.60892,-0.13872 c -0.008,-0.16101 -0.0265,-0.32449 -0.0291,-0.4855 0.005,-0.1635 0.0238,-0.3245 0.0529,-0.48551 0.0609,-0.31955 0.16934,-0.63414 0.32015,-0.92644 l 0.0397,-0.0768 0.0106,0.0843 c 0.0212,0.17091 0.0238,0.34431 0.005,0.51524 -0.0185,0.17339 -0.0794,0.33688 -0.11112,0.50285 -0.0344,0.16596 -0.0688,0.33441 -0.0741,0.50037 -0.003,0.0843 0.005,0.16844 0.0291,0.24771 0.0212,0.0817 0.0661,0.15606 0.0979,0.23533 l -0.005,0.003 c -0.0397,-0.0768 -0.09,-0.14862 -0.12171,-0.23036 -0.0291,-0.0817 -0.0397,-0.17092 -0.0423,-0.25762 -0.003,-0.1734 0.0238,-0.34432 0.0529,-0.51276 0.0318,-0.17092 0.0926,-0.33193 0.11112,-0.4979 0.0212,-0.16596 0.0238,-0.33688 0.008,-0.50284 l 0.0503,0.007 c -0.1561,0.28733 -0.26723,0.5945 -0.33338,0.91156 -0.0344,0.15854 -0.0556,0.31954 -0.0661,0.48055 -0.003,0.16102 0.0106,0.32203 0.0159,0.48552 z m -2.10344,-1.91726 c -0.10848,0.14367 -0.20637,0.2923 -0.28575,0.45083 -0.082,0.15853 -0.127,0.32697 -0.13758,0.49789 -0.0159,0.1734 -0.005,0.3468 0.0238,0.51771 0.0291,0.16597 0.0688,0.35423 0.15346,0.47561 v 0 l -0.0847,0.007 0.24871,-0.46817 c 0.082,-0.15111 0.127,-0.31956 0.17992,-0.48552 0.0926,-0.33688 0.1561,-0.68368 0.23812,-1.02799 l 0.0132,0.003 c -0.0185,0.35174 -0.0529,0.70597 -0.12964,1.05523 -0.037,0.1734 -0.0926,0.34928 -0.17463,0.51524 -0.082,0.16102 -0.17727,0.31459 -0.2831,0.46322 l -0.045,0.0619 -0.0397,-0.0569 v 0 c -0.0661,-0.0917 -0.0847,-0.17588 -0.10848,-0.26505 -0.0212,-0.0867 -0.037,-0.17587 -0.0476,-0.26505 -0.0212,-0.17835 -0.0265,-0.3567 -0.003,-0.53505 0.0212,-0.17835 0.0794,-0.35422 0.16933,-0.51028 0.0873,-0.15853 0.19315,-0.30468 0.30957,-0.4434 z m -8.18885,-0.25019 c -0.16669,0.22293 -0.31221,0.46322 -0.38629,0.72331 -0.037,0.12881 -0.0529,0.26257 -0.0344,0.39138 0.0212,0.12881 0.0794,0.24771 0.16933,0.34431 v 0 l -0.0847,0.007 c 0.0582,-0.12385 0.12435,-0.24523 0.1905,-0.3666 0.0688,-0.1189 0.13229,-0.24029 0.18785,-0.36414 0.11906,-0.24523 0.21167,-0.50285 0.29104,-0.76542 l 0.0132,0.003 c -0.005,0.27744 -0.0794,0.54992 -0.17991,0.81001 -0.10319,0.26009 -0.254,0.50038 -0.41011,0.7357 l -0.0397,0.0619 -0.045,-0.0545 v 0 c -0.10055,-0.11395 -0.15875,-0.25514 -0.17463,-0.39881 -0.0132,-0.14367 0.0106,-0.28487 0.0556,-0.41862 0.0926,-0.26753 0.25665,-0.50038 0.43921,-0.71341 z m -4.65931,-0.31954 c -0.16669,0.22293 -0.31221,0.46321 -0.3863,0.72331 -0.037,0.1288 -0.0529,0.26257 -0.0344,0.39137 0.0212,0.12881 0.0794,0.24771 0.16933,0.34432 v 0 l -0.0847,0.007 c 0.0582,-0.12385 0.12435,-0.24524 0.1905,-0.36661 0.0688,-0.1189 0.13229,-0.24028 0.18785,-0.36413 0.11906,-0.24524 0.21167,-0.50286 0.29104,-0.76542 l 0.0132,0.003 c -0.005,0.27744 -0.0794,0.54992 -0.17992,0.81001 -0.10318,0.26009 -0.254,0.50037 -0.4101,0.73569 l -0.0397,0.062 -0.045,-0.0545 v 0 c -0.10054,-0.11394 -0.15875,-0.25514 -0.17462,-0.39881 -0.0159,-0.14367 0.0106,-0.28486 0.0556,-0.41863 0.0926,-0.26753 0.25665,-0.50037 0.43921,-0.71341 z m 3.10091,2.13277 c -0.008,-0.16101 -0.0265,-0.3245 -0.0291,-0.4855 0.005,-0.1635 0.0238,-0.32451 0.0529,-0.48552 0.0609,-0.31954 0.16933,-0.63413 0.32014,-0.92643 l 0.0397,-0.0768 0.0106,0.0843 c 0.0212,0.17091 0.0238,0.34431 0.005,0.51523 -0.0185,0.1734 -0.0794,0.33688 -0.11112,0.50285 -0.0344,0.16597 -0.0688,0.33441 -0.0741,0.50037 -0.003,0.0843 0.005,0.16845 0.0291,0.24772 0.0212,0.0817 0.0662,0.15605 0.0979,0.23532 l -0.005,0.003 c -0.0397,-0.0768 -0.09,-0.14862 -0.1217,-0.23037 -0.0291,-0.0817 -0.0397,-0.17092 -0.0423,-0.25761 -0.003,-0.1734 0.0238,-0.34432 0.0529,-0.51276 0.0318,-0.17092 0.0926,-0.33193 0.11112,-0.4979 0.0212,-0.16596 0.0238,-0.33689 0.008,-0.50285 l 0.0503,0.007 c -0.1561,0.28734 -0.26723,0.5945 -0.33337,0.91157 -0.0344,0.15853 -0.0556,0.31954 -0.0662,0.48055 -0.003,0.16102 0.0106,0.32203 0.0159,0.48551 z m -6.15685,-0.17091 c -0.0132,-0.17836 -0.0318,-0.35423 -0.037,-0.53259 0.003,-0.17835 0.0212,-0.3567 0.0503,-0.53257 0.0609,-0.35175 0.17462,-0.69606 0.33602,-1.02057 l 0.037,-0.0768 0.0106,0.0843 c 0.0265,0.18827 0.0291,0.379 0.0132,0.56726 -0.0185,0.19074 -0.082,0.37156 -0.11377,0.55487 -0.0344,0.18331 -0.0688,0.36908 -0.0714,0.5524 0,0.0917 0.0106,0.18577 0.037,0.27247 0.0264,0.0892 0.0741,0.17092 0.11112,0.2601 l -0.005,0.003 c -0.045,-0.0843 -0.10054,-0.1635 -0.13494,-0.25267 -0.0318,-0.0917 -0.045,-0.18579 -0.0503,-0.28239 -0.005,-0.19073 0.0185,-0.379 0.0503,-0.56477 0.0318,-0.18827 0.0953,-0.36662 0.11377,-0.54992 0.0212,-0.18331 0.0212,-0.37156 0,-0.55488 l 0.0503,0.007 c -0.16668,0.31708 -0.28575,0.65644 -0.35189,1.00571 -0.0344,0.17339 -0.0556,0.35174 -0.0635,0.52761 0.003,0.17588 0.0159,0.35423 0.0238,0.53259 z m 1.41023,-1.7414 c -0.10584,0.39138 0.008,0.81744 0.28575,1.11221 l -0.0794,0.0223 c 0.037,-0.29478 0.0582,-0.58955 0.10054,-0.88433 0.0556,-0.29229 0.12171,-0.58212 0.21432,-0.86698 l 0.0132,0.003 c -0.0212,0.59697 -0.14552,1.17661 -0.23813,1.76121 l -0.0159,0.0966 -0.0661,-0.0743 c -0.2831,-0.32698 -0.36512,-0.78276 -0.22754,-1.16919 z m 3.55335,0.41119 c -0.10583,0.39139 0.008,0.81744 0.28575,1.11221 l -0.0794,0.0223 c 0.037,-0.29478 0.0582,-0.58955 0.10054,-0.88433 0.0556,-0.2923 0.12171,-0.58212 0.21431,-0.86698 l 0.0132,0.003 c -0.0212,0.59698 -0.14552,1.17414 -0.23812,1.76121 l -0.0159,0.0966 -0.0662,-0.0743 c -0.2831,-0.32697 -0.36512,-0.78276 -0.22754,-1.16919 z m -0.83079,1.38966 c -0.0132,-0.17836 -0.0318,-0.35423 -0.037,-0.53259 0.003,-0.17835 0.0212,-0.3567 0.0503,-0.53257 0.0609,-0.35175 0.17462,-0.69606 0.33602,-1.02057 l 0.037,-0.0768 0.0106,0.0843 c 0.0264,0.18827 0.0291,0.379 0.0132,0.56726 -0.0185,0.19074 -0.082,0.37156 -0.11377,0.55487 -0.0344,0.18331 -0.0688,0.36908 -0.0714,0.5524 0,0.0917 0.0106,0.18577 0.037,0.27247 0.0265,0.0891 0.0741,0.17092 0.11112,0.2601 l -0.005,0.003 c -0.045,-0.0843 -0.10054,-0.1635 -0.13494,-0.25267 -0.0318,-0.0917 -0.045,-0.18579 -0.0503,-0.28239 -0.005,-0.19073 0.0185,-0.379 0.0503,-0.56477 0.0318,-0.18827 0.0953,-0.36662 0.11377,-0.54992 0.0212,-0.18331 0.0212,-0.37156 0,-0.55488 l 0.0503,0.007 c -0.16669,0.31708 -0.28575,0.65644 -0.3519,1.00571 -0.0344,0.17339 -0.0556,0.35175 -0.0635,0.52761 0.003,0.17588 0.0159,0.35423 0.0238,0.53259 z m -4.68048,-2.03865 c -0.16669,0.22293 -0.3175,0.46569 -0.39158,0.72578 -0.037,0.12881 -0.0556,0.26505 -0.037,0.39386 0.0185,0.12881 0.0767,0.25019 0.16933,0.34431 v 0 l -0.0847,0.007 c 0.0609,-0.12633 0.127,-0.2477 0.19315,-0.3666 0.0714,-0.1189 0.13494,-0.24029 0.1905,-0.36662 0.12171,-0.24771 0.21431,-0.50285 0.29633,-0.77037 l 0.0132,0.003 c -0.005,0.2799 -0.0847,0.55239 -0.18785,0.81495 -0.10584,0.26258 -0.25929,0.50286 -0.4154,0.73818 l -0.0397,0.0619 -0.045,-0.0545 v 0 c -0.10054,-0.11394 -0.16139,-0.25762 -0.17462,-0.40128 -0.0132,-0.14367 0.0132,-0.28735 0.0582,-0.42111 0.0952,-0.26753 0.26194,-0.50037 0.4445,-0.71588 z m -38.3328424,1.54322 c 0.07673,0.19074 0.103188,0.40377 0.06879,0.61185 -0.01587,0.10404 -0.03969,0.21055 -0.0979,0.3022 -0.06085,0.0892 -0.129646,0.17588 -0.230187,0.23037 l -0.01058,-0.007 c 0.03969,-0.0991 0.08467,-0.18579 0.119063,-0.27744 0.03704,-0.0891 0.08467,-0.17587 0.113771,-0.27 0.05556,-0.18827 0.06085,-0.38891 0.02381,-0.58707 z m -0.27252,1.14194 c -0.03175,-0.14615 -0.06615,-0.28981 -0.09525,-0.43597 -0.02646,-0.14614 -0.06615,-0.28981 -0.08731,-0.43596 -0.04498,-0.2923 -0.08202,-0.58708 -0.0926,-0.88433 l 0.01323,-0.003 c 0.0926,0.28487 0.15875,0.57717 0.214313,0.86698 0.02381,0.14615 0.02117,0.29726 0.03704,0.4434 0.01323,0.14863 0.01852,0.29725 0.02646,0.44588 z m 1.037166,-1.33763 c 0.02381,0.23285 0.124354,0.45083 0.164042,0.68368 0.02381,0.11642 0.04498,0.23285 0.04762,0.35175 0,0.1189 -0.01852,0.24275 -0.07937,0.34679 l -0.0053,-0.003 c 0.02381,-0.11643 0.0291,-0.2279 0.01852,-0.34432 -0.0053,-0.11394 -0.02117,-0.23037 -0.0344,-0.34679 -0.02646,-0.23037 -0.111125,-0.45578 -0.116416,-0.69111 z m 2.050521,0.0346 c 0.134938,0.38643 0.05292,0.84221 -0.227542,1.16919 l -0.06614,0.0743 -0.01588,-0.0966 c -0.0926,-0.5846 -0.216959,-1.16424 -0.238125,-1.76122 l 0.01323,-0.003 c 0.0926,0.28487 0.15875,0.57717 0.214312,0.86698 0.04233,0.2923 0.0635,0.58955 0.100542,0.88432 l -0.07937,-0.0223 c 0.277812,-0.29477 0.391583,-0.71835 0.28575,-1.11221 z m 2.9739174,-0.25018 c 0.134937,0.38642 0.05292,0.84221 -0.227542,1.16918 l -0.06615,0.0743 -0.01588,-0.0966 c -0.0926,-0.58459 -0.216958,-1.16423 -0.238125,-1.76122 l 0.01323,-0.003 c 0.09261,0.28487 0.15875,0.57717 0.214313,0.86699 0.04233,0.29229 0.0635,0.58955 0.100542,0.88432 l -0.07937,-0.0223 c 0.277812,-0.29477 0.391583,-0.71835 0.28575,-1.11221 z m 6.4135,-0.18331 c 0.06879,0.20808 0.07937,0.43349 0.0291,0.649 -0.05292,0.21551 -0.150813,0.41863 -0.293688,0.59946 l -0.06879,0.0891 -0.01058,-0.11147 c -0.03175,-0.31212 -0.07673,-0.62176 -0.105833,-0.93386 v 0.005 c -0.04763,-0.30221 -0.08731,-0.60441 -0.0979,-0.9091 l 0.01323,-0.003 c 0.09525,0.29477 0.161396,0.59203 0.219604,0.89175 v 0.003 0.003 c 0.02646,0.31211 0.03704,0.62422 0.06086,0.93634 l -0.07937,-0.0248 c 0.140229,-0.16101 0.248708,-0.35422 0.314854,-0.55734 0.06615,-0.20312 0.0635,-0.42606 0.0079,-0.63413 z m 3.852338,-0.41863 c 0.0291,0.16845 0.0344,0.33689 0.045,0.50533 l 0.0238,0.50533 0.008,0.25266 c -0.005,0.0867 0.0132,0.16349 -0.0238,0.26753 -0.008,0.01 -0.0106,0.0198 -0.0344,0.0272 -0.0185,0.007 -0.0397,-0.003 -0.0476,-0.007 -0.0185,-0.0123 -0.0238,-0.0223 -0.0317,-0.0322 -0.0159,-0.0198 -0.0265,-0.0396 -0.037,-0.0594 l -0.0582,-0.11642 c -0.0185,-0.0372 -0.037,-0.0768 -0.0582,-0.11148 -0.0106,-0.0173 -0.0212,-0.0346 -0.0318,-0.0471 -0.005,-0.005 -0.0132,-0.0124 -0.0106,-0.01 0,0.005 0.0291,0 0.0265,-0.005 l -0.0794,-0.0223 c -0.0926,-0.58459 -0.21696,-1.16423 -0.23813,-1.7612 l 0.0132,-0.003 c 0.0926,0.28486 0.15875,0.57716 0.21431,0.86698 0.0423,0.2923 0.0635,0.58955 0.10055,0.88433 l -0.0794,-0.0223 c 0.0132,-0.0223 0.0662,-0.0322 0.0873,-0.0149 0.0212,0.0124 0.0291,0.0223 0.037,0.0322 0.0159,0.0198 0.0265,0.0396 0.0397,0.0595 0.0212,0.0396 0.0397,0.0793 0.0556,0.1189 l 0.0529,0.11394 c 0.008,0.0173 0.0185,0.0372 0.0291,0.0521 0.005,0.007 0.0106,0.0149 0.0106,0.0149 0.003,-0.005 -0.037,0.005 -0.0265,0.005 0.0212,-0.0545 0.0212,-0.15358 0.0238,-0.23285 l 0.003,-0.25266 -0.003,-0.50533 c -0.005,-0.16844 -0.003,-0.33689 -0.0238,-0.50285 z m -1.926172,1.9792 c 0.0053,-0.161 0.01587,-0.3245 0.01587,-0.48551 -0.0079,-0.16101 -0.03175,-0.32202 -0.06615,-0.48055 -0.06615,-0.31707 -0.179916,-0.62423 -0.333375,-0.91158 l 0.05027,-0.007 c -0.01587,0.16844 -0.01323,0.33688 0.0079,0.50285 0.01852,0.16596 0.07938,0.32698 0.111125,0.49789 0.0291,0.16845 0.05292,0.33937 0.05292,0.51276 -0.0026,0.0867 -0.01323,0.1734 -0.04233,0.25762 -0.0291,0.0817 -0.08202,0.15358 -0.121708,0.23037 l -0.0053,-0.003 c 0.03175,-0.0793 0.07673,-0.15358 0.0979,-0.23532 0.02381,-0.0817 0.0291,-0.16349 0.0291,-0.2477 -0.0053,-0.16845 -0.03969,-0.33441 -0.07408,-0.50038 -0.0291,-0.16596 -0.0926,-0.32697 -0.111125,-0.50285 -0.01852,-0.17092 -0.01588,-0.34432 0.0053,-0.51524 l 0.01058,-0.0843 0.03969,0.0768 c 0.150813,0.29478 0.259292,0.60689 0.320146,0.92644 0.0291,0.16101 0.04762,0.32202 0.05292,0.48551 -0.0026,0.16349 -0.01852,0.3245 -0.0291,0.48551 z m -10.183812,0.13377 c 0.0053,-0.16102 0.01588,-0.3245 0.01588,-0.48551 -0.0079,-0.16101 -0.03175,-0.32203 -0.06615,-0.48057 -0.06615,-0.31706 -0.1799174,-0.62422 -0.3333754,-0.91156 l 0.05027,-0.007 c -0.01587,0.16845 -0.01323,0.33688 0.0079,0.50285 0.01852,0.16597 0.07938,0.32697 0.111125,0.4979 0.02911,0.16844 0.05292,0.33936 0.05292,0.51275 -0.0026,0.0867 -0.01323,0.1734 -0.04233,0.25762 -0.0291,0.0817 -0.08202,0.15358 -0.121709,0.23037 l -0.0053,-0.003 c 0.03175,-0.0793 0.07673,-0.15358 0.0979,-0.23533 0.02381,-0.0817 0.0291,-0.16348 0.0291,-0.24771 -0.0053,-0.16844 -0.03969,-0.33441 -0.07408,-0.50037 -0.0291,-0.16596 -0.0926,-0.32698 -0.111125,-0.50285 -0.01852,-0.17091 -0.01588,-0.34431 0.0053,-0.51524 l 0.01058,-0.0842 0.03969,0.0768 c 0.150812,0.29477 0.2592924,0.60689 0.3201464,0.92643 0.0291,0.16101 0.04762,0.32202 0.05292,0.48551 -0.0026,0.16349 -0.01852,0.3245 -0.0291,0.48551 z m 3.608917,-0.13872 c 0.0053,-0.16102 0.01587,-0.3245 0.01587,-0.48551 -0.0079,-0.16101 -0.03175,-0.32203 -0.06615,-0.48056 -0.06615,-0.31707 -0.179917,-0.62422 -0.333375,-0.91157 l 0.05027,-0.007 c -0.01587,0.16845 -0.01323,0.33689 0.0079,0.50286 0.01852,0.16596 0.07937,0.32697 0.111125,0.49789 0.0291,0.16844 0.05292,0.33936 0.05292,0.51276 -0.0026,0.0867 -0.01323,0.1734 -0.04233,0.25761 -0.0291,0.0817 -0.08202,0.15359 -0.121708,0.23038 l -0.0053,-0.003 c 0.03175,-0.0793 0.07673,-0.15358 0.0979,-0.23532 0.02381,-0.0817 0.0291,-0.16349 0.0291,-0.24772 -0.0053,-0.16843 -0.03969,-0.3344 -0.07408,-0.50036 -0.0291,-0.16598 -0.0926,-0.32698 -0.111125,-0.50286 -0.01852,-0.17091 -0.01587,-0.34431 0.0053,-0.51523 l 0.01058,-0.0843 0.03969,0.0768 c 0.150812,0.29477 0.259291,0.60689 0.320145,0.92643 0.02911,0.16101 0.04762,0.32203 0.05292,0.48552 -0.0026,0.16348 -0.01852,0.32449 -0.0291,0.48551 z m 2.119312,-1.9247 c 0.116417,0.13872 0.22225,0.28486 0.309562,0.44339 0.08996,0.15606 0.148167,0.33194 0.169334,0.51029 0.02117,0.17835 0.01852,0.3567 -0.0026,0.53505 -0.01058,0.0892 -0.02646,0.17835 -0.04763,0.26505 -0.02381,0.0891 -0.04233,0.1734 -0.108479,0.26504 v 0 l -0.03969,0.057 -0.04498,-0.0619 c -0.108479,-0.14615 -0.203729,-0.30221 -0.28575,-0.46322 -0.08202,-0.16597 -0.134937,-0.34183 -0.174625,-0.51523 -0.07673,-0.34927 -0.113771,-0.70102 -0.129646,-1.05525 l 0.01323,-0.003 c 0.08202,0.34432 0.145521,0.69111 0.238125,1.02799 0.05027,0.16845 0.0979,0.33441 0.179917,0.48551 l 0.248708,0.46817 -0.08467,-0.007 v 0 c 0.08467,-0.12138 0.124354,-0.31212 0.153458,-0.4756 0.02646,-0.17093 0.03704,-0.3468 0.02381,-0.51771 -0.01058,-0.1734 -0.05821,-0.34185 -0.137584,-0.4979 -0.07937,-0.15854 -0.177271,-0.30964 -0.28575,-0.45084 z m 8.191515,-0.25019 c 0.17991,0.21551 0.34395,0.44836 0.4392,0.7134 0.045,0.13377 0.0688,0.27496 0.0556,0.41863 -0.0159,0.14368 -0.0741,0.28487 -0.17462,0.39882 v 0 l -0.045,0.0545 -0.0397,-0.0619 c -0.15346,-0.23533 -0.30427,-0.4756 -0.41011,-0.73569 -0.10054,-0.26011 -0.17727,-0.53258 -0.17991,-0.81002 l 0.0132,-0.003 c 0.0794,0.26505 0.17198,0.52019 0.29104,0.76542 0.0529,0.12386 0.11906,0.24523 0.18785,0.36413 0.0662,0.1189 0.1323,0.24028 0.1905,0.36662 l -0.0847,-0.007 v 0 c 0.0926,-0.0941 0.15082,-0.21551 0.16934,-0.34432 0.0185,-0.12881 0.003,-0.26257 -0.0344,-0.39138 -0.0714,-0.2601 -0.21961,-0.50037 -0.3863,-0.72332 z m 4.65931,-0.31954 c 0.17991,0.21551 0.34396,0.44834 0.43921,0.7134 0.045,0.13376 0.0688,0.27496 0.0556,0.41862 -0.0159,0.14368 -0.0741,0.28488 -0.17463,0.39882 v 0 l -0.045,0.0545 -0.0397,-0.0619 c -0.15346,-0.23533 -0.30427,-0.4756 -0.41011,-0.7357 -0.10054,-0.2601 -0.17727,-0.53258 -0.17991,-0.81001 l 0.0132,-0.003 c 0.0794,0.26505 0.17198,0.5202 0.29105,0.76542 0.0529,0.12386 0.11906,0.24524 0.18785,0.36414 0.0662,0.1189 0.13229,0.24028 0.1905,0.36661 l -0.0847,-0.007 v 0 c 0.0926,-0.0941 0.15082,-0.21551 0.16934,-0.34432 0.0185,-0.12881 0.003,-0.26257 -0.0344,-0.39139 -0.0714,-0.26009 -0.2196,-0.50036 -0.38629,-0.72331 z m -3.11944,2.13772 c 0.005,-0.16101 0.0159,-0.32449 0.0159,-0.4855 -0.008,-0.16102 -0.0318,-0.32203 -0.0661,-0.48056 -0.0661,-0.31707 -0.17992,-0.62423 -0.33338,-0.91157 l 0.0503,-0.007 c -0.0159,0.16844 -0.0132,0.33689 0.008,0.50285 0.0185,0.16597 0.0794,0.32698 0.11113,0.4979 0.0291,0.16844 0.0529,0.33936 0.0529,0.51276 -0.003,0.0867 -0.0132,0.1734 -0.0423,0.25761 -0.0291,0.0817 -0.082,0.15359 -0.12171,0.23038 l -0.005,-0.003 c 0.0318,-0.0793 0.0767,-0.15358 0.0979,-0.23532 0.0238,-0.0817 0.0291,-0.16349 0.0291,-0.24772 -0.005,-0.16843 -0.0397,-0.3344 -0.0741,-0.50036 -0.0291,-0.16598 -0.0926,-0.32698 -0.11113,-0.50286 -0.0185,-0.17092 -0.0159,-0.34431 0.005,-0.51523 l 0.0106,-0.0843 0.0397,0.0768 c 0.15082,0.29477 0.2593,0.60689 0.32015,0.92643 0.0291,0.16101 0.0476,0.32202 0.0529,0.48552 -0.003,0.16348 -0.0185,0.32449 -0.0291,0.4855 z m 6.15685,-0.17091 c 0.008,-0.17835 0.0238,-0.35422 0.0238,-0.53257 -0.008,-0.17588 -0.0291,-0.35423 -0.0635,-0.52763 -0.0661,-0.34927 -0.18521,-0.68863 -0.3519,-1.00569 l 0.0503,-0.007 c -0.0212,0.18578 -0.0212,0.37155 0,0.55486 0.0185,0.18331 0.082,0.36166 0.11377,0.54992 0.0291,0.18578 0.0556,0.37404 0.0503,0.56478 -0.003,0.0941 -0.0185,0.19073 -0.0503,0.28238 -0.0344,0.0891 -0.09,0.17093 -0.13494,0.25267 l -0.005,-0.003 c 0.037,-0.0867 0.0847,-0.16844 0.11113,-0.26009 0.0265,-0.0891 0.037,-0.18083 0.037,-0.27248 -0.003,-0.18579 -0.037,-0.37157 -0.0714,-0.55239 -0.0291,-0.18331 -0.0952,-0.36166 -0.11377,-0.55488 -0.0185,-0.18825 -0.0132,-0.37899 0.0132,-0.56724 l 0.0106,-0.0843 0.037,0.0768 c 0.16139,0.32449 0.27516,0.66881 0.33602,1.02055 0.0291,0.17588 0.0476,0.35423 0.0503,0.53259 -0.005,0.17835 -0.0265,0.3567 -0.037,0.53257 z m -1.3917,-1.7414 c 0.13493,0.38643 0.0529,0.84221 -0.22755,1.16919 l -0.0661,0.0743 -0.0159,-0.0966 c -0.0926,-0.58459 -0.21696,-1.16423 -0.23812,-1.76121 l 0.0132,-0.003 c 0.0926,0.28486 0.15875,0.57716 0.21431,0.86698 0.0423,0.2923 0.0635,0.58955 0.10054,0.88432 l -0.0794,-0.0223 c 0.27781,-0.29478 0.39158,-0.71836 0.28575,-1.11222 z m -3.55071,0.40872 c 0.13493,0.38643 0.0529,0.84222 -0.22754,1.16919 l -0.0662,0.0743 -0.0159,-0.0966 c -0.0926,-0.58459 -0.21695,-1.16423 -0.23812,-1.76121 l 0.0132,-0.003 c 0.0926,0.28486 0.15875,0.57716 0.21431,0.86698 0.0423,0.2923 0.0635,0.58955 0.10054,0.88432 l -0.0794,-0.0223 c 0.27781,-0.29477 0.39158,-0.71835 0.28575,-1.11221 z m 0.80962,1.39461 c 0.008,-0.17835 0.0238,-0.35423 0.0238,-0.53258 -0.008,-0.17587 -0.0291,-0.35422 -0.0635,-0.52762 -0.0661,-0.34927 -0.1852,-0.68863 -0.35189,-1.0057 l 0.0503,-0.007 c -0.0212,0.18578 -0.0212,0.37157 0,0.55487 0.0185,0.1833 0.082,0.36165 0.11377,0.54992 0.0291,0.18577 0.0556,0.37404 0.0503,0.56478 -0.003,0.0941 -0.0185,0.19072 -0.0503,0.28238 -0.0344,0.0891 -0.09,0.17092 -0.13494,0.25267 l -0.005,-0.003 c 0.037,-0.0867 0.0847,-0.16845 0.11113,-0.26009 0.0264,-0.0891 0.037,-0.18083 0.037,-0.27248 -0.003,-0.18579 -0.037,-0.37157 -0.0714,-0.5524 -0.0291,-0.18331 -0.0952,-0.36166 -0.11377,-0.55486 -0.0185,-0.18827 -0.0132,-0.379 0.0132,-0.56726 l 0.0106,-0.0843 0.037,0.0768 c 0.1614,0.3245 0.27517,0.66882 0.33602,1.02057 0.0291,0.17587 0.0476,0.35422 0.0503,0.53257 -0.005,0.17835 -0.0265,0.3567 -0.037,0.53258 z m 4.69636,-2.04608 c 0.18256,0.21551 0.34925,0.44835 0.4445,0.71587 0.0476,0.13377 0.0741,0.27496 0.0582,0.42112 -0.0132,0.14366 -0.0741,0.28733 -0.17462,0.40128 v 0 l -0.045,0.0545 -0.0397,-0.0619 c -0.1561,-0.23532 -0.30956,-0.4756 -0.41539,-0.73817 -0.10319,-0.26257 -0.17992,-0.53505 -0.18786,-0.81496 l 0.0132,-0.003 c 0.082,0.26505 0.17463,0.52267 0.29634,0.77038 0.0556,0.12633 0.1217,0.24771 0.1905,0.36661 0.0688,0.12137 0.13493,0.24276 0.19314,0.36661 l -0.0847,-0.007 v 0 c 0.0926,-0.0941 0.15082,-0.2155 0.16934,-0.34432 0.0185,-0.1288 0,-0.26504 -0.037,-0.39386 -0.0741,-0.26009 -0.2249,-0.50284 -0.39159,-0.72578 z m -24.9740344,2.37305 c -0.01323,-0.11394 -0.03175,-0.22789 -0.05292,-0.33936 -0.0291,-0.11147 -0.05027,-0.22294 -0.04233,-0.34184 l 0.0053,-0.003 c 0.06085,0.10403 0.08467,0.22046 0.08996,0.33688 0.01058,0.11642 0.01323,0.23037 0.0053,0.3468 z m 38.3778244,-4.80308 c 0.0688,0.18578 0.1561,0.35917 0.25135,0.52762 0.0952,0.16844 0.19579,0.33688 0.30163,0.50285 l 0.3175,0.49789 c 0.10583,0.16597 0.21431,0.33194 0.31485,0.50285 -0.15081,-0.13624 -0.2831,-0.28734 -0.41275,-0.4434 -0.12964,-0.15358 -0.24342,-0.31706 -0.34925,-0.48798 -0.10319,-0.17093 -0.20373,-0.34432 -0.27781,-0.5301 -0.0714,-0.18083 -0.13758,-0.37157 -0.14552,-0.56973 z m 1.00277,-2.68022 c 0.0238,0.42854 0.045,0.8546 0.12171,1.27322 0.0635,0.42111 0.17198,0.83479 0.31221,1.23607 0.127,0.40625 0.30956,0.79763 0.51064,1.17662 0.20373,0.37901 0.43656,0.74561 0.71438,1.08745 -0.32544,-0.30221 -0.59002,-0.66138 -0.81757,-1.03542 -0.22489,-0.37652 -0.4101,-0.77534 -0.55298,-1.18653 -0.12964,-0.41368 -0.24077,-0.83478 -0.2831,-1.2658 -0.0318,-0.21303 -0.0318,-0.43101 -0.0423,-0.64405 0.003,-0.21302 0.0212,-0.42853 0.037,-0.64156 z m 24.92639,-0.50533 c -0.12435,0.31955 -0.25135,0.64157 -0.38893,0.95864 -0.15875,0.30715 -0.29898,0.62671 -0.47625,0.92643 -0.17463,0.3022 -0.3519,0.60194 -0.56092,0.88433 -0.19315,0.29229 -0.42069,0.5623 -0.64029,0.83725 -0.47096,0.52762 -0.98161,1.02552 -1.56369,1.4491 -0.57944,0.41864 -1.21179,0.78771 -1.91029,1.00075 0.33867,-0.13129 0.65617,-0.29725 0.96044,-0.48303 0.15346,-0.0917 0.30427,-0.18579 0.44979,-0.28735 0.14817,-0.0966 0.28839,-0.20808 0.42862,-0.31459 0.55827,-0.43349 1.06363,-0.92395 1.51871,-1.45158 0.45773,-0.52762 0.85725,-1.09488 1.21973,-1.6869 0.18786,-0.28982 0.33867,-0.60193 0.51065,-0.90166 z m -41.7195,5.21676 c 0.20373,-0.34184 0.42598,-0.66633 0.63236,-1.00074 0.10583,-0.16597 0.20637,-0.33193 0.30162,-0.50285 0.0953,-0.17092 0.18257,-0.34432 0.25136,-0.52762 -0.008,0.19816 -0.0714,0.3889 -0.14552,0.5722 -0.0741,0.18579 -0.17198,0.35918 -0.27782,0.5301 -0.10847,0.16845 -0.22225,0.33193 -0.34925,0.48551 -0.12964,0.15606 -0.26193,0.30716 -0.41275,0.4434 z m -1.47902,0.0644 c 0.27782,-0.34184 0.51065,-0.70845 0.71438,-1.08745 0.20108,-0.38147 0.38364,-0.77037 0.51064,-1.17662 0.13759,-0.40376 0.24871,-0.81744 0.31221,-1.23606 0.0794,-0.41864 0.0979,-0.84469 0.12171,-1.27323 0.0159,0.21303 0.0344,0.42854 0.0318,0.64404 -0.0106,0.21551 -0.0106,0.43101 -0.0423,0.64404 -0.0423,0.43102 -0.15346,0.85213 -0.28311,1.2658 -0.14287,0.4112 -0.32808,0.81001 -0.55298,1.18653 -0.22225,0.37156 -0.48683,0.72826 -0.81227,1.03295 z m -17.727089,0.77533 c -0.6958544,-0.21304 -1.3282084,-0.5846 -1.9076464,-1.00075 -0.579437,-0.4211 -1.092729,-0.919 -1.563687,-1.44662 -0.22225,-0.27248 -0.447146,-0.54496 -0.640292,-0.83726 -0.209021,-0.28238 -0.386292,-0.58212 -0.560917,-0.88432 -0.177271,-0.29973 -0.3175,-0.61928 -0.47625,-0.92643 -0.134937,-0.31707 -0.261937,-0.6391 -0.388937,-0.96112 l 0.455083,0.93139 c 0.171979,0.29973 0.322792,0.61184 0.510646,0.90166 0.359833,0.58955 0.762,1.15928 1.219729,1.6869 0.455083,0.52763 0.960438,1.01809 1.518708,1.45158 0.277813,0.21798 0.568855,0.42358 0.875771,0.60194 0.3016254,0.18578 0.6217714,0.35422 0.9577924,0.48303 z m 26.151429,1.20882"
     inkscape:label="front-folds" />
  <path
     id="path17"
     style="clip-rule:evenodd;display:inline;fill:none;fill-rule:evenodd;stroke:#5668ee;stroke-width:0.132;stroke-linecap:round;stroke-miterlimit:8.28928;stroke-dasharray:0.396, 0.396;stroke-dashoffset:0;stroke-opacity:1"
     class="st14"
     d="m 169.83805,73.654436 c 6.11386,-13.87127 -3.32116,-24.87562 -9.09527,-32.86912 l -1.086,-0.0114 c -0.14219,-0.4956 -17.19137,12.72119 -17.87938,33.13807 m -37.1855,0.006 c -6.004496,-13.84447 3.74867,-24.87167 9.57305,-33.24939 l 0.99539,-0.003 c 0.16862,-0.20814 16.97946,13.11196 17.3795,33.25792"
     inkscape:label="back-stitches"
     sodipodi:nodetypes="cccccccc" />
  <path
     id="path18"
     style="display:inline;opacity:0.3;fill:none;fill-opacity:1;stroke:#000000;stroke-width:0.245025;stroke-miterlimit:8.28928;stroke-dasharray:none;stroke-dashoffset:0;stroke-opacity:1"
     d="m 105.2478,73.241976 c 0.0238,0.21263 0.12436,0.41168 0.16404,0.62431 0.0238,0.10631 0.045,0.21263 0.0476,0.32121 0,0.10862 -0.0185,0.22167 -0.0794,0.31667 l -0.005,-0.002 c 0.0238,-0.10632 0.0291,-0.20811 0.0185,-0.31441 -0.005,-0.10402 -0.0212,-0.21037 -0.0344,-0.31669 -0.0265,-0.21036 -0.11113,-0.4162 -0.11642,-0.6311 z m 2.05052,0.0317 c 0.13494,0.35287 0.0529,0.76907 -0.22754,1.06766 l -0.0661,0.0679 -0.0159,-0.0883 c -0.0926,-0.53383 -0.21696,-1.06315 -0.23812,-1.6083 l 0.0132,-0.002 c 0.0926,0.26013 0.15875,0.52705 0.21432,0.79171 0.0423,0.26692 0.0635,0.53836 0.10054,0.80753 l -0.0794,-0.0203 c 0.27782,-0.26919 0.39159,-0.65598 0.28575,-1.01565 z m 2.97392,-0.22847 c 0.13494,0.35288 0.0529,0.76908 -0.22754,1.06767 l -0.0662,0.0679 -0.0159,-0.0883 c -0.0926,-0.53383 -0.21696,-1.06314 -0.23813,-1.60829 l 0.0132,-0.003 c 0.0926,0.26013 0.15875,0.52706 0.21431,0.79171 0.0423,0.26692 0.0635,0.53835 0.10055,0.80753 l -0.0794,-0.0204 c 0.27781,-0.26917 0.39158,-0.65598 0.28575,-1.01563 z m 6.4135,-0.16738 c 0.0688,0.19001 0.0794,0.39585 0.0291,0.59265 -0.0529,0.19678 -0.15081,0.38227 -0.29368,0.54739 l -0.0688,0.0814 -0.0106,-0.10184 c -0.0317,-0.28502 -0.0767,-0.56777 -0.10583,-0.85277 v 0.005 c -0.0476,-0.27596 -0.0873,-0.55192 -0.0979,-0.83015 l 0.0132,-0.002 c 0.0953,0.26918 0.1614,0.54062 0.21961,0.81431 v 0.003 0.002 c 0.0264,0.28501 0.037,0.57002 0.0608,0.85504 l -0.0794,-0.0226 c 0.14023,-0.14703 0.24871,-0.32346 0.31486,-0.50894 0.0661,-0.18549 0.0635,-0.38906 0.008,-0.57908 z m 3.85233,-0.38228 c 0.0291,0.15381 0.0344,0.30763 0.045,0.46144 l 0.0238,0.46146 0.008,0.23072 c -0.003,0.0792 0.0132,0.14929 -0.0238,0.24429 -0.008,0.009 -0.0106,0.0181 -0.0344,0.0249 -0.0185,0.007 -0.0397,-0.002 -0.0476,-0.007 -0.0185,-0.0115 -0.0238,-0.0204 -0.0318,-0.0294 -0.0159,-0.018 -0.0265,-0.0362 -0.037,-0.0543 l -0.0582,-0.10632 c -0.0185,-0.0339 -0.037,-0.0701 -0.0582,-0.10183 -0.0106,-0.0159 -0.0212,-0.0316 -0.0317,-0.043 -0.005,-0.005 -0.0132,-0.0115 -0.0106,-0.009 0,0.005 0.0291,0 0.0265,-0.005 l -0.0794,-0.0203 c -0.0926,-0.53382 -0.21696,-1.06315 -0.23812,-1.60827 l 0.0132,-0.002 c 0.0926,0.26012 0.15875,0.52703 0.21432,0.79169 0.0423,0.26692 0.0635,0.53836 0.10054,0.80754 l -0.0794,-0.0203 c 0.0132,-0.0204 0.0661,-0.0294 0.0873,-0.0136 0.0212,0.0115 0.0291,0.0203 0.037,0.0294 0.0159,0.018 0.0265,0.0362 0.0397,0.0544 0.0212,0.0362 0.0397,0.0724 0.0556,0.10861 l 0.0529,0.10402 c 0.0106,0.0159 0.0185,0.0339 0.0291,0.0475 0.005,0.007 0.0106,0.0136 0.0106,0.0136 0.003,-0.005 -0.037,0.005 -0.0265,0.005 0.0212,-0.0498 0.0212,-0.14025 0.0238,-0.21264 l 0.003,-0.23072 -0.003,-0.46144 c -0.005,-0.15382 -0.003,-0.30765 -0.0238,-0.4592 z m -1.92616,1.80734 c 0.005,-0.14703 0.0159,-0.29632 0.0159,-0.44336 -0.008,-0.14703 -0.0318,-0.29406 -0.0661,-0.43882 -0.0662,-0.28954 -0.17992,-0.57004 -0.33338,-0.83243 l 0.0503,-0.007 c -0.0159,0.15381 -0.0132,0.30763 0.008,0.45919 0.0185,0.15154 0.0794,0.29858 0.11112,0.45466 0.0291,0.15382 0.0529,0.30989 0.0529,0.46823 -0.003,0.0792 -0.0132,0.15835 -0.0423,0.23525 -0.0291,0.0747 -0.082,0.14024 -0.12171,0.21036 l -0.005,-0.002 c 0.0317,-0.0724 0.0767,-0.14025 0.0979,-0.2149 0.0238,-0.0747 0.0291,-0.1493 0.0291,-0.2262 -0.005,-0.15381 -0.0397,-0.30537 -0.0741,-0.45692 -0.0291,-0.15155 -0.0926,-0.29858 -0.11112,-0.4592 -0.0185,-0.15607 -0.0159,-0.31441 0.005,-0.47048 l 0.0106,-0.0769 0.0397,0.0701 c 0.15081,0.26918 0.25929,0.55419 0.32015,0.84599 0.0291,0.14702 0.0476,0.29406 0.0529,0.44335 -0.003,0.1493 -0.0185,0.29632 -0.0291,0.44336 z m -10.18382,0.12215 c 0.005,-0.14703 0.0159,-0.29631 0.0159,-0.44335 -0.008,-0.14703 -0.0318,-0.29406 -0.0662,-0.43884 -0.0661,-0.28952 -0.17991,-0.57003 -0.33337,-0.83241 l 0.0503,-0.007 c -0.0159,0.15381 -0.0132,0.30762 0.008,0.45919 0.0185,0.15156 0.0794,0.29858 0.11112,0.45466 0.0291,0.15382 0.0529,0.3099 0.0529,0.46824 -0.003,0.0792 -0.0132,0.15833 -0.0423,0.23524 -0.0291,0.0747 -0.082,0.14025 -0.1217,0.21037 l -0.005,-0.002 c 0.0317,-0.0724 0.0767,-0.14023 0.0979,-0.2149 0.0238,-0.0747 0.0291,-0.14928 0.0291,-0.2262 -0.005,-0.15381 -0.0397,-0.30536 -0.0741,-0.45691 -0.0291,-0.15156 -0.0926,-0.29858 -0.11112,-0.45919 -0.0185,-0.15607 -0.0159,-0.31441 0.005,-0.4705 l 0.0106,-0.0768 0.0397,0.0701 c 0.15081,0.26918 0.25929,0.55419 0.32014,0.84599 0.0291,0.14703 0.0476,0.29407 0.0529,0.44335 -0.003,0.1493 -0.0185,0.29632 -0.0291,0.44336 z m 3.60892,-0.12668 c 0.005,-0.14702 0.0159,-0.29632 0.0159,-0.44335 -0.008,-0.14702 -0.0317,-0.29405 -0.0661,-0.43882 -0.0661,-0.28955 -0.17992,-0.57003 -0.33338,-0.83242 l 0.0503,-0.007 c -0.0159,0.15382 -0.0132,0.30764 0.008,0.4592 0.0185,0.15155 0.0794,0.29859 0.11113,0.45466 0.0291,0.15382 0.0529,0.3099 0.0529,0.46823 -0.003,0.0792 -0.0132,0.15835 -0.0423,0.23525 -0.0291,0.0747 -0.082,0.14024 -0.12171,0.21037 l -0.005,-0.002 c 0.0318,-0.0724 0.0767,-0.14025 0.0979,-0.21488 0.0238,-0.0747 0.0291,-0.1493 0.0291,-0.22621 -0.005,-0.15382 -0.0397,-0.30536 -0.0741,-0.45692 -0.0291,-0.15156 -0.0926,-0.29859 -0.11113,-0.4592 -0.0185,-0.15608 -0.0159,-0.31441 0.005,-0.47049 l 0.0106,-0.0769 0.0397,0.0701 c 0.15081,0.26916 0.25929,0.55419 0.32014,0.84598 0.0291,0.14704 0.0476,0.29407 0.0529,0.44337 -0.003,0.14928 -0.0185,0.29631 -0.0291,0.44334 z m 2.11931,-1.75757 c 0.11642,0.12667 0.22225,0.26013 0.30957,0.40489 0.0899,0.14251 0.14816,0.30312 0.16933,0.46598 0.0212,0.16287 0.0185,0.32573 -0.003,0.48859 -0.0106,0.0814 -0.0265,0.16287 -0.0476,0.24204 -0.0238,0.0814 -0.0423,0.15834 -0.10848,0.24202 v 0 l -0.0397,0.0521 -0.045,-0.0564 c -0.10848,-0.13346 -0.20373,-0.27597 -0.2831,-0.42299 -0.082,-0.15155 -0.13494,-0.31216 -0.17463,-0.47049 -0.0767,-0.31895 -0.11377,-0.64015 -0.12964,-0.96363 l 0.0132,-0.002 c 0.082,0.31442 0.14552,0.6311 0.23812,0.93873 0.0503,0.15382 0.0979,0.30538 0.17992,0.44335 l 0.24871,0.42751 -0.0847,-0.007 v 0 c 0.0847,-0.1108 0.12435,-0.28503 0.15346,-0.43431 0.0265,-0.15608 0.037,-0.31667 0.0238,-0.47276 -0.0106,-0.15834 -0.0582,-0.31216 -0.13758,-0.45466 -0.0794,-0.14477 -0.17727,-0.28275 -0.28575,-0.41169 z m 8.1915,-0.22847 c 0.17992,0.19681 0.34396,0.40944 0.43921,0.65147 0.045,0.12215 0.0688,0.25108 0.0556,0.38228 -0.0159,0.13119 -0.0741,0.26013 -0.17462,0.36418 v 0 l -0.045,0.0498 -0.0397,-0.0566 c -0.15346,-0.21489 -0.30427,-0.43431 -0.4101,-0.6718 -0.10054,-0.23752 -0.17727,-0.48634 -0.17992,-0.73969 l 0.0132,-0.002 c 0.0794,0.24203 0.17198,0.47502 0.29104,0.69897 0.0529,0.1131 0.11906,0.22393 0.18786,0.3325 0.0661,0.10862 0.13229,0.21942 0.1905,0.33479 l -0.0847,-0.007 v 0 c 0.0926,-0.086 0.15081,-0.19679 0.16933,-0.31443 0.0185,-0.11763 0.003,-0.23977 -0.0344,-0.35739 -0.0714,-0.2375 -0.21961,-0.45692 -0.38629,-0.66051 z m 4.65932,-0.2918 c 0.17991,0.19681 0.34395,0.40942 0.4392,0.65147 0.045,0.12215 0.0688,0.25108 0.0556,0.38227 -0.0159,0.13119 -0.0741,0.26014 -0.17463,0.36419 v 0 l -0.045,0.0498 -0.0397,-0.0564 c -0.15345,-0.2149 -0.30427,-0.43431 -0.4101,-0.67181 -0.10054,-0.23752 -0.17727,-0.48633 -0.17992,-0.73968 l 0.0132,-0.002 c 0.0794,0.24203 0.17198,0.47503 0.29104,0.69896 0.0556,0.1131 0.11907,0.22394 0.18786,0.33251 0.0661,0.10862 0.13229,0.21942 0.1905,0.33478 l -0.0847,-0.007 v 0 c 0.0926,-0.086 0.15081,-0.19679 0.16934,-0.31442 0.0185,-0.11762 0.003,-0.23977 -0.0344,-0.3574 -0.0714,-0.2375 -0.2196,-0.45692 -0.38629,-0.6605 z m -3.11944,1.95212 c 0.005,-0.14704 0.0159,-0.29632 0.0159,-0.44336 -0.008,-0.14703 -0.0318,-0.29406 -0.0661,-0.43882 -0.0662,-0.28954 -0.17992,-0.57003 -0.33338,-0.83243 l 0.0503,-0.007 c -0.0159,0.15382 -0.0132,0.30763 0.008,0.45918 0.0185,0.15156 0.0794,0.29859 0.11113,0.45466 0.0291,0.15384 0.0529,0.30991 0.0529,0.46825 -0.003,0.0792 -0.0132,0.15834 -0.0423,0.23524 -0.0291,0.0747 -0.082,0.14025 -0.12171,0.21037 l -0.005,-0.002 c 0.0317,-0.0724 0.0767,-0.14025 0.0979,-0.2149 0.0238,-0.0747 0.0291,-0.1493 0.0291,-0.2262 -0.005,-0.15381 -0.0397,-0.30537 -0.0741,-0.45691 -0.0291,-0.15157 -0.0926,-0.29859 -0.11113,-0.4592 -0.0185,-0.15608 -0.0159,-0.31442 0.005,-0.47049 l 0.0106,-0.0769 0.0397,0.0701 c 0.15082,0.26917 0.25929,0.55419 0.32015,0.84599 0.0291,0.14702 0.0476,0.29405 0.0529,0.44335 -0.003,0.14929 -0.0185,0.29632 -0.0265,0.44336 z m 6.15685,-0.15608 c 0.008,-0.16287 0.0238,-0.32347 0.0238,-0.48633 -0.008,-0.1606 -0.0291,-0.32347 -0.0635,-0.48182 -0.0661,-0.31893 -0.1852,-0.62883 -0.35189,-0.91837 l 0.0503,-0.007 c -0.0212,0.16966 -0.0212,0.3393 0,0.50669 0.0185,0.16738 0.082,0.33025 0.11377,0.50216 0.0291,0.16965 0.0556,0.34157 0.0503,0.51574 -0.003,0.086 -0.0185,0.17417 -0.0503,0.25785 -0.0344,0.0815 -0.09,0.15609 -0.13494,0.23074 l -0.005,-0.002 c 0.037,-0.0792 0.0847,-0.15381 0.11113,-0.2375 0.0264,-0.0815 0.037,-0.16514 0.037,-0.24883 -0.003,-0.16965 -0.037,-0.3393 -0.0714,-0.50442 -0.0291,-0.16738 -0.0953,-0.33025 -0.11377,-0.50669 -0.0185,-0.17192 -0.0132,-0.34609 0.0132,-0.51799 l 0.0106,-0.0769 0.037,0.0701 c 0.1614,0.29631 0.27517,0.61073 0.33602,0.93194 0.0291,0.16061 0.0476,0.32347 0.0503,0.48633 -0.005,0.16287 -0.0265,0.32574 -0.0371,0.48633 z m -1.39171,-1.59019 c 0.13494,0.35288 0.0529,0.76908 -0.22754,1.06767 l -0.0661,0.0679 -0.0159,-0.0883 c -0.0926,-0.53383 -0.21696,-1.06314 -0.23812,-1.60829 l 0.0132,-0.002 c 0.0926,0.26014 0.15875,0.52705 0.21431,0.79171 0.0423,0.26692 0.0635,0.53835 0.10054,0.80754 l -0.0794,-0.0204 c 0.27782,-0.26918 0.39159,-0.65597 0.28575,-1.01563 z m -3.5507,0.37323 c 0.13493,0.35286 0.0529,0.76909 -0.22755,1.06766 l -0.0661,0.0679 -0.0159,-0.0883 c -0.0926,-0.53384 -0.21696,-1.06314 -0.23812,-1.60828 l 0.0132,-0.002 c 0.0926,0.26013 0.15875,0.52706 0.21431,0.79169 0.0423,0.26693 0.0635,0.53837 0.10054,0.80754 l -0.0794,-0.0203 c 0.27781,-0.26917 0.39158,-0.65598 0.28575,-1.01564 z m 0.80962,1.27352 c 0.008,-0.16287 0.0238,-0.32348 0.0238,-0.48634 -0.008,-0.1606 -0.0291,-0.32347 -0.0635,-0.48181 -0.0661,-0.31894 -0.18521,-0.62884 -0.35189,-0.91838 l 0.0503,-0.007 c -0.0212,0.16965 -0.0212,0.33929 0,0.50668 0.0185,0.16739 0.082,0.33025 0.11377,0.50217 0.0291,0.16965 0.0556,0.34157 0.0503,0.51574 -0.003,0.086 -0.0185,0.17417 -0.0503,0.25787 -0.0344,0.0814 -0.09,0.15607 -0.13494,0.23073 l -0.005,-0.002 c 0.037,-0.0792 0.0847,-0.15381 0.11112,-0.2375 0.0265,-0.0814 0.037,-0.16513 0.037,-0.24882 -0.003,-0.16966 -0.037,-0.33931 -0.0714,-0.50444 -0.0291,-0.16738 -0.0953,-0.33024 -0.11377,-0.50668 -0.0185,-0.17191 -0.0132,-0.34608 0.0132,-0.518 l 0.0106,-0.0769 0.037,0.0701 c 0.1614,0.29634 0.27517,0.61076 0.33602,0.93196 0.0291,0.1606 0.0476,0.32347 0.0503,0.48633 -0.005,0.16286 -0.0265,0.32573 -0.037,0.48634 z m 4.69635,-1.86842 c 0.18257,0.19679 0.34925,0.40941 0.4445,0.65371 0.0476,0.12215 0.0741,0.25109 0.0582,0.38454 -0.0132,0.13119 -0.0741,0.2624 -0.17462,0.36645 v 0 l -0.045,0.0498 -0.0397,-0.0564 c -0.1561,-0.21488 -0.30956,-0.43431 -0.41539,-0.67408 -0.10319,-0.23977 -0.17992,-0.48859 -0.18786,-0.74419 l 0.0132,-0.002 c 0.082,0.24202 0.17463,0.47728 0.29633,0.70348 0.0556,0.11536 0.12171,0.2262 0.1905,0.33478 0.0662,0.1108 0.13494,0.22168 0.19315,0.33477 l -0.0847,-0.007 v 0 c 0.0926,-0.086 0.15082,-0.1968 0.16934,-0.31443 0.0185,-0.11761 0,-0.24202 -0.037,-0.35966 -0.0741,-0.23751 -0.22489,-0.45918 -0.39158,-0.66277 z m 37.56555,1.23732 c -0.005,0.21714 -0.09,0.42073 -0.11642,0.6311 -0.0132,0.10631 -0.0291,0.21036 -0.0344,0.31666 -0.0106,0.10402 -0.005,0.20811 0.0185,0.31443 l -0.005,0.002 c -0.0608,-0.0974 -0.0794,-0.21038 -0.0794,-0.31668 0.003,-0.10862 0.0238,-0.21489 0.0476,-0.32121 0.0397,-0.21262 0.14023,-0.41168 0.16404,-0.62432 z m -2.04523,0.0339 c -0.10584,0.35739 0.008,0.74646 0.28575,1.01563 l -0.0794,0.0203 c 0.037,-0.26918 0.0582,-0.53836 0.10054,-0.80753 0.0556,-0.26692 0.12171,-0.53159 0.21432,-0.79171 l 0.0132,0.002 c -0.0212,0.54516 -0.14552,1.07219 -0.23812,1.6083 l -0.0159,0.0883 -0.0661,-0.0679 c -0.28311,-0.29859 -0.36513,-0.71479 -0.22754,-1.06766 z m -2.97127,-0.22846 c -0.10584,0.35739 0.008,0.74645 0.28575,1.01564 l -0.0794,0.0203 c 0.037,-0.26918 0.0582,-0.53836 0.10054,-0.80753 0.0556,-0.26692 0.12171,-0.53158 0.21431,-0.79171 l 0.0132,0.002 c -0.0212,0.54515 -0.14552,1.07221 -0.23812,1.6083 l -0.0159,0.0883 -0.0661,-0.0679 c -0.28311,-0.29859 -0.36513,-0.71479 -0.22754,-1.06767 z m -6.41615,-0.1674 c -0.0556,0.19002 -0.0582,0.3936 0.008,0.57907 0.0661,0.1855 0.17462,0.36192 0.31485,0.50896 l -0.0794,0.0226 c 0.0238,-0.28501 0.0317,-0.57002 0.0608,-0.85503 v -0.002 -0.002 c 0.0556,-0.2737 0.12435,-0.54514 0.2196,-0.81432 l 0.0132,0.003 c -0.0106,0.28049 -0.0476,0.55645 -0.0979,0.83016 v -0.005 c -0.0291,0.28501 -0.0741,0.56777 -0.10584,0.85278 l -0.0106,0.10184 -0.0688,-0.0814 c -0.14288,-0.16512 -0.24077,-0.35061 -0.29369,-0.5474 -0.0503,-0.1968 -0.0397,-0.40264 0.0291,-0.59265 z m -3.84969,-0.38228 c -0.0212,0.15156 -0.0185,0.30538 -0.0238,0.45919 l -0.003,0.46145 0.003,0.23072 c 0.003,0.0724 0,0.16288 0.0238,0.21263 0.0106,0 -0.0291,-0.009 -0.0265,-0.005 0,0 0.008,-0.007 0.0106,-0.0136 0.0106,-0.0136 0.0185,-0.0294 0.0291,-0.0475 l 0.0529,-0.10402 c 0.0185,-0.0362 0.0344,-0.0724 0.0556,-0.10861 0.0106,-0.018 0.0212,-0.0362 0.0397,-0.0542 0.0106,-0.009 0.0159,-0.0204 0.037,-0.0294 0.0212,-0.0159 0.0741,-0.007 0.0873,0.0136 l -0.0794,0.0203 c 0.037,-0.26917 0.0582,-0.53836 0.10054,-0.80753 0.0556,-0.26692 0.12171,-0.53158 0.21431,-0.79171 l 0.0132,0.002 c -0.0212,0.54515 -0.14552,1.0722 -0.23812,1.6083 l -0.0794,0.0203 c -0.003,0.005 0.0265,0.009 0.0265,0.005 0.003,-0.002 -0.005,0.005 -0.0106,0.009 -0.0106,0.0115 -0.0212,0.0271 -0.0317,0.043 -0.0212,0.0316 -0.0397,0.0679 -0.0582,0.10183 l -0.0582,0.10632 c -0.0106,0.018 -0.0212,0.0362 -0.037,0.0542 -0.008,0.009 -0.0159,0.0181 -0.0318,0.0294 -0.008,0.005 -0.0291,0.0136 -0.0476,0.007 -0.0238,-0.007 -0.0265,-0.0159 -0.0344,-0.0249 -0.037,-0.095 -0.0212,-0.16511 -0.0238,-0.24429 l 0.008,-0.23071 0.0238,-0.46146 c 0.0132,-0.15382 0.0159,-0.30763 0.045,-0.46144 z m 1.90236,1.80508 c -0.008,-0.14702 -0.0265,-0.29631 -0.0291,-0.44335 0.005,-0.14928 0.0238,-0.29632 0.0529,-0.44335 0.0609,-0.29181 0.16933,-0.57908 0.32014,-0.84599 l 0.0397,-0.0701 0.0106,0.0768 c 0.0212,0.15609 0.0238,0.31442 0.005,0.4705 -0.0185,0.15835 -0.0794,0.30763 -0.11113,0.45919 -0.0344,0.15155 -0.0688,0.30537 -0.0741,0.45692 -0.003,0.0769 0.005,0.15382 0.0291,0.22619 0.0212,0.0747 0.0661,0.14251 0.0979,0.2149 l -0.005,0.002 c -0.0397,-0.0701 -0.09,-0.13572 -0.12171,-0.21037 -0.0291,-0.0747 -0.0397,-0.15607 -0.0423,-0.23524 -0.003,-0.15833 0.0238,-0.31442 0.0529,-0.46824 0.0317,-0.15608 0.0926,-0.30311 0.11113,-0.45466 0.0212,-0.15157 0.0238,-0.30764 0.008,-0.45919 l 0.0503,0.007 c -0.15611,0.26238 -0.26723,0.54289 -0.33338,0.83242 -0.0344,0.14477 -0.0556,0.2918 -0.0662,0.43883 -0.003,0.14703 0.0106,0.29404 0.0159,0.44335 z m 10.18381,0.12215 c -0.008,-0.14704 -0.0265,-0.29632 -0.0291,-0.44335 0.005,-0.14929 0.0238,-0.29633 0.0529,-0.44336 0.0609,-0.29179 0.16933,-0.57907 0.32015,-0.84599 l 0.0397,-0.0701 0.0106,0.0769 c 0.0212,0.15608 0.0238,0.31442 0.005,0.4705 -0.0185,0.15834 -0.0794,0.30763 -0.11113,0.45919 -0.0344,0.15156 -0.0688,0.30536 -0.0741,0.45691 -0.003,0.0769 0.005,0.15383 0.0291,0.22621 0.0212,0.0747 0.0661,0.14252 0.0979,0.21489 l -0.005,0.002 c -0.0397,-0.0701 -0.09,-0.13572 -0.12171,-0.21036 -0.0291,-0.0747 -0.0397,-0.15608 -0.0423,-0.23525 -0.003,-0.15834 0.0238,-0.31442 0.0529,-0.46825 0.0317,-0.15607 0.0926,-0.30309 0.11113,-0.45465 0.0212,-0.15156 0.0238,-0.30763 0.008,-0.4592 l 0.0503,0.007 c -0.15611,0.2624 -0.26723,0.54288 -0.33338,0.83242 -0.0344,0.14477 -0.0556,0.29181 -0.0661,0.43883 -0.003,0.14704 0.0106,0.29407 0.0159,0.44336 z m -3.60627,-0.12667 c -0.008,-0.14703 -0.0265,-0.29632 -0.0291,-0.44335 0.005,-0.1493 0.0238,-0.29632 0.0529,-0.44335 0.0609,-0.2918 0.16933,-0.57908 0.32015,-0.846 l 0.0397,-0.0701 0.0106,0.0769 c 0.0212,0.15609 0.0238,0.31443 0.005,0.47051 -0.0185,0.15833 -0.0794,0.30763 -0.11113,0.45919 -0.0344,0.15155 -0.0688,0.30537 -0.0741,0.45692 -0.003,0.0769 0.005,0.15381 0.0291,0.2262 0.0212,0.0747 0.0661,0.1425 0.0979,0.21489 l -0.005,0.002 c -0.0397,-0.0701 -0.09,-0.13572 -0.12171,-0.21037 -0.0291,-0.0747 -0.0397,-0.15608 -0.0423,-0.23525 -0.003,-0.15835 0.0238,-0.31442 0.0529,-0.46823 0.0317,-0.15607 0.0926,-0.30311 0.11113,-0.45466 0.0212,-0.15156 0.0238,-0.30764 0.008,-0.45919 l 0.0503,0.007 c -0.15611,0.26239 -0.26723,0.54287 -0.33338,0.83241 -0.0344,0.14477 -0.0556,0.2918 -0.0661,0.43884 -0.003,0.14701 0.0106,0.29405 0.0159,0.44335 z m -2.10344,-1.75078 c -0.10848,0.13119 -0.20637,0.26691 -0.28575,0.41167 -0.082,0.14477 -0.127,0.29859 -0.13758,0.45466 -0.0159,0.15835 -0.005,0.31669 0.0238,0.47277 0.0291,0.15155 0.0688,0.32347 0.15346,0.4343 v 0 l -0.0847,0.007 0.24871,-0.42751 c 0.082,-0.13799 0.127,-0.29181 0.17992,-0.44337 0.0926,-0.30763 0.1561,-0.6243 0.23812,-0.93873 l 0.0132,0.002 c -0.0185,0.32122 -0.0529,0.64468 -0.12965,0.96362 -0.037,0.15835 -0.0926,0.31894 -0.17462,0.47051 -0.082,0.14701 -0.17727,0.28726 -0.2831,0.42298 l -0.045,0.0564 -0.0397,-0.0521 v 0 c -0.0661,-0.0837 -0.0847,-0.16062 -0.10848,-0.24204 -0.0212,-0.0792 -0.037,-0.1606 -0.0476,-0.24204 -0.0212,-0.16286 -0.0265,-0.32572 -0.003,-0.48858 0.0212,-0.16287 0.0794,-0.32346 0.16933,-0.46597 0.0873,-0.14477 0.19315,-0.27824 0.30956,-0.40491 z m -8.18885,-0.22847 c -0.16669,0.20357 -0.31221,0.42299 -0.3863,0.6605 -0.037,0.11763 -0.0529,0.23977 -0.0344,0.35739 0.0212,0.11764 0.0794,0.22621 0.16933,0.31442 v 0 l -0.0847,0.007 c 0.0582,-0.1131 0.12435,-0.22395 0.1905,-0.33478 0.0688,-0.10862 0.13229,-0.21942 0.18785,-0.33252 0.11906,-0.22394 0.21167,-0.45919 0.29104,-0.69896 l 0.0132,0.002 c -0.005,0.25335 -0.0794,0.50218 -0.17992,0.73968 -0.10318,0.23751 -0.254,0.45693 -0.4101,0.67182 l -0.0397,0.0565 -0.045,-0.0498 v 0 c -0.10054,-0.10402 -0.15875,-0.23299 -0.17462,-0.3642 -0.0132,-0.13119 0.0106,-0.26012 0.0556,-0.38227 0.0926,-0.2443 0.25665,-0.45691 0.43921,-0.65145 z m -4.65932,-0.29181 c -0.16668,0.20359 -0.3122,0.42301 -0.38629,0.66052 -0.037,0.11761 -0.0529,0.23977 -0.0344,0.35738 0.0212,0.11763 0.0794,0.2262 0.16933,0.31443 v 0 l -0.0847,0.007 c 0.0582,-0.11309 0.12436,-0.22394 0.1905,-0.33476 0.0688,-0.10862 0.1323,-0.21943 0.18786,-0.33252 0.11906,-0.22394 0.21166,-0.4592 0.29104,-0.69896 l 0.0132,0.002 c -0.005,0.25335 -0.0794,0.50217 -0.17992,0.73967 -0.10319,0.23752 -0.254,0.45694 -0.4101,0.67182 l -0.0397,0.0564 -0.045,-0.0498 v 0 c -0.10054,-0.10402 -0.15875,-0.23298 -0.17462,-0.36418 -0.0159,-0.1312 0.0106,-0.26013 0.0556,-0.38228 0.0926,-0.2443 0.25664,-0.45693 0.43921,-0.65146 z m 3.10092,1.9476 c -0.008,-0.14704 -0.0265,-0.29633 -0.0291,-0.44336 0.005,-0.14929 0.0238,-0.29632 0.0529,-0.44335 0.0609,-0.2918 0.16934,-0.57907 0.32015,-0.846 l 0.0397,-0.0701 0.0106,0.0769 c 0.0212,0.15609 0.0238,0.31443 0.005,0.4705 -0.0185,0.15834 -0.0794,0.30763 -0.11112,0.45919 -0.0344,0.15156 -0.0688,0.30537 -0.0741,0.45691 -0.003,0.0769 0.005,0.15382 0.0291,0.22621 0.0212,0.0747 0.0661,0.1425 0.0979,0.21489 l -0.005,0.003 c -0.0397,-0.0701 -0.09,-0.13572 -0.12171,-0.21037 -0.0291,-0.0747 -0.0397,-0.15609 -0.0423,-0.23525 -0.003,-0.15834 0.0238,-0.31441 0.0529,-0.46823 0.0317,-0.15608 0.0926,-0.30312 0.11112,-0.45466 0.0212,-0.15156 0.0238,-0.30764 0.008,-0.4592 l 0.0503,0.007 c -0.1561,0.2624 -0.26723,0.54289 -0.33338,0.83242 -0.0344,0.14478 -0.0556,0.29179 -0.0661,0.43883 -0.003,0.14703 0.0106,0.29406 0.0159,0.44334 z m -6.15685,-0.15607 c -0.0132,-0.16288 -0.0317,-0.32348 -0.037,-0.48634 0.003,-0.16287 0.0212,-0.32574 0.0503,-0.48634 0.0608,-0.3212 0.17462,-0.63561 0.33602,-0.93195 l 0.037,-0.0701 0.0106,0.0769 c 0.0265,0.17192 0.0291,0.34608 0.0132,0.51801 -0.0185,0.17417 -0.082,0.33928 -0.11377,0.50668 -0.0344,0.16739 -0.0688,0.33703 -0.0714,0.50444 0,0.0837 0.0106,0.16963 0.037,0.2488 0.0265,0.0814 0.0741,0.15609 0.11113,0.23752 l -0.005,0.002 c -0.045,-0.0769 -0.10054,-0.1493 -0.13494,-0.23072 -0.0317,-0.0837 -0.045,-0.16966 -0.0503,-0.25787 -0.005,-0.17417 0.0185,-0.34609 0.0503,-0.51575 0.0318,-0.17191 0.0952,-0.33477 0.11377,-0.50216 0.0212,-0.16739 0.0212,-0.3393 0,-0.50669 l 0.0503,0.007 c -0.16669,0.28953 -0.28575,0.59943 -0.35189,0.91837 -0.0344,0.15835 -0.0556,0.32122 -0.0635,0.48181 0.003,0.1606 0.0159,0.32348 0.0238,0.48633 z m 1.41023,-1.5902 c -0.10584,0.35739 0.008,0.74646 0.28575,1.01564 l -0.0794,0.0203 c 0.037,-0.26917 0.0582,-0.53836 0.10054,-0.80753 0.0556,-0.26691 0.12171,-0.53158 0.21432,-0.79171 l 0.0132,0.002 c -0.0212,0.54514 -0.14552,1.07445 -0.23812,1.6083 l -0.0159,0.0883 -0.0661,-0.0679 c -0.28311,-0.29859 -0.36513,-0.71479 -0.22754,-1.06767 z m 3.55335,0.37548 c -0.10583,0.35741 0.008,0.74647 0.28575,1.01565 l -0.0794,0.0203 c 0.0371,-0.26918 0.0582,-0.53836 0.10055,-0.80754 0.0556,-0.26691 0.1217,-0.53157 0.21431,-0.7917 l 0.0132,0.002 c -0.0212,0.54513 -0.14552,1.07219 -0.23813,1.60827 l -0.0159,0.0883 -0.0661,-0.0679 c -0.2831,-0.29859 -0.36512,-0.7148 -0.22754,-1.06767 z m -0.83079,1.26899 c -0.0132,-0.16285 -0.0317,-0.32347 -0.037,-0.48633 0.003,-0.16286 0.0212,-0.32573 0.0503,-0.48633 0.0608,-0.32121 0.17462,-0.63562 0.33602,-0.93195 l 0.037,-0.0701 0.0106,0.0769 c 0.0265,0.17192 0.0291,0.34609 0.0132,0.518 -0.0185,0.17418 -0.082,0.3393 -0.11377,0.50668 -0.0344,0.1674 -0.0688,0.33704 -0.0714,0.50444 0,0.0837 0.008,0.16964 0.037,0.24881 0.0265,0.0814 0.0741,0.15608 0.11112,0.23752 l -0.005,0.002 c -0.045,-0.0769 -0.10054,-0.1493 -0.13494,-0.23073 -0.0317,-0.0837 -0.0476,-0.16965 -0.0503,-0.25786 -0.005,-0.17418 0.0185,-0.34609 0.0503,-0.51574 0.0318,-0.17193 0.0952,-0.33478 0.11377,-0.50218 0.0212,-0.16738 0.0212,-0.33928 0,-0.50669 l 0.0503,0.007 c -0.16668,0.28954 -0.28575,0.59943 -0.35189,0.91837 -0.0344,0.15834 -0.0556,0.32121 -0.0635,0.4818 0.003,0.16062 0.0159,0.32348 0.0238,0.48634 z m -4.68048,-1.86162 c -0.16669,0.20357 -0.3175,0.42524 -0.39158,0.66275 -0.037,0.11764 -0.0556,0.24204 -0.037,0.35968 0.0185,0.11762 0.0767,0.22846 0.16934,0.31441 v 0 l -0.0847,0.007 c 0.0609,-0.11536 0.127,-0.22619 0.19315,-0.33477 0.0714,-0.10862 0.13493,-0.21941 0.1905,-0.33478 0.12171,-0.2262 0.21431,-0.45918 0.29633,-0.70348 l 0.0132,0.002 c -0.005,0.25558 -0.0847,0.50442 -0.18785,0.74419 -0.10584,0.23977 -0.2593,0.45918 -0.4154,0.67407 l -0.0397,0.0564 -0.045,-0.0498 v 0 c -0.10054,-0.10402 -0.16139,-0.23525 -0.17462,-0.36644 -0.0132,-0.1312 0.0132,-0.2624 0.0582,-0.38456 0.0953,-0.24428 0.26193,-0.45691 0.4445,-0.65369 z m -4.56671,1.49969 m -1.05833,-0.1719"
     inkscape:label="back-folds" />
  <path
     id="front-neck-bow"
     style="font-variation-settings:normal;display:inline;opacity:1;vector-effect:none;fill:none;fill-opacity:1;stroke:#eb5fbf;stroke-width:0.264999;stroke-linecap:butt;stroke-linejoin:miter;stroke-miterlimit:8.28928;stroke-dasharray:none;stroke-dashoffset:0;stroke-opacity:1;-inkscape-stroke:none;stop-color:#000000;stop-opacity:1"
     d="m 39.708134,3.6034957 c 0,0 0.71966,0.94456 0.0926,2.04522 0,0 -0.77523,0.33073 -1.39435,0.0476 0,0.003 0.2487,-1.29381 -0.30427,-1.99761 m 0.33974,0.94729 c 0,0 -1.30547,1.23815 -1.13349,2.7648 0.16933,1.52929 0.47625,-0.53446 0.47625,-0.53446 m 2.267829,-2.0409 c 0,0 0.841021,1.01432 1.010351,1.74986 0.16934,0.73819 -0.47096,0.78052 -0.50535,0.26194 0.0212,-1.016 -0.505001,-2.0118 -0.505001,-2.0118 z m -3.673185,2.26115 c -0.386951,2.29139 -1.363168,4.6415803 -1.584149,4.7782803 0.843219,0.51267 2.052826,-0.0878 2.052826,-0.0878 1.113076,-1.3137 1.496013,-5.3168903 1.560628,-6.0895503 -7.04e-4,-3.2e-4 -0.0014,-7.1e-4 -0.0021,-0.001 0,1.9e-4 0.003,-0.0186 0.0047,-0.0279 m 1.580782,-1.44539 c 0.0974,0.36567 0.117781,0.8606 -0.174667,1.39423 0.05007,2.4737 1.668632,5.8652703 1.668632,5.8652703 0,0 0.788806,0.94717 1.484664,0.61908 0.69585,-0.32544 0.997356,-0.71158 0.997356,-0.71158 -0.5424,-0.0661 -1.764888,-2.2677703 -1.979208,-4.3315203 m -1.997294,-2.83755 c 2.85e-4,0.001 0.0034,0.004 0.0041,0.005 0.04643,0.0365 0.144022,0.1174 0.259933,0.21807 0.398592,0.32301 1.149458,0.98355 1.546675,1.93942 0.02585,0.0598 0.0505,0.11982 0.07183,0.18035 0.02876,0.0816 0.05301,0.16343 0.07235,0.24598 0.01934,0.0825 0.03384,0.16561 0.04237,0.24856 0.01124,0.10821 0.02687,0.21693 0.04341,0.32556 0.0077,0.0493 0.01559,0.0985 0.02429,0.1478 0.0067,0.0389 0.01436,0.0779 0.0217,0.11679 0.02732,0.14191 0.05773,0.28373 0.09198,0.42426 0.377271,0.72482 0.700448,1.49704 0.867648,2.2484403 0.06149,0.11085 0.123328,0.21424 0.184485,0.31058 0.0013,0.002 0.0023,0.004 0.0036,0.006 0.0603,0.0947 0.120185,0.18216 0.1788,0.26148 6.9e-4,9.3e-4 0.0014,0.002 0.0021,0.003 0.0071,0.01 0.01459,0.02 0.02171,0.0295 0.02866,0.0379 0.05628,0.0717 0.08423,0.10542 0.01877,0.0225 0.03743,0.0451 0.05581,0.0656 0.02285,0.0256 0.04553,0.0489 0.0677,0.0713 0.02094,0.0211 0.04125,0.0408 0.0615,0.0589 0.02381,0.0215 0.04806,0.0433 0.0708,0.0605 0.0034,0.003 0.0069,0.005 0.01034,0.008 0.03199,0.0234 0.06252,0.0425 0.09198,0.0568 0.0095,0.005 0.01872,0.008 0.02791,0.0119 0.0067,0.003 0.01356,0.006 0.02015,0.008 0.01688,0.005 0.03332,0.009 0.04909,0.0114 0,0 -0.03678,0.0457 -0.106971,0.11472 0.488087,-0.42858 0.920686,-1.26777 0.236678,-2.8556403 -1.18532,-2.75167 -4.386812,-5.0431 -4.386812,-5.0431 h -5.17e-4 c -0.137059,-0.0945 -0.301394,-0.14388 -0.489376,-0.154 -0.313302,-0.0169 -0.691914,0.075 -1.118794,0.2465 0.0529,0.33602 -2.7598,1.94478 -4.027145,3.01635 -1.2647,1.0742 -1.031835,2.32052 -0.3545,4.0297303 0,0 0.385203,0.930537 1.126546,1.16014 -0.01522,-0.0149 -0.03768,-0.0135 -0.05191,-0.0301 0.0182,-0.009 0.04677,-0.0434 0.07,-0.0681 0.250246,-0.45326 0.496261,-1.06707 0.690441,-1.59663 -0.104183,-0.11955 -1.195948,-1.4746103 -0.125618,-2.3602303 0.352153,-0.29138 0.684323,-0.55071 0.994772,-0.78807 0.02714,-0.11786 0.05694,-0.23142 0.08888,-0.34158 0.01287,-0.0444 0.02726,-0.0855 0.04082,-0.12867 0.02123,-0.0675 0.04231,-0.13593 0.06511,-0.20051 0.01432,-0.0405 0.03007,-0.0784 0.04496,-0.11782 0.02439,-0.0645 0.04815,-0.12917 0.0739,-0.19069 0.01638,-0.0391 0.03378,-0.0758 0.05064,-0.11368 0.02428,-0.0546 0.04821,-0.10964 0.07338,-0.16175 0.02243,-0.0464 0.04571,-0.0904 0.06873,-0.13488 0.02105,-0.0407 0.0421,-0.0818 0.06356,-0.12092 0.02495,-0.0455 0.05006,-0.0889 0.07545,-0.13229 0.02117,-0.0362 0.04216,-0.0722 0.06356,-0.10697 0.02493,-0.0404 0.0498,-0.0793 0.07493,-0.11782 0.02193,-0.0336 0.04362,-0.067 0.06563,-0.0992 0.02446,-0.0358 0.04892,-0.0704 0.07338,-0.10439 0.02493,-0.0347 0.04961,-0.0684 0.07441,-0.10129 0.02339,-0.031 0.04658,-0.061 0.06976,-0.0904 0.02045,-0.026 0.04075,-0.0512 0.06098,-0.076 0.02629,-0.0322 0.05224,-0.0638 0.07803,-0.0941 0.01472,-0.0173 0.02836,-0.033 0.04289,-0.0496 0.07299,-0.0836 0.142765,-0.1596 0.208773,-0.2279 0.06542,-0.0677 0.32153,-0.34259 0.376871,-0.39621 m 0.171416,1.57547 -0.0088,0.004 c 0,0 -9.7e-4,0.009 -0.001,0.01 l 0.0088,-0.007 c 3e-6,-2e-5 5.14e-4,2e-5 5.17e-4,0 2.38e-4,-0.002 2.78e-4,-0.005 5.17e-4,-0.007 z m 0.01964,-0.20774 c -4.4e-4,0.006 -0.0011,0.0122 -0.0016,0.0181 5.67e-4,-0.007 0.0015,-0.0106 0.0021,-0.0181 -1.64e-4,-3.59e-5 -4.37e-4,0 -5e-4,0 z m -0.02119,0.20877 -0.0072,0.003 c 0,0 -0.0057,0.0737 -0.01033,0.13023 0.0036,-0.0202 0.01011,-0.06233 0.01908,-0.13426 z m -1.441255,6.0688803 c -0.471922,6.11008 -1.182904,14.61847 -1.603003,16.2972 l 2.177645,-0.29921 c 0,0 1.139985,-20.4286203 1.272273,-21.5134103 0.01333,-0.10664 0.0069,-0.19772 -0.0088,-0.28112 -0.140056,-0.013 -0.282575,-0.0451 -0.417545,-0.10646 m 1.577165,-0.48989 c -0.01497,0.0527 -0.03425,0.10627 -0.05478,0.1602 0.02068,-0.0539 0.03977,-0.10759 0.05478,-0.1602 z m -0.0925,0.2527 c -0.02745,0.0624 -0.0563,0.12507 -0.0925,0.18862 0,0 -0.214177,0.0902 -0.506429,0.13591 -0.05774,0.50965 -0.476448,4.3609703 -0.152446,6.7773603 0.34396,2.58498 0.441917,14.73973 0.791167,15.53084 l 1.886706,0.87333 c 0,0 -0.88388,-12.16294 -1.09554,-14.46217 -0.146819,-1.59479 -0.187942,-4.05642 -0.201021,-5.4565103 -0.357828,-1.07667 -0.683873,-2.34195 -0.705901,-3.43028 0.02902,-0.053 0.05287,-0.105 0.07597,-0.1571 z M 69.740994,75.051536 c -0.72231,0.50535 -1.61661,1.11918 -2.65377,1.79387 -1.1774,0.76465 -3.6195,2.31511 -7.112,4.18042 -5.78379,3.08769 -10.67065,5.02708 -14.224,6.42673 -2.652988,1.043076 -4.92863,1.861774 -6.624534,2.450732 M 7.5903676,75.144136 c 0.6985,0.48684 1.545167,1.06627 2.5188344,1.69863 1.177395,0.76464 3.6195,2.3151 7.111999,4.18041 5.783793,3.08769 10.670643,5.02709 14.224003,6.42673 2.570363,1.01059 4.78651,1.810568 6.464397,2.395045 m 34.143853,-14.700815 -1.74625,1.33086 c -0.78582,0.55827 -1.84679,1.29381 -3.11944,2.12195 -1.1774,0.76465 -3.6195,2.31511 -7.112,4.18042 -5.78379,3.08769 -10.67065,5.02708 -14.224,6.42673 -1.955059,0.768671 -3.705191,1.415495 -5.169409,1.938318 M 5.2461596,75.144136 l 1.74625,1.33086 c 0.785812,0.55827 1.846792,1.29381 3.1194374,2.12195 1.177396,0.76465 3.6195,2.31511 7.112,4.18042 5.783787,3.08769 10.670647,5.02708 14.223997,6.42673 1.824809,0.717461 3.471091,1.328769 4.872983,1.832173 M 34.755154,73.890016 h 7.38714 m 3.0533,-68.2413403 c -0.12171,-0.20373 -0.72231,-0.46037 -1.01335,-0.66939 -0.11113,-0.0794 -0.30163,-0.19579 -0.57415,-0.26459 H 41.110007 M 62.265484,40.269676 44.745804,4.7252857 c -0.0423,-0.10848 -0.11112,-0.26723 -0.21696,-0.44186 -0.12171,-0.20373 -0.27516,-0.46037 -0.56356,-0.66939 -0.11112,-0.0794 -0.30162,-0.19579 -0.57415,-0.26459 M 60.435584,40.264116 42.970434,4.7729157 m 28.95337,70.3712203 c 4.01077,-12.25492 1.76549,-21.83075 -9.65832,-34.87446 l -1.82195,-0.006 c -10.24975,8.27047 -18.08782,21.83076 -18.30123,33.62589 10.24996,0.41804 23.44473,0.9816 29.7815,1.25412 M 31.691264,5.6486757 c 0.12171,-0.20373 0.72231,-0.46037 1.01335,-0.66939 0.11113,-0.0794 0.30163,-0.19579 0.57415,-0.26459 h 3.592051 M 14.631947,40.269676 32.143704,4.7252857 c 0.0423,-0.10848 0.11112,-0.26723 0.21696,-0.44186 0.1217,-0.20373 0.27516,-0.46037 0.56356,-0.66939 0.11112,-0.0794 0.30162,-0.19579 0.57414,-0.26459 h 9.89277 m -8.73918,67.9962603 h 7.59353 M 16.453903,40.264116 33.919054,4.7729157 m 38.47836,68.0587603 -30.15192,-1.48597 m -7.59354,0 -29.9531384,1.79775 m 0.274823,2.00068 C 0.96286759,62.889206 3.2081696,53.313376 14.631947,40.269676 l 1.821963,-0.006 c 10.149414,8.1333 18.258894,20.19565 18.301224,33.6259 -10.24995,0.41804 -23.444724,0.9816 -29.7814954,1.25412 m 34.1656454,14.75101 c 0,0 0.71966,0.94456 0.0926,2.04522 0,0 -0.77523,0.33073 -1.39435,0.0476 0,0.003 0.2487,-1.29381 -0.30427,-1.99761 m 0.33974,0.94729 c 0,0 -1.30547,1.23815 -1.13349,2.7648 0.16933,1.52929 0.47625,-0.53446 0.47625,-0.53446 m 2.267829,-2.0409 c 0,0 0.841021,1.01432 1.010351,1.74986 0.16934,0.73819 -0.47096,0.78052 -0.50535,0.26194 0.0212,-1.016 -0.283974,-1.726937 -0.505001,-2.0118 z m -3.673185,2.26115 c -0.386951,2.29139 -1.363168,4.64158 -1.584149,4.77828 0.843219,0.51267 2.052826,-0.0878 2.052826,-0.0878 1.113076,-1.3137 1.496013,-5.31689 1.560628,-6.08955 -7.04e-4,-3.2e-4 -0.0014,-7.1e-4 -0.0021,-0.001 0,1.9e-4 0.003,-0.0186 0.0047,-0.0279 m 1.580782,-1.44539 c 0.0974,0.36567 0.117781,0.8606 -0.174667,1.39423 0.05007,2.4737 1.668632,5.86527 1.668632,5.86527 0,0 0.788806,0.94717 1.484664,0.61908 0.69585,-0.32544 0.997356,-0.71158 0.997356,-0.71158 -0.5424,-0.0661 -1.764888,-2.26777 -1.979208,-4.33152 m -1.997294,-2.83755 c 2.85e-4,0.001 0.0034,0.004 0.0041,0.005 0.04643,0.0365 0.144022,0.1174 0.259933,0.21807 0.398592,0.32301 1.149458,0.98355 1.546675,1.93942 0.02585,0.0598 0.0505,0.11982 0.07183,0.18035 0.02876,0.0816 0.05301,0.16343 0.07235,0.24598 0.01934,0.0825 0.03384,0.16561 0.04237,0.24856 0.01124,0.10821 0.02687,0.21693 0.04341,0.32556 0.0077,0.0493 0.01559,0.0985 0.02429,0.1478 0.0067,0.039 0.01436,0.0779 0.0217,0.11679 0.02732,0.14191 0.05773,0.28373 0.09198,0.42426 0.377271,0.72482 0.700448,1.49704 0.867648,2.24844 0.06149,0.11085 0.123328,0.21424 0.184485,0.31058 0.0013,0.002 0.0023,0.004 0.0036,0.006 0.0603,0.0947 0.120185,0.18216 0.1788,0.26148 6.9e-4,9.3e-4 0.0014,0.002 0.0021,0.003 0.0071,0.01 0.01459,0.02 0.0217,0.0295 0.02866,0.0379 0.05628,0.0717 0.08423,0.10542 0.01877,0.0225 0.03743,0.0451 0.05581,0.0656 0.02285,0.0256 0.04553,0.0489 0.0677,0.0713 0.02094,0.0211 0.04125,0.0408 0.0615,0.0589 0.02381,0.0215 0.04806,0.0433 0.0708,0.0605 0.0034,0.003 0.0069,0.005 0.01034,0.008 0.03199,0.0234 0.06252,0.0425 0.09198,0.0569 0.0095,0.005 0.01872,0.008 0.0279,0.0119 0.0067,0.003 0.01356,0.006 0.02015,0.008 0.01688,0.005 0.03332,0.009 0.04909,0.0114 0,0 -0.03678,0.0457 -0.106971,0.11472 0.488087,-0.42858 0.920686,-1.26777 0.236678,-2.85564 -1.18532,-2.75167 -4.386812,-5.0431 -4.386812,-5.0431 h -5.17e-4 c -0.137059,-0.0945 -0.301394,-0.14388 -0.489376,-0.154 -0.313302,-0.0169 -0.691914,0.075 -1.118794,0.2465 0.0529,0.33602 -2.7598,1.94478 -4.027145,3.01635 -1.2647,1.0742 -1.031835,2.32052 -0.3545,4.02973 0,0 0.680544,1.044809 1.126546,1.16014 -0.01522,-0.0149 -0.03768,-0.0135 -0.05191,-0.03 0.0182,-0.009 0.04677,-0.0434 0.07,-0.0681 0.250246,-0.45326 0.496261,-1.06707 0.690441,-1.59663 -0.104183,-0.11955 -1.195948,-1.47461 -0.125618,-2.36023 0.352153,-0.29138 0.684323,-0.55071 0.994772,-0.78807 0.02714,-0.11786 0.05694,-0.23142 0.08888,-0.34158 0.01287,-0.0444 0.02725,-0.0855 0.04082,-0.12867 0.02123,-0.0675 0.0423,-0.13593 0.06511,-0.20051 0.01432,-0.0405 0.03007,-0.0784 0.04496,-0.11782 0.02439,-0.0645 0.04814,-0.12917 0.0739,-0.19069 0.01638,-0.0391 0.03378,-0.0758 0.05064,-0.11368 0.02428,-0.0546 0.04821,-0.10964 0.07338,-0.16175 0.02243,-0.0464 0.04571,-0.0904 0.06873,-0.13488 0.02105,-0.0407 0.0421,-0.0818 0.06356,-0.12092 0.02495,-0.0455 0.05006,-0.0889 0.07545,-0.13229 0.02117,-0.0362 0.04216,-0.0722 0.06356,-0.10697 0.02493,-0.0405 0.0498,-0.0793 0.07493,-0.11782 0.02193,-0.0336 0.04362,-0.067 0.06563,-0.0992 0.02446,-0.0358 0.04892,-0.0704 0.07338,-0.10439 0.02493,-0.0347 0.04961,-0.0684 0.07441,-0.10129 0.02339,-0.031 0.04658,-0.061 0.06976,-0.0904 0.02045,-0.026 0.04075,-0.0512 0.06098,-0.076 0.02629,-0.0322 0.05224,-0.0638 0.07803,-0.0941 0.01473,-0.0173 0.02836,-0.033 0.04289,-0.0496 0.07299,-0.0837 0.142765,-0.1596 0.208773,-0.2279 0.06542,-0.0677 0.32153,-0.34259 0.376871,-0.39621 m 0.171416,1.57547 -0.0088,0.004 c 0,0 -9.7e-4,0.009 -10e-4,0.01 l 0.0088,-0.007 c 3e-6,-2e-5 5.14e-4,2e-5 5.17e-4,0 2.38e-4,-0.002 2.78e-4,-0.005 5.17e-4,-0.007 z m 0.01964,-0.20774 c -4.4e-4,0.006 -0.0011,0.0122 -0.0016,0.0181 5.67e-4,-0.007 0.0015,-0.0106 0.0021,-0.0181 -1.43e-4,-7e-5 -3.74e-4,7e-5 -5.17e-4,0 z m -0.02119,0.20877 -0.0072,0.003 c 0,0 -0.0057,0.0737 -0.01034,0.13023 0.0036,-0.0202 0.0086,-0.0614 0.01757,-0.13333 z m -1.441255,6.06888 c -0.471922,6.110084 -1.182904,14.618474 -1.603003,16.297204 l 2.177645,-0.29921 c 0,0 1.139985,-20.428624 1.272273,-21.513414 0.01333,-0.10664 0.0069,-0.19772 -0.0088,-0.28112 -0.140056,-0.013 -0.282575,-0.0451 -0.417545,-0.10646 m 1.577165,-0.48989 c -0.01497,0.0527 -0.03425,0.10627 -0.05478,0.1602 0.02068,-0.0538 0.03977,-0.10759 0.05478,-0.1602 z m -0.0925,0.2527 c -0.02745,0.0624 -0.0563,0.12507 -0.0925,0.18862 0,0 -0.214177,0.0902 -0.506429,0.13591 -0.05774,0.50965 -0.476448,4.36097 -0.152446,6.77736 0.34396,2.584984 0.441917,14.739734 0.791167,15.530844 l 1.886706,0.87333 c 0,0 -0.88388,-12.16294 -1.09554,-14.46217 -0.146819,-1.594794 -0.187942,-4.056424 -0.201021,-5.456514 -0.357828,-1.07667 -0.683873,-2.34195 -0.705901,-3.43028 0.02902,-0.053 0.05287,-0.105 0.07596,-0.1571 z"
     inkscape:label="front-main"
     sodipodi:nodetypes="cccccccccccccccccccccccccccscccccccccsccccccccccccccccccccccccscsccccccccccccccccscsccccccccccccccccccccccccccscccccsccssccccccccccccccccccccccccccccccccccccccccccccccccccccccccccccccccccccccccccccccccccccccccccssccccccccscccccccccccccsccccccccccscssscscssssssscscsscsccccccccscccsccccccccccccccscccccsccss" />
  <path
     id="back-bust-bow"
     style="font-variation-settings:normal;display:inline;opacity:1;vector-effect:none;fill:none;fill-opacity:1;stroke:#ff0000;stroke-width:0.265;stroke-linecap:butt;stroke-linejoin:miter;stroke-miterlimit:4;stroke-dasharray:none;stroke-dashoffset:0;stroke-opacity:1;-inkscape-stroke:none;stop-color:#000000;stop-opacity:1"
     d="m 136.3168,89.909133 c 0,0 -0.71966,0.94456 -0.0926,2.04522 0,0 0.77523,0.33073 1.39435,0.0476 0,0.003 -0.2487,-1.29381 0.30427,-1.99761 m -0.33974,0.94729 c 0,0 1.30547,1.23815 1.13349,2.7648 -0.16933,1.52929 -0.47625,-0.53446 -0.47625,-0.53446 m -2.26783,-2.0409 c 0,0 -0.84102,1.01432 -1.01035,1.74986 -0.16934,0.73819 0.47096,0.78052 0.50535,0.26194 -0.0212,-1.016 0.32773,-1.91655 0.505,-2.0118 z m 3.67318,2.26115 c 0.38695,2.29139 1.36317,4.64158 1.58415,4.77828 -0.84322,0.51267 -2.05282,-0.0878 -2.05282,-0.0878 -1.11308,-1.3137 -1.49602,-5.31689 -1.56063,-6.08955 7e-4,-3.2e-4 0.001,-7.1e-4 0.002,-10e-4 0,1.9e-4 -0.003,-0.0186 -0.005,-0.0279 m -1.58078,-1.44539 c -0.0974,0.36567 -0.11778,0.8606 0.17467,1.39423 -0.0501,2.4737 -1.66863,5.86527 -1.66863,5.86527 0,0 -0.78881,0.94717 -1.48467,0.61908 -0.69585,-0.32544 -0.99735,-0.71158 -0.99735,-0.71158 0.5424,-0.0661 1.76488,-2.26777 1.9792,-4.33152 m 1.9973,-2.83755 c -2.9e-4,0.001 -0.003,0.004 -0.004,0.005 -0.0464,0.0365 -0.14402,0.1174 -0.25993,0.21807 -0.39859,0.32301 -1.14946,0.98355 -1.54667,1.93942 -0.0259,0.0598 -0.0505,0.11982 -0.0718,0.18035 -0.0288,0.0816 -0.053,0.16343 -0.0724,0.24598 -0.0193,0.0825 -0.0338,0.16561 -0.0424,0.24856 -0.0112,0.10821 -0.0269,0.21693 -0.0434,0.32556 -0.008,0.0493 -0.0156,0.0985 -0.0243,0.1478 -0.007,0.0389 -0.0144,0.0779 -0.0217,0.11679 -0.0273,0.14191 -0.0577,0.28373 -0.092,0.42426 -0.37727,0.72482 -0.70045,1.49704 -0.86765,2.24844 -0.0615,0.11085 -0.12333,0.21424 -0.18448,0.31058 -0.001,0.002 -0.002,0.004 -0.004,0.006 -0.0603,0.0947 -0.12018,0.18216 -0.1788,0.26148 -6.9e-4,9.3e-4 -0.001,0.002 -0.002,0.003 -0.007,0.01 -0.0146,0.02 -0.0217,0.0295 -0.0287,0.0379 -0.0563,0.0717 -0.0842,0.10542 -0.0188,0.0225 -0.0374,0.0451 -0.0558,0.0656 -0.0229,0.0256 -0.0455,0.0489 -0.0677,0.0713 -0.0209,0.0211 -0.0413,0.0408 -0.0615,0.0589 -0.0238,0.0215 -0.0481,0.0433 -0.0708,0.0605 -0.003,0.003 -0.007,0.005 -0.0103,0.008 -0.032,0.0234 -0.0625,0.0425 -0.092,0.0568 -0.009,0.005 -0.0187,0.008 -0.0279,0.0119 -0.007,0.003 -0.0136,0.006 -0.0201,0.008 -0.0169,0.005 -0.0333,0.009 -0.0491,0.0114 0,0 0.0368,0.0457 0.10697,0.11472 -0.48809,-0.42858 -0.92069,-1.26777 -0.23668,-2.85564 1.18532,-2.75167 4.38681,-5.0431 4.38681,-5.0431 h 5.2e-4 c 0.13706,-0.0945 0.30139,-0.14388 0.48937,-0.154 0.31331,-0.0169 0.69192,0.075 1.1188,0.2465 -0.0529,0.33602 2.7598,1.94478 4.02714,3.01635 1.2647,1.0742 1.03184,2.32052 0.3545,4.02973 0,0 -0.31956,0.70446 -1.12654,1.16014 0.0152,-0.0149 0.0377,-0.0135 0.0519,-0.03 -0.0182,-0.009 -0.0468,-0.0434 -0.07,-0.0681 -0.25025,-0.45326 -0.49626,-1.06707 -0.69044,-1.59663 0.10418,-0.11955 1.19595,-1.47461 0.12562,-2.36023 -0.35216,-0.29138 -0.68433,-0.55071 -0.99477,-0.78807 -0.0271,-0.11786 -0.0569,-0.23142 -0.0889,-0.34158 -0.0129,-0.0444 -0.0273,-0.0855 -0.0408,-0.12867 -0.0212,-0.0675 -0.0423,-0.13593 -0.0651,-0.20051 -0.0143,-0.0405 -0.0301,-0.0784 -0.045,-0.11782 -0.0244,-0.0645 -0.0481,-0.12917 -0.0739,-0.19069 -0.0164,-0.0391 -0.0338,-0.0758 -0.0506,-0.11368 -0.0243,-0.0546 -0.0482,-0.10964 -0.0734,-0.16175 -0.0224,-0.0465 -0.0457,-0.0904 -0.0687,-0.13488 -0.0211,-0.0407 -0.0421,-0.0818 -0.0636,-0.12092 -0.0249,-0.0455 -0.0501,-0.0889 -0.0754,-0.13229 -0.0212,-0.0362 -0.0422,-0.0722 -0.0636,-0.10697 -0.0249,-0.0405 -0.0498,-0.0793 -0.0749,-0.11782 -0.0219,-0.0336 -0.0436,-0.067 -0.0656,-0.0992 -0.0245,-0.0358 -0.0489,-0.0704 -0.0734,-0.10439 -0.0249,-0.0347 -0.0496,-0.0684 -0.0744,-0.10129 -0.0234,-0.031 -0.0466,-0.061 -0.0698,-0.0904 -0.0205,-0.026 -0.0408,-0.0512 -0.061,-0.076 -0.0263,-0.0322 -0.0522,-0.0638 -0.078,-0.0941 -0.0147,-0.0173 -0.0284,-0.033 -0.0429,-0.0496 -0.073,-0.0837 -0.14277,-0.1596 -0.20878,-0.2279 -0.0654,-0.0677 -0.32153,-0.34259 -0.37687,-0.39621 m -0.17141,1.57547 0.009,0.004 c 0,0 9.7e-4,0.009 0.001,0.01 l -0.009,-0.007 c 0,-2e-5 -5.1e-4,2e-5 -5.2e-4,0 -2.3e-4,-0.002 -2.7e-4,-0.005 -5.1e-4,-0.007 z m -0.0196,-0.20774 c 4.4e-4,0.006 0.001,0.0122 0.002,0.0181 -5.7e-4,-0.007 -0.002,-0.0106 -0.002,-0.0181 1.5e-4,-7e-5 3.8e-4,7e-5 5.2e-4,0 z m 0.0212,0.20877 0.007,0.003 c 0,0 0.006,0.0737 0.0103,0.13023 -0.004,-0.0202 -0.009,-0.0614 -0.0176,-0.13333 z m 1.44125,6.06888 c 0.47192,6.110077 1.18291,14.618467 1.60301,16.297197 l -2.17765,-0.29921 c 0,0 -1.13998,-20.428617 -1.27227,-21.513407 -0.0133,-0.10664 -0.007,-0.19772 0.009,-0.28112 0.14006,-0.013 0.28258,-0.0451 0.41755,-0.10646 m -1.57717,-0.48989 c 0.015,0.0527 0.0342,0.10627 0.0548,0.1602 -0.0207,-0.0538 -0.0398,-0.10759 -0.0548,-0.1602 z m 0.0925,0.2527 c 0.0274,0.0624 0.0563,0.12507 0.0925,0.18862 0,0 0.21418,0.0902 0.50643,0.13591 0.0577,0.50965 0.47645,4.36097 0.15245,6.77736 -0.34396,2.584977 -0.44192,14.739727 -0.79117,15.530837 l -1.8867,0.87333 c 0,0 0.88388,-12.16294 1.09554,-14.46217 0.14682,-1.594787 0.18794,-4.056417 0.20102,-5.456507 0.35783,-1.07667 0.68387,-2.34195 0.7059,-3.43028 -0.029,-0.053 -0.0529,-0.105 -0.076,-0.1571 z m 34.48988,-18.611447 -29.68889,-1.6348 m -7.59355,0 -29.50879,1.72759 m 29.50879,-1.72759 h 7.59355 l -0.10055,2.37067 h -7.38981 z m -29.67566,3.62479 c -3.64601,-12.14425 -3.881596,-17.04548 10.14941,-35.65789 l 1.66757,-0.003 c 10.14941,8.13329 17.92218,20.97632 17.96452,34.40657 -8.60954,0.34925 -19.29607,0.80433 -26.25196,1.10331 -0.45773,0.0185 -0.69586,0.0291 -1.11919,0.0476 m 61.96277,-0.005 c -6.90298,-0.29633 -18.19275,-0.77787 -27.20446,-1.143 0.0423,-13.43025 8.13983,-26.26469 18.28925,-34.39798 l 2.0035,0.006 c 12.64674,16.10764 13.59027,24.00757 9.48875,35.64654 M 113.81263,39.486246 130.83857,4.7252857 c 0.0423,-0.10848 0.11113,-0.26723 0.21696,-0.44186 0.12171,-0.20373 0.27517,-0.46037 0.56356,-0.66939 0.11113,-0.0794 0.30163,-0.19579 0.57415,-0.26459 M 115.49773,39.424986 133.33901,3.3017557 M 161.12463,39.500246 143.44332,4.7252857 c -0.0423,-0.10848 -0.11112,-0.26723 -0.21696,-0.44186 -0.12171,-0.20373 -0.27516,-0.46037 -0.56356,-0.66939 -0.11112,-0.0794 -0.30162,-0.19579 -0.57415,-0.26459 h -4.56072 m -1.61901,0 h -3.71304 M 159.12113,39.494676 140.96416,3.3468057 M 102.96371,72.682856 c 0.72231,0.50535 4.49892,3.48786 5.53609,4.16255 1.1774,0.76465 3.6195,2.31511 7.112,4.18042 5.78379,3.08769 10.67065,5.02708 14.224,6.42673 2.5921,1.019138 4.82397,1.824078 6.50686,2.40982 m 34.97584,-17.08031 c -0.6985,0.48684 -4.86966,3.42834 -5.84333,4.06334 -1.17739,0.76465 -3.6195,2.31511 -7.112,4.18042 -5.78379,3.08769 -10.67064,5.02708 -14.22399,6.42673 -2.61643,1.028701 -4.86584,1.839165 -6.55409,2.426251 m -33.92187,-14.734671 1.6166,1.33086 c 0.78581,0.55827 1.84679,1.29381 3.11944,2.12195 1.17739,0.76465 3.6195,2.31511 7.112,4.18042 5.78379,3.08769 10.67064,5.02708 14.224,6.42673 1.92395,0.756439 3.64944,1.394878 5.09929,1.913264 m 35.77619,-15.973224 -2.01877,1.33086 c -0.78582,0.55827 -1.8468,1.29381 -3.11944,2.12195 -1.1774,0.76465 -3.6195,2.31511 -7.112,4.18042 -5.78379,3.08769 -10.67065,5.02708 -14.224,6.42673 -1.85854,0.730723 -3.53189,1.351332 -4.95047,1.859978 M 132.53984,4.7173557 h 1.73549 m 5.03204,0 h 2.42673 m -5.74531,-1.43117 c 0,0 -0.71966,0.94456 -0.0926,2.04522 0,0 0.77523,0.33073 1.39435,0.0476 0,0.003 -0.2487,-1.29381 0.30427,-1.99761 m -0.33974,0.94729 c 0,0 1.30547,1.23815 1.13349,2.7648 -0.16933,1.52929 -0.47625,-0.53446 -0.47625,-0.53446 m -2.26783,-2.0409 c 0,0 -0.84102,1.01432 -1.01035,1.74986 -0.16934,0.73819 0.47096,0.78052 0.50535,0.26194 -0.0212,-1.016 0.32773,-1.91655 0.505,-2.0118 z m 3.67319,2.26115 c 0.38695,2.29139 1.36316,4.6415803 1.58414,4.7782803 -0.84321,0.51267 -2.05282,-0.0878 -2.05282,-0.0878 -1.11308,-1.3137 -1.49601,-5.3168903 -1.56063,-6.0895503 7e-4,-3.2e-4 10e-4,-7.1e-4 0.002,-0.001 0,1.9e-4 -0.003,-0.0186 -0.005,-0.0279 m -1.58079,-1.44539 c -0.0974,0.36567 -0.11778,0.8606 0.17467,1.39423 -0.0501,2.4737 -1.66863,5.8652703 -1.66863,5.8652703 0,0 -0.78881,0.94717 -1.48466,0.61908 -0.69585,-0.32544 -0.99736,-0.71158 -0.99736,-0.71158 0.5424,-0.0661 1.76489,-2.2677703 1.97921,-4.3315203 m 1.99729,-2.83755 c -2.8e-4,10e-4 -0.003,0.004 -0.004,0.005 -0.0464,0.0365 -0.14402,0.1174 -0.25993,0.21807 -0.3986,0.32301 -1.14946,0.98355 -1.54668,1.93942 -0.0258,0.0598 -0.0505,0.11982 -0.0718,0.18035 -0.0288,0.0816 -0.053,0.16343 -0.0724,0.24598 -0.0193,0.0825 -0.0338,0.16561 -0.0424,0.24856 -0.0112,0.10821 -0.0269,0.21693 -0.0434,0.32556 -0.008,0.0493 -0.0156,0.0985 -0.0243,0.1478 -0.007,0.0389 -0.0144,0.0779 -0.0217,0.11679 -0.0273,0.14191 -0.0577,0.28373 -0.092,0.42426 -0.37727,0.72482 -0.70044,1.49704 -0.86764,2.2484403 -0.0615,0.11085 -0.12333,0.21424 -0.18449,0.31058 -10e-4,0.002 -0.002,0.004 -0.004,0.006 -0.0603,0.0947 -0.12018,0.18216 -0.1788,0.26148 -6.9e-4,9.3e-4 -0.001,0.002 -0.002,0.003 -0.007,0.01 -0.0146,0.02 -0.0217,0.0295 -0.0287,0.0379 -0.0563,0.0717 -0.0842,0.10542 -0.0188,0.0225 -0.0374,0.0451 -0.0558,0.0656 -0.0229,0.0256 -0.0455,0.0489 -0.0677,0.0713 -0.0209,0.0211 -0.0412,0.0408 -0.0615,0.0589 -0.0238,0.0215 -0.0481,0.0433 -0.0708,0.0605 -0.003,0.003 -0.007,0.005 -0.0103,0.008 -0.032,0.0234 -0.0625,0.0425 -0.092,0.0569 -0.009,0.005 -0.0187,0.008 -0.0279,0.0119 -0.007,0.003 -0.0136,0.006 -0.0202,0.008 -0.0169,0.005 -0.0333,0.009 -0.0491,0.0114 0,0 0.0368,0.0457 0.10697,0.11472 -0.48809,-0.42858 -0.92069,-1.2677703 -0.23668,-2.8556403 1.18532,-2.75167 4.38681,-5.0431 4.38681,-5.0431 h 5.2e-4 c 0.13706,-0.0945 0.3014,-0.14388 0.48938,-0.154 0.3133,-0.0169 0.69191,0.075 1.11879,0.2465 -0.0529,0.33602 2.7598,1.94478 4.02715,3.01635 1.2647,1.0742 1.03183,2.32052 0.3545,4.0297303 0,0 -0.31957,0.70446 -1.12655,1.16014 0.0152,-0.0149 0.0377,-0.0135 0.0519,-0.03 -0.0182,-0.009 -0.0468,-0.0434 -0.07,-0.0681 -0.25024,-0.45326 -0.49626,-1.06707 -0.69044,-1.5966303 0.10419,-0.11955 1.19595,-1.47461 0.12562,-2.36023 -0.35215,-0.29138 -0.68432,-0.55071 -0.99477,-0.78807 -0.0271,-0.11786 -0.0569,-0.23142 -0.0889,-0.34158 -0.0129,-0.0444 -0.0273,-0.0855 -0.0408,-0.12867 -0.0212,-0.0675 -0.0423,-0.13593 -0.0651,-0.20051 -0.0143,-0.0405 -0.0301,-0.0784 -0.045,-0.11782 -0.0244,-0.0645 -0.0481,-0.12917 -0.0739,-0.19069 -0.0164,-0.0391 -0.0338,-0.0758 -0.0506,-0.11368 -0.0243,-0.0546 -0.0482,-0.10964 -0.0734,-0.16175 -0.0224,-0.0464 -0.0457,-0.0904 -0.0687,-0.13488 -0.0211,-0.0407 -0.0421,-0.0818 -0.0636,-0.12092 -0.0249,-0.0455 -0.0501,-0.0889 -0.0754,-0.13229 -0.0212,-0.0362 -0.0422,-0.0722 -0.0636,-0.10697 -0.0249,-0.0405 -0.0498,-0.0793 -0.0749,-0.11782 -0.0219,-0.0336 -0.0436,-0.067 -0.0656,-0.0992 -0.0245,-0.0358 -0.0489,-0.0704 -0.0734,-0.10439 -0.0249,-0.0347 -0.0496,-0.0684 -0.0744,-0.10129 -0.0234,-0.031 -0.0466,-0.061 -0.0698,-0.0904 -0.0204,-0.026 -0.0407,-0.0512 -0.061,-0.076 -0.0263,-0.0322 -0.0522,-0.0638 -0.078,-0.0941 -0.0147,-0.0173 -0.0284,-0.033 -0.0429,-0.0496 -0.073,-0.0837 -0.14277,-0.1596 -0.20877,-0.2279 -0.0654,-0.0677 -0.32153,-0.34259 -0.37687,-0.39621 m -0.17142,1.57547 0.009,0.004 c 0,0 9.7e-4,0.009 0.001,0.01 l -0.009,-0.007 c 0,-2e-5 -5.1e-4,2e-5 -5.1e-4,0 -2.4e-4,-0.002 -2.8e-4,-0.005 -5.2e-4,-0.007 z m -0.0196,-0.20774 c 4.4e-4,0.006 0.001,0.0122 0.002,0.0181 -5.6e-4,-0.007 -0.002,-0.0106 -0.002,-0.0181 1.4e-4,-7e-5 3.7e-4,7e-5 5.1e-4,0 z m 0.0212,0.20877 0.007,0.003 c 0,0 0.006,0.0737 0.0103,0.13023 -0.004,-0.0202 -0.009,-0.0614 -0.0176,-0.13333 z m 1.44126,6.0688803 c 0.47192,6.11008 1.1829,14.61847 1.603,16.2972 l -2.17765,-0.29921 c 0,0 -1.13998,-20.4286203 -1.27227,-21.5134103 -0.0133,-0.10664 -0.007,-0.19772 0.009,-0.28112 0.14005,-0.013 0.28257,-0.0451 0.41754,-0.10646 m -1.57677,-0.4896 c 0.015,0.0527 0.0342,0.10627 0.0548,0.1602 -0.0207,-0.0538 -0.0398,-0.10759 -0.0548,-0.1602 z m 0.0925,0.2527 c 0.0274,0.0624 0.0563,0.12507 0.0925,0.18862 0,0 0.21417,0.0902 0.50643,0.13591 0.0577,0.50965 0.47644,4.36097 0.15244,6.7773603 -0.34396,2.58498 -0.44191,14.73973 -0.79116,15.53084 l -1.88671,0.87333 c 0,0 0.88388,-12.16294 1.09554,-14.46217 0.14682,-1.59479 0.18794,-4.05642 0.20102,-5.4565103 0.35783,-1.07667 0.68387,-2.34195 0.7059,-3.43028 -0.029,-0.053 -0.0529,-0.105 -0.076,-0.1571 z"
     inkscape:label="back-main" />
</svg>
