<?xml version="1.0" encoding="UTF-8" standalone="no"?>
<!-- Created with Inkscape (http://www.inkscape.org/) -->

<svg
   width="174.82443mm"
   height="79.411369mm"
   viewBox="0 0 174.82443 79.411369"
   version="1.1"
   id="svg32276"
   inkscape:version="1.1 (c68e22c387, 2021-05-23)"
   sodipodi:docname="bella.svg"
   xmlns:inkscape="http://www.inkscape.org/namespaces/inkscape"
   xmlns:sodipodi="http://sodipodi.sourceforge.net/DTD/sodipodi-0.dtd"
   xmlns="http://www.w3.org/2000/svg"
   xmlns:svg="http://www.w3.org/2000/svg">
  <sodipodi:namedview
     id="namedview32278"
     pagecolor="#ffffff"
     bordercolor="#666666"
     borderopacity="1.0"
     inkscape:pageshadow="2"
     inkscape:pageopacity="0.0"
     inkscape:pagecheckerboard="0"
     inkscape:document-units="mm"
     showgrid="false"
     fit-margin-top="0"
     fit-margin-left="0"
     fit-margin-right="0"
     fit-margin-bottom="0"
     lock-margins="true"
     inkscape:zoom="1.108669"
     inkscape:cx="335.08649"
     inkscape:cy="229.55454"
     inkscape:window-width="1920"
     inkscape:window-height="1001"
     inkscape:window-x="-9"
     inkscape:window-y="-9"
     inkscape:window-maximized="1"
     inkscape:current-layer="layer1"
     inkscape:showpageshadow="2"
     inkscape:deskcolor="#d1d1d1">
    <inkscape:page
       x="0"
       y="0"
       width="174.79115"
       height="79.424759"
       id="page1"
       margin="0"
       bleed="0" />
    <inkscape:page
       x="-0.073312007"
       y="84.767082"
       width="174.79115"
       height="79.424751"
       id="page2"
       margin="0"
       bleed="0" />
  </sodipodi:namedview>
  <defs
     id="defs32273" />
  <g
     inkscape:label="Layer 1"
     inkscape:groupmode="layer"
     id="layer1"
     transform="translate(-212.66987,-243.0614)">
    <path
       id="path33"
       style="fill:none;stroke:#228c3a;stroke-width:0.265;stroke-linecap:round;stroke-miterlimit:10;stroke-dasharray:0.529998, 0.529998, 0.529998, 0, 0, 0;stroke-dashoffset:0"
       class="st22"
       d="m 260.62286,244.75459 c -3.40842,3.43416 -9.59006,3.58572 -13.76413,3.70379 -4.17407,0.11808 -9.08209,-0.66725 -12.55681,-3.66836 m 27.61528,-1.16272 c -0.36346,2.20357 -0.86053,4.275 -1.50638,6.19357 -0.76472,2.27168 -2.57487,4.97719 -3.89792,6.05901 -2.37715,2.51352 -5.43883,3.75706 -9.14977,3.84587 -4.03175,-0.15292 -5.0981,-0.79048 -8.41579,-3.12701 -2.46811,-2.30835 -3.64124,-4.37869 -4.50688,-6.56646 -0.85207,-2.15353 -1.45251,-4.40206 -1.56864,-6.34449 m 47.78595,5.88506 c -3.40715,10.58105 -6.52658,23.19251 -3.53692,32.864 0.89243,2.88693 2.34201,5.22395 4.34136,7.43254 M 214.0658,249.57493 c 3.40714,10.58105 6.52658,23.19251 3.53692,32.864 -0.89244,2.88694 -2.34201,5.22396 -4.34136,7.43255 m 4.90548,26.74887 c 1.07421,0.37835 2.62202,0.88371 4.52173,1.35731 3.45545,0.8599 6.18595,1.143 8.58837,1.35731 6.28915,0.55827 12.11263,0.79375 16.0483,0.79507 3.93568,10e-4 9.75916,-0.2368 16.04831,-0.79507 2.40241,-0.21431 5.13291,-0.49741 8.58837,-1.35731 1.89706,-0.47096 3.44752,-0.97631 4.52173,-1.35731"
       sodipodi:nodetypes="csccsccccccsccccccccccc" />
    <path
       id="path27"
       style="fill:none;stroke:#dc3545;stroke-width:0.264583;stroke-miterlimit:10"
       class="st2"
       d="m 260.82296,243.23551 c -4.9666,3.74351 -7.32157,3.84783 -13.41128,3.99834 -6.0897,0.15051 -9.24674,-0.79512 -13.39895,-3.99834 m 47.99013,44.97653 -5.42396,30.51968 c -1.07421,0.381 -2.62467,0.88636 -4.52173,1.35731 -3.45546,0.8599 -6.18596,1.143 -8.58837,1.35732 -6.28915,0.55827 -12.11263,0.79639 -16.05096,0.79507 -3.93832,-0.001 -9.76179,-0.2368 -16.05094,-0.79507 -2.40242,-0.21432 -5.13292,-0.49742 -8.58838,-1.35732 -1.8997,-0.4736 -3.44752,-0.97895 -4.52172,-1.35731 l -5.42396,-30.51968 c 1.83875,-2.55568 3.13415,-4.84744 3.77587,-8.02626 1.95961,-9.70708 -1.00841,-20.64728 -3.77587,-30.16899 l 21.17989,-6.78128 c 0.14817,1.09538 0.41275,2.667 0.90488,4.52173 0.59679,2.1655 2.17675,5.55038 4.84433,7.90136 2.13448,1.88114 5.14379,3.01114 7.58103,2.98574 2.86131,-0.0519 5.84491,-1.12057 8.08998,-3.25372 2.03764,-1.93602 3.46705,-4.0472 4.48514,-7.63338 0.49212,-1.85473 0.75671,-3.42635 0.90487,-4.52173 l 21.1799,6.78128 c -2.76746,9.52171 -5.73548,20.46191 -3.77587,30.16899 0.64172,3.17882 1.93712,5.47058 3.77587,8.02626" />
    <path
       id="path38"
       style="opacity:0.6;fill-opacity:1"
       d="m 366.31411,321.6384 1.40316,-45.369 -1.88843,45.43331 z m -28.85628,-0.14173 -1.40316,-45.369 1.88843,45.46839 z" />
    <path
       id="path44"
       style="font-variation-settings:normal;vector-effect:none;fill:none;fill-opacity:1;stroke:#228c3a;stroke-width:0.265;stroke-linecap:round;stroke-linejoin:miter;stroke-miterlimit:10;stroke-dasharray:0.529998, 0.529998, 0.529998, 0, 0, 0;stroke-dashoffset:0;stroke-opacity:1;-inkscape-stroke:none;stop-color:#000000"
       class="st22"
       d="m 386.07036,249.43251 c -3.40715,10.58105 -6.52658,23.19251 -3.53692,32.864 0.89244,2.88694 2.34201,5.22396 4.34136,7.43254 m -68.55394,-40.35233 c 3.40715,10.58105 6.52658,23.1925 3.53693,32.86399 -0.89244,2.88694 -2.34202,5.22396 -4.34137,7.43255 m 5.17142,27.39688 c 1.47902,0.32014 2.9845,0.62442 4.52173,0.90487 8.83179,1.61396 17.17674,2.24896 24.97534,2.24765 7.79859,-0.001 16.14355,-0.63633 24.97534,-2.24765 1.53459,-0.28045 3.04271,-0.58208 4.52173,-0.90487 m -14.65641,-73.39381 c -2.28793,2.04691 -5.10963,3.67333 -8.0686,4.31739 -2.44872,0.53301 -4.99586,0.35144 -6.97783,0.4044 -1.98197,0.053 -4.95247,-0.10054 -7.31247,-0.75074 -2.8688,-0.79035 -5.1148,-2.23633 -7.0212,-3.88288"
       sodipodi:nodetypes="csccscccccccscsc" />
    <path
       class="st2"
       d="m 352.39227,247.21393 c -6.08971,0.15051 -9.24675,-0.79513 -13.39896,-3.99834 l -21.95697,6.58159 c 2.76746,9.52172 5.73547,20.46191 3.77586,30.169 -0.64172,3.17882 -1.93712,5.47057 -3.77586,8.02625 l 5.64885,31.19702 c 1.47902,0.32015 2.9845,0.62442 4.52173,0.90488 8.83179,1.61395 17.17675,2.24895 24.97667,2.24614 7.79991,-0.003 16.14487,-0.63783 24.97666,-2.24914 1.53459,-0.28046 3.04271,-0.58208 4.52173,-0.90487 l 5.64886,-31.19684 c -1.83875,-2.55551 -3.13415,-4.84727 -3.77587,-8.02609 -1.95961,-9.70708 1.0084,-20.64728 3.77587,-30.16917 l -21.5273,-6.57894 c -4.9666,3.74368 -7.32157,3.848 -13.41127,3.99851 z"
       id="path34"
       sodipodi:nodetypes="cccscccccccsccc"
       style="font-variation-settings:normal;vector-effect:none;fill:none;fill-opacity:1;stroke:#dc3545;stroke-width:0.264583;stroke-linecap:butt;stroke-linejoin:miter;stroke-miterlimit:10;stroke-dasharray:none;stroke-dashoffset:0;stroke-opacity:1;-inkscape-stroke:none;stop-color:#000000" />
    <path
       id="path42"
       style="opacity:0.6;fill-opacity:1"
       d="m 214.37224,296.70064 17.76722,-5.97041 -17.82493,5.64708 z m 66.16665,-0.2256 -17.76722,-5.97041 17.82493,5.64708 z m -20.24769,25.18428 2.48047,-31.15469 -2.89388,31.12161 z m -25.67127,0.2256 -2.48047,-31.15469 2.89388,31.12161 z" />
  </g>
</svg>
