<?xml version="1.0" encoding="UTF-8" standalone="no"?>
<!-- Created with Inkscape (http://www.inkscape.org/) -->

<svg
   xmlns:dc="http://purl.org/dc/elements/1.1/"
   xmlns:cc="http://creativecommons.org/ns#"
   xmlns:rdf="http://www.w3.org/1999/02/22-rdf-syntax-ns#"
   xmlns:svg="http://www.w3.org/2000/svg"
   xmlns="http://www.w3.org/2000/svg"
   xmlns:sodipodi="http://sodipodi.sourceforge.net/DTD/sodipodi-0.dtd"
   xmlns:inkscape="http://www.inkscape.org/namespaces/inkscape"
   width="1000"
   height="1000"
   viewBox="0 0 264.58333 264.58334"
   version="1.1"
   id="svg562"
   inkscape:version="0.92.4 (unknown)"
   sodipodi:docname="bent.svg">
  <defs
     id="defs556" />
  <sodipodi:namedview
     id="base"
     pagecolor="#ffffff"
     bordercolor="#666666"
     borderopacity="1.0"
     inkscape:pageopacity="0.0"
     inkscape:pageshadow="2"
     inkscape:zoom="0.64"
     inkscape:cx="453.84274"
     inkscape:cy="552.13217"
     inkscape:document-units="mm"
     inkscape:current-layer="layer1"
     showgrid="false"
     units="px"
     inkscape:window-width="1920"
     inkscape:window-height="1043"
     inkscape:window-x="0"
     inkscape:window-y="0"
     inkscape:window-maximized="1"
     inkscape:snap-global="false"
     showguides="false" />
  <metadata
     id="metadata559">
    <rdf:RDF>
      <cc:Work
         rdf:about="">
        <dc:format>image/svg+xml</dc:format>
        <dc:type
           rdf:resource="http://purl.org/dc/dcmitype/StillImage" />
        <dc:title></dc:title>
      </cc:Work>
    </rdf:RDF>
  </metadata>
  <g
     inkscape:label="Layer 1"
     inkscape:groupmode="layer"
     id="layer1">
    <path
       sodipodi:nodetypes="cccccccc"
       style="fill:#75507b;stroke:#000000;stroke-width:2;stroke-linecap:round;stroke-linejoin:round;stroke-miterlimit:4;stroke-dasharray:none"
       d="M 54.063317,51.233465 40.977429,53.308819 40.515197,68.970382 90.692174,66.571156 92.817809,53.290569 79.850805,51.233465 c -2.383674,2.56159 -7.45818,2.392046 -12.88983,2.392046 -6.245252,0.0394 -10.547579,0.133442 -12.897658,-2.392046 z"
       id="inside"
       inkscape:connector-curvature="0" />
    <path
       id="primary0"
       style="fill:#5c3566;stroke:#000000;stroke-width:2;stroke-linecap:round;stroke-linejoin:round;stroke-miterlimit:4;stroke-dasharray:none"
       d="m 27.945171,55.347755 c 3.449765,5.345237 8.288338,36.941875 2.138182,47.670575 -1.848947,7.82648 -5.98351,24.88034 -6.343199,34.42884 -1.09109,4.40084 -0.127614,37.31479 1.930471,57.61157 -9.326854,1.64947 -12.493212,2.68786 -16.6305017,3.13771 -2.1261282,-27.71087 -4.2604632,-48.36731 -4.1552739,-62.56157 0.066166,-8.92402 6.8339696,-36.746024 12.0625546,-57.672855 2.824681,-10.79569 7.453943,-22.61427 10.997767,-22.61427 z m 79.059019,0 c -4.3212,6.250752 -7.698426,37.390127 -2.41726,46.770865 1.84895,7.82648 6.2626,25.78005 6.62229,35.32855 1.09108,4.40084 0.12759,37.31479 -1.93049,57.61157 9.32686,1.64947 12.49322,2.68786 16.63051,3.13771 2.12612,-27.71087 4.26046,-48.36731 4.15527,-62.56157 -0.0662,-8.92402 -6.83398,-36.746024 -12.06255,-57.672855 -2.8247,-10.79569 -7.45395,-22.61427 -10.99777,-22.61427 z m 51.14988,0 c 0.51558,6.567913 4.46204,38.536299 2.13818,47.670575 -1.84895,7.82648 -5.98351,24.88034 -6.3432,34.42884 -1.09109,4.40084 -0.12761,37.31479 1.93047,57.61157 -9.32685,1.64947 -12.49321,2.68786 -16.6305,3.13771 -2.12613,-27.71087 -4.26046,-48.36731 -4.15527,-62.56157 0.0662,-8.92402 6.83397,-36.746024 12.06255,-57.672855 2.82468,-10.79569 7.45394,-22.61427 10.99777,-22.61427 z m 79.05901,0 c -0.51558,6.567913 -4.74112,37.636589 -2.41726,46.770865 1.84895,7.82648 6.2626,25.78005 6.62229,35.32855 1.09108,4.40084 0.1276,37.31479 -1.93048,57.61157 9.32686,1.64947 12.49321,2.68786 16.6305,3.13771 2.12613,-27.71087 4.26046,-48.36731 4.15527,-62.56157 -0.0662,-8.92402 -6.83396,-36.746024 -12.06255,-57.672855 -2.82468,-10.79569 -7.45394,-22.61427 -10.99777,-22.61427 z"
       inkscape:connector-curvature="0" />
    <path
       id="primary1"
       style="fill:#5c3566;stroke:#000000;stroke-width:2;stroke-linecap:round;stroke-linejoin:round;stroke-miterlimit:4;stroke-dasharray:none"
       d="m 54.30167,51.233465 -26.742788,4.241268 c 0.184394,1.859102 3.423186,18.17964 3.423186,25.769903 0.467699,19.785484 -1.262662,21.909534 -2.227481,25.764214 2.203681,16.50541 -0.204757,25.0003 -0.212482,40.04941 0,16.54137 -2.646177,39.85544 -3.015211,43.95719 l 83.337016,0.14616 c -0.36876,-4.10175 -1.89865,-26.36236 -1.89865,-42.90373 0,-23.27475 -1.61869,-37.94124 -1.61869,-43.7604 -2.38293,-4.12769 -3.38696,-16.299653 -2.57396,-25.797608 0,-7.590264 3.8671,-21.366037 4.05148,-23.225139 L 80.089148,51.233465 c -2.383675,2.56159 1.431124,12.522787 -12.88983,12.571102 C 52.878363,63.852878 56.651749,53.758953 54.30167,51.233465 Z m 130.2089,0 -26.74279,4.241268 c 0.18439,1.859102 -0.1816,13.090111 -0.1816,20.680374 -0.98131,8.192492 -0.0774,22.428411 0.92749,29.954033 2.20368,16.50541 0.24506,25.90001 0.23733,40.94912 0,16.54137 -3.37699,40.0016 -3.74602,44.10335 h 84.79866 c -0.36878,-4.10175 -2.62948,-26.36236 -2.62948,-42.90373 0,-23.27475 -1.16887,-38.24115 -1.16887,-44.06031 0.21175,-12.724469 0.40415,-18.544507 1.21715,-28.042463 0,-7.590263 -0.37384,-18.821272 -0.18945,-20.680374 l -26.73494,-4.241268 c -2.38368,2.56159 -7.45817,2.392046 -12.88983,2.392046 -6.24525,0.0394 -10.54757,0.133442 -12.89765,-2.392046 z"
       inkscape:connector-curvature="0" />
  </g>
</svg>
