<?xml version="1.0" encoding="UTF-8" standalone="no"?>
<!-- Created with Inkscape (http://www.inkscape.org/) -->

<svg
   width="205.62321mm"
   height="95.967278mm"
   viewBox="0 0 205.62321 95.967278"
   version="1.1"
   id="svg11344"
   inkscape:version="1.3 (0e150ed6c4, 2023-07-21)"
   sodipodi:docname="bent.svg"
   xmlns:inkscape="http://www.inkscape.org/namespaces/inkscape"
   xmlns:sodipodi="http://sodipodi.sourceforge.net/DTD/sodipodi-0.dtd"
   xmlns="http://www.w3.org/2000/svg"
   xmlns:svg="http://www.w3.org/2000/svg">
  <sodipodi:namedview
     id="namedview11346"
     pagecolor="#ffffff"
     bordercolor="#666666"
     borderopacity="1.0"
     inkscape:pageshadow="2"
     inkscape:pageopacity="0.0"
     inkscape:pagecheckerboard="0"
     inkscape:document-units="mm"
     showgrid="false"
     fit-margin-top="0"
     fit-margin-left="0"
     fit-margin-right="0"
     fit-margin-bottom="0"
     inkscape:zoom="0.81586714"
     inkscape:cx="145.24424"
     inkscape:cy="159.95251"
     inkscape:window-width="1920"
     inkscape:window-height="1043"
     inkscape:window-x="0"
     inkscape:window-y="0"
     inkscape:window-maximized="1"
     inkscape:current-layer="layer1"
     inkscape:showpageshadow="2"
     inkscape:deskcolor="#d1d1d1" />
  <defs
     id="defs11341" />
  <g
     inkscape:label="Layer 1"
     inkscape:groupmode="layer"
     id="layer1"
     transform="translate(-213.12067,-173.6817)">
    <path
       id="front-folds"
       d="M 3771.67,-458 3764.77,-428.58 C 3762.68,-418.73 3760.73,-408.85 3759.1,-398.91 3757.4,-388.99 3755.94,-379.02 3754.69,-369.03 3754.04,-364.04 3753.48,-359.03 3752.95,-354.02 3752.4,-349.01 3751.93,-344 3751.49,-338.98 3751.81,-344.01 3752.16,-349.03 3752.59,-354.06 3753.04,-359.08 3753.54,-364.09 3754.12,-369.1 3755.26,-379.12 3756.72,-389.09 3758.37,-399.04 3760.07,-408.98 3762.01,-418.87 3764.22,-428.71 3766.55,-438.5 3769.15,-448.25 3771.67,-458 Z M 3547.09,-458 C 3549.61,-448.25 3552.2,-438.5 3554.55,-428.7 3556.76,-418.87 3558.7,-408.97 3560.4,-399.03 3562.05,-389.08 3563.51,-379.11 3564.65,-369.09 3565.23,-364.08 3565.73,-359.07 3566.18,-354.05 3566.61,-349.03 3566.96,-344 3567.28,-338.97 3566.84,-343.99 3566.37,-349 3565.82,-354.01 3565.29,-359.02 3564.73,-364.02 3564.08,-369.02 3562.83,-379.01 3561.37,-388.98 3559.67,-398.9 3558.03,-408.84 3556.09,-418.72 3554,-428.57 Z"
       style="opacity:0.46"
       transform="matrix(0.26458333,0,0,0.26458333,-705.91184,301.04819)" />
    <path
       class="st2"
       d="M 396.08039,266.65765 C 394.85801,255.42344 394.04309,244.36915 393.63828,237.80219 393.16997,230.21659 393.07736,223.23688 393.04297,220.56988 392.99537,216.7493 393.01387,213.50286 393.04297,211.0634 394.38628,215.95083 398.72476,225.39397 400.93131,235.15796 403.98785,248.68315 404.89842,262.82397 405.52072,266.32427 L 418.59378,264.54098 412.98461,225.91975 C 408.33853,203.8588 402.70555,187.76155 401.95414,184.91992 401.91704,184.77705 401.58636,183.47794 400.76616,181.94865 400.12322,180.75273 399.35857,179.36896 397.79489,178.38471 397.32393,178.08838 396.89795,177.90317 396.60691,177.7894 L 378.55105,173.96795 C 374.87009,176.6345 372.59555,176.70881 368.08219,176.81602 363.56884,176.92323 361.22902,176.24964 358.15162,173.96795 L 341.34868,177.7894 C 341.05764,177.90052 340.63166,178.08573 340.1607,178.38471 338.59701,179.36896 337.83237,180.75273 337.18943,181.94865 336.36657,183.47794 336.03849,184.77705 336.00145,184.91992 335.25003,187.76155 329.6197,203.8588 324.97097,225.91975 L 319.36445,264.54098 332.43751,266.32427 C 333.08799,262.6671 334.24943,247.3821 337.44205,233.32641 339.50869,224.2278 343.65619,215.64429 344.91526,211.0634 344.94436,213.50286 344.96286,216.7493 344.91526,220.56988 344.88356,223.23423 344.79091,230.21659 344.31995,237.80219 343.91514,244.36915 343.10022,255.55573 341.87784,266.65765 342.55253,266.78994 343.07112,266.99367 344.3517,267.25296 358.25344,269.916 380.35776,269.93112 393.60653,267.25296 394.88711,266.99367 395.4057,266.78994 396.08039,266.65765"
       id="back-main"
       sodipodi:nodetypes="ccccscccccscccccccccccsccccccc"
       style="fill:none;stroke:#000000;stroke-width:0.264583;stroke-miterlimit:10" />
    <path
       id="front-main"
       style="display:inline;fill:none;stroke:#000000;stroke-width:0.264583;stroke-miterlimit:10;stroke-dasharray:none"
       d="M 272.00869,173.87682 C 271.93489,174.72896 271.78723,175.94544 271.33805,177.09771 269.64686,181.26549 265.5468,183.53961 261.52389,183.51573 257.67134,183.49283 253.8915,181.35476 252.2799,177.09771 251.83156,175.90197 251.68192,174.7128 251.60926,173.87682 M 272.00869,173.81062 C 268.32773,176.47717 266.05318,176.55148 261.53982,176.65869 257.02647,176.7659 254.68666,176.09232 251.60926,173.81062 M 251.60926,173.81067 235.26135,177.7894 C 234.66603,177.96138 233.41191,178.40852 232.29007,179.57269 231.04124,180.8665 224.49016,201.14682 223.57205,205.71617 222.87773,209.17548 220.79568,216.42639 218.9659,225.14614 216.45167,237.12776 215.53134,251.88267 213.48085,263.38475 213.40945,263.78163 213.33797,264.19438 213.27447,264.54098 L 225.75222,266.91694 231.8415,230.18506 238.22997,211.0634 235.1661,266.91694 C 235.84078,267.04923 236.35937,267.25296 237.63995,267.51225 251.54169,270.17529 273.78889,270.19042 287.03766,267.51225 288.31824,267.25296 288.83682,267.04923 289.51151,266.91694 L 286.44499,211.0634 292.96729,230.7841 298.92274,266.91694 311.40314,264.54098 C 311.33964,264.19438 311.2682,263.78163 311.19676,263.38475 309.10367,251.6437 308.09934,236.51325 305.55569,224.403 303.79398,216.01548 301.78006,209.07672 301.10555,205.71617 300.18745,201.14682 293.63637,180.8665 292.38753,179.57269 291.2657,178.40852 290.01157,177.96138 289.41626,177.7894 L 272.00869,173.81067" />
    <path
       id="front-stitching"
       style="fill:none;stroke:#dc3545;stroke-width:0.265;stroke-linecap:round;stroke-miterlimit:10;stroke-dasharray:0.52999797,0.52999797,0.52999797,0,0,0;stroke-dashoffset:0"
       class="st22"
       d="M 271.80692,174.89239 C 268.31659,177.78041 265.69065,177.49488 261.51769,177.59981 257.34474,177.70475 255.26792,177.32666 251.7932,174.94785 M 273.20016,174.15596 C 272.95082,175.67486 272.64263,177.05158 272.06031,178.17168 267.07871,187.75403 254.7972,185.83158 251.71102,178.75127 251.02752,177.18322 250.53688,175.68485 250.41864,174.25148 M 289.29984,264.877 C 271.31781,268.44954 251.79516,268.22917 235.19785,264.9379 M 311.09094,262.27615 298.61578,264.79233 M 213.6819,262.27615 226.15704,264.79233"
       sodipodi:nodetypes="ccccccccccccc" />
    <path
       id="back-folds"
       style="opacity:0.2;fill:#000000;fill-opacity:1;stroke:none;stroke-width:0.264583px;stroke-linecap:butt;stroke-linejoin:miter;stroke-opacity:1"
       d="M 409.45269,262.93133 C 409.45269,262.93133 407.76089,238.52836 405.08707,228.5355 402.41324,218.54264 394.50373,203.26779 394.50373,203.26779 394.50373,203.26779 401.783,218.69541 404.42561,228.66779 407.06821,238.64017 409.45269,262.93133 409.45269,262.93133 Z M 328.60904,263.34506 C 328.60904,263.34506 330.30084,238.94209 332.97467,228.94923 335.64849,218.95637 343.558,203.68152 343.558,203.68152 343.558,203.68152 336.27873,219.10914 333.63613,229.08152 330.99352,239.0539 328.60904,263.34506 328.60904,263.34506 Z M 398.44841,179.27371 396.62543,186.65559 C 396.07245,189.12944 395.55651,191.61123 395.12524,194.10625 394.6728,196.59863 394.28916,199.10423 393.95578,201.61777 393.7838,202.87455 393.63564,204.13132 393.49541,205.39073 393.34989,206.65015 393.22553,207.91221 393.10911,209.17427 393.19378,207.90957 393.28639,206.64486 393.40016,205.3828 393.51922,204.12073 393.65151,202.85867 393.80497,201.59925 394.10659,199.08042 394.49289,196.57217 394.92945,194.07186 395.37924,191.57419 395.89253,189.08975 396.47726,186.62119 397.09903,184.16321 397.78166,181.72111 398.44841,179.27371 Z M 339.03093,179.27371 C 339.69768,181.71846 340.3803,184.16321 341.00207,186.62119 341.5868,189.08975 342.10009,191.57419 342.54989,194.07186 342.98645,196.57217 343.37274,199.08042 343.67437,201.59925 343.82782,202.85867 343.96012,204.12073 344.07918,205.3828 344.19295,206.64486 344.28555,207.90957 344.37022,209.17427 344.2538,207.91221 344.12945,206.65015 343.98393,205.39073 343.8437,204.13132 343.69553,202.8719 343.52355,201.61777 343.19018,199.10423 342.80653,196.60127 342.35409,194.10625 341.92018,191.60859 341.40689,189.1268 340.85391,186.65559 Z" />
    <path
       id="back-stitching"
       style="fill:none;stroke:#dc3545;stroke-width:0.265;stroke-linecap:round;stroke-miterlimit:10;stroke-dasharray:0.529998,0.529998,0.529998,0,0,0;font-variation-settings:normal;opacity:1;vector-effect:none;fill-opacity:1;stroke-linejoin:miter;stroke-dashoffset:0;stroke-opacity:1;-inkscape-stroke:none;stop-color:#000000;stop-opacity:1"
       class="st22"
       d="M 395.83771,264.89342 C 377.85567,268.46595 358.60769,267.94157 342.01037,264.65025 M 418.28787,262.23544 405.30145,264.17953 M 319.63058,262.23538 332.60068,264.17957" />
  </g>
</svg>
