<?xml version="1.0" encoding="UTF-8" standalone="no"?>
<!-- Created with Inkscape (http://www.inkscape.org/) -->

<svg
   xmlns:dc="http://purl.org/dc/elements/1.1/"
   xmlns:cc="http://creativecommons.org/ns#"
   xmlns:rdf="http://www.w3.org/1999/02/22-rdf-syntax-ns#"
   xmlns:svg="http://www.w3.org/2000/svg"
   xmlns="http://www.w3.org/2000/svg"
   xmlns:sodipodi="http://sodipodi.sourceforge.net/DTD/sodipodi-0.dtd"
   xmlns:inkscape="http://www.inkscape.org/namespaces/inkscape"
   width="1000"
   height="1000"
   viewBox="0 0 264.58333 264.58334"
   version="1.1"
   id="svg562"
   inkscape:version="0.92.4 (5da689c313, 2019-01-14)"
   sodipodi:docname="breanna.svg">
  <defs
     id="defs556">
    <marker
       style="overflow:visible"
       id="Arrow1MstartQR"
       refX="0"
       refY="0"
       orient="auto">
      <path
         inkscape:connector-curvature="0"
         transform="matrix(0.4,0,0,0.4,4,0)"
         style="fill:#ff5b77;fill-rule:evenodd;stroke:#ff5b77;stroke-width:1.00000003pt;marker-start:none"
         d="M 0,0 5,-5 -12.5,0 5,5 Z"
         id="path5084" />
    </marker>
    <marker
       orient="auto"
       refY="0"
       refX="0"
       id="Arrow1Mend3"
       style="overflow:visible">
      <path
         inkscape:connector-curvature="0"
         id="path5087"
         d="M 0,0 5,-5 -12.5,0 5,5 Z"
         style="fill:#ff5b77;fill-rule:evenodd;stroke:#ff5b77;stroke-width:1.00000003pt;marker-start:none"
         transform="matrix(-0.4,0,0,-0.4,-4,0)" />
    </marker>
    <marker
       style="overflow:visible"
       id="marker53"
       refX="0"
       refY="0"
       orient="auto">
      <path
         inkscape:connector-curvature="0"
         transform="matrix(0.4,0,0,0.4,4,0)"
         style="fill:#ff5b77;fill-rule:evenodd;stroke:#ff5b77;stroke-width:1.00000003pt;marker-start:none"
         d="M 0,0 5,-5 -12.5,0 5,5 Z"
         id="path51" />
    </marker>
    <marker
       orient="auto"
       refY="0"
       refX="0"
       id="marker57"
       style="overflow:visible">
      <path
         inkscape:connector-curvature="0"
         id="path55"
         d="M 0,0 5,-5 -12.5,0 5,5 Z"
         style="fill:#ff5b77;fill-rule:evenodd;stroke:#ff5b77;stroke-width:1.00000003pt;marker-start:none"
         transform="matrix(-0.4,0,0,-0.4,-4,0)" />
    </marker>
  </defs>
  <sodipodi:namedview
     id="base"
     pagecolor="#ffffff"
     bordercolor="#666666"
     borderopacity="1.0"
     inkscape:pageopacity="0.0"
     inkscape:pageshadow="2"
     inkscape:zoom="2.56"
     inkscape:cx="368.47395"
     inkscape:cy="530.76927"
     inkscape:document-units="mm"
     inkscape:current-layer="layer1"
     showgrid="false"
     units="px"
     inkscape:window-width="3840"
     inkscape:window-height="2032"
     inkscape:window-x="0"
     inkscape:window-y="54"
     inkscape:window-maximized="1"
     inkscape:snap-global="false"
     showguides="false" />
  <metadata
     id="metadata559">
    <rdf:RDF>
      <cc:Work
         rdf:about="">
        <dc:format>image/svg+xml</dc:format>
        <dc:type
           rdf:resource="http://purl.org/dc/dcmitype/StillImage" />
        <dc:title />
      </cc:Work>
    </rdf:RDF>
  </metadata>
  <g
     inkscape:label="Layer 1"
     inkscape:groupmode="layer"
     id="layer1">
    <path
       sodipodi:nodetypes="cccccccc"
       style="fill:#888a85;stroke:#000000;stroke-width:2;stroke-linecap:round;stroke-linejoin:round;stroke-miterlimit:4;stroke-dasharray:none"
       d="M 54.1423,55.951664 41.911976,57.89133 41.479965,72.528929 88.376337,70.286566 90.362996,57.874273 78.243784,55.951664 c -2.227828,2.394111 -6.970559,2.235652 -12.047084,2.235652 -5.836933,0.03682 -9.857971,0.124718 -12.0544,-2.235652 z"
       id="inside"
       inkscape:connector-curvature="0" />
    <path
       id="primary1"
       style="fill:#babdb6;stroke:#000000;stroke-width:2;stroke-linecap:round;stroke-linejoin:round;stroke-miterlimit:4;stroke-dasharray:none"
       d="m 54.365069,55.951664 -24.994326,3.963971 c 0.172338,1.737552 3.199375,16.991043 3.199375,24.085049 0.437121,18.491896 -1.180108,20.477076 -2.081846,24.079736 2.059602,15.42627 3.30863,24.40872 3.30141,38.47391 33.907754,0 29.48126,0.0782 66.295788,0.0782 0,-21.75303 1.98715,-35.46062 1.98715,-40.89932 -2.227137,-3.85782 -3.165523,-15.233969 -2.405677,-24.110942 0,-7.094007 3.614267,-19.969111 3.786587,-21.706663 L 78.466544,55.951664 C 76.238715,58.345775 79.8041,67.655702 66.41946,67.700859 53.034819,67.746011 56.561498,58.312034 54.365069,55.951664 Z m 130.196161,-2e-6 -24.99433,3.963973 c 0.17234,1.737551 -0.16973,12.234269 -0.16973,19.328273 -0.91715,7.656869 -0.0723,20.962022 0.86685,27.995622 2.05961,15.42627 3.72904,24.20665 3.72182,38.27184 33.46232,0 40.12933,1.24789 66.2958,1.12119 0,-21.75303 2.40755,-35.74092 2.40755,-41.17962 0.1979,-11.892533 0.37773,-17.332055 1.13757,-26.209032 0,-7.094004 -0.3494,-17.590722 -0.17706,-19.328273 l -24.98699,-3.963973 c -2.22784,2.394111 -6.97055,2.235656 -12.04709,2.235656 -5.83693,0.03682 -9.85796,0.124716 -12.05439,-2.235656 z"
       inkscape:connector-curvature="0"
       sodipodi:nodetypes="ccccccccccsccccccccccccc" />
    <path
       id="primary2"
       style="fill:#babdb6;stroke:#000000;stroke-width:2;stroke-linecap:round;stroke-linejoin:round;stroke-miterlimit:4;stroke-dasharray:none"
       d="m 29.976678,59.796959 c 4.038677,5.842073 7.195097,34.945535 2.259218,43.712951 -3.300515,29.05614 -11.777082,63.63539 -14.767163,87.13685 -7.17153,0.38249 -9.8107924,0.34584 -14.4503455,-1.16564 C 3.325709,152.0588 11.092508,115.43576 19.69795,80.932692 22.337969,70.842832 26.664555,59.796959 29.976678,59.796959 Z m 73.645182,0 c -4.038678,5.842073 -7.195093,34.945535 -2.25922,43.712951 3.30052,29.05614 11.77708,63.63539 14.76716,87.13685 7.17153,0.38249 9.8108,0.34584 14.45035,-1.16564 -0.30732,-37.42232 -8.07412,-74.04536 -16.67956,-108.548428 -2.64002,-10.08986 -6.96661,-21.135733 -10.27873,-21.135733 z m 56.95205,0 c 4.03867,5.842073 7.19509,34.945535 2.25921,43.712951 -3.30051,29.05614 -11.77708,63.63539 -14.76716,87.13685 -7.17153,0.38249 -9.81079,0.34584 -14.45034,-1.16564 0.30732,-37.42232 8.07412,-74.04536 16.67956,-108.548428 2.64002,-10.08986 6.9666,-21.135733 10.27873,-21.135733 z m 73.64518,0 c -4.03868,5.842073 -7.19511,34.945535 -2.25922,43.712951 3.30051,29.05614 11.77708,63.63539 14.76716,87.13685 7.17153,0.38249 9.81079,0.34584 14.45035,-1.16564 -0.30733,-37.42232 -8.07412,-74.04536 -16.67957,-108.548428 -2.64001,-10.08986 -6.9666,-21.135733 -10.27872,-21.135733 z"
       inkscape:connector-curvature="0" />
    <path
       id="path6015"
       style="fill:none;stroke:#000000;stroke-width:1;stroke-linecap:round;stroke-linejoin:round;stroke-miterlimit:4;stroke-dasharray:none;stroke-opacity:1"
       d="m 214.6639,111.41439 v 34.00309 M 52.923355,117.61556 v 28.93877 m -20.567213,-42.37464 15.192869,5.16764 m 33.479635,8.26823 v 28.9388 m 20.567214,-42.37467 -15.192865,5.16764 m 93.534345,2.06706 v 34.00309" />
  </g>
</svg>
