<?xml version="1.0" encoding="UTF-8" standalone="no"?>
<!-- Created with Inkscape (http://www.inkscape.org/) -->

<svg
   xmlns:dc="http://purl.org/dc/elements/1.1/"
   xmlns:cc="http://creativecommons.org/ns#"
   xmlns:rdf="http://www.w3.org/1999/02/22-rdf-syntax-ns#"
   xmlns:svg="http://www.w3.org/2000/svg"
   xmlns="http://www.w3.org/2000/svg"
   xmlns:sodipodi="http://sodipodi.sourceforge.net/DTD/sodipodi-0.dtd"
   xmlns:inkscape="http://www.inkscape.org/namespaces/inkscape"
   width="1000"
   height="1000"
   viewBox="0 0 264.58333 264.58334"
   version="1.1"
   id="svg562"
   inkscape:version="0.92.3 (2405546, 2018-03-11)"
   sodipodi:docname="carlton.svg">
  <defs
     id="defs556" />
  <sodipodi:namedview
     id="base"
     pagecolor="#ffffff"
     bordercolor="#666666"
     borderopacity="1.0"
     inkscape:pageopacity="0.0"
     inkscape:pageshadow="2"
     inkscape:zoom="1.4142136"
     inkscape:cx="499.22548"
     inkscape:cy="207.81033"
     inkscape:document-units="mm"
     inkscape:current-layer="layer1"
     showgrid="false"
     units="px"
     inkscape:window-width="1920"
     inkscape:window-height="1043"
     inkscape:window-x="0"
     inkscape:window-y="0"
     inkscape:window-maximized="1"
     inkscape:snap-global="false"
     showguides="false" />
  <metadata
     id="metadata559">
    <rdf:RDF>
      <cc:Work
         rdf:about="">
        <dc:format>image/svg+xml</dc:format>
        <dc:type
           rdf:resource="http://purl.org/dc/dcmitype/StillImage" />
        <dc:title />
      </cc:Work>
    </rdf:RDF>
  </metadata>
  <g
     inkscape:label="Layer 1"
     inkscape:groupmode="layer"
     id="layer1">
    <rect
       style="fill:#75507b;fill-opacity:1;stroke:#000000;stroke-width:2;stroke-miterlimit:4;stroke-dasharray:none"
       id="inside"
       width="36.455551"
       height="234.44821"
       x="46.884758"
       y="23.763041" />
    <path
       style="fill:#5c3566;fill-opacity:1;stroke:#000000;stroke-width:2;stroke-linecap:square;stroke-linejoin:round;stroke-miterlimit:4;stroke-dasharray:none;stroke-dashoffset:0;stroke-opacity:1"
       d="m 191.24517,25.745198 c 0,0.05771 5.3e-4,0.110241 0,0.167949 l -14.06322,0.377237 -18.26297,5.2002 c 2.14918,15.066533 1.41082,27.431452 -0.87592,38.353732 1.55852,17.188315 2.32116,35.218314 2.08153,54.038564 -0.25083,19.66574 -2.51608,39.79971 -3.22874,60.14051 -0.87138,24.86753 -0.1886,49.98843 -0.19482,74.1903 h 32.67655 5.69888 42.73279 c -0.006,-24.20187 0.6961,-49.32277 -0.17466,-74.1903 -0.71266,-20.3408 -2.99755,-40.47477 -3.24838,-60.14051 -0.23963,-18.82025 0.54212,-36.850249 2.10064,-54.038564 -2.28674,-10.92228 -3.04421,-23.287199 -0.89503,-38.353732 l -17.75809,-5.053438 -19.89801,-0.523999 c 0,-0.05637 5.3e-4,-0.111583 0,-0.167949 l -3.3259,0.08372 z m -142.955611,0.0036 -20.142441,5.751071 c 2.149189,15.066531 1.397392,27.422149 -0.889352,38.34443 1.55852,17.188312 2.32994,35.221411 2.090314,54.041661 -0.250833,19.66574 -2.522799,39.80127 -3.235462,60.14206 -0.871377,24.86753 -0.182395,49.98187 -0.188619,74.18307 H 64.294784 V 101.71782 C 58.908428,76.429557 48.445785,54.598209 48.289559,25.748815 Z m 36.384859,0 C 84.518192,54.598209 74.055549,76.429557 68.669193,101.71782 v 156.49329 h 38.370787 c -0.006,-24.2012 0.68276,-49.31554 -0.18862,-74.18307 -0.71266,-20.34079 -2.98515,-40.47632 -3.23598,-60.14206 -0.23963,-18.82025 0.53231,-36.853352 2.09083,-54.041664 -2.28674,-10.92228 -3.03854,-23.277899 -0.88935,-38.34443 z"
       id="primary1"
       inkscape:connector-curvature="0" />
    <path
       id="primary2"
       style="fill:#5c3566;stroke:#000000;stroke-width:2;stroke-linecap:square;stroke-linejoin:round;stroke-miterlimit:4;stroke-dasharray:none;stroke-dashoffset:0;stroke-opacity:1"
       d="m 211.42006,125.01541 a 4.6575036,5.0212755 0 0 0 4.6575,-5.02127 4.6575036,5.0212755 0 0 0 -4.65749,-5.02128 m -50.72062,0.0221 h 73.24733 m -73.56165,9.99827 h 73.40418 m 6.37786,28.8494 20.173,-0.53951 0.50042,-13.06083 c 0.17925,-3.44304 -1.16205,-4.32476 -4.3905,-3.95436 l -18.00514,0.77906 z m -85.50388,0 -20.173,-0.53951 -0.50042,-13.06083 c -0.17925,-3.44304 1.16205,-4.32476 4.3905,-3.95436 l 18.00514,0.77906 z m -130.776291,0 -20.1730009,-0.53951 -0.5004194,-13.06083 c -0.1792547,-3.44304 1.1620435,-4.32476 4.3904955,-3.95436 l 18.0051398,0.77906 z m 85.503941,0 20.173,-0.53951 0.50042,-13.06083 c 0.17925,-3.44304 -1.16205,-4.32476 -4.3905,-3.95436 l -18.00514,0.77906 z M 62.992596,12.273752 v 0.273107 c -25.870002,2.00234 -25.98826,22.439759 -26.705528,29.491565 l 12.331541,1.447402 -12.117618,6.353268 27.911327,55.234116 C 64.105469,95.208461 63.201104,83.823845 51.847684,45.749865 48.788528,35.795204 55.190659,26.1727 66.47437,25.945894 77.769284,26.170016 84.181374,35.789165 81.120351,45.749865 69.766308,83.823845 68.861943,95.208461 68.555094,105.07321 L 96.447251,49.839094 84.348803,43.485826 96.680655,42.038424 C 95.963014,34.985947 95.837909,14.525042 69.955521,12.525386 v -0.251634 c -1.211836,0 -2.357075,0.02349 -3.481151,0.06308 -1.118475,-0.03959 -2.277406,-0.06308 -3.481774,-0.06308 z"
       inkscape:connector-curvature="0" />
    <path
       id="primary3"
       style="fill:#5c3566;stroke:#000000;stroke-width:2;stroke-linecap:square;stroke-linejoin:round;stroke-miterlimit:4;stroke-dasharray:none;stroke-dashoffset:0;stroke-opacity:1"
       d="m 162.41979,6.201643 c 1.96434,12.477717 4.18012,22.363934 7.39115,21.850599 5.55254,-0.882398 13.40738,-1.316552 23.90436,-1.258843 v 0.08455 c 1.08424,-0.02416 2.09566,-0.04831 3.13136,-0.06308 1.03818,0.01476 2.06454,0.03892 3.15127,0.06308 v -0.08455 c 10.48702,-0.05704 18.33564,0.376445 23.88507,1.258843 3.21102,0.513335 5.42681,-9.372882 7.39114,-21.850599 -8.96273,1.4997417 -22.05331,1.5225566 -34.40757,1.8030452 C 184.50609,7.7235286 171.38689,7.7027268 162.41979,6.201643 Z m 71.63342,24.620592 c 14.99204,-0.550912 16.56177,16.815225 18.11282,25.002405 5.59922,29.551286 5.25191,53.49951 6.89072,81.48194 l -20.11698,1.07834 -3.77866,-34.26994 c 0.0118,-11.8389 -2.84567,-21.806311 -1.36558,-32.69571 1.07491,-11.889228 1.23674,-27.40736 0.25768,-40.597035 z m -73.44775,0 C 145.61342,30.271323 144.0437,47.63746 142.49265,55.82464 c -5.59922,29.551286 -5.25192,53.49951 -6.89073,81.48194 l 20.11698,1.07834 3.77867,-34.26994 c -0.0118,-11.8389 2.84567,-21.806311 1.36557,-32.69571 -1.0749,-11.889228 -1.23673,-27.40736 -0.25768,-40.597035 z M 27.943259,31.499971 C 12.951217,30.949059 13.267403,47.63746 11.716351,55.82464 6.1171315,85.375926 6.4644375,109.32415 4.8256262,137.30658 l 20.1169838,1.07834 3.778665,-34.26994 C 28.709449,92.27608 28.423139,80.61433 26.943043,69.724931 30.140374,56.684224 29.26962,44.068276 27.943259,31.499971 Z m 77.077101,0 c 14.99204,-0.550912 14.67585,16.137489 16.22691,24.324669 5.59922,29.551286 5.25191,53.49951 6.89072,81.48194 l -20.11698,1.07834 -3.77867,-34.26994 c 0.0118,-11.8389 0.29814,-23.50065 1.77823,-34.390049 -3.19733,-13.040707 -2.32657,-25.656655 -1.00021,-38.22496 z"
       inkscape:connector-curvature="0" />
    <path
       id="secondary"
       style="opacity:0.98000004;fill:#5c3566;stroke:#000000;stroke-width:1;stroke-linecap:square;stroke-linejoin:round;stroke-miterlimit:4;stroke-dasharray:none;stroke-dashoffset:0;stroke-opacity:1"
       d="m 185.2018,120.07886 a 0.67179769,0.72426814 0 0 1 -0.6718,0.72427 0.67179769,0.72426814 0 0 1 -0.6718,-0.72427 0.67179769,0.72426814 0 0 1 0.6718,-0.72427 0.67179769,0.72426814 0 0 1 0.6718,0.72427 z m 25.46357,0 a 0.67179769,0.72426814 0 0 1 -0.67179,0.72427 0.67179769,0.72426814 0 0 1 -0.6718,-0.72427 0.67179769,0.72426814 0 0 1 0.6718,-0.72427 0.67179769,0.72426814 0 0 1 0.67179,0.72427 z m -24.01342,-1e-5 a 2.1219649,2.2876999 0 0 1 -2.12197,2.2877 2.1219649,2.2876999 0 0 1 -2.12196,-2.2877 2.1219649,2.2876999 0 0 1 2.12196,-2.2877 2.1219649,2.2876999 0 0 1 2.12197,2.2877 z m 25.46361,0 a 2.1219649,2.2876999 0 0 1 -2.12197,2.2877 2.1219649,2.2876999 0 0 1 -2.12196,-2.2877 2.1219649,2.2876999 0 0 1 2.12196,-2.2877 2.1219649,2.2876999 0 0 1 2.12197,2.2877 z M 160.22766,61.276721 C 152.839,79.766825 152.35477,105.2262 149.53897,136.85565 m 85.19329,-75.578929 c 7.38866,18.490104 7.8729,43.949479 10.68869,75.578929 M 176.88901,124.6544 V 258.01935 M 217.75659,124.6544 V 258.01935 M 197.3228,124.6544 v 133.36495 m -0.061,-197.041906 v 53.921586 m -6.62123,-53.876627 h 13.32087 l -6.64114,-7.15917 -6.75877,7.286665 m -29.93056,71.962772 h 2.39193 c 0,6.06003 1.68425,13.43527 -3.2216,13.43192 m 3.2216,-10.55658 c 0,0.39323 0.0156,26.65783 0.0156,27.14231 0,4.38448 -1.91578,7.64365 -5.02162,8.59382 m 75.9025,-38.61147 h -3.99837 c 0,6.06003 -1.05561,13.43527 3.85024,13.43192 l 0.9081,-0.0114 m -4.75834,-10.54518 c 0,0.39323 -0.0156,26.65783 -0.0156,27.14231 0,5.24339 2.73923,8.87699 6.97786,8.87699 M 61.627024,136.58724 h -3.501069 m 3.501069,-16.23613 h -3.501069 m 3.501069,-16.11669 h -3.501069 m -14.508342,-14.172981 -6.381676,-0.369381 -1.465816,29.434822 6.381676,0.36938 z M 29.7284,133.11267 h 14.337886 c 0,6.06003 1.055612,13.43527 -3.850241,13.43192 l -11.099414,-0.0114 m 14.949655,-10.54518 c 0,0.39323 0.01556,26.65783 0.01556,27.14231 0,5.24339 -2.739236,8.87699 -6.977863,8.87699 l -9.765212,-0.0114 m 43.997883,-35.40867 h 3.501068 m -3.501068,-16.23613 h 3.501068 m -3.501068,-16.11669 h 3.501068 m 15.136673,-14.172883 6.381674,-0.369381 1.465816,29.434814 -6.381675,0.36938 z M 103.11266,133.11267 H 86.696542 c 0,6.06003 -1.055612,13.43527 3.850241,13.43192 l 13.325847,-0.0114 M 86.696542,135.98801 c 0,0.39323 -0.01556,26.65783 -0.01556,27.14231 0,5.24339 2.739236,8.87699 6.977863,8.87699 l 11.548235,-0.0114"
       inkscape:connector-curvature="0" />
  </g>
</svg>
