<?xml version="1.0" encoding="UTF-8" standalone="no"?>
<!-- Created with Inkscape (http://www.inkscape.org/) -->

<svg
   xmlns:dc="http://purl.org/dc/elements/1.1/"
   xmlns:cc="http://creativecommons.org/ns#"
   xmlns:rdf="http://www.w3.org/1999/02/22-rdf-syntax-ns#"
   xmlns:svg="http://www.w3.org/2000/svg"
   xmlns="http://www.w3.org/2000/svg"
   xmlns:sodipodi="http://sodipodi.sourceforge.net/DTD/sodipodi-0.dtd"
   xmlns:inkscape="http://www.inkscape.org/namespaces/inkscape"
   width="1000"
   height="1000"
   viewBox="0 0 264.58333 264.58334"
   version="1.1"
   id="svg562"
   inkscape:version="0.92.4 (unknown)"
   sodipodi:docname="huey.svg">
  <defs
     id="defs556" />
  <sodipodi:namedview
     id="base"
     pagecolor="#ffffff"
     bordercolor="#666666"
     borderopacity="1.0"
     inkscape:pageopacity="0.0"
     inkscape:pageshadow="2"
     inkscape:zoom="0.70710678"
     inkscape:cx="670.93456"
     inkscape:cy="584.38002"
     inkscape:document-units="mm"
     inkscape:current-layer="layer1"
     showgrid="false"
     units="px"
     inkscape:window-width="1920"
     inkscape:window-height="1043"
     inkscape:window-x="0"
     inkscape:window-y="0"
     inkscape:window-maximized="1"
     inkscape:snap-global="false"
     showguides="false" />
  <metadata
     id="metadata559">
    <rdf:RDF>
      <cc:Work
         rdf:about="">
        <dc:format>image/svg+xml</dc:format>
        <dc:type
           rdf:resource="http://purl.org/dc/dcmitype/StillImage" />
        <dc:title></dc:title>
      </cc:Work>
    </rdf:RDF>
  </metadata>
  <g
     inkscape:label="Layer 1"
     inkscape:groupmode="layer"
     id="layer1">
    <path
       id="primary1"
       style="fill:#5c3566;fill-opacity:1;stroke:#000000;stroke-width:2;stroke-linecap:round;stroke-linejoin:round;stroke-miterlimit:4;stroke-dasharray:none;stroke-opacity:1"
       d="m 187.43378,56.671042 c -11.86587,16.008589 -28.20489,32.108789 -33.64554,49.599898 -5.42235,58.86088 -2.28235,94.74161 1.03212,95.7952 h 0.16838 1.55375 v 13.71938 h 0.16819 84.47089 0.16334 v -13.71938 h 1.55986 0.16873 c 3.31358,-1.05359 6.45483,-36.93432 1.03213,-95.7952 C 238.66497,88.779831 222.32147,72.679631 210.4547,56.671042 h -0.16335 -22.69063 z M 54.788536,56.61842 22.156683,65.984967 c 0,131.826963 -3.315987,135.047533 0,136.101563 h -0.307717 v 13.72378 h 88.998614 v -13.72378 h -0.56189 c 1.84711,-0.15965 0,-7.02154 0,-136.101538 L 77.653884,56.61842 Z"
       inkscape:connector-curvature="0" />
    <path
       sodipodi:nodetypes="csszssc"
       inkscape:connector-curvature="0"
       id="inside"
       d="m 67.490038,128.81402 c -0.9575,-9.19291 9.946718,-49.818393 11.102278,-57.436355 1.098863,-7.244423 -7.263377,-3.722263 3.090393,-8.429409 15.175087,-6.89913 11.944603,-15.169442 -11.870872,-14.526981 -23.815474,0.642461 -33.518367,1.14769 -30.952235,9.99716 2.325613,8.019999 14.413612,3.474874 16.559471,7.713679 1.915256,3.783482 8.824464,13.54027 11.524076,62.440646"
       style="fill:#75507b;fill-opacity:1;stroke:#000000;stroke-width:2;stroke-linecap:butt;stroke-linejoin:miter;stroke-miterlimit:4;stroke-dasharray:none;stroke-opacity:1" />
    <path
       style="fill:#75507b;fill-opacity:1;stroke:#000000;stroke-width:2;stroke-linecap:round;stroke-linejoin:round;stroke-miterlimit:4;stroke-dasharray:none;stroke-opacity:1"
       d="m 81.682709,62.948256 c 15.175087,-6.89913 11.944603,-15.169442 -11.870872,-14.526981 -23.815474,0.642461 -33.518367,1.14769 -30.952235,9.99716 2.325613,8.019999 14.413612,3.474874 16.559471,7.713679 3.943397,-1.525194 27.182999,-1.666189 21.117134,0.04131 -0.734271,0.206687 1.807454,-2.642911 5.146502,-3.225171 z"
       id="inside2"
       inkscape:connector-curvature="0"
       sodipodi:nodetypes="czscsc" />
    <path
       id="primary2"
       style="fill:#5c3566;fill-opacity:1;stroke:#000000;stroke-width:2;stroke-linecap:round;stroke-linejoin:round;stroke-miterlimit:4;stroke-dasharray:none;stroke-dashoffset:0;stroke-opacity:1"
       d="m 187.03888,56.67088 -32.78753,9.235508 c -10.56396,3.32569 -11.65101,15.680928 -13.27962,27.521597 -5.47871,52.242685 -5.46542,119.311835 -3.59216,117.142385 h 0.86627 v 11.24966 h 11.65532 v -11.24966 h 1.2994 c 4.38807,-32.0758 9.04395,-76.99204 3.50295,-104.96209 -1.68623,-8.511777 20.70052,-34.799505 32.33537,-48.9374 z m 23.48403,0 c 11.63521,14.137895 34.0207,40.425623 32.33519,48.9374 -5.54117,27.97005 -0.88494,72.88629 3.50205,104.96209 h 1.29959 v 11.24966 h 11.65495 v -11.24966 h 0.86699 c 1.87398,2.16945 1.87937,-64.8997 -3.59898,-117.142385 -1.62807,-11.840669 -2.70866,-24.195907 -13.27226,-27.521597 z M 5.3831304,210.61671 H 17.455734 m 96.484256,-0.0204 h 13.24678 m -16.70162,-8.5035 H 21.849168 M 21.588208,65.860472 C 11.019217,69.187738 9.9315679,81.549101 8.3022398,93.395646 2.8208779,145.66353 2.8340676,212.76541 4.7083381,210.59506 h 0.1038682 v 11.25496 H 18.253024 v -11.25496 h 0.282929 c 4.390291,-32.09154 9.048381,-77.02976 3.504692,-105.01347 0.85219,-20.22084 3.282477,-26.961967 -0.452437,-39.721118 z m 88.649682,39.721118 c -5.54364,27.98371 -0.88555,72.92193 3.50456,105.01347 h 0.28298 v 11.25496 h 13.44086 v -11.25496 h 0.10373 c 1.87432,2.17035 1.88119,-64.93153 -3.60016,-117.199414 -1.62923,-11.846545 -2.71055,-24.207908 -13.27966,-27.535174 -2.28519,15.449908 0.43629,9.663407 -0.45231,39.721118 z m -44.399961,21.75765 h 2.416153 v 5.71046 h -2.416153 z"
       inkscape:connector-curvature="0" />
    <path
       style="fill:#5c3566;fill-opacity:1;stroke:#000000;stroke-width:2;stroke-linecap:square;stroke-linejoin:round;stroke-miterlimit:4;stroke-dasharray:none;stroke-dashoffset:0;stroke-opacity:1"
       d="m 169.62053,51.59799 c -6.61944,22.92929 6.08272,44.393776 34.02572,43.161783 25.66137,-0.57292 36.16932,-25.681137 27.70947,-44.095129 -21.21874,6.409255 -44.75123,2.560191 -61.73519,0.933346 z"
       id="primary3"
       sodipodi:nodetypes="cccc"
       inkscape:connector-curvature="0" />
    <path
       id="secondary"
       style="fill:none;stroke:#000000;stroke-width:1;stroke-linecap:butt;stroke-linejoin:round;stroke-miterlimit:4;stroke-dasharray:none;stroke-dashoffset:0;stroke-opacity:1"
       d="m 26.426366,202.74576 v 12.90077 m -1.925835,-12.90077 v 12.90077 m 5.777503,-12.90077 v 12.90077 m -1.925837,-12.90077 v 12.90077 m 11.555002,-12.90077 v 12.90077 m -1.925833,-12.90077 v 12.90077 m -1.925833,-12.90077 v 12.90077 M 34.1297,202.74576 v 12.90077 m -1.925835,-12.90077 v 12.90077 m 17.332501,-12.90077 v 12.90077 m -1.925832,-12.90077 v 12.90077 M 45.6847,202.74576 v 12.90077 m -1.925832,-12.90077 v 12.90077 m -1.925834,-12.90077 v 12.90077 m 17.3325,-12.90077 v 12.90077 m -1.925835,-12.90077 v 12.90077 m -1.925831,-12.90077 v 12.90077 m -1.92583,-12.90077 v 12.90077 M 51.4622,202.74576 v 12.90077 m 17.785088,-12.90077 v 12.90077 m -4.304252,-12.90077 v 12.90077 M 63.0172,202.74576 v 12.90077 m -1.925829,-12.90077 v 12.90077 m 17.936986,-12.90077 v 12.90077 m -1.956211,-12.90077 v 12.90077 m -1.956212,-12.90077 v 12.90077 m -1.956222,-12.90077 v 12.90077 m -1.956213,-12.90077 v 12.90077 m 17.605924,-12.90077 v 12.90077 m -1.956216,-12.90077 v 12.90077 m -1.95621,-12.90077 v 12.90077 m -1.95622,-12.90077 v 12.90077 m -1.956213,-12.90077 v 12.90077 m 17.605918,-12.90077 v 12.90077 m -1.956208,-12.90077 v 12.90077 M 94.67806,202.74576 v 12.90077 m -1.95622,-12.90077 v 12.90077 m -1.956211,-12.90077 v 12.90077 m 17.605921,-12.90077 v 12.90077 m -1.95621,-12.90077 v 12.90077 m -1.95621,-12.90077 v 12.90077 m -1.95621,-12.90077 v 12.90077 m -1.95622,-12.90077 v 12.90077 m 24.1951,-4.66886 v 10.37507 m -1.99635,-10.37507 v 10.37507 m -1.99636,-10.37507 v 10.37507 m -1.99635,-10.37507 v 10.37507 m -1.99635,-10.37507 v 10.37507 M 7.7499248,210.59283 H 18.740681 m 98.532109,-0.0204 h 10.92965 m -17.34433,-8.49939 H 26.331345 m -10.67359,8.90462 v 10.37507 m -2.091559,-10.37507 v 10.37507 m -2.09156,-10.37507 v 10.37507 M 9.3830764,210.97767 v 10.37507 M 7.2915169,210.97767 v 10.37507 M 160.87357,202.74576 v 12.90077 m -1.94983,-12.90077 v 12.90077 m 11.69885,-12.90077 v 12.90077 m -1.94979,-12.90077 v 12.90077 m -1.94981,-12.90077 v 12.90077 m -1.94981,-12.90077 v 12.90077 m -1.94981,-12.90077 v 12.90077 m 17.54828,-12.90077 v 12.90077 m -1.94982,-12.90077 v 12.90077 m -1.9498,-12.90077 v 12.90077 m -1.94982,-12.90077 v 12.90077 m -1.9498,-12.90077 v 12.90077 m 17.54827,-12.90077 v 12.90077 m -1.9498,-12.90077 v 12.90077 m -1.94982,-12.90077 v 12.90077 m -1.9498,-12.90077 v 12.90077 m -1.94981,-12.90077 v 12.90077 m 17.54828,-12.90077 v 12.90077 m -1.94981,-12.90077 v 12.90077 m -1.94981,-12.90077 v 12.90077 m -1.94981,-12.90077 v 12.90077 m -1.94981,-12.90077 v 12.90077 m 17.54827,-12.90077 v 12.90077 m -1.9498,-12.90077 v 12.90077 m -1.9498,-12.90077 v 12.90077 m -1.94982,-12.90077 v 12.90077 m -1.94981,-12.90077 v 12.90077 m 17.54828,-12.90077 v 12.90077 m -1.94982,-12.90077 v 12.90077 m -1.9498,-12.90077 v 12.90077 m -1.9498,-12.90077 v 12.90077 m -1.94981,-12.90077 v 12.90077 m 17.54829,-12.90077 v 12.90077 m -1.94982,-12.90077 v 12.90077 m -1.94982,-12.90077 v 12.90077 m -1.9498,-12.90077 v 12.90077 m -1.9498,-12.90077 v 12.90077 m 17.54826,-12.90077 v 12.90077 m -1.94979,-12.90077 v 12.90077 m -1.94983,-12.90077 v 12.90077 m -1.94981,-12.90077 v 12.90077 m -1.9498,-12.90077 v 12.90077 m 26.22746,-4.66886 v 10.37507 m -1.92618,-10.37507 v 10.37507 m -1.92622,-10.37507 v 10.37507 m -1.92618,-10.37507 v 10.37507 m -1.9262,-10.37507 v 10.37507 m -111.5353,-10.75991 h 12.06672 m 97.45382,-0.0204 h 11.96957 m -18.47233,-8.49939 h -84.52676 m -8.62307,8.90462 v 10.37507 m -1.92618,-10.37507 v 10.37507 m -1.92622,-10.37507 v 10.37507 m -1.92618,-10.37507 v 10.37507 m -1.9262,-10.37507 v 10.37507 M 200.36345,54.639881 v 10.923931 c 0,5.492252 -2.86817,11.683994 -1.98339,17.000168 l 1.98339,11.915697 M 79.473796,66.745111 c 3.747626,5.274482 1.540747,15.769041 3.625332,19.937882 M 53.14253,66.745111 c -0.02339,1.109504 0.06661,2.242042 -0.09534,3.338276 -0.473919,3.203281 -1.972715,10.049913 -1.049538,13.352852 1.168018,4.180536 2.612151,6.125385 1.430911,9.256211 M 80.30549,66.314568 a 0.91440731,0.8829695 0 0 1 -0.914407,0.882969 0.91440731,0.8829695 0 0 1 -0.914408,-0.882969 0.91440731,0.8829695 0 0 1 0.914408,-0.88297 0.91440731,0.8829695 0 0 1 0.914407,0.88297 z M 54.260301,66.79155 a 0.91440731,0.8829695 0 0 1 -0.914407,0.882969 0.91440731,0.8829695 0 0 1 -0.914407,-0.882969 0.91440731,0.8829695 0 0 1 0.914407,-0.88297 0.91440731,0.8829695 0 0 1 0.914407,0.88297 z M 65.726569,48.537406 c 0.05848,2.178282 0.691303,4.557608 0,6.490992 -0.691556,1.933409 -0.375779,4.479077 0,5.149503 0.375526,0.670427 0,4.896927 0,4.896927 m -26.555258,98.542082 -4.01357,31.63189 5.61737,6.79274 h 9.47051 31.298268 9.470509 l 5.617371,-6.79274 -4.01357,-31.63189 H 83.793481 47.996028 Z m 28.058631,-35.23203 v 87.8655"
       inkscape:connector-curvature="0" />
  </g>
</svg>
