<?xml version="1.0" encoding="UTF-8" standalone="no"?>
<!-- Created with Inkscape (http://www.inkscape.org/) -->

<svg
   xmlns:dc="http://purl.org/dc/elements/1.1/"
   xmlns:cc="http://creativecommons.org/ns#"
   xmlns:rdf="http://www.w3.org/1999/02/22-rdf-syntax-ns#"
   xmlns:svg="http://www.w3.org/2000/svg"
   xmlns="http://www.w3.org/2000/svg"
   xmlns:sodipodi="http://sodipodi.sourceforge.net/DTD/sodipodi-0.dtd"
   xmlns:inkscape="http://www.inkscape.org/namespaces/inkscape"
   width="1000"
   height="1000"
   viewBox="0 0 264.58333 264.58334"
   version="1.1"
   id="svg562"
   inkscape:version="0.92.4 (unknown)"
   sodipodi:docname="hugo.svg">
  <defs
     id="defs556" />
  <sodipodi:namedview
     id="base"
     pagecolor="#ffffff"
     bordercolor="#666666"
     borderopacity="1.0"
     inkscape:pageopacity="0.0"
     inkscape:pageshadow="2"
     inkscape:zoom="0.5"
     inkscape:cx="496.93121"
     inkscape:cy="189.57548"
     inkscape:document-units="mm"
     inkscape:current-layer="layer1"
     showgrid="false"
     units="px"
     inkscape:window-width="1920"
     inkscape:window-height="1043"
     inkscape:window-x="0"
     inkscape:window-y="0"
     inkscape:window-maximized="1"
     inkscape:snap-global="false"
     showguides="false" />
  <metadata
     id="metadata559">
    <rdf:RDF>
      <cc:Work
         rdf:about="">
        <dc:format>image/svg+xml</dc:format>
        <dc:type
           rdf:resource="http://purl.org/dc/dcmitype/StillImage" />
        <dc:title></dc:title>
      </cc:Work>
    </rdf:RDF>
  </metadata>
  <g
     inkscape:label="Layer 1"
     inkscape:groupmode="layer"
     id="layer1">
    <path
       id="primary1"
       style="fill:#5c3566;fill-opacity:1;stroke:#000000;stroke-width:1.58749998;stroke-linecap:round;stroke-linejoin:round;stroke-miterlimit:4;stroke-dasharray:none;stroke-opacity:1"
       d="m 55.476948,57.273978 -32.603793,9.350927 c 0,131.606855 -3.313151,134.822135 0,135.874475 h 1.724715 v 13.70084 h 84.60382 v -13.70084 h 1.72471 c 1.84548,-0.15938 0,-7.00997 0,-135.874475 L 78.322607,57.273978 Z M 187.5072,54.390575 c -11.86145,15.989665 -28.19439,32.070831 -33.63302,49.541265 -5.42033,58.7913 -2.2815,94.62961 1.03174,95.68195 h 0.16831 1.55318 v 13.70317 h 0.16813 84.43945 0.16329 v -13.70317 h 1.55927 0.16867 c 3.31234,-1.05234 6.45243,-36.89065 1.03174,-95.68195 -5.43863,-17.470434 -21.77605,-33.5516 -33.6384,-49.541265 h -0.16329 -22.68219 z"
       inkscape:connector-curvature="0" />
    <path
       id="primary2"
       style="fill:#5c3566;stroke:#000000;stroke-width:1.58749998;stroke-linecap:round;stroke-linejoin:round;stroke-miterlimit:4;stroke-dasharray:none;stroke-dashoffset:0;stroke-opacity:1"
       d="M 55.080939,57.276004 22.305247,66.500593 C 11.74526,69.822352 10.658539,82.162984 9.0306098,93.989656 3.5539588,146.17059 3.5671382,213.16045 5.4398036,210.99356 h 0.8658566 v 11.23636 H 17.956711 v -11.23636 h 1.298812 c 4.386504,-32.03788 9.040652,-76.90102 3.501718,-104.83801 -1.685635,-8.501713 20.692815,-34.758365 32.323698,-48.879546 z m 23.474035,0 c 11.630883,14.121181 34.009296,40.377833 32.323696,48.879546 -5.53893,27.93699 -0.88496,72.80013 3.50165,104.83801 h 1.29874 v 11.23636 h 11.65116 v -11.23636 h 0.86576 c 1.87275,2.16689 1.87957,-64.82297 -3.5971,-117.003904 -1.628,-11.826672 -2.70837,-24.167304 -13.26822,-27.489063 z m 108.557476,-2.88559 -32.77533,9.224589 c -10.56003,3.321759 -11.64667,15.662391 -13.27468,27.489063 -5.47667,52.180934 -5.46339,119.170794 -3.59082,117.003904 h 0.86595 v 11.23636 h 11.65098 v -11.23636 h 1.29892 c 4.38643,-32.03788 9.04058,-76.90102 3.50164,-104.83801 -1.6856,-8.501713 20.69282,-34.758365 32.32334,-48.879546 z m 23.47529,0 c 11.63088,14.121181 34.00804,40.377833 32.32316,48.879546 -5.53911,27.93699 -0.88461,72.80013 3.50075,104.83801 h 1.2991 v 11.23636 h 11.65062 v -11.23636 h 0.86666 c 1.87329,2.16689 1.87867,-64.82297 -3.59764,-117.003904 -1.62746,-11.826672 -2.70765,-24.167304 -13.26732,-27.489063 z"
       inkscape:connector-curvature="0" />
    <path
       d="m 101.06114,52.323128 -29.853432,8.893534 c 0.108378,0.105449 0.292298,0.600783 0.528432,1.266875 L 41.048697,52.552312 c 1.625309,2.118302 2.457342,4.521757 -0.01902,6.366164 -1.839733,1.37021 2.227667,3.501616 5.13144,4.513618 1.394917,0.875078 1.405144,0.992248 2.387543,1.833461 3.30068,1.909756 13.889772,4.764719 21.89502,5.290297 1.706413,0.11201 13.439394,-1.254667 15.693976,-2.890256 2.129697,-0.728114 2.982545,-2.220065 4.412092,-2.9348 5.380674,-2.690137 8.206034,-1.783925 9.530972,-3.705115 0.65493,-0.949632 -3.095229,-1.435841 0.55391,-4.284434 1.03444,-0.807486 0.42651,-2.352111 0.42651,-4.418119 z m -29.853432,8.893534 c -0.03732,-0.03639 -0.06944,-0.03367 -0.08918,0.02547 z"
       id="primary3"
       style="fill:#5c3566;stroke:#000000;stroke-width:1.58749998;stroke-linecap:round;stroke-linejoin:round;stroke-miterlimit:4;stroke-dasharray:none;stroke-dashoffset:0;stroke-opacity:1"
       inkscape:connector-curvature="0" />
    <path
       d="m 63.326628,69.126178 c 7.167832,-7.162786 13.077476,-5.959105 22.57274,-10.116595 6.708483,-3.912332 9.481808,-0.12646 15.113332,-6.816715 0.3795,-1.138462 0.40444,-3.085969 -0.58137,-3.391094 -4.845959,-4.883352 -57.301025,-6.296569 -59.38999,3.440125 4.560483,10.714151 18.609053,8.499794 29.104301,11.89282"
       id="primary4"
       style="fill:#5c3566;stroke:#000000;stroke-width:1.58749998;stroke-linecap:round;stroke-linejoin:round;stroke-miterlimit:4;stroke-dasharray:none;stroke-dashoffset:0;stroke-opacity:1"
       inkscape:connector-curvature="0" />
    <path
       d="M 84.487226,59.411731 C 70.172377,55.853823 63.545716,58.166368 54.406448,60.97812 l 15.903734,3.118062 z"
       id="inside"
       style="fill:#75507b;fill-opacity:1;stroke:#000000;stroke-width:1.49831867;stroke-linecap:round;stroke-linejoin:round;stroke-miterlimit:4;stroke-dasharray:none;stroke-dashoffset:0;stroke-opacity:1"
       inkscape:connector-curvature="0" />
    <path
       id="primary5"
       style="fill:#5c3566;fill-opacity:1;stroke:#000000;stroke-width:1.58749998;stroke-linecap:square;stroke-linejoin:round;stroke-miterlimit:4;stroke-dasharray:none;stroke-dashoffset:0;stroke-opacity:1"
       d="m 169.70058,49.32352 c -6.61697,22.902185 6.08046,44.341296 34.01306,43.110759 25.65182,-0.572243 36.15586,-25.650778 27.69916,-44.043002 -21.21084,6.401678 -44.73458,2.557165 -61.71222,0.932243 z M 6.1140194,211.016 H 18.176248 m 97.417562,-0.0204 h 11.96511 m -18.46545,-8.48934 H 24.598155 m 113.547685,5.62412 h 12.06222 m 97.41756,-0.0204 h 11.96511 m -18.46545,-8.48934 h -84.49531"
       inkscape:connector-curvature="0" />
    <path
       id="secondary"
       style="fill:none;stroke:#000000;stroke-width:1;stroke-linecap:butt;stroke-linejoin:miter;stroke-miterlimit:4;stroke-dasharray:none;stroke-opacity:1"
       d="m 67.087236,202.75635 v 13.36146 m -40.66087,-12.99788 v 12.90077 m -1.925835,-12.90077 v 12.90077 m 5.777503,-12.90077 V 216.0207 M 28.352197,203.11993 V 216.0207 M 39.907199,203.11993 V 216.0207 M 37.981366,203.11993 V 216.0207 M 36.055533,203.11993 V 216.0207 M 34.1297,203.11993 V 216.0207 M 32.203865,203.11993 V 216.0207 M 49.536366,203.11993 V 216.0207 M 47.610534,203.11993 V 216.0207 M 45.6847,203.11993 v 12.90077 m -1.925832,-12.90077 v 12.90077 m -1.925834,-12.90077 v 12.90077 m 17.3325,-12.90077 v 12.90077 m -1.925835,-12.90077 v 12.90077 m -1.925831,-12.90077 v 12.90077 m -1.92583,-12.90077 V 216.0207 M 51.4622,203.11993 V 216.0207 M 69.247288,203.11993 V 216.0207 M 64.943036,203.11993 V 216.0207 M 63.0172,203.11993 v 12.90077 m -1.925829,-12.90077 v 12.90077 m 17.936986,-12.90077 v 12.90077 m -1.956211,-12.90077 v 12.90077 m -1.956212,-12.90077 v 12.90077 m -1.956222,-12.90077 v 12.90077 m -1.956213,-12.90077 v 12.90077 m 17.605924,-12.90077 v 12.90077 m -1.956216,-12.90077 v 12.90077 m -1.95621,-12.90077 v 12.90077 m -1.95622,-12.90077 V 216.0207 M 80.984564,203.11993 V 216.0207 M 98.590482,203.11993 V 216.0207 M 96.634274,203.11993 V 216.0207 M 94.67806,203.11993 v 12.90077 m -1.95622,-12.90077 v 12.90077 m -1.956211,-12.90077 v 12.90077 m 17.605921,-12.90077 v 12.90077 m -1.95621,-12.90077 v 12.90077 m -1.95621,-12.90077 v 12.90077 m -1.95621,-12.90077 v 12.90077 m -1.95622,-12.90077 v 12.90077 m 24.1951,-4.66886 v 10.37507 m -1.99635,-10.37507 v 10.37507 m -1.99636,-10.37507 v 10.37507 m -1.99635,-10.37507 v 10.37507 m -1.99635,-10.37507 v 10.37507 M 7.7499248,210.967 H 18.740681 m 98.532109,-0.0204 h 10.92965 m -17.34433,-8.49939 H 26.331345 m -10.67359,8.90462 v 10.37507 m -2.091559,-10.37507 v 10.37507 m -2.09156,-10.37507 V 221.7269 M 9.3830764,211.35184 v 10.37507 M 7.2915169,211.35184 v 10.37507 M 160.87357,200.05315 v 12.90077 m -1.94983,-12.90077 v 12.90077 m 11.69885,-12.90077 v 12.90077 m -1.94979,-12.90077 v 12.90077 m -1.94981,-12.90077 v 12.90077 m -1.94981,-12.90077 v 12.90077 m -1.94981,-12.90077 v 12.90077 m 17.54828,-12.90077 v 12.90077 m -1.94982,-12.90077 v 12.90077 m -1.9498,-12.90077 v 12.90077 m -1.94982,-12.90077 v 12.90077 m -1.9498,-12.90077 v 12.90077 m 17.54827,-12.90077 v 12.90077 m -1.9498,-12.90077 v 12.90077 m -1.94982,-12.90077 v 12.90077 m -1.9498,-12.90077 v 12.90077 m -1.94981,-12.90077 v 12.90077 m 17.54828,-12.90077 v 12.90077 m -1.94981,-12.90077 v 12.90077 m -1.94981,-12.90077 v 12.90077 m -1.94981,-12.90077 v 12.90077 m -1.94981,-12.90077 v 12.90077 m 17.54827,-12.90077 v 12.90077 m -1.9498,-12.90077 v 12.90077 m -1.9498,-12.90077 v 12.90077 m -1.94982,-12.90077 v 12.90077 m -1.94981,-12.90077 v 12.90077 m 17.54828,-12.90077 v 12.90077 m -1.94982,-12.90077 v 12.90077 m -1.9498,-12.90077 v 12.90077 m -1.9498,-12.90077 v 12.90077 m -1.94981,-12.90077 v 12.90077 m 17.54829,-12.90077 v 12.90077 m -1.94982,-12.90077 v 12.90077 m -1.94982,-12.90077 v 12.90077 m -1.9498,-12.90077 v 12.90077 m -1.9498,-12.90077 v 12.90077 m 17.54826,-12.90077 v 12.90077 m -1.94979,-12.90077 v 12.90077 m -1.94983,-12.90077 v 12.90077 m -1.94981,-12.90077 v 12.90077 m -1.9498,-12.90077 v 12.90077 m 26.22746,-4.66886 v 10.37507 m -1.92618,-10.37507 v 10.37507 m -1.92622,-10.37507 v 10.37507 m -1.92618,-10.37507 v 10.37507 m -1.9262,-10.37507 v 10.37507 m -111.5353,-10.75991 h 12.06672 m 97.45382,-0.0204 h 11.96957 m -18.47233,-8.49939 h -84.52676 m -8.62307,8.90462 v 10.37507 m -1.92618,-10.37507 v 10.37507 m -1.92622,-10.37507 v 10.37507 m -1.92618,-10.37507 v 10.37507 m -1.9262,-10.37507 v 10.37507 M 210.62322,51.661826 c 0,5.00395 1.16811,9.75867 0,15.01185 -1.34934,6.07434 -0.86667,10.51532 0,13.11712 0.64236,1.92845 0.13636,7.3393 0,11.3683 m -19.40215,-39.49727 c 0,5.00395 1.98094,10.0079 0,15.01185 -2.33983,5.90959 -2.19986,10.2932 0,13.11712 1.24885,1.60432 0.13636,7.3393 0,11.3683 M 81.959849,45.394736 v 13.40865 M 59.494954,45.831976 v 13.99162 M 39.873227,155.92238 c -1.143171,10.75859 -0.587644,23.57345 -4.01016,31.57911 l 5.612502,6.7814 h 9.462428 31.271321 9.462428 l 5.612502,-6.7814 c -3.422516,-8.00566 -2.866989,-20.82052 -4.010161,-31.57911 H 84.457082 48.690233 Z"
       inkscape:connector-curvature="0" />
  </g>
</svg>
