<?xml version="1.0" encoding="UTF-8" standalone="no"?>
<!-- Created with Inkscape (http://www.inkscape.org/) -->

<svg
   width="1000"
   height="1000"
   viewBox="0 0 264.58332 264.58334"
   version="1.1"
   id="svg5"
   xml:space="preserve"
   xmlns="http://www.w3.org/2000/svg"
   xmlns:svg="http://www.w3.org/2000/svg"><defs
     id="defs2" /><g
     id="layer5"><path
       style="opacity:1;fill:#6600ff;fill-opacity:1;fill-rule:evenodd;stroke:#000000;stroke-width:0.172405;stroke-dasharray:none;stroke-opacity:1"
       d="m 92.2308,27.443457 c -3.43e-4,-1.069472 -0.03662,-2.372982 -0.08052,-2.896687 l -0.07983,-0.952193 18.0587,0.06376 c 9.9323,0.03506 26.06678,0.0926 35.8544,0.127867 l 17.79567,0.06411 v 2.616932 c 0,1.439312 0.27661,2.685281 0.31723,2.768821 0.0672,0.138293 -3.3788,0.15189 -36.01724,0.15189 H 92.231431 Z"
       id="path10315" /><path
       style="fill:#e5d5ff;fill-rule:evenodd;stroke:#000000;stroke-width:0.975271;stroke-opacity:0"
       d="m 84.296644,243.21412 c -7.246251,-2.84961 -12.825586,-9.65553 -15.48335,-18.88726 -1.377281,-4.78399 -1.440944,-6.73666 -1.694013,-51.95813 l -0.26295,-46.98732 14.550694,-44.812881 c 8.00288,-24.647085 15.012547,-46.09618 15.577041,-47.66466 L 98.0104,30.052087 h 12.34102 12.34099 v 55.695086 c 0,59.702437 -0.0476,58.860207 3.37879,59.718427 1.99785,0.5004 4.03534,-0.11031 5.05393,-1.51483 0.66872,-0.92211 0.902,-13.70336 1.05021,-57.54205 l 0.19054,-56.356633 12.88764,2.37e-4 12.88764,2.38e-4 15.35498,47.393653 15.35499,47.393665 -0.0417,44.27051 c -0.044,46.67636 -0.25333,50.48834 -3.21651,58.56064 -2.11621,5.765 -4.43087,9.34714 -8.04965,12.45749 -5.45266,4.68661 -2.977,4.46072 -49.03702,4.47424 l -40.648108,0.0119 z"
       id="path15021" /><path
       style="fill:#e5d5ff;fill-rule:evenodd;stroke:#000000;stroke-width:0.975271;stroke-opacity:0"
       d="m 84.476321,243.04024 c -6.807274,-3.08139 -11.820436,-8.81648 -14.848977,-16.98732 -1.437473,-3.87821 -1.49068,-5.22068 -2.063062,-52.05444 L 66.97675,125.92492 76.159089,97.679378 C 81.209372,82.144329 88.226269,60.572941 91.752199,49.742961 L 98.16297,30.052087 h 12.26473 12.26471 v 55.545424 c 0,34.716309 0.2534,56.242699 0.67575,57.404839 0.37167,1.02267 1.0686,2.05618 1.54874,2.29668 1.60546,0.80417 4.43185,0.46573 5.75666,-0.68931 1.26916,-1.10653 1.31746,-2.9632 1.50461,-57.850426 l 0.19336,-56.707207 h 12.6639 12.66388 l 1.02807,2.851782 c 0.56545,1.56848 7.59503,23.140169 15.62129,47.93709 l 14.5932,45.085301 -0.39392,44.27052 c -0.2286,25.68966 -0.69988,46.25913 -1.12288,49.00858 -0.75119,4.88264 -3.37157,12.25866 -5.56671,15.66955 -1.70242,2.64527 -5.88222,6.53024 -8.38718,7.79558 -2.75555,1.39192 -16.63658,1.8644 -55.9412,1.90411 l -29.597974,0.0299 z"
       id="path15161" /><path
       style="fill:#e5d5ff;fill-rule:evenodd;stroke:#000000;stroke-width:0.243818;stroke-opacity:0"
       d="m 85.349715,243.55696 c -3.078408,-1.25074 -4.264744,-1.89873 -6.256299,-3.4173 -4.464414,-3.40413 -7.890691,-8.53928 -9.886391,-14.81726 -1.22792,-3.86276 -1.430528,-5.80158 -1.666529,-15.94757 -0.142677,-6.13393 -0.514162,-53.39111 -0.515873,-65.62493 l -4.71e-4,-3.49682 h 28.036869 28.036859 l 0.11014,0.78084 c 0.14663,1.03934 0.60219,2.71518 0.88154,3.24293 0.70645,1.33455 3.57773,1.82265 5.4979,0.93461 1.36064,-0.62925 1.60617,-1.02629 1.92616,-3.11466 l 0.28251,-1.84372 28.48774,-1e-5 28.48775,-2e-5 -0.0422,27.05799 c -0.0416,26.65856 -0.22254,41.46569 -0.56809,46.49482 -0.48996,7.13091 -1.25583,10.62301 -3.51053,16.00673 -1.97714,4.72097 -4.00191,7.53625 -7.77818,10.81491 -2.27815,1.97796 -3.18858,2.47703 -5.40143,2.96095 -3.86066,0.84427 -9.76162,0.95583 -50.32747,0.9514 l -33.383766,-0.003 -2.410212,-0.97925 z"
       id="path15186" /><path
       style="fill:#e5d5ff;fill-rule:evenodd;stroke:#000000;stroke-width:0.243818;stroke-opacity:0"
       d="m 126.87831,244.58078 c 4.10049,-0.0202 10.76004,-0.0202 14.79898,1e-5 4.03896,0.0203 0.68402,0.0369 -7.45543,0.0369 -8.13943,0 -11.44403,-0.0166 -7.34355,-0.0369 z"
       id="path15188" /><path
       style="fill:#e5d5ff;fill-rule:evenodd;stroke:#000000;stroke-width:0.243818;stroke-opacity:0"
       d="m 85.143505,243.48246 c -2.933916,-1.19592 -4.004256,-1.78312 -5.963994,-3.27189 -4.463918,-3.39113 -7.758832,-8.23762 -9.838857,-14.47195 -1.597622,-4.78847 -1.855744,-8.49634 -1.956889,-28.11042 -0.02426,-4.70544 -0.06685,-8.76923 -0.09464,-9.03064 -0.02779,-0.26141 -0.109761,-13.69025 -0.182164,-29.84186 L 66.975323,129.38914 H 94.852012 122.7287 l 0.10973,0.91665 c 0.0603,0.50416 0.11234,2.07772 0.11563,3.49683 0.0143,6.23258 0.44038,9.5529 1.38297,10.77607 0.38403,0.49833 1.42633,0.94495 2.46834,1.05766 1.54869,0.16752 3.5429,-0.52319 4.13958,-1.43375 0.61408,-0.93713 1.11679,-6.03523 1.12593,-11.41848 0.003,-1.53114 0.0514,-2.92138 0.1085,-3.08943 l 0.1037,-0.30555 h 28.28382 28.28382 l -0.0897,32.82944 c -0.0885,32.35631 -0.25404,46.64113 -0.59939,51.70551 -0.47299,6.93651 -1.27422,10.56369 -3.50836,15.88234 -2.0329,4.8396 -3.92434,7.47236 -7.78468,10.83581 -2.55646,2.22741 -3.75965,2.77421 -7.1119,3.23205 -4.01044,0.54775 -6.07538,0.57666 -44.74111,0.62659 l -37.255607,0.0481 z"
       id="path15190" /></g><g
     id="layer1"><g
       id="layer3"
       style="display:inline"><path
         style="opacity:1;fill:#6600ff;fill-opacity:1;fill-rule:evenodd;stroke:#000000;stroke-width:0.514211;stroke-dasharray:none;stroke-opacity:1"
         d="m 123.62483,29.53199 c -0.0811,36.585611 -0.28392,73.17094 -0.26362,92.02377 0.0203,18.85284 0.14197,19.97309 0.48684,20.90135 0.34488,0.92827 0.91271,1.66444 1.70373,2.14443 0.79101,0.48 1.80499,0.70406 2.77824,0.49595 0.97324,-0.20811 1.9061,-0.84827 2.51448,-2.1925 0.60837,-1.34423 0.89228,-3.3927 1.05453,-22.43791 0.16226,-19.04519 -0.0406,-54.605544 3e-5,-90.647016 z"
         id="path7068" /><path
         style="opacity:1;fill:none;fill-opacity:1;fill-rule:evenodd;stroke:#000000;stroke-width:0.514211;stroke-dasharray:none;stroke-opacity:1"
         d="m 164.02253,29.628015 c -1.8654,0.032 -3.73116,0.06401 -14.84479,0.08002 -11.11362,0.01601 -31.4743,0.01601 -42.54718,6e-6 -11.072882,-0.016 -12.857484,-0.04801 -14.64249,-0.08003"
         id="path7177" /></g><g
       id="fs-part-pocket"
       transform="matrix(0.49091318,0,0,0.53923356,66.628187,29.712816)"
       style="fill:none;stroke:#000000;stroke-opacity:1"><path
         id="fs-1"
         d="M 62.5,0 0,175 V 335.71 C 0,400 50,400 50,400 h 150 c 50,0 50,-64.29 50,-64.29 V 175 L 187.5,0 Z"
         style="fill:none;stroke:#000000;stroke-opacity:1" /><path
         class="path fabric dashed"
         id="fs-2"
         d="M 125,0 V 210"
         style="fill:none;stroke:#000000;stroke-opacity:1" /><path
         class="fabric sa"
         id="fs-5"
         d="M 51.592815,-0.33271044 -9.42,171.64 -10,175 v 160.71 c 0,38.25 15.33,56.17 29.72,65.19 14.22,8.91 28.43,9.02 29.78,9.09 h 0.02 L 200,410 c 24.79,0 39.47,-12.58 48.19,-27.64 2.06,-3.55 3.77,-7.26 5.18,-10.96 6.52,-17.09 6.59,-34.17 6.63,-35.41 V 335.97 175 L 259.42,171.64 198.65505,-0.51078629 198.40603,-11.424607 51.346109,-11.958834 Z"
         style="fill:none;stroke:#000000;stroke-opacity:1" /></g></g><g
     id="layer4"><path
       style="opacity:1;fill:#b496e3;fill-opacity:1;fill-rule:evenodd;stroke:#000000;stroke-width:0.514211;stroke-dasharray:none;stroke-opacity:1"
       d="m 91.501349,23.962571 c 0.04088,1.536677 0.08148,3.073069 0.121666,4.609174 C 74.871792,26.427442 41.369252,19.929543 41.369252,19.929543 v -4.89725 z"
       id="path11943" /><path
       style="opacity:1;fill:#aa87de;fill-opacity:1;fill-rule:evenodd;stroke:#000000;stroke-width:0.514211;stroke-dasharray:none;stroke-opacity:1"
       d="m 164.14421,24.634741 58.40632,11.426913 v 4.321101 L 164.38757,28.66777 Z"
       id="path11945" /></g><style
     type="text/css"
     id="style9"><![CDATA[ 
text.title-nr{font-size:24pt;font-weight:700;text-anchor:middle;dominant-baseline:reset-size}text.title-name{font-size:7pt;font-weight:500;text-anchor:middle;dominant-baseline:reset-size}text.title-pattern{font-size:4pt;font-weight:500;dominant-baseline:reset-size;text-anchor:middle;font-style:italic}
  /* Sample classes */
  svg.freesewing path.sample {
    stroke-width: 0.75
  }
  svg.freesewing path.sample-focus {
    stroke-width: 1.5; fill: rgba(0,0,0,0.1)
  }

  /* Paperless grid */
  svg.freesewing path.grid {
    fill: none;
    stroke: #555;
    stroke-width: 0.3;
  }
  svg.freesewing path.gridline {
    stroke: #555;
    stroke-width: 0.2;
  }
  svg.freesewing path.gridline-lg {
    stroke: #777;
    stroke-width: 0.2;
    stroke-dasharray: 1.5,1.5;
  }
  svg.freesewing path.gridline-sm {
    stroke: #999;
    stroke-width: 0.1;
  }
  svg.freesewing path.gridline-xs {
    stroke: #999;
    stroke-width: 0.1;
    stroke-dasharray: 0.5,0.5;
  }
  svg.freesewing path.gridbox {
    fill: url(#grid);
  }

  /* Reset */
  svg.freesewing path,
  svg.freesewing circle,
  svg.freesewing rect {
    fill: none;
    stroke: none;
  }

  /* Defaults */
  svg.freesewing path,
  svg.freesewing circle {
    stroke: #000;
    stroke-opacity: 1;
    stroke-width: 0.3;
    stroke-linecap: round;
    stroke-linejoin: round;
  }

  /* Stroke classes */
  svg.freesewing .fabric {
    stroke-width: 0.6;
    stroke: #212121;
  }
  svg.freesewing .lining {
    stroke-width: 0.6;
    stroke: #ff5b77;
  }
  svg.freesewing .interfacing {
    stroke-width: 0.6;
    stroke: #64b5f6;
  }
  svg.freesewing .canvas {
    stroke-width: 0.6;
    stroke: #ff9000;
  }
  svg.freesewing .various {
    stroke-width: 0.6;
    stroke: #4caf50;
  }
  svg.freesewing .note {
    stroke-width: 0.4;
    stroke: #dd60dd;
  }
  svg.freesewing .mark {
    stroke-width: 0.4;
    stroke: blue;
  }
  svg.freesewing .contrast {
    stroke-width: 0.8;
    stroke: red;
  }
  svg.freesewing .stroke-xs {
    stroke-width: 0.1;
  }
  svg.freesewing .stroke-sm {
    stroke-width: 0.2;
  }
  svg.freesewing .stroke-lg {
    stroke-width: 0.6;
  }
  svg.freesewing .stroke-xl {
    stroke-width: 1;
  }
  svg.freesewing .stroke-xxl,
  svg.freesewing .stroke-2xl {
    stroke-width: 2;
  }
  svg.freesewing .stroke-3xl {
    stroke-width: 3;
  }
  svg.freesewing .stroke-4xl {
    stroke-width: 4;
  }

  svg.freesewing .sa {
    stroke-dasharray: 0.4, 0.8;
  }
  svg.freesewing .help {
    stroke-width: 0.2;
    stroke-dasharray: 15, 1.5, 1, 1.5;
  }
  svg.freesewing .dotted {
    stroke-dasharray: 0.4, 0.8;
  }
  svg.freesewing .dashed {
    stroke-dasharray: 1, 1.5;
  }
  svg.freesewing .lashed {
    stroke-dasharray: 6, 6;
  }
  svg.freesewing .hidden {
    stroke: none;
    fill: none;
  }

  /* Fill classes */
  svg.freesewing .fill-fabric {
    fill: #212121;
  }
  svg.freesewing .fill-lining {
    fill: #ff5b77;
  }
  svg.freesewing .fill-interfacing {
    fill: #64b5f6;
  }
  svg.freesewing .fill-canvas {
    fill: #ff9000;
  }
  svg.freesewing .fill-various {
    fill: #4caf50;
  }
  svg.freesewing .fill-note {
    fill: #dd69dd;
  }
  svg.freesewing .fill-mark {
    fill: blue;
  }
  svg.freesewing .fill-contrast {
    fill: red;
  }

  /* Text */
  svg.freesewing text {
    font-size: 5px;
    font-family: -apple-system, system-ui, BlinkMacSystemFont, 'Segoe UI', Roboto, 'Helvetica Neue',
      Arial, sans-serif;
    fill: #000;
    text-anchor: start;
    font-weight: 200;
    dominant-baseline: ideographic;
  }
  svg.freesewing .text-xs {
    font-size: 3px;
  }
  svg.freesewing .text-sm {
    font-size: 4px;
  }
  svg.freesewing .text-lg {
    font-size: 7px;
  }
  svg.freesewing .text-xl {
    font-size: 9px;
  }
  svg.freesewing .text-xxl {
    font-size: 12px;
  }

  svg.freesewing .center {
    text-anchor: middle;
  }
  svg.freesewing .right {
    text-anchor: end;
  }

  /* Bartack */
  svg.freesewing path.bartack {
    stroke-width: 2;
    stroke: #fd7e14;
    stroke-linecap: butt;
  }

]]></style><path
     style="opacity:1;fill:#6600ff;fill-opacity:1;fill-rule:evenodd;stroke:#000000;stroke-width:0.514211;stroke-dasharray:none;stroke-opacity:0"
     d="M 92.10975,29.724039 C 82.091812,60.548184 62.054836,123.15586 62.054836,123.15586 l -0.121681,91.70338 1.338479,10.37064 c 1.110089,2.96495 1.865756,5.72947 2.676955,7.87401 l 3.163675,5.4734 3.407036,3.937 3.407034,2.88074 4.380474,2.68868 5.353911,1.82446 5.84063,0.7682 13.263091,-0.19206 17.03518,0.096 30.29828,-1e-5 15.20998,1e-5 4.98888,-0.96024 4.7455,-1.63242 3.65041,-2.59266 3.52871,-3.26483 3.40704,-5.08929 2.43359,-4.89726 1.8252,-5.66544 1.09512,-5.0893 0.85175,-6.14556 0.24336,-8.45016 -0.12166,-83.63732 L 183.49131,90.891598 164.02254,29.33991 c -1.78464,0.192049 0.61559,-0.04686 -4.98888,0.480122 l 30.54165,93.911948 v 87.86239 l -0.48672,6.43365 -1.09512,4.99327 -1.33848,4.03303 -1.94687,5.37737 -2.19023,3.74495 -2.19025,2.97676 -3.65039,2.97676 -3.04201,1.82446 -7.05743,1.63242 -30.05491,-0.096 -40.276021,0.096 -6.935747,-0.19203 -5.353916,-1.44038 -4.745512,-2.49663 -4.258794,-3.26483 -3.163676,-4.32111 -2.311916,-4.60917 -1.825197,-5.56942 -0.973439,-5.56942 -0.36504,-7.00979 0.12168,-86.90214 11.437902,-35.241 19.225417,-59.343127 z"
     id="path12709" /></svg>
