<?xml version="1.0" encoding="UTF-8" standalone="no"?>
<!-- Created with Inkscape (http://www.inkscape.org/) -->

<svg
   width="375.99097mm"
   height="754.86261mm"
   viewBox="0 0 375.99096 754.86261"
   version="1.1"
   id="svg882"
   inkscape:version="1.1 (c68e22c387, 2021-05-23)"
   sodipodi:docname="lunetius.svg"
   inkscape:export-filename="C:\Users\Natalia\Dropbox\Projects\Drawing\Technical Flats\tiberius-and-walburga-2.png"
   inkscape:export-xdpi="96"
   inkscape:export-ydpi="96"
   xmlns:inkscape="http://www.inkscape.org/namespaces/inkscape"
   xmlns:sodipodi="http://sodipodi.sourceforge.net/DTD/sodipodi-0.dtd"
   xmlns="http://www.w3.org/2000/svg"
   xmlns:svg="http://www.w3.org/2000/svg">
  <sodipodi:namedview
     id="namedview884"
     pagecolor="#ffffff"
     bordercolor="#666666"
     borderopacity="1.0"
     inkscape:pageshadow="2"
     inkscape:pageopacity="0.0"
     inkscape:pagecheckerboard="0"
     inkscape:document-units="mm"
     showgrid="false"
     inkscape:zoom="0.1767767"
     inkscape:cx="-410.12193"
     inkscape:cy="1298.248"
     inkscape:window-width="1920"
     inkscape:window-height="1001"
     inkscape:window-x="-9"
     inkscape:window-y="-9"
     inkscape:window-maximized="1"
     inkscape:current-layer="layer10" />
  <defs
     id="defs879" />
  <g
     inkscape:groupmode="layer"
     id="layer12"
     inkscape:label="lunetius inside"
     style="display:inline">
    <path
       style="fill:#adb5bd;fill-opacity:1;stroke:#343a40;stroke-width:2;stroke-linecap:butt;stroke-linejoin:miter;stroke-miterlimit:4;stroke-dasharray:none;stroke-opacity:1"
       d="m 162.27703,36.091492 c 0,0 -2.04981,-12.077848 0.55306,-20.267145 2.32558,-7.3168611 6.66337,-13.2573229 22.78903,-14.8219549 16.12566,-1.56463206 44.0392,4.9507324 68.64546,20.9580239 v 0 c 15.34584,14.816666 -9.26042,46.831249 -9.26042,46.831249 C 203.2,67.997915 162.27703,36.091491 162.27703,36.091491 Z"
       id="path2886"
       sodipodi:nodetypes="cssccccc" />
    <path
       style="display:inline;fill:#adb5bd;fill-opacity:1;stroke:#343a40;stroke-width:2;stroke-linecap:butt;stroke-linejoin:miter;stroke-miterlimit:4;stroke-dasharray:none;stroke-opacity:1"
       d="m 374.95977,361.50246 c 0,0 -31.15047,36.59655 -33.39554,40.52541 0,0 16.27671,145.18079 28.25037,173.61828 0,0 -12.58191,0.83027 -15.62461,5.32819 0,0 -4.8948,5.55625 -2.77813,26.59062 0,0 -12.83229,17.99167 -11.24479,33.4698 0,0 -41.40729,33.46979 -62.30938,31.75 0,0 0.66146,-8.99584 -9.12812,-4.7625 0,0 -10.71563,5.95312 -33.20521,0.66145 0,0 -1.5875,-41.27501 -5.55625,-48.15417 0,0 -30.53159,-13.80099 -41.19565,-11.55592 0,0 -0.56126,-124.03979 37.23065,-141.25194 0,0 -37.79191,-91.67345 77.08053,-104.02131 L 281.43157,79.143467 374.95977,361.50245"
       id="path1471-3"
       sodipodi:nodetypes="ccccccccccccccc" />
  </g>
  <g
     inkscape:groupmode="layer"
     id="layer10"
     inkscape:label="lunetius primary"
     style="display:inline;opacity:1"
     transform="translate(-92.29439,8.0191393)">
    <path
       style="display:inline;fill:#dee2e6;fill-opacity:1;stroke:#343a40;stroke-width:2;stroke-linecap:butt;stroke-linejoin:miter;stroke-miterlimit:4;stroke-dasharray:none;stroke-opacity:1"
       d="m 151.24322,732.07572 c 0,0 2.37747,-23.22597 5.48646,-29.44395 0,0 62.54557,-37.30788 78.82204,-31.0899 0,0 -0.73153,-8.0468 -2.37746,-11.33867 0,0 3.29187,0.36576 17.008,-12.98458 0,0 6.29469,-21.26107 11.10301,-24.98287 20.06056,-15.67457 37.90931,-44.32934 37.90931,-44.32934 0,0 6.58374,-27.79803 -3.65764,-57.24199 0,0 1.82882,-16.45936 1.28018,-26.33498 0,0 23.0431,-27.98091 34.74753,-33.46736 0,0 1.64594,-63.82574 3.65764,-68.58067 0,0 4.38916,-8.22968 12.07019,-11.88732 0,0 44.40854,-16.23757 59.92659,-18.17733 0,0 -11.76785,-55.21833 -7.62971,-65.56367 0,0 -16.03532,-212.855701 -25.8634,-225.528761 22.45062,35.172661 32.36426,222.746121 32.36426,222.746121 3.43959,21.43125 39.6875,34.13125 39.6875,34.13125 21.69583,6.87917 21.47644,25.48162 21.47644,25.48162 C 454.02499,195.2625 420.92665,62.589401 420.92665,62.589401 397.83317,53.457976 361.12108,36.438294 357.71667,37.207032 c 1.19062,-7.524089 0.26458,-16.304949 -8.20209,-21.332032 8.20209,21.332032 -12.21603,44.897526 -12.21603,44.897526 0.49392,2.370814 -52.43753,-6.023045 -82.72713,-32.700174 0,0 -12.9846,0.09144 -14.81342,13.44181 0,0 -35.75338,16.367919 -38.40517,20.482759 0,0 -13.80757,70.592369 -14.17334,74.615759 0,0 -4.1876,91.11713 -2.37716,99.65205 0,0 -5.31042,48.23254 -5.05178,53.66385 0,0 -63.3653,247.51263 -60.77896,329.7582 0,0 -29.194829,86.3524 -25.315104,118.02976 0.09485,0.7744 0.209457,1.51612 0.344744,2.2231 0,0 37.125,17.55664 57.24199,-7.86392 z"
       id="path10367"
       sodipodi:nodetypes="cccccccccccccccccccccccccccccscc" />
  </g>
  <g
     inkscape:groupmode="layer"
     id="layer11"
     inkscape:label="lunetius secondary"
     style="display:inline;opacity:1">
    <path
       style="fill:none;stroke:#343a40;stroke-width:1;stroke-linecap:butt;stroke-linejoin:miter;stroke-miterlimit:4;stroke-dasharray:none;stroke-opacity:1"
       d="m 239.27026,468.88122 c 0,0 -22.99576,-43.06742 -41.70463,-49.05426 0,0 40.78533,-211.78436 44.15293,-224.88057 0,0 33.67596,-107.014716 31.4309,-114.498262"
       id="path8824" />
    <path
       style="fill:none;stroke:#343a40;stroke-width:1;stroke-linecap:butt;stroke-linejoin:miter;stroke-miterlimit:4;stroke-dasharray:none;stroke-opacity:1"
       d="m 64.435288,710.6509 c 0,0 60.539942,-428.5212 69.520192,-443.48828"
       id="path8826" />
    <path
       style="fill:none;stroke:#343a40;stroke-width:1;stroke-linecap:butt;stroke-linejoin:miter;stroke-miterlimit:4;stroke-dasharray:none;stroke-opacity:1"
       d="m 140.87987,668.22232 c 0,0 -17.02717,-124.91683 -0.18919,-213.59685"
       id="path8828" />
    <path
       style="fill:none;stroke:#343a40;stroke-width:1;stroke-linecap:butt;stroke-linejoin:miter;stroke-miterlimit:4;stroke-dasharray:none;stroke-opacity:1"
       d="m 109.05844,70.01606 c 0,0 38.57904,17.825606 135.94572,-1.224394"
       id="path11442" />
    <ellipse
       style="fill:none;fill-rule:evenodd;stroke:#343a40;stroke-width:1;stroke-linecap:round;stroke-linejoin:round;stroke-opacity:1"
       id="path1202"
       cx="275.76868"
       cy="72.216225"
       rx="9.541522"
       ry="8.2319012" />
    <path
       style="display:inline;fill:none;stroke:#343a40;stroke-width:1;stroke-linecap:butt;stroke-linejoin:miter;stroke-miterlimit:4;stroke-dasharray:none;stroke-opacity:1"
       d="m 374.95977,361.50246 c 0,0 0.21939,-18.60245 -21.47644,-25.48162 0,0 -36.24791,-12.7 -39.6875,-34.13125 m 0,0 c 0,0 17.5382,-33.97861 25.58302,-40.52671 m 0,0 c 0,0 -11.76457,-104.05616 -10.74659,-190.754328"
       id="path10367-0"
       sodipodi:nodetypes="ccccccc" />
  </g>
</svg>
