<?xml version="1.0" encoding="UTF-8" standalone="no"?>
<!-- Created with Inkscape (http://www.inkscape.org/) -->

<svg
   xmlns:dc="http://purl.org/dc/elements/1.1/"
   xmlns:cc="http://creativecommons.org/ns#"
   xmlns:rdf="http://www.w3.org/1999/02/22-rdf-syntax-ns#"
   xmlns:svg="http://www.w3.org/2000/svg"
   xmlns="http://www.w3.org/2000/svg"
   xmlns:sodipodi="http://sodipodi.sourceforge.net/DTD/sodipodi-0.dtd"
   xmlns:inkscape="http://www.inkscape.org/namespaces/inkscape"
   width="1000"
   height="1000"
   viewBox="0 0 264.58333 264.58334"
   version="1.1"
   id="svg562"
   inkscape:version="0.92.4 (unknown)"
   sodipodi:docname="sandy.svg">
  <defs
     id="defs556" />
  <sodipodi:namedview
     id="base"
     pagecolor="#ffffff"
     bordercolor="#666666"
     borderopacity="1.0"
     inkscape:pageopacity="0.0"
     inkscape:pageshadow="2"
     inkscape:zoom="0.5"
     inkscape:cx="204.28598"
     inkscape:cy="550.40958"
     inkscape:document-units="mm"
     inkscape:current-layer="layer1"
     showgrid="false"
     units="px"
     inkscape:window-width="1920"
     inkscape:window-height="1043"
     inkscape:window-x="0"
     inkscape:window-y="0"
     inkscape:window-maximized="1"
     inkscape:snap-global="false"
     showguides="false" />
  <metadata
     id="metadata559">
    <rdf:RDF>
      <cc:Work
         rdf:about="">
        <dc:format>image/svg+xml</dc:format>
        <dc:type
           rdf:resource="http://purl.org/dc/dcmitype/StillImage" />
        <dc:title></dc:title>
      </cc:Work>
    </rdf:RDF>
  </metadata>
  <g
     inkscape:label="Layer 1"
     inkscape:groupmode="layer"
     id="layer1">
    <path
       id="primary"
       style="fill:#5c3566;fill-opacity:1;stroke:#000000;stroke-width:2;stroke-miterlimit:4;stroke-dasharray:none;stroke-opacity:1"
       d="M 89.886366,4.092624 H 174.69425 V 17.264497 H 89.886366 Z m 0.3578,13.390653 h 84.092184 l 35.53984,98.803473 c -52.41272,19.44862 -107.57624,18.54007 -155.171874,0 z M 89.886367,134.57801 h 84.807893 v 13.17188 H 89.886367 Z m 0.3578,13.39066 h 84.092193 l 35.53984,98.80347 c -52.41271,19.44862 -107.57625,18.54007 -155.171883,0 z"
       inkscape:connector-curvature="0" />
    <path
       id="secondary"
       style="fill:none;fill-opacity:1;stroke:#000000;stroke-width:1;stroke-miterlimit:4;stroke-dasharray:none;stroke-opacity:1"
       d="m 131.58591,10.821398 a 1.6818576,1.6818576 0 0 1 -1.68186,1.681857 1.6818576,1.6818576 0 0 1 -1.68185,-1.681857 1.6818576,1.6818576 0 0 1 1.68185,-1.6818578 1.6818576,1.6818576 0 0 1 1.68186,1.6818578 z m -5.19847,-6.880327 v 13.577396 m 7.09176,-0.12254 V 129.9275"
       inkscape:connector-curvature="0" />
  </g>
</svg>
