<?xml version="1.0" encoding="UTF-8" standalone="no"?>
<!-- Created with Inkscape (http://www.inkscape.org/) -->

<svg
   xmlns:dc="http://purl.org/dc/elements/1.1/"
   xmlns:cc="http://creativecommons.org/ns#"
   xmlns:rdf="http://www.w3.org/1999/02/22-rdf-syntax-ns#"
   xmlns:svg="http://www.w3.org/2000/svg"
   xmlns="http://www.w3.org/2000/svg"
   xmlns:sodipodi="http://sodipodi.sourceforge.net/DTD/sodipodi-0.dtd"
   xmlns:inkscape="http://www.inkscape.org/namespaces/inkscape"
   width="1000"
   height="1000"
   viewBox="0 0 264.58333 264.58334"
   version="1.1"
   id="svg562"
   inkscape:version="0.92.4 (unknown)"
   sodipodi:docname="simon.svg">
  <defs
     id="defs556" />
  <sodipodi:namedview
     id="base"
     pagecolor="#ffffff"
     bordercolor="#666666"
     borderopacity="1.0"
     inkscape:pageopacity="0.0"
     inkscape:pageshadow="2"
     inkscape:zoom="0.5"
     inkscape:cx="81.883869"
     inkscape:cy="671.04426"
     inkscape:document-units="mm"
     inkscape:current-layer="layer1"
     showgrid="false"
     units="px"
     inkscape:window-width="1920"
     inkscape:window-height="1043"
     inkscape:window-x="0"
     inkscape:window-y="0"
     inkscape:window-maximized="1"
     inkscape:snap-global="false"
     showguides="false" />
  <metadata
     id="metadata559">
    <rdf:RDF>
      <cc:Work
         rdf:about="">
        <dc:format>image/svg+xml</dc:format>
        <dc:type
           rdf:resource="http://purl.org/dc/dcmitype/StillImage" />
        <dc:title></dc:title>
      </cc:Work>
    </rdf:RDF>
  </metadata>
  <g
     inkscape:label="Layer 1"
     inkscape:groupmode="layer"
     id="layer1">
    <rect
       y="51.853992"
       x="54.388508"
       height="14.533224"
       width="23.769028"
       id="inside"
       style="fill:#75507b;fill-opacity:1;stroke:none;stroke-width:0.25675124" />
    <path
       id="primary1"
       style="fill:#5c3566;fill-opacity:1;stroke:#000000;stroke-width:2;stroke-linecap:round;stroke-linejoin:round;stroke-miterlimit:4;stroke-dasharray:none;stroke-dashoffset:0;stroke-opacity:1"
       d="m 184.56241,54.646523 -27.17558,4.140113 c 0.18743,1.818287 -0.19256,12.804107 -0.19256,20.22717 0,7.385706 -0.55587,13.723097 -2.99269,17.659607 -1.31226,1.949512 3.37191,6.539197 1.6848,6.539197 0,5.69089 2.06222,21.79998 2.06222,44.56226 0,16.17764 -3.00322,29.31816 -3.37807,33.32964 -0.74972,6.636 0,19.6253 0,19.6253 h 8.44069 33.17714 10.87187 25.68309 8.80965 c 0,0 0.75022,-12.93307 0,-19.56907 -0.56203,-4.01148 -3.56217,-20.13725 -3.56217,-36.31438 0,-22.76253 1.87736,-34.94512 1.87736,-40.68685 1.312,0.31272 2.80938,-5.536585 1.68481,-7.486097 -2.43709,-3.93651 -3.18526,-10.273901 -3.18526,-17.659607 0,-7.423063 -0.37486,-18.408883 0,-20.22717 l -27.36814,-4.140113 c -10.09186,-3.699246 -14.3832,-3.196604 -26.43716,0 z M 66.198037,63.363612 h 3.749082 c 0.562285,0 1.312255,-0.05625 1.874541,-0.168711 0.562285,0.112457 1.124827,0.168711 1.87454,0.168711 h 1.687113 V 200.72904 H 31.331734 c -1.311999,0 -8.435151,0 -8.435151,0 0,0 -0.749816,-12.99033 0,-19.62632 0.374882,-4.01148 3.374045,-17.15176 3.374045,-33.32914 0,-22.76228 -2.061969,-38.86648 -2.061969,-44.55738 1.687061,0 -2.999265,-4.592762 -1.687087,-6.542274 2.436877,-3.93651 2.99924,-10.27236 2.99924,-17.658066 0,-7.423063 0.374908,-18.407805 0.187454,-20.226117 l 27.180558,-4.142707 c 0,3.692828 2.624511,8.716576 13.309213,8.716576 z"
       inkscape:connector-curvature="0" />
    <path
       id="primary2"
       style="fill:#5c3566;fill-opacity:1;stroke:#000000;stroke-width:2;stroke-linecap:round;stroke-linejoin:round;stroke-miterlimit:4;stroke-dasharray:none;stroke-dashoffset:0;stroke-opacity:1"
       d="m 211.76803,48.873751 c -1.21135,-2.371258 -28.04853,-2.056094 -27.62079,0 v 5.826613 c 10.80666,1.151375 19.67408,-0.05382 27.62079,0 z M 64.510925,62.182659 V 200.72904 h 36.553415 c 1.31226,0 8.81016,0 8.81016,0 0,0 0.74997,-12.9341 0,-19.57009 -0.56228,-4.01149 -3.56139,-20.13238 -3.56139,-36.30951 0,-22.76253 1.87454,-34.95051 1.87454,-40.69224 1.312,0.31298 2.81168,-5.533762 1.68711,-7.483274 -2.43708,-3.93651 -3.1868,-10.27236 -3.1868,-17.658066 0,-7.423063 -0.37485,-18.407805 0,-20.226117 L 79.319822,54.647036 c 0,3.599113 -4.686223,6.560867 -14.621212,6.823293 -0.375113,0 0.187429,0.71233 -0.187685,0.71233 z"
       inkscape:connector-curvature="0" />
    <path
       sodipodi:nodetypes="ccccc"
       id="primary3"
       d="m 78.757537,49.885739 c 0,-4.480129 -25.681028,-3.20545 -25.681028,0 v 5.417399 c 11.059559,-4.798808 18.557722,-2.755582 25.681028,0 z"
       style="fill:#5c3566;fill-opacity:1;stroke:#000000;stroke-width:2;stroke-linecap:round;stroke-linejoin:round;stroke-miterlimit:4;stroke-dasharray:none;stroke-dashoffset:0;stroke-opacity:1"
       inkscape:connector-curvature="0" />
    <path
       id="primary4"
       style="fill:#5c3566;fill-opacity:1;stroke:#000000;stroke-width:2;stroke-linecap:round;stroke-linejoin:round;stroke-miterlimit:4;stroke-dasharray:none;stroke-dashoffset:0;stroke-opacity:1"
       d="m 52.326539,55.659278 1.124827,-6.110962 c 0,3.917767 2.436826,7.666823 11.996958,11.865784 l -4.498795,7.3294 c -4.499052,-4.498872 -8.060705,-9.503852 -8.62299,-13.084222 z m 27.36814,0 -0.937142,-5.661082 c 0,2.305677 -2.249397,7.216943 -11.622101,11.415904 l 3.93651,7.3294 c 4.498795,-4.498872 8.060448,-9.503852 8.622733,-13.084222 z"
       inkscape:connector-curvature="0" />
    <path
       id="primary5"
       style="fill:#5c3566;fill-opacity:1;stroke:#000000;stroke-width:2;stroke-linecap:round;stroke-linejoin:round;stroke-miterlimit:4;stroke-dasharray:none;stroke-dashoffset:0;stroke-opacity:1"
       d="m 157.61326,58.539359 c -3.60219,0 -8.87496,7.204363 -11.74626,17.41577 -7.98748,28.566911 -13.88672,112.983381 -11.01541,117.838541 0,3.75884 0.10441,8.71851 0.15662,12.16411 h 13.62567 c 0,-3.49798 0,-8.24865 0,-12.00749 2.14043,-5.11602 2.7669,-27.56455 5.95144,-61.44596 0.36546,-9.03148 0.62647,-28.13891 2.50589,-35.541559 1.83593,-7.934383 1.06978,-31.996235 0.52205,-38.423412 z m 80.52312,0 c 3.60222,0 8.87486,7.204363 11.74611,17.41577 7.98753,28.566911 13.83453,110.425371 11.0154,117.838541 0,3.75884 -0.10424,8.71851 -0.15662,12.16411 h -13.62553 c 0,-3.49798 0,-8.24865 0,-12.00749 -1.87942,-9.55345 -2.03604,-27.35556 -5.2729,-61.44596 -0.36536,-9.03148 -1.30507,-28.13891 -3.18448,-35.541559 -1.85529,-8.955739 -0.40978,-32.373582 -0.52198,-38.423412 z m -212.199785,0 c -3.602195,0 -8.874966,7.204363 -11.746267,17.41577 C 6.202849,104.52204 0.30361466,188.93851 3.1749253,193.79367 c 0,3.75884 0.1044104,8.71851 0.1566157,12.16411 h 13.625667 c 0,-3.49798 0,-8.24865 0,-12.00749 2.140432,-5.11602 2.766905,-27.56455 5.951442,-61.44596 0.36546,-9.03148 0.626473,-28.13891 2.505892,-35.541559 5.01163,-8.640192 2.036012,-32.210956 0.522053,-38.423412 z m 80.523115,0 c 3.60222,0 8.87486,7.204363 11.74611,17.41577 7.98753,28.566911 13.83453,110.425371 11.0154,117.838541 0,3.75884 -0.10424,8.71851 -0.15662,12.16411 h -13.62553 c 0,-3.49798 0,-8.24865 0,-12.00749 -1.87942,-9.55345 -2.03604,-27.35556 -5.2729,-61.44596 -0.36536,-9.03148 -1.30506,-28.13891 -3.18448,-35.541559 -5.01179,-8.640192 -2.03604,-32.210956 -0.52198,-38.423412 z"
       inkscape:connector-curvature="0" />
    <path
       id="secondary"
       style="fill:#5c3566;fill-opacity:1;stroke:#000000;stroke-width:1;stroke-linecap:round;stroke-linejoin:round;stroke-miterlimit:4;stroke-dasharray:none;stroke-dashoffset:0;stroke-opacity:1"
       d="M 3.1756236,193.95004 H 16.903804 Z m 112.3124864,0 h 13.73619 z m 19.36418,0 h 13.72823 z m 112.31274,0 h 13.73619 z M 158.17531,85.431303 h 79.59289 m -15.05256,24.574867 v 59.78632 m -49.51627,-59.78632 v 59.78632 m -106.261495,8.66723 a 0.7398389,0.7398389 0 0 1 -0.739839,0.73984 0.7398389,0.7398389 0 0 1 -0.739839,-0.73984 0.7398389,0.7398389 0 0 1 0.739839,-0.73984 0.7398389,0.7398389 0 0 1 0.739839,0.73984 z m -1.114694,-0.37486 0.749713,0.74972 m -0.749713,0 0.749713,-0.74972 m 0.549941,0.37486 a 0.92479867,0.92479867 0 0 1 -0.924799,0.9248 0.92479867,0.92479867 0 0 1 -0.924798,-0.9248 0.92479867,0.92479867 0 0 1 0.924798,-0.9248 0.92479867,0.92479867 0 0 1 0.924799,0.9248 z m -0.18496,-14.2276 a 0.7398389,0.7398389 0 0 1 -0.739839,0.73984 0.7398389,0.7398389 0 0 1 -0.739839,-0.73984 0.7398389,0.7398389 0 0 1 0.739839,-0.73984 0.7398389,0.7398389 0 0 1 0.739839,0.73984 z m -1.114694,-0.37487 0.749713,0.74971 m -0.749713,0 0.749713,-0.74971 m 0.549941,0.37487 a 0.92479867,0.92479867 0 0 1 -0.924799,0.9248 0.92479867,0.92479867 0 0 1 -0.924798,-0.9248 0.92479867,0.92479867 0 0 1 0.924798,-0.9248 0.92479867,0.92479867 0 0 1 0.924799,0.9248 z m -0.18496,-14.20888 a 0.7398389,0.7398389 0 0 1 -0.739839,0.73984 0.7398389,0.7398389 0 0 1 -0.739839,-0.73984 0.7398389,0.7398389 0 0 1 0.739839,-0.73984 0.7398389,0.7398389 0 0 1 0.739839,0.73984 z m -1.114694,-0.37512 0.749713,0.74997 m -0.749713,0 0.749713,-0.74997 m 0.549941,0.37512 a 0.92479867,0.92479867 0 0 1 -0.924799,0.9248 0.92479867,0.92479867 0 0 1 -0.924798,-0.9248 0.92479867,0.92479867 0 0 1 0.924798,-0.9248 0.92479867,0.92479867 0 0 1 0.924799,0.9248 z m -0.18496,-14.20912 a 0.7398389,0.7398389 0 0 1 -0.739839,0.73984 0.7398389,0.7398389 0 0 1 -0.739839,-0.73984 0.7398389,0.7398389 0 0 1 0.739839,-0.73984 0.7398389,0.7398389 0 0 1 0.739839,0.73984 z m -1.114694,-0.37487 0.749713,0.74972 m -0.749713,0 0.749713,-0.74972 m 0.549941,0.37487 a 0.92479867,0.92479867 0 0 1 -0.924799,0.9248 0.92479867,0.92479867 0 0 1 -0.924798,-0.9248 0.92479867,0.92479867 0 0 1 0.924798,-0.9248 0.92479867,0.92479867 0 0 1 0.924799,0.9248 z m -0.18496,-14.20888 a 0.7398389,0.7398389 0 0 1 -0.739839,0.73984 0.7398389,0.7398389 0 0 1 -0.739839,-0.73984 0.7398389,0.7398389 0 0 1 0.739839,-0.73984 0.7398389,0.7398389 0 0 1 0.739839,0.73984 z m -1.114694,-0.37486 0.749713,0.74972 m -0.749713,0 0.749713,-0.74972 m 0.549941,0.37486 a 0.92479867,0.92479867 0 0 1 -0.924799,0.9248 0.92479867,0.92479867 0 0 1 -0.924798,-0.9248 0.92479867,0.92479867 0 0 1 0.924798,-0.9248 0.92479867,0.92479867 0 0 1 0.924799,0.9248 z m -0.18496,-14.22761 a 0.7398389,0.7398389 0 0 1 -0.739839,0.73984 0.7398389,0.7398389 0 0 1 -0.739839,-0.73984 0.7398389,0.7398389 0 0 1 0.739839,-0.73984 0.7398389,0.7398389 0 0 1 0.739839,0.73984 z m -1.114694,-0.37486 0.749713,0.74972 m -0.749713,0 0.749713,-0.74972 m 0.549941,0.37486 a 0.92479867,0.92479867 0 0 1 -0.924799,0.9248 0.92479867,0.92479867 0 0 1 -0.924798,-0.9248 0.92479867,0.92479867 0 0 1 0.924798,-0.9248 0.92479867,0.92479867 0 0 1 0.924799,0.9248 z m -0.18496,-14.209127 a 0.7398389,0.7398389 0 0 1 -0.739839,0.739839 0.7398389,0.7398389 0 0 1 -0.739839,-0.739839 0.7398389,0.7398389 0 0 1 0.739839,-0.739839 0.7398389,0.7398389 0 0 1 0.739839,0.739839 z m -1.114694,-0.374858 0.749713,0.74997 m -0.749713,0 0.749713,-0.74997 m 0.549941,0.374858 a 0.92479867,0.92479867 0 0 1 -0.924799,0.924798 0.92479867,0.92479867 0 0 1 -0.924798,-0.924798 0.92479867,0.92479867 0 0 1 0.924798,-0.924799 0.92479867,0.92479867 0 0 1 0.924799,0.924799 z m -0.18496,-15.389672 a 0.7398389,0.7398389 0 0 1 -0.739839,0.739839 0.7398389,0.7398389 0 0 1 -0.739839,-0.739839 0.7398389,0.7398389 0 0 1 0.739839,-0.739838 0.7398389,0.7398389 0 0 1 0.739839,0.739838 z m -1.114694,-0.375112 0.749713,0.749971 m -0.749713,0 0.749713,-0.749971 m 0.549941,0.375112 a 0.92479867,0.92479867 0 0 1 -0.924799,0.924799 0.92479867,0.92479867 0 0 1 -0.924798,-0.924799 0.92479867,0.92479867 0 0 1 0.924798,-0.924798 0.92479867,0.92479867 0 0 1 0.924799,0.924798 z m -0.18496,-15.389976 a 0.7398389,0.7398389 0 0 1 -0.739839,0.739839 0.7398389,0.7398389 0 0 1 -0.739839,-0.739839 0.7398389,0.7398389 0 0 1 0.739839,-0.739839 0.7398389,0.7398389 0 0 1 0.739839,0.739839 z m -1.114694,-0.374907 0.749713,0.749816 m -0.749713,0 0.749713,-0.749816 m 0.549941,0.374907 a 0.92479867,0.92479867 0 0 1 -0.924799,0.924799 0.92479867,0.92479867 0 0 1 -0.924798,-0.924799 0.92479867,0.92479867 0 0 1 0.924798,-0.924799 0.92479867,0.92479867 0 0 1 0.924799,0.924799 z M 65.448324,61.4141 h 1.687112"
       inkscape:connector-curvature="0" />
  </g>
</svg>
