<?xml version="1.0" encoding="UTF-8" standalone="no"?>
<!-- Created with Inkscape (http://www.inkscape.org/) -->

<svg
   xmlns:dc="http://purl.org/dc/elements/1.1/"
   xmlns:cc="http://creativecommons.org/ns#"
   xmlns:rdf="http://www.w3.org/1999/02/22-rdf-syntax-ns#"
   xmlns:svg="http://www.w3.org/2000/svg"
   xmlns="http://www.w3.org/2000/svg"
   xmlns:sodipodi="http://sodipodi.sourceforge.net/DTD/sodipodi-0.dtd"
   xmlns:inkscape="http://www.inkscape.org/namespaces/inkscape"
   width="1000"
   height="1000"
   viewBox="0 0 264.58333 264.58334"
   version="1.1"
   id="svg562"
   inkscape:version="0.92.4 (unknown)"
   sodipodi:docname="sven.svg">
  <defs
     id="defs556" />
  <sodipodi:namedview
     id="base"
     pagecolor="#ffffff"
     bordercolor="#666666"
     borderopacity="1.0"
     inkscape:pageopacity="0.0"
     inkscape:pageshadow="2"
     inkscape:zoom="0.70710678"
     inkscape:cx="326.29377"
     inkscape:cy="449.28235"
     inkscape:document-units="mm"
     inkscape:current-layer="layer1"
     showgrid="false"
     units="px"
     inkscape:window-width="1920"
     inkscape:window-height="1043"
     inkscape:window-x="0"
     inkscape:window-y="0"
     inkscape:window-maximized="1"
     inkscape:snap-global="false"
     showguides="false" />
  <metadata
     id="metadata559">
    <rdf:RDF>
      <cc:Work
         rdf:about="">
        <dc:format>image/svg+xml</dc:format>
        <dc:type
           rdf:resource="http://purl.org/dc/dcmitype/StillImage" />
        <dc:title></dc:title>
      </cc:Work>
    </rdf:RDF>
  </metadata>
  <g
     inkscape:label="Layer 1"
     inkscape:groupmode="layer"
     id="layer1">
    <path
       d="M 53.07258,53.176609 40.745139,60.22131 c -1.037604,5.447047 52.428958,10.294479 54.108522,1.475643 L 81.595822,53.358934 c -2.408822,2.408926 -8.818224,1.608823 -14.307183,1.608823 -6.31113,0.03682 -11.84093,0.583879 -14.216059,-1.791148 z"
       id="inside"
       style="fill:#75507b;stroke:#000000;stroke-width:2;stroke-linecap:round;stroke-linejoin:round;stroke-miterlimit:4;stroke-dasharray:none"
       inkscape:connector-curvature="0" />
    <path
       id="primary1"
       style="fill:#5c3566;stroke:#000000;stroke-width:2;stroke-linecap:round;stroke-linejoin:round;stroke-miterlimit:4;stroke-dasharray:none"
       d="m 182.69013,53.176609 -0.17562,0.09572 -25.66083,3.429961 c 0.18633,1.74833 -0.18353,12.309523 -0.18353,19.447085 0,7.101648 -0.56028,13.197089 -2.98314,16.982235 -1.30435,1.874322 3.35223,6.285604 1.67497,6.285604 0,5.472116 -0.0748,20.957546 -0.33489,42.842676 -0.1871,15.74196 -4.06593,41.65346 -0.96512,42.0371 h 85.69302 c 2.78481,1.66808 -0.36068,-25.42472 -0.96511,-42.0371 -0.79563,-21.87211 -0.33515,-37.37056 -0.33515,-42.842676 -1.67701,0 2.97982,-4.411282 1.67522,-6.285604 -2.4226,-3.785146 -2.98314,-9.880587 -2.98314,-16.982235 0,-7.137562 -0.36986,-17.698755 -0.18352,-19.447085 l -25.74865,-3.342218 c -2.40907,2.408937 -8.82128,1.611284 -14.31024,1.611284 -6.31113,0.03682 -11.83915,0.58028 -14.21427,-1.794747 z M 52.981455,53.26777 27.237407,56.70252 c 0.18636,1.74833 -0.188708,12.309906 -0.188708,19.447468 0,7.101546 -0.556962,13.193668 -2.979645,16.978814 -1.304495,1.874323 3.350808,6.291986 1.673566,6.291986 0,5.472112 -0.07257,20.957802 -0.332722,42.842932 -0.187126,15.74196 -4.069345,41.65116 -0.968379,42.0348 41.492492,0 49.985779,0 85.694141,0 2.78481,1.66808 -0.36399,-25.42243 -0.96818,-42.0348 -0.79588,-21.87211 -0.33285,-37.37082 -0.33285,-42.842932 -1.67727,0 2.97804,-4.417663 1.67344,-6.291986 -2.42261,-3.785146 -2.97957,-9.877268 -2.97957,-16.978814 0,-7.137562 -0.37496,-17.699138 -0.18863,-19.447468 L 81.595822,53.358934 c 0,3.528109 -3.853809,7.677373 -14.307183,7.738353 C 56.835264,61.036307 52.981455,56.795866 52.981455,53.26777 Z m 81.388265,137.67984 h 13.66573 v 12.11864 h -13.66573 z m 111.51772,0 h 13.66599 v 12.11864 h -13.66599 z m -91.79279,-6.44616 h 85.73334 v 12.11864 H 154.09465 Z M 4.7500529,190.94761 H 18.415814 v 12.11864 H 4.7500529 Z m 111.5177971,0 h 13.66574 v 12.11864 H 116.26785 Z M 24.475162,184.50145 H 110.2084 v 12.11864 H 24.475162 Z"
       inkscape:connector-curvature="0" />
    <path
       id="primary2"
       style="fill:#5c3566;stroke:#000000;stroke-width:2;stroke-linecap:round;stroke-linejoin:round;stroke-miterlimit:4;stroke-dasharray:none"
       d="m 157.0834,56.586431 c -3.5812,0 -8.82333,7.165487 -11.67782,17.317305 -7.94092,28.400134 -13.80638,112.326284 -10.95188,117.153124 8.04812,0 5.30415,0.15162 13.70376,0.15162 2.12805,-5.08643 2.74474,-27.40166 5.9109,-61.08536 0.36322,-8.97877 0.62817,-27.977 2.49662,-35.33645 4.98254,-8.589772 2.02365,-32.024036 0.51842,-38.200239 z m 80.05371,0 c -1.50497,6.176203 -4.46386,29.610467 0.51842,38.200239 1.86845,7.35945 2.80344,26.35768 3.16693,35.33645 3.1488,34.02931 0.97149,56.3887 5.24059,61.08536 10.69536,0 7.4077,-0.15162 13.70479,-0.15162 2.80268,-7.36992 -3.01198,-88.75299 -10.9529,-117.153124 -2.8545,-10.151818 -8.09663,-17.317305 -11.67783,-17.317305 z m -209.673217,0 c -3.581173,0 -8.823278,7.165487 -11.677823,17.317305 C 7.8452018,102.30387 1.9795602,186.23002 4.8341128,191.05686 c 8.0482512,0 5.3040522,0.15162 13.7038912,0.15162 2.127941,-5.08643 2.744735,-27.40166 5.910714,-61.08536 0.363301,-8.97877 0.628254,-27.977 2.49668,-35.33645 4.982538,-8.589772 2.02362,-32.024036 0.518495,-38.200239 z m 80.053637,0 c -1.50498,6.176203 -4.46387,29.610467 0.51867,38.200239 1.8682,7.35945 2.80319,26.35768 3.16667,35.33645 3.1488,34.02931 0.97149,56.3887 5.2406,61.08536 10.69433,0 7.40769,-0.15162 13.70402,-0.15162 2.80242,-7.36992 -3.01122,-88.75299 -10.95214,-117.153124 -2.85449,-10.151818 -8.09662,-17.317305 -11.67782,-17.317305 z"
       inkscape:connector-curvature="0" />
    <path
       id="secondary"
       style="fill:none;fill-opacity:1;stroke:#000000;stroke-width:1;stroke-linecap:butt;stroke-linejoin:round;stroke-miterlimit:4;stroke-dasharray:none;stroke-dashoffset:0;stroke-opacity:1"
       d="m 209.14199,54.701559 1.58104,3.087675 m -3.13706,-2.717155 0.741,3.16178 m -2.34654,-3.062974 0.24683,3.433499 m -2.42057,-3.309992 0.19757,3.532292 m -2.12447,-3.606392 0.0988,3.433484 m -2.00069,-3.482891 -0.0248,3.384082 m -2.00063,-3.285284 0.0245,3.211185 m -1.80311,-3.112376 -0.0495,3.161767 m -2.12423,-3.260576 -0.0495,3.235893 M 192.2958,55.245 192.271,58.357351 m -2.05015,-3.013568 0.074,3.038276 m -1.92662,-3.038276 -0.24709,2.914785 m -1.40797,-3.087683 -0.76576,2.914774 m 24.79987,-3.812639 2.27047,2.095987 m -29.85523,1.257858 1.82794,-2.770084 m -4.66096,1.716798 2.68658,-2.593891 m -4.59047,0.178256 c 4.35666,5.229046 8.97597,4.335916 18.489,4.496266 9.09262,-0.01942 16.84388,0.876768 17.97568,-4.860912 M 15.940295,191.43434 v 11.66889 m -2.20888,-11.66889 v 11.66889 m -2.20888,-11.66889 v 11.66889 M 9.3136449,191.43434 v 11.66889 m -2.20887,-11.66889 v 11.66889 M 236.96235,184.79269 v 11.66889 m -2.58306,-11.66889 v 11.66889 m -2.58305,-11.66889 v 11.66889 m -2.58307,-11.66889 v 11.66889 m -2.58304,-11.66889 v 11.66889 m -2.58307,-11.66889 v 11.66889 m -2.58305,-11.66889 v 11.66889 m -2.58305,-11.66889 v 11.66889 m -2.58307,-11.66889 v 11.66889 m -2.58304,-11.66889 v 11.66889 m -2.58307,-11.66889 v 11.66889 m -2.58304,-11.66889 v 11.66889 m -2.58307,-11.66889 v 11.66889 m -2.58305,-11.66889 v 11.66889 m -2.58306,-11.66889 v 11.66889 m -2.58305,-11.66889 v 11.66889 m -2.58306,-11.66889 v 11.66889 m -2.58305,-11.66889 v 11.66889 m -2.58305,-11.66889 v 11.66889 m -2.58306,-11.66889 v 11.66889 m -2.58306,-11.66889 v 11.66889 m -2.58305,-11.66889 v 11.66889 m -2.58306,-11.66889 v 11.66889 m -2.58305,-11.66889 v 11.66889 m -2.58306,-11.66889 v 11.66889 m -2.58305,-11.66889 v 11.66889 m -2.58306,-11.66889 v 11.66889 m -2.58305,-11.66889 v 11.66889 m -2.58305,-11.66889 v 11.66889 m -2.58306,-11.66889 v 11.66889 m -2.58306,-11.66889 v 11.66889 m -2.58305,-11.66889 v 11.66889 m 100.22699,-5.02724 v 11.66889 m -2.20888,-11.66889 v 11.66889 m -2.20888,-11.66889 v 11.66889 m -2.20889,-11.66889 v 11.66889 m -2.20887,-11.66889 v 11.66889 M 145.60977,191.43434 v 11.66889 m -2.20888,-11.66889 v 11.66889 m -2.20888,-11.66889 v 11.66889 m -2.20889,-11.66889 v 11.66889 m -2.20887,-11.66889 v 11.66889 m -9.31208,-11.66889 v 11.66889 m -2.20888,-11.66889 v 11.66889 m -2.20888,-11.66889 v 11.66889 m -2.20889,-11.66889 v 11.66889 m -2.20887,-11.66889 v 11.66889 m -11.44243,-18.31054 v 11.66889 m -2.58306,-11.66889 v 11.66889 m -2.58305,-11.66889 v 11.66889 m -2.583063,-11.66889 v 11.66889 m -2.583044,-11.66889 v 11.66889 m -2.583066,-11.66889 v 11.66889 m -2.583052,-11.66889 v 11.66889 m -2.583052,-11.66889 v 11.66889 m -2.583065,-11.66889 v 11.66889 m -2.583043,-11.66889 v 11.66889 m -2.583067,-11.66889 v 11.66889 m -2.583043,-11.66889 v 11.66889 m -2.583068,-11.66889 v 11.66889 m -2.58305,-11.66889 v 11.66889 m -2.58306,-11.66889 v 11.66889 m -2.583052,-11.66889 v 11.66889 m -2.583056,-11.66889 v 11.66889 m -2.583051,-11.66889 v 11.66889 m -2.583054,-11.66889 v 11.66889 m -2.58306,-11.66889 v 11.66889 m -2.583055,-11.66889 v 11.66889 m -2.583055,-11.66889 v 11.66889 m -2.583059,-11.66889 v 11.66889 m -2.583052,-11.66889 v 11.66889 m -2.583056,-11.66889 v 11.66889 m -2.583056,-11.66889 v 11.66889 m -2.583054,-11.66889 v 11.66889 m -2.583056,-11.66889 v 11.66889 M 34.85867,184.79269 v 11.66889 m -2.583058,-11.66889 v 11.66889 m -2.583056,-11.66889 v 11.66889 M 27.1095,184.79269 v 11.66889 M 84.037317,56.28827 81.136367,55.06351 m 1.804894,3.674295 -2.513987,-1.804919 m 0.709093,4.061049 -1.99812,-2.707366 m -0.386964,4.061049 -1.353606,-2.965223 m -0.644514,3.803219 -1.353861,-2.642915 m -0.966899,3.416433 -1.160124,-3.158577 m -1.289283,3.609813 -0.966898,-3.029674 m -1.611667,3.223054 -0.515611,-3.223054 m -1.998376,3.416434 -0.06432,-3.480885 m -2.836371,3.416433 0.257806,-3.48091 m -3.093921,3.351982 0.902319,-3.480885 m -3.480885,2.642889 1.289283,-3.158576 m -4.254556,2.191678 2.191857,-3.094151 m -4.125654,1.482612 2.513987,-2.320607 m -4.576686,0.257856 3.094177,-1.67599 M 49.937308,56.28827 53.28929,55.321346 m -4.483263,-1.163402 c 1.665015,3.741559 3.636589,6.264326 5.990021,7.931179 3.23329,2.290002 6.052559,2.69103 12.696538,2.69103 6.643979,0 10.371438,-1.337883 13.139401,-3.567721 1.949112,-1.570266 3.350195,-3.579106 4.638712,-7.419134"
       inkscape:connector-curvature="0" />
  </g>
</svg>
