<?xml version="1.0" encoding="UTF-8" standalone="no"?>
<!-- Created with Inkscape (http://www.inkscape.org/) -->

<svg
   xmlns:dc="http://purl.org/dc/elements/1.1/"
   xmlns:cc="http://creativecommons.org/ns#"
   xmlns:rdf="http://www.w3.org/1999/02/22-rdf-syntax-ns#"
   xmlns:svg="http://www.w3.org/2000/svg"
   xmlns="http://www.w3.org/2000/svg"
   xmlns:sodipodi="http://sodipodi.sourceforge.net/DTD/sodipodi-0.dtd"
   xmlns:inkscape="http://www.inkscape.org/namespaces/inkscape"
   width="1000"
   height="1000"
   viewBox="0 0 264.58333 264.58334"
   version="1.1"
   id="svg562"
   inkscape:version="0.92.5 (2060ec1f9f, 2020-04-08)"
   sodipodi:docname="tiberius.svg">
  <defs
     id="defs556" />
  <sodipodi:namedview
     id="base"
     pagecolor="#ffffff"
     bordercolor="#666666"
     borderopacity="1.0"
     inkscape:pageopacity="0.0"
     inkscape:pageshadow="2"
     inkscape:zoom="0.64"
     inkscape:cx="-791.02341"
     inkscape:cy="288.51049"
     inkscape:document-units="mm"
     inkscape:current-layer="layer1"
     showgrid="false"
     units="px"
     inkscape:window-width="3840"
     inkscape:window-height="2132"
     inkscape:window-x="1080"
     inkscape:window-y="0"
     inkscape:window-maximized="1" />
  <metadata
     id="metadata559">
    <rdf:RDF>
      <cc:Work
         rdf:about="">
        <dc:format>image/svg+xml</dc:format>
        <dc:type
           rdf:resource="http://purl.org/dc/dcmitype/StillImage" />
        <dc:title />
      </cc:Work>
    </rdf:RDF>
  </metadata>
  <g
     inkscape:label="Layer 1"
     inkscape:groupmode="layer"
     id="layer1">
    <path
       inkscape:connector-curvature="0"
       d="m 131.67155,260.2508 c 14.44387,-0.0967 12.09121,-3.32278 17.29502,-6.73509 5.20381,-3.41234 18.93846,-0.85307 18.93846,-0.85307 9.72515,2.64454 11.346,2.47391 16.20858,-0.42654 4.86258,-2.90049 8.78676,-11.60196 8.78676,-11.60196 l -1.70616,-6.73937 c 4.35072,-2.04739 5.1185,-4.86257 5.1185,-4.86257 -3.58296,-1.36494 -13.99057,-73.19457 -17.57352,-83.26096 -3.58295,-10.06639 -9.04824,-15.44081 -9.04824,-15.44081 l -0.66844,-5.15348 c 0,0 3.66534,-4.14513 10.31939,-8.75178 6.65405,-4.60665 8.87207,-21.838938 9.55453,-26.104356 0.68248,-4.265419 -3.65155,-33.616873 -3.65155,-33.616873 0.42227,-2.171596 17.32753,-7.216174 17.32753,-7.216174 -8.42322,-11.551268 -9.63014,-26.822917 -23.46648,-36.509954 -2.69251,-2.263485 -17.60608,-7.4178041 -18.76017,-7.8418788 -7.3593,2.4128859 -28.67421,3.8310676 -28.67421,3.8310676 0,0 -21.31492,-1.4181911 -28.67421,-3.8310769 -1.00946,0.2794418 -16.067659,5.5783931 -18.760181,7.8418791 -13.836331,9.687037 -15.043251,24.958681 -23.46647,36.509949 0,0 16.90526,5.044582 17.327515,7.216179 0,0 -4.334013,29.351454 -3.651542,33.616872 0.682464,4.265419 2.900483,21.497706 9.554536,26.104356 6.654048,4.60665 10.319387,8.75179 10.319387,8.75179 l -0.668438,5.15348 c 0,0 -5.46529,5.37442 -9.048239,15.44081 -3.582949,10.06639 -13.990571,81.89602 -17.573522,83.26096 0,0 0.767776,2.81518 5.118503,4.86257 l -1.706167,6.73936 c 0,0 3.924183,8.70148 8.786761,11.60197 4.862576,2.90045 6.483436,3.07108 16.208588,0.42654 0,0 13.734649,-2.55927 18.938459,0.85307 5.20381,3.41231 2.85114,6.63835 17.29502,6.73509"
       style="display:inline;opacity:1;fill:#dee2e6;fill-opacity:1;stroke:#343a40;stroke-width:0.93293452;stroke-linecap:butt;stroke-linejoin:miter;stroke-miterlimit:4;stroke-dasharray:none;stroke-opacity:1"
       id="primary"
       sodipodi:nodetypes="cscscccsccsscccccccccssccscccscsc" />
    <path
       inkscape:connector-curvature="0"
       id="secondary"
       style="display:inline;fill:none;stroke:#343a40;stroke-width:0.46646726;stroke-linecap:butt;stroke-linejoin:miter;stroke-miterlimit:4;stroke-dasharray:none;stroke-opacity:1"
       d="m 146.44951,255.15012 c 0.96515,-42.94936 1.44773,-27.50689 0.96515,-42.94936 m 20.49037,40.46188 c 0,0 -6.49564,-86.30669 -10.11496,-95.71694 m 33.40414,76.94907 c 0,0 -16.03137,-74.54175 -17.23781,-82.50427 -1.20645,-7.96251 -6.27351,-15.68373 -12.30572,-20.5095 m -8.5006,-4.82577 c 0,0 8.68638,-20.14204 8.80703,-37.032235 m 23.28777,-32.319059 c 0,0 7.11457,-25.228242 1.92688,-35.724292 M 171.19822,122.92403 c 0,0 9.89283,-13.87409 10.85799,-28.833979 0.96515,-14.95988 -8.6379,-29.557838 -7.67275,-32.091361 m -57.48988,193.15143 c -0.96515,-42.94936 -1.44773,-27.50689 -0.96515,-42.94936 m -20.490363,40.46188 c 0,0 6.495633,-86.30669 10.114953,-95.71694 m -33.404133,76.94907 c 0,0 16.031372,-74.54175 17.237809,-82.50427 1.206443,-7.96251 6.273503,-15.68373 12.305714,-20.5095 m 8.5006,-4.82577 c 0,0 -8.68638,-20.14204 -8.80702,-37.032235 M 78.098204,56.703932 c 0,0 -7.114567,-25.228238 -1.926865,-35.724288 M 92.144867,122.92403 c 0,0 -9.892827,-13.87409 -10.857981,-28.833974 -0.965154,-14.959885 8.637896,-29.557838 7.672742,-32.091366 m 80.731322,68.33174 c 0,0 -22.51936,1.47574 -38.0194,1.29768 -15.50004,0.17806 -38.019403,-1.29768 -38.019403,-1.29768 m 75.370363,-5.15348 c 0,0 -22.02569,1.47574 -37.35096,1.29768 -15.32528,0.17806 -37.350963,-1.29768 -37.350963,-1.29768" />
  </g>
</svg>
