<?xml version="1.0" encoding="UTF-8" standalone="no"?>
<!-- Created with Inkscape (http://www.inkscape.org/) -->

<svg
   xmlns:dc="http://purl.org/dc/elements/1.1/"
   xmlns:cc="http://creativecommons.org/ns#"
   xmlns:rdf="http://www.w3.org/1999/02/22-rdf-syntax-ns#"
   xmlns:svg="http://www.w3.org/2000/svg"
   xmlns="http://www.w3.org/2000/svg"
   xmlns:sodipodi="http://sodipodi.sourceforge.net/DTD/sodipodi-0.dtd"
   xmlns:inkscape="http://www.inkscape.org/namespaces/inkscape"
   width="1000"
   height="1000"
   viewBox="0 0 264.58333 264.58334"
   version="1.1"
   id="svg562"
   inkscape:version="0.92.4 (unknown)"
   sodipodi:docname="wahid.svg">
  <defs
     id="defs556" />
  <sodipodi:namedview
     id="base"
     pagecolor="#ffffff"
     bordercolor="#666666"
     borderopacity="1.0"
     inkscape:pageopacity="0.0"
     inkscape:pageshadow="2"
     inkscape:zoom="0.5"
     inkscape:cx="184.15087"
     inkscape:cy="466.27689"
     inkscape:document-units="mm"
     inkscape:current-layer="layer1"
     showgrid="false"
     units="px"
     inkscape:window-width="1920"
     inkscape:window-height="1043"
     inkscape:window-x="0"
     inkscape:window-y="0"
     inkscape:window-maximized="1"
     inkscape:snap-global="false"
     showguides="false" />
  <metadata
     id="metadata559">
    <rdf:RDF>
      <cc:Work
         rdf:about="">
        <dc:format>image/svg+xml</dc:format>
        <dc:type
           rdf:resource="http://purl.org/dc/dcmitype/StillImage" />
        <dc:title></dc:title>
      </cc:Work>
    </rdf:RDF>
  </metadata>
  <g
     inkscape:label="Layer 1"
     inkscape:groupmode="layer"
     id="layer1">
    <path
       inkscape:connector-curvature="0"
       style="fill:#75507b;fill-opacity:1;stroke:#000000;stroke-width:2;stroke-linecap:round;stroke-linejoin:round;stroke-miterlimit:4;stroke-dasharray:none;stroke-dashoffset:0;stroke-opacity:1"
       id="inside"
       d="M 44.021718,40.371852 15.91668,46.452185 c 0.552984,2.555683 36.853145,72.106625 36.853145,72.106625 0,0 42.026783,-0.82749 42.026783,-0.82749 0,0 24.712402,-68.723452 25.265392,-71.279135 L 91.956961,40.371852 c -0.555475,2.54821 -4.790037,5.220966 -23.922785,5.228439 -0.02989,0 -0.05978,0 -0.08967,0 -19.132748,-0.0075 -23.367311,-2.680229 -23.922785,-5.228439 z" />
    <path
       id="primary1"
       style="fill:#5c3566;fill-opacity:1;stroke:#000000;stroke-width:2;stroke-linecap:round;stroke-linejoin:round;stroke-miterlimit:4;stroke-dasharray:none;stroke-dashoffset:0;stroke-opacity:1"
       d="m 174.78141,40.27607 -28.44177,4.708469 c 0.0627,0.291892 0.17732,0.823845 0.32463,1.456733 l -0.0682,0.01637 c 0.0191,0.09002 0.0955,0.278252 0.20187,0.529225 1.26577,5.428652 4.45204,19.349187 4.45204,28.364567 0,10.517125 -7.61103,20.222408 -12.25948,24.870316 0,22.64321 4.53933,43.46604 4.53933,70.56319 0,23.00602 -6.73534,40.80054 -6.73534,46.05842 l 4.95944,0.98071 c 54.68752,2.89546 59.27323,4.80858 113.7417,-0.49813 l 4.95944,-0.9807 c 0,-5.25816 -6.2364,-23.0524 -6.2364,-46.05843 0,-27.09715 3.54117,-46.92346 3.54117,-69.56666 -4.64763,-4.648181 -11.51201,-14.851591 -11.51201,-25.368716 0,-10.517125 4.3552,-27.79715 4.9117,-30.366893 L 222.7164,40.27607 c 0,0 0,0.07911 0,0.109119 l -0.0857,-0.01637 c -0.55541,2.54792 -4.7884,5.224054 -23.91962,5.232238 h -0.0873 c -18.34011,-0.0082 -22.99129,-2.463353 -23.83423,-4.913066 -0.005,-0.250973 -0.008,-0.411923 -0.008,-0.411923 z m -104.252379,167.3908 -14.52465,18.40477 c -1.556054,-1.22956 -14.707933,-6.22793 -44.931137,-8.25146 l -4.9538451,-0.97653 c 0,-5.25808 6.7295421,-23.05511 6.7295421,-46.06126 0,-27.09699 -4.535336,-47.92006 -4.535336,-70.5635 4.648125,-4.647899 12.259208,-14.353162 12.259208,-24.870213 0,-10.517052 -4.356504,-27.795256 -4.913033,-30.365007 l 28.443055,-4.710145 c 0,0 -0.351726,24.360867 26.426196,65.771855 z"
       inkscape:connector-curvature="0" />
    <path
       inkscape:connector-curvature="0"
       style="fill:#5c3566;fill-opacity:1;stroke:#000000;stroke-width:2;stroke-linecap:round;stroke-linejoin:round;stroke-miterlimit:4;stroke-dasharray:none;stroke-dashoffset:0;stroke-opacity:1"
       id="primary2"
       d="m 65.613769,207.66687 14.52465,18.40477 c 1.556054,-1.22956 14.458609,-6.72583 44.682551,-8.74937 l 4.95385,-0.97652 c 0,-5.25808 -6.23164,-23.05512 -6.23164,-46.06126 0,-27.097 3.53952,-46.92425 3.53952,-69.56769 -4.64812,-4.647976 -11.51271,-14.851072 -11.51271,-25.368123 0,-10.517052 4.3565,-27.795256 4.91303,-30.365007 L 92.039965,40.273525 c 0,0 0.351726,24.360867 -26.426196,65.771855 z" />
    <path
       id="secondary"
       style="fill:none;fill-opacity:1;stroke:#000000;stroke-width:1;stroke-linecap:round;stroke-linejoin:round;stroke-miterlimit:4;stroke-dasharray:none;stroke-opacity:1"
       d="m 70.206477,127.701 a 1.6550701,1.6550701 0 1 1 -3.31014,0 1.6550701,1.6550701 0 1 1 3.31014,0 z m 0,19.57588 a 1.6550701,1.6550701 0 1 1 -3.31014,0 1.6550701,1.6550701 0 1 1 3.31014,0 z m 0,19.57507 a 1.6550701,1.6550701 0 1 1 -3.31014,0 1.6550701,1.6550701 0 1 1 3.31014,0 z m 0,19.57588 a 1.6550701,1.6550701 0 1 1 -3.31014,0 1.6550701,1.6550701 0 1 1 3.31014,0 z m 0,19.5756 a 1.6550701,1.6550701 0 1 1 -3.31014,0 1.6550701,1.6550701 0 1 1 3.31014,0 z m 0,-97.87831 a 1.6550701,1.6550701 0 1 1 -3.31014,0 1.6550701,1.6550701 0 1 1 3.31014,0 z m 17.184553,84.38069 23.64837,-1.95367 v 5.72541 l -23.64837,1.95367 z m -42.086103,0.006 -23.648373,-1.95368 v 5.7254 l 23.648373,1.95368 z M 198.62382,45.153672 V 221.35978 m -94.91487,-1.69743 c -0.81538,-7.48435 -1.61817,-14.98053 -2.34688,-22.55033 m -0.56709,-6.08481 C 98.745824,168.24245 97.507276,144.6505 98.727355,118.5954 m -69.696613,99.57247 c 0.762472,-6.99869 1.513933,-14.00773 2.204104,-21.07765 m 0.541219,-5.70369 c 2.148744,-23.35952 3.489469,-47.52322 2.236271,-74.28561"
       inkscape:connector-curvature="0" />
  </g>
</svg>
