<?xml version="1.0" encoding="UTF-8" standalone="no"?>
<svg
   xmlns:dc="http://purl.org/dc/elements/1.1/"
   xmlns:cc="http://creativecommons.org/ns#"
   xmlns:rdf="http://www.w3.org/1999/02/22-rdf-syntax-ns#"
   xmlns:svg="http://www.w3.org/2000/svg"
   xmlns="http://www.w3.org/2000/svg"
   xmlns:sodipodi="http://sodipodi.sourceforge.net/DTD/sodipodi-0.dtd"
   xmlns:inkscape="http://www.inkscape.org/namespaces/inkscape"
   width="1000"
   height="1000"
   viewBox="0 0 264.58333 264.58334"
   version="1.1"
   id="svg562"
   inkscape:version="1.0.2 (e86c870879, 2021-01-15)"
   sodipodi:docname="yuri.svg">
  <defs
     id="defs556" />
  <sodipodi:namedview
     id="base"
     pagecolor="#ffffff"
     bordercolor="#666666"
     borderopacity="1.0"
     inkscape:pageopacity="0.0"
     inkscape:pageshadow="2"
     inkscape:zoom="1.4142136"
     inkscape:cx="661.58452"
     inkscape:cy="425.00656"
     inkscape:document-units="mm"
     inkscape:current-layer="layer1"
     showgrid="false"
     units="px"
     inkscape:window-width="3768"
     inkscape:window-height="2096"
     inkscape:window-x="1080"
     inkscape:window-y="27"
     inkscape:window-maximized="1"
     inkscape:snap-global="false"
     showguides="false"
     inkscape:document-rotation="0" />
  <metadata
     id="metadata559">
    <rdf:RDF>
      <cc:Work
         rdf:about="">
        <dc:format>image/svg+xml</dc:format>
        <dc:type
           rdf:resource="http://purl.org/dc/dcmitype/StillImage" />
        <dc:title></dc:title>
      </cc:Work>
    </rdf:RDF>
  </metadata>
  <g
     inkscape:label="Layer 1"
     inkscape:groupmode="layer"
     id="layer1">
    <path
       id="pri2332"
       style="fill:#75507b;fill-opacity:1;stroke:#000000;stroke-width:1.5875;stroke-linecap:round;stroke-linejoin:round;stroke-miterlimit:4;stroke-dasharray:none;stroke-opacity:1"
       d="m 55.887215,29.342481 c -11.86145,15.989665 -28.19439,32.070831 -33.63302,49.541265 -5.42033,58.791294 -2.53309,104.631324 -2.97249,116.109264 l -1.04087,33.88012 c 24.20509,16.50084 82.766325,16.56489 98.006585,0.96468 l -0.8866,-36.87124 c -1.35953,-4.00412 2.59784,-55.29153 -2.82285,-114.082824 -5.43863,-17.470434 -21.776045,-33.5516 -33.638395,-49.541265 h -0.16329 -22.68219 z"
       inkscape:connector-curvature="0"
       sodipodi:nodetypes="ccccccccccc" />
    <path
       id="primary1"
       style="fill:#5c3566;fill-opacity:1;stroke:#000000;stroke-width:1.5875;stroke-linecap:round;stroke-linejoin:round;stroke-miterlimit:4;stroke-dasharray:none;stroke-opacity:1"
       d="M 187.5072,29.836809 C 175.64575,45.826474 159.31281,61.90764 153.87418,79.378074 148.45385,138.16937 151.34109,184.0094 150.90169,195.48734 l -1.04087,33.88012 c 24.20509,16.50084 82.76633,16.56489 98.00659,0.96468 l -0.8866,-36.87124 c -1.35953,-4.00412 2.59784,-55.29153 -2.82285,-114.082826 -5.43863,-17.470434 -21.77605,-33.5516 -33.6384,-49.541265 h -0.16329 -22.68219 z"
       inkscape:connector-curvature="0"
       sodipodi:nodetypes="ccccccccccc" />
    <path
       id="primary2"
       style="fill:#5c3566;stroke:#000000;stroke-width:1.5875;stroke-linecap:round;stroke-linejoin:round;stroke-miterlimit:4;stroke-dasharray:none;stroke-dashoffset:0;stroke-opacity:1"
       d="M 55.080939,32.722238 22.305247,41.946827 C 11.74526,45.268586 10.658539,57.609218 9.0306098,69.43589 3.5539588,121.61682 3.5671382,188.60668 5.4398036,186.43979 H 6.3056602 17.956711 19.255523 C 23.642027,154.40191 28.296175,109.53877 22.757241,81.601784 21.071606,73.100071 43.450056,46.843419 55.080939,32.722238 Z m 23.474035,0 c 11.630883,14.121181 34.009296,40.377833 32.323696,48.879546 -5.53893,27.936986 -0.88496,72.800126 3.50165,104.838006 h 1.29874 11.65116 0.86576 c 1.87275,2.16689 1.87957,-64.82297 -3.5971,-117.0039 -1.628,-11.826672 -2.70837,-24.167304 -13.26822,-27.489063 z m 108.557476,-2.88559 -32.77533,9.224589 c -10.56003,3.321759 -11.64667,15.662391 -13.27468,27.489063 -5.47667,52.18093 -5.46339,119.17079 -3.59082,117.0039 0,0 0.5773,0 0.86595,0 3.88366,0 7.76732,0 11.65098,0 0.43297,0 1.29892,0 1.29892,0 4.38643,-32.03788 9.04058,-76.90102 3.50164,-104.838006 -1.6856,-8.501713 20.69282,-34.758365 32.32334,-48.879546 z m 23.47529,0 c 11.63088,14.121181 34.00804,40.377833 32.32316,48.879546 -5.53911,27.936986 -0.88461,72.800126 3.50075,104.838006 h 1.2991 c 8.92398,0 6.45254,-0.47046 11.65062,0 h 0.86666 c 1.87329,2.16689 1.87867,-64.82297 -3.59764,-117.0039 -1.62746,-11.826672 -2.70765,-24.167304 -13.26732,-27.489063 z"
       inkscape:connector-curvature="0"
       sodipodi:nodetypes="ccccccccccscccccccccccaacscccccccccc" />
    <path
       d="m 86.732436,42.61893 c 2.129697,-0.728114 2.387765,-1.727165 3.817312,-2.4419 5.380674,-2.690137 8.206034,-1.783925 9.530972,-3.705115 0.65493,-0.949632 -3.095229,-1.435841 0.55391,-4.284434 1.03444,-0.807486 0.42651,-2.352111 0.42651,-4.418119 l -29.853432,8.893534 c 0.108378,0.105449 0.292298,0.600783 0.528432,1.266875 L 41.048697,27.998546 c 1.625309,2.118302 2.457342,4.521757 -0.01902,6.366164 -1.839733,1.37021 2.227667,3.501616 5.13144,4.513618 1.394917,0.875078 1.405144,0.992248 2.387543,1.833461 m 22.659048,-4.048893 c -0.03732,-0.03639 -0.06944,-0.03367 -0.08918,0.02547 z"
       id="primary3"
       style="fill:#5c3566;stroke:#000000;stroke-width:1.5875;stroke-linecap:round;stroke-linejoin:round;stroke-miterlimit:4;stroke-dasharray:none;stroke-dashoffset:0;stroke-opacity:1"
       inkscape:connector-curvature="0"
       sodipodi:nodetypes="ccsscccccccccc" />
    <path
       d="m 86.826518,42.706647 c 0.127564,-2.704023 -0.97634,-2.348525 3.804199,-7.768459 5.137064,-5.824145 5.826879,-2.61334 10.381983,-7.299086 0.3795,-1.138462 0.40444,-3.085969 -0.58137,-3.391094 -4.845959,-4.883352 -57.301025,-6.296569 -59.38999,3.440125 4.560483,10.714151 10.558495,2.94553 9.969148,14.757023"
       id="primary4"
       style="fill:#5c3566;stroke:#000000;stroke-width:1.5875;stroke-linecap:round;stroke-linejoin:round;stroke-miterlimit:4;stroke-dasharray:none;stroke-dashoffset:0;stroke-opacity:1"
       inkscape:connector-curvature="0"
       sodipodi:nodetypes="cscccc" />
    <path
       d="M 90.897235,34.718959 C 76.582386,31.161051 58.866512,32.407838 49.727244,35.21959 l 13.808643,65.68792 z"
       id="inside"
       style="fill:#75507b;fill-opacity:1;stroke:#000000;stroke-width:1.49832;stroke-linecap:round;stroke-linejoin:round;stroke-miterlimit:4;stroke-dasharray:none;stroke-dashoffset:0;stroke-opacity:1"
       inkscape:connector-curvature="0"
       sodipodi:nodetypes="cccc" />
    <path
       id="primary5"
       style="fill:#5c3566;fill-opacity:1;stroke:#000000;stroke-width:1.5875;stroke-linecap:square;stroke-linejoin:round;stroke-miterlimit:4;stroke-dasharray:none;stroke-dashoffset:0;stroke-opacity:1"
       d="m 169.70058,24.769754 c -6.61697,22.902185 6.08046,44.341296 34.01306,43.110759 25.65182,-0.572243 36.15586,-25.650778 27.69916,-44.043002 -21.21084,6.401678 -44.73458,2.557165 -61.71222,0.932243 z M 6.1140194,186.46223 H 18.176248 m 97.417562,-0.0204 h 11.96511 m 10.58692,-2.86522 h 12.06222 m 97.41756,-0.0204 h 11.96511"
       inkscape:connector-curvature="0"
       sodipodi:nodetypes="cccccccccccc" />
    <path
       id="prisd"
       style="fill:#5c3566;fill-opacity:1;stroke:#000000;stroke-width:1.62334;stroke-linecap:round;stroke-linejoin:round;stroke-miterlimit:4;stroke-dasharray:none;stroke-opacity:1"
       d="m 87.281758,42.671193 c 3.577754,-1.323441 4.827206,-0.008 5.507546,2.834906 C 72.600759,138.95343 78.427573,245.45051 18.358334,229.82035 l 0.927256,-36.8643 C 20.707462,188.95268 16.568624,137.67492 22.237885,78.894678 27.925909,61.427534 35.770151,59.573433 48.176459,43.58678 h 0.170778 c 14.579933,29.34169 19.44764,32.495647 38.934521,-0.915587 z"
       inkscape:connector-curvature="0"
       sodipodi:nodetypes="cccccccc" />
    <path
       id="prisdfs"
       style="fill:#5c3566;fill-opacity:1;stroke:#000000;stroke-width:1.5875;stroke-linecap:round;stroke-linejoin:round;stroke-miterlimit:4;stroke-dasharray:none;stroke-opacity:1"
       d="m 50.345967,42.65344 c -3.420885,-1.323685 -4.615553,-0.0077 -5.266066,2.835437 19.303372,93.464913 13.732036,199.982033 71.167519,184.348933 l -0.8866,-36.87124 c -1.35953,-4.00412 2.59784,-55.29153 -2.82285,-114.082824 C 107.09934,61.413312 99.599031,59.558862 87.736681,43.569197 h -0.16329 C 73.63272,72.916414 68.978439,76.070959 50.345967,42.65344 Z"
       inkscape:connector-curvature="0"
       sodipodi:nodetypes="cccccccc" />
    <path
       id="sec"
       style="fill:none;stroke:#000000;stroke-width:1;stroke-linecap:round;stroke-linejoin:round;stroke-opacity:1;stroke-miterlimit:4;stroke-dasharray:none"
       d="M 53.655142,59.418875 C 68.965196,90.462782 78.692845,78.30458 87.495607,57.417971 M 53.655142,54.127205 C 68.965196,85.171112 78.692845,73.01291 87.495607,52.126301 M 68.435174,186.80751 19.710906,151.38838 m 49.32093,35.41913 46.321394,-33.88239 M 194.37251,27.505273 c -0.0186,16.175483 -2.58557,28.430571 -0.8321,38.489548 0.0522,0.400983 0.25724,1.094041 0.25724,1.514593 m 18.21766,-39.650678 c 2.63992,15.314461 -2.40769,26.27306 -0.8321,38.489548 0.0522,0.400983 0.25724,1.094041 0.25724,1.514593" />
    <path
       id="prisds"
       style="fill:#5c3566;fill-opacity:0.997397;stroke:#000000;stroke-width:2;stroke-linecap:round;stroke-linejoin:round;stroke-miterlimit:4;stroke-dasharray:none"
       d="m 91.343294,46.884064 a 2.7187743,2.7187743 0 0 1 -2.718775,2.718774 2.7187743,2.7187743 0 0 1 -2.718774,-2.718774 2.7187743,2.7187743 0 0 1 2.718774,-2.718775 2.7187743,2.7187743 0 0 1 2.718775,2.718775 z m -39.882386,0 a 2.7187743,2.7187743 0 0 1 -2.718774,2.718774 2.7187743,2.7187743 0 0 1 -2.718774,-2.718774 2.7187743,2.7187743 0 0 1 2.718774,-2.718775 2.7187743,2.7187743 0 0 1 2.718774,2.718775 z" />
  </g>
</svg>
