<?xml version="1.0" encoding="UTF-8" standalone="no"?>
<!-- Created with Inkscape (http://www.inkscape.org/) -->

<svg
   xmlns:dc="http://purl.org/dc/elements/1.1/"
   xmlns:cc="http://creativecommons.org/ns#"
   xmlns:rdf="http://www.w3.org/1999/02/22-rdf-syntax-ns#"
   xmlns:svg="http://www.w3.org/2000/svg"
   xmlns="http://www.w3.org/2000/svg"
   xmlns:xlink="http://www.w3.org/1999/xlink"
   xmlns:sodipodi="http://sodipodi.sourceforge.net/DTD/sodipodi-0.dtd"
   xmlns:inkscape="http://www.inkscape.org/namespaces/inkscape"
   version="1.1"
   width="1022.45"
   height="839.135"
   id="svg2"
   inkscape:version="0.47 r22583"
   sodipodi:docname="lengthbonus.svg">
  <metadata
     id="metadata7901">
    <rdf:RDF>
      <cc:Work
         rdf:about="">
        <dc:format>image/svg+xml</dc:format>
        <dc:type
           rdf:resource="http://purl.org/dc/dcmitype/StillImage" />
        <dc:title></dc:title>
      </cc:Work>
    </rdf:RDF>
  </metadata>
  <sodipodi:namedview
     pagecolor="#ffffff"
     bordercolor="#666666"
     borderopacity="1"
     objecttolerance="10"
     gridtolerance="10"
     guidetolerance="10"
     inkscape:pageopacity="0"
     inkscape:pageshadow="2"
     inkscape:window-width="1832"
     inkscape:window-height="1041"
     id="namedview7899"
     showgrid="false"
     inkscape:zoom="0.475153"
     inkscape:cx="205.77"
     inkscape:cy="112.779"
     inkscape:window-x="106"
     inkscape:window-y="1"
     inkscape:window-maximized="0"
     inkscape:current-layer="g41867" />
  <defs
     id="defs4">
    <linearGradient
       id="linearGradient3676">
      <stop
         id="stop3678"
         style="stop-color:#000000;stop-opacity:1"
         offset="0" />
      <stop
         id="stop3680"
         style="stop-color:#000000;stop-opacity:0"
         offset="1" />
    </linearGradient>
    <linearGradient
       inkscape:collect="always"
       xlink:href="#linearGradient3676"
       id="linearGradient8815"
       gradientUnits="userSpaceOnUse"
       gradientTransform="matrix(1.39797,0,0,1.39797,58.6283,-728.248)"
       spreadMethod="pad"
       x1="559.714"
       y1="433.434"
       x2="427.608"
       y2="432.683" />
    <linearGradient
       inkscape:collect="always"
       xlink:href="#linearGradient3676"
       id="linearGradient8823"
       gradientUnits="userSpaceOnUse"
       gradientTransform="matrix(1.39797,0,0,1.39797,83.4774,-736.878)"
       spreadMethod="pad"
       x1="483.286"
       y1="435.576"
       x2="438.929"
       y2="430.576" />
    <linearGradient
       inkscape:collect="always"
       xlink:href="#linearGradient3676"
       id="linearGradient8825"
       gradientUnits="userSpaceOnUse"
       gradientTransform="matrix(1.39797,0,0,1.39797,95.46,-767.833)"
       spreadMethod="pad"
       x1="483.286"
       y1="435.576"
       x2="443.929"
       y2="429.148" />
    <linearGradient
       inkscape:collect="always"
       xlink:href="#linearGradient3676"
       id="linearGradient41987"
       gradientUnits="userSpaceOnUse"
       gradientTransform="matrix(1.39797,0,0,1.39797,619.502,-767.833)"
       spreadMethod="pad"
       x1="483.286"
       y1="435.576"
       x2="443.929"
       y2="429.148" />
    <linearGradient
       inkscape:collect="always"
       xlink:href="#linearGradient3676"
       id="linearGradient41991"
       gradientUnits="userSpaceOnUse"
       gradientTransform="matrix(1.39797,0,0,1.39797,607.519,-736.878)"
       spreadMethod="pad"
       x1="483.286"
       y1="435.576"
       x2="438.929"
       y2="430.576" />
    <linearGradient
       inkscape:collect="always"
       xlink:href="#linearGradient3676"
       id="linearGradient41998"
       gradientUnits="userSpaceOnUse"
       gradientTransform="matrix(1.39797,0,0,1.39797,251.037,-470.266)"
       spreadMethod="pad"
       x1="483.286"
       y1="435.576"
       x2="437.857"
       y2="433.434" />
    <linearGradient
       inkscape:collect="always"
       xlink:href="#linearGradient3676"
       id="linearGradient42001"
       gradientUnits="userSpaceOnUse"
       gradientTransform="matrix(1.39797,0,0,1.39797,312.947,-454.289)"
       spreadMethod="pad"
       x1="483.286"
       y1="435.576"
       x2="438.214"
       y2="435.576" />
    <linearGradient
       inkscape:collect="always"
       xlink:href="#linearGradient3676"
       id="linearGradient42004"
       gradientUnits="userSpaceOnUse"
       gradientTransform="matrix(1.39797,0,0,1.39797,392.831,-392.379)"
       spreadMethod="pad"
       x1="483.286"
       y1="435.576"
       x2="438.929"
       y2="430.576" />
    <linearGradient
       inkscape:collect="always"
       xlink:href="#linearGradient3676"
       id="linearGradient42007"
       gradientUnits="userSpaceOnUse"
       gradientTransform="matrix(1.39797,0,0,1.39797,582.67,-728.248)"
       spreadMethod="pad"
       x1="559.714"
       y1="433.434"
       x2="427.608"
       y2="432.683" />
  </defs>
  <g
     id="g8740"
     transform="matrix(-1,0,0,1,783.046,522.027)">
    <g
       id="g8742">
      <g
         id="g8744">
        <g
           id="g8796">
          <path
             d="M 447.07,-504.95 C 502.235,-455.294 569.516,-484.383 631.357,-478.119 L 646.184,-501.419 C 609.13,-519.532 606.489,-520.781 538.154,-519.777 526.544,-519.607 487.29,-519.209 457.526,-515.111 L 448.482,-505.656"
             id="path8746"
             style="opacity:0.98;fill:#8e8e8e;fill-opacity:1;stroke:#545454;stroke-width:4;stroke-linecap:round;stroke-linejoin:round;stroke-miterlimit:4;stroke-opacity:1;stroke-dasharray:none;stroke-dashoffset:0" />
          <path
             d="M 441.388,-505.943 C 413.985,-505.727 392.349,-500.347 365.099,-494.412 375.557,-453.211 373.912,-410.593 361.739,-366.729 356.248,-323.491 369.723,-282.422 358.455,-248.363 317.548,-124.715 301.902,-87.2062 288.047,6.9448 288.594,7.0691 289.091,7.2249 289.345,7.403 292.286,9.4679 284.962,12.2897 294.614,16.0322 308.32,21.3468 320.195,32.1085 335.393,31.2289 360.558,29.7725 353.598,39.2931 376.019,43.371 394.644,46.7585 405.925,46.9884 418.173,49.7093 417.815,95.79 423.639,87.644 454.599,94.383 497.36,103.691 498.906,112.369 498.204,128.365 497.13,152.8 632.008,194.216 710.041,228.786 700.339,117.872 712.316,50.1102 711.033,-52.563 L 719.739,-55.3885 C 719.739,-55.3885 720.212,-77.6863 719.51,-83.2618 722.432,-83.1004 726.684,-83.6198 731.652,-84.6363 727.149,-214.249 735.822,-466.971 703.55,-486.928 L 646.199,-499.91 C 620.772,-482.781 464.261,-479.694 446.963,-505.943 445.081,-505.976 443.215,-505.958 441.388,-505.943 z"
             id="path8748"
             style="fill:#212121;fill-opacity:1;stroke:#2e3436;stroke-width:5.591876;stroke-miterlimit:4;stroke-dasharray:none"
             sodipodi:nodetypes="cccccsssscscccccccccc" />
          <path
             d="M 688.713,-27.9596 688.533,-28.7452 C 665.03,-89.34 666.249,-155.64 666.544,-221.726 665.832,-266.601 692.3,-333.903 696.158,-412.539 696.845,-257.623 689.936,-164.36 688.713,-27.9596 z"
             id="path8750"
             style="fill:url(#linearGradient8815);fill-opacity:1;stroke:none" />
          <path
             d="M 717.556,-85.5185 717.556,-282.233"
             id="path8758"
             style="fill:none;stroke:#2e3436;stroke-width:2.795938;stroke-miterlimit:4;stroke-dasharray:none" />
          <path
             d="M 689.299,-29.7503 696.587,-416.038"
             id="path8760"
             style="fill:none;stroke:#292b2c;stroke-width:2.795938;stroke-linecap:round;stroke-linejoin:round;stroke-miterlimit:4;stroke-opacity:1;stroke-dasharray:none;stroke-dashoffset:0" />
          <path
             d="M 731.62,-93.3045 781.046,-107.426 718.911,-456.23"
             id="path8762"
             style="opacity:0.98;fill:#212121;fill-opacity:1;stroke:#545454;stroke-width:4;stroke-linecap:round;stroke-linejoin:round;stroke-miterlimit:4;stroke-opacity:1;stroke-dasharray:none;stroke-dashoffset:0" />
          <path
             d="M 364.458,-495.771 C 386.172,-507.117 401.421,-512.169 457.661,-516.247 L 449.188,-505.656 364.458,-495.771 z"
             id="path8766"
             style="opacity:0.98;fill:#212121;fill-opacity:1;stroke:#545454;stroke-width:4;stroke-linecap:round;stroke-linejoin:round;stroke-miterlimit:4;stroke-opacity:1;stroke-dasharray:none;stroke-dashoffset:0" />
          <path
             d="M 719.553,-56.5606 710.509,-54.0934 700.622,-52.5989 690.298,-51.0383 693.591,-273.246 717.556,-276.241 719.553,-56.5606 z"
             id="path8770"
             style="fill:url(#linearGradient8823);fill-opacity:1;stroke:none" />
          <path
             d="M 706.572,228.026 C 695.855,120.909 691.08,40.4353 689.047,-30.6365 671.224,-48.914 655.181,-243.046 677.115,-292.181 687.474,-315.386 693.353,-369.269 695.588,-413.043"
             id="path8772"
             style="fill:none;stroke:#545454;stroke-width:2.795938;stroke-linecap:round;stroke-linejoin:round;stroke-miterlimit:4;stroke-opacity:1;stroke-dasharray:none;stroke-dashoffset:0" />
          <path
             d="M 731.536,-87.5156 719.553,-83.5214 714.561,-306.198 729.539,-307.196 731.536,-87.5156 z"
             id="path8774"
             style="fill:url(#linearGradient8825);fill-opacity:1;stroke:none" />
          <path
             d="M 420.121,53.0047 C 417.971,-36.2101 413.328,-95.5694 400.018,-200.352"
             id="path8776"
             style="fill:none;stroke:#545454;stroke-width:2.795938;stroke-linecap:round;stroke-linejoin:round;stroke-miterlimit:4;stroke-opacity:1;stroke-dasharray:none;stroke-dashoffset:0"
             sodipodi:nodetypes="cc" />
          <path
             d="M 503.789,134.76 512.854,-27.6027"
             id="path8778"
             style="fill:none;stroke:#545454;stroke-width:2.795938;stroke-linecap:round;stroke-linejoin:round;stroke-miterlimit:4;stroke-opacity:1;stroke-dasharray:none;stroke-dashoffset:0"
             sodipodi:nodetypes="cc" />
          <path
             d="M 359.918,36.4575 C 357.889,-50.0151 353.849,-95.9158 360.575,-184.874"
             id="path8780"
             style="fill:none;stroke:#545454;stroke-width:2.795938;stroke-linecap:round;stroke-linejoin:round;stroke-miterlimit:4;stroke-opacity:1;stroke-dasharray:none;stroke-dashoffset:0"
             sodipodi:nodetypes="cc" />
          <path
             d="M 365.068,-494.424 C 394.135,-500.755 416.851,-506.432 446.949,-505.91 464.248,-479.661 620.788,-482.793 646.216,-499.922 L 703.577,-486.935 C 735.849,-466.978 727.162,-214.251 731.665,-84.6389 726.696,-83.6224 722.467,-83.1216 719.545,-83.2829 720.247,-77.7075 719.756,-55.3764 719.756,-55.3764 L 711.066,-52.5664 C 712.864,91.365 704.282,90.861 710.095,230.108 631.474,196.129 496.921,154.286 498.169,129.671 498.979,113.68 497.335,105.831 454.574,96.523 423.614,89.784 421.03,98.599 421.388,52.5186 409.14,49.7977 394.181,48.7561 375.555,45.3686 353.135,41.2907 360.99,31.9544 335.826,33.4108 320.628,34.2904 307.837,23.3722 294.131,18.0576 284.479,14.3151 292.274,10.7742 289.333,8.7093 281.583,3.2693 293.569,12.0454 288.16,8.917 310.815,-140.076 301.127,-75.1756 358.432,-248.392 369.7,-282.45 356.273,-323.504 361.764,-366.743 373.937,-410.606 375.527,-453.224 365.068,-494.424 z"
             id="path8782"
             style="fill:none;stroke:#545454;stroke-width:4;stroke-miterlimit:4;stroke-opacity:1;stroke-dasharray:none"
             sodipodi:nodetypes="ccccccccccscsssscccc" />
        </g>
      </g>
    </g>
  </g>
  <g
     transform="matrix(-1,0,0,1,1307.09,522.027)"
     id="g41867">
    <path
       d="M 447.07,-504.95 C 502.235,-455.294 569.516,-484.383 631.357,-478.119 L 646.184,-501.419 C 609.13,-519.532 606.489,-520.781 538.154,-519.777 526.544,-519.607 487.29,-519.209 457.526,-515.111 L 448.482,-505.656"
       id="path41875"
       style="opacity:0.98;fill:#8e8e8e;fill-opacity:1;stroke:#545454;stroke-width:4;stroke-linecap:round;stroke-linejoin:round;stroke-miterlimit:4;stroke-opacity:1;stroke-dasharray:none;stroke-dashoffset:0" />
    <path
       sodipodi:nodetypes="cccccsssscscccccccccc"
       d="M 441.388,-505.943 C 413.985,-505.727 392.349,-500.347 365.099,-494.412 375.557,-453.211 373.912,-410.593 361.739,-366.729 356.248,-323.491 369.723,-282.422 358.455,-248.363 317.548,-124.715 301.902,-2.2062 288.047,91.9448 288.594,92.0691 289.091,92.2249 289.345,92.403 292.286,94.4679 284.962,97.2897 294.614,101.032 308.32,106.347 320.195,117.108 335.393,116.229 360.558,114.772 353.598,124.293 376.019,128.371 394.644,131.758 405.925,131.988 418.173,134.709 417.815,180.79 423.639,172.644 454.599,179.383 497.36,188.691 498.906,197.369 498.204,213.365 497.13,237.8 632.008,279.216 710.041,313.786 700.339,202.872 712.316,50.1102 711.033,-52.563 L 719.739,-55.3885 C 719.739,-55.3885 720.212,-77.6863 719.51,-83.2618 722.432,-83.1004 726.684,-83.6198 731.652,-84.6363 727.149,-214.249 735.822,-466.971 703.55,-486.928 L 646.199,-499.91 C 620.772,-482.781 464.261,-479.694 446.963,-505.943 445.081,-505.976 443.215,-505.958 441.388,-505.943 z"
       id="path41877"
       style="fill:#212121;fill-opacity:1;stroke:#2e3436;stroke-width:5.591876;stroke-miterlimit:4;stroke-dasharray:none" />
    <path
       d="M 688.713,-27.9596 688.533,-28.7452 C 665.03,-89.34 666.249,-155.64 666.544,-221.726 665.832,-266.601 692.3,-333.903 696.158,-412.539 696.845,-257.623 689.936,-164.36 688.713,-27.9596 z"
       id="path41879"
       style="fill:url(#linearGradient42007);fill-opacity:1;stroke:none" />
    <path
       d="M 498.167,215.889 472.006,180.066 481.63,6.90799 505.596,3.91239 498.167,215.889 z"
       id="path41881"
       style="fill:url(#linearGradient42004);fill-opacity:1;stroke:none" />
    <path
       d="M 420.521,98.9638 394.961,93.5049 377.051,-191.365 401.016,-194.36 C 413.001,-50.0355 421.744,-37.4365 420.521,98.9638 z"
       id="path41883"
       style="fill:url(#linearGradient42001);fill-opacity:1;stroke:none" />
    <path
       d="M 359.543,86.2502 337.713,80.7913 334.113,-180.381 358.078,-183.376 C 353.088,-35.0572 360.766,-50.1501 359.543,86.2502 z"
       id="path41885"
       style="fill:url(#linearGradient41998);fill-opacity:1;stroke:none" />
    <path
       d="M 717.556,-85.5185 717.556,-282.233"
       id="path41887"
       style="fill:none;stroke:#2e3436;stroke-width:2.795938;stroke-miterlimit:4;stroke-dasharray:none" />
    <path
       d="M 689.299,-29.7503 696.587,-416.038"
       id="path41889"
       style="fill:none;stroke:#292b2c;stroke-width:2.795938;stroke-linecap:round;stroke-linejoin:round;stroke-miterlimit:4;stroke-opacity:1;stroke-dasharray:none;stroke-dashoffset:0" />
    <path
       d="M 731.62,-93.3045 781.046,-107.426 718.911,-456.23"
       id="path41891"
       style="opacity:0.98;fill:#212121;fill-opacity:1;stroke:#545454;stroke-width:4;stroke-linecap:round;stroke-linejoin:round;stroke-miterlimit:4;stroke-opacity:1;stroke-dasharray:none;stroke-dashoffset:0" />
    <path
       d="M 364.458,-495.771 C 386.172,-507.117 401.421,-512.169 457.661,-516.247 L 449.188,-505.656 364.458,-495.771 z"
       id="path41893"
       style="opacity:0.98;fill:#212121;fill-opacity:1;stroke:#545454;stroke-width:4;stroke-linecap:round;stroke-linejoin:round;stroke-miterlimit:4;stroke-opacity:1;stroke-dasharray:none;stroke-dashoffset:0" />
    <path
       d="M 719.553,-56.5606 710.509,-54.0934 700.622,-52.5989 690.298,-51.0383 693.591,-273.246 717.556,-276.241 719.553,-56.5606 z"
       id="path41895"
       style="fill:url(#linearGradient41991);fill-opacity:1;stroke:none" />
    <path
       d="M 706.572,228.026 C 695.855,120.909 691.08,40.4353 689.047,-30.6365 671.224,-48.914 655.181,-243.046 677.115,-292.181 687.474,-315.386 693.353,-369.269 695.588,-413.043"
       id="path41897"
       style="fill:none;stroke:#545454;stroke-width:2.795938;stroke-linecap:round;stroke-linejoin:round;stroke-miterlimit:4;stroke-opacity:1;stroke-dasharray:none;stroke-dashoffset:0" />
    <path
       d="M 731.536,-87.5156 719.553,-83.5214 714.561,-306.198 729.539,-307.196 731.536,-87.5156 z"
       id="path41899"
       style="fill:url(#linearGradient41987);fill-opacity:1;stroke:none" />
    <path
       d="M 422.226,140.096 C 420.076,50.8816 415.433,-53.4777 402.123,-158.26"
       id="path41901"
       style="fill:none;stroke:#545454;stroke-width:2.795938;stroke-linecap:round;stroke-linejoin:round;stroke-miterlimit:4;stroke-opacity:1;stroke-dasharray:none;stroke-dashoffset:0" />
    <path
       d="M 498.528,215.276 507.593,2.91379"
       id="path41903"
       style="fill:none;stroke:#545454;stroke-width:2.795938;stroke-linecap:round;stroke-linejoin:round;stroke-miterlimit:4;stroke-opacity:1;stroke-dasharray:none;stroke-dashoffset:0" />
    <path
       d="M 360.97,123.288 C 358.941,36.8151 354.901,-59.0856 361.627,-148.044"
       id="path41905"
       style="fill:none;stroke:#545454;stroke-width:2.795938;stroke-linecap:round;stroke-linejoin:round;stroke-miterlimit:4;stroke-opacity:1;stroke-dasharray:none;stroke-dashoffset:0" />
    <path
       sodipodi:nodetypes="ccccccccccscsssscccc"
       d="M 365.068,-494.424 C 394.135,-500.755 416.851,-506.432 446.949,-505.91 464.248,-479.661 620.788,-482.793 646.216,-499.922 L 703.577,-486.935 C 735.849,-466.978 727.162,-214.251 731.665,-84.6389 726.696,-83.6224 722.467,-83.1216 719.545,-83.2829 720.247,-77.7075 719.756,-55.3764 719.756,-55.3764 L 711.066,-52.5664 C 712.864,91.365 704.282,175.861 710.095,315.108 631.474,281.129 496.921,239.286 498.169,214.671 498.979,198.68 497.335,190.831 454.574,181.523 423.614,174.784 421.03,183.599 421.388,137.519 409.14,134.798 394.181,133.756 375.555,130.369 353.135,126.291 360.99,116.954 335.826,118.411 320.628,119.29 307.837,108.372 294.131,103.058 284.479,99.3151 292.274,95.7742 289.333,93.7093 281.583,88.2693 293.569,97.0454 288.16,93.917 310.815,-55.0756 301.127,-75.1756 358.432,-248.392 369.7,-282.45 356.273,-323.504 361.764,-366.743 373.937,-410.606 375.527,-453.224 365.068,-494.424 z"
       id="path41907"
       style="fill:none;stroke:#545454;stroke-width:4;stroke-miterlimit:4;stroke-opacity:1;stroke-dasharray:none" />
  </g>
</svg>
