<?xml version="1.0" encoding="UTF-8" standalone="no"?>
<svg
   xmlns:dc="http://purl.org/dc/elements/1.1/"
   xmlns:cc="http://creativecommons.org/ns#"
   xmlns:rdf="http://www.w3.org/1999/02/22-rdf-syntax-ns#"
   xmlns:svg="http://www.w3.org/2000/svg"
   xmlns="http://www.w3.org/2000/svg"
   xmlns:sodipodi="http://sodipodi.sourceforge.net/DTD/sodipodi-0.dtd"
   xmlns:inkscape="http://www.inkscape.org/namespaces/inkscape"
   width="305.97995mm"
   height="142.80638mm"
   viewBox="0 0 305.97995 142.80638"
   version="1.1"
   id="svg12911"
   inkscape:version="1.0.1 (c497b03c, 2020-09-10)"
   sodipodi:docname="step2a.svg">
  <defs
     id="defs12905" />
  <sodipodi:namedview
     id="base"
     pagecolor="#ffffff"
     bordercolor="#666666"
     borderopacity="1.0"
     inkscape:pageopacity="0.0"
     inkscape:pageshadow="2"
     inkscape:zoom="0.35"
     inkscape:cx="421.08697"
     inkscape:cy="628.22803"
     inkscape:document-units="mm"
     inkscape:current-layer="layer1"
     inkscape:document-rotation="0"
     showgrid="false"
     fit-margin-bottom="-300"
     fit-margin-top="0"
     fit-margin-left="0"
     fit-margin-right="0"
     inkscape:window-width="1252"
     inkscape:window-height="806"
     inkscape:window-x="0"
     inkscape:window-y="23"
     inkscape:window-maximized="0" />
  <metadata
     id="metadata12908">
    <rdf:RDF>
      <cc:Work
         rdf:about="">
        <dc:format>image/svg+xml</dc:format>
        <dc:type
           rdf:resource="http://purl.org/dc/dcmitype/StillImage" />
        <dc:title></dc:title>
      </cc:Work>
    </rdf:RDF>
  </metadata>
  <g
     inkscape:label="Layer 1"
     inkscape:groupmode="layer"
     id="layer1"
     transform="translate(97.049499,128.42105)">
    <path
       style="fill:#babdb6;fill-opacity:1;stroke:#888a85;stroke-width:1;stroke-linecap:butt;stroke-linejoin:miter;stroke-miterlimit:4;stroke-dasharray:none;stroke-opacity:1"
       d="m -86.986279,-117.40118 46.143995,3.0205 46.1439952,-3.0205 3.7135,3.1885 5.6769998,64.875991 c 1.16331,27.937717 -15.13356881,33.803137 -54.820495,37.362497 l -1.427999,10e-6 c -39.357491,-3.22992 -56.972115,-10.08365 -54.820496,-37.362496 l 5.677,-64.876002 z"
       id="path1932"
       sodipodi:nodetypes="cccccccccc" />
    <path
       class="fabric sa"
       id="fs-8"
       d="m 36.062461,-114.82185 c -0.2064,2.7888 -0.43062,4.50615 -0.43062,8.04374 l -7.37898,1.19145 -4.416,5.1552 5.76,74.702398 8.4288,2.7552 c 3.94891,-4.57101 3.94891,-4.57101 3.94891,-4.57101 2.1456,20.6735999 3.49589,33.3181999 6.30389,59.10381 0.984,9.0528 1.9872,18.37441 2.9904,27.93601 7.6896,73.387192 15.384,160.919982 15.4512,248.452772 v 1.1376 l 4.8,4.80002 h 68.793589 l 4.8,-4.80002 c 0,-92.46719 15.75839,-172.6176 31.5024,-233.131182 9.8016,-37.656 19.60322,-67.7376101 25.63681,-88.48321 3.88321,-13.36319 6.17759,-23.044788 6.17759,-28.612788 l -4.80959,-4.800002 h -0.21119 c -13.77122,0 -22.3824,-2.371199 -27.85441,-11.5584 -4.32001,-7.252793 -6.86882,-18.129594 -9.07681,-33.907193 l -4.52641,-32.390395 -5.1072,-4.1232 -116.351979,8.664 z"
       style="fill:#babdb6;fill-opacity:1;stroke:#888a85;stroke-width:1;stroke-linecap:round;stroke-linejoin:round;stroke-miterlimit:4;stroke-dasharray:none;stroke-dashoffset:0;stroke-opacity:1"
       sodipodi:nodetypes="ccccccccccccccccccscccccc" />
    <path
       style="fill:none;fill-opacity:1;stroke:#ff0000;stroke-width:4;stroke-linecap:butt;stroke-linejoin:miter;stroke-miterlimit:4;stroke-dasharray:1, 1;stroke-dashoffset:0;stroke-opacity:1"
       d="m 6.9809512,-114.30785 5.6769998,64.875993 c 0.0326,27.560815 -12.96068881,31.154035 -52.64762,35.655655 l -1.497309,-0.0693 c -39.357491,-4.36062 -53.837738,-8.21233 -52.816831,-35.491174 l 5.752579,-64.737384"
       id="path1932-7"
       sodipodi:nodetypes="cccccc" />
    <path
       style="fill:none;stroke:#fb0000;stroke-width:4;stroke-linecap:butt;stroke-linejoin:miter;stroke-miterlimit:4;stroke-dasharray:1, 1;stroke-dashoffset:0;stroke-opacity:1"
       d="m 25.745051,-101.15196 6.02262,75.617348"
       id="path12299"
       sodipodi:nodetypes="cc" />
  </g>
</svg>
