<?xml version="1.0" encoding="UTF-8" standalone="no"?>
<svg
   xmlns:dc="http://purl.org/dc/elements/1.1/"
   xmlns:cc="http://creativecommons.org/ns#"
   xmlns:rdf="http://www.w3.org/1999/02/22-rdf-syntax-ns#"
   xmlns:svg="http://www.w3.org/2000/svg"
   xmlns="http://www.w3.org/2000/svg"
   xmlns:sodipodi="http://sodipodi.sourceforge.net/DTD/sodipodi-0.dtd"
   xmlns:inkscape="http://www.inkscape.org/namespaces/inkscape"
   width="156.18358mm"
   height="86.798203mm"
   viewBox="0 0 156.18358 86.7982"
   version="1.1"
   id="svg8011"
   inkscape:version="1.0.1 (c497b03c, 2020-09-10)"
   sodipodi:docname="step06.svg">
  <defs
     id="defs8005" />
  <sodipodi:namedview
     id="base"
     pagecolor="#ffffff"
     bordercolor="#666666"
     borderopacity="1.0"
     inkscape:pageopacity="0.0"
     inkscape:pageshadow="2"
     inkscape:zoom="3.0861644"
     inkscape:cx="489.05073"
     inkscape:cy="276.5961"
     inkscape:document-units="mm"
     inkscape:current-layer="layer1"
     inkscape:document-rotation="0"
     showgrid="false"
     showguides="false"
     inkscape:window-width="1294"
     inkscape:window-height="806"
     inkscape:window-x="0"
     inkscape:window-y="23"
     inkscape:window-maximized="0"
     fit-margin-bottom="-150"
     fit-margin-top="0"
     fit-margin-left="0"
     fit-margin-right="0" />
  <metadata
     id="metadata8008">
    <rdf:RDF>
      <cc:Work
         rdf:about="">
        <dc:format>image/svg+xml</dc:format>
        <dc:type
           rdf:resource="http://purl.org/dc/dcmitype/StillImage" />
        <dc:title />
      </cc:Work>
    </rdf:RDF>
  </metadata>
  <g
     inkscape:label="Layer 1"
     inkscape:groupmode="layer"
     id="layer1"
     transform="translate(-6.447473,-5.2276872)">
    <path
       class="fabric sa"
       id="fs-5"
       d="m 6.9474711,61.411968 c 0.6576293,6.182623 9.0571999,23.365572 19.1923239,49.065252 1.229927,3.12493 2.485767,6.37532 3.757317,9.74977 11.519998,30.63587 24.132135,71.46842 29.196171,119.07736 l 2.750404,2.22154 48.203093,-5.12722 2.22154,-2.75043 c -5.04076,-47.39015 -1.67597,-95.4808 2.58412,-135.08356 1.57094,-14.610607 3.26456,-28.06774 4.70687,-39.916751 l 1.97235,2.352077 1.94237,-0.612316 3.59857,-42.430198 -3.95628,-0.345983 c -0.0333,-1.494863 -0.1125,-2.85411 -0.24236,-4.074723 -0.0177,-0.166559 -0.0354,-0.333122 -0.0546,-0.494497 l -2.39818,-2.196163 -82.026473,-2.7544531 -2.552544,2.0967461 -4.031737,24.87347 c -1.780601,10.984955 -6.987083,18.550587 -15.349099,21.8586 -2.221891,0.879948 -4.656619,1.460727 -7.2917543,1.74102 z"
       style="fill:#e2e5de;fill-opacity:1;stroke:#888a85;stroke-width:1;stroke-linecap:round;stroke-linejoin:round;stroke-miterlimit:4;stroke-dasharray:none;stroke-dashoffset:0;stroke-opacity:1"
       sodipodi:nodetypes="cccccccccccccscccccccc" />
    <path
       class="fabric sa"
       id="fs-8"
       d="m 124.49654,12.550185 c 0.1075,1.4525 0.16,3.105 0.16,4.9475 l 3.9075,-0.1375 -3.31799,42.448269 -1.77202,0.579236 -2.27293,-2.725338 c -1.1175,10.767502 -1.60457,17.697828 -3.06706,31.127838 -0.51251,4.715 -1.03501,9.57 -1.55751,14.55 -4.005,38.22249 -8.01249,83.8125 -8.0475,129.40249 v 0.5925 l -2.5,2.50001 H 70.19904 l -2.50001,-2.50001 c 0,-48.16 -8.2075,-89.905 -16.4075,-121.42249 -5.105,-19.61251 -10.21,-35.28001 -13.3525,-46.085 -2.02249,-6.96 -3.2175,-12.002502 -3.2175,-14.902502 l 2.50501,-2.5 h 0.11 c 7.17249,0 11.65749,-1.235 14.5075,-6.02 2.24999,-3.7775 3.57749,-9.4425 4.72749,-17.66 l 2.35751,-16.8700021 2.66,-2.1475 60.6,4.5125001 z"
       style="fill:#babdb6;fill-opacity:1;stroke:#888a85;stroke-width:1;stroke-linecap:round;stroke-linejoin:round;stroke-miterlimit:4;stroke-dasharray:none;stroke-dashoffset:0;stroke-opacity:1"
       sodipodi:nodetypes="cccccccccccccccccssccccc" />
    <path
       class="lining sa"
       id="fs-13"
       d="m 162.13105,13.288869 -32.96,-2.1575 -2.6525,2.2775 -4.055,46.34 c 0.002,-0.0225 -0.002,0 -0.005,0.0375 -0.015,0.125 -0.04,0.3375 -0.0625,0.6225 -0.0375,0.4525 -0.075,1.1 -0.075,1.89 0,2.3275 0.335,5.8975 1.93,9.47 2.2975,5.14 7.1275,10.42 17.5675,11.885 l 19.8025,2.7825"
       style="fill:#babdb6;fill-opacity:1;stroke:#888a85;stroke-width:1;stroke-linecap:round;stroke-linejoin:round;stroke-miterlimit:4;stroke-dasharray:none;stroke-opacity:1"
       sodipodi:nodetypes="ccccccsccc" />
    <path
       style="fill:none;stroke:#888a85;stroke-width:1;stroke-linecap:butt;stroke-linejoin:miter;stroke-miterlimit:4;stroke-dasharray:none;stroke-opacity:1"
       d="m 162.13105,13.288869 -0.51,73.147498"
       id="path10502" />
    <path
       style="fill:none;stroke:#888a85;stroke-width:0.5;stroke-linecap:butt;stroke-linejoin:miter;stroke-miterlimit:4;stroke-dasharray:1.5, 0.5;stroke-dashoffset:0;stroke-opacity:1"
       d="m 128.66011,17.957492 -3.59857,42.430197"
       id="path10506"
       sodipodi:nodetypes="cc" />
    <path
       style="fill:none;stroke:#888a85;stroke-width:0.5;stroke-linecap:butt;stroke-linejoin:miter;stroke-miterlimit:4;stroke-dasharray:1.5, 0.50000000000000000;stroke-dashoffset:0;stroke-opacity:1"
       d="m 122.18904,10.240186 -0.2993,10.461988 6.47021,-0.01315 0.8111,-9.557655"
       id="path10508"
       sodipodi:nodetypes="cccc" />
    <path
       style="fill:none;stroke:#888a85;stroke-width:0.5;stroke-linecap:butt;stroke-linejoin:miter;stroke-miterlimit:4;stroke-dasharray:1.5, 0.50000000000000000;stroke-dashoffset:0;stroke-opacity:1"
       d="M 161.5079,83.83462 140.64952,80.81737 C 129.24334,79.120291 124.20511,69.029816 125.06154,60.387689 l 0.23936,-3.401621 -6.23219,-4.177553 c -3.72509,36.775478 -7.85528,71.622205 -10.69488,109.725925 -2.15225,24.63375 -1.96354,48.667 -2.3448,73.30075"
       id="path10510"
       sodipodi:nodetypes="ccccccc" />
    <path
       style="fill:none;stroke:#ff0000;stroke-width:0.5;stroke-linecap:butt;stroke-linejoin:miter;stroke-miterlimit:4;stroke-dasharray:none;stroke-dashoffset:0;stroke-opacity:1"
       d="m 123.46316,11.665789 1.03338,0.884396 -1.00752,0.80931 1.04276,1.023438 -1.13714,1.006118 1.12092,0.804564 -0.98794,0.845268 1.12892,0.458802 -0.0969,1.621965 0.90234,-1.514235 0.96696,1.120504 -0.12907,-1.840742"
       id="path11704"
       sodipodi:nodetypes="cccccccccccc" />
    <path
       style="fill:none;stroke:#e90000;stroke-width:0.5;stroke-linecap:butt;stroke-linejoin:miter;stroke-miterlimit:4;stroke-dasharray:none;stroke-opacity:1"
       d="m 122.46355,59.748867 1.94474,-1.253747 -2.17254,-0.16093 -0.18775,-2.574859 -0.8469,1.903018 -1.67432,-1.17884 1.26061,2.655326 -1.68975,0.804643 1.47518,1.26061 -1.47518,0.831466 1.34107,1.206966 -1.63611,0.858287 1.47518,1.072859 -1.55564,1.09968 1.36789,0.831464 -1.44836,0.965573 1.34108,1.019217 -1.68976,1.019215 1.42154,1.153324 -1.60929,0.992394 1.47518,1.153324 -1.68975,1.153321 1.44836,0.911931 -1.60929,1.019215 1.47518,0.911931 -1.75062,1.161733 1.48624,1.281242 -1.79374,1.178743 1.53749,1.537491"
       id="path11706"
       sodipodi:nodetypes="ccccccccccccccccccccccccccccc" />
    <path
       style="fill:none;stroke:#ee0000;stroke-width:2.00000006;stroke-linecap:butt;stroke-linejoin:miter;stroke-opacity:1;stroke-miterlimit:4;stroke-dasharray:0.50000001,0.50000001;stroke-dashoffset:0"
       d="m 117.44517,82.488406 c -3.65095,34.329574 -7.11601,67.172024 -9.27985,102.431044 l -0.83365,49.39835"
       id="path11708"
       sodipodi:nodetypes="ccc" />
  </g>
</svg>
