<?xml version="1.0" encoding="UTF-8" standalone="no"?>
<svg
   xmlns:dc="http://purl.org/dc/elements/1.1/"
   xmlns:cc="http://creativecommons.org/ns#"
   xmlns:rdf="http://www.w3.org/1999/02/22-rdf-syntax-ns#"
   xmlns:svg="http://www.w3.org/2000/svg"
   xmlns="http://www.w3.org/2000/svg"
   xmlns:sodipodi="http://sodipodi.sourceforge.net/DTD/sodipodi-0.dtd"
   xmlns:inkscape="http://www.inkscape.org/namespaces/inkscape"
   width="280.55109mm"
   height="85.939522mm"
   viewBox="0 0 280.55109 85.939519"
   version="1.1"
   id="svg8011"
   inkscape:version="1.0.1 (c497b03c, 2020-09-10)"
   sodipodi:docname="step3b.svg">
  <defs
     id="defs8005" />
  <sodipodi:namedview
     id="base"
     pagecolor="#ffffff"
     bordercolor="#666666"
     borderopacity="1.0"
     inkscape:pageopacity="0.0"
     inkscape:pageshadow="2"
     inkscape:zoom="0.63976237"
     inkscape:cx="531.37102"
     inkscape:cy="300.46722"
     inkscape:document-units="mm"
     inkscape:current-layer="layer1"
     inkscape:document-rotation="0"
     showgrid="false"
     showguides="false"
     inkscape:window-width="1252"
     inkscape:window-height="806"
     inkscape:window-x="0"
     inkscape:window-y="23"
     inkscape:window-maximized="0"
     fit-margin-bottom="-150"
     fit-margin-top="0"
     fit-margin-left="0"
     fit-margin-right="0" />
  <metadata
     id="metadata8008">
    <rdf:RDF>
      <cc:Work
         rdf:about="">
        <dc:format>image/svg+xml</dc:format>
        <dc:type
           rdf:resource="http://purl.org/dc/dcmitype/StillImage" />
        <dc:title></dc:title>
      </cc:Work>
    </rdf:RDF>
  </metadata>
  <g
     inkscape:label="Layer 1"
     inkscape:groupmode="layer"
     id="layer1"
     transform="translate(-6.447473,-6.0863682)">
    <path
       class="fabric sa"
       id="fs-5"
       d="m 6.9474711,61.411968 c 0.6576293,6.182623 9.0571999,23.365572 19.1923239,49.065252 1.229927,3.12493 2.485767,6.37532 3.757317,9.74977 11.519998,30.63587 24.132135,71.46842 29.196171,119.07736 l 2.750404,2.22154 48.203093,-5.12722 2.22154,-2.75043 c -5.04076,-47.39015 -1.67597,-95.4808 2.58412,-135.08356 1.57094,-14.610607 3.26456,-28.06774 4.70687,-39.916751 l 1.97235,2.352077 4.40532,-1.388744 3.40723,-38.946353 -2.27161,-2.707417 -3.95628,-0.345983 c -0.0333,-1.494863 -0.1125,-2.85411 -0.24236,-4.074723 -0.0177,-0.166559 -0.0354,-0.333122 -0.0546,-0.494497 l -2.39818,-2.196163 -82.026473,-2.7544531 -2.552544,2.0967461 -4.031737,24.87347 c -1.780601,10.984955 -6.987083,18.550587 -15.349099,21.8586 -2.221891,0.879948 -4.656619,1.460727 -7.2917543,1.74102 z"
       style="fill:#babdb6;fill-opacity:1;stroke:#888a85;stroke-width:1;stroke-linecap:round;stroke-linejoin:round;stroke-miterlimit:4;stroke-dasharray:none;stroke-dashoffset:0;stroke-opacity:1" />
    <path
       class="fabric sa"
       id="fs-8"
       d="m 196.72354,13.408866 c -0.1075,1.4525 -0.16,3.105 -0.16,4.9475 l -3.9075,-0.1375 -2.29999,2.685003 3,38.907502 4.39,1.435 c 2.27293,-2.725338 2.27293,-2.725338 2.27293,-2.725338 1.1175,10.767502 1.60457,17.697828 3.06706,31.127838 0.51251,4.715 1.03501,9.57 1.55751,14.549999 4.005,38.22249 8.01249,83.8125 8.0475,129.40249 v 0.5925 l 2.5,2.50001 h 35.82999 l 2.50001,-2.50001 c 0,-48.16 8.2075,-89.905 16.4075,-121.42249 5.105,-19.612509 10.21,-35.280009 13.3525,-46.084999 2.02249,-6.96 3.2175,-12.002502 3.2175,-14.902502 l -2.50501,-2.5 h -0.11 c -7.17249,0 -11.65749,-1.235 -14.5075,-6.02 -2.24999,-3.7775 -3.57749,-9.4425 -4.72749,-17.66 l -2.35751,-16.8700021 -2.66,-2.1475 -60.6,4.5125001 z"
       style="fill:#babdb6;fill-opacity:1;stroke:#888a85;stroke-width:1;stroke-linecap:round;stroke-linejoin:round;stroke-miterlimit:4;stroke-dasharray:none;stroke-dashoffset:0;stroke-opacity:1"
       sodipodi:nodetypes="ccccccccccccccccccssccccc" />
    <g
       id="g8612"
       style="stroke:#888a85;stroke-width:1;stroke-miterlimit:4;stroke-dasharray:none;stroke-opacity:1"
       transform="translate(-13.457391,4.6342157)">
      <path
         class="lining sa"
         id="fs-13"
         d="m 174.00093,9.1838201 -32.96,-2.1575 -2.6525,2.2775 -4.055,46.3399999 c 0.002,-0.0225 -0.002,0 -0.005,0.0375 -0.015,0.125 -0.04,0.3375 -0.0625,0.6225 -0.0375,0.4525 -0.075,1.1 -0.075,1.89 0,2.3275 0.335,5.8975 1.93,9.47 2.2975,5.14 7.1275,10.42 17.5675,11.885 l 19.8025,2.7825"
         style="fill:#babdb6;fill-opacity:1;stroke:#888a85;stroke-width:1;stroke-linecap:round;stroke-linejoin:round;stroke-miterlimit:4;stroke-dasharray:none;stroke-opacity:1"
         sodipodi:nodetypes="ccccccsccc" />
      <path
         class="lining sa"
         id="fs-13-9"
         d="m 172.98093,9.183817 32.96,-2.1575 2.6525,2.2775 4.055,46.34 c -0.002,-0.02249 0.002,0 0.005,0.0375 0.015,0.125003 0.04,0.337503 0.0625,0.622501 0.0375,0.452501 0.075,1.1 0.075,1.890001 0,2.3275 -0.335,5.897499 -1.93,9.469999 -2.2975,5.140002 -7.1275,10.42 -17.5675,11.885001 l -19.8025,2.782501"
         style="fill:#babdb6;fill-opacity:1;stroke:#888a85;stroke-width:1;stroke-linecap:round;stroke-linejoin:round;stroke-miterlimit:4;stroke-dasharray:none;stroke-opacity:1"
         sodipodi:nodetypes="ccccccsccc" />
    </g>
    <path
       style="fill:none;stroke:#888a85;stroke-width:0.5;stroke-linecap:butt;stroke-linejoin:miter;stroke-miterlimit:4;stroke-dasharray:1.5, 0.5;stroke-dashoffset:0;stroke-opacity:1"
       d="m 127.0726,17.957492 -3.71261,42.376367"
       id="path8614" />
    <path
       style="fill:none;stroke:#888a85;stroke-width:0.5;stroke-linecap:butt;stroke-linejoin:miter;stroke-miterlimit:4;stroke-dasharray:1.5, 0.5;stroke-dashoffset:0;stroke-opacity:1"
       d="m 192.65604,18.218866 3.39665,42.354421"
       id="path8618" />
  </g>
</svg>
