<?xml version="1.0" encoding="UTF-8" standalone="no"?>
<svg
   xmlns:dc="http://purl.org/dc/elements/1.1/"
   xmlns:cc="http://creativecommons.org/ns#"
   xmlns:rdf="http://www.w3.org/1999/02/22-rdf-syntax-ns#"
   xmlns:svg="http://www.w3.org/2000/svg"
   xmlns="http://www.w3.org/2000/svg"
   xmlns:sodipodi="http://sodipodi.sourceforge.net/DTD/sodipodi-0.dtd"
   xmlns:inkscape="http://www.inkscape.org/namespaces/inkscape"
   width="233.93144mm"
   height="121.46396mm"
   viewBox="0 0 233.93145 121.46395"
   version="1.1"
   id="svg8011"
   inkscape:version="1.0.1 (c497b03c, 2020-09-10)"
   sodipodi:docname="step08.svg">
  <defs
     id="defs8005" />
  <sodipodi:namedview
     id="base"
     pagecolor="#ffffff"
     bordercolor="#666666"
     borderopacity="1.0"
     inkscape:pageopacity="0.0"
     inkscape:pageshadow="2"
     inkscape:zoom="0.30196248"
     inkscape:cx="721.20929"
     inkscape:cy="86.190889"
     inkscape:document-units="mm"
     inkscape:current-layer="layer1"
     inkscape:document-rotation="0"
     showgrid="false"
     showguides="false"
     inkscape:window-width="1294"
     inkscape:window-height="806"
     inkscape:window-x="0"
     inkscape:window-y="23"
     inkscape:window-maximized="0"
     fit-margin-bottom="0"
     fit-margin-top="0"
     fit-margin-left="0"
     fit-margin-right="0" />
  <metadata
     id="metadata8008">
    <rdf:RDF>
      <cc:Work
         rdf:about="">
        <dc:format>image/svg+xml</dc:format>
        <dc:type
           rdf:resource="http://purl.org/dc/dcmitype/StillImage" />
        <dc:title></dc:title>
      </cc:Work>
    </rdf:RDF>
  </metadata>
  <g
     inkscape:label="Layer 1"
     inkscape:groupmode="layer"
     id="layer1"
     transform="translate(24.140479,-37.255705)">
    <path
       class="fabric sa"
       id="fs-5"
       d="m 144.57918,38.095881 c -5.77327,2.307966 -19.57932,11.040528 -44.13041,26.186853 -2.674876,2.030506 -9.43034,5.060035 -12.334128,7.198204 -26.33414,16.381575 -64.138971,33.492122 -110.025878,47.435572 l -1.729247,3.0838 9.541048,34.82601 3.249413,1.39335 c 44.252406,-17.69068 104.218529,-23.72622 143.494442,-30.35418 11.20553,-3.04953 69.09308,-12.77165 69.09308,-12.77165 1.42994,-0.43702 2.7169,-0.8815 3.85669,-1.33717 0.15553,-0.0622 0.31107,-0.12433 0.46121,-0.18653 l 1.46435,-2.90346 c -0.51908,-6.88398 0.13127,-15.671463 1.708,-23.323121 0.80835,-8.809247 -6.23711,-9.748844 -5.86063,-18.9125 -0.17196,-6.55768 1.30177,-8.327123 1.05778,-14.508859 l -2.70985,-1.889064 -25.03556,2.857476 c -11.05655,1.261908 -19.74975,-1.70028 -25.1994,-8.853428 -1.44898,-1.900417 -2.66763,-4.08676 -3.65132,-6.54742 z"
       style="fill:#e2e5de;fill-opacity:1;stroke:#888a85;stroke-width:1;stroke-linecap:round;stroke-linejoin:round;stroke-miterlimit:4;stroke-dasharray:none;stroke-dashoffset:0;stroke-opacity:1"
       sodipodi:nodetypes="cccccccccscccccccccc" />
    <path
       class="fabric sa"
       id="fs-8"
       d="m 206.00445,113.77744 c -1.36906,0.49697 -2.94554,0.99519 -4.71914,1.49434 l -39.59882,7.55474 c -10.66759,1.8413 -17.47071,3.24994 -30.7947,5.48045 -4.67753,0.78399 -9.49253,1.59629 -14.42785,2.44246 -37.878148,6.49958 -82.848983,14.99269 -126.743619,27.30973 l -0.570343,0.16051 -3.083795,-1.72923 -9.706666,-34.49013 1.729247,-3.0838 C 24.447819,105.86954 62.408278,86.659859 90.525717,70.228127 108.02183,60.000824 121.72045,50.842259 131.27005,44.890104 c 6.15182,-3.832385 10.68202,-6.348767 13.47358,-7.134403 l 3.08514,1.734063 0.0298,0.105886 c 1.94309,6.904275 4.34694,10.886985 9.72509,12.33412 4.24579,1.142492 10.05858,0.885651 18.28033,-0.233548 l 16.87782,-2.300884 2.78781,1.978752 12.07333,59.55634 z"
       style="fill:#babdb6;fill-opacity:1;stroke:#888a85;stroke-width:1;stroke-linecap:round;stroke-linejoin:round;stroke-miterlimit:4;stroke-dasharray:none;stroke-dashoffset:0;stroke-opacity:1"
       sodipodi:nodetypes="ccccccccccccccssccccc" />
    <path
       class="lining sa"
       id="fs-13"
       d="m 200.55932,75.99924 6.12214,32.45822 -1.9405,2.90814 -45.51113,9.62157 c 0.022,-0.006 2.5e-4,0.002 -0.0366,0.01 -0.12227,0.03 -0.3302,0.0806 -0.61041,0.13724 -0.44466,0.0918 -1.0829,0.20729 -1.86711,0.3027 -2.31047,0.28107 -5.8948,0.37963 -9.63377,-0.77222 -5.37983,-1.65995 -11.2045,-5.81696 -13.91956,-16.00364 l -5.15362,-19.321546"
       style="fill:#babdb6;fill-opacity:1;stroke:#888a85;stroke-width:1;stroke-linecap:round;stroke-linejoin:round;stroke-miterlimit:4;stroke-dasharray:none;stroke-opacity:1"
       sodipodi:nodetypes="ccccccsccc" />
    <path
       style="fill:none;stroke:#888a85;stroke-width:1;stroke-linecap:butt;stroke-linejoin:miter;stroke-miterlimit:4;stroke-dasharray:none;stroke-opacity:1"
       d="m 200.55932,75.99924 -72.55048,9.340354"
       id="path10502"
       sodipodi:nodetypes="cc" />
    <path
       style="fill:none;stroke:#888a85;stroke-width:0.5;stroke-linecap:butt;stroke-linejoin:miter;stroke-miterlimit:4;stroke-dasharray:1.5, 0.5;stroke-dashoffset:0;stroke-opacity:1"
       d="m 130.35386,85.260681 5.19104,19.016619 c 1.97013,10.91947 11.69952,17.17764 21.82068,15.33369 m 0.24894,1.67373 c -15.45096,2.8939 -79.105378,13.12794 -100.353443,17.605 -24.295634,4.60174 -47.3790369,11.29421 -71.194894,17.60072"
       id="path10510"
       sodipodi:nodetypes="cccccc" />
    <path
       style="fill:none;stroke:#ff0000;stroke-width:0.5;stroke-linecap:butt;stroke-linejoin:miter;stroke-miterlimit:4;stroke-dasharray:1.5, 0.5;stroke-dashoffset:0;stroke-opacity:1"
       d="M 147.82877,39.489762 C 130.76892,47.626697 112.6619,61.253218 91.496426,73.643887 72.101363,84.867122 53.196317,94.994248 31.382187,103.86398 c -18.007722,7.22928 -34.9751472,13.04789 -55.02267,18.13633"
       id="path873"
       sodipodi:nodetypes="cccc" />
    <path
       style="fill:none;stroke:#888a85;stroke-width:0.5;stroke-linecap:butt;stroke-linejoin:miter;stroke-miterlimit:4;stroke-dasharray:1.5, 0.5;stroke-dashoffset:0;stroke-opacity:1"
       d="m 157.36557,119.61099 49.31589,-11.15353 v 0"
       id="path846" />
    <path
       style="fill:none;stroke:#888a85;stroke-width:0.5;stroke-linecap:butt;stroke-linejoin:miter;stroke-miterlimit:4;stroke-dasharray:2, 2;stroke-dashoffset:0;stroke-opacity:1"
       d="M 199.32135,76.221307 205.6385,109.6963"
       id="path850" />
    <path
       style="fill:none;stroke:#888a85;stroke-width:1;stroke-linecap:butt;stroke-linejoin:miter;stroke-miterlimit:4;stroke-dasharray:none;stroke-opacity:1"
       d="m 201.28531,115.27178 -0.65285,-2.98712"
       id="path854" />
    <path
       style="fill:none;stroke:#888a85;stroke-width:1;stroke-linecap:butt;stroke-linejoin:miter;stroke-miterlimit:4;stroke-dasharray:none;stroke-opacity:1"
       d="m 159.22983,120.98717 2.25073,1.84664"
       id="path856"
       sodipodi:nodetypes="cc" />
  </g>
</svg>
