<svg xmlns="http://www.w3.org/2000/svg" viewBox="75 0 95 24"><g fill="none"><path fill="#5468FF" d="M78.988.938h16.594a2.968 2.968 0 0 1 2.966 2.966V20.5a2.967 2.967 0 0 1-2.966 2.964H78.988a2.967 2.967 0 0 1-2.966-2.964V3.897A2.961 2.961 0 0 1 78.988.938zm41.937 17.866c-4.386.02-4.386-3.54-4.386-4.106l-.007-13.336 2.675-.424v13.254c0 .322 0 2.358 1.718 2.364v2.248zm-10.846-2.18c.821 0 1.43-.047 1.855-.129v-2.719a6.334 6.334 0 0 0-1.574-.199 5.7 5.7 0 0 0-.897.069 2.699 2.699 0 0 0-.814.24c-.24.116-.439.28-.582.491-.15.212-.219.335-.219.656 0 .628.219.991.616 1.23s.938.362 1.615.362zm-.233-9.7c.883 0 1.629.109 2.231.328.602.218 1.088.525 1.444.915.363.396.609.922.76 1.483.157.56.232 1.175.232 1.85v6.874a32.5 32.5 0 0 1-1.868.314c-.834.123-1.772.185-2.813.185-.69 0-1.327-.069-1.895-.198a4.001 4.001 0 0 1-1.471-.636 3.085 3.085 0 0 1-.951-1.134c-.226-.465-.343-1.12-.343-1.803 0-.656.13-1.073.384-1.525a3.24 3.24 0 0 1 1.047-1.106c.445-.287.95-.492 1.532-.615a8.8 8.8 0 0 1 1.82-.185 8.404 8.404 0 0 1 1.972.24v-.438c0-.307-.035-.6-.11-.874a1.88 1.88 0 0 0-.384-.73 1.784 1.784 0 0 0-.724-.493 3.164 3.164 0 0 0-1.143-.205c-.616 0-1.177.075-1.69.164a7.735 7.735 0 0 0-1.26.307l-.321-2.192c.335-.117.834-.233 1.478-.349a10.98 10.98 0 0 1 2.073-.178zm52.842 9.626c.822 0 1.43-.048 1.854-.13V13.7a6.347 6.347 0 0 0-1.574-.199c-.294 0-.595.021-.896.069a2.7 2.7 0 0 0-.814.24 1.46 1.46 0 0 0-.582.491c-.15.212-.218.335-.218.656 0 .628.218.991.615 1.23.404.245.938.362 1.615.362zm-.226-9.694c.883 0 1.629.108 2.231.327.602.219 1.088.526 1.444.915.355.39.609.923.759 1.483a6.8 6.8 0 0 1 .233 1.852v6.873c-.41.088-1.034.19-1.868.314-.834.123-1.772.184-2.813.184-.69 0-1.327-.068-1.895-.198a4.001 4.001 0 0 1-1.471-.635 3.085 3.085 0 0 1-.951-1.134c-.226-.465-.343-1.12-.343-1.804 0-.656.13-1.073.384-1.524.26-.45.608-.82 1.047-1.107.445-.286.95-.491 1.532-.614a8.803 8.803 0 0 1 2.751-.13c.329.034.671.096 1.04.185v-.437a3.3 3.3 0 0 0-.109-.875 1.873 1.873 0 0 0-.384-.731 1.784 1.784 0 0 0-.724-.492 3.165 3.165 0 0 0-1.143-.205c-.616 0-1.177.075-1.69.164a7.75 7.75 0 0 0-1.26.307l-.321-2.193c.335-.116.834-.232 1.478-.348a11.633 11.633 0 0 1 2.073-.177zm-8.034-1.271a1.626 1.626 0 0 1-1.628-1.62c0-.895.725-1.62 1.628-1.62.904 0 1.63.725 1.63 1.62 0 .895-.733 1.62-1.63 1.62zm1.348 13.22h-2.689V7.27l2.69-.423v11.956zm-4.714 0c-4.386.02-4.386-3.54-4.386-4.107l-.008-13.336 2.676-.424v13.254c0 .322 0 2.358 1.718 2.364v2.248zm-8.698-5.903c0-1.156-.253-2.119-.746-2.788-.493-.677-1.183-1.01-2.067-1.01-.882 0-1.574.333-2.065 1.01-.493.676-.733 1.632-.733 2.788 0 1.168.246 1.953.74 2.63.492.683 1.183 1.018 2.066 1.018.882 0 1.574-.342 2.067-1.019.492-.683.738-1.46.738-2.63zm2.737-.007c0 .902-.13 1.584-.397 2.33a5.52 5.52 0 0 1-1.128 1.906 4.986 4.986 0 0 1-1.752 1.223c-.685.286-1.739.45-2.265.45-.528-.006-1.574-.157-2.252-.45a5.096 5.096 0 0 1-1.744-1.223c-.487-.527-.863-1.162-1.137-1.906a6.345 6.345 0 0 1-.41-2.33c0-.902.123-1.77.397-2.508a5.554 5.554 0 0 1 1.15-1.892 5.133 5.133 0 0 1 1.75-1.216c.679-.287 1.425-.423 2.232-.423.808 0 1.553.142 2.237.423a4.88 4.88 0 0 1 1.753 1.216 5.644 5.644 0 0 1 1.135 1.892c.287.738.431 1.606.431 2.508zm-20.138 0c0 1.12.246 2.363.738 2.882.493.52 1.13.78 1.91.78.424 0 .828-.062 1.204-.178.377-.116.677-.253.917-.417V9.33a10.476 10.476 0 0 0-1.766-.226c-.971-.028-1.71.37-2.23 1.004-.513.636-.773 1.75-.773 2.788zm7.438 5.274c0 1.824-.466 3.156-1.404 4.004-.936.846-2.367 1.27-4.296 1.27-.705 0-2.17-.137-3.34-.396l.431-2.118c.98.205 2.272.26 2.95.26 1.074 0 1.84-.219 2.299-.656.459-.437.684-1.086.684-1.948v-.437a8.07 8.07 0 0 1-1.047.397c-.43.13-.93.198-1.492.198-.739 0-1.41-.116-2.018-.349a4.206 4.206 0 0 1-1.567-1.025c-.431-.45-.774-1.017-1.013-1.694-.24-.677-.363-1.885-.363-2.773 0-.834.13-1.88.384-2.577.26-.696.629-1.298 1.129-1.796.493-.498 1.095-.881 1.8-1.162a6.605 6.605 0 0 1 2.428-.457c.87 0 1.67.109 2.45.24.78.129 1.444.265 1.985.415V18.17z"/><path fill="#FFF" d="M89.632 5.967v-.772a.978.978 0 0 0-.978-.977h-2.28a.978.978 0 0 0-.978.977v.793c0 .088.082.15.171.13a7.127 7.127 0 0 1 1.984-.28c.65 0 1.295.088 1.917.259.082.02.164-.04.164-.13m-6.248 1.01l-.39-.389a.977.977 0 0 0-1.382 0l-.465.465a.973.973 0 0 0 0 1.38l.383.383c.062.061.15.047.205-.014.226-.307.472-.601.746-.874.281-.28.568-.526.883-.751.068-.042.075-.137.02-.2m4.16 2.453v3.341c0 .096.104.165.192.117l2.97-1.537c.068-.034.089-.117.055-.184a3.695 3.695 0 0 0-3.08-1.866c-.068 0-.136.054-.136.13m0 8.048a4.489 4.489 0 0 1-4.49-4.482 4.488 4.488 0 0 1 4.49-4.482 4.488 4.488 0 0 1 4.489 4.482 4.484 4.484 0 0 1-4.49 4.482m0-10.85a6.363 6.363 0 1 0 0 12.729 6.37 6.37 0 0 0 6.372-6.368 6.358 6.358 0 0 0-6.371-6.36"/></g></svg>
