<?xml version="1.0" encoding="UTF-8" standalone="no"?>
<!-- Created with Inkscape (http://www.inkscape.org/) -->

<svg
   xmlns:dc="http://purl.org/dc/elements/1.1/"
   xmlns:cc="http://creativecommons.org/ns#"
   xmlns:rdf="http://www.w3.org/1999/02/22-rdf-syntax-ns#"
   xmlns:svg="http://www.w3.org/2000/svg"
   xmlns="http://www.w3.org/2000/svg"
   xmlns:sodipodi="http://sodipodi.sourceforge.net/DTD/sodipodi-0.dtd"
   xmlns:inkscape="http://www.inkscape.org/namespaces/inkscape"
   version="1.1"
   width="913.932"
   height="580.001"
   id="svg4180"
   inkscape:version="0.47 r22583"
   sodipodi:docname="lapelBreakPoint.svg">
  <metadata
     id="metadata8044">
    <rdf:RDF>
      <cc:Work
         rdf:about="">
        <dc:format>image/svg+xml</dc:format>
        <dc:type
           rdf:resource="http://purl.org/dc/dcmitype/StillImage" />
        <dc:title></dc:title>
      </cc:Work>
    </rdf:RDF>
  </metadata>
  <sodipodi:namedview
     pagecolor="#ffffff"
     bordercolor="#666666"
     borderopacity="1"
     objecttolerance="10"
     gridtolerance="10"
     guidetolerance="10"
     inkscape:pageopacity="0"
     inkscape:pageshadow="2"
     inkscape:window-width="1832"
     inkscape:window-height="1057"
     id="namedview8042"
     showgrid="false"
     inkscape:zoom="0.830769"
     inkscape:cx="504.808"
     inkscape:cy="229.326"
     inkscape:window-x="-8"
     inkscape:window-y="-8"
     inkscape:window-maximized="0"
     inkscape:current-layer="svg4180" />
  <defs
     id="defs4182">
    <inkscape:perspective
       sodipodi:type="inkscape:persp3d"
       inkscape:vp_x="0 : 325 : 1"
       inkscape:vp_y="0 : 1000 : 0"
       inkscape:vp_z="1000 : 325 : 1"
       inkscape:persp3d-origin="500 : 216.667 : 1"
       id="perspective8046" />
    <marker
       refX="0"
       refY="0"
       orient="auto"
       id="Arrow1Mend"
       style="overflow:visible">
      <path
         d="M 0,0 5,-5 -12.5,0 5,5 0,0 z"
         transform="matrix(-0.4,0,0,-0.4,-4,0)"
         id="path4844"
         style="fill-rule:evenodd;stroke:#000000;stroke-width:1pt;marker-start:none" />
    </marker>
    <marker
       refX="0"
       refY="0"
       orient="auto"
       id="Arrow1Mstart"
       style="overflow:visible">
      <path
         d="M 0,0 5,-5 -12.5,0 5,5 0,0 z"
         transform="matrix(0.4,0,0,0.4,4,0)"
         id="path4841"
         style="fill-rule:evenodd;stroke:#000000;stroke-width:1pt;marker-start:none" />
    </marker>
    <marker
       refX="0"
       refY="0"
       orient="auto"
       id="Arrow1Mstartz"
       style="overflow:visible">
      <path
         d="M 0,0 5,-5 -12.5,0 5,5 0,0 z"
         transform="matrix(0.4,0,0,0.4,4,0)"
         id="path5479"
         style="fill:#ff5b77;fill-rule:evenodd;stroke:#ff5b77;stroke-width:1pt;marker-start:none" />
    </marker>
    <marker
       refX="0"
       refY="0"
       orient="auto"
       id="Arrow1Mends"
       style="overflow:visible">
      <path
         d="M 0,0 5,-5 -12.5,0 5,5 0,0 z"
         transform="matrix(-0.4,0,0,-0.4,-4,0)"
         id="path5482"
         style="fill:#ff5b77;fill-rule:evenodd;stroke:#ff5b77;stroke-width:1pt;marker-start:none" />
    </marker>
    <marker
       refX="0"
       refY="0"
       orient="auto"
       id="Arrow1Mstartz-9"
       style="overflow:visible">
      <path
         d="M 0,0 5,-5 -12.5,0 5,5 0,0 z"
         transform="matrix(0.4,0,0,0.4,4,0)"
         id="path5479-7"
         style="fill:#ff5b77;fill-rule:evenodd;stroke:#ff5b77;stroke-width:1pt;marker-start:none" />
    </marker>
    <marker
       refX="0"
       refY="0"
       orient="auto"
       id="Arrow1Mends-9"
       style="overflow:visible">
      <path
         d="M 0,0 5,-5 -12.5,0 5,5 0,0 z"
         transform="matrix(-0.4,0,0,-0.4,-4,0)"
         id="path5482-4"
         style="fill:#ff5b77;fill-rule:evenodd;stroke:#ff5b77;stroke-width:1pt;marker-start:none" />
    </marker>
  </defs>
  <rect
     style="fill:#8e8e8e;stroke:#545454;stroke-width:2.61989;stroke-linecap:round;stroke-linejoin:round;stroke-miterlimit:4;stroke-opacity:1;stroke-dasharray:none;stroke-dashoffset:0"
     id="rect3710"
     y="25.2976"
     x="166.827"
     height="543.611"
     width="103.376" />
  <path
     style="fill:#212121;fill-opacity:1;stroke:#545454;stroke-width:1.309945;stroke-linecap:round;stroke-linejoin:round;stroke-miterlimit:4;stroke-opacity:1;stroke-dasharray:none;stroke-dashoffset:0"
     id="path3712"
     d="M 215.032,26.7804 215.032,567.887" />
  <path
     d="M 143.442,35.1117 67.6538,64.8186 C 87.6668,115.165 93.5168,171.597 86.1318,204.469 93.9618,228.446 96.7968,283.867 97.1248,324.701 97.7878,406.738 81.4548,577.334 81.4548,577.334 81.4548,577.334 152.562,578.021 175.779,578.681 208.37,579.611 213.618,514.543 213.618,460.841 213.618,460.841 227.147,344.84 219.699,287.509 200.107,283.553 143.442,35.1117 143.442,35.1117 z"
     id="path3678"
     style="fill:#212121;fill-opacity:1;stroke:#545454;stroke-width:2.61989;stroke-linecap:round;stroke-linejoin:round;stroke-miterlimit:4;stroke-opacity:1;stroke-dasharray:none;stroke-dashoffset:0" />
  <path
     d="M 68.1358,64.761 C 56.4298,66.1967 51.2057,102.744 39.5629,154.618 16.7594,256.238 16.5603,425.284 3.09144,527.509 L 56.6738,533.357 C 68.3848,428.684 82.1098,323.179 89.7468,220.133 88.9948,215.21 87.4968,209.774 86.1498,204.644 92.7888,174.199 88.7248,117.379 68.1358,64.761 z"
     id="path3680"
     style="fill:#212121;fill-opacity:1;stroke:#545454;stroke-width:2.61989;stroke-linecap:round;stroke-linejoin:round;stroke-miterlimit:4;stroke-opacity:1;stroke-dasharray:none;stroke-dashoffset:0" />
  <path
     d="M 143.442,35.1117 67.6538,64.8186 C 87.6668,115.165 93.5168,171.597 86.1318,204.469 93.9618,228.446 96.7968,283.867 97.1248,324.701 97.7878,406.738 81.4548,577.334 81.4548,577.334 81.4548,577.334 152.562,578.021 175.779,578.681 208.37,579.611 213.618,514.543 213.618,460.841 213.618,460.841 227.147,344.84 219.699,287.509 200.107,283.553 143.442,35.1117 143.442,35.1117 z"
     id="path3692"
     style="fill:#212121;stroke:#545454;stroke-width:2.61989;stroke-linecap:round;stroke-linejoin:round;stroke-miterlimit:4;stroke-opacity:1;stroke-dasharray:none;stroke-dashoffset:0" />
  <path
     d="M 174.32,61.0748 128.239,95.4613 C 158.627,160.609 186.314,242.651 219.838,288.206 208.449,250.815 196.812,206.465 188.603,162.097 182.512,129.173 175.307,96.1863 174.32,61.0748 z"
     id="path3694"
     style="fill:#212121;fill-opacity:1;stroke:#545454;stroke-width:2.61989;stroke-linecap:round;stroke-linejoin:round;stroke-miterlimit:4;stroke-opacity:1;stroke-dasharray:none;stroke-dashoffset:0" />
  <path
     d="M 174.553,8.44384 C 152.069,24.3413 130.672,41.1296 126.368,71.9633 L 153.159,76.8593 174.32,61.08 174.553,8.44384 z"
     id="path3696"
     style="fill:#212121;fill-opacity:1;stroke:#545454;stroke-width:2.61989;stroke-linecap:round;stroke-linejoin:round;stroke-miterlimit:4;stroke-opacity:1;stroke-dasharray:none;stroke-dashoffset:0" />
  <path
     d="M 286.584,35.1117 362.372,64.8186 C 342.359,115.165 336.509,171.597 343.894,204.469 336.064,228.446 333.229,283.867 332.901,324.701 332.238,406.738 348.571,577.334 348.571,577.334 348.571,577.334 277.464,578.021 254.247,578.681 201.42,558.772 207.705,334.628 210.327,287.509 229.919,283.553 286.584,35.1117 286.584,35.1117 z"
     id="path2855"
     style="fill:#212121;fill-opacity:1;stroke:#545454;stroke-width:2.61989;stroke-linecap:round;stroke-linejoin:round;stroke-miterlimit:4;stroke-opacity:1;stroke-dasharray:none;stroke-dashoffset:0" />
  <path
     d="M 361.89,64.761 C 373.596,66.1967 378.82,102.744 390.463,154.618 413.266,256.238 413.466,425.284 426.934,527.509 L 373.352,533.357 C 361.641,428.684 347.916,323.179 340.279,220.133 341.031,215.21 342.529,209.774 343.876,204.644 337.237,174.199 341.301,117.379 361.89,64.761 z"
     id="path2857"
     style="fill:#212121;fill-opacity:1;stroke:#545454;stroke-width:2.61989;stroke-linecap:round;stroke-linejoin:round;stroke-miterlimit:4;stroke-opacity:1;stroke-dasharray:none;stroke-dashoffset:0" />
  <path
     d="M 286.584,35.1117 362.372,64.8186 C 342.359,115.165 336.509,171.597 343.894,204.469 336.064,228.446 333.229,283.867 332.901,324.701 332.238,406.738 348.571,577.334 348.571,577.334 348.571,577.334 277.464,578.021 254.247,578.681 201.42,558.772 207.705,334.628 210.327,287.509 229.919,283.553 286.584,35.1117 286.584,35.1117 z"
     id="path3644"
     style="fill:#212121;stroke:#545454;stroke-width:2.61989;stroke-linecap:round;stroke-linejoin:round;stroke-miterlimit:4;stroke-opacity:1;stroke-dasharray:none;stroke-dashoffset:0" />
  <rect
     width="62.8879"
     height="15.2513"
     x="236.274"
     y="202.591"
     transform="matrix(0.99561,-0.093602,0.093602,0.99561,0,0)"
     id="rect3636"
     style="fill:#212121;fill-opacity:0.301653;stroke:#545454;stroke-width:2.585929;stroke-linecap:round;stroke-linejoin:round;stroke-miterlimit:4;stroke-opacity:1;stroke-dasharray:none;stroke-dashoffset:0" />
  <path
     d="M 255.706,61.0748 301.787,95.4613 C 271.399,160.609 243.712,242.651 210.188,288.206 221.577,250.815 233.214,206.465 241.423,162.097 247.514,129.173 254.719,96.1863 255.706,61.0748 z"
     id="path2853"
     style="fill:#212121;fill-opacity:1;stroke:#545454;stroke-width:2.61989;stroke-linecap:round;stroke-linejoin:round;stroke-miterlimit:4;stroke-opacity:1;stroke-dasharray:none;stroke-dashoffset:0" />
  <path
     d="M 255.473,8.44384 C 277.957,24.3413 299.354,41.1296 303.658,71.9633 L 276.867,76.8593 255.706,61.08 255.473,8.44384 z"
     id="path2851"
     style="fill:#212121;fill-opacity:1;stroke:#545454;stroke-width:2.61989;stroke-linecap:round;stroke-linejoin:round;stroke-miterlimit:4;stroke-opacity:1;stroke-dasharray:none;stroke-dashoffset:0" />
  <path
     style="fill:#212121;fill-opacity:1;stroke:#545454;stroke-width:2.61989;stroke-linecap:round;stroke-linejoin:round;stroke-miterlimit:4;stroke-opacity:1;stroke-dasharray:none;stroke-dashoffset:0"
     id="path3714"
     d="M 174.301,33.7074 C 202.672,25.0618 229.832,24.6531 255.706,33.4743 L 255.706,8.67704 C 247.359,4.31234 234.393,1.30994 215.588,1.30994 199.127,1.30994 181.867,4.51924 174.301,8.65084 L 174.301,33.7074 z" />
  <rect
     width="103.376"
     height="543.611"
     x="650.733"
     y="25.2976"
     id="rect8464"
     style="fill:#8e8e8e;stroke:#545454;stroke-width:2.61989;stroke-linecap:round;stroke-linejoin:round;stroke-miterlimit:4;stroke-opacity:1;stroke-dasharray:none;stroke-dashoffset:0" />
  <path
     d="M 698.938,26.7804 698.938,567.887"
     id="path8466"
     style="fill:#212121;fill-opacity:1;stroke:#545454;stroke-width:1.309945;stroke-linecap:round;stroke-linejoin:round;stroke-miterlimit:4;stroke-opacity:1;stroke-dasharray:none;stroke-dashoffset:0" />
  <path
     style="fill:#212121;fill-opacity:1;stroke:#545454;stroke-width:2.61989;stroke-linecap:round;stroke-linejoin:round;stroke-miterlimit:4;stroke-opacity:1;stroke-dasharray:none;stroke-dashoffset:0"
     id="path8470"
     d="M 627.342,35.1117 551.554,64.8186 C 571.567,115.165 577.417,171.597 570.032,204.469 577.862,228.446 580.697,283.867 581.025,324.701 581.688,406.738 565.355,577.334 565.355,577.334 565.355,577.334 636.462,578.021 659.679,578.681 692.27,579.611 697.518,514.543 697.518,460.841 697.518,460.841 699.47,369.32 692.022,311.989 672.43,308.033 627.342,35.1117 627.342,35.1117 z" />
  <path
     style="fill:#212121;fill-opacity:1;stroke:#545454;stroke-width:2.61989;stroke-linecap:round;stroke-linejoin:round;stroke-miterlimit:4;stroke-opacity:1;stroke-dasharray:none;stroke-dashoffset:0"
     id="path8472"
     d="M 552.036,64.761 C 540.33,66.1967 535.106,102.744 523.463,154.618 500.66,256.238 500.46,425.284 486.992,527.509 L 540.574,533.357 C 552.285,428.684 566.01,323.179 573.647,220.133 572.895,215.21 571.397,209.774 570.05,204.644 576.689,174.199 572.625,117.379 552.036,64.761 z" />
  <path
     style="fill:#212121;stroke:#545454;stroke-width:2.61989;stroke-linecap:round;stroke-linejoin:round;stroke-miterlimit:4;stroke-opacity:1;stroke-dasharray:none;stroke-dashoffset:0"
     id="path8482"
     d="M 627.342,35.1117 551.554,64.8186 C 571.567,115.165 577.417,171.597 570.032,204.469 577.862,228.446 580.697,283.867 581.025,324.701 581.688,406.738 565.355,577.334 565.355,577.334 565.355,577.334 636.462,578.021 659.679,578.681 692.27,579.611 697.518,514.543 697.518,460.841 697.518,460.841 698.807,366.011 691.359,308.68 671.767,304.724 627.342,35.1117 627.342,35.1117 z" />
  <path
     style="fill:#212121;fill-opacity:1;stroke:#545454;stroke-width:2.61989;stroke-linecap:round;stroke-linejoin:round;stroke-miterlimit:4;stroke-opacity:1;stroke-dasharray:none;stroke-dashoffset:0"
     id="path8484"
     d="M 658.22,61.0748 612.139,95.4613 C 642.527,160.609 663.598,277.718 697.123,323.273 685.734,285.882 680.712,206.465 672.503,162.097 666.412,129.173 659.207,96.1863 658.22,61.0748 z" />
  <path
     style="fill:#212121;fill-opacity:1;stroke:#545454;stroke-width:2.61989;stroke-linecap:round;stroke-linejoin:round;stroke-miterlimit:4;stroke-opacity:1;stroke-dasharray:none;stroke-dashoffset:0"
     id="path8486"
     d="M 658.453,8.44384 C 635.969,24.3413 614.572,41.1296 610.268,71.9633 L 637.059,76.8593 658.22,61.08 658.453,8.44384 z" />
  <path
     d="M 770.49,35.1117 846.278,64.8186 C 826.265,115.165 820.415,171.597 827.8,204.469 819.97,228.446 817.135,283.867 816.807,324.701 816.144,406.738 832.477,577.334 832.477,577.334 832.477,577.334 761.37,578.021 738.153,578.681 682.289,557.918 688.296,369.669 693.075,315.793 712.667,311.837 770.49,35.1117 770.49,35.1117 z"
     id="path8496"
     style="fill:#212121;fill-opacity:1;stroke:#545454;stroke-width:2.61989;stroke-linecap:round;stroke-linejoin:round;stroke-miterlimit:4;stroke-opacity:1;stroke-dasharray:none;stroke-dashoffset:0" />
  <path
     d="M 845.796,64.761 C 857.502,66.1967 862.726,102.744 874.369,154.618 897.172,256.238 897.372,425.284 910.84,527.509 L 857.258,533.357 C 845.547,428.684 831.822,323.179 824.185,220.133 824.937,215.21 826.435,209.774 827.782,204.644 821.143,174.199 825.207,117.379 845.796,64.761 z"
     id="path8498"
     style="fill:#212121;fill-opacity:1;stroke:#545454;stroke-width:2.61989;stroke-linecap:round;stroke-linejoin:round;stroke-miterlimit:4;stroke-opacity:1;stroke-dasharray:none;stroke-dashoffset:0" />
  <path
     d="M 770.49,35.1117 846.278,64.8186 C 826.265,115.165 820.415,171.597 827.8,204.469 819.97,228.446 817.135,283.867 816.807,324.701 816.144,406.738 832.477,577.334 832.477,577.334 832.477,577.334 761.37,578.021 738.153,578.681 682.289,557.918 688.296,369.669 693.075,315.793 712.667,311.837 770.49,35.1117 770.49,35.1117 z"
     id="path8510"
     style="fill:#212121;stroke:#545454;stroke-width:2.61989;stroke-linecap:round;stroke-linejoin:round;stroke-miterlimit:4;stroke-opacity:1;stroke-dasharray:none;stroke-dashoffset:0" />
  <rect
     width="62.8879"
     height="15.2513"
     x="708.988"
     y="252.771"
     transform="matrix(0.99561,-0.093602,0.093602,0.99561,0,0)"
     id="rect8500"
     style="fill:#212121;fill-opacity:0.301653;stroke:#545454;stroke-width:2.585929;stroke-linecap:round;stroke-linejoin:round;stroke-miterlimit:4;stroke-opacity:1;stroke-dasharray:none;stroke-dashoffset:0" />
  <path
     d="M 739.612,61.0748 785.693,95.4613 C 755.305,160.609 725.965,272.754 692.441,318.308 703.83,280.917 717.12,206.465 725.329,162.097 731.42,129.173 738.625,96.1863 739.612,61.0748 z"
     id="path8512"
     style="fill:#212121;fill-opacity:1;stroke:#545454;stroke-width:2.61989;stroke-linecap:round;stroke-linejoin:round;stroke-miterlimit:4;stroke-opacity:1;stroke-dasharray:none;stroke-dashoffset:0" />
  <path
     d="M 739.379,8.44384 C 761.863,24.3413 783.26,41.1296 787.564,71.9633 L 760.773,76.8593 739.612,61.08 739.379,8.44384 z"
     id="path8514"
     style="fill:#212121;fill-opacity:1;stroke:#545454;stroke-width:2.61989;stroke-linecap:round;stroke-linejoin:round;stroke-miterlimit:4;stroke-opacity:1;stroke-dasharray:none;stroke-dashoffset:0" />
  <path
     d="M 658.207,33.7074 C 686.578,25.0618 713.738,24.6531 739.612,33.4743 L 739.612,8.67704 C 731.265,4.31234 718.299,1.30994 699.494,1.30994 683.033,1.30994 665.773,4.51924 658.207,8.65084 L 658.207,33.7074 z"
     id="path8528"
     style="fill:#212121;fill-opacity:1;stroke:#545454;stroke-width:2.61989;stroke-linecap:round;stroke-linejoin:round;stroke-miterlimit:4;stroke-opacity:1;stroke-dasharray:none;stroke-dashoffset:0" />
  <path
     d="M 132.561,253.372 C 136.47,300.441 135.692,346.339 132.561,391.65"
     id="path3684"
     style="fill:#212121;fill-opacity:0.301653;stroke:#545454;stroke-width:1.309945;stroke-linecap:round;stroke-linejoin:round;stroke-miterlimit:4;stroke-opacity:1;stroke-dasharray:none;stroke-dashoffset:0" />
  <path
     d="M 86.9098,207.057 49.5263,532.246"
     id="path3686"
     style="fill:#212121;fill-opacity:0.301653;stroke:#545454;stroke-width:1.309945;stroke-linecap:round;stroke-linejoin:round;stroke-miterlimit:4;stroke-opacity:1;stroke-dasharray:none;stroke-dashoffset:0" />
  <path
     d="M 89.5558,187.872 C 119.771,315.141 104.075,446.238 93.5248,576.905"
     id="path3688"
     style="fill:#212121;stroke:#545454;stroke-width:1.309945;stroke-linecap:round;stroke-linejoin:round;stroke-miterlimit:4;stroke-opacity:1;stroke-dasharray:none;stroke-dashoffset:0" />
  <path
     d="M 90.3838,481.176 128.419,481.176 C 137.128,481.176 144.139,474.166 144.139,465.457 L 144.139,386.027 95.5108,386.027"
     id="path3690"
     style="fill:#212121;fill-opacity:1;stroke:#545454;stroke-width:2.61989;stroke-linecap:round;stroke-linejoin:round;stroke-miterlimit:4;stroke-opacity:1;stroke-dashoffset:0" />
  <path
     d="M 5.21884,484.129 3.30104,491.119"
     id="path3698"
     style="fill:#212121;stroke:#545454;stroke-width:2.61989;stroke-linecap:round;stroke-linejoin:round;stroke-miterlimit:4;stroke-opacity:1;stroke-dasharray:none;stroke-dashoffset:0" />
  <path
     d="M 4.74984,492.9 2.83204,499.89"
     id="path3700"
     style="fill:#212121;stroke:#545454;stroke-width:2.61989;stroke-linecap:round;stroke-linejoin:round;stroke-miterlimit:4;stroke-opacity:1;stroke-dasharray:none;stroke-dashoffset:0" />
  <path
     d="M 4.04774,501.672 2.12994,508.662"
     id="path3702"
     style="fill:#212121;stroke:#545454;stroke-width:2.61989;stroke-linecap:round;stroke-linejoin:round;stroke-miterlimit:4;stroke-opacity:1;stroke-dasharray:none;stroke-dashoffset:0" />
  <path
     d="M 3.22764,510.328 1.30994,517.318"
     id="path3704"
     style="fill:#212121;stroke:#545454;stroke-width:2.61989;stroke-linecap:round;stroke-linejoin:round;stroke-miterlimit:4;stroke-opacity:1;stroke-dasharray:none;stroke-dashoffset:0" />
  <path
     d="M 297.465,253.372 C 293.556,300.441 294.334,346.339 297.465,391.65"
     id="path3638"
     style="fill:#212121;fill-opacity:0.301653;stroke:#545454;stroke-width:1.309945;stroke-linecap:round;stroke-linejoin:round;stroke-miterlimit:4;stroke-opacity:1;stroke-dasharray:none;stroke-dashoffset:0" />
  <path
     d="M 343.116,207.057 380.499,532.246"
     id="path3640"
     style="fill:#212121;fill-opacity:0.301653;stroke:#545454;stroke-width:1.309945;stroke-linecap:round;stroke-linejoin:round;stroke-miterlimit:4;stroke-opacity:1;stroke-dasharray:none;stroke-dashoffset:0" />
  <path
     d="M 340.47,187.872 C 310.255,315.141 325.951,446.238 336.501,576.905"
     id="path3642"
     style="fill:#212121;stroke:#545454;stroke-width:1.309945;stroke-linecap:round;stroke-linejoin:round;stroke-miterlimit:4;stroke-opacity:1;stroke-dasharray:none;stroke-dashoffset:0" />
  <path
     d="M 339.642,481.176 301.607,481.176 C 292.898,481.176 285.887,474.166 285.887,465.457 L 285.887,386.027 334.515,386.027"
     id="rect3633"
     style="fill:#212121;fill-opacity:1;stroke:#545454;stroke-width:2.61989;stroke-linecap:round;stroke-linejoin:round;stroke-miterlimit:4;stroke-opacity:1;stroke-dashoffset:0" />
  <path
     d="M 424.807,484.129 426.725,491.119"
     id="path3648"
     style="fill:#212121;stroke:#545454;stroke-width:2.61989;stroke-linecap:round;stroke-linejoin:round;stroke-miterlimit:4;stroke-opacity:1;stroke-dasharray:none;stroke-dashoffset:0" />
  <path
     d="M 425.276,492.9 427.194,499.89"
     id="path3654"
     style="fill:#212121;stroke:#545454;stroke-width:2.61989;stroke-linecap:round;stroke-linejoin:round;stroke-miterlimit:4;stroke-opacity:1;stroke-dasharray:none;stroke-dashoffset:0" />
  <path
     d="M 425.978,501.672 427.896,508.662"
     id="path3656"
     style="fill:#212121;stroke:#545454;stroke-width:2.61989;stroke-linecap:round;stroke-linejoin:round;stroke-miterlimit:4;stroke-opacity:1;stroke-dasharray:none;stroke-dashoffset:0" />
  <path
     d="M 426.798,510.328 428.716,517.318"
     id="path3658"
     style="fill:#212121;stroke:#545454;stroke-width:2.61989;stroke-linecap:round;stroke-linejoin:round;stroke-miterlimit:4;stroke-opacity:1;stroke-dasharray:none;stroke-dashoffset:0" />
  <path
     style="fill:#212121;stroke:#545454;stroke-width:2.61989;stroke-linecap:round;stroke-linejoin:round;stroke-miterlimit:4;stroke-opacity:1;stroke-dasharray:none;stroke-dashoffset:0"
     id="path3706"
     d="M 221.32,294.057 A 5.14622,5.14622 0 1 1 211.03,294.057 5.14622,5.14622 0 1 1 221.32,294.057 z" />
  <path
     style="fill:#212121;stroke:#545454;stroke-width:2.61989;stroke-linecap:round;stroke-linejoin:round;stroke-miterlimit:4;stroke-opacity:1;stroke-dasharray:none;stroke-dashoffset:0"
     id="path3708"
     d="M 212.431,370.316 225.999,370.316" />
  <path
     style="fill:#212121;fill-opacity:0.301653;stroke:#545454;stroke-width:1.309945;stroke-linecap:round;stroke-linejoin:round;stroke-miterlimit:4;stroke-opacity:1;stroke-dasharray:none;stroke-dashoffset:0"
     id="path8474"
     d="M 616.461,253.372 C 620.37,300.441 619.592,346.339 616.461,391.65" />
  <path
     style="fill:#212121;fill-opacity:0.301653;stroke:#545454;stroke-width:1.309945;stroke-linecap:round;stroke-linejoin:round;stroke-miterlimit:4;stroke-opacity:1;stroke-dasharray:none;stroke-dashoffset:0"
     id="path8476"
     d="M 570.81,207.057 533.427,532.246" />
  <path
     style="fill:#212121;stroke:#545454;stroke-width:1.309945;stroke-linecap:round;stroke-linejoin:round;stroke-miterlimit:4;stroke-opacity:1;stroke-dasharray:none;stroke-dashoffset:0"
     id="path8478"
     d="M 573.456,187.872 C 603.671,315.141 587.975,446.238 577.425,576.905" />
  <path
     style="fill:#212121;fill-opacity:1;stroke:#545454;stroke-width:2.61989;stroke-linecap:round;stroke-linejoin:round;stroke-miterlimit:4;stroke-opacity:1;stroke-dashoffset:0"
     id="path8480"
     d="M 574.284,481.176 612.319,481.176 C 621.028,481.176 628.039,474.166 628.039,465.457 L 628.039,386.027 579.411,386.027" />
  <path
     style="fill:#212121;stroke:#545454;stroke-width:2.61989;stroke-linecap:round;stroke-linejoin:round;stroke-miterlimit:4;stroke-opacity:1;stroke-dasharray:none;stroke-dashoffset:0"
     id="path8488"
     d="M 489.119,484.129 487.201,491.119" />
  <path
     style="fill:#212121;stroke:#545454;stroke-width:2.61989;stroke-linecap:round;stroke-linejoin:round;stroke-miterlimit:4;stroke-opacity:1;stroke-dasharray:none;stroke-dashoffset:0"
     id="path8490"
     d="M 488.65,492.9 486.732,499.89" />
  <path
     style="fill:#212121;stroke:#545454;stroke-width:2.61989;stroke-linecap:round;stroke-linejoin:round;stroke-miterlimit:4;stroke-opacity:1;stroke-dasharray:none;stroke-dashoffset:0"
     id="path8492"
     d="M 487.948,501.672 486.03,508.662" />
  <path
     style="fill:#212121;stroke:#545454;stroke-width:2.61989;stroke-linecap:round;stroke-linejoin:round;stroke-miterlimit:4;stroke-opacity:1;stroke-dasharray:none;stroke-dashoffset:0"
     id="path8494"
     d="M 487.128,510.328 485.21,517.318" />
  <path
     d="M 781.371,253.372 C 777.462,300.441 778.24,346.339 781.371,391.65"
     id="path8502"
     style="fill:#212121;fill-opacity:0.301653;stroke:#545454;stroke-width:1.309945;stroke-linecap:round;stroke-linejoin:round;stroke-miterlimit:4;stroke-opacity:1;stroke-dasharray:none;stroke-dashoffset:0" />
  <path
     d="M 827.022,207.057 864.405,532.246"
     id="path8504"
     style="fill:#212121;fill-opacity:0.301653;stroke:#545454;stroke-width:1.309945;stroke-linecap:round;stroke-linejoin:round;stroke-miterlimit:4;stroke-opacity:1;stroke-dasharray:none;stroke-dashoffset:0" />
  <path
     d="M 824.376,187.872 C 794.161,315.141 809.857,446.238 820.407,576.905"
     id="path8506"
     style="fill:#212121;stroke:#545454;stroke-width:1.309945;stroke-linecap:round;stroke-linejoin:round;stroke-miterlimit:4;stroke-opacity:1;stroke-dasharray:none;stroke-dashoffset:0" />
  <path
     d="M 823.548,481.176 785.513,481.176 C 776.804,481.176 769.793,474.166 769.793,465.457 L 769.793,386.027 818.421,386.027"
     id="path8508"
     style="fill:#212121;fill-opacity:1;stroke:#545454;stroke-width:2.61989;stroke-linecap:round;stroke-linejoin:round;stroke-miterlimit:4;stroke-opacity:1;stroke-dashoffset:0" />
  <path
     d="M 908.713,484.129 910.631,491.119"
     id="path8516"
     style="fill:#212121;stroke:#545454;stroke-width:2.61989;stroke-linecap:round;stroke-linejoin:round;stroke-miterlimit:4;stroke-opacity:1;stroke-dasharray:none;stroke-dashoffset:0" />
  <path
     d="M 909.182,492.9 911.1,499.89"
     id="path8518"
     style="fill:#212121;stroke:#545454;stroke-width:2.61989;stroke-linecap:round;stroke-linejoin:round;stroke-miterlimit:4;stroke-opacity:1;stroke-dasharray:none;stroke-dashoffset:0" />
  <path
     d="M 909.884,501.672 911.802,508.662"
     id="path8520"
     style="fill:#212121;stroke:#545454;stroke-width:2.61989;stroke-linecap:round;stroke-linejoin:round;stroke-miterlimit:4;stroke-opacity:1;stroke-dasharray:none;stroke-dashoffset:0" />
  <path
     d="M 910.704,510.328 912.622,517.318"
     id="path8522"
     style="fill:#212121;stroke:#545454;stroke-width:2.61989;stroke-linecap:round;stroke-linejoin:round;stroke-miterlimit:4;stroke-opacity:1;stroke-dasharray:none;stroke-dashoffset:0" />
  <path
     d="M 706.878,321.514 A 5.14622,5.14622 0 1 1 696.588,321.514 5.14622,5.14622 0 1 1 706.878,321.514 z"
     id="path8524"
     style="fill:#212121;stroke:#545454;stroke-width:2.61989;stroke-linecap:round;stroke-linejoin:round;stroke-miterlimit:4;stroke-opacity:1;stroke-dasharray:none;stroke-dashoffset:0" />
  <path
     d="M 696.643,397.979 710.212,397.979"
     id="path8526"
     style="fill:#212121;stroke:#545454;stroke-width:2.61989;stroke-linecap:round;stroke-linejoin:round;stroke-miterlimit:4;stroke-opacity:1;stroke-dasharray:none;stroke-dashoffset:0" />
</svg>
