<?xml version="1.0" encoding="UTF-8" standalone="no"?>
<svg
   xmlns:dc="http://purl.org/dc/elements/1.1/"
   xmlns:cc="http://creativecommons.org/ns#"
   xmlns:rdf="http://www.w3.org/1999/02/22-rdf-syntax-ns#"
   xmlns:svg="http://www.w3.org/2000/svg"
   xmlns="http://www.w3.org/2000/svg"
   version="1.1"
   id="svg13134"
   height="546.562"
   width="1016.33">
  <defs
     id="defs13136" />
  <g
     transform="translate(-101.002,-456.688)"
     id="layer1">
    <g
       id="g14301">
      <path
         style="fill:#8e8e8e;stroke:#545454;stroke-width:4;stroke-miterlimit:4;stroke-dasharray:none"
         id="back"
         d="M 299.499,458.7 246.561,488.084 C 242.497,509.424 451.961,528.415 458.542,493.865 L 401.601,458.7 C 392.164,468.137 372.055,467.502 350.55,467.502 325.826,467.647 308.804,468.004 299.499,458.7 z" />
      <path
         style="fill:#212121;stroke:#545454;stroke-width:4;stroke-miterlimit:4;stroke-dasharray:none"
         d="M 299.499,458.7 193.642,474.299 C 194.373,481.148 192.903,522.525 192.903,550.488 192.903,578.309 190.721,602.176 181.23,617.005 176.119,624.349 194.357,641.655 187.786,641.655 187.786,663.093 186.483,723.755 186.483,809.5 186.483,870.439 184.149,959.068 182.689,974.179 345.243,974.179 378.517,974.179 518.412,974.179 516.952,959.068 514.618,870.439 514.618,809.5 514.618,723.755 513.315,663.093 513.315,641.655 506.744,641.655 524.982,624.349 519.871,617.005 510.38,602.176 508.198,578.309 508.198,550.488 508.198,522.525 506.728,481.148 507.458,474.299 L 401.601,458.7 C 401.601,472.522 391.503,491.277 350.55,491.516 309.598,491.277 299.499,472.522 299.499,458.7 z"
         id="front" />
      <path
         style="fill:#212121;stroke:#545454;stroke-width:4;stroke-miterlimit:4;stroke-dasharray:none"
         id="sleeves"
         transform="translate(100.999,445.844)"
         d="M 93.5313,28 C 79.5014,28 58.9645,56.0721 47.7813,95.8438 16.6715,207.107 -6.30823,535.903 4.875,554.812 36.4055,554.812 25.6546,555.406 58.5625,555.406 66.8991,535.48 69.3155,448.056 81.7188,316.094 83.1421,280.917 84.1801,206.489 91.5,177.656 111.02,144.005 99.4279,52.1964 93.5313,28 z M 407.156,28 C 401.26,52.1964 389.668,144.005 409.187,177.656 416.507,206.489 420.17,280.917 421.594,316.094 434.2,448.869 434.805,518.197 442.125,555.406 484.022,555.406 471.146,554.812 495.812,554.812 506.792,525.939 484.016,207.107 452.906,95.8438 441.723,56.0721 421.186,28 407.156,28 z" />
      <path
         style="fill:#8e8e8e;stroke:#545454;stroke-width:4;stroke-miterlimit:4;stroke-dasharray:none"
         id="back-6"
         d="m 815.214,458.701 -52.938,29.384 c -4.064,21.34 205.4,40.331 211.981,5.781 l -56.941,-35.165 c -9.437,9.437 -29.546,8.802 -51.051,8.802 -24.724,0.145 -41.746,0.502 -51.051,-8.802 z" />
      <path
         style="fill:#212121;stroke:#545454;stroke-width:4;stroke-miterlimit:4;stroke-dasharray:none"
         d="M 815.214,458.701 709.357,474.3 c 0.731,6.849 -0.739,48.226 -0.739,76.189 0,27.821 -2.182,51.688 -11.673,66.517 -5.111,7.344 13.127,24.65 6.556,24.65 0,21.438 -1.303,82.09998 -1.303,167.84498 0,60.939 -2.334,149.568 -3.794,164.679 162.554,0 195.828,0 335.723,0 -1.46,-15.111 -3.794,-103.74 -3.794,-164.679 0,-85.745 -1.303,-146.40698 -1.303,-167.84498 -6.571,0 11.667,-17.306 6.556,-24.65 -9.491,-14.829 -11.673,-38.696 -11.673,-66.517 0,-27.963 -1.47,-69.34 -0.74,-76.189 L 917.316,458.701 c 0,13.822 -10.098,32.577 -51.051,32.816 -40.952,-0.239 -51.051,-18.994 -51.051,-32.816 z"
         id="front-7" />
      <path
         d="m 710.244,473.844 c -14.03,0 -34.567,28.072 -45.75,67.844 -31.11,111.263 -54.089,440.059 -42.906,458.972 31.53,0 20.779,0.59 53.687,0.59 8.337,-19.926 10.753,-107.35 23.157,-239.312 1.423,-35.177 2.461,-63.605 9.781,-92.438 19.52,-33.651 7.928,-171.46 2.031,-195.656 z m 313.626,0 c -5.9,24.196 -17.49,162.005 2.03,195.656 7.32,28.833 10.98,57.261 12.41,92.438 12.6,132.775 13.21,202.103 20.53,239.312 41.89,0 29.02,-0.59 53.69,-0.59 10.98,-28.877 -11.8,-347.709 -42.91,-458.972 -11.18,-39.772 -31.72,-67.844 -45.75,-67.844 z"
         id="path7497"
         style="fill:#212121;stroke:#545454;stroke-width:4;stroke-miterlimit:4;stroke-dasharray:none" />
    </g>
  </g>
  <metadata
     id="metadata14382">
    <rdf:RDF>
      <cc:Work
         rdf:about="">
        <dc:title></dc:title>
        <dc:format>image/svg+xml</dc:format>
        <dc:type
           rdf:resource="http://purl.org/dc/dcmitype/StillImage" />
      </cc:Work>
    </rdf:RDF>
  </metadata>
</svg>
