<?xml version="1.0" encoding="UTF-8" standalone="no"?>
<!-- Created with Inkscape (http://www.inkscape.org/) -->

<svg
   xmlns:svg="http://www.w3.org/2000/svg"
   xmlns="http://www.w3.org/2000/svg"
   version="1.1"
   width="2634.48"
   height="1911.21"
   id="svg8088">
  <defs
     id="defs8090" />
  <g
     transform="translate(796,1331.6)"
     id="layer1">
    <rect
       width="2634.48"
       height="1911.21"
       x="-796"
       y="-1331.6"
       id="rect8748"
       style="fill:#ffffff;stroke:none" />
    <path
       d="M -65.91,-1285.71 -26.38,-1263.52 66.91,-1019.8 244.66,-941.239 344.06,-937.677 378.22,-902.833 C 378.22,-902.851 389.41,-211.119 389.41,374.421 L 389.41,374.761 382.59,1098.73 382.53,1100.42 C 359.49,1501.3 291.46,1683.79 135.41,1730.39 96.96,1741.86 51.07,1745.24 3.41,1742.39 L 5.41,1813.29 -629.34,1775.04 -664.81,1775.04 -664.81,1668.76 -664.81,1663.76 -664.81,1197.95 C -664.81,1023.56 -634.25,852.301 -634.25,684.171 -634.25,363.081 -749.41,-203.739 -749.41,-203.739 L -724.84,-244.679 C -686.81,-256.089 -654.3,-276.719 -616.16,-314.859 -605.94,-325.079 -597.67,-337.239 -588.53,-355.239 -581.05,-369.959 -574.71,-385.609 -568.5,-404.299 L -568.47,-404.299 C -543.28,-480.097 -530.44,-579.725 -530.44,-679.583 -530.44,-834.993 -593.21,-1097.36 -603.03,-1150.58 L -574.6,-1191.87 -65.91,-1285.71 z"
       id="path6099"
       style="fill:#545454;stroke:#212121" />
    <path
       d="M -256.15,722.691 -599.29,722.691 M -629.36,1443.8 -124.36,1443.8 -124.36,722.691 -206.88,722.691"
       id="path6101"
       style="fill:none;stroke:#ffffff;stroke-width:6;stroke-miterlimit:4;stroke-dasharray:6, 12;stroke-dashoffset:0" />
    <path
       d="M 353.98,374.431 353.98,785.401"
       id="path6103" />
    <path
       d="M 353.98,374.431 C 353.98,-210.749 342.79,-902.263 342.79,-902.263 L 236.56,-906.061 39.1,-993.372 -59.47,-1250.85 -568.17,-1157.01 C -558.53,-1104.74 -494.99,-839.171 -494.99,-679.573 -494.99,-519.975 -528.16,-352.759 -591.11,-289.809 -632.02,-248.889 -671.96,-223.549 -714.68,-210.729 -714.68,-210.729 -598.8,359.501 -598.8,684.161 -598.8,855.421 -629.36,1026.68 -629.36,1197.94 L -629.36,1668.75 5.4,1707 C 232.11,1720.66 318.73,1592.83 347.15,1098.39 353.98,979.481 353.98,882.441 353.98,785.401 L 353.98,374.431 z"
       id="path6105"
       style="fill:none;stroke:#ffffff;stroke-width:6;stroke-miterlimit:4;stroke-dasharray:6, 12;stroke-dashoffset:0" />
    <path
       d="M -14.88,-200.779 -14.88,-254.389 -383.74,-302.959 -383.74,-249.339 -14.88,-200.779 z"
       id="path6107"
       style="fill:none;stroke:#ffffff;stroke-width:6;stroke-miterlimit:4;stroke-dasharray:6, 12;stroke-dashoffset:0" />
    <path
       d="M 277.45,684.161 -598.8,684.161"
       id="path6109" />
    <path
       d="M -231.51,941.051 C -231.51,941.051 -257.42,769.791 -257.42,684.161 -257.42,487.501 -231.51,94.2008 -231.51,94.2008 -231.51,304.531 -208.22,490.141 -208.22,684.151 -208.22,771.161 -222.9,862.891 -231.51,941.051 z"
       id="path6111"
       style="fill:#212121;stroke:#8e8e8e;stroke-width:3;stroke-miterlimit:4;stroke-dasharray:none;stroke-dashoffset:0" />
    <path
       d="M -233.21,97.2508 -233.21,926.361"
       id="path7346"
       style="fill:#212121;fill-opacity:1;stroke:#8e8e8e;stroke-width:3;stroke-linecap:round;stroke-linejoin:round;stroke-miterlimit:4;stroke-opacity:1;stroke-dasharray:none;stroke-dashoffset:0" />
    <path
       d="M 82.2628,-115.316 82.2628,-310.891 -455.169,-382.48 -455.169,-186.89 82.2628,-115.316 z"
       id="path8159"
       style="fill:#000000;fill-opacity:0.392157;stroke:none" />
    <g
       transform="matrix(0.184813,-0.144662,0.144662,0.184813,-4749.49,2602.32)"
       id="g7268">
      <path
         d="M 23050.6,1728.14 A 82.7939,82.7939 0 0 0 23019.2,1734.44 C 23019.2,1734.44 22967.5,1757.15 22904.5,1809.84 22841.5,1862.47 22760.4,1948.02 22680.9,2081 22522.1,2346.97 22370.4,2801.11 22370.4,3564.48 A 82.7939,82.7939 0 0 0 22453.2,3647.28 L 23649.2,3647.28 A 82.7939,82.7939 0 0 0 23732,3564.48 C 23732,2801.11 23580.1,2346.97 23421.2,2081 23341.8,1948.02 23260.7,1862.47 23197.7,1809.84 23134.6,1757.15 23082.9,1734.44 23082.9,1734.44 A 82.7939,82.7939 0 0 0 23050.6,1728.14 z M 23051.2,1906.04 C 23061.9,1913.32 23075.1,1923.12 23091.5,1936.82 23140.6,1977.83 23209.1,2048.57 23279.1,2165.88 23413.9,2391.64 23555.1,2791.38 23565.6,3481.62 L 23168.2,3481.62 23168.2,2853.43 C 23249.9,2810.78 23306.3,2725.04 23306.3,2627 23306.3,2486.8 23191.4,2371.87 23051.2,2371.87 22911,2371.87 22795.9,2486.8 22795.9,2627 22795.9,2725.04 22852.2,2810.78 22933.9,2853.43 L 22933.9,3481.62 22536.6,3481.62 C 22547.1,2791.38 22688.4,2391.64 22823.2,2165.88 22893.3,2048.57 22961.7,1977.83 23010.8,1936.82 23027.2,1923.12 23040.5,1913.32 23051.2,1906.04 z M 23051.2,2494.27 C 23125.2,2494.27 23183.9,2552.95 23183.9,2627 23183.9,2701.05 23125.2,2759.92 23051.2,2759.92 22977.1,2759.92 22918.4,2701.05 22918.4,2627 22918.4,2552.95 22977.1,2494.27 23051.2,2494.27 z"
         id="path7270"
         style="font-size:medium;font-style:normal;font-variant:normal;font-weight:normal;font-stretch:normal;text-indent:0;text-align:start;text-decoration:none;line-height:normal;letter-spacing:normal;word-spacing:normal;text-transform:none;direction:ltr;block-progression:tb;writing-mode:lr-tb;text-anchor:start;color:#000000;fill:#64b5f6;fill-opacity:1;stroke:none;stroke-width:165.571106;marker:none;visibility:visible;display:inline;overflow:visible;enable-background:accumulate;font-family:Bitstream Vera Sans;-inkscape-font-specification:Bitstream Vera Sans" />
    </g>
    <path
       d="M 1305.52,-1285.71 1345.05,-1263.52 1438.34,-1019.8 1616.09,-941.239 1715.49,-937.677 1749.65,-902.833 C 1749.65,-902.851 1760.84,-211.119 1760.84,374.421 L 1760.84,374.761 1754.02,1098.73 1753.96,1100.42 C 1730.92,1501.3 1662.89,1683.79 1506.84,1730.39 1468.39,1741.86 1422.5,1745.24 1374.84,1742.39 L 1376.84,1813.29 742.089,1775.04 706.619,1775.04 706.619,1668.76 706.619,1663.76 706.619,1197.95 C 706.619,1023.56 737.179,852.301 737.179,684.171 737.179,363.081 622.019,-203.739 622.019,-203.739 L 646.589,-244.679 C 684.619,-256.089 717.129,-276.719 755.269,-314.859 765.489,-325.079 773.759,-337.239 782.899,-355.239 790.379,-369.959 796.719,-385.609 802.929,-404.299 L 802.959,-404.299 C 828.149,-480.097 840.989,-579.725 840.989,-679.583 840.989,-834.993 778.219,-1097.36 768.399,-1150.58 L 796.829,-1191.87 1305.52,-1285.71 z"
       id="path8696"
       style="fill:#545454;stroke:#212121" />
    <path
       d="M 1115.28,722.691 772.139,722.691 M 742.069,1443.8 1247.07,1443.8 1247.07,722.691 1164.55,722.691"
       id="path8698"
       style="fill:none;stroke:#ffffff;stroke-width:6;stroke-miterlimit:4;stroke-dasharray:6, 12;stroke-dashoffset:0" />
    <path
       d="M 1725.41,374.431 1725.41,785.401"
       id="path8700" />
    <path
       d="M 1725.41,374.431 C 1725.41,-210.749 1714.22,-902.263 1714.22,-902.263 L 1607.99,-906.061 1410.53,-993.372 1311.96,-1250.85 803.259,-1157.01 C 812.899,-1104.74 876.439,-839.171 876.439,-679.573 876.439,-519.975 843.269,-352.759 780.319,-289.809 739.409,-248.889 699.469,-223.549 656.749,-210.729 656.749,-210.729 772.629,359.501 772.629,684.161 772.629,855.421 742.069,1026.68 742.069,1197.94 L 742.069,1668.75 1376.83,1707 C 1603.54,1720.66 1690.16,1592.83 1718.58,1098.39 1725.41,979.481 1725.41,882.441 1725.41,785.401 L 1725.41,374.431 z"
       id="path8702"
       style="fill:none;stroke:#ffffff;stroke-width:6;stroke-miterlimit:4;stroke-dasharray:6, 12;stroke-dashoffset:0" />
    <path
       d="M 1453.69,-115.316 1453.69,-310.891 916.26,-382.48 916.26,-186.89 1453.69,-115.316 z"
       id="path8712"
       style="fill:#000000;fill-opacity:0.392157;stroke:none" />
    <path
       d="M 1356.55,-200.779 1356.55,-254.389 987.689,-302.959 987.689,-249.339 1356.55,-200.779 z"
       id="path8704"
       style="fill:none;stroke:#ff5b77;stroke-width:4;stroke-linecap:round;stroke-linejoin:round;stroke-miterlimit:4;stroke-dasharray:32, 16;stroke-dashoffset:0" />
    <path
       d="M 1648.88,684.161 772.629,684.161"
       id="path8706" />
    <path
       d="M 1139.92,941.051 C 1139.92,941.051 1114.01,769.791 1114.01,684.161 1114.01,487.501 1139.92,94.2008 1139.92,94.2008 1139.92,304.531 1163.21,490.141 1163.21,684.151 1163.21,771.161 1148.53,862.891 1139.92,941.051 z"
       id="path8708"
       style="fill:#212121;stroke:#8e8e8e;stroke-width:3;stroke-miterlimit:4;stroke-dasharray:none;stroke-dashoffset:0" />
    <path
       d="M 1138.22,97.2508 1138.22,926.361"
       id="path8710"
       style="fill:#212121;fill-opacity:1;stroke:#8e8e8e;stroke-width:3;stroke-linecap:round;stroke-linejoin:round;stroke-miterlimit:4;stroke-opacity:1;stroke-dasharray:none;stroke-dashoffset:0" />
    <g
       transform="translate(-846.497,323.291)"
       id="g6885">
      <path
         d="M 215.531,646.574 162.635,646.574 109.739,646.574 136.187,600.765 162.635,554.956 189.083,600.765 215.531,646.574 z"
         transform="matrix(-0.001315,-0.86825,-1.10276,0.001669,2246.14,-942.228)"
         id="path6887"
         style="fill:#ff5b77;fill-opacity:1;stroke:#ff5b77;stroke-width:12.263649;stroke-linecap:round;stroke-linejoin:round;stroke-miterlimit:4;stroke-opacity:1;stroke-dasharray:none;stroke-dashoffset:0" />
      <path
         d="M 1543.82,-1082.36 1268.05,-1082.36"
         id="path6889"
         style="fill:none;stroke:#ff5b77;stroke-width:30;stroke-linecap:round;stroke-linejoin:round;stroke-miterlimit:4;stroke-opacity:1;stroke-dasharray:none;stroke-dashoffset:0" />
    </g>
    <path
       d="M 1467.14,-279.066 C 1455.1,-279.066 1437.74,-254.48 1422.86,-261.924 1396.83,-274.936 1385.76,-309.746 1360,-261.924 L 1352.86,-263.352 C 1350.28,-274.294 1335.81,-278.791 1332.86,-287.638 1330.72,-294.036 1347.73,-307.379 1350,-311.924 1354.83,-321.576 1352.86,-336.341 1352.86,-347.638"
       id="path8746"
       style="fill:none;stroke:#ff5b77;stroke-width:4;stroke-linecap:round;stroke-linejoin:round;stroke-miterlimit:4;stroke-opacity:1;stroke-dasharray:none;stroke-dashoffset:0" />
  </g>
</svg>
