<?xml version="1.0" encoding="UTF-8" standalone="no"?>
<!-- Created with Inkscape (http://www.inkscape.org/) -->

<svg
   xmlns:dc="http://purl.org/dc/elements/1.1/"
   xmlns:cc="http://creativecommons.org/ns#"
   xmlns:rdf="http://www.w3.org/1999/02/22-rdf-syntax-ns#"
   xmlns:svg="http://www.w3.org/2000/svg"
   xmlns="http://www.w3.org/2000/svg"
   xmlns:sodipodi="http://sodipodi.sourceforge.net/DTD/sodipodi-0.dtd"
   xmlns:inkscape="http://www.inkscape.org/namespaces/inkscape"
   version="1.1"
   width="913.622"
   height="580.001"
   id="svg4180"
   inkscape:version="0.47 r22583"
   sodipodi:docname="collarNotchReturn.svg">
  <metadata
     id="metadata11157">
    <rdf:RDF>
      <cc:Work
         rdf:about="">
        <dc:format>image/svg+xml</dc:format>
        <dc:type
           rdf:resource="http://purl.org/dc/dcmitype/StillImage" />
        <dc:title></dc:title>
      </cc:Work>
    </rdf:RDF>
  </metadata>
  <sodipodi:namedview
     pagecolor="#ffffff"
     bordercolor="#666666"
     borderopacity="1"
     objecttolerance="10"
     gridtolerance="10"
     guidetolerance="10"
     inkscape:pageopacity="0"
     inkscape:pageshadow="2"
     inkscape:window-width="1832"
     inkscape:window-height="1057"
     id="namedview11155"
     showgrid="false"
     inkscape:zoom="0.830769"
     inkscape:cx="459.126"
     inkscape:cy="349.985"
     inkscape:window-x="-8"
     inkscape:window-y="-8"
     inkscape:window-maximized="0"
     inkscape:current-layer="svg4180" />
  <defs
     id="defs4182">
    <inkscape:perspective
       sodipodi:type="inkscape:persp3d"
       inkscape:vp_x="0 : 325 : 1"
       inkscape:vp_y="0 : 1000 : 0"
       inkscape:vp_z="1000 : 325 : 1"
       inkscape:persp3d-origin="500 : 216.667 : 1"
       id="perspective11159" />
    <marker
       refX="0"
       refY="0"
       orient="auto"
       id="Arrow1Mend"
       style="overflow:visible">
      <path
         d="M 0,0 5,-5 -12.5,0 5,5 0,0 z"
         transform="matrix(-0.4,0,0,-0.4,-4,0)"
         id="path4844"
         style="fill-rule:evenodd;stroke:#000000;stroke-width:1pt;marker-start:none" />
    </marker>
    <marker
       refX="0"
       refY="0"
       orient="auto"
       id="Arrow1Mstart"
       style="overflow:visible">
      <path
         d="M 0,0 5,-5 -12.5,0 5,5 0,0 z"
         transform="matrix(0.4,0,0,0.4,4,0)"
         id="path4841"
         style="fill-rule:evenodd;stroke:#000000;stroke-width:1pt;marker-start:none" />
    </marker>
    <marker
       refX="0"
       refY="0"
       orient="auto"
       id="Arrow1Mstartz"
       style="overflow:visible">
      <path
         d="M 0,0 5,-5 -12.5,0 5,5 0,0 z"
         transform="matrix(0.4,0,0,0.4,4,0)"
         id="path5479"
         style="fill:#ff5b77;fill-rule:evenodd;stroke:#ff5b77;stroke-width:1pt;marker-start:none" />
    </marker>
    <marker
       refX="0"
       refY="0"
       orient="auto"
       id="Arrow1Mends"
       style="overflow:visible">
      <path
         d="M 0,0 5,-5 -12.5,0 5,5 0,0 z"
         transform="matrix(-0.4,0,0,-0.4,-4,0)"
         id="path5482"
         style="fill:#ff5b77;fill-rule:evenodd;stroke:#ff5b77;stroke-width:1pt;marker-start:none" />
    </marker>
    <marker
       refX="0"
       refY="0"
       orient="auto"
       id="Arrow1Mstartz-9"
       style="overflow:visible">
      <path
         d="M 0,0 5,-5 -12.5,0 5,5 0,0 z"
         transform="matrix(0.4,0,0,0.4,4,0)"
         id="path5479-7"
         style="fill:#ff5b77;fill-rule:evenodd;stroke:#ff5b77;stroke-width:1pt;marker-start:none" />
    </marker>
    <marker
       refX="0"
       refY="0"
       orient="auto"
       id="Arrow1Mends-9"
       style="overflow:visible">
      <path
         d="M 0,0 5,-5 -12.5,0 5,5 0,0 z"
         transform="matrix(-0.4,0,0,-0.4,-4,0)"
         id="path5482-4"
         style="fill:#ff5b77;fill-rule:evenodd;stroke:#ff5b77;stroke-width:1pt;marker-start:none" />
    </marker>
  </defs>
  <rect
     width="101.835"
     height="548.233"
     x="651.963"
     y="20.6761"
     id="rect8464"
     style="fill:#8e8e8e;stroke:#545454;stroke-width:2.61989;stroke-linecap:round;stroke-linejoin:round;stroke-miterlimit:4;stroke-opacity:1;stroke-dasharray:none;stroke-dashoffset:0" />
  <path
     d="M 698.628,22.6724 698.628,567.887"
     id="path8466"
     style="fill:#212121;fill-opacity:1;stroke:#545454;stroke-width:1.309945;stroke-linecap:round;stroke-linejoin:round;stroke-miterlimit:4;stroke-opacity:1;stroke-dasharray:none;stroke-dashoffset:0" />
  <path
     style="fill:#212121;fill-opacity:1;stroke:#545454;stroke-width:2.61989;stroke-linecap:round;stroke-linejoin:round;stroke-miterlimit:4;stroke-opacity:1;stroke-dasharray:none;stroke-dashoffset:0"
     id="path8470"
     d="M 627.032,35.1117 551.244,64.8186 C 571.257,115.165 577.107,171.597 569.722,204.469 577.552,228.446 580.387,283.867 580.715,324.701 581.378,406.738 565.045,577.334 565.045,577.334 565.045,577.334 636.152,578.021 659.369,578.681 691.96,579.611 697.208,514.543 697.208,460.841 697.208,460.841 699.16,369.32 691.712,311.989 672.12,308.033 627.032,35.1117 627.032,35.1117 z" />
  <path
     style="fill:#212121;fill-opacity:1;stroke:#545454;stroke-width:2.61989;stroke-linecap:round;stroke-linejoin:round;stroke-miterlimit:4;stroke-opacity:1;stroke-dasharray:none;stroke-dashoffset:0"
     id="path8472"
     d="M 551.726,64.761 C 540.02,66.1967 534.796,102.744 523.153,154.618 500.35,256.238 500.15,425.284 486.682,527.509 L 540.264,533.357 C 551.975,428.684 565.7,323.179 573.337,220.133 572.585,215.21 571.087,209.774 569.74,204.644 576.379,174.199 572.315,117.379 551.726,64.761 z" />
  <path
     style="fill:#212121;stroke:#545454;stroke-width:2.61989;stroke-linecap:round;stroke-linejoin:round;stroke-miterlimit:4;stroke-opacity:1;stroke-dasharray:none;stroke-dashoffset:0"
     id="path8482"
     d="M 627.032,35.1117 551.244,64.8186 C 571.257,115.165 577.107,171.597 569.722,204.469 577.552,228.446 580.387,283.867 580.715,324.701 581.378,406.738 565.045,577.334 565.045,577.334 565.045,577.334 636.152,578.021 659.369,578.681 691.96,579.611 697.208,514.543 697.208,460.841 697.208,460.841 698.497,366.011 691.049,308.68 671.457,304.724 627.032,35.1117 627.032,35.1117 z" />
  <path
     style="fill:#212121;fill-opacity:1;stroke:#545454;stroke-width:2.61989;stroke-linecap:round;stroke-linejoin:round;stroke-miterlimit:4;stroke-opacity:1;stroke-dasharray:none;stroke-dashoffset:0"
     id="path8484"
     d="M 657.91,61.0748 611.829,95.4613 C 642.217,160.609 663.288,277.718 696.813,323.273 685.424,285.882 680.402,206.465 672.193,162.097 666.102,129.173 658.897,96.1863 657.91,61.0748 z" />
  <path
     style="fill:#212121;fill-opacity:1;stroke:#545454;stroke-width:2.61989;stroke-linecap:round;stroke-linejoin:round;stroke-miterlimit:4;stroke-opacity:1;stroke-dasharray:none;stroke-dashoffset:0"
     id="path8486"
     d="M 658.143,8.44384 C 635.659,24.3413 614.262,41.1296 609.958,71.9633 L 636.749,76.8593 657.91,61.08 658.143,8.44384 z" />
  <path
     d="M 770.18,35.1117 845.968,64.8186 C 825.955,115.165 820.105,171.597 827.49,204.469 819.66,228.446 816.825,283.867 816.497,324.701 815.834,406.738 832.167,577.334 832.167,577.334 832.167,577.334 761.06,578.021 737.843,578.681 681.979,557.918 687.986,369.669 692.765,315.793 712.357,311.837 770.18,35.1117 770.18,35.1117 z"
     id="path8496"
     style="fill:#212121;fill-opacity:1;stroke:#545454;stroke-width:2.61989;stroke-linecap:round;stroke-linejoin:round;stroke-miterlimit:4;stroke-opacity:1;stroke-dasharray:none;stroke-dashoffset:0" />
  <path
     d="M 845.486,64.761 C 857.192,66.1967 862.416,102.744 874.059,154.618 896.862,256.238 897.062,425.284 910.53,527.509 L 856.948,533.357 C 845.237,428.684 831.512,323.179 823.875,220.133 824.627,215.21 826.125,209.774 827.472,204.644 820.833,174.199 824.897,117.379 845.486,64.761 z"
     id="path8498"
     style="fill:#212121;fill-opacity:1;stroke:#545454;stroke-width:2.61989;stroke-linecap:round;stroke-linejoin:round;stroke-miterlimit:4;stroke-opacity:1;stroke-dasharray:none;stroke-dashoffset:0" />
  <path
     d="M 770.18,35.1117 845.968,64.8186 C 825.955,115.165 820.105,171.597 827.49,204.469 819.66,228.446 816.825,283.867 816.497,324.701 815.834,406.738 832.167,577.334 832.167,577.334 832.167,577.334 761.06,578.021 737.843,578.681 681.979,557.918 687.986,369.669 692.765,315.793 712.357,311.837 770.18,35.1117 770.18,35.1117 z"
     id="path8510"
     style="fill:#212121;stroke:#545454;stroke-width:2.61989;stroke-linecap:round;stroke-linejoin:round;stroke-miterlimit:4;stroke-opacity:1;stroke-dasharray:none;stroke-dashoffset:0" />
  <rect
     width="62.8879"
     height="15.2513"
     x="708.679"
     y="252.742"
     transform="matrix(0.99561,-0.093602,0.093602,0.99561,0,0)"
     id="rect8500"
     style="fill:#212121;fill-opacity:0.301653;stroke:#545454;stroke-width:2.585929;stroke-linecap:round;stroke-linejoin:round;stroke-miterlimit:4;stroke-opacity:1;stroke-dasharray:none;stroke-dashoffset:0" />
  <path
     d="M 739.302,61.0748 785.383,95.4613 C 754.995,160.609 725.655,272.754 692.131,318.308 703.52,280.917 716.81,206.465 725.019,162.097 731.11,129.173 738.315,96.1863 739.302,61.0748 z"
     id="path8512"
     style="fill:#212121;fill-opacity:1;stroke:#545454;stroke-width:2.61989;stroke-linecap:round;stroke-linejoin:round;stroke-miterlimit:4;stroke-opacity:1;stroke-dasharray:none;stroke-dashoffset:0" />
  <path
     d="M 739.069,8.44384 C 761.553,24.3413 782.95,41.1296 787.254,71.9633 L 760.463,76.8593 739.302,61.08 739.069,8.44384 z"
     id="path8514"
     style="fill:#212121;fill-opacity:1;stroke:#545454;stroke-width:2.61989;stroke-linecap:round;stroke-linejoin:round;stroke-miterlimit:4;stroke-opacity:1;stroke-dasharray:none;stroke-dashoffset:0" />
  <path
     d="M 908.403,484.129 910.321,491.119"
     id="path8516"
     style="fill:#212121;stroke:#545454;stroke-width:2.61989;stroke-linecap:round;stroke-linejoin:round;stroke-miterlimit:4;stroke-opacity:1;stroke-dasharray:none;stroke-dashoffset:0" />
  <path
     d="M 908.872,492.9 910.79,499.89"
     id="path8518"
     style="fill:#212121;stroke:#545454;stroke-width:2.61989;stroke-linecap:round;stroke-linejoin:round;stroke-miterlimit:4;stroke-opacity:1;stroke-dasharray:none;stroke-dashoffset:0" />
  <path
     d="M 909.574,501.672 911.492,508.662"
     id="path8520"
     style="fill:#212121;stroke:#545454;stroke-width:2.61989;stroke-linecap:round;stroke-linejoin:round;stroke-miterlimit:4;stroke-opacity:1;stroke-dasharray:none;stroke-dashoffset:0" />
  <path
     d="M 910.394,510.328 912.312,517.318"
     id="path8522"
     style="fill:#212121;stroke:#545454;stroke-width:2.61989;stroke-linecap:round;stroke-linejoin:round;stroke-miterlimit:4;stroke-opacity:1;stroke-dasharray:none;stroke-dashoffset:0" />
  <path
     d="M 657.897,28.7087 C 686.268,20.063 713.428,19.6543 739.302,28.4755 L 739.302,8.67704 C 730.955,4.31234 717.989,1.30994 699.184,1.30994 682.723,1.30994 665.463,4.51924 657.897,8.65084 L 657.897,28.7087 z"
     id="path8528"
     style="fill:#212121;fill-opacity:1;stroke:#545454;stroke-width:2.61989;stroke-linecap:round;stroke-linejoin:round;stroke-miterlimit:4;stroke-opacity:1;stroke-dasharray:none;stroke-dashoffset:0" />
  <rect
     width="101.835"
     height="548.233"
     x="168.367"
     y="20.6761"
     id="rect9168"
     style="fill:#8e8e8e;stroke:#545454;stroke-width:2.61989;stroke-linecap:round;stroke-linejoin:round;stroke-miterlimit:4;stroke-opacity:1;stroke-dasharray:none;stroke-dashoffset:0" />
  <path
     d="M 215.032,22.6724 215.032,567.887"
     id="path9170"
     style="fill:#212121;fill-opacity:1;stroke:#545454;stroke-width:1.309945;stroke-linecap:round;stroke-linejoin:round;stroke-miterlimit:4;stroke-opacity:1;stroke-dasharray:none;stroke-dashoffset:0" />
  <path
     style="fill:#212121;fill-opacity:1;stroke:#545454;stroke-width:2.61989;stroke-linecap:round;stroke-linejoin:round;stroke-miterlimit:4;stroke-opacity:1;stroke-dasharray:none;stroke-dashoffset:0"
     id="path9174"
     d="M 143.442,35.1117 67.6538,64.8186 C 87.6668,115.165 93.5168,171.597 86.1318,204.469 93.9618,228.446 96.7968,283.867 97.1248,324.701 97.7878,406.738 81.4548,577.334 81.4548,577.334 81.4548,577.334 152.562,578.021 175.779,578.681 208.37,579.611 213.618,514.543 213.618,460.841 213.618,460.841 215.57,369.32 208.122,311.989 188.53,308.033 143.442,35.1117 143.442,35.1117 z" />
  <path
     style="fill:#212121;fill-opacity:1;stroke:#545454;stroke-width:2.61989;stroke-linecap:round;stroke-linejoin:round;stroke-miterlimit:4;stroke-opacity:1;stroke-dasharray:none;stroke-dashoffset:0"
     id="path9176"
     d="M 68.1358,64.761 C 56.4298,66.1967 51.2057,102.744 39.5629,154.618 16.7594,256.238 16.5603,425.284 3.09144,527.509 L 56.6738,533.357 C 68.3848,428.684 82.1098,323.179 89.7468,220.133 88.9948,215.21 87.4968,209.774 86.1498,204.644 92.7888,174.199 88.7248,117.379 68.1358,64.761 z" />
  <path
     style="fill:#212121;stroke:#545454;stroke-width:2.61989;stroke-linecap:round;stroke-linejoin:round;stroke-miterlimit:4;stroke-opacity:1;stroke-dasharray:none;stroke-dashoffset:0"
     id="path9186"
     d="M 143.442,35.1117 67.6538,64.8186 C 87.6668,115.165 93.5168,171.597 86.1318,204.469 93.9618,228.446 96.7968,283.867 97.1248,324.701 97.7878,406.738 81.4548,577.334 81.4548,577.334 81.4548,577.334 152.562,578.021 175.779,578.681 208.37,579.611 213.618,514.543 213.618,460.841 213.618,460.841 214.907,366.011 207.459,308.68 187.867,304.724 143.442,35.1117 143.442,35.1117 z" />
  <path
     style="fill:#212121;fill-opacity:1;stroke:#545454;stroke-width:2.61989;stroke-linecap:round;stroke-linejoin:round;stroke-miterlimit:4;stroke-opacity:1;stroke-dasharray:none;stroke-dashoffset:0"
     id="path9188"
     d="M 174.32,61.0748 128.239,95.4613 C 158.627,160.609 179.698,277.718 213.223,323.273 201.834,285.882 196.812,206.465 188.603,162.097 182.512,129.173 175.307,96.1863 174.32,61.0748 z" />
  <path
     style="fill:#212121;fill-opacity:1;stroke:#545454;stroke-width:2.61989;stroke-linecap:round;stroke-linejoin:round;stroke-miterlimit:4;stroke-opacity:1;stroke-dasharray:none;stroke-dashoffset:0"
     id="path9190"
     d="M 174.553,8.44384 C 152.069,21.0455 136.845,32.387 132.54,71.9633 L 153.159,76.8593 174.32,61.08 174.553,8.44384 z" />
  <path
     style="fill:#212121;stroke:#545454;stroke-width:2.61989;stroke-linecap:round;stroke-linejoin:round;stroke-miterlimit:4;stroke-opacity:1;stroke-dasharray:none;stroke-dashoffset:0"
     id="path9192"
     d="M 5.21884,484.129 3.30104,491.119" />
  <path
     style="fill:#212121;stroke:#545454;stroke-width:2.61989;stroke-linecap:round;stroke-linejoin:round;stroke-miterlimit:4;stroke-opacity:1;stroke-dasharray:none;stroke-dashoffset:0"
     id="path9194"
     d="M 4.74984,492.9 2.83204,499.89" />
  <path
     style="fill:#212121;stroke:#545454;stroke-width:2.61989;stroke-linecap:round;stroke-linejoin:round;stroke-miterlimit:4;stroke-opacity:1;stroke-dasharray:none;stroke-dashoffset:0"
     id="path9196"
     d="M 4.04774,501.672 2.12994,508.662" />
  <path
     style="fill:#212121;stroke:#545454;stroke-width:2.61989;stroke-linecap:round;stroke-linejoin:round;stroke-miterlimit:4;stroke-opacity:1;stroke-dasharray:none;stroke-dashoffset:0"
     id="path9198"
     d="M 3.22764,510.328 1.30994,517.318" />
  <path
     d="M 286.584,35.1117 362.372,64.8186 C 342.359,115.165 336.509,171.597 343.894,204.469 336.064,228.446 333.229,283.867 332.901,324.701 332.238,406.738 348.571,577.334 348.571,577.334 348.571,577.334 277.464,578.021 254.247,578.681 198.383,557.918 204.39,369.669 209.169,315.793 228.761,311.837 286.584,35.1117 286.584,35.1117 z"
     id="path9200"
     style="fill:#212121;fill-opacity:1;stroke:#545454;stroke-width:2.61989;stroke-linecap:round;stroke-linejoin:round;stroke-miterlimit:4;stroke-opacity:1;stroke-dasharray:none;stroke-dashoffset:0" />
  <path
     d="M 361.89,64.761 C 373.596,66.1967 378.82,102.744 390.463,154.618 413.266,256.238 413.466,425.284 426.934,527.509 L 373.352,533.357 C 361.641,428.684 347.916,323.179 340.279,220.133 341.031,215.21 342.529,209.774 343.876,204.644 337.237,174.199 341.301,117.379 361.89,64.761 z"
     id="path9202"
     style="fill:#212121;fill-opacity:1;stroke:#545454;stroke-width:2.61989;stroke-linecap:round;stroke-linejoin:round;stroke-miterlimit:4;stroke-opacity:1;stroke-dasharray:none;stroke-dashoffset:0" />
  <path
     d="M 286.584,35.1117 362.372,64.8186 C 342.359,115.165 336.509,171.597 343.894,204.469 336.064,228.446 333.229,283.867 332.901,324.701 332.238,406.738 348.571,577.334 348.571,577.334 348.571,577.334 277.464,578.021 254.247,578.681 198.383,557.918 204.39,369.669 209.169,315.793 228.761,311.837 286.584,35.1117 286.584,35.1117 z"
     id="path9214"
     style="fill:#212121;stroke:#545454;stroke-width:2.61989;stroke-linecap:round;stroke-linejoin:round;stroke-miterlimit:4;stroke-opacity:1;stroke-dasharray:none;stroke-dashoffset:0" />
  <rect
     width="62.8879"
     height="15.2513"
     x="227.206"
     y="207.477"
     transform="matrix(0.99561,-0.093602,0.093602,0.99561,0,0)"
     id="rect9204"
     style="fill:#212121;fill-opacity:0.301653;stroke:#545454;stroke-width:2.585929;stroke-linecap:round;stroke-linejoin:round;stroke-miterlimit:4;stroke-opacity:1;stroke-dasharray:none;stroke-dashoffset:0" />
  <path
     d="M 255.706,61.0748 301.787,95.4613 C 271.399,160.609 242.059,272.754 208.535,318.308 219.924,280.917 233.214,206.465 241.423,162.097 247.514,129.173 254.719,96.1863 255.706,61.0748 z"
     id="path9216"
     style="fill:#212121;fill-opacity:1;stroke:#545454;stroke-width:2.61989;stroke-linecap:round;stroke-linejoin:round;stroke-miterlimit:4;stroke-opacity:1;stroke-dasharray:none;stroke-dashoffset:0" />
  <path
     d="M 255.473,8.44384 C 280.674,21.0822 295.29,39.3245 297.486,72.6883 L 276.867,76.8593 255.706,61.08 255.473,8.44384 z"
     id="path9218"
     style="fill:#212121;fill-opacity:1;stroke:#545454;stroke-width:2.61989;stroke-linecap:round;stroke-linejoin:round;stroke-miterlimit:4;stroke-opacity:1;stroke-dasharray:none;stroke-dashoffset:0" />
  <path
     d="M 174.301,28.7087 C 202.672,20.063 229.832,19.6543 255.706,28.4755 L 255.706,8.67704 C 247.359,4.31234 234.393,1.30994 215.588,1.30994 199.127,1.30994 181.867,4.51924 174.301,8.65084 L 174.301,28.7087 z"
     id="path9232"
     style="fill:#212121;fill-opacity:1;stroke:#545454;stroke-width:2.61989;stroke-linecap:round;stroke-linejoin:round;stroke-miterlimit:4;stroke-opacity:1;stroke-dasharray:none;stroke-dashoffset:0" />
  <path
     style="fill:#212121;fill-opacity:0.301653;stroke:#545454;stroke-width:1.309945;stroke-linecap:round;stroke-linejoin:round;stroke-miterlimit:4;stroke-opacity:1;stroke-dasharray:none;stroke-dashoffset:0"
     id="path8474"
     d="M 616.151,253.372 C 620.06,300.441 619.282,346.339 616.151,391.65" />
  <path
     style="fill:#212121;fill-opacity:0.301653;stroke:#545454;stroke-width:1.309945;stroke-linecap:round;stroke-linejoin:round;stroke-miterlimit:4;stroke-opacity:1;stroke-dasharray:none;stroke-dashoffset:0"
     id="path8476"
     d="M 570.5,207.057 533.117,532.246" />
  <path
     style="fill:#212121;stroke:#545454;stroke-width:1.309945;stroke-linecap:round;stroke-linejoin:round;stroke-miterlimit:4;stroke-opacity:1;stroke-dasharray:none;stroke-dashoffset:0"
     id="path8478"
     d="M 573.146,187.872 C 603.361,315.141 587.665,446.238 577.115,576.905" />
  <path
     style="fill:#212121;fill-opacity:1;stroke:#545454;stroke-width:2.61989;stroke-linecap:round;stroke-linejoin:round;stroke-miterlimit:4;stroke-opacity:1;stroke-dashoffset:0"
     id="path8480"
     d="M 573.974,481.176 612.009,481.176 C 620.718,481.176 627.729,474.166 627.729,465.457 L 627.729,386.027 579.101,386.027" />
  <path
     style="fill:#212121;stroke:#545454;stroke-width:2.61989;stroke-linecap:round;stroke-linejoin:round;stroke-miterlimit:4;stroke-opacity:1;stroke-dasharray:none;stroke-dashoffset:0"
     id="path8488"
     d="M 488.809,484.129 486.891,491.119" />
  <path
     style="fill:#212121;stroke:#545454;stroke-width:2.61989;stroke-linecap:round;stroke-linejoin:round;stroke-miterlimit:4;stroke-opacity:1;stroke-dasharray:none;stroke-dashoffset:0"
     id="path8490"
     d="M 488.34,492.9 486.422,499.89" />
  <path
     style="fill:#212121;stroke:#545454;stroke-width:2.61989;stroke-linecap:round;stroke-linejoin:round;stroke-miterlimit:4;stroke-opacity:1;stroke-dasharray:none;stroke-dashoffset:0"
     id="path8492"
     d="M 487.638,501.672 485.72,508.662" />
  <path
     style="fill:#212121;stroke:#545454;stroke-width:2.61989;stroke-linecap:round;stroke-linejoin:round;stroke-miterlimit:4;stroke-opacity:1;stroke-dasharray:none;stroke-dashoffset:0"
     id="path8494"
     d="M 486.818,510.328 484.9,517.318" />
  <path
     d="M 781.061,253.372 C 777.152,300.441 777.93,346.339 781.061,391.65"
     id="path8502"
     style="fill:#212121;fill-opacity:0.301653;stroke:#545454;stroke-width:1.309945;stroke-linecap:round;stroke-linejoin:round;stroke-miterlimit:4;stroke-opacity:1;stroke-dasharray:none;stroke-dashoffset:0" />
  <path
     d="M 826.712,207.057 864.095,532.246"
     id="path8504"
     style="fill:#212121;fill-opacity:0.301653;stroke:#545454;stroke-width:1.309945;stroke-linecap:round;stroke-linejoin:round;stroke-miterlimit:4;stroke-opacity:1;stroke-dasharray:none;stroke-dashoffset:0" />
  <path
     d="M 824.066,187.872 C 793.851,315.141 809.547,446.238 820.097,576.905"
     id="path8506"
     style="fill:#212121;stroke:#545454;stroke-width:1.309945;stroke-linecap:round;stroke-linejoin:round;stroke-miterlimit:4;stroke-opacity:1;stroke-dasharray:none;stroke-dashoffset:0" />
  <path
     d="M 823.238,481.176 785.203,481.176 C 776.494,481.176 769.483,474.166 769.483,465.457 L 769.483,386.027 818.111,386.027"
     id="path8508"
     style="fill:#212121;fill-opacity:1;stroke:#545454;stroke-width:2.61989;stroke-linecap:round;stroke-linejoin:round;stroke-miterlimit:4;stroke-opacity:1;stroke-dashoffset:0" />
  <path
     d="M 706.568,321.514 A 5.14622,5.14622 0 1 1 696.278,321.514 5.14622,5.14622 0 1 1 706.568,321.514 z"
     id="path8524"
     style="fill:#212121;stroke:#545454;stroke-width:2.61989;stroke-linecap:round;stroke-linejoin:round;stroke-miterlimit:4;stroke-opacity:1;stroke-dasharray:none;stroke-dashoffset:0" />
  <path
     d="M 696.333,397.979 709.902,397.979"
     id="path8526"
     style="fill:#212121;stroke:#545454;stroke-width:2.61989;stroke-linecap:round;stroke-linejoin:round;stroke-miterlimit:4;stroke-opacity:1;stroke-dasharray:none;stroke-dashoffset:0" />
  <path
     style="fill:#212121;fill-opacity:0.301653;stroke:#545454;stroke-width:1.309945;stroke-linecap:round;stroke-linejoin:round;stroke-miterlimit:4;stroke-opacity:1;stroke-dasharray:none;stroke-dashoffset:0"
     id="path9178"
     d="M 132.561,253.372 C 136.47,300.441 135.692,346.339 132.561,391.65" />
  <path
     style="fill:#212121;fill-opacity:0.301653;stroke:#545454;stroke-width:1.309945;stroke-linecap:round;stroke-linejoin:round;stroke-miterlimit:4;stroke-opacity:1;stroke-dasharray:none;stroke-dashoffset:0"
     id="path9180"
     d="M 86.9098,207.057 49.5263,532.246" />
  <path
     style="fill:#212121;stroke:#545454;stroke-width:1.309945;stroke-linecap:round;stroke-linejoin:round;stroke-miterlimit:4;stroke-opacity:1;stroke-dasharray:none;stroke-dashoffset:0"
     id="path9182"
     d="M 89.5558,187.872 C 119.771,315.141 104.075,446.238 93.5248,576.905" />
  <path
     style="fill:#212121;fill-opacity:1;stroke:#545454;stroke-width:2.61989;stroke-linecap:round;stroke-linejoin:round;stroke-miterlimit:4;stroke-opacity:1;stroke-dashoffset:0"
     id="path9184"
     d="M 90.3838,481.176 128.419,481.176 C 137.128,481.176 144.139,474.166 144.139,465.457 L 144.139,386.027 95.5108,386.027" />
  <path
     d="M 297.465,253.372 C 293.556,300.441 294.334,346.339 297.465,391.65"
     id="path9206"
     style="fill:#212121;fill-opacity:0.301653;stroke:#545454;stroke-width:1.309945;stroke-linecap:round;stroke-linejoin:round;stroke-miterlimit:4;stroke-opacity:1;stroke-dasharray:none;stroke-dashoffset:0" />
  <path
     d="M 343.116,207.057 380.499,532.246"
     id="path9208"
     style="fill:#212121;fill-opacity:0.301653;stroke:#545454;stroke-width:1.309945;stroke-linecap:round;stroke-linejoin:round;stroke-miterlimit:4;stroke-opacity:1;stroke-dasharray:none;stroke-dashoffset:0" />
  <path
     d="M 340.47,187.872 C 310.255,315.141 325.951,446.238 336.501,576.905"
     id="path9210"
     style="fill:#212121;stroke:#545454;stroke-width:1.309945;stroke-linecap:round;stroke-linejoin:round;stroke-miterlimit:4;stroke-opacity:1;stroke-dasharray:none;stroke-dashoffset:0" />
  <path
     d="M 339.642,481.176 301.607,481.176 C 292.898,481.176 285.887,474.166 285.887,465.457 L 285.887,386.027 334.515,386.027"
     id="path9212"
     style="fill:#212121;fill-opacity:1;stroke:#545454;stroke-width:2.61989;stroke-linecap:round;stroke-linejoin:round;stroke-miterlimit:4;stroke-opacity:1;stroke-dashoffset:0" />
  <path
     d="M 424.807,484.129 426.725,491.119"
     id="path9220"
     style="fill:#212121;stroke:#545454;stroke-width:2.61989;stroke-linecap:round;stroke-linejoin:round;stroke-miterlimit:4;stroke-opacity:1;stroke-dasharray:none;stroke-dashoffset:0" />
  <path
     d="M 425.276,492.9 427.194,499.89"
     id="path9222"
     style="fill:#212121;stroke:#545454;stroke-width:2.61989;stroke-linecap:round;stroke-linejoin:round;stroke-miterlimit:4;stroke-opacity:1;stroke-dasharray:none;stroke-dashoffset:0" />
  <path
     d="M 425.978,501.672 427.896,508.662"
     id="path9224"
     style="fill:#212121;stroke:#545454;stroke-width:2.61989;stroke-linecap:round;stroke-linejoin:round;stroke-miterlimit:4;stroke-opacity:1;stroke-dasharray:none;stroke-dashoffset:0" />
  <path
     d="M 426.798,510.328 428.716,517.318"
     id="path9226"
     style="fill:#212121;stroke:#545454;stroke-width:2.61989;stroke-linecap:round;stroke-linejoin:round;stroke-miterlimit:4;stroke-opacity:1;stroke-dasharray:none;stroke-dashoffset:0" />
  <path
     d="M 222.97,321.514 A 5.14622,5.14622 0 1 1 212.68,321.514 5.14622,5.14622 0 1 1 222.97,321.514 z"
     id="path9228"
     style="fill:#212121;stroke:#545454;stroke-width:2.61989;stroke-linecap:round;stroke-linejoin:round;stroke-miterlimit:4;stroke-opacity:1;stroke-dasharray:none;stroke-dashoffset:0" />
  <path
     d="M 212.737,397.979 226.306,397.979"
     id="path9230"
     style="fill:#212121;stroke:#545454;stroke-width:2.61989;stroke-linecap:round;stroke-linejoin:round;stroke-miterlimit:4;stroke-opacity:1;stroke-dasharray:none;stroke-dashoffset:0" />
</svg>
