<?xml version="1.0" encoding="UTF-8" standalone="no"?>
<!-- Created with Inkscape (http://www.inkscape.org/) -->

<svg
   xmlns:svg="http://www.w3.org/2000/svg"
   xmlns="http://www.w3.org/2000/svg"
   xmlns:xlink="http://www.w3.org/1999/xlink"
   version="1.1"
   width="5355.61"
   height="3353.71"
   id="svg4868">
  <defs
     id="defs4870">
    <path
       d="M 76.777,828.669 123.799,-0.805"
       id="45" />
    <path
       d="M 76.777,828.669 123.799,-0.805"
       id="47" />
    <path
       d="M 0,540 247.297,540"
       id="49" />
    <path
       d="M 0,833.295 0,110.083"
       id="51" />
    <path
       d="M -21.6,452.588 52.978,72.882"
       id="53" />
    <marker
       refX="0"
       refY="0"
       orient="auto"
       id="noteArrow"
       style="overflow:visible">
      <path
         d="M 0,0 9,-3 C 8,-2 8,2 9,3 z"
         id="path4161"
         style="fill:#0275d8;stroke:#0275d8" />
    </marker>
    <marker
       refX="0"
       refY="0"
       orient="auto"
       id="marker4763"
       style="overflow:visible">
      <path
         d="M 0,0 9,-3 C 8,-2 8,2 9,3 z"
         id="path4765"
         style="fill:#0275d8;stroke:#0275d8" />
    </marker>
    <marker
       refX="0"
       refY="0"
       orient="auto"
       id="marker4767"
       style="overflow:visible">
      <path
         d="M 0,0 9,-3 C 8,-2 8,2 9,3 z"
         id="path4769"
         style="fill:#0275d8;stroke:#0275d8" />
    </marker>
    <marker
       refX="0"
       refY="0"
       orient="auto"
       id="marker4771"
       style="overflow:visible">
      <path
         d="M 0,0 9,-3 C 8,-2 8,2 9,3 z"
         id="path4773"
         style="fill:#0275d8;stroke:#0275d8" />
    </marker>
    <marker
       refX="0"
       refY="0"
       orient="auto"
       id="marker4775"
       style="overflow:visible">
      <path
         d="M 0,0 9,-3 C 8,-2 8,2 9,3 z"
         id="path4777"
         style="fill:#0275d8;stroke:#0275d8" />
    </marker>
    <marker
       refX="0"
       refY="0"
       orient="auto"
       id="grainlineStart"
       style="overflow:visible">
      <path
         d="M 0,0 12,-4 C 10,-2 10,2 12,4 z"
         id="path4170"
         style="fill:#999999;stroke:#999999" />
    </marker>
    <marker
       refX="0"
       refY="0"
       orient="auto"
       id="grainlineEnd"
       style="overflow:visible">
      <path
         d="M 0,0 -12,-4 C -10,-2 -10,2 -12,4 z"
         id="path4173"
         style="fill:#999999;stroke:#999999" />
    </marker>
    <path
       d="M 166.869,801.35 166.869,7.14"
       id="65" />
    <clipPath
       id="clipPath6079">
      <rect
         width="529.32"
         height="3082.98"
         x="778.12"
         y="-1169.21"
         id="rect6081"
         style="opacity:0.372951;fill:#64b5f6;stroke:none" />
    </clipPath>
    <clipPath
       id="clipPath6089">
      <rect
         width="638.417"
         height="3123.39"
         x="138.56"
         y="-1197.49"
         id="rect6091"
         style="opacity:0.372951;fill:#545454;fill-opacity:1;stroke:none" />
    </clipPath>
    <marker
       refX="0"
       refY="0"
       orient="auto"
       id="Scissors"
       style="overflow:visible">
      <path
         d="M 9.08989,-3.6061 C 8.11988,-4.777 6.36976,-4.73583 5.06236,-4.23277 L -3.15005,-1.15487 C -5.53834,-2.46158 -7.89834,-2.08741 -7.89834,-2.72366 -7.89834,-3.22097 -7.44167,-3.11198 -7.51003,-4.40685 -7.57566,-5.65013 -8.87361,-6.56993 -10.1004,-6.4885 -11.3277,-6.49585 -12.5999,-5.55533 -12.6108,-4.25843 -12.7022,-2.95205 -11.6036,-1.73874 -10.304,-1.6532 -8.78166,-1.42654 -6.08575,-2.34876 -4.82106,-0.082343 -5.76334,1.65592 -7.43508,1.66073 -8.94657,1.57373 -10.2014,1.50149 -11.7087,1.86113 -12.3072,3.09459 -12.8856,4.27667 -12.3184,5.95919 -10.9905,6.321 -9.65028,6.81283 -7.8098,6.19129 -7.4911,4.65028 -7.24544,3.46245 -8.08646,2.90432 -7.76361,2.47312 -7.51999,2.14776 -5.97282,2.33628 -3.2165,1.0983 L 5.67635,4.23307 C 6.80002,4.54677 8.17307,4.53626 9.16844,3.43136 L -0.051641,-0.053722 9.08989,-3.6061 z M -9.21792,-5.50661 C -7.92336,-4.78381 -8.02908,-2.82304 -9.37434,-2.44332 -10.5909,-2.01966 -12.1454,-3.20229 -11.7575,-4.52078 -11.5304,-5.60263 -10.1041,-6.00141 -9.21792,-5.50661 z M -9.16165,2.51076 C -7.81082,3.00962 -8.04021,5.29519 -9.41387,5.60237 -10.3249,5.91871 -11.6274,5.46357 -11.7196,4.39023 -11.8972,3.08517 -10.3635,1.90608 -9.16165,2.51076 z"
         id="schere"
         style="marker-start:none" />
    </marker>
  </defs>
  <rect
     width="5355.61"
     height="3353.71"
     x="0"
     y="0"
     id="rect6904"
     style="fill:#ffffff;stroke:none" />
  <path
     d="M 430.695,822.01 405.578,822.01 380.461,822.01 393.02,794.383 405.578,766.757 418.136,794.383 430.695,822.01 z"
     id="path6045"
     style="fill:#ff5b77;fill-opacity:1;stroke:#ff5b77;stroke-width:11.999983;stroke-linecap:round;stroke-linejoin:round;stroke-miterlimit:4;stroke-opacity:1;stroke-dasharray:none;stroke-dashoffset:0" />
  <use
     transform="matrix(3.54331,0,0,3.54331,443.787,192.01)"
     id="71"
     x="218"
     y="155.125"
     width="744.094"
     height="1052.36"
     xlink:href="#notch" />
  <use
     transform="matrix(3.54331,0,0,3.54331,443.787,192.01)"
     id="72"
     x="250.306"
     y="270.028"
     width="744.094"
     height="1052.36"
     xlink:href="#notch" />
  <use
     transform="matrix(3.54331,0,0,3.54331,443.787,192.01)"
     id="73"
     x="143.64"
     y="662.5"
     width="744.094"
     height="1052.36"
     xlink:href="#logo" />
  <use
     transform="matrix(3.54331,0,0,3.54331,443.787,192.01)"
     id="74"
     x="232.508"
     y="49.82"
     width="744.094"
     height="1052.36"
     xlink:href="#notch" />
  <use
     transform="matrix(3.54331,0,0,3.54331,443.787,192.01)"
     id="75"
     x="247.297"
     y="540"
     width="744.094"
     height="1052.36"
     xlink:href="#notch" />
  <use
     transform="matrix(3.54331,0,0,3.54331,443.787,192.01)"
     id="76"
     x="0"
     y="540"
     width="744.094"
     height="1052.36"
     xlink:href="#notch" />
  <use
     transform="matrix(3.54331,0,0,3.54331,443.787,192.01)"
     id="77"
     x="186.149"
     y="358.5"
     width="744.094"
     height="1052.36"
     xlink:href="#notch" />
  <use
     transform="matrix(3.54331,0,0,3.54331,443.787,192.01)"
     id="78"
     x="61.149"
     y="358.5"
     width="744.094"
     height="1052.36"
     xlink:href="#notch" />
  <use
     transform="matrix(3.54331,0,0,3.54331,443.787,192.01)"
     id="79"
     x="0"
     y="452.588"
     width="744.094"
     height="1052.36"
     xlink:href="#button-lg" />
  <use
     transform="matrix(3.54331,0,0,3.54331,443.787,192.01)"
     id="80"
     x="0"
     y="568.572"
     width="744.094"
     height="1052.36"
     xlink:href="#button-lg" />
  <g
     transform="translate(-100.306,1321.25)"
     id="g5989">
    <path
       d="M 612.688,-1185.72 573.156,-1163.53 479.875,-919.812 302.125,-841.25 202.719,-837.688 168.562,-802.844 C 168.562,-802.862 157.375,-111.133 157.375,474.406 L 157.375,474.75 164.188,1198.72 164.25,1200.41 C 187.292,1601.29 255.317,1783.78 411.375,1830.38 449.821,1841.85 495.713,1845.23 543.375,1842.38 L 541.375,1913.28 1176.12,1875.03 1211.59,1875.03 1211.59,1768.75 1211.59,1763.75 1211.59,1297.94 C 1211.59,1123.55 1181.03,952.286 1181.03,784.156 1181.03,463.069 1296.19,-103.754 1296.19,-103.75 L 1271.62,-144.688 C 1233.59,-156.101 1201.08,-176.731 1162.94,-214.875 1152.72,-225.094 1144.45,-237.247 1135.31,-255.25 1127.83,-269.973 1121.49,-285.618 1115.28,-304.312 L 1115.25,-304.312 C 1090.06,-380.108 1077.22,-479.736 1077.22,-579.594 1077.22,-735.004 1139.99,-997.373 1149.81,-1050.59 L 1121.38,-1091.88 612.688,-1185.72 z"
       id="42"
       style="fill:#212121;stroke:#212121" />
    <path
       d="M 802.926,822.681 1146.07,822.681 M 1176.14,1543.79 671.143,1543.79 671.143,822.681 753.66,822.681"
       id="31"
       style="fill:none;stroke:#ffffff;stroke-width:6;stroke-miterlimit:4;stroke-dasharray:6, 12;stroke-dashoffset:0" />
    <path
       d="M 192.797,474.42 192.797,885.387"
       id="33" />
    <path
       d="M 192.797,474.42 C 192.797,-110.765 203.99,-802.274 203.99,-802.274 L 310.222,-806.072 507.68,-893.383 606.248,-1150.86 1114.95,-1057.02 C 1105.31,-1004.75 1041.77,-739.182 1041.77,-579.584 1041.77,-419.986 1074.94,-252.77 1137.89,-189.82 1178.8,-148.902 1218.74,-123.564 1261.46,-110.744 1261.46,-110.744 1145.58,459.492 1145.58,784.147 1145.58,955.406 1176.14,1126.67 1176.14,1297.93 L 1176.14,1768.74 541.377,1806.99 C 314.672,1820.65 228.052,1692.82 199.632,1198.38 192.797,1079.47 192.797,982.427 192.797,885.387 L 192.797,474.42 z"
       id="34"
       style="fill:none;stroke:#ffffff;stroke-width:6;stroke-miterlimit:4;stroke-dasharray:6, 12;stroke-dashoffset:0" />
    <path
       d="M 561.655,-100.794 561.655,-154.405 930.521,-202.966 930.521,-149.355 561.655,-100.794 z"
       id="36"
       style="fill:none;stroke:#ffffff;stroke-width:6;stroke-miterlimit:4;stroke-dasharray:6, 12;stroke-dashoffset:0" />
    <path
       d="M 269.332,784.147 1145.58,784.147"
       id="44" />
    <path
       d="M 778.293,1041.04 C 778.293,1041.04 804.205,869.779 804.205,784.147 804.205,587.494 778.293,194.186 778.293,194.186 778.293,194.186 752.381,587.494 752.381,784.147 752.381,869.779 778.293,1041.04 778.293,1041.04 z"
       id="path5987"
       style="fill:none;stroke:#ffffff;stroke-width:6;stroke-miterlimit:4;stroke-dasharray:6, 12;stroke-dashoffset:0" />
  </g>
  <g
     transform="translate(1499.77,1321.25)"
     clip-path="url(#clipPath6089)"
     id="g6019">
    <path
       d="M 612.688,-1185.72 573.156,-1163.53 479.875,-919.812 302.125,-841.25 202.719,-837.688 168.562,-802.844 C 168.562,-802.862 157.375,-111.133 157.375,474.406 L 157.375,474.75 164.188,1198.72 164.25,1200.41 C 187.292,1601.29 255.317,1783.78 411.375,1830.38 449.821,1841.85 495.713,1845.23 543.375,1842.38 L 541.375,1913.28 1176.12,1875.03 1211.59,1875.03 1211.59,1768.75 1211.59,1763.75 1211.59,1297.94 C 1211.59,1123.55 1181.03,952.286 1181.03,784.156 1181.03,463.069 1296.19,-103.754 1296.19,-103.75 L 1271.62,-144.688 C 1233.59,-156.101 1201.08,-176.731 1162.94,-214.875 1152.72,-225.094 1144.45,-237.247 1135.31,-255.25 1127.83,-269.973 1121.49,-285.618 1115.28,-304.312 L 1115.25,-304.312 C 1090.06,-380.108 1077.22,-479.736 1077.22,-579.594 1077.22,-735.004 1139.99,-997.373 1149.81,-1050.59 L 1121.38,-1091.88 612.688,-1185.72 z"
       id="path6021"
       style="fill:#212121;stroke:#212121" />
    <path
       d="M 802.926,822.681 1146.07,822.681 M 1176.14,1543.79 671.143,1543.79 671.143,822.681 753.66,822.681"
       id="path6023"
       style="fill:none;stroke:#ffffff;stroke-width:6;stroke-miterlimit:4;stroke-dasharray:6, 12;stroke-dashoffset:0" />
    <path
       d="M 192.797,474.42 192.797,885.387"
       id="path6025" />
    <path
       d="M 192.797,474.42 C 192.797,-110.765 203.99,-802.274 203.99,-802.274 L 310.222,-806.072 507.68,-893.383 606.248,-1150.86 1114.95,-1057.02 C 1105.31,-1004.75 1041.77,-739.182 1041.77,-579.584 1041.77,-419.986 1074.94,-252.77 1137.89,-189.82 1178.8,-148.902 1218.74,-123.564 1261.46,-110.744 1261.46,-110.744 1145.58,459.492 1145.58,784.147 1145.58,955.406 1176.14,1126.67 1176.14,1297.93 L 1176.14,1768.74 541.377,1806.99 C 314.672,1820.65 228.052,1692.82 199.632,1198.38 192.797,1079.47 192.797,982.427 192.797,885.387 L 192.797,474.42 z"
       id="path6027"
       style="fill:none;stroke:#ffffff;stroke-width:6;stroke-miterlimit:4;stroke-dasharray:6, 12;stroke-dashoffset:0" />
    <path
       d="M 561.655,-100.794 561.655,-154.405 930.521,-202.966 930.521,-149.355 561.655,-100.794 z"
       id="path6029"
       style="fill:none;stroke:#ffffff;stroke-width:6;stroke-miterlimit:4;stroke-dasharray:6, 12;stroke-dashoffset:0" />
    <path
       d="M 269.332,784.147 1145.58,784.147"
       id="path6031" />
    <path
       d="M 778.293,1041.04 C 778.293,1041.04 804.205,869.779 804.205,784.147 804.205,587.494 778.293,194.186 778.293,194.186 778.293,194.186 752.381,587.494 752.381,784.147 752.381,869.779 778.293,1041.04 778.293,1041.04 z"
       id="path6033"
       style="fill:none;stroke:#ffffff;stroke-width:6;stroke-miterlimit:4;stroke-dasharray:6, 12;stroke-dashoffset:0" />
  </g>
  <path
     d="M 678.865,119.72 678.865,3253.21"
     id="path6035"
     style="fill:#212121;fill-opacity:1;stroke:#ff5b77;stroke-width:3;stroke-linecap:square;stroke-linejoin:miter;stroke-miterlimit:4;stroke-opacity:1;stroke-dasharray:24, 6, 3, 6;stroke-dashoffset:0" />
  <g
     transform="translate(-100.306,1321.25)"
     id="g6051">
    <path
       d="M 800.041,623.106 C 660.058,489.083 522.496,479.739 387.899,623.106"
       transform="translate(156.875,-1186.22)"
       id="path6039"
       style="fill:none;stroke:#ff5b77;stroke-width:12;stroke-linecap:round;stroke-linejoin:miter;stroke-miterlimit:4;stroke-opacity:1;stroke-dasharray:none;stroke-dashoffset:0" />
    <path
       d="M 215.531,646.574 162.635,646.574 109.739,646.574 136.187,600.765 162.635,554.956 189.083,600.765 215.531,646.574 z"
       transform="matrix(-0.367741,-0.300383,0.381512,-0.467063,364.776,-218.631)"
       id="path6043"
       style="fill:#ff5b77;fill-opacity:1;stroke:#ff5b77;stroke-width:22.424662;stroke-linecap:round;stroke-linejoin:round;stroke-miterlimit:4;stroke-opacity:1;stroke-dasharray:none;stroke-dashoffset:0" />
  </g>
  <g
     transform="translate(-100.306,3272.86)"
     id="g6055">
    <path
       d="M 800.041,623.106 C 660.058,489.083 522.496,479.739 387.899,623.106"
       transform="translate(156.875,-1186.22)"
       id="path6057"
       style="fill:none;stroke:#ff5b77;stroke-width:12;stroke-linecap:round;stroke-linejoin:miter;stroke-miterlimit:4;stroke-opacity:1;stroke-dasharray:none;stroke-dashoffset:0" />
    <path
       d="M 215.531,646.574 162.635,646.574 109.739,646.574 136.187,600.765 162.635,554.956 189.083,600.765 215.531,646.574 z"
       transform="matrix(-0.367741,-0.300383,0.381512,-0.467063,364.776,-218.631)"
       id="path6059"
       style="fill:#ff5b77;fill-opacity:1;stroke:#ff5b77;stroke-width:22.424662;stroke-linecap:round;stroke-linejoin:round;stroke-miterlimit:4;stroke-opacity:1;stroke-dasharray:none;stroke-dashoffset:0" />
  </g>
  <g
     transform="matrix(-1,0,0,1,3054.86,1321.25)"
     clip-path="url(#clipPath6079)"
     id="g6061"
     style="fill:#545454">
    <path
       d="M 612.688,-1185.72 573.156,-1163.53 479.875,-919.812 302.125,-841.25 202.719,-837.688 168.562,-802.844 C 168.562,-802.862 157.375,-111.133 157.375,474.406 L 157.375,474.75 164.188,1198.72 164.25,1200.41 C 187.292,1601.29 255.317,1783.78 411.375,1830.38 449.821,1841.85 495.713,1845.23 543.375,1842.38 L 541.375,1913.28 1176.12,1875.03 1211.59,1875.03 1211.59,1768.75 1211.59,1763.75 1211.59,1297.94 C 1211.59,1123.55 1181.03,952.286 1181.03,784.156 1181.03,463.069 1296.19,-103.754 1296.19,-103.75 L 1271.62,-144.688 C 1233.59,-156.101 1201.08,-176.731 1162.94,-214.875 1152.72,-225.094 1144.45,-237.247 1135.31,-255.25 1127.83,-269.973 1121.49,-285.618 1115.28,-304.312 L 1115.25,-304.312 C 1090.06,-380.108 1077.22,-479.736 1077.22,-579.594 1077.22,-735.004 1139.99,-997.373 1149.81,-1050.59 L 1121.38,-1091.88 612.688,-1185.72 z"
       id="path6063"
       style="fill:#545454;stroke:#212121" />
    <path
       d="M 802.926,822.681 1146.07,822.681 M 1176.14,1543.79 671.143,1543.79 671.143,822.681 753.66,822.681"
       id="path6065"
       style="fill:#545454;stroke:#ffffff;stroke-width:6;stroke-miterlimit:4;stroke-dasharray:6, 12;stroke-dashoffset:0" />
    <path
       d="M 192.797,474.42 192.797,885.387"
       id="path6067"
       style="fill:#545454" />
    <path
       d="M 192.797,474.42 C 192.797,-110.765 203.99,-802.274 203.99,-802.274 L 310.222,-806.072 507.68,-893.383 606.248,-1150.86 1114.95,-1057.02 C 1105.31,-1004.75 1041.77,-739.182 1041.77,-579.584 1041.77,-419.986 1074.94,-252.77 1137.89,-189.82 1178.8,-148.902 1218.74,-123.564 1261.46,-110.744 1261.46,-110.744 1145.58,459.492 1145.58,784.147 1145.58,955.406 1176.14,1126.67 1176.14,1297.93 L 1176.14,1768.74 541.377,1806.99 C 314.672,1820.65 228.052,1692.82 199.632,1198.38 192.797,1079.47 192.797,982.427 192.797,885.387 L 192.797,474.42 z"
       id="path6069"
       style="fill:#545454;stroke:#ffffff;stroke-width:6;stroke-miterlimit:4;stroke-dasharray:6, 12;stroke-dashoffset:0" />
    <path
       d="M 561.655,-100.794 561.655,-154.405 930.521,-202.966 930.521,-149.355 561.655,-100.794 z"
       id="path6071"
       style="fill:#545454;stroke:#ffffff;stroke-width:6;stroke-miterlimit:4;stroke-dasharray:6, 12;stroke-dashoffset:0" />
    <path
       d="M 269.332,784.147 1145.58,784.147"
       id="path6073"
       style="fill:#545454" />
    <path
       d="M 778.293,1041.04 C 778.293,1041.04 804.205,869.779 804.205,784.147 804.205,587.494 778.293,194.186 778.293,194.186 778.293,194.186 752.381,587.494 752.381,784.147 752.381,869.779 778.293,1041.04 778.293,1041.04 z"
       id="path6075"
       style="fill:#545454;stroke:#ff5b77;stroke-width:6;stroke-linecap:round;stroke-miterlimit:4;stroke-dasharray:18, 6;stroke-dashoffset:0" />
  </g>
  <path
     d="M 3395.25,135.53 3434.78,157.72 3528.07,401.438 3705.82,480 3805.22,483.562 3839.38,518.406 C 3839.38,518.388 3850.57,1210.12 3850.57,1795.66 L 3850.57,1796 3843.75,2519.97 3843.69,2521.66 C 3820.65,2922.54 3752.62,3105.03 3596.57,3151.63 3558.12,3163.1 3512.23,3166.48 3464.57,3163.63 L 3466.57,3234.53 2831.82,3196.28 2796.35,3196.28 2796.35,3090 2796.35,3085 2796.35,2619.19 C 2796.35,2444.8 2826.91,2273.54 2826.91,2105.41 2826.91,1784.32 2711.75,1217.5 2711.75,1217.5 L 2736.32,1176.56 C 2774.35,1165.15 2806.86,1144.52 2845,1106.38 2855.22,1096.16 2863.49,1084 2872.63,1066 2880.11,1051.28 2886.45,1035.63 2892.66,1016.94 L 2892.69,1016.94 C 2917.88,941.142 2930.72,841.514 2930.72,741.656 2930.72,586.246 2867.95,323.877 2858.13,270.66 L 2886.56,229.37 3395.25,135.53 z"
     id="path6099"
     style="fill:#545454;stroke:#212121" />
  <path
     d="M 3205.01,2143.93 2861.87,2143.93 M 2831.8,2865.04 3336.8,2865.04 3336.8,2143.93 3254.28,2143.93"
     id="path6101"
     style="fill:none;stroke:#ffffff;stroke-width:6;stroke-miterlimit:4;stroke-dasharray:6, 12;stroke-dashoffset:0" />
  <path
     d="M 3815.14,1795.67 3815.14,2206.64"
     id="path6103" />
  <path
     d="M 3815.14,1795.67 C 3815.14,1210.49 3803.95,518.976 3803.95,518.976 L 3697.72,515.178 3500.26,427.867 3401.69,170.39 2892.99,264.23 C 2902.63,316.5 2966.17,582.068 2966.17,741.666 2966.17,901.264 2933,1068.48 2870.05,1131.43 2829.14,1172.35 2789.2,1197.69 2746.48,1210.51 2746.48,1210.51 2862.36,1780.74 2862.36,2105.4 2862.36,2276.66 2831.8,2447.92 2831.8,2619.18 L 2831.8,3089.99 3466.56,3128.24 C 3693.27,3141.9 3779.89,3014.07 3808.31,2519.63 3815.14,2400.72 3815.14,2303.68 3815.14,2206.64 L 3815.14,1795.67 z"
     id="path6105"
     style="fill:none;stroke:#ffffff;stroke-width:6;stroke-miterlimit:4;stroke-dasharray:6, 12;stroke-dashoffset:0" />
  <path
     d="M 3446.28,1220.46 3446.28,1166.85 3077.42,1118.28 3077.42,1171.9 3446.28,1220.46 z"
     id="path6107"
     style="fill:none;stroke:#ffffff;stroke-width:6;stroke-miterlimit:4;stroke-dasharray:6, 12;stroke-dashoffset:0" />
  <path
     d="M 3738.61,2105.4 2862.36,2105.4"
     id="path6109" />
  <path
     d="M 3229.65,2362.29 C 3229.65,2362.29 3203.74,2191.03 3203.74,2105.4 3203.74,1908.74 3229.65,1515.44 3229.65,1515.44 3229.65,1725.77 3252.94,1911.38 3252.94,2105.39 3252.94,2192.4 3238.26,2284.13 3229.65,2362.29 z"
     id="path6111"
     style="fill:#212121;stroke:#ff5b77;stroke-width:3;stroke-miterlimit:4;stroke-dasharray:none;stroke-dashoffset:0" />
  <path
     d="M 3227.95,1518.49 3227.95,2347.6"
     id="path7346"
     style="fill:#212121;fill-opacity:1;stroke:#ff5b77;stroke-width:3;stroke-linecap:round;stroke-linejoin:round;stroke-miterlimit:4;stroke-opacity:1;stroke-dasharray:none;stroke-dashoffset:0" />
  <g
     transform="translate(-144.753,1741.47)"
     id="g6881">
    <path
       d="M 215.531,646.574 162.635,646.574 109.739,646.574 136.187,600.765 162.635,554.956 189.083,600.765 215.531,646.574 z"
       transform="matrix(-0.001315,-0.86825,-1.10276,0.001669,2246.14,-942.228)"
       id="path6875"
       style="fill:#ff5b77;fill-opacity:1;stroke:#ff5b77;stroke-width:12.263649;stroke-linecap:round;stroke-linejoin:round;stroke-miterlimit:4;stroke-opacity:1;stroke-dasharray:none;stroke-dashoffset:0" />
    <path
       d="M 1543.82,-1082.36 1268.05,-1082.36"
       id="path6879"
       style="fill:none;stroke:#ff5b77;stroke-width:30;stroke-linecap:round;stroke-linejoin:round;stroke-miterlimit:4;stroke-opacity:1;stroke-dasharray:none;stroke-dashoffset:0" />
  </g>
  <g
     transform="translate(1132.08,1741.47)"
     id="g6885">
    <path
       d="M 215.531,646.574 162.635,646.574 109.739,646.574 136.187,600.765 162.635,554.956 189.083,600.765 215.531,646.574 z"
       transform="matrix(-0.001315,-0.86825,-1.10276,0.001669,2246.14,-942.228)"
       id="path6887"
       style="fill:#ff5b77;fill-opacity:1;stroke:#ff5b77;stroke-width:12.263649;stroke-linecap:round;stroke-linejoin:round;stroke-miterlimit:4;stroke-opacity:1;stroke-dasharray:none;stroke-dashoffset:0" />
    <path
       d="M 1543.82,-1082.36 1268.05,-1082.36"
       id="path6889"
       style="fill:none;stroke:#ff5b77;stroke-width:30;stroke-linecap:round;stroke-linejoin:round;stroke-miterlimit:4;stroke-opacity:1;stroke-dasharray:none;stroke-dashoffset:0" />
  </g>
  <path
     d="M 2388.12,1490.22 C 2478.79,1568.59 2561.74,1781.33 2561.74,1972.34 2561.74,2305.96 2431.95,2576.41 2271.83,2576.41 2111.71,2576.41 1981.92,2305.96 1981.92,1972.34 1983.8,1776.5 2103.75,1264.47 2404.34,1434.91"
     id="path6897"
     style="fill:none;stroke:#ff5b77;stroke-width:5;stroke-linecap:round;stroke-linejoin:round;stroke-miterlimit:4;stroke-opacity:1;stroke-dashoffset:0" />
  <path
     d="M 2274.86,1515.5 C 2272.17,1516.85 2268.47,1507.33 2269.81,1504.64 2271.9,1500.46 2304.02,1477.8 2311.23,1481.41 2321.45,1486.52 2302.67,1497.26 2331.43,1491.51 2339.9,1489.81 2355.2,1483.74 2361.74,1479.38 2364.64,1477.45 2368.38,1470.44 2371.84,1469.28 2380.93,1466.25 2393.05,1472.31 2402.14,1469.28 2411.27,1466.24 2423.04,1464.55 2428.41,1459.18 2430.28,1457.31 2450.15,1461.44 2458.71,1457.16"
     id="path6900"
     style="fill:none;stroke:#ff5b77;stroke-width:5;stroke-linecap:round;stroke-linejoin:round;stroke-miterlimit:4;stroke-opacity:1;stroke-dasharray:none;stroke-dashoffset:0" />
  <path
     d="M 2276.88,2363.78 C 2282.62,2366.86 2297.35,2368.32 2305.17,2368.32 2318.91,2368.32 2327.03,2364.4 2339.51,2360.24 2356.53,2354.57 2375.22,2358.17 2367.8,2380.44 2366.74,2383.61 2305.12,2410.7 2315.27,2420.85 2319.02,2424.6 2359.98,2422.36 2363.76,2420.85 2365.39,2420.19 2373.52,2414.79 2375.88,2414.79 2383.29,2414.79 2353.71,2469.33 2385.98,2469.33"
     id="path6902"
     style="fill:none;stroke:#ff5b77;stroke-width:5;stroke-linecap:round;stroke-linejoin:round;stroke-miterlimit:4;stroke-opacity:1;stroke-dasharray:none;stroke-dashoffset:0" />
  <path
     d="M 4811.26,135.53 4850.79,157.72 4944.07,401.438 5121.82,480 5221.23,483.562 5255.39,518.406 C 5255.39,518.388 5266.57,1210.12 5266.57,1795.66 L 5266.57,1796 5259.76,2519.97 5259.7,2521.66 C 5236.66,2922.54 5168.63,3105.03 5012.57,3151.63 4974.13,3163.1 4928.24,3166.48 4880.57,3163.63 L 4882.57,3234.53 4247.83,3196.28 4212.36,3196.28 4212.36,3090 4212.36,3085 4212.36,2619.19 C 4212.36,2444.8 4242.92,2273.54 4242.92,2105.41 4242.92,1784.32 4127.76,1217.5 4127.76,1217.5 L 4152.33,1176.56 C 4190.36,1165.15 4222.87,1144.52 4261.01,1106.38 4271.23,1096.16 4279.5,1084 4288.64,1066 4296.12,1051.28 4302.46,1035.63 4308.67,1016.94 L 4308.7,1016.94 C 4333.89,941.142 4346.73,841.514 4346.73,741.656 4346.73,586.246 4283.96,323.877 4274.14,270.66 L 4302.57,229.37 4811.26,135.53 z"
     id="path7254"
     style="fill:#545454;stroke:#212121" />
  <path
     d="M 4621.02,2143.93 4277.88,2143.93 M 4247.81,2865.04 4752.81,2865.04 4752.81,2143.93 4670.29,2143.93"
     id="path7256"
     style="fill:none;stroke:#ffffff;stroke-width:6;stroke-miterlimit:4;stroke-dasharray:6, 12;stroke-dashoffset:0" />
  <path
     d="M 5231.15,1795.67 C 5231.15,1210.49 5219.96,518.976 5219.96,518.976 L 5113.73,515.178 4916.27,427.867 4817.7,170.39 4309,264.23 C 4318.64,316.5 4382.18,582.068 4382.18,741.666 4382.18,901.264 4349.01,1068.48 4286.06,1131.43 4245.15,1172.35 4205.21,1197.69 4162.49,1210.51 4162.49,1210.51 4278.37,1780.74 4278.37,2105.4 4278.37,2276.66 4247.81,2447.92 4247.81,2619.18 L 4247.81,3089.99 4882.57,3128.24 C 5109.28,3141.9 5195.9,3014.07 5224.32,2519.63 5231.15,2400.72 5231.15,2303.68 5231.15,2206.64 L 5231.15,1795.67 z"
     id="path7260"
     style="fill:none;stroke:#ffffff;stroke-width:6;stroke-miterlimit:4;stroke-dasharray:6, 12;stroke-dashoffset:0" />
  <path
     d="M 4862.3,1220.46 4862.3,1166.85 4493.43,1118.28 4493.43,1171.9 4862.3,1220.46 z"
     id="path7262"
     style="fill:none;stroke:#ffffff;stroke-width:6;stroke-miterlimit:4;stroke-dasharray:6, 12;stroke-dashoffset:0" />
  <g
     transform="matrix(1.49236,-4.82447,4.82447,1.49236,-1848.33,922.741)"
     id="layer1"
     style="fill:#64b5f6">
    <g
       transform="matrix(4.26108,-1.23513,1.23513,4.26108,-1337.77,-2994.97)"
       id="g4593"
       style="fill:#64b5f6">
      <path
         d="M 59.7317,956.401 C 59.1219,955.008 57.4282,954.565 56.0328,954.688 L 47.2902,955.384 C 45.3544,953.47 42.9827,953.179 43.158,952.567 43.2951,952.089 43.704,952.32 43.9951,951.056 44.2746,949.843 43.2804,948.601 42.0787,948.342 40.9009,947.996 39.4188,948.55 39.051,949.794 38.6031,951.024 39.3248,952.493 40.5505,952.934 41.9515,953.571 44.7971,953.427 45.3883,955.954 44.0035,957.366 42.3951,956.91 40.9662,956.41 39.7798,955.994 38.2318,955.925 37.3165,956.945 36.4348,957.922 36.5164,959.696 37.6932,960.41 38.846,961.252 40.7865,961.162 41.5175,959.768 42.081,958.694 41.4263,957.926 41.8555,957.6 42.1793,957.355 43.6146,957.962 46.6054,957.532 L 54.2901,962.996 C 55.2838,963.607 56.6066,963.975 57.8679,963.187 L 49.9652,957.296 59.7317,956.401 z M 42.6564,949.529 C 43.7017,950.58 43.0597,952.436 41.6619,952.43 40.3757,952.502 39.2073,950.937 39.9435,949.776 40.46,948.799 41.9409,948.809 42.6564,949.529 z M 40.5012,957.251 C 41.6622,958.103 40.8119,960.237 39.4068,960.153 38.4438,960.206 37.3172,959.41 37.5244,958.353 37.7133,957.049 39.5125,956.339 40.5012,957.251 z"
         id="path4599"
         style="fill:#64b5f6;marker-start:none" />
    </g>
  </g>
  <g
     transform="matrix(-1,0,0,1,4007.94,1321.25)"
     id="g7910">
    <path
       d="M -637.718,1041.04 C -637.718,1041.04 -611.806,869.779 -611.806,784.147 -611.806,587.494 -637.718,194.186 -637.718,194.186 -637.718,404.524 -661.008,590.129 -661.008,784.135 -661.008,871.15 -646.33,962.879 -637.718,1041.04 z"
       id="path7906"
       style="fill:#212121;stroke:#ff5b77;stroke-width:3;stroke-miterlimit:4;stroke-dasharray:none;stroke-dashoffset:0" />
    <path
       d="M -636.021,197.24 -636.021,1026.35"
       id="path7908"
       style="fill:#212121;fill-opacity:1;stroke:#ff5b77;stroke-width:3;stroke-linecap:round;stroke-linejoin:round;stroke-miterlimit:4;stroke-opacity:1;stroke-dasharray:none;stroke-dashoffset:0" />
  </g>
  <path
     d="M 5231.15,1795.67 5231.15,2206.64"
     id="path7258" />
  <path
     d="M 5154.62,2105.4 4278.37,2105.4"
     id="path7264" />
  <g
     transform="matrix(0.184813,-0.144662,0.144662,0.184813,74.1096,4736.39)"
     id="g7268">
    <path
       d="M 23050.6,1728.14 A 82.7939,82.7939 0 0 0 23019.2,1734.44 C 23019.2,1734.44 22967.5,1757.15 22904.5,1809.84 22841.5,1862.47 22760.4,1948.02 22680.9,2081 22522.1,2346.97 22370.4,2801.11 22370.4,3564.48 A 82.7939,82.7939 0 0 0 22453.2,3647.28 L 23649.2,3647.28 A 82.7939,82.7939 0 0 0 23732,3564.48 C 23732,2801.11 23580.1,2346.97 23421.2,2081 23341.8,1948.02 23260.7,1862.47 23197.7,1809.84 23134.6,1757.15 23082.9,1734.44 23082.9,1734.44 A 82.7939,82.7939 0 0 0 23050.6,1728.14 z M 23051.2,1906.04 C 23061.9,1913.32 23075.1,1923.12 23091.5,1936.82 23140.6,1977.83 23209.1,2048.57 23279.1,2165.88 23413.9,2391.64 23555.1,2791.38 23565.6,3481.62 L 23168.2,3481.62 23168.2,2853.43 C 23249.9,2810.78 23306.3,2725.04 23306.3,2627 23306.3,2486.8 23191.4,2371.87 23051.2,2371.87 22911,2371.87 22795.9,2486.8 22795.9,2627 22795.9,2725.04 22852.2,2810.78 22933.9,2853.43 L 22933.9,3481.62 22536.6,3481.62 C 22547.1,2791.38 22688.4,2391.64 22823.2,2165.88 22893.3,2048.57 22961.7,1977.83 23010.8,1936.82 23027.2,1923.12 23040.5,1913.32 23051.2,1906.04 z M 23051.2,2494.27 C 23125.2,2494.27 23183.9,2552.95 23183.9,2627 23183.9,2701.05 23125.2,2759.92 23051.2,2759.92 22977.1,2759.92 22918.4,2701.05 22918.4,2627 22918.4,2552.95 22977.1,2494.27 23051.2,2494.27 z"
       id="path7270"
       style="font-size:medium;font-style:normal;font-variant:normal;font-weight:normal;font-stretch:normal;text-indent:0;text-align:start;text-decoration:none;line-height:normal;letter-spacing:normal;word-spacing:normal;text-transform:none;direction:ltr;block-progression:tb;writing-mode:lr-tb;text-anchor:start;color:#000000;fill:#64b5f6;fill-opacity:1;stroke:none;stroke-width:165.571106;marker:none;visibility:visible;display:inline;overflow:visible;enable-background:accumulate;font-family:Bitstream Vera Sans;-inkscape-font-specification:Bitstream Vera Sans" />
  </g>
  <g
     transform="translate(2625.2,1741.47)"
     id="g7939">
    <path
       d="M 215.531,646.574 162.635,646.574 109.739,646.574 136.187,600.765 162.635,554.956 189.083,600.765 215.531,646.574 z"
       transform="matrix(-0.001315,-0.86825,-1.10276,0.001669,2246.14,-942.228)"
       id="path7941"
       style="fill:#ff5b77;fill-opacity:1;stroke:#ff5b77;stroke-width:12.263649;stroke-linecap:round;stroke-linejoin:round;stroke-miterlimit:4;stroke-opacity:1;stroke-dasharray:none;stroke-dashoffset:0" />
    <path
       d="M 1543.82,-1082.36 1268.05,-1082.36"
       id="path7943"
       style="fill:none;stroke:#ff5b77;stroke-width:30;stroke-linecap:round;stroke-linejoin:round;stroke-miterlimit:4;stroke-opacity:1;stroke-dasharray:none;stroke-dashoffset:0" />
  </g>
</svg>
